<?xml version="1.0" encoding="UTF-8"?><svg id="a" xmlns="http://www.w3.org/2000/svg" viewBox="0 0 276.77 280.34"><defs><style>.b{fill:#005bea;}.c{fill:#65dff6;}.d{fill:#0b1f65;}</style></defs><g><path class="d" d="M100.69,183.55c-3.07,2.91-6.25,5.71-9.77,8.06-10.1,6.73-22.81,9.31-34.8,7.44-12-1.87-23.2-8.08-31.44-16.99-10.15-10.99-15.75-26.18-14.66-41.11,1.09-14.92,9.01-29.31,21.31-37.82,2.44-1.69,5.02-3.14,7.67-4.47,7.25-3.63,15.09-6.28,23.18-6.87,14-1.04,28.34,4.44,38.08,14.54,2.95,3.05,5.47,6.48,7.83,10.01,2.57,3.84,4.95,7.83,6.64,12.13,1.19,3.05,2.02,6.23,2.51,9.46,1.25,8.2,.04,16.74-1.93,24.75-2.05,8.29-8.61,15.18-14.62,20.88Z"/><path class="d" d="M32.44,187.62c-.37-.27-.72-.57-1.07-.86,3.46,2.79,7.44,5.31,11.61,7.25-4.51-2.21-9.02-5.34-12.89-8.73-3.9-3.37-7.08-7.06-9.61-10.03-.07-.46-1.4-2.75-2.55-5.02-.55-1.15-1.1-2.27-1.49-3.14-.38-.87-.64-1.45-.69-1.48-.46-.9-.81-1.84-1.23-2.77-.38-.94-.71-1.91-1.07-2.88,.48,1.34,.93,2.67,1.5,3.95-.57-1.28-1.02-2.62-1.5-3.95-2.04-6.18-2.96-13.09-2.26-20.06,.68-6.97,2.99-13.98,6.72-20.27,1.02-1.75,2.63-4.17,4.75-6.73,2.13-2.56,4.83-5.21,7.84-7.46,2.98-2.28,6.33-4.11,9.37-5.59,3.04-1.48,5.79-2.57,7.76-3.25,1.14-.4,2.28-.76,3.45-1.1q-1.94,.56-3.85,1.21c4.72-1.88,9.21-3.04,13.62-3.59-.78,.04-.93-.04-2.79,.17,.75-.11,1.51-.2,2.26-.27,.51-.11,1.19-.19,1.96-.29,.78-.05,1.64-.11,2.5-.17,.87,0,1.75,0,2.54,0,.8,.04,1.52,.07,2.09,.09-.25,.03,.08,.07,.65,.14l2.18,.3-.61-.14c5.9,.77,12.56,2.98,17.16,5.67,.66,.34,1.11,.67,1.38,.88,1.47,.85,2.89,1.79,4.26,2.8-.19-.07,.62,.6,1.24,1.11,.6,.53,.99,.91,.06,.14,3.04,2.31,5.61,5.22,7.95,8.04,2,2.59,3.89,5.36,5.69,8.21,1.79,2.85,3.42,5.83,4.67,8.97,2.53,6.3,3.45,13.23,3.05,20.01l.06-.33c-.24,4.74-.7,8.98-2.19,14.59-.43,2.02-1.36,4.37-2.38,6.33-1.01,1.96-2.05,3.57-2.45,4.3-1.43,1.95-2.51,3.25-3.6,4.53-1.1,1.27-2.22,2.5-3.88,4.18,.97-.75-3.2,3.29-1.46,1.75,2.39-2.04,2.41-2.27,4.38-4.09l-.09,.03c2.19-2.22,4.29-4.58,6.12-7.18,1.83-2.59,3.39-5.44,4.39-8.53,.92-3.11,1.54-6.12,2.09-9.26,.52-3.12,.85-6.3,.91-9.51,.01-4.28-.5-8.78-1.69-13.14-1.16-4.38-3.13-8.57-5.4-12.35-2.48-4.06-5.25-8.11-8.36-11.78-3.09-3.68-6.69-6.72-10.1-8.97-.8-.56-1.53-.99-2.19-1.44-.66-.46-1.32-.86-2.04-1.29-3.33-1.77-7.32-3.44-11.6-4.5-4.28-1.07-8.82-1.61-13.08-1.47,.16,0,.32,0,.42,0-4.52,.12-7.92,.5-12.19,1.58,.03,.03-.63,.21-.94,.31-.2,0-1.86,.45-4.2,1.29-2.34,.83-5.34,2.1-8.25,3.58-2.92,1.46-5.77,3.14-7.89,4.61-2.11,1.5-3.55,2.68-3.85,2.92-.35,.3-.71,.61-1.07,.92-3.51,3.03-6.66,6.6-9.23,10.38-2.59,3.77-4.5,7.79-5.79,11.58-.51,1.66-.95,3.57-1.21,5.01-.35,1.37-.34,1.65-.62,3.32-1.04,4.22-.87,6.8-.65,4.57-.23,3.55-.13,7.12,.26,10.25,.16,1.45,.47,2.87,.76,4.32,.3,1.21,.4,1.9,.46,2.54,.9,3.07,.53,2.2,1.56,5.4,.03,.2,.27,.79,.58,1.57,.16,.39,.34,.83,.54,1.29,.22,.45,.44,.93,.67,1.41,.44,.97,.96,1.9,1.37,2.65,.4,.76,.73,1.32,.84,1.53l-.29-.47c1.84,3.4,3.12,5.68,5.46,8.68,3.25,4.18,7.36,7.98,11.83,11.08,4.46,3.13,9.32,5.46,13.95,7.08,.13-.07-2.04-.72-2.09-.91,5.37,2.11,11.13,3.49,16.99,3.71,1.05,.1,2.35,.11,2.83,.16,1.88-.01,1.1-.1,2.48-.15l.19,.1c1-.13,1.73-.18,2.45-.21,.72-.06,1.42-.12,2.36-.28,.09-.06,.77-.2,1.43-.32,.06,.13,2.03-.43,1.95-.32h.02c.4-.1,.68-.18,1.16-.27,.36-.13,2.28-.73,4.13-1.48,.92-.38,1.84-.79,2.56-1.13,.71-.36,1.24-.63,1.42-.72l.34-.13c.97-.47,1.33-.76,.77-.5l1.19-.59-.13,.08c.4-.19,.78-.41,1.16-.62,.22-.11,.48-.2,.18,.03,.65-.4,1.35-.83,1.99-1.23-.89,.54-1.94,1.05-2.98,1.59-1.07,.48-2.15,.98-3.17,1.34,.81-.37,2.26-1.05,3.12-1.49,.52-.25,1.31-.64,2.16-1.1,.83-.5,1.76-1.01,2.53-1.51,.33-.24,.48-.5,1.26-.99,.42-.19,.83-.62,1.47-1.03-.66,.58-1.36,1.07-2.09,1.59,.19,0,1.79-1.22,2.36-1.64,.24-.22,1.59-1.28,2.38-2-.29,.38,.7-.51,1.21-.9,.55-.47,.86-.81,.62-.64,.11-.23-2.19,1.86-1.52,1.1,.24-.13,1.28-1.08,1.83-1.6-.03-.05-.41,.31-.09-.06,.63-.56,1.23-1.22,1.62-1.51-.1,.12-.36,.35-.54,.52,.4-.37-.61,.72-1.62,1.76-1.01,1.04-2.04,2.03-1.51,1.55-.16,.1,.98-.99,2.04-2.08,1.07-1.09,2.07-2.16,1.81-1.91-.51,.44,.27-.41-.25,.05l-.51,.58c-.7,.63-1.07,.81-.85,.55,.58-.53-.16,.31-.96,1.15-.79,.84-1.64,1.68-1.15,1.22l-.44,.34c.42-.4,1.55-1.45,2.03-1.8-.04-.05,.52-.58,.98-1.04l.17-.15c.46-.47,1.14-1.1,.78-.86-2.82,2.66,1.43-2.19-1.33,.35,1.24-.98-.28,.47-1.5,1.58-.15,.07-.74,.52-1.66,1.26-.78,.67-.43,.43-.56,.58-.46,.34-1.32,1.01-1.25,.86-.58,.56-1.04,.75-1.79,1.35-.66,.53,.07,0-.39,.38-1.02,.76-2.54,1.69-3.41,2.21-.37,.15-1.47,.62-.76,.11,1.65-.97-.53,.55,1.16-.53-.81,.32,1.48-.96,1.7-1.28-.56,.31-1.65,.98-2.55,1.57,.07-.03,.13-.06,.2-.09-.81,.5-2.45,1.45-3.42,1.81,.19-.16-.22,0,.39-.31l-1.17,.57c-.14,.08-.29,.17,.06,.03-.54,.29-1.12,.51-1.56,.68-.07,.01-1.65,.73-3.22,1.34-1.57,.62-3.16,1.09-3.06,1.06-.9,.27-1.15,.2-2.03,.48-.02,.02,.51-.12,1.31-.32,.78-.24,1.83-.53,2.82-.89,1.99-.68,3.77-1.51,3.2-1.26-.38,.12-2.82,1.18-5.36,1.9-2.53,.75-5.1,1.25-5.4,1.22-.69,.1-1.52,.23-1.35,.26-1.17,.14,.34-.16-.5-.09-.02,.01,.07,.02-.19,.05h-.81c-1.81,.31-4.49,.26-6.41,.32,.56-.03,1.19-.15,2.41-.21l.22,.03c.17,0,1.18-.09,1.15-.14-1.16,.04-2.16,.02-3.38,.08l-.66-.07s.02,.01,.02,.02c-.4-.05-.36-.06-.21-.07h.08c-.72-.15-4.56-.2-6.64-.69-.62-.09-.06,.02-.84-.09-2.12-.49-3.56-.89-5.71-1.61-.71-.15-.78-.14,.04,.2-.54-.19-1.09-.35-1.62-.56,1.52,.35-2.94-1.27-1.26-.86-.46-.2-1.39-.62-2.28-.95-.11,.01-.28,.02-1.37-.49-1.49-.76-1.13-.6-2.33-1.28-.26-.21,.2,0,.17-.07-.97-.44-1.34-.74-1.71-.99-.37-.26-.73-.51-1.57-1.04-1.09-.62-3.12-2.05-3.24-2-1.36-1.02-1.31-1.08-1.12-1.05Z"/></g><g><path class="d" d="M264.33,125.31c-.96,4.17-2.08,8.33-3.73,12.27-4.76,11.34-14.05,20.64-25.23,25.78-11.18,5.14-24.12,6.17-36.08,3.26-14.73-3.59-27.97-13.29-35.41-26.51-7.44-13.22-8.81-29.8-3.19-43.88,1.11-2.79,2.48-5.47,3.98-8.07,4.1-7.13,9.23-13.75,15.73-18.79,11.24-8.71,26.42-12.12,40.31-9.05,4.2,.93,8.25,2.41,12.22,4.06,4.32,1.81,8.57,3.84,12.4,6.53,2.71,1.91,5.19,4.13,7.42,6.59,5.65,6.23,9.41,14.12,12.23,21.99,2.92,8.15,1.23,17.64-.65,25.82Z"/><path class="d" d="M208.96,167.01c-.46-.02-.93-.08-1.39-.13,4.48,.42,9.25,.32,13.88-.38-5.05,.66-10.61,.55-15.78-.14-5.19-.66-9.94-2-13.74-3.09-.32-.35-2.73-1.53-4.97-2.81-1.11-.66-2.21-1.3-3.02-1.82-.8-.52-1.36-.86-1.41-.87-.89-.5-1.72-1.1-2.59-1.66-.85-.58-1.67-1.22-2.52-1.84,1.15,.86,2.28,1.74,3.48,2.5-1.2-.76-2.33-1.64-3.48-2.5-5.19-4.08-9.83-9.4-13.15-15.68-3.33-6.27-5.31-13.49-5.68-20.89-.12-2.05-.12-5,.24-8.35,.36-3.35,1.16-7.11,2.45-10.7,1.24-3.6,3.04-7.02,4.78-9.98,1.74-2.96,3.45-5.41,4.73-7.09,.74-.97,1.5-1.92,2.3-2.86q-1.32,1.56-2.57,3.18c2.94-4.23,6.08-7.73,9.5-10.66-.64,.47-.81,.49-2.26,1.7,.58-.51,1.16-1.01,1.76-1.5,.37-.38,.9-.83,1.5-1.34,.63-.48,1.32-1.01,2.02-1.55,.73-.49,1.47-.98,2.15-1.43,.69-.42,1.32-.79,1.81-1.09-.19,.16,.1,.02,.63-.24,.53-.26,1.29-.62,2.01-.96l-.59,.23c5.42-2.66,12.28-4.51,17.68-4.82,.75-.08,1.31-.05,1.66-.03,1.72-.1,3.44-.11,5.16-.02-.2,.05,.86,.16,1.67,.24,.8,.11,1.35,.21,.13,.09,3.86,.25,7.66,1.27,11.22,2.34,3.14,1.07,6.29,2.35,9.4,3.75,3.11,1.41,6.16,3.01,8.98,4.96,5.66,3.91,10.33,9.25,13.78,15.19l-.13-.31c2.45,4.14,4.43,7.98,6.32,13.55,.76,1.95,1.3,4.46,1.54,6.68,.24,2.22,.27,4.16,.34,5-.11,2.45-.3,4.15-.5,5.84-.22,1.68-.47,3.36-.94,5.7,.4-1.17-.87,4.57-.25,2.3,.87-3.06,.76-3.27,1.4-5.91l-.06,.07c.61-3.11,1.06-6.27,1.14-9.49,.1-3.21-.19-6.49-1.08-9.66-.97-3.14-2.13-6.03-3.42-8.99-1.31-2.93-2.81-5.79-4.56-8.54-2.39-3.62-5.34-7.14-8.79-10.15-3.43-3.05-7.44-5.49-11.47-7.4-4.37-2.04-8.97-3.91-13.65-5.26-4.67-1.38-9.41-1.93-13.55-1.92-.99-.02-1.84,.02-2.66,.01-.82-.02-1.6,.01-2.44,.06-3.8,.37-8.1,1.19-12.32,2.7-4.21,1.49-8.35,3.58-11.87,6.08,.13-.1,.26-.18,.35-.24-3.75,2.63-6.4,4.86-9.41,8.16,.04,0-.42,.53-.62,.79-.16,.11-1.31,1.42-2.82,3.44-1.51,2.01-3.33,4.76-4.97,7.64-1.65,2.87-3.11,5.88-4.08,8.31-.94,2.45-1.5,4.25-1.62,4.62-.13,.45-.26,.91-.39,1.38-1.27,4.53-1.92,9.3-1.97,13.93-.07,4.63,.57,9.1,1.6,13.02,.5,1.69,1.2,3.55,1.78,4.91,.47,1.35,.64,1.58,1.34,3.15,1.49,4.14,3.07,6.23,2.01,4.22,1.79,3.12,3.88,6.08,5.96,8.5,.95,1.13,2.01,2.16,3.06,3.22,.93,.86,1.41,1.38,1.81,1.88,2.48,2.09,1.68,1.56,4.34,3.68,.14,.15,.67,.52,1.37,1,.35,.24,.75,.51,1.18,.79,.44,.26,.9,.54,1.36,.82,.91,.57,1.87,1.06,2.64,1.47,.76,.42,1.35,.71,1.57,.82l-.5-.23c3.46,1.84,5.81,3.04,9.48,4.27,5.08,1.71,10.69,2.61,16.19,2.74,5.51,.15,10.93-.61,15.74-1.84,.07-.13-2.13,.54-2.27,.41,5.71-1.22,11.35-3.29,16.43-6.38,.95-.51,2.04-1.22,2.48-1.45,1.58-1.06,.87-.71,2.01-1.51l.22-.02c.77-.67,1.36-1.12,1.95-1.55,.57-.46,1.14-.9,1.83-1.56,.04-.1,.54-.6,1.03-1.07,.13,.08,1.47-1.5,1.47-1.36v-.02c.29-.3,.49-.52,.84-.87,.23-.31,1.52-1.89,2.66-3.57,.57-.84,1.11-1.7,1.53-2.38,.4-.7,.7-1.22,.8-1.4l.21-.3c.56-.94,.7-1.39,.37-.85l.67-1.16-.07,.14c.23-.38,.43-.78,.63-1.17,.12-.21,.3-.44,.17-.08,.33-.71,.67-1.46,.99-2.15-.44,.96-1.05,1.97-1.63,3.01-.64,1.01-1.26,2.03-1.92,2.91,.47-.76,1.32-2.15,1.8-3,.3-.5,.74-1.27,1.21-2.14,.42-.88,.92-1.83,1.28-2.69,.14-.39,.13-.69,.51-1.54,.24-.39,.35-.99,.66-1.7-.23,.86-.55,1.67-.88,2.51,.17-.1,.83-2.03,1.07-2.7,.08-.33,.63-1.97,.89-3.03-.03,.48,.3-.83,.52-1.43,.2-.7,.27-1.17,.16-.89-.04-.25-.81,2.79-.66,1.78,.13-.24,.48-1.63,.65-2.38-.06-.02-.17,.5-.11,0,.22-.83,.35-1.72,.53-2.18-.02,.16-.11,.5-.17,.74,.13-.54-.11,.95-.39,2.4-.27,1.45-.59,2.85-.41,2.15-.08,.17,.27-1.39,.56-2.9,.29-1.51,.54-2.98,.46-2.62-.18,.65,0-.5-.18,.18l-.1,.77c-.24,.93-.45,1.28-.41,.94,.19-.78,.03,.35-.17,1.51-.2,1.16-.45,2.34-.29,1.67l-.18,.53c.13-.57,.5-2.09,.7-2.65-.06-.02,.11-.79,.24-1.42l.06-.22c.13-.66,.35-1.57,.17-1.16-.89,3.82-.01-2.65-.92,1.04,.5-1.52,.02,.56-.38,2.18-.09,.14-.33,.85-.7,1.99-.28,1-.12,.6-.15,.8-.19,.55-.55,1.59-.57,1.43-.17,.8-.45,1.22-.76,2.14-.26,.82,.06-.04-.12,.54-.44,1.21-1.2,2.85-1.64,3.78-.22,.33-.89,1.35-.58,.52,.86-1.74-.14,.76,.68-1.1-.5,.73,.72-1.64,.72-2.04-.29,.58-.84,1.75-1.28,2.75,.04-.06,.08-.12,.11-.19-.4,.87-1.26,2.6-1.87,3.44,.08-.24-.18,.13,.15-.48l-.67,1.14c-.08,.15-.15,.3,.06-.01-.3,.55-.66,1.06-.94,1.44-.05,.05-.98,1.54-1.97,2.94-.98,1.41-2.06,2.69-1.99,2.6-.61,.73-.86,.82-1.45,1.54,0,.03,.37-.39,.93-1,.53-.64,1.25-1.48,1.89-2.33,1.3-1.69,2.34-3.39,2-2.85-.26,.31-1.72,2.58-3.46,4.61-1.71,2.05-3.61,3.91-3.88,4.06-.53,.47-1.16,1.05-.99,.98-.91,.77,.2-.32-.47,.2,0,.02,.07-.02-.14,.15l-.68,.46c-1.36,1.27-3.65,2.73-5.24,3.85,.45-.33,.92-.79,1.92-1.53l.2-.1c.15-.1,.95-.74,.89-.76-.96,.69-1.81,1.23-2.82,1.96l-.6,.31s.03,0,.03,0c-.37,.18-.33,.15-.22,.06l.07-.06c-.68,.29-3.96,2.4-5.99,3.15-.57,.27-.04,.05-.76,.39-2.06,.77-3.51,1.24-5.72,1.84-.69,.27-.74,.31,.14,.14-.56,.14-1.12,.31-1.68,.44,1.49-.55-3.19,.57-1.55-.02-.5,.09-1.52,.25-2.46,.47-.09,.07-.22,.17-1.43,.35-1.69,.2-1.29,.13-2.69,.23-.34-.03,.17-.11,.11-.15-1.07,.17-1.55,.13-2,.13-.46-.02-.9-.02-1.91,0-1.27,.09-3.79,.02-3.85,.12-1.72-.1-1.71-.18-1.53-.26Z"/></g><g><path class="b" d="M224.82,150.44c-2.96,1-5.97,1.89-9.06,2.36-8.87,1.37-18.2-.86-25.66-5.85s-13.05-12.65-15.79-21.19c-3.39-10.53-2.41-22.47,2.97-32.14,5.38-9.67,15.17-16.85,26.07-18.73,2.16-.37,4.35-.54,6.54-.61,6-.17,12.08,.49,17.69,2.61,9.71,3.67,17.62,11.8,21.01,21.61,1.02,2.96,1.65,6.05,2.14,9.15,.53,3.38,.88,6.8,.67,10.2-.15,2.41-.59,4.81-1.26,7.13-1.72,5.89-5.19,11.24-9.01,16-3.95,4.92-10.5,7.5-16.31,9.45Z"/><path class="b" d="M178.03,131.78c-.16-.3-.3-.6-.44-.91,1.44,2.93,3.3,5.84,5.48,8.43-2.28-2.9-4.27-6.4-5.79-9.84-1.55-3.45-2.54-6.86-3.42-9.61,.15-.34,.01-2.28-.02-4.14-.03-1.87,.04-3.67,0-3.74-.04-1.47,.03-2.97,.17-4.47-.09,1.04-.19,2.07-.19,3.09,0-1.03,.11-2.06,.19-3.09,.51-4.75,2.02-9.64,4.65-14.07,2.61-4.43,6.33-8.37,10.77-11.38,1.22-.85,3.04-1.95,5.25-2.99,2.21-1.04,4.82-1.96,7.51-2.52,2.68-.59,5.47-.77,7.96-.8,2.49-.04,4.65,.1,6.17,.26,.88,.09,1.75,.2,2.63,.34q-1.46-.23-2.93-.4c3.73,.18,7.07,.76,10.18,1.74-.53-.23-.6-.34-1.89-.8,.53,.17,1.06,.34,1.59,.53,.38,.07,.86,.22,1.41,.39,.54,.2,1.13,.42,1.73,.65l1.7,.77c.52,.27,.99,.51,1.37,.7-.18-.04,.02,.09,.38,.32,.36,.24,.87,.57,1.35,.88l-.35-.29c3.69,2.35,7.45,5.87,9.69,9.09,.33,.43,.52,.8,.63,1.02,.72,1.02,1.38,2.08,1.99,3.17-.12-.1,.21,.6,.46,1.14,.23,.54,.37,.92-.02,.12,1.34,2.46,2.13,5.2,2.86,7.8,.53,2.35,.94,4.79,1.26,7.25,.31,2.46,.49,4.95,.35,7.44-.25,4.98-1.76,9.9-4.11,14.32l.16-.19c-1.62,3.11-3.19,5.84-5.95,9.13-.9,1.23-2.24,2.53-3.52,3.54-1.28,1.02-2.46,1.79-2.95,2.19-3.15,1.69-4.45,2.31-7.72,3.57,.9-.17-3.16,1.25-1.5,.79,2.26-.58,2.33-.77,4.23-1.34l-.07-.02c4.32-1.6,8.71-3.69,12.07-7.29,1.61-1.82,2.97-3.63,4.33-5.58,1.33-1.94,2.56-3.98,3.61-6.13,1.34-2.9,2.41-6.1,2.97-9.43,.59-3.33,.58-6.79,.23-10.05-.41-3.51-1.01-7.09-1.97-10.55-.94-3.45-2.44-6.63-4.04-9.22-.78-1.23-1.27-2.16-1.98-3.19-1.7-2.24-3.87-4.62-6.43-6.68-2.56-2.06-5.46-3.85-8.38-5.09,.11,.04,.22,.09,.28,.13-3.09-1.34-5.5-2.17-8.72-2.78,0,.04-.49-.05-.74-.07-.13-.07-1.39-.29-3.23-.45-1.84-.17-4.26-.24-6.68-.14-2.42,.08-4.87,.33-6.76,.67-1.89,.36-3.23,.7-3.51,.77-.33,.09-.67,.19-1.01,.29-3.32,.93-6.57,2.33-9.5,4.06-2.94,1.71-5.51,3.82-7.57,5.98-.85,.98-1.73,2.14-2.34,3.04-.68,.8-.73,1.02-1.45,2.06-2.1,2.47-2.76,4.29-1.89,2.87-1.25,2.33-2.31,4.77-3.03,7-.34,1.03-.57,2.09-.82,3.15-.17,.91-.33,1.41-.51,1.85-.34,2.36-.34,1.65-.65,4.13-.07,.3-.19,1.87-.12,3.45,0,.79,.07,1.58,.11,2.22,.04,.64,.08,1.12,.1,1.3l-.05-.4c.17,2.87,.26,4.81,.9,7.58,.87,3.85,2.46,7.71,4.5,11.2,2.03,3.51,4.58,6.61,7.2,9.16,.13-.03-1.16-1.12-1.1-1.29,2.95,3.11,6.4,5.89,10.29,7.88,.68,.41,1.54,.84,1.85,1.03,1.27,.59,.79,.26,1.73,.67l.09,.16c1.44,.43,2.03,.85,3.41,1.2,.08-.02,.59,.1,1.07,.22,0,.14,1.51,.34,1.42,.42h.02c.3,.06,.51,.09,.87,.19,.29,.02,1.78,.2,3.27,.24,1.5,.05,2.98-.02,3.27-.05l.27,.02c.8-.01,1.14-.12,.67-.13l.99-.02h-.11c.33,.01,.65-.02,.98-.04,.18,0,.39,.04,.12,.11,.55-.08,1.18-.16,1.73-.22-1.55,.14-3.48,.14-5.08-.03,.66,0,1.85,0,2.57-.03,.43,0,1.08,0,1.81-.04,.72-.07,1.51-.11,2.19-.21,.3-.06,.48-.22,1.16-.3,.35,.02,.75-.16,1.32-.22-.62,.19-1.25,.3-1.91,.42,.13,.09,1.6-.24,2.11-.34,.23-.08,1.48-.36,2.23-.61-.31,.2,.64-.11,1.1-.2,.52-.14,.83-.29,.61-.26,.14-.15-2.06,.55-1.38,.22,.2,0,1.2-.32,1.74-.5-.01-.06-.38,.07-.05-.1,.6-.18,1.2-.45,1.56-.51-.11,.05-.35,.12-.53,.18,.39-.13-.62,.32-1.63,.73-1,.41-2,.77-1.49,.61-.14,.01,.96-.39,2.01-.81,1.05-.42,2.05-.85,1.8-.76-.48,.13,.3-.22-.19-.08l-.52,.25c-.67,.2-.98,.18-.76,.06,1.13-.33-3.07,1.39-2.13,1.02l-.4,.08c.4-.15,1.49-.51,1.93-.58-.01-.06,.53-.25,.97-.42l.16-.04c.46-.18,1.11-.39,.78-.36-2.72,.91,1.59-1.18-1.05-.34,1.15-.24-.32,.26-1.49,.63-.13-.01-.66,.09-1.52,.29-.73,.21-.42,.17-.55,.24-.42,.08-1.2,.25-1.12,.16-.56,.22-.93,.17-1.62,.34-.61,.16,.05,.03-.38,.15-.92,.19-2.24,.34-2.98,.41-.3-.03-1.18-.09-.55-.24,1.41-.13-.52,.25,.94,.04-.65-.08,1.29-.19,1.54-.37-.47,.02-1.41,.13-2.2,.24h.16c-.69,.09-2.09,.23-2.85,.15,.18-.06-.15-.09,.36-.12l-.96,.02c-.12,.01-.25,.03,.03,.05-.45,.03-.91,0-1.25-.04-.05-.02-1.33-.01-2.58-.08-1.25-.05-2.46-.22-2.38-.22-.69-.1-.83-.24-1.51-.32-.02,0,.38,.08,.98,.19,.6,.08,1.4,.2,2.17,.26,1.55,.15,2.99,.13,2.54,.13-.29-.05-2.26-.08-4.19-.37-1.93-.26-3.81-.72-4-.84-.49-.15-1.09-.31-.99-.23-.83-.28,.28-.03-.29-.26-.02,0,.04,.04-.15-.02l-.54-.27c-1.31-.34-3.09-1.23-4.4-1.76,.39,.14,.86,.23,1.71,.56l.13,.09c.12,.05,.82,.3,.82,.24-.79-.34-1.45-.66-2.29-.99l-.42-.27s0,.02,0,.03c-.25-.17-.22-.16-.11-.13,.01,0,.03,0,.06,.02-.42-.35-3-1.52-4.23-2.51-.39-.25-.05,0-.54-.31-1.25-1-2.08-1.73-3.29-2.88-.44-.31-.49-.32-.07,.18-.3-.29-.62-.58-.91-.88,.94,.67-1.53-1.8-.5-1.04-.24-.28-.72-.85-1.22-1.35-.09-.02-.22-.05-.79-.73-.75-.98-.56-.76-1.14-1.59-.1-.23,.15,.05,.16-.01-1-1.21-.71-1.17-1.54-2.39-.54-.75-1.45-2.33-1.57-2.31-.59-1.1-.52-1.14-.38-1.07Z"/></g><g><path class="b" d="M87.32,145.02c-5.73,10.49-16.59,18.02-28.43,19.7,.56,4.03,.53,8.15-.11,12.17-.58,3.68-2.46,7.97-6.16,8.3-3.11,.28-5.63-2.5-7.02-5.29-1.69-3.41-2.51-7.25-2.36-11.05-3.51,.53-14.41,2.74-18.07-3.02-3.88-9.42,11.04-11.26,14.14-11.86-5.89-13.29-2.61-30.09,7.85-40.19,8.05-7.77,19.91-11.15,30.9-9.41,10.58,1.68,13,9.04,13.79,18.92,.6,7.47-.92,15.13-4.52,21.71Z"/><path class="b" d="M55.15,182.72c-.2,.2-.41,.39-.63,.55,1.06-.81,1.87-2.17,2.42-3.64,.57-1.48,.85-3.08,1.06-4.76-.29,1.82-.68,3.6-1.45,5.22-.74,1.61-1.85,2.98-3.12,3.45-1.29,.49-2.67,.17-3.86-.68-1.2-.84-2.19-2.01-2.99-3.1,.05-.34-.64-2.09-1.06-3.83-.44-1.74-.63-3.45-.68-3.52-.1-.57-.19-1.14-.24-1.73l-.02-.33-.02-.43v-2.59c-.5,.09-1,.17-1.5,.26l1.49-.25c0,.71,0,1.43,0,2.14,0,.36,0,.72,.03,1.08l.05,.55-.05-.55c-.03-.35-.03-.72-.03-1.08,0-.71,0-1.42,0-2.14l-1.49,.25c-.87,.15-1.74,.31-2.61,.46-.59,.1-1.19,.2-1.79,.27-1.2,.16-2.41,.26-3.62,.27-2.41,.03-4.92-.26-6.9-1.41-.23-.16-.49-.29-.71-.46l-.62-.56c-.21-.19-.34-.43-.52-.64-.08-.12-.17-.2-.17-.23l-.12-.35c-.39-1.11-.48-2.24-.17-3.25,.6-2.05,2.88-3.47,5.24-4.37,1.32-.53,3.32-1.11,5.71-1.56,.88-.15,1.79-.32,2.72-.48,.3-.05,.6-.11,.9-.16l.45-.08,.23-.04c.06,0,.04-.03,.02-.07l-.04-.11-.67-1.74-.61-1.58c-.13-.31-.24-.62-.32-.95l-.57-1.94c-.64-2.64-.96-5.34-1.02-7.75,0-2.41,.18-4.51,.44-5.98,.17-.85,.25-1.7,.49-2.54-.36,1.4-.29,1.41-.57,2.83,.37-3.62,1.21-6.86,2.42-9.84-.27,.5-.35,.57-.93,1.8l.64-1.52c.21-.72,.71-1.87,1.26-3,.61-1.1,1.21-2.23,1.67-2.91-.11,.35,.59-.73,1.3-1.61l-.33,.31c1.34-1.68,2.84-3.46,4.56-4.95,1.7-1.5,3.5-2.8,5.17-3.76,.45-.29,.84-.42,1.07-.51,1.06-.62,2.18-1.15,3.3-1.65-.22,.2,2.9-.99,1.28-.3,2.54-1.1,5.3-1.67,7.9-2.16,2.34-.3,4.75-.4,7.17-.25,2.42,.16,4.87,.47,7.11,1.31,2.23,.84,4.29,2.2,5.71,4.15,1.44,1.92,2.36,4.23,2.93,6.62v-.25c.42,1.67,.73,3.27,.98,4.98,.24,1.72,.42,3.53,.33,5.65,.05,1.51-.03,3.34-.19,4.94-.15,1.6-.38,2.97-.39,3.59-.86,3.41-1.21,4.8-2.62,7.98,.54-.73-1.43,3.06-.54,1.61,1.24-1.98,1.13-2.18,2.04-3.94l-.06,.04c1.81-4.25,2.86-8.83,3.09-13.48,.14-2.32,0-4.68-.23-6.97-.24-2.31-.61-4.64-1.34-6.95-.5-1.53-1.24-3.06-2.19-4.48-.95-1.43-2.2-2.72-3.67-3.69-2.92-2-6.44-2.74-9.65-3.04-3.51-.31-7.2-.12-10.67,.55-3.47,.69-6.7,1.83-9.4,3.16-.65,.31-1.19,.58-1.73,.84-.54,.25-1.06,.48-1.59,.79-2.36,1.45-4.91,3.37-7.13,5.75-2.24,2.35-4.2,5.08-5.63,7.86l.16-.26c-1.52,2.94-2.55,5.23-3.41,8.36,.04,0-.07,.48-.11,.73-.17,.24-1.23,4.95-1.03,9.79,.11,4.86,1.58,9.58,1.74,10.11,.1,.32,.21,.65,.32,.99,.19,.54,.39,1.08,.58,1.63l.05,.13c.03,.05-.08,.03-.11,.05l-.3,.04-.29,.04-.39,.06c-1.67,.27-3.34,.61-4.96,1.07-1.62,.48-3.21,1.07-4.66,1.95-1.44,.86-2.77,2.09-3.49,3.68-.26,.71-.44,1.5-.44,2.25-.01,.75,.11,1.45,.28,2.01,.1,.56,.2,.88,.35,1.2l.11,.25c.05,.1,.08,.24,.17,.38,.16,.2,.33,.42,.56,.71,.99,1.46,2.26,2.22,2.9,2.47,.65,.28,.73,.24-.05-.17,2.57,1.17,5.28,1.34,7.6,1.32,1.08-.04,2.14-.14,3.21-.28,.91-.12,1.41-.14,1.88-.12l1.06-.17c.1-.02,.19-.03,.26-.03,.14,0,.25-.02,.42,0-.01,.11-.03,.25-.03,.43-.03,.12-.04,.03,.01,.81,.05,.63,.16,1.41,.31,2.19,.29,1.56,.82,3.07,.91,3.41l-.13-.39c.4,1.39,.79,2.53,1.26,3.64,.47,1.12,1.06,2.23,2.04,3.37,.68,.79,1.5,1.52,2.49,2.08,.98,.56,2.2,.89,3.41,.82,1.2-.06,2.41-.51,3.34-1.23,.94-.71,1.65-1.62,2.2-2.55,1.09-1.87,1.63-3.9,1.92-5.85,.29-1.91,.44-3.79,.48-5.59-.11-.07-.02,1.59-.2,1.66,.09-1.37,.12-2.75,.09-4.13-.01-.69-.04-1.38-.09-2.07l-.04-.68v-.26l.27-.03h.07l.17-.03,.56-.09,2.22-.5c.75-.18,1.68-.4,2.03-.46,1.32-.39,.75-.33,1.7-.65l.17,.06c.68-.28,1.18-.49,1.68-.66,.5-.18,1.01-.32,1.61-.67,.05-.07,.5-.31,.94-.53,.04,.05,.38-.12,.7-.3,.32-.19,.63-.37,.62-.3v-.02c.27-.15,.45-.26,.78-.42,.25-.14,1.44-1.01,2.6-1.91,.56-.47,1.12-.94,1.57-1.32,.42-.4,.74-.7,.85-.8l.22-.15c.61-.5,.81-.79,.44-.51,.26-.2,.48-.43,.73-.64l-.08,.08,.71-.65c.14-.11,.32-.21,.16,.01,.38-.39,.79-.86,1.18-1.24-1.09,1.06-2.57,2.24-3.88,3.14,.47-.44,1.43-1.13,1.92-1.64,.69-.49,1.96-1.67,2.91-2.64,.19-.23,.22-.47,.7-.94,.28-.2,.51-.57,.89-.98-.34,.55-.8,.99-1.22,1.49,.15-.02,1.11-1.14,1.43-1.56,.11-.22,.94-1.18,1.34-1.87-.11,.35,.41-.49,.72-.86,.32-.44,.45-.75,.31-.59,0-.2-1.24,1.73-.92,1.05,.14-.14,.75-1,1.01-1.5-.05-.04-.23,.31-.1-.04,.33-.53,.6-1.14,.84-1.42-.04,.11-.18,.33-.28,.48,.2-.35-.25,.66-.74,1.63-.52,.95-1.03,1.87-.75,1.42-.11,.09,.5-.91,1.02-1.92,.5-1.02,.98-2,.84-1.77-.28,.41,.08-.36-.2,.07l-.22,.53c-.37,.59-.61,.78-.52,.55,.29-.51-.01,.28-.4,1.05-.4,.76-.82,1.54-.56,1.11l-.25,.32c.2-.38,.82-1.34,1.11-1.68-.05-.04,.22-.54,.44-.96l.09-.14c.22-.44,.58-1.02,.35-.79-1.44,2.47,.41-1.92-1.02,.44,.69-.93-.06,.41-.69,1.44-.1,.07-.46,.48-.97,1.18-.41,.63-.22,.39-.27,.53-.28,.31-.78,.93-.77,.81-.29,.52-.6,.72-1.04,1.26-.37,.49,.06,0-.2,.35-.59,.72-1.51,1.64-2.04,2.15-.24,.17-.96,.67-.57,.17,.98-.99-.25,.51,.75-.56-.55,.34,.87-.95,.96-1.23-.36,.3-1.02,.96-1.54,1.54l.12-.1c-.47,.51-1.47,1.46-2.08,1.9,.1-.15-.17,.03,.2-.31-.24,.21-.49,.4-.73,.6-.08,.09-.17,.18,.05,.02-.32,.32-.68,.58-.96,.78-.05,.02-1.03,.81-1.99,1.59-1,.72-1.97,1.44-1.92,1.37-.59,.34-.78,.35-1.33,.74,0,.02,.33-.19,.84-.5,.52-.3,1.17-.76,1.79-1.2,1.26-.87,2.33-1.82,1.99-1.52-.13,.07-.57,.41-1.17,.88-.61,.45-1.4,1-2.2,1.54-1.61,1.05-3.31,1.92-3.52,1.97-.46,.22-1.02,.46-.89,.47-.8,.32,.19-.2-.39,0,0,.01,.06,0-.12,.08l-.57,.17c-.59,.3-1.38,.55-2.15,.84-.79,.26-1.59,.48-2.24,.75,.37-.18,.78-.41,1.62-.72l.16-.02c.12-.04,.8-.32,.76-.37-.8,.28-1.5,.45-2.34,.77-.16,.03-.35,.08-.48,.09,0,0,.02,0,.02,.02-.29,.03-.26,.02-.17-.03,.01,0,.03-.02,.06-.03-.25-.02-.89,.15-1.67,.36-.19,.06-.4,.11-.61,.15l-.71,.15c-.56,.11-1.11,.21-1.61,.31l.09,.79c.1,.6,.04,.07,.16,.79l.03,.36v.28l.04,.54,.03,1.02c.01,.68,.01,1.36,0,2.18,.07,.53,.1,.57,.18-.07l-.04,1.25c-.15-1.13-.28,2.31-.42,1.06-.06,.36-.12,1.1-.16,1.79,.04,.07,.11,.19,.01,1.06-.22,1.19-.16,.93-.39,1.88-.1,.22-.06-.14-.12-.11-.23,1.48-.4,1.25-.83,2.56-.13,.41-.39,.99-.62,1.47-.24,.47-.45,.83-.42,.88-.67,.9-.77,.78-.75,.66Z"/></g><path class="d" d="M54.98,122.65c0,.05,0,.1,0,.15-.03-.49,.02-1.01,.14-1.49-.57,.96-.72,2.61,.34,3.18-.4,.22-.14,1.34-.02,1.3,.19,.19,.35,.35,.5,.5l-.32-.35,.32,.35c1,1.02,1.82,2.14,2.89,3.26,.3,.3,.9,.81,1.56,1.26,.65,.45,1.37,.83,1.75,1.06l.35,.18-.37-.23c.54,.1,1.04,.15,1.5,.21-.06-.08-.06-.14-.22-.28,.07,.04,.14,.08,.21,.11,.25-.11,.72,.02,.96-.02-.07,.08,.11,.13,.26,.18l-.05-.07c.59,.14,1.29,.15,1.83,.16,.08,0,.13,.04,.17,.07l.52-.08c-.04,.13,.44,.09,.19,.18,.38-.18,.78-.12,1.13-.34,1.3-.22,2.61-.79,3.65-1.64l-.05-.02c.36-.31,.55-.72,1.03-.99,.21-.37,.55-.8,.47-1.09,.27-.33,.3-.54,.5-.9-.17,0,.13-.4-.08-.3-.31,.09-.2,.2-.44,.27l.04,.02c-.82,.64-1.66,1.18-2.58,1.61-.54,.42-1.27,.62-1.94,.83-.72,.25-1.54,.44-2.2,.55-.16,.05-.27-.07-.41-.13-.61,.05-1.38-.1-2.06-.2h.03c-.37-.06-.59-.26-.94-.36-.01,.03-.06,.02-.1,.03,0-.09-.53-.19-1.06-.34-.53-.15-1.08-.35-1.1-.43l-.11-.05c-.63-.49-1.04-1.25-1.53-1.67-.16-.04-.33-.1-.47-.13-.03-.14-.15-.06-.23-.17,0-.49-.22-.56-.2-.34-.23-.19-.39-.44-.56-.65l-.27-.25c-.08-.07-.07-.15-.03-.23-.18-.19-.07-.17-.17-.42,.07-.11-.47-.5-.46-.6l.03,.03c-.1-.29,.06-.55,0-.82-.1-.75-.17-1.6,.03-2.34-.12-.03,0,.17-.17,.15,.1-.45,.38-.85,.55-1.28,.06-.07,.16-.14,.21-.17,.1-.12-.03-.1,.03-.2l.11,.03c-.02-.18,.21-.17,.22-.33-.04-.03-.02-.08,0-.13,.11,.05,.06-.16,.16-.11h0s.02-.06,.05-.09c-.02-.07-.04-.76-.05-.84l.03-.02c.04-.08-.02-.16-.07-.12l.06-.1v.02l.06-.1s.08,0,.11,.04c0-.08,0-.15,.06-.2-.15,.12-.34,.27-.54,.39,0-.09,.12-.18,.15-.26,.12-.05,.27-.2,.4-.32,.01-.03-.1-.12,0-.16,.1,0,.04-.08,.13-.11,0,.09-.05,.15-.09,.21,.1,.04,.16-.13,.21-.17-.02-.04,.09-.16,.11-.25,.07,.09,.1-.03,.17-.06,.04-.05,.03-.11-.02-.1-.09-.07-.19,.19-.24,.05,.06,0,.11-.11,.13-.18-.05-.03-.06,.02-.09-.05,.05-.06,.02-.17,.1-.17,0,.02-.02,.04-.03,.06,.05-.08,.09,.66,.12,.53-.06,0-.04-.67-.08-.61-.06,.04-.08-.09-.12-.05l.03,.1c-.06,.06-.17,.04-.2,0,.08-.12,.17,.56,.17,.42l-.05,.03c0-.06,.03-.2,.11-.22-.05-.03-.04-.1-.03-.16h.02c0-.08,.06-.15-.03-.15-.17,.31-.42-.51-.62-.23,.19-.06,.1,.11,.04,.25-.05,0-.14,.02-.22,.09-.04,.09,.02,.07,.04,.1-.05,.03-.12,.11-.18,.06,.04,.1-.1,.08-.12,.17,0,.09,.03,.01,.04,.08-.06,.1-.15,.23-.21,.31-.08,0-.23,.04-.28-.08,.1-.15,.12,.14,.18-.03-.17,0,.04-.16-.04-.25-.09,.02-.15,.12-.18,.22h.03c-.02,.08-.08,.25-.19,.3-.04-.04-.09-.03-.07-.09l-.06,.1s.02,.04,.04,.02c.01,.07-.04,.11-.08,.14-.06-.01-.07,.69-.09,.65-.03,.08-.12,.06-.1,.17,.03,.03,.18-.84,.15-.73-.1,.04-.17,1.02-.28,1.02-.02,.06-.04,.14,.02,.15-.07,.09-.09-.07-.17-.02,0,0,.03,0,.02,.03l-.1,.04c.01,.19-.18,.38-.13,.59-.04-.07-.12-.16-.13-.29h.04s0-.13-.05-.15c-.07,.09-.1,.19-.09,.31-.02,.02-.05,.03-.07,.04h.02s-.05,.02-.07,0h0c-.19,0-.04,.44-.18,.61,0,.07,.03,.01,.04,.1-.12,.19-.21,.31-.29,.53,.06,.09,.08,.1,.17,.03l-.06,.16c-.16-.19-.24,.28-.4,.07-.06,.04-.08,.15-.06,.25,.05,.02,.12,.04,.1,.16l-.13,.26c-.07,.03-.09-.03-.14-.03,.06,.23-.15,.19-.15,.41,0,.14,.02,.41,.13,.41,0,.18-.08,.19-.17,.17Z"/><g><path class="d" d="M72.71,113.46c-.16,.63-.45,1.15-.88,1.55s-1.34,.43-1.96,.32c-2.54-.47-2.86-3.15-1.4-4.32,1.79-1.44,4.95-.41,4.23,2.45Z"/><path class="d" d="M70.15,114.83h-.06c.18,0,.38,.04,.57,.05-.45-.16-.8-.41-1.23-.15,.03-.2-.24-.45-.26-.41-.09,0-.16-.02-.24-.05,.05,.02,.1,.04,.15,.05-.06,0-.1-.03-.15-.05-.5-.16-.77-.76-.7-1.29,0-.15,.05-.42,.15-.67,.1-.25,.29-.43,.4-.52l.1-.07c-.06,.03-.07,.03-.12,.06,.07-.16,.16-.31,.29-.43-.04,0-.06-.03-.15-.02l.09-.04c.01-.13,.2-.21,.27-.29,0,.05,.07,.02,.13,0l-.04-.02c.24-.07,.51-.18,.74-.19,.03,0,.06,.01,.07,.03l.21-.05c-.02,.06,.17,.07,.07,.1,.16-.06,.31,0,.47-.03,.54,.11,1.04,.4,1.41,.86v-.02c.13,.16,.34,.3,.33,.58,.13,.17,.16,.46,.28,.55,.02,.24,.04,.34,.04,.59,.08-.05,.03,.25,.1,.15,.12-.15,.04-.17,.14-.3h-.02c.21-.63,.21-1.44-.19-2.13-.32-.41-.72-.82-1.2-1.04-.52-.23-1.11-.27-1.56-.21-.11,.02-.19-.03-.28-.05-.41,.08-.94,.19-1.34,.46h.02c-.21,.12-.4,.18-.59,.34,.01,.01-.02,.04-.02,.06-.05-.02-.31,.27-.46,.62-.16,.34-.22,.71-.26,.74v.08c-.18,.47-.33,1.04-.2,1.5,.07,.09,.14,.18,.2,.24-.01,.09,.07,.08,.1,.16-.05,.3,.09,.39,.08,.25,.13,.15,.22,.34,.35,.46l.2,.15c.06,.04,.07,.08,.07,.13,.16,.09,.09,.09,.23,.22,0,.09,.45,.16,.48,.2h-.03c.18,.09,.28,.25,.47,.32,.55,.22,1.19,.23,1.73,.18,0-.06-.12,.03-.13-.05,.31-.02,.67,0,1.04-.19,.07-.02,.17-.05,.21-.05,.13-.07,.05-.08,.14-.14l.05,.03c.05-.12,.17-.08,.23-.18-.01-.02,.01-.05,.04-.08,.05,.04,.08-.1,.11-.06h0s.02-.04,.05-.05c.02-.05,.12-.49,.11-.53h.02c.03-.07,0-.11-.02-.08l.04-.06h0l.04-.05s.04-.01,.06,.02c0-.05,.01-.09,.04-.13-.08,.09-.19,.19-.3,.26,0-.05,.08-.11,.09-.16,.06-.04,.15-.14,.21-.22,0-.02-.05-.06,0-.1,.05,0,.02-.05,.06-.08,0,.05-.02,.09-.04,.14,.05,.01,.08-.1,.11-.13,0-.02,.04-.11,.04-.17,.04,.04,.05-.04,.08-.06,.02-.04,0-.07-.02-.06-.05-.03-.08,.14-.12,.07,.03,0,.04-.08,.05-.12-.03,0-.03,.02-.05-.01,.02-.04,0-.1,.03-.11,0,.01,0,.03,0,.04,.02-.06,.1,.37,.11,.29-.03,0-.08-.38-.09-.34-.02,.03-.05-.04-.07,0l.03,.05s-.08,.05-.1,.03c.03-.08,.14,.29,.12,.21l-.02,.02s0-.12,.04-.14c-.03,0-.03-.05-.03-.09h0s.01-.09-.03-.08c-.05,.2-.27-.2-.33-.02,.08-.06,.06,.04,.04,.12-.02,0-.07,.03-.1,.08-.01,.05,.01,.04,.03,.05-.02,.02-.05,.07-.08,.05,.03,.05-.05,.05-.05,.1,0,.05,.02,0,.03,.04-.03,.06-.07,.13-.1,.18-.04,0-.12,.03-.14-.03,.05-.08,.06,.07,.09-.02-.09,0,.02-.09-.03-.12-.04,.01-.07,.07-.08,.12h.01s-.04,.13-.1,.15c-.02-.02-.05-.01-.04-.05l-.03,.05s0,.02,.02,0c0,.03-.02,.05-.05,.06-.02,0-.08,.33-.09,.32-.03,.04-.07,.02-.07,.07,.03,.02,.17-.4,.14-.34-.03,.02-.18,.49-.25,.47-.02,.03-.04,.06-.02,.07-.05,.03-.03-.05-.07-.04,0,0,.01,0,0,.02h-.05c-.03,.1-.15,.12-.2,.21,0-.04,0-.1,.03-.15h.02s.02-.04,0-.06c-.04,.01-.07,.04-.1,.09h-.03s-.02-.01-.02-.02h0c-.06-.07-.14,.12-.25,.1-.02,.02,0,.01-.03,.04l-.27-.02s-.03,.06,.02,.09h-.08c.06-.1-.15-.08-.08-.18-.02-.02-.07-.02-.11,0,0,.02,0,.06-.06,.07-.07-.03-.06-.02-.12-.05-.01-.03,0-.04,0-.07-.09,.04-.08-.07-.16-.07-.05,0-.16,0-.17,.06-.07,0-.07-.05-.05-.09Z"/></g><g><path class="d" d="M223,89.21c.1,.59,.19,1.19,.14,1.79-.14,1.57-1.28,2.93-2.69,3.64-1.11,.57-2.44,.78-3.62,.38-.95-.32-1.74-1.02-2.35-1.82-1.74-2.28-1.72-6.21,1.51-7.38,3.06-1.11,6.5,.23,7.02,3.39Z"/><path class="d" d="M219.63,93.81l-.1,.03c.31-.13,.63-.26,.95-.42-.42,.06-.84,.08-1.19,.17-.35,.09-.62,.26-.88,.68-.13-.4-.69-.62-.71-.53-.13,.06-.27,.1-.4,.1,.09,0,.19-.02,.28-.04-.09,.02-.18,.04-.28,.04-.89,.1-1.83-.92-2.17-1.92-.12-.27-.3-.81-.35-1.35-.06-.55,.02-1.06,.12-1.31l.08-.21-.12,.23c-.05-.33-.09-.67-.02-.95-.08,.02-.13,0-.27,.09l.11-.13c-.11-.21,.09-.5,.12-.68,.05,.08,.15,0,.23-.07h-.07c.29-.31,.66-.66,1.05-.81,.05-.02,.1,0,.14,.01,.1-.08,.22-.14,.35-.2,0,.13,.35,0,.19,.14,.25-.22,.57-.21,.85-.38,1.05-.15,2.19-.05,3.25,.37v-.05c.37,.14,.83,.19,1.11,.64,.19,.08,.35,.24,.54,.36,.16,.14,.32,.26,.47,.28,.22,.42,.41,.55,.58,1.01,.1-.14,.25,.42,.3,.18,.1-.36-.05-.35,.02-.67l-.04,.02c-.1-.68-.36-1.37-.77-1.97-.41-.6-.97-1.1-1.59-1.48-.89-.37-1.86-.72-2.83-.75-1.04-.03-2.13,.25-2.89,.65-.18,.11-.36,.08-.56,.1-.74,.39-1.68,1.1-2.1,1.99l.03-.04c-.24,.45-.51,.76-.63,1.25,.04,0,.01,.08,.02,.12-.09,.02-.18,.76-.08,1.46,.08,.71,.35,1.35,.32,1.43l.05,.14c.13,.92,.33,2.01,.9,2.69,.17,.09,.36,.2,.53,.25,.05,.16,.17,.08,.28,.22,.08,.56,.41,.63,.3,.39,.31,.21,.61,.46,.91,.62,.15,.06,.3,.11,.46,.15,.14,.03,.19,.11,.22,.21,.35,.08,.23,.12,.59,.26,.07,.17,.96-.03,1.05-.02l-.06,.02c.42,.03,.72,.24,1.14,.19,1.18-.1,2.31-.74,3.15-1.4-.07-.1-.17,.17-.28,.04,.5-.35,1.07-.7,1.47-1.23,.1-.08,.23-.17,.29-.19,.15-.16,.02-.14,.11-.27l.11,.04c.03-.25,.27-.25,.33-.49-.04-.03,0-.11,.02-.18,.11,.04,.08-.24,.18-.19h0c.02-.05,.02-.09,.06-.14,.01-.11-.13-1.04-.19-1.13l.02-.04c0-.13-.08-.18-.1-.11v-.15l.02,.02v-.15s.08-.06,.13-.01c-.04-.09-.06-.18-.05-.26-.07,.23-.17,.52-.33,.75-.03-.1,.05-.27,.04-.38,.08-.12,.15-.38,.19-.58-.01-.04-.14-.06-.09-.16,.09-.05-.01-.11,.04-.19,.06,.08,.04,.17,.05,.27,.11-.03,.05-.23,.08-.31-.04-.03-.02-.21-.07-.31,.11,.03,.05-.09,.1-.16,0-.07-.05-.11-.08-.08-.11,0-.03,.29-.16,.21,.05-.03,.01-.17,0-.24-.06,0-.04,.06-.1,.02,0-.08-.09-.15-.03-.21,.02,.01,.01,.05,.02,.07,0-.11,.49,.5,.43,.38-.05,.03-.45-.54-.45-.47-.02,.07-.12-.03-.13,.04l.09,.06c0,.09-.11,.14-.16,.12-.01-.15,.48,.36,.4,.24l-.02,.06c-.05-.05-.1-.19-.05-.26-.06,0-.09-.06-.12-.12v-.02c-.03-.06-.03-.14-.11-.09,.07,.35-.65-.13-.63,.22,.11-.16,.14,.03,.18,.18-.04,.02-.1,.1-.12,.21,.02,.09,.06,.05,.09,.06-.02,.06-.04,.16-.11,.16,.09,.06-.04,.12,0,.21,.05,.08,.04,0,.08,.04,0,.12,0,.29-.02,.39-.07,.04-.18,.15-.29,.07,.01-.17,.17,.07,.14-.12-.15,.08-.05-.16-.17-.19-.06,.06-.06,.17-.04,.27l.02-.02c.02,.08,.05,.26-.04,.34-.05-.02-.09,.01-.1-.05l-.02,.11s.03,.03,.05,0c.04,.06,0,.11-.03,.14-.04,0,.12,.64,.07,.62-.02,.08-.11,.08-.08,.17,.07,.02,.02-.82,0-.7-.04,.04,.04,.98-.11,.99-.02,.06-.04,.13,.01,.14-.07,.09-.09-.08-.16-.03,0,0,.03,0,.02,.03l-.1,.03c0,.19-.22,.33-.22,.53-.02-.08-.08-.18-.07-.3h.04s.02-.1-.03-.13c-.09,.06-.12,.14-.13,.26-.02,0-.05,.02-.07,.02h.02s-.05,.01-.06-.01h0c-.17-.06-.14,.36-.34,.43-.02,.05,.02,.02,0,.09-.18,.09-.3,.14-.47,.23,0,.09,.02,.12,.12,.13l-.13,.08c-.02-.23-.32,.02-.33-.22-.06-.01-.13,.03-.17,.1,.02,.04,.06,.11-.02,.17-.15,.02-.11,.02-.24,.03-.05-.04-.03-.08-.06-.12-.1,.16-.19-.05-.32,.04-.07,.06-.24,.15-.2,.25-.12,.05-.15-.03-.18-.11Z"/></g><g><path class="d" d="M242.08,108.78c.1,.59,.19,1.19,.14,1.79-.14,1.57-1.28,2.93-2.69,3.64-1.11,.57-2.44,.78-3.62,.38-.95-.32-1.74-1.02-2.35-1.82-1.74-2.28-1.72-6.21,1.51-7.38,3.06-1.11,6.5,.23,7.02,3.39Z"/><path class="d" d="M238.71,113.39l-.1,.03c.31-.13,.63-.26,.95-.42-.42,.06-.84,.08-1.19,.17-.35,.09-.62,.26-.88,.68-.13-.4-.69-.62-.71-.53-.13,.06-.27,.1-.4,.1,.09,0,.19-.02,.28-.04-.09,.02-.18,.04-.28,.04-.89,.1-1.83-.92-2.17-1.92-.12-.27-.3-.81-.35-1.35-.06-.55,.02-1.06,.12-1.31l.08-.21-.12,.23c-.05-.33-.09-.67-.02-.95-.08,.02-.13,0-.27,.09l.11-.13c-.11-.21,.09-.5,.12-.68,.05,.08,.15,0,.23-.07h-.07c.29-.31,.66-.66,1.05-.81,.05-.02,.1,0,.14,.01,.1-.08,.22-.14,.35-.2,0,.13,.35,0,.19,.14,.25-.22,.57-.21,.85-.38,1.05-.15,2.19-.05,3.25,.37v-.05c.37,.14,.83,.19,1.11,.64,.19,.08,.35,.24,.54,.36,.16,.14,.32,.26,.47,.28,.22,.42,.41,.55,.58,1.01,.1-.14,.25,.42,.3,.18,.1-.36-.05-.35,.02-.67l-.04,.02c-.1-.68-.36-1.37-.77-1.97-.41-.6-.97-1.1-1.59-1.48-.89-.37-1.86-.72-2.83-.75-1.04-.03-2.13,.25-2.89,.65-.18,.11-.36,.08-.56,.1-.74,.39-1.68,1.1-2.1,1.99l.03-.04c-.24,.45-.51,.76-.63,1.25,.04,0,.01,.08,.02,.12-.09,.02-.18,.76-.08,1.46,.08,.71,.35,1.35,.32,1.43l.05,.14c.13,.92,.33,2.01,.9,2.69,.17,.09,.36,.2,.53,.25,.05,.16,.17,.08,.28,.22,.08,.56,.41,.63,.3,.39,.31,.21,.61,.46,.91,.62,.15,.06,.3,.11,.46,.15,.14,.03,.19,.11,.22,.21,.35,.08,.23,.12,.59,.26,.07,.17,.96-.03,1.05-.02l-.06,.02c.42,.03,.72,.24,1.14,.19,1.18-.1,2.31-.74,3.15-1.4-.07-.1-.17,.17-.28,.04,.5-.35,1.07-.7,1.47-1.23,.1-.08,.23-.17,.29-.19,.15-.16,.02-.14,.11-.27l.11,.04c.03-.25,.27-.25,.33-.49-.04-.03,0-.11,.02-.18,.11,.04,.08-.24,.18-.19h0c.02-.05,.02-.09,.06-.14,.01-.11-.13-1.04-.19-1.13l.02-.04c0-.13-.08-.18-.11-.11v-.15l.02,.02v-.15s.08-.06,.13-.01c-.04-.09-.06-.18-.05-.26-.07,.23-.17,.52-.33,.75-.03-.1,.05-.27,.04-.38,.08-.12,.15-.38,.19-.58-.01-.04-.14-.06-.09-.16,.09-.05-.01-.11,.04-.19,.06,.08,.04,.17,.05,.27,.11-.03,.05-.23,.08-.31-.04-.03-.02-.21-.07-.31,.11,.03,.05-.09,.1-.16,0-.07-.05-.11-.08-.08-.11,0-.03,.29-.16,.21,.05-.03,.01-.17,0-.24-.06,0-.04,.06-.1,.02,0-.08-.09-.15-.03-.21,.02,.01,.01,.05,.02,.07,0-.11,.49,.5,.43,.38-.05,.03-.45-.54-.45-.47-.02,.07-.12-.03-.13,.04l.09,.06c0,.09-.11,.14-.16,.12-.01-.15,.48,.36,.4,.24l-.02,.06c-.05-.05-.1-.19-.05-.26-.06,0-.09-.06-.12-.12v-.02c-.03-.06-.03-.14-.11-.09,.07,.35-.65-.13-.63,.22,.11-.16,.14,.03,.18,.18-.04,.02-.1,.1-.12,.21,.02,.09,.06,.05,.09,.06-.02,.06-.04,.16-.11,.16,.09,.06-.04,.12,0,.21,.05,.08,.04,0,.08,.04,0,.12,0,.29-.02,.39-.07,.04-.18,.15-.29,.07,.01-.17,.17,.07,.14-.12-.15,.08-.05-.16-.17-.19-.06,.06-.06,.17-.04,.27l.02-.02c.02,.08,.05,.26-.04,.34-.05-.02-.09,.01-.1-.05l-.02,.11s.03,.03,.05,0c.04,.06,0,.11-.03,.14-.04,0,.12,.64,.07,.62-.02,.08-.11,.08-.08,.17,.07,.02,.02-.82,0-.7-.04,.04,.04,.98-.11,.99-.02,.06-.04,.13,.01,.14-.07,.09-.09-.08-.16-.03,0,0,.03,0,.02,.03l-.1,.03c0,.19-.22,.33-.22,.53-.02-.08-.08-.18-.07-.3h.04s.02-.1-.03-.13c-.09,.06-.12,.14-.13,.26-.02,0-.05,.02-.07,.02h.02s-.05,.01-.06-.01h0c-.17-.06-.14,.36-.34,.43-.02,.05,.02,.02,0,.09-.18,.09-.3,.14-.47,.23,0,.09,.02,.12,.12,.13l-.13,.08c-.02-.23-.32,.02-.33-.22-.06-.01-.13,.03-.17,.1,.02,.04,.06,.11-.02,.17-.15,.02-.11,.02-.24,.03-.05-.04-.03-.08-.06-.12-.1,.16-.19-.05-.32,.04-.07,.06-.24,.15-.2,.25-.12,.05-.15-.03-.18-.11Z"/></g><g><path class="d" d="M215.88,118.9c.11,.64,.21,1.29,.15,1.94-.15,1.7-1.39,3.17-2.91,3.95-1.21,.61-2.65,.85-3.93,.41-1.03-.35-1.89-1.11-2.55-1.97-1.89-2.48-1.87-6.73,1.63-8,3.31-1.2,7.04,.25,7.61,3.68Z"/><path class="d" d="M212.26,123.97l-.11,.03c.34-.14,.7-.29,1.04-.47-.45,.09-.91,.12-1.3,.22-.39,.1-.7,.28-.98,.71-.14-.39-.78-.62-.79-.54-.14,.05-.3,.09-.45,.09,.1,0,.21-.01,.31-.03-.1,.02-.21,.03-.31,.03-.99,.07-2.02-1.03-2.41-2.13-.13-.3-.34-.89-.4-1.49-.08-.6,.02-1.18,.11-1.47l.09-.24-.13,.27c-.04-.37-.08-.74,.01-1.06-.08,.03-.14,0-.28,.11l.11-.14c-.11-.23,.11-.55,.16-.74,.05,.08,.16,0,.25-.09h-.08c.32-.34,.74-.72,1.16-.89,.06-.03,.11-.01,.15,0,.11-.08,.25-.15,.39-.22,0,.13,.39,0,.2,.13,.28-.23,.63-.22,.93-.4,1.15-.16,2.4-.04,3.55,.44v-.06c.4,.16,.89,.23,1.19,.71,.2,.09,.37,.27,.57,.4,.17,.15,.33,.29,.49,.31,.23,.45,.43,.6,.61,1.09,.1-.15,.26,.46,.3,.2,.1-.39-.06-.37,.01-.71l-.04,.02c-.12-.73-.39-1.45-.83-2.1-.45-.64-1.04-1.17-1.7-1.57-.95-.4-1.99-.77-3.03-.8-1.11-.03-2.28,.26-3.1,.68-.2,.11-.39,.09-.6,.11-.79,.41-1.79,1.17-2.25,2.12l.03-.04c-.26,.48-.54,.81-.67,1.33,.04,0,.01,.09,.02,.13-.09,.02-.19,.81-.09,1.56,.08,.76,.36,1.45,.33,1.54l.05,.15c.15,.99,.38,2.15,.99,2.87,.18,.1,.38,.22,.55,.28,.05,.16,.17,.09,.29,.24,.1,.59,.45,.67,.32,.41,.33,.23,.65,.49,.97,.67,.16,.06,.32,.12,.49,.16,.15,.03,.2,.11,.24,.21,.38,.09,.24,.13,.63,.27,.08,.17,1.03-.02,1.12,0l-.06,.02c.44,.03,.77,.24,1.22,.18,1.26-.11,2.47-.8,3.37-1.5-.07-.1-.18,.18-.29,.06,.54-.38,1.13-.76,1.56-1.33,.1-.08,.24-.18,.3-.21,.16-.17,.02-.14,.12-.29l.11,.03c.04-.26,.28-.27,.34-.52-.04-.03,0-.11,.03-.19,.11,.04,.09-.25,.18-.21h0c.02-.05,.03-.09,.06-.15,.02-.12-.12-1.1-.18-1.19l.02-.04c0-.13-.08-.2-.1-.12l.02-.16v.02l.02-.16s.07-.06,.12-.02c-.04-.09-.06-.19-.05-.28-.07,.25-.17,.56-.33,.8-.02-.11,.05-.29,.04-.41,.08-.13,.15-.41,.19-.62-.01-.05-.14-.07-.09-.17,.09-.06-.01-.11,.04-.2,.06,.09,.05,.19,.05,.29,.11-.03,.05-.25,.07-.33-.04-.03-.03-.22-.07-.33,.11,.03,.05-.1,.1-.18,0-.08-.05-.12-.08-.08-.12,0-.02,.31-.16,.22,.05-.04,0-.18,0-.25-.06,0-.04,.06-.1,.02,0-.09-.09-.16-.03-.22,.02,.01,.01,.05,.02,.07-.01-.12,.49,.55,.43,.41-.05,.04-.46-.59-.45-.51-.02,.07-.12-.03-.13,.04l.09,.06c0,.1-.11,.15-.16,.13-.02-.17,.49,.39,.4,.27l-.02,.06c-.05-.06-.11-.21-.05-.28-.06,0-.09-.07-.13-.13v-.02c-.03-.06-.04-.15-.11-.1,.07,.38-.65-.15-.63,.22,.11-.18,.15,.03,.19,.19-.04,.02-.1,.11-.12,.23,.02,.1,.06,.05,.09,.07-.02,.06-.03,.17-.11,.17,.09,.07-.04,.13,0,.23,.05,.08,.04,0,.08,.05,0,.13,0,.31-.01,.42-.07,.04-.18,.16-.29,.07,.01-.19,.17,.07,.14-.13-.15,.09-.05-.17-.17-.2-.06,.07-.06,.19-.04,.29l.02-.02c.02,.09,.05,.28-.04,.37-.05-.03-.09,.01-.1-.05l-.02,.12s.03,.03,.05,0c.03,.06,0,.12-.03,.16-.04,0,.11,.69,.06,.67-.02,.09-.11,.08-.09,.19,.07,.02,.04-.88,.01-.76-.04,.03,0,.29-.02,.55,0,.26-.06,.52-.12,.53-.02,.06-.05,.14,.01,.15-.07,.09-.08-.08-.17-.03,0,0,.03,0,.02,.03l-.1,.04c0,.2-.23,.36-.24,.57-.02-.08-.07-.19-.06-.32h.04s.03-.11-.02-.14c-.09,.07-.13,.15-.14,.28-.02,0-.05,.02-.07,.02h.02c-.05,.02-.05,.01-.06,0h0c-.17-.06-.16,.39-.37,.47-.02,.06,.02,.02,0,.1l-.5,.26c0,.1,.01,.12,.12,.13l-.14,.09c-.01-.24-.34,.03-.34-.21-.06,0-.13,.04-.19,.11,.02,.04,.05,.12-.03,.18-.16,.03-.12,.03-.25,.04-.06-.04-.03-.08-.06-.12-.11,.17-.21-.04-.34,.05-.08,.07-.27,.16-.23,.26-.14,.05-.17-.02-.19-.11Z"/></g><g><path class="d" d="M227.38,138.81c.09,.56,.18,1.13,.13,1.69-.13,1.48-1.21,2.76-2.54,3.44-1.05,.53-2.31,.74-3.42,.36-.9-.31-1.64-.96-2.22-1.72-1.64-2.16-1.62-5.86,1.42-6.97,2.88-1.05,6.13,.22,6.62,3.2Z"/><path class="d" d="M224.17,143.1l-.09,.02c.29-.12,.59-.24,.89-.38-.4,.05-.79,.05-1.12,.13-.33,.08-.57,.25-.81,.67-.12-.4-.64-.62-.65-.53-.12,.06-.25,.1-.37,.11,.08,0,.17-.02,.26-.04-.08,.02-.17,.04-.26,.04-.82,.12-1.71-.84-2-1.78-.11-.25-.27-.75-.32-1.26-.06-.51,.03-.98,.12-1.21l.08-.19-.12,.21c-.05-.3-.1-.62-.04-.88-.08,.02-.13,0-.26,.07l.1-.12c-.12-.2,.07-.47,.1-.64,.05,.08,.15,0,.22-.06h-.07c.27-.29,.61-.62,.97-.75,.05-.02,.1,0,.13,.01,.09-.08,.21-.14,.33-.2,.01,.13,.33,0,.18,.14,.23-.22,.53-.2,.79-.37,.98-.14,2.05-.05,3.05,.33v-.05c.35,.13,.8,.16,1.05,.59,.18,.07,.34,.22,.52,.33,.16,.13,.31,.24,.46,.25,.21,.39,.4,.52,.56,.96,.1-.14,.24,.4,.3,.17,.11-.35-.05-.33,.03-.64l-.04,.02c-.1-.65-.34-1.31-.72-1.89-.39-.57-.92-1.06-1.51-1.42-.86-.35-1.78-.69-2.7-.71-.99-.02-2.03,.25-2.75,.63-.17,.1-.35,.07-.54,.09-.71,.37-1.6,1.05-2.01,1.91l.03-.04c-.23,.43-.49,.72-.61,1.19,.04,0,.02,.08,.02,.12-.09,.02-.17,.73-.07,1.39,.08,.67,.34,1.28,.31,1.36l.05,.13c.12,.88,.3,1.92,.84,2.57,.17,.09,.35,.19,.51,.23,.04,.15,.16,.08,.26,.21,.07,.55,.38,.61,.28,.37,.3,.2,.58,.43,.87,.59,.14,.05,.29,.1,.44,.14,.13,.03,.18,.1,.21,.2,.34,.07,.22,.12,.56,.25,.07,.16,.92-.04,1-.02l-.06,.02c.4,.03,.68,.24,1.09,.19,1.13-.09,2.2-.71,3-1.33-.07-.1-.16,.16-.27,.04,.48-.34,1.02-.66,1.41-1.17,.1-.07,.22-.16,.28-.18,.15-.15,.02-.13,.1-.26l.11,.04c.03-.24,.27-.24,.32-.46-.04-.03,0-.1,.02-.18,.11,.04,.08-.23,.18-.18h0s.02-.08,.06-.14c.01-.11-.14-1-.2-1.08l.02-.04c0-.12-.08-.18-.11-.11v-.14l.02,.02v-.14s.08-.06,.13-.01c-.04-.08-.06-.17-.05-.25-.07,.22-.17,.5-.32,.71-.03-.1,.05-.26,.04-.36,.08-.12,.15-.36,.19-.55,0-.04-.14-.06-.09-.15,.09-.05-.01-.1,.05-.18,.06,.08,.04,.17,.05,.25,.11-.02,.05-.22,.08-.29-.04-.03-.02-.2-.07-.29,.11,.03,.05-.09,.1-.16,0-.07-.05-.1-.08-.07-.11,0-.03,.27-.16,.2,.05-.03,.01-.16,0-.22-.06,0-.04,.05-.1,.02,0-.08-.08-.14-.03-.19,.02,.01,.01,.04,.02,.06,0-.11,.48,.47,.43,.35-.05,.03-.45-.51-.44-.44-.02,.06-.12-.02-.13,.04l.08,.05c0,.09-.11,.14-.16,.11-.01-.15,.48,.34,.4,.23l-.02,.06s-.1-.18-.05-.25c-.06,0-.09-.06-.12-.11v-.02c-.03-.05-.03-.13-.11-.08,.06,.33-.65-.12-.63,.21,.11-.16,.14,.02,.18,.16-.04,.02-.1,.09-.12,.2,.02,.09,.06,.05,.09,.06-.02,.05-.04,.15-.11,.15,.09,.06-.04,.12,0,.2,.05,.07,.04,0,.08,.04,0,.11,0,.27-.02,.36-.07,.04-.18,.14-.29,.07,.01-.16,.17,.06,.14-.11-.15,.08-.05-.15-.16-.18-.06,.06-.06,.16-.04,.25l.02-.02c.02,.08,.05,.24-.04,.32-.05-.02-.09,.01-.1-.05l-.02,.1s.03,.03,.05,0c.04,.05,0,.1-.03,.13-.04,0,.12,.6,.08,.59-.02,.08-.11,.07-.08,.16,.07,.02,0-.77-.01-.66-.04,.04,.05,.93-.1,.94-.02,.06-.04,.13,.02,.14-.07,.08-.09-.07-.16-.03,0,0,.03,0,.02,.03l-.1,.03c0,.18-.2,.31-.2,.5-.02-.07-.08-.18-.08-.29h.03s.02-.1-.03-.13c-.08,.06-.11,.13-.12,.24-.02,0-.05,.01-.07,.02h.02s-.05,.01-.06-.01h0c-.16-.07-.13,.34-.31,.41-.02,.05,.02,.02,0,.09-.17,.08-.29,.12-.45,.21,0,.09,.02,.12,.12,.13l-.12,.07c-.03-.22-.31,0-.32-.22-.06-.01-.12,.03-.16,.09,.02,.04,.06,.11-.02,.17-.14,.02-.1,.02-.22,.02-.05-.04-.03-.08-.06-.12-.09,.15-.18-.05-.3,.03-.07,.06-.23,.14-.19,.24-.12,.04-.15-.03-.17-.12Z"/></g><g><path class="d" d="M197.22,97.41c.11,.64,.21,1.29,.15,1.94-.15,1.7-1.39,3.17-2.91,3.95-1.21,.61-2.65,.85-3.93,.41-1.03-.35-1.89-1.11-2.55-1.97-1.89-2.48-1.87-6.73,1.63-8,3.31-1.2,7.04,.25,7.61,3.68Z"/><path class="d" d="M193.6,102.49l-.11,.03c.34-.14,.7-.29,1.04-.47-.45,.09-.91,.12-1.3,.22-.39,.1-.7,.28-.98,.71-.14-.39-.78-.62-.79-.54-.14,.05-.3,.09-.45,.09,.1,0,.21-.01,.31-.03-.1,.02-.21,.03-.31,.03-.99,.07-2.02-1.03-2.41-2.13-.13-.3-.34-.89-.4-1.49-.08-.6,.02-1.18,.11-1.47l.09-.24-.13,.27c-.04-.37-.08-.74,.01-1.06-.08,.03-.14,0-.28,.11l.11-.14c-.11-.23,.11-.55,.16-.74,.05,.08,.16,0,.25-.09h-.08c.32-.34,.74-.72,1.16-.89,.06-.03,.11-.01,.15,0,.11-.08,.25-.15,.39-.22,0,.13,.39,0,.2,.13,.28-.23,.63-.22,.93-.4,1.15-.16,2.4-.04,3.55,.44v-.06c.4,.16,.89,.23,1.19,.71,.2,.09,.37,.27,.57,.4,.17,.15,.33,.29,.49,.31,.23,.45,.43,.6,.61,1.09,.1-.15,.26,.46,.3,.2,.1-.39-.06-.37,.01-.71l-.04,.02c-.12-.73-.39-1.45-.83-2.1-.45-.64-1.04-1.17-1.7-1.57-.95-.4-1.99-.77-3.03-.8-1.11-.03-2.28,.26-3.1,.68-.2,.11-.39,.09-.6,.11-.79,.41-1.79,1.17-2.25,2.12l.03-.04c-.26,.48-.54,.81-.67,1.33,.04,0,.01,.09,.02,.13-.09,.02-.19,.81-.09,1.56,.08,.76,.36,1.45,.33,1.54l.05,.15c.15,.99,.38,2.15,.99,2.87,.18,.1,.38,.22,.55,.28,.05,.16,.17,.09,.29,.24,.1,.59,.45,.67,.32,.41,.33,.23,.65,.49,.97,.67,.16,.06,.32,.12,.49,.16,.15,.03,.2,.11,.24,.21,.38,.09,.24,.13,.63,.27,.08,.17,1.03-.02,1.12,0l-.06,.02c.44,.03,.77,.24,1.22,.18,1.26-.11,2.47-.8,3.37-1.5-.07-.1-.18,.18-.29,.06,.54-.38,1.13-.76,1.56-1.33,.1-.08,.24-.18,.3-.21,.16-.17,.02-.14,.12-.29l.11,.03c.04-.26,.28-.27,.34-.52-.04-.03,0-.11,.03-.19,.11,.04,.09-.25,.18-.21h0c.02-.05,.03-.09,.06-.15,.02-.12-.12-1.1-.18-1.19l.02-.04c0-.13-.08-.2-.1-.12l.02-.16v.02l.02-.16s.07-.06,.12-.02c-.04-.09-.06-.19-.05-.28-.07,.25-.17,.56-.33,.8-.02-.11,.05-.29,.04-.41,.08-.13,.15-.41,.19-.62-.01-.05-.14-.07-.09-.17,.09-.06-.01-.11,.04-.2,.06,.09,.05,.19,.05,.29,.11-.03,.05-.25,.07-.33-.04-.03-.03-.22-.07-.33,.11,.03,.05-.1,.1-.18,0-.08-.05-.12-.08-.08-.12,0-.02,.31-.16,.22,.05-.04,0-.18,0-.25-.06,0-.04,.06-.1,.02,0-.09-.09-.16-.03-.22,.02,.01,.01,.05,.02,.07-.01-.12,.49,.55,.43,.41-.05,.04-.46-.59-.45-.51-.02,.07-.12-.03-.13,.04l.09,.06c0,.1-.11,.15-.16,.13-.02-.17,.49,.39,.4,.27l-.02,.06c-.05-.06-.11-.21-.05-.28-.06,0-.09-.07-.13-.13v-.02c-.03-.06-.04-.15-.11-.1,.07,.38-.65-.15-.63,.22,.11-.18,.15,.03,.19,.19-.04,.02-.1,.11-.12,.23,.02,.1,.06,.05,.09,.07-.02,.06-.03,.17-.11,.17,.09,.07-.04,.13,0,.23,.05,.08,.04,0,.08,.05,0,.13,0,.31-.02,.42-.07,.04-.18,.16-.29,.07,.01-.19,.17,.07,.14-.13-.15,.09-.05-.17-.17-.2-.06,.07-.06,.19-.04,.29l.02-.02c.02,.09,.05,.28-.04,.37-.05-.03-.09,.01-.1-.05l-.02,.12s.03,.03,.05,0c.03,.06,0,.12-.03,.16-.04,0,.11,.69,.06,.67-.02,.09-.11,.08-.09,.19,.07,.02,.04-.88,.01-.76-.04,.03,0,.29-.02,.55,0,.26-.06,.52-.12,.53-.02,.06-.05,.14,.01,.15-.07,.09-.08-.08-.17-.03,0,0,.03,0,.02,.03l-.1,.03c0,.2-.23,.36-.24,.57-.02-.08-.07-.19-.06-.32h.04s.03-.11-.02-.14c-.09,.07-.13,.15-.14,.28-.02,0-.05,.02-.07,.02h.02c-.05,.02-.05,.01-.06,0h0c-.17-.06-.16,.39-.37,.47-.02,.06,.02,.02,0,.1l-.5,.26c0,.1,.01,.12,.12,.13l-.14,.09c-.01-.24-.34,.03-.34-.21-.06,0-.13,.04-.19,.11,.02,.04,.05,.12-.03,.18-.16,.03-.12,.03-.25,.04-.06-.04-.03-.08-.06-.12-.11,.17-.21-.04-.34,.05-.08,.07-.27,.16-.23,.26-.14,.05-.17-.02-.19-.11Z"/></g><path class="c" d="M198.95,87.11l.04,.03c-.14-.03-.28-.09-.42-.18,.26,.52,.43,.99,.97,.12-.13,.51,.05,.84,.11,.72,.09-.07,.18-.12,.26-.15-.06,.02-.11,.04-.17,.07,.06-.03,.11-.05,.17-.07,.54-.22,.91,.18,1.15,.61,.16,.22,.58,.75,.62,1.04l.03,.11v-.15c.2,.01,.4,.03,.55,.08,.04-.07,.1-.12,.14-.23v.09c.22-.09,.31,.05,.43,.06-.1,.05-.09,.12-.07,.17l.05-.06c.08,.19,.28,.33,.36,.5,.01,.02-.02,.06-.04,.09l.16,.11c-.14,.06-.06,.19-.18,.16,.22,.03,.18,.19,.4,.23,.2,.39,.47,.79,.82,1.21l.05-.02c.13,.14,.47,.24,.4,.47,.23,.12,.36,.34,.68,.38,.07,.19,.22,.26,.31,.45,.16-.05,.2,.19,.32,.09,.22-.14,.03-.14,.2-.27h-.05c.22-.56,.27-1.15,.21-1.74-.23-.34-.23-.77-.42-1.13-.2-.38-.5-.76-.79-1.01-.08-.05,0-.17,.03-.27-.23-.25-.42-.64-.72-.89,0,0,0,.01,0,.02-.15-.14-.11-.36-.26-.49-.03,.03-.06,0-.08,.01,.14-.19-1.11-.52-1.08-.62-.02,0-.04-.01-.06-.02-.24-.32-.34-.92-.68-1.08-.12,.04-.24,.07-.35,.13,0-.11-.11,.04-.16-.02,.04-.46-.15-.36-.13-.18-.16-.03-.28-.13-.41-.17h-.21c-.06,.02-.07-.05-.05-.15-.15,0-.07-.08-.19-.18,.02-.16-.43,.09-.45,.03h.03c-.15-.1-.17-.4-.33-.46-.42-.24-.96-.25-1.38-.35-.03,.15,.1-.02,.08,.18-.25-.07-.49-.28-.75-.33-.04-.05-.1-.12-.12-.18-.08-.06-.05,.07-.12,.05v-.14c-.1,.11-.14-.16-.23-.1,0,.06-.04,.06-.07,.06,0-.15-.1,.01-.09-.12h0s-.03,.02-.06,0c-.04,.05-.36,.47-.38,.54l-.02-.02s-.06,.12-.03,.14h-.05l-.06-.02s-.03-.08-.02-.15c-.03,.05-.06,.09-.1,.06,.1,.08,.23,.2,.33,.35-.04,.05-.11-.02-.15,0-.06-.09-.17-.17-.26-.23-.02,.01-.01,.18-.06,.11-.03-.11-.04,.01-.09-.07,.03-.07,.07-.04,.11-.04-.02-.14-.11-.08-.14-.11,0,.04-.09,.01-.14,.05,0-.13-.05-.08-.09-.14-.04-.01-.05,.04-.03,.09,.01,.14,.14,.07,.12,.22-.02-.07-.08-.03-.11-.02,.01,.08,.03,.05,.02,.13-.04-.01-.06,.09-.1,0,0-.02,.02-.01,.03-.01-.05,0,.19-.54,.14-.48,.02,.07-.22,.49-.18,.49,.04,.03,0,.14,.04,.16l.02-.1s.08,.15,.08,.21c-.07,0,.12-.55,.07-.46l.03,.03c-.02,.05-.08,.11-.12,.03,.01,.08-.02,.11-.04,.14h-.01s-.07,.02-.03,.12c.16-.03,.02,.78,.18,.8-.09-.16,0-.17,.06-.2,.01,.06,.06,.13,.11,.17,.04-.02,.02-.06,.02-.11,.03,.03,.07,.06,.08,.15,.02-.11,.06,.06,.09,.02,.03-.05,0-.05,.01-.1,.05,0,.12,.02,.16,.03,.02,.08,.08,.22,.06,.36-.07-.01,.01-.21-.06-.18,.05,.19-.06,.06-.06,.2,.03,.08,.08,.08,.12,.05v-.02s.09-.07,.14,.03c0,.07,.02,.12,0,.13h.05s0-.03,0-.05c.02-.05,.04-.03,.06,.01,0,.07,.25-.3,.24-.26,.04,0,.05,.1,.08,.03,0-.06-.33,.25-.28,.23,.03,.08,.39-.37,.42-.23,.03,0,.06-.02,.05-.09,.04,.04-.02,.14,.01,.2,0-.01,0-.04,0-.03l.03,.09c.07-.11,.17,.04,.24-.1-.03,.08-.06,.21-.1,.28v-.04s-.05,.05-.05,.12c.04,.05,.08,.04,.12-.03l.02,.06v-.03s.01,.05,0,.08v.02c0,.21,.17-.12,.24,0,.03-.03,0-.04,.04-.07,.07,.09,.11,.16,.19,.22,.04-.09,.04-.12,.03-.22l.06,.04c-.09,.23,.08,.24-.01,.47,0,.06,.04,.07,.08,.04,.01-.06,.03-.16,.07-.15,.04,.09,.03,.06,.07,.14,0,.08-.03,.11-.03,.17,.09-.09,.03,.18,.1,.18,.04-.01,.13-.01,.16-.14,.05,.02,.03,.12,0,.23Z"/><path class="c" d="M215.38,107.93h.05c-.13,.05-.28,.08-.44,.09,.51,.28,.9,.57,.84-.45,.19,.49,.51,.67,.49,.54,.03-.11,.08-.2,.12-.27-.03,.05-.07,.1-.1,.15,.03-.06,.06-.11,.1-.15,.31-.49,.83-.36,1.25-.13,.24,.1,.86,.31,1.04,.53l.08,.08-.08-.12c.17-.1,.35-.19,.5-.23,0-.08,.02-.15,0-.27l.05,.07c.14-.19,.28-.12,.38-.18-.06,.1-.01,.14,.03,.18v-.08c.17,.12,.42,.13,.56,.23,.02,.01,.02,.06,0,.1h.19c-.09,.13,.05,.19-.07,.23,.2-.09,.25,.07,.45-.02,.37,.23,.79,.43,1.3,.6l.03-.05c.18,.05,.52-.03,.58,.21,.26-.01,.47,.11,.78-.01,.15,.13,.32,.12,.5,.24,.11-.12,.26,.07,.32-.08,.12-.23-.05-.14,.05-.33l-.04,.03c-.09-.6-.34-1.15-.69-1.62-.37-.18-.6-.55-.94-.76-.37-.23-.82-.39-1.2-.46-.1,0-.09-.15-.12-.25-.33-.1-.69-.32-1.08-.38,0,0,.01,0,.02,.01-.2-.04-.29-.25-.48-.28-.01,.04-.04,.04-.06,.06,.01-.24-1.21,.16-1.24,.06-.02,0-.04,.01-.06,.02-.38-.14-.79-.58-1.16-.53-.08,.1-.16,.19-.22,.31-.07-.09-.07,.09-.14,.07-.22-.41-.32-.22-.21-.08-.15,.07-.31,.05-.44,.09l-.17,.13s-.09-.01-.13-.1c-.13,.09-.1-.02-.26-.04-.07-.14-.3,.32-.35,.28l.02-.03c-.17,.02-.36-.23-.53-.18-.49,.04-.93,.35-1.34,.51,.07,.14,.07-.08,.17,.11-.24,.09-.56,.05-.8,.17-.06-.01-.15-.04-.2-.07-.1,0,0,.09-.06,.11l-.09-.11c-.01,.15-.2-.05-.24,.05,.03,.05,0,.07-.02,.09-.09-.12-.07,.07-.15-.04h0s-.02,.04-.06,.03c0,.07-.02,.59,0,.66h-.03s.02,.13,.06,.13l-.05,.03h0l-.05,.02s-.07-.05-.1-.11c0,.06,0,.11-.04,.11,.13,0,.3,.03,.47,.09,0,.06-.1,.05-.12,.09-.1-.04-.24-.04-.34-.03,0,.02,.09,.15,.02,.12-.09-.07-.03,.04-.11,0-.01-.07,.03-.08,.07-.1-.1-.1-.13,0-.18,0,.02,.04-.07,.06-.08,.13-.08-.11-.09-.03-.16-.06-.04,.01-.01,.06,.03,.09,.09,.11,.15-.03,.23,.11-.06-.04-.09,.02-.11,.05,.05,.05,.06,.02,.1,.09-.04,.01,0,.11-.07,.07-.01-.02,.01-.02,.02-.03-.04,.03-.16-.55-.18-.47,.06,.04,.12,.53,.15,.5,.05,0,.09,.11,.13,.11l-.04-.09c.05,0,.16,.07,.19,.12-.06,.04-.23-.51-.22-.41h.04c.02,.06,0,.14-.08,.1,.05,.05,.05,.1,.05,.14h-.02s-.04,.06,.05,.12c.11-.12,.48,.61,.62,.53-.17-.07-.11-.14-.07-.2,.05,.04,.13,.07,.19,.07,.02-.04-.03-.06-.05-.1,.04,.01,.1,0,.15,.07-.05-.1,.08,.01,.08-.04,0-.06-.03-.03-.05-.09,.05-.02,.11-.06,.15-.07,.07,.05,.2,.13,.26,.25-.07,.03-.12-.18-.16-.11,.15,.12-.02,.08,.07,.2,.08,.05,.11,.02,.13-.03h-.02c0-.06,.04-.13,.13-.08,.04,.06,.08,.08,.07,.11l.04-.02s-.02-.04-.04-.04c-.02-.05,.02-.05,.06-.03,.05,.05,.02-.39,.04-.35,.03-.02,.1,.06,.08-.02-.03-.05-.12,.4-.09,.35,.07,.05,.1-.52,.2-.42,.02-.02,.04-.05,0-.1,.06,0,.07,.12,.13,.16,0,0-.02-.03-.01-.03l.08,.06c0-.13,.15-.07,.13-.23,.02,.08,.08,.2,.08,.29l-.03-.03s0,.06,.03,.12c.06,.02,.08-.01,.08-.1l.05,.04-.02-.02s.04,.04,.05,.06v.02c.14,.17,.07-.19,.2-.14,0-.04-.02-.03-.01-.08,.11,.03,.19,.07,.28,.07-.02-.09-.03-.12-.11-.19h.07c.06,.24,.2,.15,.26,.39,.04,.04,.07,.04,.08-.01-.02-.06-.06-.15-.03-.16,.09,.05,.06,.03,.14,.08,.04,.07,.04,.1,.07,.16,.02-.12,.13,.13,.18,.09,.03-.04,.09-.08,.04-.21,.05-.01,.09,.08,.13,.19Z"/><path class="c" d="M235.69,124.99v.05c-.03-.17,0-.36,.05-.54-.44,.41-.84,.88,.17,1.16-.53,.06-.76,.45-.63,.44,.1,.07,.18,.14,.25,.22-.04-.05-.08-.1-.13-.15,.05,.05,.1,.1,.13,.15,.42,.47,.22,.96-.07,1.3-.14,.21-.48,.74-.73,.86l-.1,.06,.14-.05c.05,.19,.11,.38,.1,.54,.08,.02,.14,.06,.26,.07l-.08,.03c.14,.18,.05,.31,.07,.42-.08-.08-.14-.05-.18-.02l.07,.03c-.16,.13-.25,.36-.38,.48-.02,.02-.06,0-.1-.02l-.07,.18c-.1-.12-.2,0-.2-.13,.03,.22-.14,.22-.12,.45-.34,.3-.67,.67-1,1.11l.04,.05c-.11,.18-.13,.51-.38,.51-.07,.25-.25,.43-.22,.76-.18,.1-.21,.28-.38,.42,.09,.14-.14,.24-.02,.33,.19,.18,.15,0,.32,.13l-.02-.05c.61,.08,1.22-.02,1.79-.23,.29-.3,.71-.43,1.03-.71,.33-.3,.63-.7,.81-1.05,.03-.09,.17-.04,.28-.05,.19-.3,.53-.6,.69-.98h-.02c.1-.18,.33-.21,.41-.41-.04-.02-.03-.05-.04-.08,.23,.07,.18-1.28,.27-1.29,0-.02,0-.05,0-.07,.24-.36,.74-.72,.77-1.13-.08-.1-.16-.2-.26-.28,.1-.06-.08-.09-.04-.16,.44-.16,.27-.3,.11-.2-.05-.16,0-.32-.02-.46-.03-.06-.06-.13-.1-.19-.04-.05,.03-.08,.13-.11-.06-.13,.04-.1,.08-.24,.15-.04-.25-.34-.2-.37l.02,.02c.02-.16,.3-.27,.31-.42,.09-.42-.04-.88-.02-1.29-.15,0,.04,.09-.16,.11,0-.24,.18-.5,.18-.75,.04-.05,.11-.11,.15-.14,.05-.09-.08-.04-.07-.1l.14-.03c-.13-.07,.14-.15,.07-.22-.06,0-.07-.03-.07-.06,.15-.02-.02-.09,.11-.11h-.01s-.01-.03,0-.06c-.06-.03-.51-.28-.58-.3l.02-.02s-.13-.04-.15-.01v-.06h0v-.05s.07-.04,.14-.04c-.06-.02-.09-.05-.07-.09-.07,.11-.17,.25-.3,.37-.06-.03,0-.11-.02-.15,.09-.07,.15-.19,.19-.28-.01-.02-.18,0-.12-.05,.11-.05-.01-.04,.06-.1,.07,.02,.05,.07,.05,.11,.13-.04,.07-.12,.1-.16-.05,0-.02-.09-.07-.13,.13-.01,.07-.06,.13-.11,0-.04-.05-.04-.09-.02-.14,.03-.05,.15-.2,.14,.06-.03,.02-.09,0-.12-.07,.02-.05,.04-.13,.04,0-.04-.09-.05-.02-.1,.02,0,.01,.02,.01,.03,0-.05,.56,.13,.5,.08-.06,.03-.52-.16-.51-.12-.03,.04-.14,.02-.16,.06h.1c-.02,.06-.14,.11-.2,.11,0-.07,.56,.06,.47,.02l-.03,.03c-.06-.01-.12-.07-.04-.12-.07,.02-.11,0-.14-.03h0s-.04-.08-.13-.03c.06,.16-.77,.11-.77,.28,.14-.11,.17-.03,.21,.03-.05,.02-.13,.07-.16,.13,.02,.04,.07,0,.11,0-.03,.03-.05,.08-.14,.1,.11,0-.05,.07,0,.1,.06,.02,.04-.01,.1,0,0,.05,0,.13,0,.17-.08,.03-.21,.11-.35,.1,0-.08,.21-.02,.17-.09-.18,.07-.07-.06-.21-.04-.08,.04-.07,.09-.04,.13h.02s.09,.08,0,.14c-.07,0-.11,.03-.13,0v.05s.04,0,.05-.01c.06,.01,.03,.04,0,.07-.07,.02,.34,.21,.29,.21,0,.04-.09,.06-.02,.09,.06,0-.3-.31-.27-.26-.07,.04,.42,.35,.29,.4,0,.03,.03,.06,.1,.04-.03,.05-.14,0-.2,.05,.01,0,.04,0,.03,0l-.09,.04c.12,.06-.01,.18,.14,.23-.08-.01-.22-.02-.29-.06h.04s-.05-.05-.12-.04c-.04,.05-.02,.09,.05,.12l-.06,.03h.03s-.05,.02-.08,.01h-.02c-.2,.05,.15,.16,.05,.25,.03,.02,.04,0,.08,.03-.07,.09-.13,.15-.17,.25,.09,.02,.13,.02,.22-.02l-.02,.07c-.24-.04-.22,.14-.46,.09-.05,.02-.06,.06-.02,.1,.06,0,.16,0,.16,.04-.08,.07-.05,.05-.12,.11-.08,.02-.11,0-.17,0,.11,.08-.17,.08-.15,.16,.03,.05,.04,.14,.18,.14,0,.07-.1,.07-.22,.07Z"/><g><path class="c" d="M151.96,99.8c5.04,.55,10.07,1.28,14.94,2.68,13.99,4.02,26.2,13.64,33.8,26.06s10.61,27.49,8.85,41.94c-2.17,17.81-11.73,34.72-26.22,45.29s-33.79,14.49-51.12,9.85c-3.43-.92-6.77-2.15-10.04-3.55-8.94-3.82-17.44-8.93-24.27-15.87-11.8-12-17.92-29.36-16.25-46.11,.51-5.06,1.68-10.03,3.08-14.92,1.52-5.33,3.32-10.61,5.95-15.48,1.86-3.45,4.13-6.68,6.71-9.64,6.53-7.5,15.28-13.02,24.14-17.43,9.17-4.56,20.56-3.9,30.43-2.82Z"/><path class="c" d="M208.86,159.04c.04,.55,.04,1.1,.05,1.65-.13-5.34-.92-10.95-2.4-16.3,1.51,5.85,2.19,12.42,2.1,18.61-.05,6.21-.99,12.01-1.82,16.62-.33,.44-1.36,3.44-2.54,6.28-.62,1.41-1.21,2.79-1.71,3.82-.5,1.02-.83,1.72-.83,1.79-.47,1.11-1.07,2.18-1.61,3.28-.57,1.08-1.22,2.14-1.83,3.22,.86-1.48,1.74-2.93,2.48-4.44-.74,1.52-1.62,2.97-2.48,4.44-4.12,6.67-9.74,12.87-16.68,17.67-6.93,4.8-15.15,8.16-23.83,9.65-2.4,.44-5.88,.84-9.89,.89-4.01,.04-8.55-.37-12.97-1.38-4.43-.96-8.71-2.6-12.44-4.23-3.73-1.63-6.86-3.31-9.02-4.58-1.25-.73-2.48-1.49-3.7-2.3q2.03,1.33,4.12,2.58c-5.39-2.89-9.94-6.12-13.87-9.76,.66,.68,.71,.87,2.35,2.4-.68-.61-1.36-1.22-2.01-1.86-.5-.38-1.1-.95-1.78-1.59-.65-.68-1.37-1.42-2.1-2.17-.68-.8-1.36-1.6-1.98-2.33-.58-.76-1.11-1.45-1.53-1.99,.21,.21,0-.12-.39-.7l-1.42-2.23,.36,.66c-1.92-3.02-3.72-6.46-5.12-9.96-1.41-3.5-2.44-7.05-3.03-10.2-.2-.87-.25-1.54-.28-1.94-.36-2.01-.6-4.05-.73-6.09,.07,.23,.05-1.04,.03-2,.02-.96,.05-1.62,.07-.16-.21-4.58,.44-9.21,1.23-13.54,.82-3.84,1.89-7.72,3.1-11.58,1.23-3.85,2.69-7.66,4.6-11.26,1.92-3.59,4.28-6.97,6.98-10.04,2.69-3.09,5.78-5.81,9.01-8.28l-.35,.2c2.26-1.74,4.47-3.29,6.89-4.8,2.42-1.5,5.04-3.01,8.19-4.48,2.19-1.15,5.07-2.13,7.65-2.7,2.58-.58,4.85-.86,5.84-1.04,2.89-.2,4.91-.21,6.92-.2,2.01,.03,4,.11,6.83,.34-1.44-.28,5.48,.41,2.73,.02-3.72-.56-3.94-.44-7.13-.79l.09,.05c-3.73-.27-7.5-.36-11.28,0-3.77,.34-7.56,1.13-11.14,2.61-1.81,.77-3.43,1.63-5.11,2.5-1.67,.88-3.31,1.81-4.94,2.77-3.25,1.95-6.4,4.1-9.36,6.53-3.91,3.29-7.62,7.23-10.67,11.68-3.09,4.44-5.39,9.46-7.08,14.46-.92,2.7-1.72,5.47-2.46,8.27-.73,2.8-1.38,5.64-1.84,8.47-.97,5.66-.97,11.28-.4,16.14,.11,1.16,.28,2.16,.39,3.11,.1,.96,.25,1.87,.43,2.85,.96,4.4,2.51,9.33,4.86,14.05,2.33,4.72,5.35,9.28,8.76,13.06-.13-.14-.25-.28-.33-.38,.91,1,1.76,1.94,2.61,2.82,.86,.87,1.71,1.69,2.57,2.48,1.73,1.58,3.54,3.06,5.69,4.58,0-.04,.67,.42,1.01,.63,.16,.17,1.85,1.33,4.42,2.83,2.57,1.5,6.04,3.26,9.64,4.78,3.59,1.54,7.32,2.85,10.31,3.66,1.49,.41,2.8,.65,3.77,.89,.98,.22,1.65,.3,1.87,.36,.54,.09,1.1,.18,1.67,.27,5.48,.85,11.17,.94,16.6,.34,5.43-.57,10.57-1.95,15.02-3.7,1.91-.81,4-1.87,5.52-2.73,1.51-.75,1.77-.95,3.51-2,4.61-2.37,6.85-4.49,4.66-2.95,3.41-2.53,6.59-5.39,9.14-8.16,1.2-1.27,2.26-2.65,3.36-4.02,.88-1.21,1.42-1.84,1.94-2.4,2.12-3.19,1.59-2.19,3.7-5.61,.15-.19,.51-.86,.98-1.75l.77-1.49c.25-.55,.51-1.12,.77-1.7,.55-1.15,1-2.34,1.37-3.29,.39-.95,.65-1.68,.75-1.95l-.21,.62c.41-1.08,.79-2.07,1.15-3.02l.95-2.78c.57-1.83,1.12-3.67,1.54-5.91,1.29-6.2,1.57-12.88,.95-19.35-.59-6.48-2.22-12.72-4.33-18.18-.14-.07,.92,2.42,.82,2.6-2.23-6.53-5.45-12.83-9.78-18.34-.73-1.03-1.73-2.21-2.06-2.69-1.47-1.69-.94-.93-2.04-2.14l-.07-.24c-.89-.81-1.49-1.44-2.09-2.07-.62-.6-1.22-1.19-2.08-1.92-.12-.04-.77-.56-1.39-1.07,.06-.14-1.96-1.51-1.81-1.52h-.02c-.39-.3-.67-.5-1.14-.86-.4-.23-2.41-1.53-4.52-2.65-1.06-.55-2.13-1.08-2.99-1.48-.87-.38-1.52-.66-1.74-.75l-.38-.21c-1.17-.52-1.72-.64-1.04-.33l-1.45-.63,.17,.06c-.48-.22-.97-.39-1.46-.58-.27-.11-.56-.28-.12-.17-.87-.28-1.8-.59-2.65-.87,1.18,.38,2.46,.94,3.76,1.47,1.27,.6,2.56,1.18,3.68,1.82-.96-.46-2.7-1.25-3.77-1.69-.63-.27-1.6-.68-2.68-1.1-1.09-.37-2.28-.81-3.34-1.12-.47-.12-.82-.08-1.88-.39-.5-.21-1.21-.28-2.08-.53,1.03,.17,2.03,.42,3.06,.68-.15-.16-2.5-.68-3.32-.86-.39-.05-2.4-.47-3.67-.63,.57-.02-1.01-.23-1.76-.39-.85-.13-1.41-.16-1.06-.08-.29,.06,3.39,.55,2.18,.5-.3-.1-1.98-.33-2.88-.43-.02,.06,.61,.13,.02,.11-1-.14-2.07-.19-2.64-.31,.19,0,.6,.06,.89,.1-.65-.08,1.13,.02,2.86,.16,1.73,.14,3.42,.33,2.57,.21,.22,.06-1.66-.15-3.47-.29-1.82-.15-3.57-.25-3.14-.2,.79,.12-.58,.05,.24,.16l.92,.03c1.12,.15,1.57,.32,1.17,.31-.94-.12,.41-.07,1.79,.02,1.38,.09,2.8,.23,1.99,.14l.65,.13c-.69-.07-2.52-.3-3.21-.46-.01,.06-.94-.04-1.7-.11l-.27-.04c-.79-.06-1.89-.2-1.39-.06,4.61,.51-3.1,.27,1.36,.81-1.86-.35,.65-.08,2.61,.18,.18,.07,1.05,.25,2.44,.51,1.22,.19,.72,.07,.96,.08,.67,.14,1.95,.41,1.76,.45,.96,.11,1.49,.35,2.62,.59,1,.2-.06-.05,.65,.08,1.49,.34,3.52,1.01,4.67,1.39,.43,.2,1.72,.82,.71,.56-2.17-.76,.9,.09-1.39-.62,.93,.46-2.03-.62-2.49-.59,.72,.25,2.18,.74,3.42,1.11-.08-.04-.16-.07-.24-.1,1.08,.36,3.22,1.12,4.31,1.71-.29-.06,.19,.18-.58-.13l1.43,.62c.19,.07,.38,.14-.02-.06,.68,.28,1.34,.63,1.83,.9,.07,.05,1.95,.94,3.72,1.93,1.79,.97,3.44,2.06,3.33,2,.95,.62,1.09,.88,2.02,1.48,.02,0-.11-.09-.34-.26-.23-.17-.56-.41-.96-.69-.83-.53-1.9-1.27-3-1.9-2.16-1.31-4.3-2.29-3.62-1.97,.41,.26,3.27,1.67,5.9,3.45,2.64,1.74,5.08,3.72,5.3,4,.63,.55,1.39,1.22,1.28,1.04,1.04,.96-.39-.2,.32,.51,.02,0-.04-.08,.19,.15l.64,.73c1.67,1.43,3.73,3.91,5.24,5.63-.45-.5-1.03-.99-2.03-2.07l-.15-.22c-.14-.16-.99-1.02-1.01-.96,.94,1.03,1.7,1.96,2.69,3.04l.46,.66s0-.03,0-.03c.27,.4,.23,.36,.11,.24l-.07-.07c.46,.74,3.36,4.34,4.53,6.62,.4,.64,.06,.05,.56,.84,1.21,2.31,1.97,3.94,2.99,6.47,.4,.77,.45,.83,.12-.17,.25,.64,.53,1.27,.75,1.92-.82-1.68,1.15,3.67,.26,1.8,.18,.57,.52,1.75,.91,2.83,.09,.09,.21,.24,.59,1.64,.48,1.95,.34,1.5,.66,3.13,.03,.4-.13-.19-.17-.11,.34,1.24,.36,1.8,.44,2.34,.05,.54,.12,1.06,.29,2.25,.27,1.49,.55,4.46,.66,4.52,.12,2.04,.04,2.04-.06,1.84Z"/></g><g><path class="b" d="M176.21,168.92c1.03-.56,1.94-1.33,2.99-1.84,3.5-1.69,8.05,.1,10.06,3.43,2.01,3.33,1.71,7.71-.1,11.16-.57,1.09-1.3,2.12-2.3,2.83-2.2,1.56-5.18,1.24-7.84,.67-.07-.01-.11,.06-.06,.11,4.03,4.37,3.73,12.57-3.32,15.17-2.16,.8-4.5,.87-6.64,.05-.41-.16-.81-.33-1.2-.52-3.77-1.83-7.05-5.63-6.56-9.79,.51-7.02-8.28-11.98-9.35-13.16-1.63-1.79,4.28,.61,2-.22,.29,.11,4.54-4.9,5.04-5.4,1.39-1.38,.25-8.05,2.11-7.13,5.88,2.9,10.56,7.14,15.18,4.64Z"/><path class="b" d="M186.87,183.06c-.11,.11-.22,.2-.33,.3,1.07-.92,1.94-2.5,2.5-4.06-.74,1.66-1.9,3.42-3.17,4.15-.64,.4-1.38,.64-2.15,.8-.38,.09-.78,.14-1.16,.21l-.29,.04h-.08l-.15,.02h-.26c-.34,.02-.65,.03-.94,.03-.15-.11-.53-.23-1.11-.42l-.44-.09h-.36l-.38,.04-.26,.08c-.2,.06-.3,.12-.41,.19-.03,.02-.05,.03-.08,.06-.04,.04-.09,.12-.09,.13l-.05,.18-.1,.34-.04,.15c.02,.08,.1,.22,.14,.31,.21,.41,.36,.68,.4,.71,.36,.65,.76,1.24,1.13,1.83,.47,.7,.47,.86,.65,1.22l-.3-.68c-.25-.4-.51-.81-.76-1.21,.25,.41,.51,.81,.76,1.21l.3,.68c.87,2.08,.85,4.74-.4,6.84-1.24,2.07-3.68,3.44-6.21,3.68-.7,.07-1.71,.08-2.8-.2-.54-.13-1.1-.37-1.71-.66-.61-.27-1.18-.61-1.74-1-1.12-.76-2.09-1.72-2.76-2.67-.69-.94-1.05-1.86-1.22-2.5l-.12-.56-.07-.56q.06,.63,.2,1.26c-.31-.77-.46-1.52-.45-2.3v-.3l-.02-.41-.04-.8c-.02-.53-.18-1.02-.26-1.51,0,.36-.05,.44,0,1.26l-.12-1c-.07-.22-.17-.51-.3-.82-.13-.31-.23-.68-.4-1.01-.17-.33-.33-.67-.48-.97-.17-.29-.34-.54-.48-.74,.18,.13-.16-.54-.55-1.07l.1,.25c-1.38-2.09-3.56-3.92-5.23-5.23-.23-.18-.39-.35-.48-.45l-1.18-.81c.1,0-.02-.12-.05-.23-.02-.05-.02-.11,0-.12,.02-.01,.02,.02,.09,.1-.06-.04-.09-.13-.03-.14,.04-.02,.1-.01,.15,0,.11,.01,.23,.04,.35,.08,.12,.03,.25,.08,.37,.12l.1,.04,.05,.02,.26,.11c.03-.13,.17-.64,.22-.8h-.03l-.42-.13-.6,1.63c.19,.08,.54,.05,.66-.02l.14-.07c.11-.06,.11-.07,.16-.11,.09-.07,.12-.11,.18-.16,.09-.1,.18-.19,.25-.28,1.58-1.61,3.01-3.37,4.46-5.03,.4-.43,.57-.94,.67-1.34,.1-.43,.16-.83,.2-1.23,.08-.8,.1-1.57,.13-2.33l.06-1.03c.02-.23,.04-.48,.12-.72,.04-.12,.09-.24,.19-.32,.1-.08,.24-.07,.35-.03l.69,.3-.07-.09c.79,.37,1.58,.73,2.38,1.1,.83,.4,1.69,.86,2.66,1.44,.75,.32,1.65,.71,2.46,.98,.81,.27,1.53,.41,1.87,.37,.44,.1,.81,.18,1.16,.2,.34,.04,.65,.03,.95,0,.61-.03,1.19-.18,1.96-.48-.22,.03,.14-.18,.44-.35,.29-.16,.6-.39,.17-.2-.53,.12-.76,.27-1.02,.31-.24,.06-.46,.16-.91,.12l.03,.04c-2.04,.17-4.13-.87-6.15-2.01l-3.08-1.83-1.59-.92-.46-.25-.7-.28-.71-.28c-.23-.08-.49-.24-.69-.19-.45,.02-.95,.32-1.21,.7-.29,.39-.47,.9-.57,1.46-.06,.28-.09,.57-.12,.86l-.04,.53-.07,1.01c-.04,.66-.09,1.3-.18,1.9-.07,.57-.28,1.17-.34,1.18-.57,.62-1.01,1.13-1.5,1.69-.55,.64-1.11,1.29-1.68,1.94l-.85,.95-.41,.44-.19,.18s-.06,.05-.04,.04l.39,.57c.05,.08,.09,.17,.12,.27,.04,.04,.05,.09,.03,.13l-.4,1.09,.36,.12,.27,.08,.12,.02h.12s-.11,.06,.37-.04c.34-.05,.71-.58,.6-.44h0v.03s.02,.04,.03,.06c0,.04,0,.08-.02,.13-.03,.09-.16,.2-.47,.24-.18,.01-.35,.02-.63-.03l-.19-.03c-.06-.02-.12-.03-.26,.05l-.73,.34c-.12,.05-.25,.12-.36,.16l-.24-.19-.49-.38c-.2-.14-.21-.21-.32-.31l-.26-.29c-.11-.16-.15-.27-.22-.41l-.08-.26c-.04-.26-.06-.35-.07-.43-.01-.07-.04-.11-.06-.14-.05-.06-.11-.07-.18-.06-.06,.04-.18,0-.24,.33,0,.33,.1,.59,.27,.85l.27,.37,.38,.34c.25,.24,.49,.41,.74,.59,.49,.35,.64,.49,.89,.71,.21,.2,.43,.42,.65,.63,2.22,1.66,4.8,4.15,5.92,6.86l-.06-.13c.29,.71,.45,1.37,.5,2.01,.07,.32,.02,.64,.02,.96v.5l-.04,.69s.03,.28,.06,.43c-.04,.08-.05,.85,.25,1.89,.28,1.04,.9,2.3,1.74,3.38,1.67,2.19,4.08,3.49,4.32,3.67,.16,.09,.33,.18,.51,.26,.41,.24,.83,.43,1.25,.63,.41,.21,.86,.4,1.33,.55,.93,.3,1.9,.47,2.86,.49,.96,.03,1.91-.09,2.8-.31,.89-.22,1.7-.59,2.45-.98,.3-.23,.6-.46,.91-.69,.28-.26,.53-.53,.73-.75,.52-.32,.45-.55,.96-1.05,.7-.6,1.14-1.21,1.29-1.56,.17-.35,.12-.4-.15,0,.66-1.34,1.06-2.82,1.1-4.13,.02-.3-.03-.61-.04-.91,0-.3-.05-.6-.11-.9-.09-.51-.08-.8-.07-1.07-.17-.64-.23-.85-.29-1.1l-.11-.41-.09-.31-.06-.2-.05-.12c.02-.09-.2-.47-.44-.71-.12-.15-.29-.3-.42-.44-.06-.05-.16-.16-.08-.16,.04,0,.08,.01,.11,.02h-.06c.3,.08,.61,.17,.85,.26,.4,.11,.21,.2,1.36,.21,1.11,0,2.31-.16,3.45-.67,1.14-.5,2.14-1.38,2.83-2.33,1.36-1.89,2.09-3.98,2.43-5.99-.11-.06-.12,.89-.31,.9,.55-2.29,.64-4.82-.23-7.19-.13-.43-.31-.97-.38-1.17-.35-.74-.27-.39-.59-.91l.05-.13c-.59-.67-.7-1.11-1.34-1.67-.06,0-.3-.19-.52-.39,.07-.11-.74-.54-.64-.6h-.01c-.15-.1-.26-.16-.44-.29-.15-.07-.96-.45-1.82-.66-.85-.23-1.72-.29-1.89-.29l-.15-.04c-.47-.06-.67,.01-.4,.06-.19-.03-.38-.04-.57-.04h.07l-.57-.02c-.11,0-.23-.05-.07-.11-.33,.07-.69,.09-1.02,.14,.92-.08,2.05,.05,2.92,.35-.37-.04-1.04-.18-1.45-.16-.48-.11-1.52-.1-2.32,.09-.17,.07-.25,.19-.64,.3-.21,0-.43,.17-.75,.26,.32-.21,.69-.34,1.06-.47-.1-.1-.94,.28-1.21,.4-.12,.09-.77,.43-1.1,.69,.1-.19-.33,.14-.55,.22-.23,.14-.35,.27-.24,.24-.02,.15,.95-.55,.69-.24-.12,.01-.56,.33-.78,.48,.03,.05,.18-.06,.07,.08-.27,.16-.5,.38-.67,.4,.04-.04,.15-.09,.22-.13-.16,.09,.22-.25,.62-.63,.39-.38,.83-.78,.6-.6,.07-.02-.4,.41-.81,.78-.42,.38-.81,.68-.7,.62,.22-.09-.09,.18,.13,.08l.2-.2c.3-.15,.48-.14,.4-.04-.25,.15,.04-.15,.35-.47,.31-.32,.66-.66,.45-.48l.2-.1c-.18,.16-.65,.52-.86,.59,.03,.05-.19,.23-.38,.37l-.07,.03c-.18,.15-.47,.29-.3,.29,1.2-.71-.51,1.01,.71,.35-.58,.19,.1-.21,.61-.58,.08,0,.35-.1,.75-.32,.33-.23,.17-.17,.22-.24,.2-.1,.59-.29,.58-.2,.24-.23,.47-.18,.81-.35,.29-.16-.03-.03,.17-.15,.24-.09,.54-.15,.82-.23,.29-.04,.56-.09,.76-.11,.17,.05,.63,.14,.3,.27-.73,.04,.27-.2-.5-.09,.35,.1-.67,.14-.77,.32,.25-.01,.72-.1,1.13-.16h-.08c.35-.08,1.09-.12,1.47,.01-.1,.04,.07,.1-.19,.09l.48,.07c.06,0,.13-.02,0-.05,.24-.02,.46,.06,.63,.13,.02,.03,.67,.11,1.29,.3,.62,.17,1.21,.44,1.16,.44,.31,.19,.35,.29,.66,.45,.04-.02-.71-.47-1.46-.75-.76-.28-1.49-.4-1.26-.35,.13,.07,1.12,.27,2.03,.74,.91,.44,1.69,1.1,1.73,1.21,.19,.19,.42,.41,.42,.33,.28,.36-.17-.03,0,.25,.01,0,0-.04,.07,.04l.14,.28c.51,.49,.92,1.43,1.29,2.07-.14-.17-.33-.35-.59-.73v-.08c-.06-.05-.26-.37-.3-.33,.18,.4,.36,.71,.59,1.11,.02,.08,.04,.18,.05,.25,0,0,0-.01,.02-.01,.02,.15,0,.14-.03,.1,0,0-.01-.01-.02-.02-.04,.29,.62,1.59,.59,2.41,.05,.23,.03,.02,.09,.31,0,.82-.07,1.38-.21,2.21,.04,.28,.07,.31,.18-.01-.03,.21-.07,.43-.11,.64-.07-.6-.41,1.14-.47,.47-.09,.17-.17,.53-.25,.88,.03,.05,.11,.13-.04,.55-.27,.56-.2,.43-.45,.88-.1,.09-.05-.1-.11-.1-.25,.74-.4,.56-.74,1.2-.2,.41-.71,1.1-.64,1.18-.38,.44-.45,.36-.47,.27Z"/></g><g><path class="d" d="M166.76,165.76c-2.94-2.73-4.99-8.05-5.75-11.99-.76-3.94-.93-8.05-2.49-11.75-2.3-5.45-7.26-10.24-12.11-13.63-1.35-.95-4.73-2.89-6.25-3.54-2.75-1.18-5.82-1.34-8.81-1.33-3.02,0-6.17,.85-8.99,1.95-7.63,2.98-12.85,8.11-16.13,14.56-3.27,6.45-5.1,13.98-4.12,21.15,.28,2.02,.7,4.04,1.45,5.94,2.04,5.16,6.41,10.13,11.3,12.76,5.53,2.97,12.33,4.92,19.17,3.79,3.85-.63,5.57-1.08,11.14-2.16,3.83-.74,8.34-1.87,10.63,1.29,0,0,9.45-6.09,10.96-17.05Z"/><path class="d" d="M146.1,126.89l-.72-.46c2.41,1.44,4.64,3.26,6.72,5.23-1.07-1.13-2.26-2.24-3.53-3.29-.64-.53-1.27-1.02-1.98-1.52-.69-.47-1.37-.9-2.06-1.31-1.4-.81-2.71-1.55-4.24-2.09-1.49-.5-2.93-.66-4.17-.62-.23-.26-1.9-.6-3.49-.7-.79-.06-1.58-.09-2.22-.06-.62,.02-1.04,.08-1.07,.11-1.3,.22-2.57,.53-3.82,.92,.86-.26,1.73-.49,2.62-.67-.88,.18-1.76,.41-2.62,.67-3.92,1.24-7.81,3.07-11.36,5.7-3.52,2.65-6.58,6.14-8.79,10.2-1.24,2.22-3.2,6.55-4.18,11.23-.49,2.33-.77,4.73-.8,6.87-.04,2.13,.16,4.04,.35,5.32,.11,.76,.24,1.51,.41,2.28-.25-1.28-.25-1.28-.42-2.54,.3,1.57,.7,3.08,1.23,4.51,.54,1.43,1.2,2.72,1.93,3.94-.18-.47-.2-.56-.64-1.66,.19,.44,.4,.87,.62,1.3,.39,.53,.98,1.43,1.63,2.31,.64,.88,1.36,1.72,1.84,2.22-.27-.17,.44,.69,1.12,1.39l-.23-.32c1.27,1.35,2.8,2.67,4.45,3.74,1.67,1.08,3.37,1.87,4.88,2.53,.42,.18,.73,.33,.91,.44,.99,.37,1.99,.69,3.01,.97-.13,.03,.49,.23,.96,.39,.48,.14,.81,.23,.06,.09,2.33,.45,4.72,.9,7.01,.78,2,.04,4.14-.17,6.08-.63,1.98-.4,3.98-.81,5.98-1.22,2-.42,4.01-.84,6.01-1.26,1.96-.38,3.99-.69,5.77-.12l-.16-.1c.46,.12,.86,.32,1.25,.56,.41,.26,.86,.72,1.23,1.15l.07,.03,.08-.06,.16-.12,.32-.24c.21-.17,.42-.33,.63-.5,.4-.33,.71-.62,1.08-.95,.71-.65,1.45-1.35,2.23-2.16,.81-.95,1.68-2.17,2.39-3.28,.32-.57,.64-1.09,.85-1.55,.21-.46,.36-.84,.42-1.08,.64-1.25,1-2.17,1.28-3.1,.16-.46,.29-.92,.4-1.45,.12-.52,.29-1.08,.37-1.76-.24,.67,.31-2.64-.01-1.32-.25,.86-.34,1.32-.42,1.75-.09,.42-.22,.81-.49,1.51l.05-.03c-.86,2.64-2.28,5.08-4,7.26-.87,1.09-1.81,2.13-2.83,3.08-.51,.48-1.04,.94-1.58,1.38-.13,.11-.27,.22-.41,.32l-.17,.13c-.07,.04-.14,.11-.2,.1l-.08-.11-.2-.19s-.02-.02-.07-.06l-.15-.11-.31-.21c-.2-.15-.43-.25-.65-.36-.89-.42-1.82-.61-2.71-.69-2.83-.1-5.38,.64-7.92,1.08-2.56,.5-5.14,1-7.66,1.49-.68,.14-1.36,.28-2.05,.42-.69,.12-1.33,.23-2.01,.29-1.34,.14-2.71,.16-4.04,.07-2.68-.16-5.24-.74-7.44-1.44-1.05-.34-1.76-.73-2.6-1.16-1.98-.84-4.1-1.93-5.99-3.48-1.91-1.54-3.64-3.42-5.02-5.35l.13,.19c-1.46-2.06-2.23-3.82-3-6.1-.03,.02-.14-.34-.21-.51,.01-.11-.26-1.02-.53-2.4-.28-1.39-.54-3.2-.6-5.06-.17-3.72,.6-7.5,.76-7.91,.05-.26,.1-.52,.17-.79,1.42-5.13,4.11-10.03,6.9-13.47,.54-.81,1.23-1.66,1.74-2.31,.63-.49,.62-.73,1.36-1.34,2.06-1.33,3.18-2.17,2.08-1.57,1.59-1.22,3.37-2.19,4.99-2.95,.74-.38,1.5-.71,2.27-1.04,.66-.27,1.05-.36,1.42-.39,1.72-.57,1.23-.36,3.07-.75,.23,.01,1.38-.27,2.55-.41,1.15-.15,2.4-.16,2.67-.14h-.31c2.22,.09,3.66,.42,5.63,.95,.68,.2,1.35,.45,1.99,.76,.66,.32,1.35,.69,2.02,1.07,1.35,.76,2.73,1.55,3.94,2.42,2.52,1.78,4.81,3.78,6.66,5.83,.14-.05-.85-.87-.78-1.03,2.27,2.35,4.15,5.09,5.39,8.02,.19,.54,.36,1.21,.41,1.47,.25,.98,.23,.56,.42,1.28l-.08,.13c.35,1.05,.23,1.6,.46,2.63,.06,.05,.12,.43,.18,.81-.11,.04,.19,1.17,.07,1.13h.01c.03,.24,.06,.4,.09,.69,.05,.22,.33,1.36,.6,2.5,.28,1.15,.67,2.32,.75,2.53l.04,.22c.17,.63,.34,.86,.25,.5l.22,.76-.03-.09,.24,.75c.04,.14,.04,.32-.09,.12,.18,.41,.38,.88,.52,1.31-.39-1.19-.76-2.7-.94-3.99,.16,.51,.36,1.45,.55,2,.13,.68,.54,2.04,.94,3.08,.1,.22,.29,.32,.47,.85,.03,.29,.28,.56,.43,1-.29-.45-.5-.93-.72-1.42-.07,.13,.5,1.22,.68,1.61,.12,.16,.61,1.1,1,1.64-.25-.19,.25,.49,.44,.84,.27,.37,.48,.58,.4,.41,.15,.06-1.01-1.5-.54-1.06,.04,.17,.58,.88,.89,1.24,.05-.03-.18-.28,.07-.08,.33,.42,.78,.78,.96,1.04-.08-.06-.23-.23-.34-.34,.25,.25-.51-.35-1.14-1.03-.64-.67-1.18-1.38-.92-1.01-.04-.11,.57,.67,1.24,1.37,.68,.7,1.44,1.28,1.27,1.12-.28-.32,.29,.13,0-.19l-.4-.29c-.4-.45-.46-.72-.3-.58,.33,.37-.24-.07-.75-.59-.52-.51-.99-1.09-.73-.76-.06-.1-.11-.2-.16-.3,.22,.28,.8,1.04,.99,1.37,.04-.03,.37,.33,.66,.62l.09,.12c.32,.28,.73,.71,.59,.46-.88-.88-.47-.69-.07-.51,.4,.17,.79,.33,.01-.48,.57,.77-.36-.11-.96-.91-.03-.1-.24-.5-.6-1.11-.33-.52-.23-.28-.32-.36-.16-.3-.45-.89-.35-.85-.31-.38-.31-.7-.59-1.2-.25-.44-.02,.05-.21-.26-.32-.69-.71-1.67-.89-2.25-.02-.24-.15-.94,.13-.5,.37,1.07-.31-.35,.12,.76-.04-.53,.42,.96,.62,1.11-.09-.37-.38-1.07-.61-1.67l.02,.13c-.22-.52-.59-1.58-.68-2.19,.09,.12,.05-.14,.18,.25l-.2-.74c-.04-.09-.08-.18-.04,.03-.14-.34-.19-.7-.23-.98,.01-.05-.26-1.03-.48-2.01-.23-.98-.43-1.94-.4-1.88-.08-.55-.02-.7-.16-1.23-.01-.01,.04,.31,.13,.79,.09,.48,.21,1.11,.33,1.73,.24,1.23,.54,2.35,.45,1.99-.1-.45-1.25-6.21-1.24-6.57-.07-.41-.19-.9-.22-.79-.11-.69,.15,.19,.1-.32-.01,0-.02,.05-.05-.11l-.03-.49c-.31-1.05-.66-2.63-1.22-3.65,.18,.28,.43,.6,.72,1.29v.13c.06,.1,.26,.68,.3,.64-.17-.69-.36-1.27-.69-1.95l-.11-.4s0,.02-.02,.02c-.07-.24-.05-.22,0-.14,0,0,.02,.02,.03,.04,0-.5-1.31-2.48-1.98-3.58-.23-.31-.04-.02-.33-.39-.7-1.12-1.23-1.87-2.1-2.94-.35-.28-.39-.29-.09,.16l-.68-.79c.79,.56-1.21-1.54-.35-.91-.18-.26-.62-.7-1.06-1.09-.08,0-.2-.01-.74-.51-.72-.72-.54-.54-1.15-1.15-.11-.18,.14,0,.15-.06-1.06-.78-.79-.84-1.78-1.6-.63-.46-1.87-1.34-1.98-1.27-.89-.6-.84-.64-.71-.67Z"/></g></svg>