<?xml version="1.0" encoding="UTF-8"?><svg id="a" xmlns="http://www.w3.org/2000/svg" viewBox="0 0 276.77 280.34"><defs><style>.b{fill:#005bea;}.c{fill:#65dff6;}.d{fill:#0b1f65;}</style></defs><g><path class="b" d="M83.78,120.42c-.42,1.78-.84,3.67-.23,5.39,.87,2.44,3.48,3.72,5.87,4.72,17.78,7.43,36.45,12.72,55.49,15.74,5.24,.83,10.55,1.49,15.85,1.27,3.29-.14,6.58-.61,9.86-.38,3.91,.27,7.67,1.53,11.42,2.68,19.65,6.01,40.03,9.18,60.33,12.33l5.47-30.37c.23-1.3,.45-2.7-.13-3.89-.51-1.02-1.52-1.67-2.5-2.24-6-3.46-12.69-5.52-19.39-7.26-21.17-5.47-43.05-7.9-64.12-13.74-10.13-2.81-20.16-6.43-30.64-7.29-8.83-.72-17.71,.46-26.52-.48-2.11-.23-4.21-.57-6.27-1.11-1.86-.49-3.94-1.82-5.83-2-3.93-.35-3.97,6.88-4.66,9.79l-4.01,16.83Z"/><path class="b" d="M162.54,148.54l1.64-.11c-2.63,.23-5.46,.33-8.23,.17-2.79-.14-5.57-.47-8.3-.88,2.96,.51,6.1,.95,9.31,1.12,1.6,.08,3.23,.1,4.84,.02,1.57-.09,3.13-.18,4.67-.27,1.51-.08,2.96-.1,4.35,0,1.4,.1,2.77,.32,4.1,.59,2.66,.54,5.17,1.26,7.46,1.72,.42,.35,3.41,1.41,6.35,2.3,2.94,.89,5.82,1.63,5.95,1.6,2.37,.51,4.77,1,7.19,1.48-1.67-.34-3.33-.69-4.97-1.03,1.65,.34,3.31,.68,4.97,1.03,6.33,1.26,12.89,2.45,19.63,3.6,3.37,.57,6.79,1.14,10.24,1.72,3.82,.62,7.68,1.25,11.58,1.89,.63-3.33,1.26-6.7,1.9-10.09,.45-2.39,1.08-5.8,1.82-9.72,.36-1.96,.75-4.06,1.15-6.21,.2-1.08,.4-2.17,.61-3.28,.2-1.13,.43-2.15,.6-3.42,.07-.63,.11-1.32,0-2.07-.11-.74-.43-1.55-.91-2.16-.97-1.23-2.14-1.81-3.08-2.37-1.97-1.12-3.96-2.07-5.85-2.87-3.8-1.6-7.22-2.64-9.63-3.37-1.4-.41-2.8-.8-4.21-1.17q2.35,.64,4.69,1.34c-5.94-1.56-11.34-2.68-16.58-3.73,.91,.25,1.06,.35,3.22,.91l-2.65-.62c-2.46-.35-8.07-1.5-10.72-1.91,.58,.02-1.49-.4-3.32-.76l.71,.2c-6.95-1.36-15.05-2.77-21.23-4.07-.86-.18-1.5-.35-1.89-.46-1.98-.41-3.96-.8-5.92-1.24,.48,0-4.85-1.26-2.03-.66-4.44-.92-8.83-2.2-13.02-3.29-7.41-2.16-15.12-4.56-23.22-5.52-8.12-.99-16.27-.04-24.21-.2l.39,.05c-5.56-.15-10.55-.23-16.86-3.11-.61-.11-1.33-.1-1.97,.18-.63,.32-1.09,.88-1.44,1.48-.64,1.23-.93,2.6-1.13,3.87-.2,1.27-.3,2.47-.42,3.46-.12,1-.29,1.78-.33,2.27-1.26,5.46-1.66,7.67-2.86,13.04,.45-1.35-1.09,5.23-.36,2.62,1.02-3.51,.92-3.74,1.77-6.72l-.06,.08,2.63-10.56c.37-1.88,.54-3.63,.98-5.28,.22-.81,.48-1.61,.86-2.22,.39-.63,.8-.91,1.29-.95,.15,.02,.24-.03,.43,0,.17,.02,.35,.06,.54,.1,.37,.09,.75,.22,1.15,.38,.79,.31,1.6,.7,2.5,1.06,.44,.18,.93,.35,1.42,.48,.45,.12,.91,.23,1.37,.34,.92,.21,1.84,.38,2.76,.52,3.69,.57,7.42,.73,11.11,.73,4.93-.06,10.01-.34,15.07-.11,5.05,.2,10.08,1.11,14.97,2.3,5.27,1.27,10.7,2.95,16.01,4.44,5.33,1.48,10.52,2.7,15.13,3.66,2.2,.45,3.76,.89,5.63,1.33,8.48,1.7,19.3,3.63,28.84,5.49l-.47-.1c5.06,1,8.81,1.94,13.71,3.1-.02-.04,.74,.15,1.11,.22,.39,.23,7.68,1.7,14.64,4.36,1.73,.67,3.44,1.42,5.02,2.21,1.55,.82,3.15,1.56,3.8,2.48,.67,.89,.55,2.09,.43,2.98-.14,.91-.27,1.57-.32,1.78-.09,.52-.18,1.05-.27,1.6-1.76,9.08-3.59,18.49-5.16,26.54-.52-.08-1.02-.16-1.51-.24-1.97-.23-4.17-.48-5.86-.68-1.59-.33-1.92-.23-3.84-.56-4.83-1.12-7.7-1.48-5.21-.93-4.02-.63-8.04-1.36-11.59-2.03-1.65-.29-3.29-.59-4.95-.88-1.41-.26-2.18-.47-2.88-.7-3.6-.72-2.53-.56-6.27-1.45-.44-.16-2.8-.66-5.17-1.19-2.37-.54-4.76-1.1-5.27-1.27l.61,.15c-4.3-1.18-7-2.29-11.22-3.56-2.93-.87-6.13-1.6-9.4-1.58-3.24-.01-6.36,.44-9.38,.47-6.09,.1-12.11-.88-17.61-1.83-.13,.1,2.43,.38,2.54,.56-6.51-1.07-12.99-2.54-19.44-4.16-1.16-.31-2.56-.75-3.08-.92-2.04-.58-1.23-.26-2.72-.68l-.17-.16c-2.22-.51-3.16-1.02-5.22-1.57-.12,.01-.87-.21-1.59-.44,0-.13-2.24-.68-2.1-.75h-.02c-.44-.14-.75-.23-1.27-.43-.85-.17-8.66-2.55-9.5-2.84l-.38-.16c-1.14-.42-1.66-.53-1-.26l-1.41-.53,.17,.05-1.39-.55c-.25-.11-.52-.28-.11-.17-.8-.27-1.7-.59-2.48-.93,2.16,.95,4.86,2.1,7.14,3.07-.96-.32-2.66-1.02-3.69-1.4-1.24-.54-3.69-1.62-5.6-2.45-.43-.17-.79-.16-1.69-.63-.41-.29-1.04-.47-1.69-.95,.81,.43,1.65,.84,2.57,1.23-.14-.15-2.16-1.03-2.72-1.47-.15-.08-.6-.36-1.04-.75-.45-.39-.84-.89-1.08-1.3,.28,.31-.33-.69-.3-1.28-.08-.64-.07-1.11-.12-.82-.05-.12-.09,.59,.03,1.14,.11,.55,.33,.98,.08,.58-.03-.12-.14-.48-.21-.93-.06-.45-.07-.99-.03-1.38-.06-.02-.08,.53-.11,.02,.08-.87,.24-1.86,.43-2.39-.03,.18-.12,.56-.18,.83,.16-.61-.23,1.1-.05,2.48,.14,1.39,1.05,2.25,.67,1.76,.03,.07-.16-.16-.37-.6-.2-.44-.35-1.13-.34-1.9,.02-1.54,.46-3.25,.33-2.83-.21,.74,.02-.56-.19,.21l-.12,.86c-.23,1.02-.36,1.42-.36,1.05,.16-.87-.03,.42,.14,1.55,.15,1.15,.86,1.98,.52,1.46,.07,.15,.13,.31,.22,.46-.16-.21-.42-.63-.53-1.11-.13-.47-.15-1-.11-1.3-.06,0-.07-.79,.04-1.49l.05-.24c.1-.72,.38-1.75,.18-1.29-.47,2.14-.44,1.41-.47,.65,.01-.76,0-1.56-.46,.56,.24-.88,.25-.72,.14-.11-.1,.6-.26,1.66-.16,2.57-.01,.16-.08,1.03,.58,2.2,.67,.93,.44,.51,.6,.66,.37,.52,1.36,1.27,1.19,1.23,.8,.45,1.21,.83,2.23,1.29,.91,.37-.05-.06,.6,.19,1.36,.57,3.27,1.37,4.35,1.83,.4,.23,1.65,.84,.67,.57-2.08-.83,.86,.16-1.32-.68,.87,.52-1.93-.74-2.36-.8,.66,.34,2.05,.93,3.24,1.37l-.23-.11c1.04,.38,3.12,1.18,4.22,1.66-.28-.05,.19,.17-.58-.1l1.43,.55c.19,.05,.38,.11-.03-.06,.69,.22,1.36,.49,1.87,.7,.13,.14,7.76,2.47,7.53,2.38,1.05,.34,1.28,.5,2.32,.78,.02,0-.13-.05-.4-.13-.26-.08-.65-.2-1.11-.34-.92-.28-2.13-.66-3.31-1.02-2.36-.73-4.53-1.47-3.85-1.23,.43,.19,3.4,1.17,6.36,2.06,2.96,.91,5.91,1.72,6.22,1.86,.79,.22,1.73,.49,1.57,.38,1.32,.41-.43-.01,.5,.32,.02,0-.07-.05,.23,.04l.89,.33c2.09,.49,5.1,1.42,7.3,1.84-.65-.09-1.39-.17-2.8-.48l-.24-.09c-.2-.04-1.36-.31-1.34-.25,1.32,.38,2.46,.67,3.87,.97l.75,.23s-.02-.02-.02-.03c.45,.15,.4,.14,.23,.12h-.1c.8,.36,5.27,1.15,7.71,1.74,.73,.13,.07-.01,.98,.15,2.5,.58,4.22,.97,6.86,1.48,.86,.08,.93,.07-.08-.19l1.99,.37c-1.85-.11,3.7,.8,1.67,.66,.58,.14,1.78,.35,2.91,.48,.12-.03,.31-.08,1.73,.12,1.97,.32,1.5,.24,3.14,.48,.38,.1-.22,.06-.16,.12,2.55,.17,2.21,.36,4.63,.48,1.52,.08,4.53,.02,4.6-.12,2.05-.09,2.04-.03,1.85,.08Z"/></g><g><path class="c" d="M234,153.28c3.35,.61,6.76,1.25,9.73,2.92s5.46,4.57,5.7,7.96c.18,2.5-.86,4.93-2.13,7.08-1.38,2.33-3.11,4.51-5.38,5.98-5.28,3.4-12.16,2.29-18.31,1.05-23.04-4.63-55.08-10.27-78.13-14.9-6.45-1.3-3.94-1.6-10.07-3.99-5.64-2.19-10.93-5.29-15.61-9.14-2.52-2.07-4.88-4.39-6.6-7.17-1.32-2.13-2.25-4.53-3.96-6.37-.86-.93-1.91-1.71-2.52-2.81-2.76-5.03,4.62-3.11,6.67-2.74,4.35,.8,8.69,1.59,13.04,2.39l26.08,4.78,52.15,9.57,29.34,5.38Z"/><path class="c" d="M207.66,174.05l-1.29-.26c4.19,.79,8.58,1.67,12.91,2.57-9.36-2.23-20.45-4.64-27.89-5.22-.71-.57-9.84-2.47-10.04-2.4-1.93-.29-3.86-.59-5.81-.89,1.34,.22,2.68,.43,4.02,.64-1.33-.21-2.67-.43-4.02-.64-6.19-.99-12.61-2.15-19.21-3.44-3.3-.64-6.64-1.32-10.01-2.03-1.66-.36-3.39-.7-4.76-1.3-.64-.3-1.37-.81-2.2-1.26-.82-.45-1.65-.83-2.48-1.19-1.86-.76-4.33-1.76-7.1-3.28-2.76-1.5-5.74-3.44-8.49-5.69-2.77-2.23-5.26-4.73-6.8-7.31-.78-1.29-1.42-2.66-2.14-3.91-.7-1.25-1.54-2.38-2.34-3.18-.89-.9-1.61-1.54-1.93-2.26,.29,.61,.57,.88,.85,1.2,.34,.35,.68,.7,1.36,1.4-.98-.97-1.84-1.63-2.25-2.32-.23-.37-.45-.9-.48-1.05-.03-.09-.02-.17,.05-.23,.05-.03,.02-.04,.23-.09,.17-.04,.38-.07,.61-.09,.45-.03,.95-.01,1.45,.03,1.01,.09,2.02,.28,3.1,.48-.74-.2-.85-.32-2.54-.67,.69,.11,1.38,.26,2.08,.41,2.02,.21,6.51,1.03,8.66,1.35-.47,0,1.2,.33,2.67,.62l-.57-.17c5.6,1.02,12.1,2.2,17.11,3.11,.7,.13,1.21,.26,1.52,.35l4.81,.81c-.39,.05,3.96,.84,1.66,.49,3.62,.52,7.25,1.27,10.7,1.75,12.24,2.23,25.28,4.52,37.96,6.64l-.3-.1c4.44,.73,8.39,1.21,13.76,2.28,3.87,.54,9.36,1.46,10.93,1.49,4.44,.78,6.24,.98,10.6,1.71-1.1-.33,4.25,.62,2.13,.13-2.85-.71-3.04-.58-5.46-1.18l.07,.06c-11.39-2.29-22.82-4.49-34.39-6.68-7.75-1.31-16.12-2.94-24.16-4.38-8.66-1.54-18.04-3.18-25.48-4.44-1.78-.29-3.04-.63-4.54-.96-6.84-1.23-15.52-2.79-23.23-4.18,.14,.03,.28,.06,.38,.07-1.02-.19-1.98-.37-2.9-.54-.92-.19-1.81-.37-2.7-.55-.92-.17-1.85-.33-2.89-.36-.52,0-1.07,0-1.69,.16-.69,.16-1.56,.64-1.9,1.42,.02,0-.08,.23-.14,.54-.06,.32-.05,.71,0,.96,0,.06,.02,.28,.09,.56,.07,.26,.19,.6,.36,.97,.17,.34,.42,.83,.77,1.26,.34,.44,.76,.86,1.19,1.26,.43,.41,.85,.79,1.23,1.23,.39,.44,.76,.96,1.13,1.52,.73,1.13,1.41,2.47,2.22,3.82,1.64,2.74,3.91,4.98,5.74,6.57,1.84,1.59,3.26,2.6,3.53,2.84,.35,.25,.71,.5,1.08,.77,3.51,2.56,7.35,4.81,11.27,6.54,2,.86,3.8,1.57,5.42,2.6,.41,.25,.88,.55,1.4,.79,.51,.23,1.02,.43,1.51,.57,.99,.29,1.93,.51,2.84,.69,1.6,.24,3.37,.52,4.71,.7,1.26,.32,1.54,.23,3.07,.55,3.85,1.1,6.16,1.39,4.17,.89,3.23,.61,6.45,1.21,9.31,1.75,1.33,.22,2.65,.45,4,.67,1.14,.19,1.77,.35,2.32,.54,2.92,.5,2.04,.42,5.09,1.02,.72,.26,7.68,1.24,8.54,1.44l-.5-.08c3.52,.68,5.82,1.34,9.27,2,9.56,1.88,20.02,3.77,28.86,5.59,.11-.1-1.96-.36-2.03-.54,2.6,.53,5.24,1.13,7.98,1.47,2.72,.34,5.59,.41,8.42-.25,1.02-.22,2.27-.6,2.72-.8,.88-.37,1.1-.55,1.28-.67,.17-.13,.31-.2,.89-.59h.22c1.57-1.3,2.36-1.84,3.52-3.31,.03-.1,.44-.64,.81-1.18,.14,.05,1.08-1.68,1.11-1.55v-.02l.58-1c.15-.34,1.04-2.12,1.38-4.19,.17-1.02,.19-2.09,.06-2.93-.11-.84-.32-1.44-.38-1.63l-.09-.37c-.37-1.07-.71-1.43-.44-.84-.18-.42-.39-.82-.61-1.21l.09,.13c-.23-.39-.47-.76-.73-1.12-.14-.2-.27-.45,0-.19-.49-.58-1.09-1.18-1.63-1.69,1.52,1.41,2.99,3.72,3.28,5.95-.1-.44-.28-1.05-.51-1.65-.24-.59-.54-1.17-.81-1.57-.27-.51-.76-1.25-1.41-1.96-.64-.72-1.44-1.41-2.19-1.94-.34-.21-.64-.27-1.4-.74-.35-.29-.91-.45-1.56-.8,.81,.28,1.56,.67,2.31,1.12-.06-.21-1.85-1.07-2.49-1.32-.31-.1-1.87-.69-2.87-.91,.46,.01-.79-.28-1.36-.46-.67-.17-1.11-.21-.84-.12-.24,.04,2.65,.68,1.69,.58-.23-.12-1.55-.4-2.25-.53-.02,.06,.47,.14,0,.11-.78-.17-1.62-.25-2.05-.39,.15,.01,.47,.08,.69,.12-.5-.09,.88,.05,2.25,.24,1.37,.19,2.71,.49,2.04,.32,.17,.07-1.32-.24-2.75-.43-1.43-.2-2.79-.36-2.45-.3,.61,.14-.46,.03,.17,.17l.72,.06c.87,.19,1.21,.37,.89,.35-.73-.14,.33-.06,1.42,.08,1.09,.14,2.22,.36,1.58,.22l.5,.17c-.55-.12-1.98-.42-2.51-.59-.02,.06-.74-.07-1.34-.16l-.21-.05c-.62-.09-1.47-.25-1.08-.1,3.58,.66-2.46,.17,.99,.85-1.43-.4,.51-.06,2.04,.26,.14,.08,.8,.28,1.87,.61,.94,.25,.56,.11,.75,.13,.51,.18,1.47,.56,1.32,.58,.74,.19,1.11,.49,1.93,.86,.72,.34-.03-.06,.49,.17,1.07,.57,2.41,1.63,3.05,2.34,.23,.31,.85,1.23,.25,.69-1.22-1.31,.62,.36-.72-.95,.24,.33-.06,.05-.49-.31-.43-.35-1-.77-1.17-.81,.45,.38,1.4,1.11,2.09,1.84-.04-.06-.08-.11-.12-.16,.66,.59,1.72,2.03,1.99,2.96-.14-.18,0,.21-.29-.36,.17,.36,.33,.72,.45,1.1,.07,.14,.14,.28,.03-.05,.22,.52,.33,1.08,.35,1.51-.02,.03,.06,.44,.08,1.04,.02,.6-.04,1.39-.2,2.16-.32,1.54-1.01,2.95-.97,2.85-.4,.79-.58,.93-.97,1.7,0,.01,.06-.09,.18-.28,.11-.19,.27-.47,.44-.81,.35-.68,.77-1.61,1.06-2.55,.63-1.88,.42-3.7,.45-3.13-.02,.18,0,.88-.18,1.83-.17,.95-.56,2.12-1.09,3.24-1.04,2.24-2.53,4.22-2.76,4.38-.41,.51-.95,1.08-.81,1.01-.8,.76,.16-.31-.44,.21,0,.02,.07-.02-.11,.15-.2,.15-.4,.31-.6,.45-.6,.6-1.49,1.18-2.42,1.68-.95,.46-1.94,.85-2.8,1.12,.48-.19,1.02-.45,2.04-.95l.19-.06c.08-.04,.31-.17,.53-.28,.21-.14,.39-.27,.37-.29-.94,.5-1.78,.86-2.85,1.23l-.6,.12s.02,0,.02,.02c-.37,.05-.33,.03-.2-.02l.07-.03c-.35-.01-1.36,.25-2.57,.37-1.21,.15-2.6,.17-3.59,.06-.59-.02-.06,.03-.79,0-2.02-.26-3.4-.54-5.49-.97-.69-.06-.74-.04,.05,.19l-1.59-.33c1.49,.1-2.94-.77-1.31-.64-.46-.14-1.41-.33-2.31-.48-.1,.03-.25,.08-1.38-.14-1.55-.37-1.17-.28-2.47-.59-.29-.12,.19-.05,.14-.11-2.01-.31-1.72-.47-3.61-.83-1.18-.21-3.52-.65-3.6-.55-1.59-.31-1.58-.39-1.4-.45Z"/></g><g><path class="d" d="M77.03,97.13c-.63,1.22-1.23,2.79-.37,3.87,.77,.98,2.25,.9,3.49,.78,5.39-.5,10.88,.08,16.05,1.7,5.66,1.77,11.03,4.78,16.94,5.26,9.35,.76,18.6-4.93,27.79-3.02,4.61,.96,8.6,3.73,12.83,5.79,5.64,2.74,11.88,4.26,18.15,4.41,5.01,.12,10.08-.61,15.02,.28,7.77,1.41,14.31,6.69,21.9,8.85,6.21,1.76,12.79,1.36,19.23,1.72,8.52,.48,16.95,2.35,24.88,5.5,1.93,.77,4.33,1.54,5.9,.17,1.4-1.22,1.21-3.41,.9-5.25l-3.95-23.58c-.19-1.12-.39-2.28-1.07-3.19-.55-.75-1.37-1.25-2.18-1.71-12.11-7.01-25.96-10.37-39.72-12.89-31.75-5.82-64.1-7.65-96.02-12.52-5.02-.77-10.03-1.61-15.1-1.99-3.3-.25-9.05-1.35-11.77,1.11s-4.12,7.55-5.71,10.66l-7.19,14.06Z"/><path class="d" d="M163.77,116.06c.59,.13,1.17,.24,1.76,.34-2.87-.47-5.76-1.26-8.57-2.34-2.82-1.06-5.51-2.53-8.05-3.95,1.38,.8,2.8,1.64,4.3,2.42,1.51,.78,3.09,1.49,4.71,2.1,3.25,1.22,6.68,2.05,10.07,2.44,3.4,.42,6.74,.27,9.72,.08,2.99-.18,5.7-.33,8.09-.19,.24,.14,1.15,.37,2.35,.74,1.2,.38,2.69,.93,4.14,1.57,2.89,1.28,5.68,2.79,5.82,2.78,2.33,1.08,4.74,2.22,7.29,3.16-1.76-.65-3.44-1.4-5.09-2.16,1.64,.76,3.33,1.52,5.09,2.16,4.05,1.56,8.52,2.13,12.89,2.31,4.39,.19,8.78,.1,13.17,.58,4.4,.46,8.82,1.31,13.17,2.55,2.18,.62,4.34,1.34,6.48,2.17,1.05,.4,2.12,.89,3.38,1.25,.62,.17,1.29,.31,2.02,.33,.72,.02,1.54-.09,2.29-.47,.83-.41,1.62-1.21,2-2.22,.4-.99,.44-2.03,.39-3.03-.06-1.01-.25-1.97-.4-2.93-.16-.98-.32-2-.5-3.05-.69-4.22-1.46-9-2.24-13.79l-.58-3.58c-.22-1.21-.32-2.31-.66-3.67-.18-.67-.46-1.39-.93-2.05-.47-.66-1.06-1.14-1.6-1.52-.55-.38-1.05-.66-1.54-.93l-1.46-.82c-3.85-2.12-7.39-3.61-9.9-4.63-1.46-.57-2.92-1.12-4.42-1.63,2.47,.88,2.47,.89,4.91,1.86-6.2-2.29-11.97-3.79-17.58-5.01,.97,.29,1.13,.37,3.44,1.05l-2.83-.74c-2.63-.47-8.64-1.71-11.49-2.14,.63,.02-1.6-.4-3.58-.76l.77,.2c-7.48-1.38-16.21-2.58-22.94-3.47-.94-.12-1.64-.25-2.06-.33l-6.46-.74c.51-.07-5.34-.75-2.25-.46-4.85-.42-9.75-1.07-14.37-1.43-16.48-1.81-34-3.61-50.94-6.13l.41,.11c-2.98-.41-5.79-.72-8.78-.93-1.5-.09-3.01-.21-4.62-.36-1.61-.12-3.33-.26-5.17-.02-1.28,.21-2.79,.7-3.8,1.81-1.02,1.07-1.74,2.39-2.33,3.63-1.15,2.51-1.88,4.76-2.22,5.76-2.63,5.39-3.69,7.57-6.28,12.86,.81-1.29-2.47,5.17-1.06,2.63,1.94-3.4,1.9-3.66,3.54-6.55l-.08,.07,2.71-5.14,1.35-2.58c.46-.91,.85-1.81,1.23-2.7,.77-1.78,1.51-3.54,2.45-5.1,.47-.78,.99-1.5,1.59-2.07,.56-.54,1.22-.86,2.04-1.08,3.33-.79,7.35,.15,11.2,.38,3.83,.4,7.67,1.03,11.55,1.64,10.39,1.5,21.67,2.98,32.49,4.17,11.66,1.27,24.27,2.54,34.25,3.68,2.38,.26,4.08,.6,6.1,.91,9.16,1.15,20.77,2.96,30.96,4.98l-.5-.11c5.41,1.1,9.39,2.2,14.53,3.71-.01-.04,.78,.2,1.17,.31,.41,.22,8.02,2.43,15.14,6.09,.89,.45,1.76,.94,2.63,1.41,.86,.48,1.59,.95,1.99,1.54,.42,.6,.63,1.42,.79,2.27l.45,2.49c.56,3.13,.95,5.39,1.01,5.86,.1,.55,.2,1.13,.31,1.71,.44,2.82,.89,5.66,1.33,8.5,.22,1.42,.43,2.83,.64,4.24,.21,1.42,.47,2.77,.3,3.93-.14,1.16-.76,1.85-1.7,2-.96,.17-2.19-.2-3.36-.65-2.44-1-4.95-1.9-7.33-2.59-2.09-.54-4.47-1.06-6.26-1.34-1.7-.43-2.06-.35-4.14-.72-2.62-.58-4.75-.84-5.85-.92-1.11-.08-1.21-.03,.17,.15-4.42-.35-8.81-.29-12.63-.52-1.78-.08-3.53-.22-5.28-.47-1.49-.23-2.29-.48-3-.75-1.84-.49-2.47-.77-3.12-1.02-.64-.28-1.31-.55-3.15-1.42-.43-.25-2.74-1.33-5.12-2.46-2.37-1.13-4.87-2.12-5.42-2.34,.22,.07,.43,.16,.64,.24-4.46-1.88-7.89-2.68-12.65-2.64-3.3,0-6.6,.26-9.84,.09-3.25-.16-6.5-.71-9.62-1.59-3.13-.88-6.09-2.12-8.88-3.63-2.81-1.49-5.58-3.13-8.57-4.18-.08,.04,.58,.26,1.25,.53,.67,.27,1.35,.59,1.38,.69-1.65-.77-3.39-1.44-5.24-1.85-1.85-.38-3.74-.51-5.6-.45-3.73,.17-7.29,1.04-10.76,1.84-1.26,.27-2.79,.53-3.36,.61-2.2,.37-1.28,.31-2.89,.53l-.23-.08c-2.32,.36-3.4,.16-5.52,.05-.12,.04-.9-.05-1.65-.19-.02-.1-2.33-.5-2.19-.61h-.02c-.45-.13-.78-.21-1.33-.41-.44-.1-2.69-.78-4.98-1.59-2.28-.81-4.66-1.57-5.13-1.69l-.43-.16c-1.29-.41-1.87-.47-1.12-.23-.53-.17-1.07-.31-1.6-.45l.19,.04c-.53-.13-1.07-.27-1.61-.39-.3-.08-.62-.2-.15-.15-.94-.15-1.97-.32-2.89-.47,2.58,.42,5.72,1.3,8.21,2.33-1.05-.34-2.96-.99-4.14-1.25-1.38-.44-4.29-1.06-6.6-1.28-.51-.03-.87,.07-2.02-.04-.56-.11-1.3-.03-2.26-.08,1.1-.07,2.19-.02,3.3,.04-.18-.14-2.72-.18-3.61-.16l-1.61,.09-1.19,.09c-.37,.04-.72,.06-.99,.07,.25-.06,0-.06-.33-.09-.35-.02-.71-.13-.81-.24-.25-.18-.32-.36-.31-.23-.07-.02,.02,.3,.42,.46,.42,.16,1.02,.18,.51,.21-.12-.04-.52-.11-.76-.26-.24-.15-.38-.39-.4-.65-.07,0,.02,.35-.1,.03-.09-.62,.26-1.64,.56-2.09-.07,.17-.24,.52-.32,.77,.11-.28,.02-.02-.08,.46-.04,.23-.07,.52-.03,.76,.05,.23,.12,.39,.26,.51,.21,.22,.81,.29,1.27,.26,.45-.03,.65-.07,.27-.04,.11,0-.29,.07-.77,.04-.5-.05-.82-.18-.97-.57-.17-.42,.04-1.26,.24-1.77,.2-.53,.36-.84,.25-.64-.38,.68,.15-.55-.23,.16-.11,.28-.2,.55-.27,.82-.35,.95-.36,1.26-.41,.96,.05-.39,.07-.3,.07,.02,0,.33,.12,.75,.42,.97,.27,.22,.77,.29,1.13,.28,.36,0,.49-.03,.14-.02,.19,.02,.38,.03,.59,.03-.31,.03-.9,.06-1.31-.06-.41-.11-.58-.36-.63-.52-.03,.01-.1-.07-.15-.25-.05-.18-.05-.49,.02-.8,.02-.07,.05-.15,.07-.22,.15-.66,.69-1.63,.39-1.22-.49,1.01-.54,1.32-.61,1.31-.06-.01-.05-.37,.02-.75,.06-.38,.17-.78,.12-.82-.03-.04-.31,.25-.66,1.33,.36-.88,.35-.7,.16-.1-.08,.3-.18,.73-.15,1.16,.03,.44,.21,.86,.54,1.14,.04,.07,.2,.25,.56,.41,.36,.16,.93,.27,1.65,.25,1.26-.09,.74-.11,.98-.16,.72-.04,2.08-.08,1.9,0,1-.11,1.6,0,2.8,0,1.06,0-.07-.04,.68-.05,1.59,.06,3.81,.33,5.06,.57,.48,.14,1.91,.55,.83,.44-2.36-.43,.93-.02-1.54-.41,1.04,.29-2.2-.27-2.66-.16,.79,.13,2.38,.31,3.71,.54l-.26-.06c1.17,.16,3.5,.66,4.7,1.12-.3-.03,.22,.16-.62-.07,.52,.15,1.04,.3,1.55,.48,.2,.05,.41,.1-.03-.06,.74,.19,1.46,.47,2.01,.7,.08,.05,2.13,.76,4.13,1.49,2,.73,3.98,1.33,3.85,1.3,1.12,.37,1.37,.53,2.5,.78-.06-.02-.64-.18-1.63-.46-.99-.28-2.29-.72-3.53-1.17-2.49-.91-4.79-1.75-4.06-1.47,.47,.18,3.58,1.41,6.74,2.43,1.58,.5,3.19,.89,4.46,1.1,1.27,.2,2.18,.28,2.36,.31,.88,.03,1.94,.06,1.73-.01,1.48-.02-.44,.12,.61,.14,.02,0-.09-.03,.25-.04,.34,0,.68,.04,1.02,.02,2.3-.23,5.64-.81,7.95-1.48-.66,.22-1.41,.51-2.92,.88l-.27,.02c-.21,.06-1.47,.31-1.42,.36,1.46-.23,2.7-.49,4.2-.9,.28-.05,.61-.11,.83-.15,0,0-.03,0-.03-.02,.5-.08,.45-.06,.28,0l-.1,.04c.94-.05,5.57-1.49,8.22-1.68,.77-.12,.07-.06,1.03-.17,2.69-.14,4.56-.02,7.25,.68,.87,.17,.96,.17-.07-.2,.68,.2,1.35,.41,2.01,.68-.94-.24-.02,.12,.85,.54,.87,.42,1.7,.87,.7,.51,.55,.29,1.68,.85,2.76,1.39,.13,.02,.33,.03,1.67,.76,1.84,1.06,1.4,.81,2.95,1.68,.35,.24-.25-.03-.2,.05,2.52,1.13,2.11,1.19,4.55,2.14,1.53,.6,4.65,1.48,4.76,1.36,2.14,.53,2.13,.57,1.9,.62Z"/></g><g><path class="b" d="M106.97,80.5l-.04,.05c.07-.19,.19-.37,.32-.54-.53,.26-1.05,.62-.46,1.27-.4-.14-.76,.19-.67,.24,.03,.12,.05,.23,.06,.33,0-.07,0-.14-.02-.22,.01,.07,.02,.15,.02,.22,.06,.68-.33,1.21-.75,1.76-.22,.31-.71,1.19-.98,1.49l-.1,.13,.14-.14c.01,.26,.03,.49,.01,.71,.07,0,.13,0,.24-.03l-.08,.08c.12,.16,.03,.35,.06,.48-.08-.06-.13,0-.17,.07h.07c-.14,.23-.2,.55-.31,.76-.01,.03-.06,.04-.09,.04l-.03,.24c-.11-.07-.18,.13-.2,0,.06,.22-.09,.34-.02,.55-.22,.55-.39,1.16-.44,1.8h.05c-.01,.23,.14,.5-.04,.71,.08,.24,.05,.51,.26,.68-.05,.21,.03,.34,0,.56,.14,0,.06,.25,.19,.19,.22-.06,.08-.12,.26-.17h-.04c.4-.44,.72-.9,1-1.39,.05-.38,.29-.72,.42-1.09,.13-.4,.23-.85,.28-1.22,0-.09,.12-.11,.21-.15,.08-.32,.29-.69,.37-1.06h-.01c.06-.17,.24-.26,.3-.44-.03-.01-.02-.04-.04-.06,.17,.04,.13-1.18,.25-1.2,0-.02,0-.04,0-.06,.23-.34,.7-.59,.82-.92-.04-.1-.07-.21-.13-.3,.09-.03-.03-.09,.02-.15,.39-.04,.3-.19,.15-.15,.02-.16,.11-.29,.16-.42v-.21c0-.06,.06-.07,.14-.06,.01-.15,.07-.08,.16-.2,.12,.02-.02-.41,.03-.44v.03c.09-.15,.35-.16,.43-.31,.27-.39,.39-.88,.6-1.26-.11-.05-.01,.1-.17,.04,.12-.22,.36-.39,.49-.62,.05-.03,.13-.05,.17-.06,.08-.06-.03-.07,0-.12l.11,.04c-.05-.12,.16-.07,.16-.16-.04-.02-.03-.05-.02-.08,.11,.05,.03-.09,.13-.04h0s0-.03,.03-.05c-.02-.05-.2-.47-.23-.52h.02c.02-.05-.06-.11-.09-.09l.03-.05h0l.03-.04s.07,0,.11,.04c-.02-.05-.03-.09,0-.11-.1,.05-.24,.11-.39,.15-.02-.05,.06-.09,.07-.13,.09-.01,.19-.08,.28-.13,0-.02-.12-.08-.05-.1,.09,.02,.02-.04,.09-.05,.03,.05,0,.08-.03,.11,.1,.04,.11-.06,.15-.07-.03-.03,.04-.08,.03-.14,.09,.06,.08,0,.14-.01,.02-.02,0-.06-.04-.06-.1-.06-.11,.09-.2,0,.05,.01,.06-.05,.07-.09-.06-.03-.05,0-.1-.04,.03-.03-.02-.09,.04-.09,.01,.01,0,.02,0,.03,.03-.04,.26,.4,.25,.33-.06,0-.22-.4-.24-.37-.04,.01-.09-.06-.13-.05l.05,.06s-.14,0-.18-.03c.04-.06,.3,.35,.27,.27h-.04s-.03-.11,.04-.1c-.06-.03-.06-.07-.07-.1h.01s.01-.08-.07-.09c-.06,.16-.52-.36-.62-.22,.15,0,.12,.08,.1,.15-.04-.01-.12,0-.17,.02,0,.05,.03,.04,.06,.07-.04,.01-.08,.04-.14,0,.06,.07-.07,.03-.06,.08,.02,.05,.03,.01,.06,.05-.03,.05-.07,.12-.11,.15-.07-.01-.2-.01-.28-.09,.05-.07,.14,.1,.16,0-.15-.03,0-.09-.1-.15-.07,0-.1,.05-.1,.1h.02s0,.14-.1,.15c-.04-.03-.09-.03-.09-.06l-.03,.05s.03,.03,.04,.02c.03,.04,0,.06-.04,.06-.05-.02,.09,.38,.06,.36-.02,.04-.1,.01-.06,.07,.04,.02-.01-.45-.02-.39-.07,0,.07,.55-.04,.53,0,.03-.01,.07,.04,.09-.05,.04-.09-.06-.16-.05,0,0,.03,0,.02,.02h-.08c.05,.11-.11,.18-.03,.3-.05-.05-.13-.12-.16-.19h.03s-.01-.06-.07-.08c-.06,.03-.06,.08-.04,.15h-.05l.02,.02s-.04,0-.06-.02h-.01c-.17-.05,.01,.22-.1,.27,.01,.04,.02,.01,.04,.06-.1,.06-.17,.1-.25,.18,.05,.06,.08,.07,.16,.07l-.05,.06c-.15-.14-.23,.06-.37-.09-.05,0-.08,.04-.07,.09,.04,.02,.11,.06,.09,.11-.09,.04-.06,.04-.14,.07-.06-.01-.08-.04-.12-.06,.03,.12-.16,.02-.18,.11,0,.06-.04,.17,.06,.21-.04,.07-.11,.04-.19,0Z"/><path class="b" d="M140.36,88.07l-.03,.05c.06-.18,.17-.35,.29-.51-.51,.25-1.01,.59-.39,1.2-.41-.13-.75,.18-.65,.23,.04,.11,.07,.22,.09,.32,0-.07-.02-.14-.04-.21,.02,.07,.03,.14,.04,.21,.11,.65-.22,1.16-.59,1.7-.19,.3-.6,1.16-.84,1.45l-.09,.13,.13-.14c.03,.25,.07,.47,.07,.68,.07-.01,.13,0,.23-.04l-.07,.08c.13,.15,.06,.34,.1,.45-.08-.05-.12,.01-.16,.07h.07c-.12,.22-.15,.52-.24,.73-.01,.03-.05,.04-.09,.04v.23c-.12-.06-.17,.13-.21,0,.08,.2-.06,.33,.03,.52-.17,.53-.28,1.11-.28,1.72h.05c0,.22,.18,.46,.02,.66,.1,.22,.1,.48,.32,.62-.03,.2,.06,.32,.06,.52,.14,0,.08,.23,.21,.17,.21-.06,.07-.12,.25-.18h-.04c.36-.43,.63-.88,.86-1.34,.02-.36,.23-.68,.32-1.03,.09-.38,.15-.8,.16-1.15,0-.09,.11-.1,.19-.15,.05-.31,.22-.66,.27-1h0c.04-.17,.21-.25,.25-.42-.03-.01-.03-.04-.04-.06,.17,.03,.03-1.12,.14-1.14,0-.02,0-.04,0-.06,.2-.33,.64-.57,.72-.89-.05-.1-.09-.2-.15-.28,.09-.03-.04-.09,0-.15,.37-.04,.28-.19,.14-.15,0-.15,.08-.28,.12-.4v-.2c-.02-.06,.03-.07,.12-.06,0-.14,.06-.07,.14-.19,.12,.01-.05-.39,0-.41v.03c.09-.14,.34-.15,.41-.29,.24-.37,.34-.84,.53-1.19-.11-.05,0,.09-.16,.03,.11-.21,.34-.37,.45-.58,.05-.03,.12-.05,.17-.06,.07-.05-.04-.06,0-.11l.11,.04c-.05-.11,.16-.06,.15-.15-.04-.02-.04-.05-.02-.07,.11,.04,.02-.08,.12-.04h0s0-.03,.03-.04c-.03-.04-.22-.44-.25-.49h.02s-.06-.1-.09-.08l.03-.05h0l.03-.04s.07,0,.11,.04c-.03-.04-.03-.08,0-.1-.1,.05-.24,.11-.38,.14-.02-.05,.06-.09,.06-.13,.09-.01,.19-.08,.27-.13,0-.02-.12-.08-.05-.09,.09,.02,.01-.04,.09-.04,.03,.05,0,.08-.02,.11,.1,.04,.1-.05,.14-.07-.03-.03,.03-.08,.02-.13,.09,.06,.07,0,.14-.01,.02-.02,0-.06-.05-.06-.1-.05-.11,.08-.2,0,.05,.01,.06-.05,.07-.08-.06-.02-.05,0-.1-.04,.03-.03-.03-.09,.04-.08,.01,.01,0,.02,0,.03,.02-.04,.28,.38,.27,.31-.06,0-.24-.38-.26-.35-.04,.01-.1-.06-.13-.04l.06,.06s-.14,0-.18-.03c.03-.06,.32,.33,.28,.26h-.04s-.04-.1,.03-.1c-.06-.02-.06-.06-.07-.09h.01s0-.07-.07-.09c-.05,.15-.53-.33-.63-.2,.15,0,.12,.07,.11,.14-.04-.01-.12,0-.17,.02,0,.04,.04,.04,.06,.06-.04,.01-.08,.04-.14,.01,.07,.06-.07,.03-.06,.08,.02,.05,.03,.01,.06,.05-.03,.05-.07,.11-.1,.14-.07-.01-.2,0-.28-.08,.04-.07,.14,.09,.15,0-.15-.02-.01-.08-.11-.14-.07,0-.09,.05-.09,.1h.02s0,.13-.09,.14c-.05-.03-.09-.03-.09-.06l-.03,.05s.03,.03,.04,.02c.03,.04,0,.05-.04,.06-.05-.02,.11,.36,.08,.34-.01,.04-.1,.01-.06,.07,.04,.02-.04-.42-.04-.37-.07,0,.09,.52-.02,.5,0,.03,0,.07,.05,.08-.04,.03-.1-.05-.16-.04,0,0,.03,0,.02,.02h-.08c.05,.11-.1,.17-.02,.29-.05-.04-.14-.11-.17-.18h.03s-.02-.06-.07-.08c-.05,.03-.06,.07-.03,.14h-.05l.02,.02s-.04,0-.06-.02h-.01c-.17-.04,.03,.21-.09,.26,.01,.03,.03,.01,.04,.06-.1,.06-.17,.1-.24,.17,.06,.06,.08,.07,.16,.06l-.05,.06c-.15-.13-.22,.05-.37-.08-.05,0-.07,.04-.06,.09,.04,.02,.11,.06,.09,.1-.09,.04-.06,.03-.14,.07-.06-.01-.08-.04-.13-.06,.04,.11-.16,.02-.18,.1,0,.06-.04,.16,.07,.2-.03,.06-.11,.03-.19,0Z"/><path class="b" d="M190.96,96.91l-.02,.06c.02-.21,.1-.42,.18-.63-.45,.41-.86,.9-.13,1.39-.43-.03-.69,.39-.59,.42,.06,.11,.11,.21,.15,.32-.02-.07-.04-.14-.07-.21,.03,.07,.05,.14,.07,.21,.23,.66-.02,1.3-.29,1.95-.14,.37-.4,1.38-.58,1.75l-.07,.16,.11-.18c.07,.26,.15,.49,.19,.71,.07-.03,.13-.02,.22-.1l-.06,.1c.16,.13,.11,.35,.17,.47-.09-.04-.12,.04-.14,.11l.06-.02c-.08,.27-.06,.6-.11,.85,0,.03-.04,.05-.08,.06l.03,.25c-.12-.04-.14,.18-.2,.05,.12,.2,0,.37,.12,.56-.08,.61-.09,1.27,.01,1.93h.05c.05,.23,.25,.46,.13,.71,.13,.22,.17,.51,.42,.63,0,.23,.11,.34,.14,.56,.13-.03,.12,.24,.23,.15,.2-.11,.05-.15,.21-.24h-.04c.28-.54,.48-1.08,.63-1.65-.04-.4,.11-.8,.14-1.21,.02-.44,.02-.92-.03-1.3-.02-.09,.09-.14,.16-.2,0-.35,.11-.77,.1-1.16v.02c0-.21,.16-.34,.17-.54-.04,0-.03-.04-.05-.05,.17,0-.16-1.22-.05-1.28,0-.02,0-.04,0-.07,.14-.4,.54-.78,.56-1.15-.07-.09-.12-.19-.2-.27,.08-.05-.05-.09-.02-.16,.37-.14,.24-.28,.11-.19-.02-.17,.04-.32,.05-.47l-.05-.21c-.02-.06,.04-.08,.12-.1-.02-.15,.05-.1,.11-.24,.12-.02-.13-.41-.08-.45v.03c.06-.17,.31-.25,.34-.42,.16-.46,.16-.99,.27-1.43-.12-.02,.01,.1-.15,.08,.06-.26,.26-.49,.32-.75,.04-.04,.11-.09,.15-.11,.06-.08-.05-.06-.03-.12h.11c-.08-.09,.14-.1,.11-.19-.04-.01-.04-.04-.04-.07,.12,.02,0-.09,.11-.07h0s0-.03,.02-.05c-.04-.04-.31-.41-.35-.46h.02c0-.06-.08-.1-.11-.07l.02-.06h0l.02-.05s.07-.01,.12,.01c-.04-.04-.05-.08-.03-.11-.09,.08-.21,.18-.34,.26-.03-.05,.04-.11,.03-.15,.09-.04,.17-.14,.24-.21,0-.02-.13-.05-.07-.08,.09,0,0-.05,.08-.07,.04,.05,.01,.08,0,.12,.11,0,.09-.09,.12-.11-.03-.02,.02-.09,0-.14,.1,.04,.07-.03,.13-.05,.02-.03-.02-.06-.06-.05-.11-.03-.09,.12-.2,.06,.06,0,.05-.07,.05-.11-.06,0-.05,.02-.1-.02,.02-.04-.05-.09,.02-.1,.02,0,0,.02,0,.03,.01-.05,.35,.33,.33,.26-.06,0-.32-.34-.33-.31-.03,.03-.11-.04-.13-.01l.07,.05s-.14,.04-.18,.02c.02-.07,.38,.27,.33,.2l-.03,.02s-.06-.11,0-.12c-.06,0-.08-.05-.09-.08h.01s0-.08-.09-.08c-.02,.18-.59-.21-.66-.05,.14-.05,.13,.05,.14,.12-.05,0-.12,.02-.16,.07,0,.05,.04,.04,.08,.05-.03,.02-.07,.07-.14,.05,.08,.05-.06,.05-.04,.1,.03,.04,.04,0,.07,.04-.02,.06-.04,.14-.07,.18-.07,0-.19,.04-.29-.01,.03-.09,.16,.06,.15-.04-.16,.02-.03-.09-.14-.12-.07,.02-.08,.08-.07,.13h.02s.03,.13-.06,.17c-.05-.02-.09,0-.1-.04l-.02,.06s.03,.02,.05,0c.04,.03,0,.06-.03,.08-.06,0,.18,.35,.15,.34,0,.04-.09,.04-.04,.09,.04,.01-.12-.44-.12-.38-.07,.03,.2,.53,.09,.54,0,.03,0,.07,.06,.07-.04,.05-.11-.03-.16,0,0,0,.03,0,.02,.01l-.08,.03c.07,.1-.06,.2,.04,.31-.06-.04-.16-.08-.21-.15h.03s-.03-.07-.08-.07c-.05,.05-.04,.1,0,.16l-.05,.02h.02s-.04,.01-.06,0h-.01c-.17,0,.07,.22-.03,.31,.02,.03,.03,0,.05,.05-.08,.09-.14,.15-.2,.25,.07,.04,.09,.05,.17,.02l-.04,.08c-.18-.1-.2,.12-.38,0-.05,.02-.06,.06-.04,.11,.05,.01,.12,.03,.11,.09-.08,.07-.05,.05-.12,.11-.06,0-.09-.02-.14-.03,.06,.11-.15,.06-.15,.16,0,.06,0,.18,.11,.2-.02,.08-.1,.06-.18,.04Z"/><path class="b" d="M234.1,103.9v.06c-.02-.2,.02-.42,.07-.63-.38,.46-.72,1,.08,1.36-.42,.04-.63,.48-.52,.49,.08,.09,.14,.19,.19,.28-.03-.07-.06-.13-.1-.2,.04,.06,.07,.13,.1,.2,.32,.6,.17,1.26,0,1.93-.08,.37-.19,1.39-.31,1.77l-.04,.17,.08-.19c.11,.24,.22,.45,.29,.65,.06-.04,.12-.04,.2-.13l-.04,.1c.18,.1,.17,.32,.24,.42-.09-.02-.11,.06-.13,.13l.06-.03c-.04,.27,.03,.59,.02,.84,0,.03-.03,.06-.07,.07l.07,.23c-.12-.02-.11,.19-.19,.08,.14,.18,.05,.35,.2,.52,.01,.6,.1,1.23,.3,1.85h.05c.08,.2,.32,.39,.24,.66,.16,.19,.25,.46,.5,.53,.03,.22,.16,.3,.23,.52,.13-.05,.15,.21,.25,.1,.18-.14,.03-.15,.17-.27h-.04c.2-.55,.31-1.11,.38-1.68-.1-.38-.01-.79-.04-1.18-.04-.42-.12-.88-.22-1.24-.04-.09,.07-.15,.13-.22-.05-.33,0-.76-.07-1.13v.02c-.02-.2,.11-.35,.09-.54-.04,0-.04-.03-.06-.04,.17-.03-.34-1.15-.24-1.22,0-.02-.01-.04-.02-.06,.08-.41,.41-.83,.39-1.19-.08-.08-.15-.16-.24-.23,.07-.06-.07-.08-.05-.15,.34-.19,.2-.3,.08-.2-.04-.16-.01-.32-.02-.46l-.08-.2c-.03-.06,.02-.09,.1-.11-.05-.14,.04-.1,.07-.25,.12-.03-.19-.38-.15-.42l.02,.02c.02-.17,.25-.28,.26-.45,.09-.47,0-.98,.05-1.41-.12,0,.03,.1-.14,.1,.02-.26,.18-.51,.2-.77,.03-.05,.1-.1,.14-.12,.05-.08-.06-.05-.04-.11h.11c-.09-.1,.13-.14,.08-.22-.05,0-.05-.04-.05-.06,.12,0,0-.09,.1-.09h0s0-.03,.02-.05l-.2-.19c-.06-.02-.07-.02-.16-.03l-.31-.04h-.06c-.16-.04-.21-.06-.13-.04-.06-.01-.11-.03-.16-.04h.02s-.09-.03-.12-.04c-.02,0-.04-.02-.01,0-.05-.02-.1-.06-.11-.07,.02,.02,.09,.07,.2,.11,.06,.02,.12,.04,.21,.06,.07,.02,.22,.04,.13,.03h-.01l-.12-.03c-.09-.02-.16-.04-.21-.06-.13-.04-.24-.14-.21-.12h0l-1.14-.15s.07,.02,.03,.05c-.09,.03,0,.05-.06,.09-.05-.03-.03-.07-.03-.11-.11,.02-.06,.1-.09,.14,.04,.01,0,.09,.04,.13-.11-.01-.06,.04-.12,.08,0,.03,.03,.05,.07,.03,.11,0,.06-.13,.18-.1-.05,.02-.03,.08-.02,.11,.06,0,.04-.03,.11-.01-.01,.04,.07,.07,0,.1-.02,0,0-.02,0-.03,0,.05-.43-.23-.38-.17,.05-.02,.39,.24,.39,.21,.03-.03,.11,.01,.13-.02l-.08-.03s.13-.07,.17-.06c0,.07-.44-.16-.37-.11l.03-.03s.08,.09,.02,.12c.06,0,.09,.03,.11,.05h0s.02,.08,.1,.05c-.03-.17,.63,.06,.65-.11-.13,.08-.14-.01-.16-.08,.04-.01,.11-.05,.14-.11-.01-.05-.05-.02-.09-.03,.03-.03,.05-.08,.12-.08-.09-.03,.05-.06,.02-.1-.04-.03-.04,0-.08-.02v-.04l.3,.17s-.03,0-.05,0c-.06-.04-.19-.04-.26-.13,.07-.08,.12,.12,.16,.03-.14-.07,.02-.09-.01-.19-.07-.04-.16,.03-.18,.1h.02c-.02,.07-.03,.17-.12,.21-.05-.03-.09,0-.1-.06l-.03,.08s.03,.03,.05,0c.03,.04,0,.07-.03,.1-.07,.03,.23,.35,.19,.33,0,.04-.08,.05-.03,.09,.05,0-.19-.41-.17-.37-.07,.06,.28,.49,.17,.52,0,.03,.02,.07,.07,.06-.03,.05-.11-.02-.16,.02,0,0,.03,0,.03,0l-.07,.04c.09,.08-.03,.2,.09,.29-.06-.03-.17-.06-.23-.11h.03s-.04-.06-.09-.06c-.04,.05-.03,.1,.03,.15l-.05,.03h.02s-.04,.02-.06,0h-.01c-.17,.03,.1,.2,.02,.3,.02,.03,.03,0,.06,.04-.07,.1-.12,.17-.16,.27,.07,.03,.1,.04,.18,0l-.02,.08c-.19-.07-.18,.14-.38,.06-.04,.02-.05,.07-.02,.11,.05,0,.13,.01,.13,.07-.06,.08-.04,.06-.1,.12-.06,.01-.09,0-.14,0,.08,.1-.14,.08-.13,.18,.02,.06,.02,.17,.13,.18,0,.08-.09,.08-.18,.07Z"/></g><g><path class="c" d="M109.1,35.74c11.95-6.3,25.72-8.23,39.21-8.75,35.4-1.37,72.6,7.24,98.87,31,5.32,4.81,10.2,10.28,13.29,16.75,3.09,6.47,4.27,14.06,2.13,20.91-1.17,3.74-3.67,7.45-7.47,8.41-2.05,.52-4.21,.17-6.3-.18-52.24-8.78-102.27-16.79-154.04-28.04-1.99-.43-6.06-1.9-7.67-3.16-5.41-4.24,1.53-17.24,4.39-21.46,4.42-6.52,10.63-11.8,17.58-15.47Z"/><path class="c" d="M201.25,34.24l1.64,.53c-.67-.21-1.34-.42-2.01-.64l-2.06-.55c-1.38-.37-2.77-.75-4.17-1.13-1.41-.32-2.83-.64-4.25-.96-1.42-.33-2.84-.65-4.27-.88,6.17,1.35,12.83,3.07,18.97,5.2,1.56,.47,3.06,1.03,4.53,1.57,1.46,.55,2.93,1.01,4.3,1.56,2.73,1.12,5.35,2.02,7.59,2.98,.37,.45,3.32,1.96,6.03,3.7,1.36,.85,2.75,1.6,3.73,2.28,.99,.66,1.67,1.09,1.74,1.11,1.08,.66,2.17,1.31,3.25,2.01,1.05,.74,2.1,1.49,3.15,2.23-.72-.52-1.45-1.04-2.17-1.55l-1.08-.77c-.37-.24-.75-.47-1.12-.7,.37,.23,.75,.46,1.12,.7l1.08,.77c.72,.52,1.44,1.03,2.17,1.55,.82,.61,1.7,1.16,2.49,1.83,.8,.66,1.6,1.32,2.41,1.98,.8,.67,1.63,1.32,2.42,2.02,.79,.7,1.56,1.42,2.33,2.16,3.05,2.96,5.91,6.22,8.22,9.9,2.32,3.67,4.06,7.76,4.82,12.11,.78,4.31,.54,8.9-1.02,12.99-.44,1.11-1.09,2.44-2.09,3.68-1,1.24-2.38,2.38-4.1,2.82-1.71,.47-3.82,.15-6.11-.26-2.3-.4-4.67-.81-7.05-1.22-9.49-1.65-19.01-3.31-24.23-4.22-1.51-.27-3.02-.53-4.54-.8q2.53,.46,5.05,.93c-6.39-.97-12.18-1.85-17.78-2.69,.97,.23,1.14,.31,3.46,.79l-2.84-.52c-2.63-.27-8.61-1.29-11.44-1.71,.62,.01-1.59-.39-3.55-.74l.76,.19c-7.42-1.3-16.03-2.8-22.66-3.96-.92-.17-1.61-.32-2.02-.43l-6.36-1.08c.51-.03-5.25-1.07-2.2-.59-4.77-.74-9.58-1.71-14.13-2.43-8.09-1.52-16.42-3.15-24.82-4.79-4.2-.84-8.41-1.69-12.62-2.54-2.1-.43-4.2-.86-6.3-1.28-2.05-.39-4.06-1.1-5.97-1.93l.35,.21c-1.34-.59-2.65-1.18-3.43-2.26-.81-1.08-1.06-2.52-1.07-3.95,.05-2.91,1-5.96,2.49-9.22,.98-2.38,2.4-5.18,3.92-7.47,1.5-2.3,3.01-4.13,3.62-4.97,2.03-2.22,3.59-3.63,5.19-4.98,1.61-1.34,3.26-2.61,5.77-4.17-.69,.34,.52-.44,1.62-1.08,1.1-.65,2.03-1.15,.74-.53-1.78,.85-2.67,1.4-3.49,1.91-.82,.51-1.56,1-2.97,1.92l.11-.02c-3.2,2.26-6.15,4.89-8.73,7.86-1.29,1.49-2.48,3.05-3.58,4.72-1.07,1.67-2.03,3.38-2.89,5.16-.86,1.78-1.64,3.6-2.25,5.52-.59,1.92-1.07,3.93-1.01,6.1,.04,1.08,.23,2.23,.76,3.31,.49,1.07,1.43,2.07,2.4,2.63,1.86,1.11,3.7,1.8,5.64,2.44,.64,.19,1.33,.38,2.01,.52,.64,.13,1.29,.27,1.94,.4,1.3,.27,2.61,.55,3.92,.82,2.63,.55,5.3,1.11,7.98,1.67,5.36,1.13,10.78,2.22,16.09,3.27,11.44,2.22,23.84,4.45,33.69,6.13,2.35,.39,4.02,.8,6.02,1.22,9.05,1.57,20.57,3.61,30.79,5.28l-.5-.09c5.43,.91,9.47,1.72,14.78,2.59-.02-.04,.8,.1,1.2,.14,.89,.33,31.27,4.88,33.12,5.29,.55,.09,1.12,.18,1.71,.27,1.4,.25,2.8,.49,4.21,.74,1.43,.24,2.93,.43,4.49,.28,1.56-.15,3.11-.75,4.37-1.66,1.28-.9,2.29-2.07,3.12-3.31,1.66-2.5,2.47-5.33,2.91-8.04,.41-2.74,.38-5.44,0-7.94-.37-2.17-1.06-4.54-1.76-6.23-.53-1.69-.8-1.96-1.68-3.89-1.04-2.5-2.17-4.33-2.81-5.24-.64-.92-.74-.96,0,.23-2.49-3.66-5.46-6.96-8.27-9.65-1.31-1.25-2.67-2.41-4.08-3.55-1.2-.97-1.82-1.57-2.36-2.13-.75-.64-1.29-1.04-1.7-1.34-.4-.31-.68-.53-.97-.75-.57-.45-1.15-.91-2.8-2.16-.34-.39-2.57-1.74-4.78-3.13-.56-.34-1.11-.7-1.65-1.01-.55-.3-1.07-.58-1.54-.83-.93-.51-1.64-.89-1.89-1.05l.6,.32c-1.03-.6-1.97-1.16-2.88-1.69-.92-.49-1.79-.96-2.67-1.43-.88-.47-1.75-.93-2.66-1.42-.91-.48-1.91-.89-2.98-1.36-1.5-.63-2.98-1.37-4.53-1.93-1.55-.58-3.11-1.17-4.68-1.76-1.58-.57-3.19-1.03-4.79-1.55-.8-.25-1.6-.52-2.4-.75l-2.43-.64c-6.44-1.79-12.9-2.97-18.84-3.85-.14,.1,2.63,.32,2.74,.54-7-1.1-14.11-1.92-21.27-2.21-1.29-.05-2.87-.14-3.46-.19-2.29-.08-1.35,.04-3.03,0l-.23-.11c-2.45,.14-3.58-.05-5.89,.04-.12,.04-.96,.07-1.78,.11-.05-.12-2.52,.13-2.41,.02h-.02c-.49,.04-.85,.07-1.45,.08-.47,.06-2.89,.32-5.31,.66-2.42,.35-4.83,.79-5.29,.9l-.44,.05c-1.3,.21-1.84,.39-1.08,.29-.54,.08-1.07,.18-1.6,.28l.18-.04-1.59,.29c-.3,.04-.64,.07-.2-.08-.89,.24-1.9,.47-2.79,.66,2.51-.52,5.64-1,8.29-1.26-1.07,.2-3.03,.45-4.2,.69-1.41,.16-4.27,.73-6.49,1.26-.48,.14-.78,.36-1.88,.61-.56,.06-1.22,.39-2.14,.6,1.02-.38,2.04-.68,3.1-.96-.1-.02-.76,.13-1.48,.34-.72,.22-1.52,.47-1.94,.59-.38,.16-2.4,.81-3.63,1.35,.5-.31-1.03,.33-1.78,.6-.83,.36-1.34,.63-.99,.52-.11,.11,.71-.25,1.43-.54,.73-.27,1.34-.5,.78-.21-.33,.05-1.94,.78-2.8,1.18,.02,.06,.61-.22,.07,.08-.97,.42-1.92,1.02-2.5,1.22,.17-.1,.56-.29,.84-.43-.61,.32,.99-.65,2.62-1.46,1.62-.83,3.25-1.53,2.42-1.19,.23-.05-1.58,.73-3.27,1.61-1.69,.88-3.29,1.81-2.88,1.59,.76-.35-.48,.37,.3,0l.83-.5c1.07-.51,1.55-.62,1.2-.4-.89,.43,.32-.29,1.61-.95,1.28-.68,2.64-1.28,1.86-.94l.65-.23c-.66,.3-2.42,1.06-3.12,1.32,.02,.07-.87,.45-1.57,.85l-.26,.12c-.73,.4-1.77,.91-1.25,.74,4.33-2.18-2.56,1.97,1.64-.09-1.8,.77,.51-.46,2.39-1.28,.2-.05,1.06-.34,2.45-.85,1.18-.48,.69-.31,.9-.44,.68-.21,1.96-.64,1.82-.52,.92-.4,1.53-.44,2.66-.83,1-.32-.08-.02,.63-.26,1.52-.44,3.67-.96,4.9-1.21,.49-.04,1.96-.24,.93,.09-2.33,.49,.85-.36-1.57,.19,1.07-.1-2.13,.56-2.53,.79,.79-.12,2.33-.54,3.64-.82l-.27,.04c1.14-.28,3.46-.77,4.73-.89-.29,.1,.27,.05-.58,.2l1.6-.25c.2-.05,.41-.1-.06-.04,.75-.17,1.51-.25,2.1-.3,.09,0,2.22-.34,4.31-.61,2.09-.28,4.13-.48,4-.45,1.17-.09,1.46-.01,2.59-.14,.01,0-.15,0-.44,.02l-1.23,.09c-1.02,.09-2.37,.2-3.67,.36-2.61,.28-5.02,.67-4.25,.56,.5-.03,3.78-.51,7.05-.79,3.27-.3,6.52-.47,6.89-.41,.87-.02,1.91-.06,1.71-.11,1.47,0-.44,.12,.61,.15,.02,0-.09-.03,.25-.03l1,.05c.57-.03,1.2-.06,1.87-.07l2.08,.03c1.42,.03,2.85,.05,4.04,0-.69,.05-1.48,.15-3.02,.18l-.27-.03c-.22,.01-1.48,.01-1.44,.07,1.46,.06,2.7,.07,4.23,.04l.83,.06s-.03-.01-.02-.02c.5,.05,.45,.06,.26,.07h-.11c.45,.11,1.88,.16,3.52,.21,1.65,.05,3.51,.09,4.83,.28,.78,.05,.08-.02,1.05,.03,1.35,.16,2.49,.29,3.64,.42,1.15,.17,2.32,.34,3.72,.54,.91,.05,.98,.03-.09-.19l2.12,.3c-.98-.03,0,.14,.97,.32,.96,.2,1.88,.42,.81,.32,.61,.15,1.87,.38,3.06,.55,.13-.03,.33-.07,1.81,.19,2.06,.42,1.56,.36,3.25,.77,.39,.15-.24,.04-.18,.1,2.63,.5,2.26,.62,4.72,1.17,1.53,.39,4.55,1.18,4.65,1.1,2.06,.54,2.02,.67,1.8,.68Z"/></g><g><path class="d" d="M105.66,62.43h-.03c.06-.05,.15-.08,.24-.1-.32-.11-.64-.18-.4,.39-.2-.24-.44-.25-.39-.19,0,.07,0,.13,0,.19,0-.03,.01-.07,.02-.11,0,.04,0,.08-.02,.11-.05,.34-.32,.42-.61,.49-.16,.04-.53,.24-.71,.26l-.07,.02h.09c-.02,.12-.04,.24-.08,.34,.04,.03,.07,.06,.13,.09h-.05c.05,.13-.03,.18-.02,.25-.03-.06-.07-.05-.1-.04l.04,.03c-.11,.04-.17,.17-.26,.22-.01,0-.03,0-.05-.02l-.04,.1c-.05-.08-.11-.02-.11-.09,.01,.13-.09,.12-.07,.25-.18,.16-.36,.35-.44,.66l.02,.02c0,.14,.02,.3-.08,.35,0,.12-.08,.2-.07,.26-.08,.04-.1,.07-.2,.08,.03,0-.09,.02-.05,0,.08,0,.08,0,.15,.01h0c.31,.03,.71,.17,1.08,.28,.06-.17,.24-.21,.35-.33,.11-.13,.22-.29,.29-.44,.01-.04,.08,0,.13,.02,.08-.12,.24-.19,.33-.33h0c.05-.06,.16-.02,.21-.08-.02-.02,0-.03-.01-.05,.09,.09,.21-.49,.28-.45v-.03c.18-.06,.46,.04,.56-.07-.01-.07-.02-.13-.04-.2,.05,.03,0-.06,.03-.07,.22,.16,.19,.04,.1,0,.03-.07,.09-.09,.13-.13l.03-.1s.04,0,.08,.03c.02-.06,.05,0,.11-.02,.07,.06,.03-.2,.06-.19v.02c.06-.03,.21,.08,.26,.05,.19-.06,.31-.24,.47-.32-.05-.08-.02,.04-.09-.06,.09-.05,.24-.02,.35-.06,.03,0,.06,0,.07,.01,.02-.03-.03-.07-.02-.1l.05,.06c-.04-.11,.04-.03,.02-.11-.02-.02-.02-.05-.02-.07,.04,.05,0-.07,.03-.02h0s0-.03,0-.04c-.02-.05-.11-.39-.11-.41h0s-.02-.07-.02-.06v-.03h0v-.03s.02,0,.03,.02c0-.03,0-.06,0-.07-.01,.04-.04,.08-.08,.1,0-.03,.02-.05,.02-.08,.02,0,.04-.05,.05-.09,0-.01-.01-.04,0-.05,.01,0,0-.03,.01-.04,0,.03,0,.05,0,.07,.01,.01,.01-.05,.02-.06v-.09s0-.02,.01-.03c0-.02,0-.04,0-.03,0-.01,0,.07-.01,.04,0,0,0-.04,0-.06,0,0,0,.01,0,0,0-.01,0,.01,0-.05,0,.02,0,.02,0,.02,0-.04,0,.18,0,.14-.01,0,0-.19,0-.17,0,.02,0-.01,0,0v.02s-.01,.03-.01,.02c0-.04,0,.13,0,.09h0s0-.05,0-.06c0,0,0-.02,0-.04h0s0-.04,0-.03c-.03,.08,.02-.05-.02,.02,.02-.02,0,.01-.02,.04,0,0-.01,0-.03,.02-.01,.02,0,.01,0,.02,0,0-.02,.02-.03,0,0,.02-.02,.01-.03,.03,0,.02,0,0,0,.02-.02,.02-.04,.04-.06,.05-.01,0-.05-.02-.06-.05,.03-.02,.02,.04,.04,.02-.04-.02,.02-.03,0-.05-.02,0-.04,0-.06,.02h0s-.04,.04-.07,.03c0-.02-.02-.02-.01-.03h-.03s0,.02,.01,.02c0,.02-.02,.02-.03,0-.02-.02-.05,.14-.06,.13-.01,.01-.04-.02-.04,.01,0,.01,.09-.15,.08-.13-.04-.03-.09,.2-.13,.17,0,0-.02,.02,0,.05-.03,0-.04-.06-.07-.08,0,0,.01,.01,0,.02l-.04-.03c0,.06-.09,.02-.07,.11-.02-.04-.06-.12-.06-.16l.02,.02s0-.03-.02-.06c-.04-.01-.06,0-.05,.04l-.03-.02h.01s-.03,0-.03-.02h0c-.09-.11-.01,.12-.08,.08,0,.02,.01,.02,.01,.05-.06-.02-.11-.03-.16-.03,.02,.05,.03,.07,.08,.1h-.04c-.06-.13-.13-.07-.19-.2-.03-.02-.05-.01-.05,.01,.02,.03,.05,.08,.04,.09-.05-.02-.04-.01-.09-.03-.03-.03-.04-.05-.06-.08,0,.07-.09-.06-.11-.03-.01,.03-.04,.06,0,.12-.03,.02-.06-.03-.1-.09Z"/><path class="d" d="M122.96,41.92h-.03c.06-.05,.15-.08,.24-.1-.33-.11-.66-.17-.41,.39-.21-.24-.45-.25-.4-.18,0,.07,0,.13,0,.18,0-.03,.01-.07,.02-.11,0,.04,0,.08-.02,.11-.05,.34-.33,.42-.63,.49-.16,.04-.54,.24-.72,.26l-.07,.02h.1c-.03,.13-.05,.25-.08,.34,.04,.03,.07,.06,.13,.09h-.05c.05,.13-.03,.18-.03,.25-.03-.06-.07-.05-.1-.04l.04,.03c-.11,.04-.18,.17-.27,.22-.01,0-.03,0-.05-.02l-.05,.1c-.05-.08-.11-.02-.11-.09,0,.13-.09,.12-.08,.26-.18,.17-.37,.36-.47,.67l.02,.02c-.01,.14,0,.31-.09,.36-.01,.12-.09,.21-.08,.27-.08,.04-.11,.07-.2,.09,.03,0-.09,.02-.05,0,.08,0,.08,0,.15,.02h0c.31,.04,.69,.18,1.06,.29,.07-.18,.25-.22,.37-.34,.12-.14,.24-.3,.32-.46,.01-.04,.08,0,.13,.02,.09-.12,.25-.2,.35-.34h0c.06-.06,.17-.02,.22-.08-.02-.02,0-.03-.01-.05,.09,.09,.23-.5,.3-.46v-.03c.19-.06,.48,.03,.58-.08-.01-.07-.01-.13-.03-.2,.05,.03,0-.06,.03-.07,.22,.15,.19,.04,.1,0,.03-.07,.1-.09,.14-.13l.03-.1s.04,0,.09,.03c.03-.06,.05,0,.12-.02,.07,.06,.04-.21,.07-.2v.02c.07-.03,.21,.08,.27,.04,.2-.07,.33-.25,.5-.33-.06-.07-.02,.04-.1-.05,.1-.05,.25-.03,.36-.07,.03,0,.06,0,.08,0,.02-.03-.03-.07-.02-.1l.05,.05c-.04-.11,.05-.03,.02-.11-.02-.02-.02-.05-.02-.07,.04,.05,0-.07,.03-.02h0s0-.03,0-.04c-.02-.05-.12-.38-.12-.4h0s-.02-.07-.02-.06v-.03h0v-.03s.02,0,.03,.02c0-.03,0-.06,0-.07-.02,.04-.04,.08-.08,.1,0-.03,.02-.05,.02-.08,.02,0,.04-.05,.05-.09,0-.01-.02-.04,0-.05,.01,0,0-.03,.01-.04,0,.03,0,.05,0,.07,.01,.01,.01-.05,.02-.06v-.09s0-.02,.01-.03c0-.02,0-.04,0-.03,0-.01,0,.07-.01,.04,0,0,0-.04,0-.06,0,0,0,.01,0,0,0-.01,0,.01,0-.05,0,.02,0,.02,0,.02,0-.04,0,.17,0,.14-.01,0,0-.19,0-.16,0,.02,0-.01,0,0v.02s-.01,.03-.01,.02c0-.04,0,.12,0,.09h0s0-.05,0-.06c0,0,0-.02,0-.04h0s0-.04,0-.03c-.03,.08,.02-.05-.02,.02,.02-.02,0,.01-.02,.04,0,0-.01,0-.03,.02-.01,.02,0,.01,0,.02,0,0-.02,.02-.03,0,0,.02-.02,.01-.03,.03,0,.02,0,0,0,.02-.02,.02-.04,.04-.06,.05-.02,0-.06-.02-.06-.05,.03-.02,.02,.04,.04,.02-.04-.02,.02-.03,0-.05-.02,0-.04,0-.06,.02h0s-.04,.04-.07,.03c0-.02-.02-.02-.01-.03h-.03s0,.02,.01,.02c0,.02-.02,.02-.03,0-.02-.02-.06,.14-.06,.13-.01,.01-.05-.02-.04,.01,0,.01,.09-.16,.08-.13-.04-.03-.1,.2-.14,.17,0,0-.02,.02,0,.05-.03,0-.04-.06-.07-.08,0,0,.01,.01,0,.02l-.04-.03c0,.06-.09,.02-.07,.11-.02-.04-.06-.11-.06-.15l.02,.02s0-.03-.02-.06c-.04-.01-.06,0-.05,.04l-.03-.02h.01s-.03,0-.03-.02h0c-.1-.11-.01,.12-.09,.08,0,.02,.01,.02,.02,.04-.06-.01-.11-.03-.16-.02,.02,.05,.04,.07,.08,.1h-.04c-.07-.12-.13-.07-.2-.2-.03-.02-.05-.01-.05,.02,.02,.03,.06,.08,.04,.09-.06-.02-.04,0-.09-.03-.03-.03-.04-.05-.06-.08,0,.07-.09-.06-.12-.03-.01,.03-.04,.06,0,.12-.03,.02-.07-.03-.1-.09Z"/><path class="d" d="M137.8,55.01v.03c-.05-.07-.08-.17-.11-.27-.11,.34-.17,.68,.41,.46-.25,.2-.25,.45-.19,.41,.07,0,.13,0,.19,.02-.04-.01-.07-.02-.11-.03,.04,0,.08,.02,.11,.03,.36,.08,.44,.38,.51,.7,.05,.17,.25,.59,.28,.78l.02,.08v-.1c.13,.04,.25,.07,.35,.11,.03-.04,.06-.07,.09-.13v.06c.14-.04,.19,.04,.26,.05-.06,.03-.05,.07-.04,.1l.03-.04c.05,.12,.18,.2,.23,.3,0,.01,0,.04-.02,.06l.1,.06c-.08,.05-.02,.12-.09,.11,.14,0,.13,.11,.26,.1,.17,.21,.37,.42,.7,.54l.02-.02c.14,.02,.32,0,.36,.12,.12,.02,.21,.11,.28,.1,.04,.09,.07,.12,.09,.22,0-.03,.02,.1,0,.05,0-.08,0-.08,.01-.16h0c.04-.32,.18-.72,.29-1.11-.19-.08-.22-.28-.35-.41-.14-.14-.31-.27-.47-.37-.05-.02,0-.09,.02-.14-.12-.1-.21-.28-.35-.39h0c-.07-.06-.02-.17-.09-.23-.02,.02-.03,0-.05,0,.09-.09-.52-.28-.48-.35h-.03c-.06-.2,.03-.5-.08-.62-.07,0-.13,0-.21,.02,.03-.05-.06,0-.07-.03,.16-.22,.04-.2,0-.11-.07-.04-.09-.11-.14-.16l-.1-.04s0-.04,.03-.09c-.07-.03,0-.05-.02-.12,.06-.07-.21-.06-.2-.09h.02c-.03-.07,.08-.22,.04-.28-.07-.21-.26-.37-.35-.55-.08,.05,.04,.02-.06,.1-.06-.1-.03-.27-.07-.39,0-.03,0-.06,0-.08-.03-.02-.07,.02-.1,.01l.06-.05c-.11,.03-.03-.05-.12-.03-.03,.02-.05,.02-.07,.02,.05-.04-.07,0-.02-.03h0s-.03,0-.03,0c-.05,.02-.39,.09-.42,.09h0s-.07,0-.06,.01h-.03l-.03-.02s0-.01,.02-.02c-.03,0-.06,0-.08,0,.05,.02,.09,.05,.1,.1-.03,0-.05-.02-.08-.03,0-.02-.05-.04-.12-.08-.02,0-.05,.01-.08,0-.01-.02-.05-.01-.09-.02,.06,0,.1,.01,.14,.02,.01-.02-.1-.04-.15-.04-.02,0-.15,.01-.2,.12,0-.04-.03,.06-.01,.09,.01,.03,.03,.05,.02,.04,0,.02-.03-.14-.01-.08-.01,.02,0,.08,.03,.1,0,0-.01-.02,0,0,.02,.03,.07,.03,.07,.01,0,0-.01,.01-.02,.01,.03,0-.05,.01-.09-.05-.06-.05,.01-.19-.02-.13,0,0-.02,.12,.04,.16,.06,.07,.11,0,.09,.01,0,.01,0,0,0,0,0,0-.01,.01-.02,.01-.04,0-.04-.03-.03-.02,.02,.02-.02,0-.04-.04-.03-.04,0-.13-.02-.08,0-.01,0-.02,.02-.03-.03,.05,0,.12,0,.14,0,0,.02,.03,.05,.04h0s.04-.02,.04,0c-.11,.02,.07,0-.03,0,.04,.01-.03,0-.03-.05,0,0,0-.02,.02-.05,.02-.02,.01-.02,.02-.03,.02,0,.05,0,.04,0,.03-.01,.03,.01,.05,.02,.02,0,0,0,.02,0,.03,.02,.06,.05,.07,.07,0,.02-.02,.06-.05,.06-.02-.04,.05-.02,.02-.04-.02,.04-.03-.02-.05-.01,0,.02,0,.04,.02,.06h0s.04,.03,.03,.07c-.02,0-.02,.02-.03,.01v.03s.02,0,.02-.01c.02,0,.02,.02,0,.04-.02,.02,.14,.07,.14,.07,.01,.02-.02,.05,.01,.04,.01,0-.16-.11-.14-.1-.03,.04,.21,.12,.17,.16,0,.01,.02,.02,.05,0,0,.03-.06,.03-.08,.07,0,0,.01-.01,.02,0l-.03,.04c.07,0,.02,.1,.11,.08-.04,.02-.12,.06-.16,.05l.02-.02s-.03,0-.06,.02c-.01,.04,0,.06,.04,.06l-.02,.03h.01s-.02,.02-.04,.02h0c-.1,.1,.13,.03,.1,.1,.02,0,.02-.01,.05-.01-.01,.07-.03,.11-.02,.17,.05-.02,.07-.03,.11-.08v.04c-.13,.06-.07,.14-.2,.19-.02,.03-.01,.05,.02,.05,.03-.02,.08-.05,.09-.03-.02,.06,0,.04-.03,.09-.03,.03-.06,.04-.09,.06,.07,0-.06,.09-.03,.12,.03,.01,.06,.05,.13,0,.02,.03-.03,.07-.09,.1Z"/><path class="d" d="M132.26,68.45h-.03c.06-.05,.15-.08,.23-.11-.32-.1-.65-.16-.39,.4-.21-.24-.44-.24-.4-.18,0,.07,0,.13,0,.18,0-.03,.01-.07,.01-.11,0,.04,0,.08-.01,.11-.03,.34-.31,.42-.6,.5-.16,.05-.52,.25-.7,.27l-.07,.02h.09c-.02,.12-.04,.24-.07,.34,.04,.03,.07,.06,.14,.09h-.05c.05,.13-.02,.18-.02,.25-.04-.06-.07-.05-.1-.04l.04,.03c-.1,.05-.17,.17-.25,.22-.01,0-.03,0-.05-.02l-.04,.1c-.05-.08-.11-.01-.11-.09,.01,.13-.08,.12-.07,.25-.17,.17-.35,.36-.42,.67l.02,.02c0,.14,.03,.3-.07,.35,0,.12-.07,.2-.06,.26-.08,.04-.11,.08-.15,.06,0,0,0,0,.02,0,.01-.01-.02-.02,0,0-.02,0-.02-.01-.02,0,.03,0,0-.02,.07,.02h0c.29,.07,.7,.17,1.06,.28,.05-.18,.23-.21,.34-.34,.11-.13,.22-.3,.28-.45,.01-.04,.08,0,.13,.02,.08-.12,.23-.2,.32-.33h0c.05-.06,.16-.02,.21-.08-.02-.02,0-.03-.01-.04,.09,.09,.2-.5,.26-.46v-.03c.18-.06,.46,.03,.56-.08-.01-.07-.02-.13-.04-.2,.05,.03,0-.06,.02-.07,.22,.15,.19,.04,.1,0,.03-.07,.09-.09,.13-.13l.02-.1s.04,0,.08,.03c.02-.06,.05,0,.11-.02,.07,.06,.03-.2,.06-.19v.02c.06-.03,.21,.07,.27,.04,.19-.07,.31-.25,.46-.33-.06-.07-.02,.04-.1-.05,.09-.05,.24-.03,.35-.06,.03,0,.06,0,.07,.01,.02-.03-.03-.07-.02-.1l.05,.05c-.04-.11,.04-.03,.02-.11-.02-.02-.02-.05-.02-.07,.04,.05,0-.07,.03-.02h0s0-.03,0-.04c-.02-.05-.12-.38-.13-.4h0s-.02-.07-.02-.06v-.03h0v-.03s.02,0,.03,.02c0-.03,0-.06,0-.07-.01,.04-.04,.08-.08,.1,0-.03,.02-.05,.02-.08,.02,0,.04-.05,.05-.09,0-.01-.02-.04,0-.05,.01,0,0-.03,.01-.04,0,.03,0,.05,0,.07,.01,.01,.01-.05,.02-.06v-.09s0-.02,0-.03c0-.02,0-.04,0-.03,0-.01,0,.07-.01,.04,0,0,0-.04,0-.06,0,0,0,.01,0,0,0-.01,0,.01,0-.05,0,.02,0,.02,0,.02,0-.04,0,.18,0,.14-.01,0,0-.19,0-.16,0,.02,0-.01,0,0v.02s-.01,.03-.01,.02c0-.04,0,.13,0,.09h0s0-.05,0-.06c0,0,0-.02,0-.04h0s0-.04,0-.03c-.03,.08,.02-.05-.02,.02,.02-.02,0,.01-.02,.04,0,0-.01,0-.03,.02-.01,.02,0,.01,0,.02,0,0-.02,.02-.03,0,0,.02-.02,.01-.03,.03,0,.02,0,0,0,.02-.02,.02-.04,.04-.05,.05-.01,0-.05-.02-.06-.05,.03-.02,.02,.04,.04,.02-.04-.02,.02-.03,0-.05-.02,0-.04,0-.06,.02h0s-.03,.04-.07,.03c0-.02-.02-.02-.01-.03h-.03s0,.02,.01,.02c0,.02-.02,.02-.03,0-.02-.02-.05,.14-.05,.13-.01,.01-.04-.02-.04,.01,0,.01,.08-.16,.07-.13-.04-.03-.09,.2-.13,.17,0,0-.02,.02,0,.05-.03,0-.04-.06-.07-.08,0,0,.01,.01,0,.02l-.04-.03c0,.06-.09,.02-.06,.11-.02-.04-.06-.11-.07-.15l.02,.02s0-.03-.02-.06c-.04-.01-.06,0-.05,.04l-.03-.02h.01s-.03,0-.03-.02h0c-.1-.11,0,.12-.08,.09,0,.02,.01,.02,.02,.05-.06-.01-.11-.03-.16-.02,.02,.05,.04,.07,.08,.1h-.04c-.07-.12-.13-.06-.2-.2-.03-.02-.05-.01-.05,.02,.02,.03,.06,.08,.04,.09-.05-.02-.04,0-.09-.03-.03-.03-.04-.05-.06-.08,0,.07-.09-.06-.11-.03,0,.03-.04,.06,0,.12-.03,.02-.06-.03-.1-.09Z"/><path class="d" d="M158.54,39.8h-.03c.06-.05,.15-.07,.23-.09-.31-.12-.63-.19-.39,.37-.2-.25-.43-.27-.38-.2,0,.07,0,.13,0,.18,0-.03,.01-.07,.02-.11,0,.04,0,.07-.02,.11-.05,.34-.32,.4-.61,.45-.16,.03-.52,.2-.7,.21h-.07l.09,.02c-.03,.12-.05,.24-.09,.33,.04,.03,.06,.07,.13,.1h-.05c.04,.13-.03,.17-.04,.24-.03-.06-.07-.06-.09-.05l.03,.03c-.11,.04-.18,.15-.26,.2-.01,0-.03,0-.05-.03l-.05,.1c-.04-.08-.11-.03-.1-.1,0,.13-.09,.11-.09,.24-.19,.15-.37,.32-.48,.61l.02,.02c-.02,.13,0,.3-.1,.34-.02,.12-.09,.19-.09,.25l-.1,.04s-.02-.02,0-.02c0,0,0,.02,0,.03,0-.01,0,0,0,.01,.02,0,0-.03,.01,0-.06,0,.05-.08-.03-.03h0s0,0,0,0h0l.05,.09h.01l.06,.02,.12,.04,.26,.1c.17,.07,.36,.16,.54,.22,.07-.17,.26-.19,.38-.3,.13-.12,.25-.27,.33-.42,.01-.04,.08,.01,.13,.03,.09-.11,.25-.18,.35-.31h0c.06-.06,.16,0,.22-.07-.02-.02,0-.03,0-.05,.08,.1,.24-.48,.3-.44v-.03c.18-.05,.46,.06,.57-.04,0-.07-.01-.13-.03-.2,.05,.03,0-.06,.03-.06,.21,.16,.19,.05,.1,0,.03-.06,.1-.08,.14-.12l.03-.09s.04,0,.08,.04c.03-.06,.05,0,.11-.02,.06,.06,.04-.2,.07-.19v.02c.07-.03,.2,.08,.26,.05,.19-.06,.32-.24,.48-.32-.05-.08-.02,.04-.09-.06,.09-.05,.24-.02,.35-.05,.03,0,.06,0,.07,.01,.02-.03-.03-.07-.02-.1l.05,.06c-.04-.11,.05-.03,.02-.11-.02-.02-.02-.05-.02-.07,.04,.05,0-.07,.03-.02h0s0-.03,0-.04c-.02-.05-.11-.38-.12-.41h0s-.02-.07-.02-.06v-.03h0v-.03s.02,0,.03,.02c0-.03,0-.06,0-.07-.01,.04-.04,.08-.08,.1,0-.03,.02-.05,.02-.08,.02,0,.04-.05,.05-.09,0-.01-.02-.04,0-.05,.01,0,0-.03,.01-.04,0,.03,0,.05,0,.07,.01,.01,.01-.05,.02-.06v-.09s0-.02,0-.03c0-.02,0-.04,0-.03,0-.01,0,.07-.01,.04,0,0,0-.04,0-.06,0,0,0,.01,0,0,0-.01,0,.01,0-.05,0,.02,0,.02,0,.02,0-.04,0,.18,0,.14-.01,0,0-.19,0-.16,0,.02,0-.01,0,0v.02s-.01,.03-.01,.02c0-.04,0,.13,0,.09h0s0-.05,0-.06c0,0,0-.02,0-.04h0s0-.04,0-.03c-.03,.08,.02-.05-.02,.02,.02-.02,0,.01-.02,.04,0,0-.01,0-.03,.02-.01,.02,0,.01,0,.02,0,0-.02,.02-.03,0,0,.02-.02,.01-.03,.03,0,.02,0,0,0,.02-.02,.02-.04,.04-.05,.05-.01,0-.05-.02-.06-.05,.03-.02,.02,.04,.04,.02-.04-.02,.02-.03,0-.05-.02,0-.04,0-.06,.02h0s-.03,.04-.07,.03c0-.02-.02-.02-.01-.03h-.02s0,.02,.01,.02c0,.02-.02,.01-.03,0-.02-.02-.05,.14-.05,.13-.01,.01-.04-.02-.04,0,0,.01,.09-.15,.08-.13-.04-.03-.09,.2-.13,.16,0,0-.02,.02,0,.05-.03,0-.04-.06-.07-.08,0,0,.01,.01,0,.02l-.04-.03c0,.06-.09,.02-.06,.11-.02-.04-.06-.12-.06-.15l.02,.02s0-.03-.02-.06c-.04-.01-.06,0-.05,.04l-.03-.02h.01s-.03,0-.03-.02h0c-.09-.11-.01,.11-.08,.08,0,.02,.01,.02,.02,.05-.06-.02-.11-.03-.16-.03,.02,.05,.03,.07,.08,.11h-.04c-.06-.13-.13-.07-.19-.21-.03-.02-.05-.02-.05,.01,.02,.03,.05,.08,.04,.09-.05-.02-.04-.01-.08-.03-.03-.03-.04-.05-.06-.08,0,.07-.09-.06-.11-.03-.01,.02-.04,.06,0,.12-.03,.02-.06-.03-.1-.09Z"/><path class="d" d="M168.43,68.1h-.03c.07-.05,.16-.1,.26-.14-.35-.07-.7-.1-.43,.46-.22-.23-.47-.21-.43-.14,0,.07,0,.14,0,.2,0-.04,.01-.08,.02-.12,0,.04,0,.08-.02,.12-.05,.37-.35,.48-.66,.6-.17,.07-.57,.32-.77,.37l-.08,.03h.1c-.03,.12-.05,.25-.08,.35,.04,.02,.07,.06,.14,.08h-.06c.05,.14-.03,.2-.03,.27-.04-.06-.08-.04-.11-.03l.04,.03c-.11,.06-.19,.2-.28,.27-.01,.01-.04,0-.06-.01l-.05,.11c-.05-.08-.12,0-.12-.08,.01,.14-.1,.14-.08,.28-.19,.2-.39,.42-.47,.76l.02,.02c0,.15,.02,.32-.08,.38,0,.12-.08,.22-.08,.29-.09,.05-.11,.08-.21,.12,.03,0-.1,.03-.05,.01,.08,0,.08,0,.16,0h0c.34,0,.76,.09,1.16,.15,.06-.19,.26-.25,.38-.39,.12-.15,.24-.34,.32-.51,.01-.05,.09,0,.14,0,.09-.13,.26-.24,.35-.39h0c.06-.07,.18-.04,.23-.11-.02-.02,0-.03-.01-.05,.09,.09,.23-.55,.3-.51v-.03c.19-.08,.5-.02,.61-.15-.01-.07-.02-.13-.04-.2,.06,.02,0-.06,.03-.07,.23,.13,.2,.02,.11-.02,.03-.07,.1-.1,.15-.15l.03-.1s.04-.01,.09,.02c.03-.07,.05-.01,.12-.04,.07,.06,.04-.22,.07-.21v.02c.07-.04,.22,.06,.29,.01,.21-.09,.34-.3,.51-.4-.06-.07-.02,.04-.1-.05,.1-.07,.26-.06,.38-.11,.03,0,.06,0,.08,0,.02-.03-.03-.07-.02-.1l.05,.05c-.04-.11,.05-.03,.02-.12-.02-.02-.02-.05-.02-.07,.04,.05,0-.07,.03-.02h0s0-.03,0-.04c-.02-.05-.12-.39-.12-.41h0s-.02-.07-.02-.06v-.03h0v-.03s.02,0,.03,.02c0-.03,0-.06,0-.08-.02,.05-.04,.09-.09,.11,0-.03,.02-.06,.02-.08,.02-.01,.04-.06,.06-.1,0-.01-.02-.04,0-.06,.01,0,0-.03,.01-.04,0,.03,0,.05,0,.08,.01,.01,.01-.05,.02-.07,0-.01,0-.06,0-.09,0,.02,0-.02,0-.04,0-.02,0-.04,0-.03,0-.01,0,.08-.01,.04,0,0,0-.04,0-.07,0,0,0,.01,0,0,0-.02,0,.01,0-.06,0,.02,0,.02,0,.02,0-.04,0,.19,0,.15-.01,0,0-.2,0-.17,0,.02,0-.01,0,0v.02s-.01,.03-.01,.02c0-.05,0,.13,0,.1h0s0-.05,0-.06c0,0,0-.02,0-.04h0s0-.05,0-.04c-.03,.09,.02-.05-.02,.02,.02-.02,0,.01-.02,.04,0,0-.02,.01-.03,.03-.01,.02,0,.01,0,.02,0,0-.03,.02-.03,.01,0,.02-.02,.01-.03,.03,0,.02,0,0,0,.02-.02,.02-.04,.05-.06,.06-.02,0-.06-.02-.06-.05,.03-.02,.02,.04,.05,.01-.04-.02,.02-.03,.01-.06-.02,0-.04,0-.06,.03h0s-.04,.05-.07,.04c0-.02-.02-.02-.01-.03h-.03s0,.02,.01,.02c0,.02-.02,.02-.04,.01-.02-.02-.06,.15-.06,.14-.01,.01-.05-.02-.04,.02,0,.01,.1-.18,.08-.15-.04-.02-.1,.22-.14,.19-.01,.01-.02,.03,0,.05-.03,0-.04-.06-.08-.07,0,0,.01,.01,0,.02l-.05-.03c0,.07-.1,.03-.07,.12-.02-.04-.07-.11-.07-.15h.02s0-.02-.02-.05c-.04-.01-.06,0-.05,.05l-.04-.02h.01s-.03,0-.04-.02h0c-.1-.1-.01,.12-.09,.1,0,.02,.01,.02,.02,.05-.07,0-.12-.02-.17,0,.02,.05,.04,.07,.09,.1h-.04c-.07-.12-.14-.05-.21-.18-.03-.02-.05,0-.05,.02,.02,.03,.06,.07,.04,.09-.06-.01-.04,0-.09-.02-.04-.03-.04-.05-.07-.08,0,.08-.1-.05-.12-.02-.01,.03-.05,.07,0,.13-.03,.02-.07-.03-.11-.08Z"/><path class="d" d="M188.43,44.58h-.03c.06-.05,.15-.09,.24-.13-.34-.08-.68-.11-.39,.44-.22-.23-.47-.21-.42-.15,0,.07,.01,.13,0,.19,0-.04,0-.07,.01-.11,0,.04,0,.08-.01,.11-.03,.36-.31,.47-.61,.57-.16,.06-.54,.3-.72,.35l-.08,.02h.1c-.02,.12-.03,.24-.06,.34,.04,.02,.07,.05,.14,.08h-.05c.06,.13-.02,.19-.01,.26-.04-.06-.07-.04-.1-.03l.04,.03c-.11,.06-.17,.19-.26,.25-.01,0-.04,0-.06-.02l-.04,.11c-.06-.07-.12,0-.12-.08,.02,.13-.09,.13-.06,.27-.18,.19-.36,.4-.43,.73l.02,.02c0,.14,.04,.31-.06,.36,0,.12-.07,.22-.06,.28-.08,.05-.1,.08-.2,.11,.03,0-.09,.03-.05,.01,.08,0,.08,0,.15,0h0c.33,0,.74,.1,1.13,.16,.05-.19,.24-.24,.35-.38,.11-.15,.22-.33,.28-.49,0-.05,.08,0,.14,0,.08-.13,.24-.23,.32-.37h0c.05-.07,.17-.04,.22-.1-.02-.02,0-.03-.01-.04,.1,.08,.2-.53,.27-.49v-.03c.18-.08,.48-.01,.58-.13-.01-.07-.02-.13-.05-.2,.06,.02,0-.06,.02-.07,.23,.14,.2,.02,.1-.02,.03-.07,.09-.1,.13-.15l.02-.1s.04-.01,.09,.02c.02-.07,.05,0,.12-.03,.07,.06,.03-.21,.06-.21v.02c.07-.04,.22,.06,.28,.01,.19-.09,.32-.28,.48-.38-.06-.07-.02,.04-.1-.05,.09-.06,.25-.05,.36-.1,.03,0,.06,0,.08,0,.02-.03-.03-.07-.02-.1l.05,.05c-.04-.11,.05-.03,.02-.12-.02-.02-.02-.05-.02-.07,.04,.05,0-.07,.03-.02h0s0-.03,0-.04c-.03-.05-.14-.38-.14-.41h0s-.02-.07-.03-.06v-.03h0v-.03s.02,0,.03,.02c0-.03-.01-.06,0-.07-.01,.04-.04,.09-.08,.11,0-.03,.02-.05,.02-.08,.02,0,.04-.06,.05-.1,0-.01-.02-.04,0-.05,.01,0,0-.03,.01-.04,0,.03,0,.05,0,.07,.01,.01,.01-.05,.01-.07v-.09s0-.02,0-.04c0-.02,0-.04,0-.03,0-.01,0,.08-.01,.04,0,0,0-.04,0-.06,0,0,0,.01,0,0,0-.02,0,.01,0-.06,0,.02,0,.02,0,.02,0-.04,0,.18,.01,.14-.01,0-.01-.2,0-.17,0,.02,0-.01,0,0v.02s-.01,.03-.01,.02c0-.04,0,.13,0,.1h0s0-.05,0-.06c0,0,0-.02,0-.04h0s0-.05,0-.04c-.03,.08,.02-.05-.02,.02,.02-.02,0,.01-.02,.04,0,0-.01,0-.03,.03-.01,.02,0,.01,0,.02,0,0-.02,.02-.03,.01,0,.02-.02,.01-.03,.03,0,.02,0,0,0,.02-.02,.02-.04,.04-.06,.06-.02,0-.06-.02-.06-.05,.03-.02,.02,.04,.04,.01-.04-.02,.02-.03,0-.05-.02,0-.04,0-.06,.02h0s-.04,.05-.07,.04c0-.02-.02-.02-.02-.03h-.03s0,.02,.01,.02c0,.02-.02,.02-.03,.01-.02-.02-.05,.15-.05,.14-.01,.01-.05-.02-.04,.02,0,.01,.09-.17,.07-.14-.04-.02-.09,.22-.13,.19,0,.01-.02,.03,0,.05-.03,0-.04-.06-.08-.07,0,0,.01,.01,0,.01l-.04-.03c0,.07-.09,.03-.06,.12-.02-.04-.07-.11-.07-.15h.02s0-.02-.02-.05c-.04-.01-.06,0-.05,.04l-.04-.02h.01s-.03,0-.04-.02h0c-.1-.1,0,.12-.08,.1,0,.02,.01,.02,.02,.04-.07,0-.11-.02-.17,0,.03,.05,.04,.07,.09,.1h-.04c-.07-.12-.14-.05-.21-.18-.03-.02-.05,0-.05,.02,.02,.03,.06,.07,.04,.09-.06-.01-.04,0-.09-.02-.04-.03-.04-.05-.07-.08,0,.07-.1-.05-.12-.02,0,.03-.04,.06,.01,.13-.03,.02-.07-.03-.11-.08Z"/><path class="d" d="M191.44,64.8v.03c-.05-.06-.07-.15-.1-.24-.12,.32-.19,.63,.38,.4-.25,.2-.27,.43-.2,.39,.07,0,.13,0,.18,0-.03,0-.07-.01-.11-.02,.04,0,.07,.01,.11,.02,.34,.06,.4,.34,.45,.63,.03,.16,.19,.54,.19,.71v.07l.02-.09c.12,.03,.24,.06,.33,.1,.03-.04,.07-.06,.1-.12v.05c.13-.04,.17,.04,.24,.05-.06,.03-.06,.06-.05,.09l.03-.03c.03,.11,.15,.19,.19,.28,0,.01-.01,.03-.03,.05l.09,.05c-.08,.04-.03,.11-.1,.1,.13,0,.11,.1,.24,.1,.14,.2,.3,.4,.59,.53l.02-.02c.13,.03,.3,.03,.33,.13,.12,.03,.19,.11,.25,.12,.03,.09,.05,.12,.05,.21,0-.03,0,.09,0,.05,.02-.07,.01-.08,.04-.14h0c.09-.3,.29-.67,.44-1.03-.17-.09-.18-.28-.29-.41-.12-.14-.27-.28-.41-.37-.04-.02,.01-.08,.04-.13-.11-.1-.17-.27-.3-.38h0c-.06-.05,0-.16-.06-.22-.02,.01-.03,0-.05,0,.1-.08-.48-.27-.44-.33h-.03c-.05-.19,.06-.48-.04-.59-.07,0-.13,0-.2,.02,.03-.05-.06,0-.07-.03,.17-.21,.05-.19,0-.1-.07-.04-.08-.1-.13-.15l-.1-.03s0-.04,.04-.08c-.06-.03,0-.05-.02-.12,.06-.06-.21-.05-.19-.08h.02c-.03-.07,.08-.21,.05-.27-.06-.2-.24-.33-.33-.5-.08,.05,.04,.02-.06,.1-.05-.09-.03-.25-.06-.36,0-.03,0-.06,.01-.07-.03-.02-.07,.03-.1,.02l.06-.05c-.11,.04-.03-.05-.12-.02-.02,.02-.05,.02-.07,.02,.05-.04-.07,0-.02-.03h0s-.03,0-.03,0c-.05,.02-.38,.11-.41,.11h0s-.07,.01-.06,.02h-.06s0-.02,.02-.03c-.03,0-.06,0-.07,0,.04,.01,.09,.04,.1,.08-.03,0-.05-.02-.08-.02,0-.02-.05-.04-.09-.05-.01,0-.04,.02-.05,0,0-.01-.03,0-.04-.01,.03,0,.05,0,.07,0,.01-.01-.05-.01-.06-.02h-.09s-.02,0-.03,0c-.02,0-.04,0-.03,0-.01,0,.08,0,.04,.01,0,0-.04,0-.06,0,0,0,.01,0,0,0-.01,0,.01,0-.05,0,.02,0,.02,0,.02,0-.04,0,.18,0,.14,0,0,.01-.19,0-.17,0,.02,0-.01,0,0,0h.02s.03,.01,.02,.01c-.04,0,.13,0,.09,0h.01s-.06,0-.07,0c0,0-.02,0-.04,0h0s-.04,0-.03,0c.08,.03-.05-.02,.02,.02-.02-.02,.01,0,.04,.02,0,0,0,.01,.02,.03,.02,.01,.01,0,.02,0,0,0,.02,.02,0,.03,.02,0,.01,.02,.03,.03,.02,0,0,0,.02,0,.02,.02,.04,.04,.05,.06,0,.02-.02,.05-.05,.06-.02-.03,.04-.02,.02-.04-.02,.04-.03-.02-.05,0,0,.02,0,.04,.02,.06h0s.04,.03,.03,.06c-.02,0-.02,.02-.03,.01v.03s.02,0,.02-.01c.02,0,.02,.02,0,.03-.02,.02,.14,.05,.13,.06,.01,.01-.02,.04,.01,.04,.01,0-.16-.09-.13-.08-.03,.04,.2,.09,.17,.13,0,0,.02,.02,.05,0,0,.03-.06,.04-.08,.07,0,0,.01-.01,.02,0l-.03,.04c.06,0,.02,.09,.11,.07-.04,.02-.12,.06-.16,.06l.02-.02s-.03,0-.06,.02c-.01,.04,0,.06,.04,.05l-.02,.03h.01s-.02,.01-.04,.02h0c-.1,.1,.12,.02,.09,.09,.02,0,.02-.01,.05-.01-.02,.06-.03,.11-.03,.16,.05-.02,.07-.03,.1-.08v.04c-.13,.06-.07,.13-.2,.19-.02,.03-.02,.05,.01,.05,.03-.02,.08-.05,.09-.03-.02,.05-.01,.04-.03,.09-.03,.03-.05,.04-.08,.06,.07,0-.06,.09-.03,.11,.02,.01,.06,.04,.12,0,.02,.03-.03,.06-.09,.1Z"/><path class="d" d="M216.68,80.13v.03c-.06-.09-.1-.2-.14-.32-.09,.37-.12,.76,.49,.58-.25,.2-.23,.49-.16,.45,.08,0,.15,.02,.21,.04-.04-.02-.08-.03-.13-.04,.05,.01,.09,.03,.13,.04,.39,.13,.51,.48,.63,.86,.07,.2,.34,.7,.39,.93l.03,.09v-.12c.13,.06,.27,.1,.38,.16,.03-.04,.06-.07,.08-.15v.06c.15-.03,.21,.07,.29,.08-.06,.03-.05,.08-.03,.11l.03-.04c.06,.14,.21,.25,.28,.36,.01,.02,0,.04-.02,.06l.12,.07c-.08,.05,0,.13-.09,.12,.15,.01,.15,.13,.29,.14,.21,.25,.45,.51,.81,.67l.02-.02c.16,.03,.34,.03,.4,.16,.13,.03,.24,.13,.31,.13,.06,.1,.09,.14,.13,.26,0-.02,0,.01,.01,.04,.01,.04,0-.02,0,.02-.01-.09-.01-.09-.01-.18h0c0-.37,.09-.82,.16-1.25-.21-.1-.27-.33-.42-.49-.16-.17-.36-.33-.54-.45-.05-.02,0-.1,0-.16-.14-.12-.25-.33-.41-.47h0c-.08-.07-.04-.19-.12-.27-.02,.02-.03,0-.05,0,.09-.09-.58-.36-.54-.43l-.03-.02c-.09-.22-.02-.55-.15-.69-.07,0-.14,0-.22,0,.02-.06-.07,0-.08-.05,.15-.23,.02-.22-.02-.12-.08-.05-.11-.13-.16-.19l-.11-.05s-.01-.05,.03-.1c-.07-.04,0-.06-.04-.14,.06-.07-.23-.09-.22-.12h.02c-.04-.08,.06-.23,.02-.31-.09-.25-.31-.44-.42-.65-.08,.05,.05,.03-.05,.1-.07-.12-.05-.3-.1-.44,0-.03,0-.07,0-.09-.04-.03-.07,.02-.11,0l.06-.04c-.12,.02-.03-.06-.13-.05-.03,.01-.05,.01-.07,0,.05-.04-.08,0-.02-.04h0s-.03,0-.04,0c-.06,.02-.42,.05-.44,.05h0s-.07,0-.06,0h-.03l-.04-.03s0-.02,.02-.02c-.03,0-.06,0-.08-.01,.05,.03,.1,.07,.12,.12-.04,0-.06-.03-.09-.04,0-.03-.06-.06-.1-.09-.01,0-.04,0-.06,0,0-.01-.03-.01-.04-.02,.03,0,.05,.01,.08,.02,.01-.01-.05-.03-.07-.04-.01,0-.06-.02-.1-.03,.02,0-.02-.01-.04-.02-.02,0-.04,0-.03,0-.01,0,.08,.03,.05,.02,0,0-.05-.02-.07-.03,0,0,.01,0,0,0-.02,0,.01,0-.06-.02,.02,0,.02,0,.02,0-.04,0,.2,.05,.16,.03,0,.01-.21-.04-.18-.04,.02,0-.01,0,0,0h.02s.03,.03,.02,.02c-.05-.02,.14,.04,.1,.02h.01s-.07-.01-.08-.02c0,0-.03,0-.04-.01h0s-.04-.02-.03-.02c.09,.05-.06-.04,.02,.02-.03-.03,.01,0,.04,.04,0,0,.01,.02,.03,.04,.02,.02,.01,0,.02,0,0,.01,.02,.03,.01,.04,.02,0,.01,.03,.03,.04,.02,.01,0,0,.02,0l.06,.08s-.02,.06-.05,.06c-.02-.04,.05-.01,.02-.05-.02,.04-.03-.03-.06-.02,0,.02,0,.05,.02,.07h0s.05,.05,.04,.08c-.02,0-.02,.02-.03,0v.03s.02,0,.02-.01c.02,0,.02,.02,.01,.04-.02,.02,.16,.1,.15,.1,.01,.02-.02,.05,.02,.05,.01,0-.18-.15-.16-.13-.03,.04,.23,.16,.2,.2,.01,.01,.03,.03,.06,0,0,.03-.06,.03-.08,.07,0,0,.01-.01,.02,0l-.03,.04c.07,0,.03,.12,.13,.11-.05,.01-.12,.05-.17,.04l.02-.02s-.03-.01-.07,0c-.01,.04,0,.07,.05,.07l-.02,.04h.01s-.02,.02-.04,.02h0c-.1,.1,.14,.05,.11,.13,.02,0,.02-.01,.05,0-.01,.07-.02,.13-.01,.19,.05-.02,.07-.03,.11-.08v.05c-.13,.05-.06,.14-.2,.19-.02,.03-.01,.05,.02,.06,.03-.02,.08-.05,.1-.02-.02,.06,0,.04-.02,.1-.03,.03-.06,.03-.09,.06,.08,0-.06,.1-.02,.13,.03,.02,.07,.07,.14,.02,.02,.04-.03,.07-.09,.11Z"/><path class="d" d="M217.35,53.68v.03c-.04-.06-.07-.15-.08-.24-.13,.31-.22,.63,.35,.41-.25,.19-.28,.42-.21,.38,.07,0,.13,0,.18,.01-.03,0-.07-.02-.11-.02,.04,0,.07,.01,.11,.02,.33,.06,.39,.33,.43,.62,.03,.16,.19,.53,.2,.7v.07l.02-.09c.12,.03,.24,.05,.33,.09,.03-.04,.07-.06,.1-.13v.05c.13-.04,.17,.03,.24,.04-.06,.03-.06,.06-.05,.09l.03-.03c.04,.11,.15,.18,.2,.26,0,.01,0,.03-.03,.05l.1,.05c-.08,.04-.03,.11-.1,.1,.13,0,.11,.09,.24,.09,.15,.18,.32,.37,.62,.47l.02-.02c.14,.02,.31,0,.34,.1,.12,.01,.2,.09,.26,.09,.03,.08,.06,.11,.07,.2,0-.03,.01,.09,0,.04,.01-.07,0-.07,.03-.14h0c.06-.3,.23-.66,.37-1.02-.17-.07-.19-.25-.31-.37-.12-.12-.28-.24-.42-.32-.04-.01,.01-.08,.03-.13-.11-.09-.18-.25-.3-.34h0c-.06-.05,0-.15-.07-.21-.02,.02-.03,0-.05,0,.1-.08-.48-.24-.43-.3h-.03c-.04-.18,.07-.46-.03-.57-.07,0-.13,0-.2,.02,.03-.05-.06,0-.06-.03,.17-.21,.06-.18,0-.1-.06-.03-.08-.1-.12-.14l-.09-.03s0-.04,.04-.08c-.06-.03,0-.05-.01-.11,.07-.06-.2-.04-.19-.07h.02c-.03-.07,.09-.2,.06-.26-.05-.19-.22-.33-.29-.49-.08,.05,.04,.02-.06,.09-.04-.09,0-.25-.04-.35,0-.03,0-.06,.02-.07-.03-.02-.07,.02-.1,.02l.06-.04c-.11,.03-.02-.05-.11-.03-.03,.02-.05,.02-.07,.02,.05-.04-.07,0-.02-.03h0s-.02,0-.03,0c-.05,.02-.38,.1-.41,.1h0s-.07,0-.06,.01h-.06s0-.03,.02-.03c-.03,0-.06,0-.07,0,.04,.02,.08,.04,.09,.08-.03,0-.05-.02-.07-.02,0-.02-.05-.04-.08-.06-.01,0-.04,.01-.05,0,0-.01-.03,0-.04-.01,.03,0,.05,0,.07,0,.01-.01-.05-.01-.06-.02h-.09s-.02-.01-.03-.02c-.02,0-.03,0-.03,0-.01,0,.07,.01,.04,.01,0,0-.04,0-.06-.01,0,0,.01,0,0,0-.01,0,.01,0-.05-.01,.02,0,.02,0,.02,0-.04,0,.17,0,.14,0,0,.01-.19,0-.16,0,.02,0-.01,0,0,0h.02s.03,.01,.02,.01c-.04,0,.12,.01,.09,0h.01s-.06,0-.07,0c0,0-.02,0-.04,0h0s-.04,0-.03,0c.08,.03-.05-.02,.01,.02-.02-.02,0,0,.04,.02,0,0,0,.01,.02,.03,.01,.01,.01,0,.02,0,0,0,.02,.02,0,.03,.02,0,0,.02,.02,.03,.02,0,0,0,.02,0,.02,.02,.04,.04,.04,.06,0,.01-.02,.05-.06,.06-.01-.03,.04-.02,.02-.04-.02,.04-.03-.02-.05-.01,0,.02,0,.04,.01,.06h0s.04,.03,.02,.06c-.02,0-.02,.02-.03,.01v.03s.02,0,.02-.01c.02,0,.01,.02,0,.03-.02,.02,.13,.06,.12,.06,0,.01-.03,.04,0,.04,.01,0-.15-.09-.12-.08-.03,.04,.19,.1,.15,.14,0,0,.02,.02,.05,0,0,.03-.06,.03-.08,.07,0,0,.01-.01,.02,0l-.03,.04c.06,0,.01,.09,.1,.07-.04,.02-.12,.06-.16,.06l.02-.02s-.03,0-.06,.02c-.02,.04-.01,.06,.03,.05l-.02,.03h.01s-.02,.01-.04,.02h0c-.11,.09,.12,.02,.09,.09,.02,0,.02-.01,.05-.01-.02,.06-.04,.11-.04,.16,.05-.02,.07-.03,.11-.08v.04c-.13,.06-.08,.13-.21,.18-.02,.03-.02,.05,.01,.05,.03-.02,.08-.05,.09-.03-.02,.05-.01,.04-.04,.08-.04,.03-.06,.03-.09,.06,.07,0-.07,.09-.04,.11,.02,.01,.05,.05,.12,0,.01,.03-.04,.06-.09,.1Z"/><path class="d" d="M241.14,66.2v.03c-.05-.06-.07-.15-.1-.24-.12,.32-.19,.65,.38,.42-.25,.2-.26,.44-.2,.39,.07,0,.13,0,.19,0-.03,0-.07-.02-.11-.02,.04,0,.08,.01,.11,.02,.35,.06,.42,.34,.48,.64,.04,.16,.23,.54,.25,.73v.07l.02-.1c.13,.03,.24,.05,.34,.09,.03-.04,.06-.07,.09-.13v.05c.13-.05,.18,.03,.25,.03-.06,.03-.05,.07-.04,.1l.03-.04c.04,.11,.16,.18,.22,.27,0,.01,0,.04-.02,.05l.1,.05c-.08,.05-.02,.11-.09,.11,.13,0,.12,.09,.25,.08,.17,.19,.34,.37,.64,.47l.02-.02c.14,.01,.31,0,.35,.1,.12,.01,.2,.09,.26,.09,.04,.08,.06,.11,.08,.2,0-.03,.02,.09,0,.05,0-.07,0-.08,.02-.15h0c.05-.3,.21-.69,.33-1.07-.18-.07-.21-.27-.33-.39-.13-.12-.29-.24-.44-.31-.04-.01,0-.08,.03-.13-.12-.09-.19-.25-.32-.34h0c-.06-.05-.02-.16-.08-.21-.02,.02-.03,0-.05,.01,.09-.09-.49-.23-.45-.3h-.03c-.05-.18,.04-.47-.06-.58-.07,0-.13,.01-.2,.03,.03-.05-.06,0-.07-.03,.16-.21,.05-.19,0-.1-.07-.03-.09-.1-.13-.14l-.1-.03s0-.04,.03-.08c-.06-.03,0-.05-.02-.11,.06-.06-.21-.04-.19-.07h.02c-.03-.07,.08-.21,.05-.27-.06-.2-.24-.33-.32-.49-.08,.05,.04,.02-.06,.09-.05-.09-.02-.25-.05-.36,0-.03,0-.06,.01-.07-.03-.02-.07,.02-.1,.02l.06-.04c-.11,.03-.03-.05-.11-.03-.03,.02-.05,.02-.07,.02,.05-.04-.07,0-.02-.03h0s-.03,0-.03,0c-.05,.02-.39,.1-.41,.1h0s-.07,0-.06,.02h-.06s0-.03,.02-.03c-.03,0-.06,0-.07,0,.04,.02,.08,.04,.1,.08-.03,0-.05-.02-.08-.02,0-.02-.05-.04-.09-.06-.01,0-.04,.01-.05,0,0-.01-.03,0-.04-.01,.03,0,.05,0,.07,0,.01-.01-.05-.01-.06-.02h-.09s-.02-.01-.03-.02c-.02,0-.04,0-.03,0-.01,0,.07,.01,.04,.01,0,0-.04,0-.06-.01,0,0,.01,0,0,0-.01,0,.01,0-.05-.01,.02,0,.02,0,.02,0-.04,0,.18,0,.14,0,0,.01-.19,0-.17,0,.02,0-.01,0,0,0h.02s.03,.01,.02,.01c-.04,0,.13,.01,.09,0h.01s-.06,0-.07,0c0,0-.02,0-.04,0h0s-.04,0-.03,0c.08,.03-.05-.02,.01,.02-.02-.02,.01,0,.04,.02,0,0,0,.01,.02,.03,.02,.01,.01,0,.02,0,0,0,.02,.02,0,.03,.02,0,.01,.02,.03,.03,.02,0,0,0,.02,0,.02,.02,.04,.04,.05,.06,0,.01-.02,.05-.06,.06-.02-.03,.05-.02,.02-.04-.02,.04-.03-.02-.05-.01,0,.02,0,.04,.02,.06h0s.04,.03,.03,.06c-.02,0-.02,.02-.03,.01v.03s.02,0,.02-.01c.02,0,.01,.02,0,.03-.02,.02,.14,.06,.13,.06,.01,.01-.02,.04,0,.04,.01,0-.15-.1-.13-.08-.03,.04,.2,.1,.17,.14,0,0,.02,.02,.05,0,0,.03-.06,.03-.08,.07,0,0,.01-.01,.02,0l-.03,.04c.06,0,.02,.09,.11,.07-.04,.02-.12,.06-.16,.06l.02-.02s-.03,0-.06,.02c-.02,.04,0,.06,.04,.05l-.02,.03h.01s-.02,.01-.04,.02h0c-.1,.1,.12,.02,.09,.09,.02,0,.02-.01,.05-.01-.02,.06-.03,.11-.03,.16,.05-.02,.07-.03,.11-.08v.04c-.13,.06-.07,.13-.21,.19-.02,.03-.02,.05,.01,.05,.03-.02,.08-.05,.09-.03-.02,.05-.01,.04-.03,.09-.03,.03-.06,.04-.09,.06,.07,0-.06,.09-.03,.11,.03,.01,.06,.05,.13,0,.02,.03-.03,.06-.09,.1Z"/><path class="d" d="M241.42,88.46v.03c-.04-.07-.07-.17-.09-.27-.14,.32-.23,.65,.36,.48-.26,.18-.29,.42-.22,.39,.07,0,.13,.02,.19,.03-.03-.01-.07-.02-.11-.03,.04,0,.08,.02,.11,.03,.34,.1,.4,.4,.44,.72,.03,.17,.2,.59,.2,.78v.08l.02-.1c.13,.04,.24,.08,.34,.13,.03-.04,.07-.06,.1-.13v.05c.13-.03,.18,.06,.25,.07-.06,.03-.06,.06-.05,.1l.03-.03c.04,.12,.15,.21,.2,.3,0,.01,0,.04-.03,.05l.1,.06c-.08,.04-.03,.11-.1,.1,.13,.01,.12,.11,.25,.12,.15,.21,.33,.43,.64,.57l.02-.02c.14,.03,.31,.03,.35,.14,.12,.03,.2,.12,.26,.12,.03,.09,.06,.12,.07,.22,0-.03,.01,.1,0,.05,.01-.08,0-.08,.03-.15h0c.07-.31,.24-.7,.38-1.06-.18-.09-.19-.29-.31-.42-.12-.14-.28-.29-.43-.38-.04-.02,.01-.08,.03-.13-.11-.1-.18-.28-.31-.4h0c-.06-.06,0-.17-.07-.23-.02,.01-.03,0-.05,0,.1-.08-.49-.3-.44-.36l-.03-.02c-.04-.18,.07-.47-.02-.6-.07,0-.13,0-.21,0,.03-.05-.06,0-.06-.04,.18-.2,.06-.19,0-.11-.06-.04-.08-.11-.12-.16l-.1-.04s0-.04,.04-.08c-.06-.04,0-.05-.01-.12,.07-.06-.21-.07-.19-.1h.02c-.03-.07,.1-.2,.07-.27-.05-.21-.22-.37-.29-.55-.08,.05,.04,.03-.07,.09-.04-.1,0-.26-.03-.38,0-.03,.01-.06,.02-.08-.03-.02-.07,.02-.1,0l.06-.04c-.11,.02-.02-.05-.11-.04-.03,.01-.05,.01-.07,.01,.06-.04-.07,0-.02-.03h0s-.03,0-.03,0c-.06,.02-.4,.06-.42,.06h0s-.07,0-.06,0h-.03l-.03-.02s0-.01,.03-.02c-.03,0-.06,0-.07,0,.04,.02,.08,.06,.09,.1-.03,0-.05-.03-.08-.03,0-.02-.05-.05-.09-.07-.01,0-.04,.01-.05,0,0-.01-.03,0-.04-.02,.03,0,.05,0,.07,.02,.01-.01-.05-.02-.06-.03-.01,0-.06-.01-.09-.02,.02,0-.02,0-.03-.01-.02,0-.04,0-.03,0-.01,0,.07,.02,.04,.02,0,0-.04-.01-.06-.02,0,0,.01,0,0,0-.01,0,.01,0-.05-.02,.02,0,.02,0,.02,0-.04,0,.18,.03,.14,.02,0,.01-.19-.02-.17-.02,.02,0-.01,0,0,0h.02s.03,.02,.02,.02c-.04-.01,.13,.03,.09,.01h.01s-.06,0-.07-.01c0,0-.02,0-.04,0h0s-.04-.01-.03-.01c.08,.04-.05-.03,.01,.02-.02-.02,0,0,.04,.03,0,0,0,.02,.02,.04,.01,.01,.01,0,.02,0,0,0,.02,.03,0,.03,.02,0,0,.02,.02,.04,.02,0,0,0,.02,0,.02,.02,.04,.05,.05,.07,0,.01-.03,.05-.06,.05-.01-.04,.05-.01,.02-.04-.02,.04-.03-.02-.05-.02,0,.02,0,.04,.01,.06h0s.04,.04,.02,.07c-.02,0-.03,.02-.03,0v.03s.02,0,.02,0c.02,0,.01,.02,0,.04-.03,.02,.14,.08,.13,.08,0,.02-.03,.04,0,.04,.01,0-.15-.12-.13-.1-.03,.04,.19,.13,.16,.16,0,.01,.02,.02,.05,0,0,.03-.06,.03-.08,.06,0,0,.02-.01,.02,0l-.03,.04c.07,0,.01,.1,.1,.09-.04,.01-.12,.05-.16,.04l.02-.02s-.03-.01-.06,.01c-.02,.04-.01,.06,.03,.06l-.03,.03h.01s-.02,.01-.04,.02h0c-.11,.09,.12,.03,.09,.11,.02,0,.02-.01,.05,0-.02,.06-.04,.11-.04,.16,.05-.02,.07-.03,.11-.07v.04c-.14,.05-.08,.13-.22,.17-.02,.03-.02,.05,.01,.05,.03-.02,.08-.04,.1-.02-.02,.05-.01,.04-.04,.09-.04,.03-.06,.03-.09,.05,.07,0-.07,.09-.04,.12,.02,.01,.05,.05,.13,.01,.01,.03-.04,.06-.1,.09Z"/><path class="d" d="M191.88,81.6h-.03c.1,0,.19,.04,.28,.08-.17-.31-.39-.58-.64-.01,.03-.32-.16-.49-.18-.41-.05,.05-.1,.09-.15,.13,.03-.02,.07-.04,.1-.07-.03,.03-.07,.05-.1,.07-.32,.21-.61,.07-.91-.09-.17-.08-.63-.2-.8-.32l-.07-.04,.08,.07c-.12,.07-.23,.14-.34,.18,.01,.05,0,.09,.04,.16l-.04-.04c-.06,.13-.17,.11-.22,.16,.02-.07-.02-.09-.05-.1v.05c-.12-.04-.27,0-.39-.03-.02,0-.02-.03-.03-.05l-.12,.04c.02-.09-.08-.09-.02-.14-.1,.1-.17,.02-.27,.13-.28,0-.59,0-.9,.16v.03c-.11,.09-.22,.23-.34,.19-.1,.08-.23,.09-.27,.14-.1-.03-.14-.03-.23-.08,.02,.02-.09-.05-.04-.03,.06,.06,.06,.05,.11,.11h0c.23,.24,.44,.61,.67,.95,.19-.08,.37,.02,.56,.01,.2-.01,.43-.05,.61-.11,.04-.02,.06,.06,.09,.11,.16-.02,.36,.03,.54,0h0c.1,0,.15,.1,.25,.09,0-.03,.02-.03,.03-.04,0,.13,.57-.2,.6-.12h.03c.19,.07,.35,.34,.52,.33,.04-.06,.09-.1,.13-.17,.02,.06,.04-.05,.08-.03,.05,.26,.12,.16,.09,.07,.08-.03,.15,0,.22,0l.1-.05s.04,.02,.04,.08c.07-.03,.04,.03,.11,.07,0,.09,.19-.12,.21-.09h-.01c.08,.04,.11,.21,.19,.23,.21,.09,.46,.06,.67,.11,.01-.09-.05,.01-.04-.11,.12,.03,.24,.16,.37,.21,.02,.02,.05,.04,.06,.06,.04,0,.03-.07,.07-.08v.07c.05-.11,.07,.01,.12-.07,0-.03,.02-.05,.04-.06,0,.07,.05-.06,.05,0h0s.02-.03,.03-.03c.02-.05,.2-.36,.22-.38h0s.04-.06,.02-.06l.03-.02h0l.03-.02s.01,0,0,.03c.02-.03,.04-.05,.05-.06-.05,.02-.1,.04-.15,.03,.02-.03,.06-.03,.08-.05,.03,0,.08-.01,.12-.04,0,0,.01-.04,.03-.05,0,0,.02-.02,.04-.02-.02,.03-.04,.04-.06,.05,0,.02,.05-.03,.06-.04l.07-.07s.02-.01,.03-.02c.01-.02,.02-.03,.02-.02,0-.01-.06,.06-.04,.03,0,0,.03-.03,.05-.05,0,0-.01,0,0,0,.01-.01,0,0,.04-.04-.02,.02-.02,.01-.02,.01,.02-.03-.12,.15-.09,.12,0,0,.13-.16,.11-.14-.01,.01,0,0,0,0h-.02s-.03,.03-.02,.02c.03-.03-.09,.1-.06,.08h-.01s.04-.04,.06-.05c0,0,.02-.02,.03-.03h0s.03-.03,.02-.03c-.08,.05,.05-.03-.03,0,.03,0-.01,0-.05,.02,0,0-.02,0-.04,0-.02,0-.01,0-.02,.01-.01,0-.04,0-.03,0-.02,.02-.03,0-.05,0-.02,0,0,0-.01,.02-.03,0-.07,0-.09,0,0-.02-.03-.05-.01-.08,.04,0-.02,.05,.03,.04-.02-.04,.04-.01,.05-.04-.01-.02-.04-.02-.06-.02h0s-.06,.02-.08-.02c0-.02,0-.03,.01-.03h-.03s0,0,0,0c-.01,.01-.03,0-.04-.01,0-.03-.15,.07-.15,.06-.02,0-.02-.05-.04-.02,0,.02,.19-.06,.17-.05-.01-.05-.23,.09-.24,.04-.01,0-.03,0-.03,.04-.02-.02,.01-.07,0-.1,0,0,0,.02,0,.02v-.05c-.06,.05-.1-.05-.15,.03,.02-.04,.04-.13,.07-.16v.02s.03-.02,.03-.06c-.02-.04-.04-.05-.07,0v-.02s-.02-.03-.01-.05h0c0-.15-.1,.07-.14,0-.02,.02,0,.02-.02,.04-.04-.05-.07-.1-.11-.13-.02,.05-.03,.07-.01,.13l-.03-.02c.05-.14-.05-.15,0-.28,0-.03-.03-.04-.05-.02,0,.04-.02,.09-.04,.09-.03-.05-.02-.03-.05-.08,0-.05,.01-.06,.02-.1-.05,.05-.03-.11-.07-.1-.03,.01-.08,0-.1,.09-.04,0-.03-.07-.01-.13Z"/></g><g><path class="d" d="M107.28,125.89c4.92,2.07,9.78,4.33,14.27,7.21,12.9,8.27,22.33,22.65,26.25,37.47s3.42,30.92-2.71,44.97c-7.56,17.31-23.29,31.49-41.09,37.79-17.81,6.3-38.45,4.45-54.53-5.46-3.18-1.96-6.18-3.21-9.06-5.61-7.87-6.55-14.91-15.27-19.7-24.32-8.29-15.66-9.24-36.02-2.5-52.4,2.03-4.95,3.72-8.61,6.6-13.13,3.14-4.92,7.54-9.7,11.67-13.82,2.92-2.92,6.18-5.49,9.67-7.7,8.85-5.6,19.34-8.54,29.6-10.31s21.91,1.26,31.55,5.32Z"/><path class="d" d="M147.78,203.45c-.12,.57-.24,1.14-.4,1.7,1.33-5.49,1.96-11.44,1.87-17.31-.01,6.39-.97,13.31-2.79,19.6-1.79,6.31-4.51,11.88-6.81,16.27-.12,.08-.32,.33-.59,.67-.29,.34-.65,.78-1.05,1.3-.41,.51-.84,1.12-1.34,1.72-.5,.6-1.02,1.24-1.53,1.86-1.04,1.25-2.12,2.42-2.91,3.33-.84,.87-1.39,1.47-1.42,1.53-1.7,1.91-3.57,3.72-5.53,5.47,.67-.61,1.34-1.21,2.01-1.81,.65-.61,1.27-1.26,1.91-1.89-.63,.63-1.25,1.28-1.91,1.89-.67,.6-1.34,1.21-2.01,1.81-6.25,5.45-13.82,10.05-22.28,12.94-8.44,2.88-17.79,3.91-27.05,2.88-2.56-.31-6.23-.85-10.32-1.98-4.09-1.12-8.59-2.87-12.79-5.2-1.04-.61-2.05-1.18-3.12-1.83-1.07-.65-2.15-1.25-3.19-1.83-2.08-1.16-3.94-2.29-5.49-3.67-3.26-2.77-5.84-5.5-7.59-7.49-1.02-1.15-2-2.33-2.96-3.54q1.61,2.01,3.29,3.95c-4.44-4.7-7.96-9.46-10.86-14.35,.45,.9,.47,1.09,1.66,3.15-.5-.83-1.01-1.66-1.47-2.51-.77-1.09-1.83-3.01-2.81-4.99-.96-1.99-1.8-4.08-2.28-5.43,.29,.55-.47-1.58-.97-3.51l.16,.77c-1.06-3.63-1.87-7.66-2.29-11.63-.4-3.98-.4-7.88-.14-11.26,.08-.94,.17-1.64,.24-2.07l.4-3.22c.17-1.07,.38-2.13,.56-3.2-.03,.5,1.4-5.19,.72-2.18,.51-2.37,1.27-4.69,2.13-6.95,.87-2.27,1.82-4.49,2.75-6.62,1.8-3.73,3.94-7.39,6.52-10.76,2.58-3.38,5.51-6.57,8.56-9.67,3.01-3.09,6.4-5.83,10.05-8.15,3.65-2.32,7.58-4.2,11.61-5.73l-.41,.1c5.64-2.15,10.79-3.72,18.07-4.91,2.57-.53,5.77-.74,8.56-.66,2.8,.07,5.19,.36,6.25,.43,3.01,.52,5.09,1.04,7.15,1.58,2.05,.57,4.07,1.18,6.88,2.23-1.38-.72,5.45,2.05,2.77,.84-3.63-1.67-3.89-1.6-7.06-2.83l.08,.07c-7.47-2.55-15.51-4.16-23.61-3.17-4,.56-7.85,1.36-11.74,2.35-3.87,1-7.71,2.25-11.43,3.84-4.94,2.18-9.86,5.07-14.26,8.7-2.22,1.8-4.26,3.84-6.19,5.86-1.95,2.03-3.85,4.12-5.61,6.3-3.85,4.67-7,10.23-9.33,15.79-.58,1.4-1.17,2.74-1.67,4.15-.26,.7-.51,1.39-.76,2.08l-.63,2.08c-.45,1.37-.72,2.75-1.05,4.08-.29,1.34-.5,2.66-.73,3.93-.15,1.23-.31,2.27-.48,3.28l-.35,3.02c-.29,4.75-.07,10.19,.91,15.67,.96,5.47,2.64,11,5.02,15.83l-.23-.47c1.24,2.58,2.4,4.78,3.68,6.9,1.27,2.12,2.61,4.18,4.28,6.4,.01-.04,.53,.64,.8,.96,.21,.42,5.25,6.94,11.66,12.24,1.55,1.37,3.38,2.6,5.09,3.55,1.73,.97,3.35,1.79,4.71,2.6,1.42,.8,2.64,1.49,3.55,2.01,.95,.47,1.58,.79,1.8,.91,.52,.24,1.05,.53,1.61,.76,5.32,2.44,11.07,4.22,16.75,5.2,5.69,.94,11.3,1.09,16.33,.6,.54-.07,1.11-.14,1.67-.21,.56-.1,1.12-.2,1.67-.3,1.1-.19,2.16-.39,3.05-.64,1.76-.29,2.07-.46,4.15-1,5.36-1.09,8.25-2.6,5.59-1.65,4.2-1.56,8.27-3.51,11.68-5.56,.8-.45,1.56-.98,2.33-1.48,.77-.51,1.55-1,2.28-1.57,1.26-.95,2.03-1.39,2.69-1.83,3.15-2.54,2.27-1.72,5.48-4.5,.4-.32,2.34-2.15,4.1-4.17,1.78-2,3.43-4.14,3.79-4.62l-.41,.56c3.05-3.83,5.03-6.46,7.32-10.7,3.2-5.88,5.42-12.64,6.48-19.43,.54-3.39,.83-6.79,.87-10.11,.03-3.32-.16-6.55-.5-9.62-.11-.11,.3,2.71,.14,2.87-.56-7.25-1.98-14.55-4.71-21.42-.45-1.25-1.08-2.76-1.27-3.34-.99-2.15-.66-1.23-1.4-2.79v-.26c-1.27-2.19-1.67-3.31-2.97-5.31-.11-.08-.59-.81-1.05-1.52,.1-.12-1.5-2.14-1.34-2.1h-.02l-.87-1.24c-.32-.37-1.93-2.31-3.69-4.12-.89-.89-1.8-1.77-2.53-2.45-.76-.66-1.32-1.15-1.51-1.32l-.32-.33c-1.02-.9-1.53-1.2-.94-.67l-1.27-1.09,.15,.12c-.41-.37-.86-.7-1.3-1.04-.24-.19-.48-.45-.07-.2-.77-.55-1.63-1.17-2.41-1.71,1.09,.74,2.2,1.71,3.35,2.65,1.09,1,2.22,2,3.14,3-.82-.77-2.33-2.12-3.26-2.9-.55-.48-1.41-1.18-2.36-1.95-1-.7-2.06-1.52-3.04-2.15-.44-.26-.81-.34-1.78-.97-.44-.36-1.14-.65-1.95-1.16,1,.48,1.93,1.04,2.89,1.62-.1-.2-2.32-1.44-3.1-1.87-.38-.17-2.28-1.2-3.52-1.75,.58,.16-.96-.53-1.67-.92-.83-.39-1.38-.59-1.05-.4-.31-.03,3.27,1.58,2.07,1.15-.28-.19-1.91-.93-2.79-1.31-.04,.05,.58,.31-.01,.11-.97-.44-2.04-.82-2.58-1.12,.19,.06,.59,.24,.88,.37-.64-.27,1.13,.36,2.84,1.03,1.71,.67,3.36,1.38,2.54,1,.2,.13-1.63-.66-3.42-1.35-1.79-.7-3.54-1.34-3.11-1.16,.77,.36-.6-.13,.2,.23l.92,.31c1.09,.49,1.49,.79,1.09,.66-.92-.4,.43,.06,1.8,.58,1.37,.51,2.76,1.09,1.97,.75l.62,.33c-.67-.29-2.45-1.07-3.11-1.44-.03,.05-.93-.33-1.69-.63l-.26-.12c-.78-.31-1.85-.77-1.38-.49,4.52,1.92-3.21-.7,1.15,1.2-1.78-.91,.68,.12,2.58,.98,.16,.13,.99,.57,2.32,1.25,1.17,.56,.71,.29,.95,.37,.63,.35,1.85,1,1.65,.98,.94,.4,1.41,.81,2.47,1.39,.95,.5-.04-.07,.63,.28,1.4,.8,3.25,2.09,4.3,2.83,.37,.34,1.48,1.36,.55,.77-1.95-1.45,.87,.38-1.22-1.05,.81,.75-1.86-1.25-2.33-1.37,.66,.47,1.99,1.41,3.12,2.17-.07-.06-.13-.12-.21-.18,.48,.36,1.2,.9,1.93,1.45,.73,.55,1.4,1.19,1.88,1.64-.27-.16,.14,.24-.54-.32l1.25,1.08c.16,.13,.33,.27,0-.07,.59,.5,1.15,1.06,1.56,1.49,.06,.07,1.66,1.58,3.13,3.14,1.48,1.55,2.79,3.19,2.71,3.08,.75,.93,.83,1.23,1.56,2.14,.01,0-.08-.13-.26-.37l-.75-1.01c-.67-.8-1.51-1.9-2.41-2.88-.89-1-1.76-1.94-2.38-2.53-.61-.6-.91-.9-.63-.62,.33,.39,2.76,2.74,4.83,5.37,2.11,2.6,3.93,5.38,4.07,5.72,.46,.76,1.01,1.67,.96,1.46,.74,1.3-.32-.33,.17,.61,.02,.02-.02-.09,.15,.2l.42,.93c1.24,1.97,2.55,5.11,3.58,7.31-.31-.63-.75-1.32-1.42-2.73l-.09-.26c-.11-.19-.69-1.34-.73-1.28,.62,1.35,1.14,2.48,1.8,3.9,.1,.27,.2,.59,.27,.8,0,0,0-.03,.01-.03,.15,.49,.12,.44,.04,.27l-.05-.1c.08,.47,.67,1.79,1.21,3.37,.29,.78,.59,1.62,.82,2.44,.24,.82,.49,1.59,.61,2.25,.21,.77,.05,.07,.31,1.02,.58,2.7,.88,4.58,1.25,7.44,.19,.9,.23,.97,.16-.14l.25,2.17c-.38-1.95,.19,4.06-.2,1.91,.03,.63,.09,1.93,.17,3.14,.04,.12,.17,.31,.17,1.84-.04,2.13-.02,1.62-.14,3.38-.08,.41-.08-.23-.13-.16,0,1.36-.08,1.94-.16,2.51-.1,.57-.15,1.12-.29,2.38-.12,1.59-.63,4.71-.54,4.8-.43,2.11-.51,2.09-.56,1.87Z"/></g><path class="c" d="M80.05,159.81c-.2,.03-.39,.05-.59,.1,1.87-.5,3.88-.67,5.86-.6-2.16-.53-4.66-.74-6.96-.16-2.28,.55-4.4,1.97-5.19,4.11-.28-.22-.76-.24-1.34-.1-.58,.09-1.25,.54-1.88,.97-.62,.47-1.18,1.16-1.55,1.65-.25,.37-.36,.62-.3,.68-.22,.94-.43,1.86-.64,2.76,.16-.65,.33-1.27,.5-1.88-.17,.61-.34,1.24-.5,1.88-.33,1.49-.66,3.06-.75,4.8-.09,1.72,.08,3.63,.73,5.42,1.28,3.64,4.03,6.21,6.65,8.07,1.47,1.05,4.33,2.49,6.81,3.69,1.21,.61,2.5,1.27,3.44,1.83,.97,.57,1.69,1.09,2.12,1.5,.25,.23,.49,.45,.71,.66-.34-.41-.35-.41-.75-.82,1.41,.45,2.5,.98,3.26,1.66,.09-.23,.2-.38,.12-.93,.1,.18,.17,.37,.26,.54,.36,.01,.68,.26,.93,.61,.25,.35,.45,.83,.65,1.16-.33-.08-.25,.47-.17,1.05l.15-.26c.21,1.24,.39,1.9,.41,2.8,.03,.86-.09,1.74-.34,2.45-.05,.21-.23,.31-.36,.36-.09,.47-.24,.94-.42,1.4-.28-.27-.93,.78-.78,.09-.07,.56-.4,.99-.71,1.39-.34,.38-.68,.75-.96,1.22-1.4,1-3.38,1.46-5.72,1.63-1.15,.09-2.44,.14-3.62,.17-1.19,.03-2.28,0-3.4-.19l.06,.18c-.79-.11-1.62-.16-2.48-.34-.42-.08-.88-.22-1.28-.37-.2-.06-.37-.19-.55-.33-.19-.15-.39-.31-.57-.5-1.53-.47-3.22-1.85-4.26-1.9-1.21-1.43-1.9-1.97-2.92-3.34-.15,.57-1.23-1.16-1.1-.28,.02,1.21,.47,1.02,.55,2.14l.11-.09c.44,1.12,1.06,2.41,1.87,3.57,.8,1.17,1.75,2.19,2.71,3.1,.53,.47,.82,.8,1.76,1.47l1.02,.58c.27,.16,.56,.31,.85,.46,1.15,.6,2.5,1.18,3.96,1.57,2.02,.28,3.86,.33,5.52,.42,1.73,.07,3.65,.12,5.67-.28,1.08-.23,2.22-.58,3.33-1.11,1.12-.54,2.16-1.24,3.02-2.03,1.76-1.58,2.94-3.48,3.6-5.26,.29-.85,.83-1.33,1.25-2.04,.44-1.73,.69-3.78,.42-5.92-.02-.27-.09-.53-.13-.8-.05-.26-.11-.56-.15-.71l-.29-1.19c-.21-.84-.51-1.84-1-2.82,.03,.08,.06,.15,.07,.2-.46-1.03-.99-2.04-1.49-2.8-.51-.78-1.09-1.54-1.88-2.17-.07,.09-.31-.1-.46-.15,.02-.16-.58-.67-1.52-1.2-.93-.54-2.18-1.08-3.4-1.5-1.22-.43-2.42-.77-3.32-1.06-.92-.29-1.57-.51-1.67-.64-.16-.04-.33-.09-.5-.14-1.49-.77-2.86-1.73-4.01-2.67-1.14-.95-2.05-1.85-2.78-2.5-.49-.11-.99-.31-1.43-.44-.03-.42-.42-.22-.6-.61,.24-.72,.3-1.06,.21-1.23-.07-.16-.28-.13-.41,.16-.37-.71-.33-1.55-.26-2.35-.03-.38-.03-.78-.02-1.21,.02-.37,.22-.52,.54-.61,.18-.93,.33-.58,.85-1.45,.22-.03,.37-.67,.54-1.36l.09-.39,.06-.29c.02-.19,.12-.32,.18-.34l-.05,.13c.18-.14,.37-.25,.55-.33,.19-.08,.45-.11,.65-.16,.4-.1,.91-.11,1.32-.36,2.63-1.1,6.33-2.01,9.21-1.71,.05-.4-.63,.04-.67-.47,1.76,.09,3.45,.87,4.53,1.46,.14,.2,.3,.47,.29,.63,.16,.3,.25-.08,.42,.11l-.19,.32c.48,0,.17,.66,.55,.83,.12-.09,.24,.02,.34,.14-.28,.25,.34,.36,.06,.57h.03c.06,.07,.12,.1,.14,.24,.1,.04,.66,.25,1.21,.57,.56,.3,1.11,.67,1.23,.73v.13c.15,.28,.47,.27,.44,.07l.16,.37-.04-.03,.15,.37c0,.08-.13,.23-.33,.2,.22,.14,.39,.34,.41,.58,0-.67-.05-1.51-.03-2.3,.25,.19,.3,.73,.47,.98-.07,.44,.03,1.19,.05,1.78,.06,.11,.5,.04,.41,.37-.23,.22,.12,.29-.03,.58-.22-.2-.24-.46-.32-.72-.31,.16,0,.68-.05,.91,.14,.06,.17,.57,.33,.84-.36-.05-.14,.29-.3,.49,0,.19,.15,.29,.26,.19,.38,0,.06-.82,.49-.63-.15,.12-.02,.49,.04,.7,.2-.03,.12-.17,.34-.06,0,.24,.26,.45,.07,.61-.06-.04-.04-.14-.04-.2,0,.14-.35-.21-.74-.54-.37-.33-.77-.63-.66-.46,.08-.07,.47,.27,.81,.64,.33,.35,.64,.73,.63,.63,.07-.2,.38,.1,.42-.1l-.27-.19c.04-.27,.37-.44,.52-.37,.01,.24-.36-.05-.74-.32-.36-.27-.73-.53-.58-.37l.05-.18c.18,.13,.37,.55,.2,.75,.19-.03,.31,.17,.4,.34l-.02,.07c.12,.17,.11,.43,.36,.28-.09-.54,.43-.45,.98-.31,.55,.14,1.12,.33,1.09-.33-.38,.59-.44-.12-.62-.65,.13-.08,.31-.37,.31-.81-.12-.34-.21-.17-.33-.2,.05-.22,.02-.61,.25-.62-.35-.19,.04-.49-.16-.79-.22-.24-.11,.06-.3-.1-.11-.44-.32-1.04-.41-1.39,.15-.21,.31-.77,.75-.61,.24,.67-.6-.03-.25,.62,.33-.48,.38,.55,.77,.54,.13-.3-.06-.76-.27-1.11l-.03,.1c-.21-.3-.59-.9-.54-1.36,.2,0,.23-.21,.39,.01l-.2-.46c-.08-.03-.16-.06-.13,.08-.22-.15-.27-.39-.27-.59,.06-.07-.42-.56-.95-.98-.51-.44-1.06-.79-.98-.8-.21-.28-.06-.51-.42-.66-.06,.03,.59,.58,1.18,1.15,.58,.57,1.12,1.13,.97,.94,.01-.19-.71-.96-1.48-1.63-.77-.68-1.58-1.24-1.53-1.45-.2-.17-.46-.36-.54-.18-.26-.37,.34-.17,.22-.52-.02,.02-.04,.09-.11,.01-.02-.13-.05-.26-.09-.38-.71-.24-1.43-1.13-2.29-1.08,.27-.09,.66-.31,1.21-.23l.03,.13c.09-.01,.48,.17,.58,0-.35-.4-.76-.57-1.31-.62-.06-.09-.14-.18-.19-.26,0,.02,0,.05-.02,.07-.11-.18-.09-.19,0-.23,.01,0,.03-.02,.05-.02-.03-.34-.54-.43-1.1-.49-.57-.09-1.19-.06-1.58-.29-.27,.02-.04,.09-.37,.12-.82-.36-1.4-.63-2.31-.81-.31,.22-.33,.31,0,.57l-.67-.11c.66-.61-1.27-.64-.57-1.24-.2-.14-.63-.17-1.03-.06-.04,.16-.09,.41-.58,.42-.69-.15-.53-.09-1.11-.25-.15-.19,.05-.29,.01-.45-.86,.33-.83-.37-1.67-.21-.52,.12-1.56,.35-1.51,.72-.7,.13-.76-.12-.76-.42Z"/><path class="c" d="M85.1,153.94l-.04,.05c0-.18,.12-.34,.25-.51-.98,.27-1.86,.62,.08,1.18-1.06-.1-1.59,.21-1.34,.25,.18,.1,.33,.2,.45,.3-.07-.07-.15-.13-.24-.2,.09,.07,.17,.13,.24,.2,.75,.61,.33,1.12-.15,1.64-.24,.29-.58,1.13-.93,1.41-.04,.04-.09,.09-.12,.13l.21-.14c.26,.23,.51,.45,.67,.64,.16-.01,.3,0,.52-.05l-.11,.08c.43,.13,.38,.32,.56,.43-.23-.05-.28,.02-.32,.07h.15c-.12,.21,.03,.5-.03,.71,0,.03-.09,.04-.17,.04l.15,.22c-.31-.05-.29,.13-.47,.02,.34,.19,.1,.31,.46,.5-.02,.51,.15,1.07,.6,1.65h.12c.18,.21,.77,.43,.54,.63,.39,.2,.58,.45,1.21,.58,.06,.19,.38,.3,.52,.5,.32-.01,.36,.21,.62,.15,.46-.07,.08-.12,.45-.18h-.11c.54-.42,.87-.86,1.07-1.31-.23-.35,.03-.66,0-1-.07-.37-.23-.77-.45-1.11-.08-.08,.19-.1,.35-.15-.11-.3,.05-.64-.09-.97,0,0,0,.01-.01,.01-.03-.17,.31-.26,.28-.43-.09-.01-.09-.04-.14-.05,.42,.02-.75-1.07-.5-1.09-.02-.02-.03-.04-.04-.06,.23-.32,1.1-.58,1.06-.88-.19-.09-.35-.18-.57-.26,.19-.03-.16-.08-.1-.14,.86-.05,.52-.19,.21-.15-.1-.15,0-.27-.02-.39l-.18-.19c-.06-.06,.06-.07,.27-.06-.1-.13,.1-.07,.2-.19,.3,0-.43-.37-.33-.4l.04,.03c.07-.14,.65-.16,.69-.3,.27-.36,.1-.82,.25-1.17-.31-.04,.06,.09-.35,.04,.08-.21,.49-.37,.57-.58,.09-.03,.25-.05,.35-.06,.12-.05-.14-.06-.1-.11l.28,.03c-.22-.1,.32-.07,.22-.15-.11-.02-.12-.05-.11-.07,.3,.04-.01-.08,.26-.04h-.02s-.01-.03,.04-.04c-.1-.05-.88-.41-1-.46h.05s-.22-.09-.28-.08l.02-.05h.02l.02-.04s.17,0,.29,.03c-.1-.04-.15-.08-.1-.1-.19,.05-.46,.11-.77,.15-.1-.05,.07-.08,.04-.12,.2-.02,.38-.08,.52-.13-.02-.02-.34-.07-.19-.09,.23,.01,0-.04,.16-.05,.12,.05,.06,.07,.04,.1,.27,.03,.19-.06,.27-.07-.08-.02,.01-.08-.06-.13,.26,.05,.17,0,.31-.01,.03-.02-.07-.05-.16-.06-.28-.05-.18,.08-.47,0,.14,0,.1-.05,.09-.08-.15-.02-.12,0-.26-.03,.04-.03-.14-.09,.02-.08,.04,.01,.01,.02,0,.03,.02-.04,.97,.36,.89,.29-.14,0-.88-.36-.89-.33-.08,.01-.27-.06-.33-.04l.18,.05c-.06,.03-.33,0-.43-.02,.03-.06,1.02,.31,.87,.24h-.08c-.1-.02-.18-.09-.01-.09-.15-.02-.2-.06-.25-.09h.03c-.07-.04-.03-.07-.23-.08,0,.15-1.52-.31-1.63-.18,.34-.01,.34,.07,.37,.13-.11,0-.28,0-.38,.03,.02,.04,.12,.04,.2,.06-.08,.01-.15,.04-.32,.01,.21,.06-.14,.03-.07,.08,.09,.05,.09,.01,.19,.05-.03,.04-.07,.11-.11,.14-.17,0-.46,0-.72-.07,.04-.07,.41,.08,.37,0-.38-.02-.09-.08-.38-.13-.17,0-.18,.05-.14,.1h.05s.11,.12-.09,.14c-.13-.03-.23-.02-.26-.05l-.03,.05s.08,.02,.12,.01c.1,.04,.04,.05-.04,.06-.14-.01,.55,.34,.47,.32,0,.04-.21,.02-.07,.07,.11,.02-.44-.41-.4-.35-.16,.01,.65,.5,.38,.49,0,.03,.03,.06,.18,.08-.07,.04-.27-.05-.41-.04,.02,0,.07,0,.06,.02h-.18c.21,.11-.09,.17,.19,.28-.15-.04-.42-.1-.55-.17h.08s-.09-.06-.23-.07c-.1,.03-.08,.07,.05,.14h-.12l.06,.02c-.09,0-.1,0-.16-.01h-.03c-.42-.04,.24,.2,.02,.26,.06,.03,.07,.01,.15,.05-.18,.06-.31,.1-.42,.18,.18,.05,.25,.06,.44,.05l-.07,.06c-.47-.12-.47,.06-.94-.07-.11,0-.14,.04-.07,.09,.12,.02,.31,.05,.3,.1-.17,.04-.11,.04-.27,.07-.16,0-.22-.04-.34-.05,.19,.11-.35,.03-.33,.11,.04,.05,.05,.15,.32,.19-.02,.06-.22,.04-.44,0Z"/><path class="c" d="M74.68,216.97l-.04,.04c0-.15,.12-.3,.25-.44-.98,.21-1.85,.5,.09,1.03-1.06-.11-1.59,.15-1.33,.19,.18,.09,.33,.18,.45,.27-.07-.06-.15-.12-.24-.18,.09,.06,.17,.12,.24,.18,.76,.54,.34,.97-.13,1.41-.24,.25-.56,.95-.9,1.18-.04,.03-.08,.07-.12,.11l.21-.11c.26,.2,.51,.39,.68,.56,.15,0,.3,0,.52-.03l-.11,.06c.43,.12,.39,.28,.56,.38-.23-.05-.28,0-.32,.05h.15c-.12,.18,.04,.43-.02,.6,0,.02-.09,.03-.17,.03l.15,.19c-.3-.05-.29,.1-.47,0,.35,.17,.11,.27,.47,.44-.01,.43,.16,.91,.6,1.42h.12c.18,.19,.76,.42,.53,.57,.39,.2,.57,.42,1.2,.58,.06,.17,.37,.29,.51,.47,.32,.01,.36,.21,.61,.18,.46-.03,.08-.1,.45-.13h-.11c.54-.35,.88-.72,1.09-1.12-.23-.32,.04-.59,0-.89-.07-.33-.23-.69-.46-.99-.08-.08,.19-.09,.34-.12-.11-.26,.04-.56-.1-.85,0,0,0,0-.01,.01-.03-.15,.3-.22,.27-.37-.09-.01-.09-.03-.14-.05,.42,.03-.77-.94-.52-.96-.02-.02-.03-.03-.04-.05,.23-.27,1.08-.48,1.04-.74-.19-.08-.36-.16-.57-.24,.19-.02-.16-.07-.11-.12,.86-.03,.52-.15,.21-.12-.1-.13-.01-.23-.03-.33l-.18-.16c-.07-.05,.06-.05,.26-.05-.11-.12,.1-.06,.2-.15,.3,.01-.43-.33-.34-.34l.04,.02c.07-.12,.65-.12,.69-.24,.26-.3,.09-.69,.24-.98-.31-.05,.06,.08-.35,.02,.08-.17,.49-.3,.56-.47,.09-.02,.25-.04,.35-.04,.12-.04-.14-.06-.1-.09l.28,.04c-.22-.09,.32-.04,.21-.12-.11-.02-.12-.04-.11-.06,.29,.04-.01-.07,.26-.02h-.02s-.01-.03,.04-.03l-1-.42h.05s-.22-.09-.28-.07l.02-.04h.02l.02-.03s.17,0,.29,.04c-.1-.04-.15-.07-.09-.09-.19,.04-.46,.08-.77,.1-.1-.04,.07-.07,.04-.1,.2,0,.38-.05,.52-.09-.01-.02-.34-.07-.19-.08,.23,.02,0-.03,.16-.03,.12,.05,.06,.06,.04,.09,.27,.04,.19-.04,.27-.05-.08-.02,.01-.06-.06-.11,.25,.05,.17,0,.31,0,.03-.02-.07-.05-.16-.05-.28-.05-.18,.06-.47-.02,.14,.01,.1-.04,.09-.06-.15-.02-.12,0-.26-.04,.04-.02-.14-.08,.02-.07,.04,.01,.01,.02,0,.03,.02-.03,.97,.34,.88,.28-.14,0-.87-.34-.89-.32-.08,0-.27-.06-.33-.05l.18,.05c-.06,.02-.33,0-.43-.04,.03-.05,1.02,.31,.87,.24h-.08c-.1-.03-.17-.09-.01-.08-.15-.02-.2-.06-.25-.09h.03c-.07-.04-.03-.06-.23-.08,0,.13-1.52-.33-1.62-.22,.34,0,.34,.07,.37,.13-.11-.01-.28-.02-.38,0,.02,.04,.12,.04,.2,.06-.08,0-.15,.03-.32,0,.2,.06-.14,.02-.07,.06,.09,.04,.09,.01,.19,.05-.03,.04-.07,.09-.11,.12-.17-.01-.46-.02-.71-.09,.04-.06,.41,.09,.37,.01-.38-.03-.09-.07-.38-.13-.17,0-.18,.04-.14,.08h.05s.11,.11-.09,.12c-.13-.03-.23-.03-.26-.06l-.03,.04s.08,.02,.11,.02c.1,.04,.04,.05-.04,.05-.14-.02,.55,.32,.47,.29,0,.03-.21,0-.07,.06,.11,.02-.43-.36-.39-.32-.16,0,.65,.45,.38,.43,0,.02,.03,.06,.17,.07-.07,.03-.27-.05-.4-.04,.02,0,.07,0,.06,.02h-.18c.21,.09-.09,.14,.19,.24-.15-.04-.42-.1-.55-.16h.08s-.09-.05-.23-.07c-.1,.02-.08,.06,.05,.12h-.06c-.09,.01-.1,0-.16,0h-.03c-.42-.04,.24,.18,.02,.22,.06,.03,.07,.01,.15,.05-.17,.05-.31,.08-.41,.14,.18,.05,.25,.06,.44,.06l-.07,.05c-.47-.12-.47,.04-.94-.08-.11,0-.14,.03-.07,.08,.12,.02,.31,.05,.3,.09-.17,.03-.11,.03-.27,.05-.16-.01-.22-.04-.34-.05,.19,.1-.35,.02-.33,.09,.04,.05,.05,.13,.32,.17-.02,.06-.22,.03-.44,0Z"/></svg>