<?xml version="1.0" encoding="UTF-8"?><svg id="a" xmlns="http://www.w3.org/2000/svg" viewBox="0 0 276.77 280.34"><defs><style>.b{fill:#005bea;}.c{fill:#65dff6;}.d{fill:#0b1f65;}</style></defs><g><path class="b" d="M251.3,168.17c6.59-1.33,9.65-2,16.7-3.8-3.43-16.86-5.59-27.2-9.01-44.06-.23-1.15-1.46-8.31-1.91-9.39-.67-1.58-24.19-30.86-35.06-43.04-19.54,3.65-39.26,7.83-58.8,11.48l-6.71,8.54,19.69,57.52,7.99,36.51,67.12-13.76"/><path class="b" d="M251.73,102.05l-.93-1.19c1.53,1.92,3.08,3.9,4.62,5.92,.78,1.04,1.51,1.98,2.31,3.18l.32,.54c.08,.2,.15,.43,.19,.58,.1,.35,.16,.66,.23,.98l.38,1.9c-.11-.69-.23-1.38-.37-2.09-.08-.37-.14-.7-.27-1.15-.06-.25-.2-.44-.31-.65-.11-.2-.25-.44-.35-.56-.83-1.23-1.68-2.4-2.54-3.58-1.73-2.36-3.52-4.68-5.28-6.93-3.54-4.48-7.04-8.6-10.05-11.65-.24-1-6.93-9.38-7.17-9.47-1.49-1.67-3-3.35-4.51-5.04,1.04,1.17,2.08,2.34,3.11,3.51-1.03-1.16-2.07-2.33-3.11-3.51-1.21-1.35-2.43-2.7-3.66-4.07l-.98-1.09-.79-.88c-.1-.23-.34-.06-.53-.05l-.58,.12c-.98,.2-1.97,.4-2.96,.6-3.67,.73-7.41,1.47-11.2,2.22-7.59,1.42-15.41,2.89-23.37,4.38-4.55,.86-13.01,2.46-21.48,4.06-2.61,3.29-5.22,6.57-7.57,9.52,1.43,4.29,2.67,8.01,3.52,10.58,.42,1.27,.84,2.53,1.26,3.8q-.69-2.12-1.37-4.25c1.92,5.28,3.66,10.06,5.34,14.68-.22-.84-.22-1-.8-2.98l.77,2.39c.91,2.11,2.61,7.1,3.48,9.42-.26-.47,.36,1.38,.9,3.02l-.16-.67c2.13,6.19,4.6,13.37,6.5,18.9,.26,.77,.43,1.36,.52,1.72l.51,1.41,.91,3.9c-.21-.39,.89,4.57,.24,1.97,1.04,4.07,1.86,8.25,2.87,12.12,1.39,6.24,2.82,12.66,4.26,19.16,4.36-.93,8.76-1.86,13.15-2.8,4.15-.9,8.29-1.8,12.41-2.7l-.36,.03c5.05-1.12,9.47-2.27,15.65-3.46,4.37-1.06,10.61-2.43,12.31-3.04,5.07-1.08,7.07-1.62,12.04-2.7-1.31,.14,4.81-1.14,2.34-.74-3.34,.5-3.49,.69-6.32,1.12l.09,.02c-13.12,2.49-26.25,5.07-39.52,7.74-3.44,.72-6.99,1.47-10.58,2.23-3.21,.65-6.45,1.32-9.68,1.97-.37-1.67-.73-3.33-1.1-4.98-2.24-9.86-4.66-20.52-6.58-28.99-.11-.48-.21-.93-.3-1.36-.49-1.47-.78-2.55-1.18-3.88-2.61-7.54-5.92-17.13-8.87-25.64,.05,.16,.1,.32,.14,.42-1.52-4.53-2.66-7.93-4.14-12.36-.03,.03-.26-.65-.4-.98-.03-.22-.72-2.23-1.72-5.07-.96-2.7-2.21-6.2-3.42-9.58,2.41-3.15,4.73-6.18,6.1-7.99,.47-.09,.85-.17,1.15-.23,.37-.07,.63-.11,.75-.13,.48-.1,.97-.2,1.47-.31,9.69-1.81,19.75-3.44,28.04-5.09,1.79-.43,3.77-.91,5.31-1.28,1.48-.22,1.74-.41,3.51-.73,4.55-.54,7.16-1.2,4.82-.86,3.69-.77,7.4-1.46,10.68-2.11l2.07-.44c.08-.01,.18-.06,.25-.04l.18,.19,.69,.75c.9,.97,1.34,1.57,1.72,2.13,2.25,2.54,1.53,1.84,3.81,4.57,.47,.73,5.88,6.72,6.49,7.53l-.38-.44c2.61,3.19,4.17,5.45,6.7,8.58,3.49,4.37,7.13,8.95,10.71,13.44,.88,1.13,1.77,2.25,2.62,3.38,.43,.56,.85,1.12,1.24,1.67,.09,.13,.23,.3,.28,.39,.06,.1,.13,.19,.19,.29,.09,.15,.16,.46,.24,.79,.61,2.63,1.06,5.32,1.52,7.87,.14,.07-.44-2.25-.3-2.4,.51,3.01,1.14,6.06,1.7,9.07l1.76,9.08c.19,1.1,.4,2.44,.47,2.95,.35,1.94,.29,1.13,.57,2.55l-.07,.21c.51,2.05,.5,3.05,.94,4.99,.07,.09,.22,.8,.35,1.5-.11,.06,.44,2.13,.32,2.05v.02c.1,.42,.16,.71,.25,1.23,.2,.79,2.05,8.13,2.26,8.94l.06,.38c.23,1.11,.41,1.57,.3,.91l.27,1.37-.04-.16,.13,.69c0,.08-.04,.11-.12-.01,.1,.14-.05,.14-.14,.18l-.18,.05-.53,.11,.41-.08c.09-.02,.12-.02,.13-.02h.07l.29-.04c.14,.02,.11-.09,.1-.18l-.02-.3c-.19-1.21-.38-2.44-.56-3.57,.23,.9,.52,2.63,.72,3.55l.04,.46v.12s-.08,.02-.13,.03l-.31,.04-.16,.02-.34,.07-.78,.15c-.52,.1-1.03,.2-1.5,.3-.41,.1-.67,.3-1.63,.45-.48,.02-1.07,.25-1.87,.36,.89-.25,1.78-.43,2.69-.64-.18-.07-2.24,.44-2.97,.57-.33,.11-2.1,.48-3.21,.76,.46-.21-.91,.14-1.58,.23-.75,.16-1.22,.31-.91,.27-.22,.17,2.99-.61,1.97-.26-.29,0-1.75,.36-2.53,.55,0,.06,.55-.08,.05,.1-.88,.19-1.8,.47-2.31,.52,.16-.05,.52-.13,.78-.18-1.14,.25,6.11-1.8,4.63-1.43,.4-.03-6.43,1.84-5.67,1.67,.7-.13-.48,.22,.25,.08l.79-.26c.99-.2,1.42-.19,1.08-.07-1.65,.37,4.6-1.48,3.2-1.1l.58-.1c-.59,.18-2.18,.57-2.81,.65,0,.06-.79,.27-1.46,.44l-.24,.04c-.68,.19-1.65,.39-1.19,.37,4.05-.93-2.54,1.22,1.39,.35-1.68,.24,.53-.26,2.25-.67,.18,0,.96-.1,2.21-.35,1.08-.26,.62-.19,.82-.27,.6-.11,1.75-.34,1.62-.24,.82-.27,1.35-.25,2.36-.51,.88-.24-.07-.02,.55-.21,1.32-.29,3.18-.69,4.23-.93,.22-.02,.61-.05,.9-.07,.29-.01,.46,0,.03,.16-1.09,.24-.89,.15-.72,.08,.16-.08,.31-.14-.72,.1,.94-.06-1.85,.46-2.21,.66,.34-.04,.85-.14,1.42-.26,.59-.14,1.23-.29,1.83-.42l-.26,.04,.98-.24,.14-.03s0-.09,0-.13l-.06-.3c-.04-.2-.09-.41-.13-.61-.18-.85-.31-1.57-.38-2.14,.1,.25,.05-.24,.21,.5l-.27-1.39c-.05-.17-.11-.35-.04,.05-.17-.64-.29-1.3-.36-1.81,.02-.16-1.74-7.32-1.66-7.1-.21-1-.17-1.26-.43-2.22,0-.01,.02,.13,.07,.38,.05,.25,.13,.61,.23,1.05,.2,.86,.46,2.01,.71,3.13,.51,2.22,.99,4.29,.84,3.63-.11-.86-2.59-11.25-2.61-11.89-.16-.74-.35-1.63-.37-1.44-.23-1.25,.18,.35,.05-.55-.01-.02-.01,.08-.07-.21l-.1-.87c-.48-1.92-.95-4.79-1.48-6.8,.18,.58,.42,1.22,.75,2.52l.02,.23c.06,.18,.29,1.25,.34,1.21-.22-1.25-.44-2.31-.77-3.61l-.1-.72s0,.03-.02,.02c-.05-.43-.04-.39,.02-.24l.03,.09c0-.81-1.1-4.85-1.48-7.14-.16-.66-.04-.06-.24-.88-.42-2.33-.71-3.94-1.14-6.37-.23-.76-.27-.81-.15,.14-.12-.61-.23-1.21-.33-1.83,.49,1.64-.45-3.46,.08-1.66-.05-.55-.25-1.65-.48-2.68-.07-.09-.17-.24-.43-1.54-.16-.91-.23-1.26-.29-1.57-.03-.16-.07-.31-.11-.51-.05-.18-.1-.55-.35-.93-.18-.41,.21,.17,.21,.08-.42-.67-.66-.94-.85-1.24-.19-.28-.33-.5-.46-.71-.27-.42-.52-.84-1.19-1.72-.86-1.09-2.55-3.24-2.68-3.22-1.15-1.47-1.09-1.52-.9-1.43Z"/></g><g><path class="c" d="M231.35,78.94c-2.42,.57-4.86,1.07-7.3,1.57l-34.81,7.11c2.01,11.98,4.33,23.9,6.96,35.76l8.5-1.67c8.44-1.66,16.88-3.31,25.29-5.1,8.79-1.87,18.35-3.52,27.08-5.68"/><path class="c" d="M199.98,84.31l-.58,.11c1.86-.39,3.83-.75,5.76-1.1-4.27,.49-9.3,1.18-12.38,2.62-.16-.13-.81-.12-1.58-.06l-.59,.06-.15,.02-.28,.04-.56,.09-2.08,.37c.13,.87,.24,1.48,.28,1.53,.09,.41,.18,.82,.26,1.22l.17,.71c.1,.43,.21,.86,.31,1.29-.14-.59-.27-1.18-.41-1.77,.14,.59,.27,1.18,.41,1.77,1.28,5.46,2.24,11.46,3.31,17.66,.27,1.55,.78,4.28,1.34,7.11,.28,1.42,.56,2.86,.82,4.19,.38,1.87,.73,3.59,1.01,4.96,1.28-.23,2.08-.38,2.77-.51,.54-.09,1.08-.18,1.63-.28-.43,.06-.64,.1-.86,.13l-.35,.05-.77,.13c2.22-.54,4.23-1.04,6.15-1.51-.34,0-.41-.04-1.21,.03l.96-.15c.84-.34,2.85-.74,3.78-1-.19,.13,.56,0,1.22-.12h-.27c2.5-.47,5.38-1.13,7.6-1.57,.31-.06,.55-.08,.7-.07l2.12-.5c-.14,.15,1.79-.25,.79,.03,1.57-.47,3.21-.71,4.7-1.16,5.45-1.11,11.19-2.42,16.78-3.72l-.15-.02c1.96-.47,3.64-1.05,6.05-1.46,1.68-.51,4.08-1.11,4.7-1.52,1.95-.47,2.71-.77,4.6-1.3-.52,0,1.82-.6,.86-.47-1.31,.13-1.34,.3-2.45,.41l.04,.03c-5.07,.99-10.17,1.88-15.34,2.84-3.42,.78-7.18,1.46-10.74,2.23-3.83,.82-7.98,1.74-11.25,2.51-.78,.19-1.37,.2-2.05,.28-3.04,.64-6.87,1.44-10.3,2.16l.17-.03c-1.82,.38-3.21,.52-4.98,.89,.02,.03-.26,.09-.39,.14-.07-.02-.48,.05-1.12,.19-.29,.06-.62,.14-.99,.22l-.47,.13-.13-.4-.04-.11-.08-.29-.16-.61c-.21-.81-.41-1.61-.59-2.32-.36-1.43-.62-2.52-.63-2.72l-.14-.57c-.71-3.76-1.16-7.69-1.81-10.9-.21-.68-.43-1.46-.63-2.03-.04-.58-.2-.67-.31-1.36,0-1.81-.32-2.8-.27-1.88-.31-1.43-.54-2.87-.78-4.15-.13-.59-.26-1.17-.39-1.76-.12-.5-.12-.79-.08-1.06-.27-1.29-.12-.92-.33-2.29,.02-.08-.05-.47-.12-.79-.05-.16-.12-.37-.18-.57,.23-.1,.51-.2,.61-.21l-.11,.04,.46-.08,.53-.08c.34-.04,.67-.08,1.01-.12,.66-.07,1.32-.14,2.08-.3,4.28-.78,8.91-1.82,12.86-2.59,.01-.13-.86,.2-.94,.05,2.33-.45,4.71-.78,7.06-1.24,.43-.05,.96-.1,1.16-.1,.76-.11,.43-.15,.98-.25l.1,.09c.78-.25,1.2-.12,1.95-.32,.03-.05,.31-.11,.57-.17,.04,.11,.83-.18,.81-.06h0c.16-.04,.28-.07,.48-.09,.31-.1,3.08-1.02,3.42-1.13h.15c.43-.1,.6-.23,.34-.2l.53-.1-.06,.02,.53-.11c.1-.01,.22,.02,.08,.1,.29-.11,.62-.2,.93-.24-.85,.11-1.91,.23-2.8,.29,.35-.11,1.01-.18,1.4-.28,.48-.02,1.45-.16,2.2-.27,.16-.04,.25-.2,.63-.22,.2,.05,.42-.09,.74-.09-.34,.12-.69,.18-1.05,.25,.08,.09,.89-.12,1.18-.15,.13-.06,.83-.18,1.25-.3-.17,.14,.37-.01,.64-.01,.3-.05,.47-.13,.35-.14,.07-.13-1.18,.18-.8-.02,.12,.03,.69-.11,1-.18-.01-.06-.22,0-.03-.1,.35-.06,.69-.21,.91-.19-.06,.03-.2,.05-.31,.07,.45-.09-2.34,.91-1.77,.75-.16-.02,2.47-.9,2.17-.84-.28,.03,.17-.15-.12-.11l-.3,.14c-.39,.06-.57-.01-.45-.08,.65-.13-1.74,.81-1.2,.63l-.23,.02c.23-.09,.84-.26,1.1-.25-.01-.06,.3-.15,.56-.23h.1c.26-.1,.64-.17,.45-.21-1.58,.35,.9-.83-.64-.53,.67,0-.18,.18-.86,.34-.08-.03-.39-.03-.88,.04-.42,.1-.24,.1-.31,.15-.24,.02-.69,.09-.65,0-.31,.15-.53,.06-.92,.17-.34,.11,.03,.03-.21,.12-.52,.1-1.25,.24-1.67,.32-.17-.03-.68-.04-.35-.22,.79-.16-.27,.23,.55,.03-.38-.07,.72-.2,.84-.34-.28-.01-.8,.1-1.24,.22h.09c-.39,.1-1.16,.31-1.6,.31,.09-.07-.1-.07,.18-.15l-.54,.1c-.06,.03-.13,.06,.03,.04-.25,.09-.5,.12-.7,.13-.07-.04-2.81,.82-2.73,.76-.39,.08-.5,.02-.86,.15,0,.01,.22-.04,.55-.12,.33-.09,.77-.2,1.21-.31,.86-.23,1.65-.45,1.4-.39-.34,0-4.33,1.17-4.59,1.12-.29,.06-.63,.15-.55,.19-.49,.07,.12-.14-.23-.12,0,.01,.03,.02-.08,.04h-.35c-.74,.24-1.86,.35-2.63,.63,.22-.11,.45-.27,.95-.43h.09c.07-.02,.48-.13,.46-.18-.49,.06-.9,.16-1.4,.31h-.29s.01,.02,.01,.03c-.17,0-.16-.01-.1-.04,0,0,.02-.01,.03-.02-.34-.1-1.87,.49-2.77,.59-.25,.08-.02,.03-.34,.13-.91,.12-1.54,.2-2.49,.35-.29,.13-.3,.17,.07,.16l-.71,.12c.61-.32-1.36,.09-.69-.24-.22,0-.64,.08-1.04,.19-.03,.06-.08,.14-.58,.25-.71,.08-.52,.06-1.13,.13-.15-.03,.06-.1,.02-.15-.87,.26-.8,.02-1.64,.21-.52,.13-1.56,.34-1.56,.46-.71,.14-.73,.06-.67-.04Z"/></g><g><path class="c" d="M69.73,203.27l-2.01,.39c-10.22,1.98-20.28,4.08-30.5,6.06-1.81-7.96-2.38-13.26-3.96-21.61,0,0,17.29-8.18,17.61-8.38s126.69-23.73,126.69-23.73l5.61,25.73-113.44,21.54"/><path class="c" d="M54,180.23l1.41-.26c-1.09,.21-2.19,.41-3.3,.62-.22,.03-.44,.06-.67,.08l-.81,.38-1.63,.77c-2.19,1.02-4.39,2.05-6.58,3.07,2.42-1.06,4.95-2.17,7.48-3.28l.95-.43,.48-.21,.24-.1h.19c.25-.02,.48-.04,.72-.08l.95-.16c1.36-.24,2.7-.48,4.03-.72,5.31-.98,10.31-2.03,14.21-3.17,.94,.26,10.95-1.42,11.13-1.56,2.07-.45,4.15-.91,6.25-1.37-1.45,.31-2.89,.61-4.33,.92,1.44-.3,2.88-.61,4.33-.92,13.34-2.83,27.92-5.41,43.02-8.06,8.37-1.5,31.08-5.56,39.67-7.09,1.24-.22,2.48-.43,3.74-.65q-2.08,.35-4.17,.7c1.3-.27,2.57-.54,3.81-.8l.93-.19,.23-.05c.1-.02,.04-.01,.07-.02l.06-.02s.09-.04,.13-.04l.04,.11c.53,2.23,1.05,4.38,1.55,6.49-.12-.82-.09-.97-.42-2.89l.47,2.33c.63,2.08,1.69,6.96,2.26,9.24-.2-.47,.18,1.34,.51,2.94l-.08-.64c.41,1.88,.84,3.87,1.27,5.87-3.84,.74-7.69,1.48-10.92,2.11-.76,.14-1.33,.22-1.68,.25l-5.2,1.06c.38-.2-4.35,.71-1.87,.17-3.88,.88-7.85,1.55-11.55,2.4-13.3,2.54-27.44,5.32-41.15,8.14l.35-.02c-4.8,.99-9,2.04-14.87,3.07-4.15,.96-10.08,2.17-11.69,2.74-4.82,.95-6.72,1.44-11.43,2.41,1.24-.11-4.57,1.02-2.22,.68,3.17-.42,3.31-.6,6.01-.97l-.09-.03c12.46-2.17,24.92-4.43,37.53-6.76,8.38-1.7,17.52-3.35,26.25-5.04,9.4-1.83,19.56-3.85,27.61-5.48,1.92-.4,3.33-.56,4.98-.81,3.74-.72,7.94-1.53,12.3-2.37-1.1-4.98-2.25-10.17-3.33-15.03,.03,.16,.06,.31,.08,.41-.49-2.21-.89-4.15-1.28-6.08-.2-.96-.4-1.92-.6-2.91-.28-1.3-.57-2.63-.88-4.05,.26-.34-.98,.01-1.51,.11-.08,0-1.18,.19-1.77,.3-.75,.14-1.79,.34-3.02,.58-2.45,.49-5.66,1.13-8.91,1.78-6.48,1.31-13.05,2.64-13.82,2.73-.45,.09-.92,.18-1.39,.28-9.19,1.64-18.73,3.08-26.6,4.58-1.69,.4-3.58,.84-5.03,1.18-1.41,.19-1.65,.38-3.33,.67-4.32,.46-6.79,1.07-4.57,.78-3.5,.7-7.02,1.33-10.13,1.92-1.44,.3-2.87,.59-4.32,.89-1.23,.26-1.93,.34-2.57,.38-3.16,.64-2.24,.38-5.56,.97-.82,.03-8.29,1.74-9.23,1.89l.54-.12c-3.84,.7-6.43,.95-10.19,1.65-2.61,.48-5.28,.97-7.96,1.46-1.34,.25-2.69,.51-4.03,.76l-2.02,.39-1.03,.2c-.42,.09-.85,.19-1.27,.29-.46,.1-.74,.25-1.04,.4l-.91,.44c-.61,.29-1.21,.58-1.82,.87-1.21,.57-2.4,1.14-3.58,1.71-2.37,1.12-4.67,2.21-6.88,3.26-.03,.15,1.93-.95,2.11-.85-1.31,.61-2.61,1.22-3.93,1.83l-1.1,.51-.84,.39-.42,.2-.21,.1-.11,.05s0,.07,.01,.1l.51,2.95,1.37,8.64c.14,1.05,.3,2.34,.35,2.82,.29,1.86,.26,1.08,.49,2.44l-.07,.2c.24,.98,.35,1.71,.46,2.42,.14,.81,.13,1.04,.63,3.15,.04,.08,.13,.44,.25,.94l.05,.19,.02,.1s.06,0,.1,0l.44-.09c.3-.06,.62-.12,.94-.19,0,.03,.26,0,.63-.07,.31-.06,.7-.14,1.09-.21,.49-.1,.96-.2,.92-.14h.02c.4-.09,.68-.15,1.16-.23,.75-.19,7.7-1.92,8.47-2.11l.36-.05c1.05-.21,1.49-.39,.87-.29l1.3-.25-.15,.04,1.29-.25c.24-.04,.52-.04,.16,.09,.72-.19,1.54-.37,2.28-.5-2.05,.33-4.6,.73-6.75,1.04,.87-.21,2.46-.47,3.4-.67,1.15-.15,3.49-.54,5.31-.85,.4-.09,.65-.27,1.56-.39,.46,0,1.02-.21,1.78-.29-.85,.22-1.7,.37-2.58,.53,.17,.08,2.14-.35,2.84-.46,.32-.1,2.01-.4,3.07-.64-.44,.19,.87-.1,1.51-.17,.72-.13,1.17-.26,.87-.24,.21-.16-2.86,.5-1.88,.18,.27,0,1.67-.3,2.42-.45,0-.06-.52,.06-.05-.1,.84-.15,1.72-.4,2.21-.43-.15,.05-.5,.1-.75,.15,1.09-.21-5.84,1.56-4.43,1.25-.38,.01,6.15-1.59,5.42-1.44-.67,.1,.46-.2-.24-.09l-.75,.22c-.95,.16-1.35,.13-1.03,.02,1.58-.3-4.4,1.3-3.06,.97l-.55,.08c.56-.15,2.08-.49,2.69-.54,0-.06,.76-.24,1.39-.38l.23-.03c.65-.16,1.58-.32,1.14-.32-3.87,.76,2.43-1.1-1.33-.41,1.6-.17-.5,.23-2.15,.58-.17-.01-.91,.07-2.11,.27-1.03,.21-.6,.17-.78,.24-.58,.08-1.67,.27-1.54,.18-.78,.24-1.29,.2-2.24,.42-.84,.21,.06,.02-.53,.18-1.27,.24-3.05,.58-4.07,.77-.4,.01-1.62,.13-.77-.14,1.93-.37-.7,.31,1.3-.11-.89,.02,1.76-.39,2.11-.58-.65,.06-1.95,.32-3.02,.55l.22-.02c-.95,.21-2.85,.62-3.9,.74,.23-.1-.23-.05,.47-.2l-1.31,.25c-.16,.05-.33,.1,.05,.04-.61,.16-1.24,.26-1.72,.33-.15-.03-6.94,1.62-6.73,1.54-.95,.19-1.19,.15-2.1,.39-.01,0,.12-.02,.36-.07l.99-.21c.82-.18,1.91-.42,2.96-.66,2.11-.47,4.07-.92,3.44-.78-.41,.05-3.08,.65-5.72,1.24-1.31,.29-2.61,.58-3.62,.8l-.68,.14c-.11-.1-.11-.36-.16-.49-.07-.31-.11-.53-.11-.6-.15-.65-.34-1.53-.36-1.34-.22-1.19,.18,.33,.06-.52-.01-.02-.01,.07-.07-.19l-.09-.82c-.46-1.82-.83-4.54-1.27-6.46,.16,.55,.37,1.17,.64,2.4v.22c.06,.17,.26,1.19,.31,1.15-.18-1.18-.37-2.19-.63-3.43-.02-.23-.05-.5-.07-.68,0,0,0,.03-.02,.02-.03-.41-.02-.37,.03-.23l.03,.08c.04-.77-.87-4.63-1.16-6.81-.13-.63-.04-.05-.21-.84-.14-.98-.27-1.8-.39-2.64,0-.02,0-.05,0-.06l.06-.02,.12-.05,.23-.1,.51-.22c.47-.21,.96-.43,1.49-.67,.65-.39,.69-.44-.17-.12l1.61-.74c-1.37,.86,3.07-1.26,1.56-.32,.49-.18,1.45-.63,2.34-1.09,.07-.09,.17-.22,1.3-.76,1.6-.69,1.21-.52,2.55-1.1,.34-.09-.13,.16-.05,.18,1.97-1.03,1.82-.72,3.71-1.63l2.2-1.09c.66-.16,1.12-.23,1.14-.31,1.69-.32,1.73-.24,1.57-.12Z"/></g><g><path class="d" d="M86.24,178.44c-10.45,5.39-15.38,17.68-15.42,24.06-.04,4.92,.81,8.17,2.78,12.49,3.66,8.04,10.23,13.43,18.9,15.18,7.66,1.55,17.26-.16,22.94-5.52,3.15-2.97,5.26-6.11,6.89-10.12,1-2.45,1.85-4.98,2.26-7.6,1.23-7.95-1.97-16.3-7.75-21.89-5.78-5.59-12.29-8.67-20.33-8.69l-10.27,2.09Z"/><path class="d" d="M70.9,211.12c.07,.24,.14,.47,.22,.7-.8-2.23-1.23-4.76-1.3-7.2-.08,2.65,.36,5.68,1.34,8.28,.94,2.58,2.26,4.9,3.72,6.41-.07,.3,.58,1.58,1.4,2.7,.79,1.14,1.73,2.12,1.81,2.11,.83,.72,1.7,1.41,2.61,2.06-.63-.44-1.22-.93-1.81-1.41,.59,.48,1.18,.96,1.81,1.41,2.87,2.06,6.21,3.64,9.82,4.63,3.61,.98,7.51,1.3,11.41,.93,2.15-.21,6.21-.94,9.89-2.87,1.84-.93,3.57-2.19,4.92-3.46,1.32-1.24,2.38-2.44,3.09-3.33,.41-.52,.8-1.04,1.17-1.59q-.64,.89-1.34,1.75c1.6-2.26,2.7-4.52,3.56-6.73-.22,.36-.3,.41-.79,1.27,.19-.36,.36-.72,.54-1.08,.29-1.07,1.18-3.4,1.44-4.56,.01,.27,.31-.61,.53-1.41l-.14,.3c.44-1.5,.73-3.2,.84-4.87,.13-1.67,0-3.29-.16-4.69-.05-.39-.06-.69-.06-.87-.18-.89-.37-1.77-.64-2.63,.08,.09-.02-.47-.13-.88-.11-.41-.19-.69,.05-.09-.73-1.89-1.48-3.82-2.57-5.42-1.7-2.97-4.09-5.71-6.84-7.9-2.73-2.24-5.87-4.08-9.21-5.17l.15,.1c-2.35-.74-4.49-1.05-7.41-1.36-2.15-.23-5.02,.76-5.78,1.12-2.36,.52-3.28,.84-5.59,1.37,.62,0-2.22,.61-1.06,.47,1.58-.14,1.63-.3,2.97-.43l-.05-.03c1.54-.27,3.07-.54,4.6-.81l2.3-.41,.29-.05c.09-.01,.08-.02,.12-.01l.51,.03c.38,.02,.75,.02,1.13,.07,3,.24,5.93,.97,8.68,2.18,3.72,1.49,7.3,4.28,10.17,7.33,1.52,1.65,2.89,3.58,3.95,5.58,1.07,2,1.81,4.09,2.27,5.97,.24,.9,.22,1.58,.26,2.36,.22,1.76,.24,3.79-.08,5.83-.32,2.05-.94,4.12-1.64,6.05l.07-.19c-.76,2.06-1.52,3.48-2.55,5.29,.04,.01-.12,.29-.19,.43-.16,.11-1.69,2.79-3.91,5.04-2.1,2.32-4.98,3.79-5.32,3.91l-.61,.3c-4.12,1.76-8.83,2.03-12.59,1.86-.42,.01-.85,.02-1.28,.03-.41,0-.81-.01-1.18-.01-.66-.16-.8-.06-1.6-.22-1.95-.76-3.1-1.04-2.12-.6-1.65-.41-3.22-1.07-4.56-1.75-.64-.27-1.24-.63-1.87-.95-.52-.3-.77-.53-.97-.77-.64-.41-.84-.6-1.05-.78-.21-.18-.42-.38-1.01-.92-.12-.16-.88-.8-1.63-1.48-.36-.36-.73-.71-1.02-1-.27-.31-.48-.54-.55-.64l.18,.19c-1.15-1.46-1.65-2.62-2.51-4.2-1.14-2.21-2.22-4.72-2.86-7.16-.65-2.45-.83-5.02-.72-7.31-.13-.06-.02,.99-.16,1.06,0-2.68,.82-5.36,1.81-7.93,.22-.45,.48-1,.62-1.19,.41-.78,.16-.5,.44-1.08l.14-.03c.32-.89,.74-1.17,1.1-1.98-.02-.06,.15-.34,.31-.61,.11,.05,.49-.84,.56-.74h0c.1-.18,.16-.29,.31-.47,.09-.15,.51-1,1.01-1.79,.49-.8,1.01-1.59,1.13-1.73l.13-.11c.34-.38,.42-.6,.2-.39l.42-.46-.04,.06c.14-.16,.28-.3,.44-.44,.09-.07,.22-.12,.13,.04,.22-.27,.49-.56,.76-.79l-1.23,1.02-1.22,1.11c.25-.34,.81-.88,1.11-1.23,.45-.33,1.29-1.09,1.99-1.61,.14-.13,.16-.31,.53-.55,.22-.06,.38-.32,.7-.5-.29,.3-.62,.55-.94,.81,.13,.04,.83-.6,1.11-.77,.11-.12,.79-.55,1.19-.86-.12,.22,.36-.2,.66-.29,.3-.16,.47-.3,.33-.26,.02-.08-.28,.08-.55,.21-.26,.14-.47,.28-.31,.09,.12-.04,.7-.38,1.01-.57-.03-.06-.24,.08-.06-.09,.36-.19,.69-.47,.92-.53-.06,.05-.21,.13-.31,.18,.23-.13-.34,.32-.89,.74-.56,.4-1.02,.91-.77,.69-.23,0,2.36-1.83,2.06-1.67-.29,.13,.15-.21-.15-.07l-.29,.25c-.4,.21-.62,.21-.5,.09,.34-.19-.09,.18-.52,.53-.44,.34-.83,.77-.59,.55l-.23,.13c.1-.09,.3-.26,.5-.4,.22-.13,.44-.25,.58-.29-.03-.05,.28-.26,.54-.43l.1-.05c.26-.19,.65-.4,.44-.36-1.63,.95,.8-1.17-.82-.28,.74-.27-.16,.25-.86,.67-.09,0-.45,.12-.94,.44-.41,.3-.22,.21-.28,.3-.25,.14-.71,.43-.69,.33-.28,.29-.54,.34-.89,.67-.3,.3,.04,.01-.16,.23-.25,.2-.54,.44-.83,.66-.27,.25-.52,.48-.71,.65-.19,.09-.7,.42-.46,.04,.71-.66-.15,.38,.56-.34-.41,.19,.6-.66,.69-.84-.31,.14-.77,.61-1.15,1l.09-.06c-.34,.34-1,1.04-1.39,1.39,.04-.13-.14,.02,.09-.26l-.45,.49c-.04,.07-.09,.15,.05,.02-.18,.26-.41,.48-.59,.64-.04,.01-.54,.75-1.02,1.46-.46,.73-.86,1.46-.85,1.4-.27,.39-.41,.44-.6,.87,.06-.1,.58-.94,1.14-1.86,.59-.89,1.18-1.7,.99-1.45-.15,.14-.95,1.24-1.63,2.4-.69,1.15-1.29,2.33-1.4,2.43-.16,.31-.35,.7-.26,.65-.3,.51-.01-.21-.26,.14,0,.01,.04-.02-.02,.1l-.25,.33c-.33,.87-1,2.06-1.22,3.02,.05-.28,.05-.63,.24-1.23l.07-.09c.02-.09,.22-.57,.16-.58-.29,.52-.48,1-.65,1.61l-.17,.3s.02,0,.02,0c-.11,.18-.11,.16-.1,.08,0-.01,0-.02,0-.05-.32,.29-.68,2.26-1.02,3.3-.06,.32,.02,.04-.05,.43-.14,.54-.26,1.01-.39,1.47-.09,.47-.18,.96-.27,1.55,.05,.39,.08,.42,.18-.03l-.07,.89c-.07-.41-.15,0-.21,.42-.04,.4-.09,.8-.19,.35-.05,.26-.05,.79,0,1.29,.05,.05,.13,.12,.16,.75,0,.88,0,.67,.02,1.4-.04,.18-.1-.08-.14-.05,.22,1.11-.02,1,.18,2.06,.14,.66,.48,1.94,.6,1.94,.24,.87,.18,.89,.06,.83Z"/></g><g><path class="b" d="M100.55,193.98c2.37,.63,4.57,2.03,5.92,4.08,.48,.73,.84,1.52,1.16,2.33,.61,1.54,.67,4.92,.11,7.24s-2.97,7.02-9.4,7.02c-8.19,0-11.96-6.91-11.42-10.55,.41-2.09,.69-9.49,8.96-10.51,1.57-.11,3.15-.02,4.67,.38Z"/><path class="b" d="M106.97,205.4l-.03,.26c.07-.84,.13-1.74,.12-2.61-.13,.96-.34,1.99-.48,2.94-.07,.47-.13,.92-.15,1.34-.03,.4-.02,.8,.02,1.2-.22,0-.55,.36-.85,.7-.29,.35-.56,.67-.52,.72-.14,.32-.31,.65-.52,.94,.15-.2,.28-.41,.4-.63-.11,.22-.25,.43-.4,.63-.65,.96-1.67,1.71-2.86,2.12-1.19,.42-2.54,.52-3.88,.36-.75-.04-2.13-.28-3.39-.78-1.27-.49-2.36-1.32-2.86-1.86-.15-.15-.31-.28-.45-.45,.22,.28,.24,.26,.48,.52-.78-.47-1.38-1.05-1.93-1.64,.03,.15,0,.2,.15,.52l-.23-.35c-.37-.21-.83-.97-1.07-1.33,.13,.04-.02-.26-.1-.53v.13c-.43-1.01-.77-2.28-.67-3.14,.01-.13,.04-.19,.09-.26l.1-1.04c.11,.1,.24-.8,.24-.32-.01-.76,.22-1.47,.28-2.17,.35-1.19,.86-2.35,1.61-3.36,.75-1.01,1.75-1.84,2.9-2.43l-.08-.02c.79-.44,1.54-.9,2.68-1,.78-.32,1.97-.35,2.32-.59,.97,.03,1.38-.05,2.35,.08-.21-.19,.96,.08,.52-.13-.6-.33-.67-.19-1.2-.43v.05c-1.29-.3-2.57-.43-3.95-.35-1.36,.15-2.72,.44-4,1.07-1.66,.92-3.23,2.42-4.13,4.16-.97,1.86-1.31,4.07-1.43,5.66-.01,.19-.06,.34-.11,.49-.05,.15-.11,.36-.15,.55-.03,.93,.1,1.87,.39,2.79,.27,.93,.7,1.81,1.2,2.57l-.04-.08c.53,.8,.85,1.47,1.52,2.14,.02-.03,.13,.08,.19,.11-.01,.12,1.03,1.07,2.28,1.72,1.24,.66,2.6,1.02,2.73,1.12l.29,.06c1.82,.63,3.84,1.11,5.56,.87,.36-.14,.76-.24,1.05-.41,.31,0,.33-.15,.69-.22,.99,.05,1.47-.31,.96-.24,.7-.32,1.38-.67,1.95-1.05,.24-.21,.48-.41,.7-.64,.18-.2,.32-.26,.48-.3,.46-.52,.37-.32,.89-.84,.09-.04,.37-.41,.56-.83,.22-.41,.37-.84,.44-.92l-.04,.11c.41-.71,.86-1.12,1.13-1.93,.72-2.26,.68-4.59,.47-6.68-.13,0,.09,.46-.08,.5-.05-.61-.1-1.22-.25-1.9-.1-.37-.19-.65-.29-.93-.1-.29-.22-.57-.35-.85-.07-.22-.15-.49-.17-.61-.16-.38-.17-.18-.32-.45l.07-.09c-.32-.33-.27-.63-.57-.94-.05,.01-.15-.11-.25-.23,.08-.08-.31-.35-.22-.4h0c-.06-.07-.11-.11-.18-.2-.14-.14-1.57-.93-1.74-.95l-.05-.06c-.19-.13-.32-.12-.22-.02l-.23-.16h.03l-.23-.15s-.06-.11,.04-.12c-.16-.05-.33-.12-.46-.22,.35,.28,.77,.67,1.06,1.04-.18-.08-.42-.33-.6-.42-.16-.2-.56-.51-.89-.74-.08-.04-.19,.06-.34-.08-.05-.12-.2-.09-.32-.22,.19,.03,.35,.13,.52,.22,.02-.11-.39-.27-.52-.35-.08,0-.41-.17-.64-.22,.13-.06-.15-.13-.27-.22-.15-.06-.25-.05-.2,0-.08,.09,.57,.26,.32,.3-.03-.07-.33-.15-.49-.2-.02,.06,.09,.08-.03,.1-.17-.07-.37-.04-.46-.14,.04,0,.11,.02,.16,.04-.23-.09,1.35,0,1.05-.04,.06,.05-1.41-.07-1.25-.01,.13,.07-.13,.08,0,.14l.18-.03c.19,.08,.23,.2,.15,.22-.32-.12,1.04-.1,.75-.13l.1,.07c-.13-.01-.45-.08-.55-.18-.02,.06-.18,.02-.32,.01l-.04-.02c-.14,0-.33-.08-.26,.03,.78,.21-.67,.45,.06,.7-.27-.21,.14-.11,.47-.01,.02,.06,.14,.16,.35,.28,.2,.06,.13,0,.18-.02,.1,.07,.29,.18,.24,.23,.18-.01,.22,.15,.4,.21,.17,.04,0-.04,.13-.02,.23,.12,.54,.3,.71,.42,.04,.1,.18,.32-.02,.32-.32-.2,.21-.07-.14-.25,.08,.21-.33-.13-.45-.06,.08,.12,.3,.23,.49,.33l-.03-.04c.17,.07,.51,.25,.63,.43-.07,.02-.02,.1-.14,.03l.2,.15s.07,0,.02-.04c.12,.04,.21,.12,.26,.21,0,.04,1.19,.69,1.13,.71,.13,.13,.1,.22,.27,.32,.02,0-.31-.31-.65-.54-.34-.24-.68-.43-.58-.36,.05,.07,.49,.34,.9,.66,.41,.32,.78,.69,.77,.77,.09,.1,.2,.23,.22,.17,.11,.21-.13,0-.08,.17,0,0,.02-.03,.04,.02l.03,.17c.28,.24,.44,.76,.71,1.04-.1-.07-.26-.13-.42-.31v-.05s-.14-.18-.19-.15c.08,.21,.18,.37,.34,.56l.02,.14s.01-.01,.02-.01c0,.09,0,.08-.04,.06,0,0-.01,0-.02,0-.08,.19,.47,.76,.54,1.19,.06,.1,.03,0,.11,.12,.06,.4,.07,.68,.1,1.11,.09,.12,.12,.13,.17-.05,.01,.11,.02,.22,.02,.33-.22-.27-.11,.63-.34,.32-.04,.1-.02,.29,.02,.47,.05,.01,.13,.04,.14,.27-.05,.33-.03,.25-.08,.52-.06,.06-.09-.03-.14-.02,.08,.41-.13,.36-.13,.74,.02,.24,0,.71,.11,.73-.03,.32-.11,.32-.2,.28Z"/></g><g><path class="d" d="M214.71,153.97c-10.45,5.39-15.38,16.51-15.42,22.89-.04,4.92,.81,8.17,2.78,12.49,3.66,8.04,10.23,13.43,18.9,15.18,7.66,1.55,17.26-.16,22.94-5.52,3.15-2.97,5.26-6.11,6.89-10.12,1-2.45,1.85-4.98,2.26-7.6,1.23-7.95-1.97-16.3-7.75-21.89-5.78-5.59-12.29-7.49-20.33-7.51,0,0-6.14,.18-10.27,2.09Z"/><path class="d" d="M199.6,186.15l.23,.69c-.83-2.19-1.36-4.68-1.48-7.11-.02,2.65,.53,5.63,1.55,8.17,.96,2.53,2.32,4.84,3.81,6.29-.05,.3,.62,1.55,1.44,2.65,.41,.55,.86,1.06,1.2,1.45,.36,.37,.61,.6,.65,.6,.83,.7,1.71,1.37,2.63,1.98-.64-.42-1.23-.89-1.83-1.35,.59,.47,1.19,.93,1.83,1.35,5.75,3.96,13.4,6.05,21.16,5.16,1.07-.11,2.6-.37,4.33-.82,1.72-.47,3.64-1.17,5.45-2.14,1.81-.95,3.52-2.24,4.83-3.49,1.3-1.24,2.34-2.44,3.04-3.33,.41-.51,.78-1.04,1.16-1.59q-.63,.89-1.32,1.74c1.57-2.25,2.64-4.5,3.48-6.7-.22,.36-.29,.4-.78,1.26,.18-.35,.36-.71,.53-1.07,.28-1.06,1.16-3.37,1.41-4.53,.01,.27,.31-.61,.53-1.4l-.14,.3c.91-2.99,1.04-6.73,.65-9.48-.05-.39-.06-.68-.05-.86-.18-.88-.37-1.75-.64-2.6,.08,.09-.02-.46-.13-.87-.11-.41-.19-.69,.05-.09-.73-1.88-1.47-3.79-2.54-5.38-1.7-2.94-4.01-5.69-6.8-7.85-2.77-2.19-6.05-3.79-9.44-4.59l.15,.09c-2.38-.56-4.51-.67-7.42-.89-2.1-.03-5.04,.4-5.8,.79-1.17,.19-1.98,.39-2.77,.62-.79,.23-1.56,.48-2.62,.9,.3-.04-.21,.17-.63,.4-.42,.21-.81,.44-.26,.24,1.42-.41,1.46-.55,2.72-.78l-.05-.03c1.44-.34,2.93-.57,4.43-.71,.75-.07,1.5-.13,2.25-.16l.55-.02,.53,.02,1.12,.05c3.01,.18,6,.64,8.8,1.64,3.8,1.16,7.44,3.72,10.22,6.8,1.51,1.64,2.86,3.56,3.91,5.55,1.06,1.99,1.79,4.05,2.25,5.92,.24,.89,.22,1.57,.26,2.34,.23,1.74,.25,3.76-.06,5.78-.3,2.03-.92,4.09-1.6,6.01l.07-.19c-.75,2.05-1.5,3.46-2.51,5.26,.04,0-.12,.29-.19,.43-.15,.12-1.66,2.77-3.84,5.03-2.05,2.35-4.89,3.82-5.23,3.96-.19,.1-.39,.2-.6,.3-4.07,1.78-8.73,2.12-12.46,2-.82,.04-1.74,.06-2.44,.05-.66-.14-.8-.03-1.59-.19-1.94-.71-3.09-.97-2.12-.55-1.64-.39-3.21-1.03-4.56-1.66-.63-.28-1.26-.57-1.87-.91-.53-.26-.77-.51-.98-.73-.65-.39-.86-.56-1.06-.75-.21-.18-.44-.38-1.02-.89-.11-.17-.9-.76-1.64-1.44-.75-.67-1.47-1.39-1.59-1.58l.18,.19c-1.17-1.43-1.66-2.58-2.57-4.11-1.17-2.17-2.27-4.63-2.98-7.05-.72-2.43-.95-4.92-.92-7.25-.13-.05,.03,1.02-.12,1.08-.05-1.4,.09-2.66,.39-3.99,.27-1.32,.75-2.6,1.21-3.88,.22-.44,.51-.97,.63-1.17,.39-.78,.16-.49,.45-1.06l.14-.03c.31-.89,.74-1.14,1.12-1.93-.02-.07,.13-.35,.31-.6,.11,.05,.51-.81,.58-.71h0c.1-.17,.16-.29,.31-.46,.09-.15,.54-.96,1.04-1.75,.52-.77,1.04-1.55,1.17-1.69l.13-.11c.34-.37,.43-.59,.21-.39l.43-.45-.04,.06c.14-.15,.29-.3,.44-.43,.09-.07,.22-.12,.13,.04,.23-.27,.5-.55,.78-.77-.38,.3-.81,.64-1.25,.98-.41,.36-.84,.72-1.24,1.07,.26-.33,.83-.84,1.14-1.18,.45-.32,1.31-1.05,2.01-1.55,.14-.12,.16-.31,.54-.53,.22-.06,.38-.31,.7-.48-.29,.3-.62,.53-.95,.79,.13,.04,.84-.58,1.12-.75,.11-.11,.79-.53,1.2-.84-.12,.22,.36-.19,.66-.28,.3-.16,.47-.3,.33-.26,.02-.08-.28,.08-.55,.21-.26,.14-.47,.27-.31,.08,.12-.04,.7-.37,1.01-.56-.03-.06-.24,.08-.06-.09,.36-.19,.69-.46,.92-.52-.06,.05-.21,.12-.31,.18,.23-.13-.34,.31-.89,.73-.56,.4-1.03,.89-.77,.68-.22,0,2.37-1.81,2.07-1.65-.29,.13,.15-.21-.15-.07l-.29,.25c-.4,.2-.62,.2-.5,.09,.33-.18-.09,.18-.52,.53-.44,.34-.84,.76-.59,.54l-.23,.12c.2-.2,.8-.61,1.09-.68-.03-.05,.28-.25,.54-.43l.1-.04c.26-.18,.65-.39,.44-.36-1.63,.94,.79-1.16-.82-.29,.74-.26-.16,.25-.86,.66-.09,0-.45,.11-.94,.42-.41,.29-.22,.21-.28,.29-.25,.13-.71,.41-.69,.31-.28,.28-.54,.33-.9,.65-.3,.29,.04,.01-.16,.23-.25,.19-.55,.42-.83,.64-.27,.24-.53,.46-.72,.63-.19,.08-.7,.4-.46,.03,.72-.64-.16,.37,.56-.32-.41,.18,.61-.64,.7-.82-.31,.13-.77,.58-1.16,.96l.09-.06c-.35,.33-1.01,1.01-1.41,1.34,.05-.13-.14,.01,.09-.25l-.46,.47c-.05,.07-.09,.15,.05,.02-.18,.26-.42,.46-.6,.62-.04,0-.56,.72-1.06,1.42-.46,.72-.89,1.43-.88,1.37-.28,.38-.4,.43-.61,.85,0,.02,.14-.22,.36-.57,.23-.34,.53-.8,.82-1.24,.59-.88,1.22-1.65,1.01-1.41-.16,.13-.97,1.21-1.68,2.33-.7,1.13-1.33,2.28-1.43,2.38-.17,.31-.36,.68-.27,.64-.31,.5,0-.21-.26,.14,0,.01,.04-.02-.03,.1-.09,.11-.18,.21-.26,.32-.16,.44-.41,.94-.67,1.46-.23,.52-.45,1.06-.58,1.53,.05-.28,.07-.61,.26-1.21l.07-.09c0-.09,.21-.56,.16-.57-.3,.52-.46,1-.65,1.6l-.17,.3s.02,0,.02,0c-.1,.18-.1,.16-.1,.08,0-.01,0-.02,0-.05-.14,.15-.31,.71-.49,1.36-.16,.66-.33,1.4-.49,1.93-.04,.32,.02,.04-.03,.43-.16,.54-.27,1-.35,1.47-.1,.47-.17,.96-.21,1.55,.05,.38,.08,.41,.18-.04-.03,.3-.05,.59-.05,.88-.21-.8-.16,1.64-.37,.76-.04,.26-.03,.79,.03,1.28,.05,.05,.13,.12,.18,.74,.02,.87,.02,.66,.05,1.39-.04,.18-.1-.08-.15-.04,.25,1.1,0,.99,.24,2.03,.16,.65,.53,1.91,.65,1.91,.26,.85,.2,.87,.08,.82Z"/></g><g><path class="b" d="M229.02,168.34c2.37,.63,4.57,2.03,5.92,4.08,.48,.73,.84,1.52,1.16,2.33,.61,1.54,.67,4.92,.11,7.24s-2.97,7.02-9.4,7.02c-8.19,0-11.96-6.91-11.42-10.55,.41-2.09,.69-9.49,8.96-10.51,1.57-.11,3.15-.02,4.67,.38Z"/><path class="b" d="M235.45,179.76l-.03,.26c.07-.84,.13-1.74,.12-2.61-.13,.96-.34,1.99-.48,2.94-.07,.47-.13,.92-.15,1.34-.03,.4-.02,.8,.02,1.2-.22,0-.55,.36-.85,.7-.29,.35-.56,.67-.52,.72-.14,.32-.31,.65-.52,.94,.15-.2,.28-.41,.4-.63-.11,.22-.25,.43-.4,.63-.65,.96-1.67,1.71-2.86,2.12-1.19,.42-2.54,.52-3.88,.36-.75-.04-2.13-.28-3.39-.78-1.27-.49-2.36-1.32-2.86-1.86-.15-.15-.31-.28-.45-.45,.22,.28,.24,.26,.48,.52-.78-.47-1.38-1.05-1.93-1.64,.03,.15,0,.2,.15,.52l-.23-.35c-.37-.21-.83-.97-1.07-1.33,.13,.04-.02-.26-.1-.53v.13c-.43-1.01-.77-2.28-.67-3.14,.01-.13,.04-.19,.09-.26l.1-1.04c.11,.1,.24-.8,.24-.32-.01-.76,.22-1.47,.28-2.17,.35-1.19,.86-2.35,1.61-3.36,.75-1.01,1.75-1.84,2.9-2.43l-.08-.02c.79-.44,1.54-.9,2.68-1,.78-.32,1.97-.35,2.32-.59,.97,.03,1.38-.05,2.35,.08-.21-.19,.96,.08,.52-.13-.6-.33-.67-.19-1.2-.43v.05c-1.29-.3-2.57-.43-3.95-.35-1.36,.15-2.72,.44-4,1.07-1.66,.92-3.23,2.42-4.13,4.16-.97,1.86-1.31,4.07-1.43,5.66-.01,.19-.06,.34-.11,.49-.05,.15-.11,.36-.15,.55-.03,.93,.1,1.87,.39,2.79,.27,.93,.7,1.81,1.2,2.57l-.04-.08c.53,.8,.85,1.47,1.52,2.14,.02-.03,.13,.08,.19,.11-.01,.12,1.03,1.07,2.28,1.72,1.24,.66,2.6,1.02,2.73,1.12l.29,.06c1.82,.63,3.84,1.11,5.56,.87,.36-.14,.76-.24,1.05-.41,.31,0,.33-.15,.69-.22,.99,.05,1.47-.31,.96-.24,.7-.32,1.38-.67,1.95-1.05,.24-.21,.48-.41,.7-.64,.18-.2,.32-.26,.48-.3,.46-.52,.37-.32,.89-.84,.09-.04,.37-.41,.56-.83,.22-.41,.37-.84,.44-.92l-.04,.11c.41-.71,.86-1.12,1.13-1.93,.72-2.26,.68-4.59,.47-6.68-.13,0,.09,.46-.08,.5-.05-.61-.1-1.22-.25-1.9-.1-.37-.19-.65-.29-.93-.1-.29-.22-.57-.35-.85-.07-.22-.15-.49-.17-.61-.16-.38-.17-.18-.32-.45l.07-.09c-.32-.33-.27-.63-.57-.94-.05,.01-.15-.11-.25-.23,.08-.08-.31-.35-.22-.4h0c-.06-.07-.11-.11-.18-.2-.14-.14-1.57-.93-1.74-.95l-.05-.06c-.19-.13-.32-.12-.22-.02l-.23-.16h.03l-.23-.15s-.06-.11,.04-.12c-.16-.05-.33-.12-.46-.22,.35,.28,.77,.67,1.06,1.04-.18-.08-.42-.33-.6-.42-.16-.2-.56-.51-.89-.74-.08-.04-.19,.06-.34-.08-.05-.12-.2-.09-.32-.22,.19,.03,.35,.13,.52,.22,.02-.11-.39-.27-.52-.35-.08,0-.41-.17-.64-.22,.13-.06-.15-.13-.27-.22-.15-.06-.25-.05-.2,0-.08,.09,.57,.26,.32,.31-.03-.07-.33-.15-.49-.2-.02,.06,.09,.08-.03,.1-.17-.07-.37-.04-.46-.14,.04,0,.11,.02,.16,.04-.23-.09,1.35,.01,1.05-.04,.06,.05-1.41-.07-1.25-.01,.13,.07-.13,.08,0,.14l.18-.03c.19,.08,.23,.2,.15,.22-.32-.12,1.04-.1,.75-.13l.1,.07c-.13-.01-.45-.08-.55-.18-.02,.06-.18,.02-.32,.01l-.04-.02c-.14,0-.33-.08-.26,.03,.78,.21-.67,.45,.06,.7-.27-.21,.14-.11,.47-.01,.02,.06,.14,.16,.35,.28,.2,.06,.13,0,.18-.02,.1,.07,.29,.18,.24,.23,.18-.01,.22,.15,.4,.21,.17,.04,0-.04,.13-.02,.23,.12,.54,.3,.71,.42,.04,.1,.18,.32-.02,.32-.32-.2,.21-.07-.14-.25,.08,.21-.33-.13-.45-.06,.08,.12,.3,.23,.49,.33l-.03-.04c.17,.07,.51,.25,.63,.43-.07,.02-.02,.1-.14,.03l.2,.15s.07,0,.02-.04c.12,.04,.21,.12,.26,.21,0,.04,1.19,.69,1.13,.71,.13,.13,.1,.22,.27,.32,.02,0-.31-.31-.65-.54-.34-.24-.68-.43-.58-.36,.05,.07,.49,.34,.9,.66,.42,.32,.78,.69,.77,.77,.09,.1,.2,.23,.22,.17,.11,.21-.13,0-.08,.17,0,0,.02-.03,.04,.02l.03,.17c.28,.24,.44,.76,.71,1.04-.1-.07-.26-.13-.42-.31v-.05s-.14-.18-.19-.15c.08,.21,.18,.37,.34,.56l.02,.14s.01-.01,.02-.01c0,.09,0,.08-.04,.06,0,0-.01,0-.02,0-.08,.19,.47,.76,.54,1.19,.06,.1,.03,0,.11,.12,.06,.4,.07,.68,.1,1.11,.09,.12,.12,.13,.17-.05,.01,.11,.02,.22,.02,.33-.22-.27-.11,.63-.34,.32-.04,.1-.02,.29,.02,.47,.05,.01,.13,.04,.14,.27-.05,.33-.03,.25-.08,.52-.06,.06-.09-.03-.14-.02,.08,.41-.13,.36-.13,.74,.02,.24,0,.71,.11,.73-.03,.32-.11,.32-.2,.28Z"/></g><g><path class="d" d="M179.77,160.63c-14.95,2.47-25.65,5.58-38.48,7.54-35.67,5.44-71.16,14.29-108.15,20.54-7.93-45.49-15.24-72.02-23.62-111.88,24.27-5.99,148.14-28.51,148.14-28.51,0,0,2.51,13.87,3.37,18.2l3.4,17.21,6.86,34.75c2.58,13.07,5.9,29.08,8.48,42.15Z"/><path class="d" d="M62.81,181.95l-2.15,.42c6.96-1.38,14.28-2.84,21.5-4.27-7.89,1.38-16.48,2.92-24.59,4.54-8.11,1.61-15.74,3.28-21.76,4.74-.17-.02-.56,0-1.11,.07-.12,.01-.33,.04-.4,.04h-.14c-.07-.04-.22,.05-.19-.11,0-.05,0-.1,0-.16v-.18l-.04-.17c-.07-.45-.15-.93-.23-1.41-.17-.97-.34-1.99-.52-2.99-.35-2.02-.74-4-1.03-5.49-.3-1.49-.51-2.5-.54-2.58-.7-3.16-1.4-6.35-2.12-9.58,.49,2.22,.97,4.43,1.45,6.63-.48-2.2-.96-4.41-1.45-6.63-2.26-10.22-4.62-20.85-7.04-31.8-2.44-10.95-4.99-22.2-7.42-33.68-.66-3.19-1.6-7.74-2.69-12.98-.52-2.63-1.07-5.42-1.65-8.31-.09-.5-.09-.38-.1-.47-.03-.08,.08-.04,.12-.07,.66-.14,1.32-.28,1.99-.43,1.47-.31,2.94-.63,4.43-.91,11.89-2.33,23.89-4.45,30.45-5.6,1.91-.34,3.8-.67,5.72-1.01q-3.19,.55-6.38,1.1c7.98-1.6,15.21-3.05,22.2-4.45-1.25,.16-1.48,.13-4.43,.59l3.59-.62c3.23-.8,10.75-2.2,14.27-2.94-.74,.25,2.05-.24,4.51-.68l-.99,.11c9.33-1.73,20.17-3.73,28.51-5.27,1.16-.21,2.04-.33,2.58-.39l7.98-1.56c-.58,.28,6.66-1.08,2.86-.27,5.95-1.3,12.05-2.3,17.72-3.56,2.55-.48,5.12-.96,7.7-1.44,1.05-.2,2.1-.39,3.16-.59l.24-.05s.04,.15,.06,.22l.09,.48,.32,1.67c1.02,5.23,2.04,10.51,3.07,15.81,2.22,10.56,4.45,21.2,6.66,31.7l-.06-.52c1.57,7.34,3.05,13.8,4.79,22.75,1.42,6.36,3.29,15.44,3.92,17.96,1.46,7.36,2.05,10.33,3.49,17.55-.33-1.87,1.36,7.03,.69,3.47-.88-4.87-.91-5.04-1.65-9.17v.12c-3.46-19.08-6.92-38.16-10.43-57.48-2.48-12.86-5.15-26.84-7.51-40.23-.17-.9-.33-1.81-.5-2.71l-.29-1.58c-.15-.81-.3-1.62-.46-2.4l-.12-.59c-.16-.02-.39,.06-.58,.08l-1.21,.22-2.11,.38-2.76,.51c-3.68,.69-7.37,1.38-11,2.05-7.24,1.4-14.22,2.75-20.4,3.95-2.94,.6-5.1,.86-7.63,1.25-11.36,2.21-25.83,4.94-38.63,7.51l.63-.12c-6.81,1.34-11.93,2.2-18.57,3.54,.04,.03-.99,.24-1.48,.36-.59,.03-10.35,2.07-20.24,4.23-9.89,2.15-19.91,4.45-21.08,4.72-.69,.17-1.4,.34-2.12,.52l-1.32,.31-.97,.23-.48,.12c0,.15,.05,.32,.08,.48l.64,3,1.14,5.27c.77,3.5,1.54,6.99,2.3,10.42,1.56,6.85,3.06,13.44,4.43,19.42,.63,2.59,1.32,5.49,1.86,7.69,.46,2.12,.6,2.52,1.16,5.07,1.33,6.5,2.19,10.29,1.51,6.94,1.19,5.33,2.3,10.7,3.28,15.45,.45,2.2,.9,4.39,1.36,6.62,.39,1.89,.56,2.95,.7,3.91,.95,4.84,.64,3.42,1.53,8.51,.16,1.24,2.38,12.74,2.58,14.19l-.15-.83c.23,1.47,.44,2.83,.65,4.12,.05,.35,.11,.7,.16,1.05,.08,.51,.16,1.02,.26,1.5-.08,.74,.64,.33,1.08,.34l1.36-.2c2.45-.35,4.89-.66,7.78-1.16,16.06-2.59,33.42-6.33,48.16-9.35,.12-.16-3.24,.7-3.45,.56,8.69-1.78,17.48-3.44,26.26-5.17,1.59-.29,3.54-.6,4.27-.71,2.81-.51,1.65-.38,3.7-.77l.3,.05c2.99-.65,4.41-.73,7.23-1.3,.14-.07,1.18-.26,2.18-.44,.07,.09,3.1-.58,2.97-.46h.03c.61-.13,1.04-.2,1.78-.32,.58-.11,3.56-.71,6.55-1.3,3.01-.59,5.99-1.27,6.57-1.41l.55-.1c1.61-.34,2.29-.55,1.35-.36l1.99-.43-.23,.05,1.97-.44c.36-.08,.78-.14,.23,.02,1.11-.28,2.36-.58,3.47-.83-3.1,.69-6.97,1.51-10.26,2.08,1.35-.28,3.76-.79,5.21-1.09,1.74-.33,5.29-1.11,8.05-1.73,.6-.15,1.01-.3,2.39-.59,.68-.12,1.55-.36,2.7-.59-1.33,.31-2.6,.61-3.92,.92,.24,0,3.24-.72,4.29-.95,.52-.12,3.06-.69,4.67-1.06-.7,.18,1.31-.26,2.27-.45,1.09-.23,1.79-.38,1.34-.3,.35-.11-4.35,.9-2.83,.55,.48-.1,2.55-.52,3.69-.76,.01-.02-.79,.15-.04-.01,1.28-.25,2.59-.51,3.38-.66-.25,.05-.77,.15-1.15,.22,.84-.16-1.43,.28-3.62,.77-2.19,.48-4.32,.99-3.24,.75-.28,.05,2.08-.5,4.39-.99,2.2-.45,3.47-.71,3.99-.82-1.02,.19,.73-.15-.33,.05l-1.17,.23c-1.44,.27-2.04,.37-1.53,.26,1.21-.23-.5,.12-2.26,.49-1.75,.39-3.54,.8-2.51,.57l-.84,.17c.87-.2,3.2-.71,4.1-.87,0,0,.3-.07,.71-.16,.42-.09,.96-.2,1.44-.3l.35-.06c1.01-.2,2.42-.47,1.77-.35-5.94,1.11,3.89-.79-1.86,.24,2.42-.4-.81,.16-3.34,.65-.32,.06-1.42,.26-3.19,.59-1.57,.32-.92,.2-1.22,.28-.87,.17-2.54,.51-2.32,.44-1.22,.29-1.96,.39-3.42,.72-1.29,.3,.09,0-.82,.21-1.94,.42-4.65,1-6.2,1.34-.6,.1-2.44,.42-1.12,.08,2.94-.62-1.1,.33,1.96-.34-1.33,.21,2.7-.61,3.25-.78-.98,.18-2.96,.6-4.61,.96l.33-.06c-1.45,.32-4.37,.95-5.96,1.21,.37-.11-.33,0,.74-.22l-2.01,.39c-.25,.06-.51,.12,.07,.02-.94,.21-1.9,.38-2.63,.48-.35,.06-10.04,1.78-10.41,1.85-1.46,.23-1.82,.21-3.24,.5,.14-.02,3.41-.57,6.67-1.12,3.26-.54,6.28-1.1,5.32-.93-1.28,.22-16.36,2.78-17.41,2.96-1.08,.19-2.38,.44-2.11,.44-1.83,.3,.53-.19-.78-.01-.03,.01,.11,0-.3,.08l-1.26,.16c-2.82,.57-6.98,1.24-9.91,1.91,.84-.23,1.8-.51,3.7-.91l.34-.03c.27-.07,1.83-.37,1.78-.42-1.82,.3-3.36,.59-5.26,.99-.35,.05-.76,.11-1.04,.15,0,0,.04,0,.03,.02-.63,.08-.56,.07-.34,0l.13-.04c-1.17,.05-7.07,1.45-10.38,2.02-.97,.21-.09,.05-1.29,.32-3.38,.6-5.71,1.01-9.24,1.68-1.11,.3-1.19,.35,.18,.16l-2.66,.51c2.37-.7-5,.81-2.38,.06-.79,.11-2.38,.42-3.86,.76-.14,.08-.36,.21-2.23,.6-2.62,.46-1.99,.35-4.16,.73-.52,.03,.26-.15,.16-.19-3.31,.76-2.93,.44-6.07,1.09-1.96,.42-5.84,1.22-5.91,1.35-2.65,.53-2.67,.44-2.42,.29Z"/></g><g><path class="c" d="M78.46,154.79c-3.06,.34-6.14,.57-9.21,.38-8.82-.53-17.32-4.59-23.44-10.91-6.12-6.31-9.87-14.78-10.7-23.52-1.03-10.77,2.45-21.97,9.67-30.09,7.23-8.12,18.16-12.96,29.05-12.49,2.16,.09,4.3,.38,6.42,.77,5.8,1.08,11.51,2.97,16.46,6.16,8.56,5.51,14.45,14.93,15.63,25,.36,3.04,.31,6.12,.11,9.18-.21,3.33-.59,6.68-1.52,9.89-.66,2.27-1.58,4.47-2.73,6.55-2.9,5.27-7.37,9.67-12.05,13.42-4.85,3.88-11.69,4.99-17.69,5.65Z"/><path class="c" d="M37.43,127.26c-.09-.32-.16-.64-.24-.96,.77,3.11,1.95,6.28,3.49,9.22-1.58-3.25-2.76-7.02-3.49-10.64-.76-3.63-.99-7.11-1.26-9.92,.22-.29,.51-2.18,.87-3.97,.38-1.79,.83-3.5,.8-3.58,.13-.71,.32-1.41,.49-2.13,.19-.71,.41-1.41,.63-2.12-.31,.97-.63,1.94-.85,2.92,.22-.98,.54-1.94,.85-2.92,1.5-4.44,4.01-8.79,7.47-12.46,3.46-3.67,7.86-6.65,12.75-8.59,1.35-.56,3.33-1.23,5.66-1.76,2.33-.53,5.03-.87,7.73-.84,2.69,0,5.4,.4,7.8,.87,2.4,.48,4.44,1.05,5.86,1.52,.83,.27,1.64,.56,2.45,.87q-1.35-.52-2.73-.99c3.54,.93,6.63,2.18,9.42,3.75-.46-.33-.5-.45-1.65-1.16,.48,.27,.95,.54,1.41,.83,.35,.14,.78,.38,1.27,.66,.48,.3,1,.64,1.52,.97,.51,.37,1.01,.75,1.48,1.09,.45,.36,.85,.69,1.17,.95-.16-.08,0,.09,.3,.38l1.11,1.12-.28-.35c3.06,3,5.95,7.15,7.42,10.7,.23,.48,.34,.87,.39,1.11,.48,1.13,.89,2.28,1.24,3.45-.1-.12,.07,.62,.2,1.18,.11,.57,.16,.95-.05,.11,.77,2.64,.95,5.43,1.1,8.07,.01,2.36-.12,4.79-.33,7.21-.22,2.42-.59,4.85-1.25,7.19-1.31,4.71-3.82,9.09-7.02,12.81l.19-.15c-2.22,2.62-4.3,4.91-7.65,7.47-1.13,.98-2.69,1.94-4.13,2.64-1.44,.7-2.74,1.19-3.28,1.48-3.38,.96-4.75,1.28-8.15,1.81,.89,.03-3.29,.54-1.61,.44,2.29-.09,2.39-.25,4.34-.4l-.06-.03c4.48-.63,9.12-1.71,13.12-4.42,1.94-1.4,3.62-2.85,5.34-4.42,1.69-1.57,3.3-3.26,4.77-5.09,1.91-2.48,3.63-5.33,4.88-8.39,1.29-3.06,2.03-6.38,2.38-9.58,.36-3.45,.54-7.01,.35-10.53-.17-3.51-.94-6.88-1.94-9.69-.5-1.34-.77-2.34-1.23-3.48-1.17-2.5-2.76-5.24-4.8-7.74-2.03-2.51-4.45-4.82-7.01-6.6,.1,.07,.19,.13,.25,.18-2.7-1.91-4.84-3.21-7.81-4.45,0,.04-.46-.15-.69-.22-.11-.09-1.28-.56-3.01-1.1-1.73-.54-4.04-1.1-6.39-1.51-2.34-.42-4.74-.68-6.62-.75-1.89-.05-3.25,0-3.53,0-.33,.02-.68,.04-1.03,.07-3.38,.2-6.79,.86-9.96,1.89-3.18,1.02-6.09,2.48-8.52,4.11-1.02,.76-2.12,1.68-2.89,2.41-.82,.62-.91,.82-1.83,1.66-2.54,1.92-3.58,3.51-2.43,2.34-1.7,1.96-3.24,4.06-4.41,6.05-.55,.92-.99,1.88-1.47,2.84-.36,.84-.62,1.28-.88,1.66-.84,2.18-.68,1.5-1.52,3.81-.09,.13-.21,.57-.37,1.17-.17,.59-.35,1.35-.49,2.11-.17,.76-.27,1.53-.36,2.15l-.19,1.26,.04-.4c-.44,2.79-.78,4.67-.75,7.46,.02,3.87,.73,7.91,1.96,11.69,1.22,3.79,3.02,7.3,5.02,10.29,.13,0-.88-1.32-.79-1.47,2.19,3.6,4.93,6.97,8.26,9.68,.57,.53,1.31,1.12,1.57,1.37,1.1,.83,.7,.41,1.52,.99l.05,.17c1.3,.7,1.78,1.23,3.03,1.85,.09,0,.54,.21,.98,.44-.04,.13,1.38,.63,1.27,.7h.02c.27,.12,.47,.2,.8,.36,.27,.08,1.67,.55,3.09,.9,1.43,.35,2.87,.59,3.15,.62l.25,.08c.77,.15,1.12,.12,.67,.01l.95,.18h-.11c.31,.06,.63,.09,.95,.14,.17,.03,.37,.12,.09,.13,.55,.04,1.16,.09,1.71,.15-1.51-.19-3.36-.59-4.87-1.08,.64,.13,1.78,.39,2.47,.5,.41,.09,1.04,.22,1.74,.34,.7,.09,1.47,.2,2.14,.26,.3,0,.5-.12,1.17-.05,.33,.1,.76,0,1.31,.06-.64,.06-1.27,.03-1.92,.01,.11,.12,1.58,.1,2.09,.11,.24-.03,1.49-.04,2.27-.12-.33,.13,.63,.03,1.1,.04,.53-.03,.86-.1,.64-.12,.16-.12-2.09,.09-1.37-.08,.2,.04,1.22-.05,1.77-.11,0-.06-.38-.01-.03-.1,.61-.04,1.25-.18,1.6-.16-.11,.03-.36,.05-.54,.06,.4-.04-.66,.18-1.71,.36-1.04,.18-2.08,.33-1.55,.28-.14-.02,1.01-.18,2.1-.37,1.09-.18,2.14-.39,1.88-.36-.49,.02,.33-.15-.17-.12l-.55,.13c-.69,.05-.98-.04-.74-.1,1.16-.08-3.23,.7-2.26,.54h-.4c.42-.07,1.53-.18,1.97-.16,0-.06,.56-.13,1.02-.2h.17c.48-.09,1.15-.15,.83-.19-2.8,.31,1.77-.81-.94-.56,1.15,.01-.37,.19-1.56,.3-.12-.04-.66-.06-1.52-.04-.74,.05-.44,.07-.58,.11-.42,0-1.21-.01-1.1-.08-.58,.1-.93-.03-1.63-.01-.61,.03,.04,.04-.4,.07-.92-.01-2.21-.14-2.94-.22-.28-.09-1.11-.33-.48-.35,1.38,.16-.55,.13,.9,.24-.61-.21,1.28,.08,1.55-.04-.46-.08-1.38-.17-2.16-.22l.15,.04c-.68-.06-2.05-.21-2.77-.45,.18-.02-.13-.12,.37-.04l-.92-.18c-.12-.01-.24-.02,.02,.05-.44-.06-.87-.18-1.2-.29-.05-.03-1.27-.28-2.46-.6-1.19-.31-2.32-.71-2.24-.69-.64-.24-.75-.4-1.38-.61-.02,0,.35,.16,.9,.38,.56,.19,1.3,.48,2.03,.69,1.45,.47,2.85,.74,2.41,.64-.27-.11-2.15-.53-3.94-1.21-1.8-.64-3.51-1.47-3.67-1.62-.44-.24-.98-.53-.91-.42-.73-.44,.28,.03-.23-.31-.02,0,.03,.05-.14-.05l-.46-.37c-1.19-.59-2.71-1.82-3.86-2.59,.34,.21,.79,.39,1.53,.88l.11,.12c.11,.07,.73,.45,.74,.4-.68-.49-1.25-.93-2-1.42-.12-.12-.25-.25-.34-.34,0,0,0,.02,0,.03-.2-.21-.17-.2-.08-.15,.01,0,.03,.01,.06,.03-.32-.43-2.57-2.07-3.55-3.27-.32-.32-.05-.01-.46-.4-1-1.21-1.64-2.08-2.56-3.44-.36-.39-.41-.4-.1,.16-.23-.34-.47-.68-.69-1.03,.77,.84-1.09-2.04-.26-1.1-.17-.32-.52-.97-.89-1.54-.08-.03-.2-.09-.61-.86-.51-1.1-.38-.84-.76-1.76-.04-.24,.14,.08,.16,.02-.71-1.37-.44-1.27-.97-2.61-.36-.83-.91-2.53-1.02-2.54-.33-1.18-.26-1.2-.14-1.1Z"/></g><path class="d" d="M81.56,105.28l-.14,.26c.33-.89,.8-1.78,1.27-2.65-1.67,1.64-3.38,3.68-2.15,5.96-1.05-.23-2.28,1.52-2.06,1.65,.02,.47,0,.94-.04,1.4,.04-.31,.08-.62,.1-.94-.02,.32-.05,.63-.1,.94-.28,2.9-1.74,5.58-3.29,8.34-.84,1.54-2.82,5.84-3.76,7.37l-.2,.34c-.05,.08-.04,.02-.07,.03,.07,.09,.14-.09,.37-.42-.15,.75,.07,.58,.11,.81,.07,.16,.12,.35,.14,.55,.12,.11,.23,.24,.44,.28-.05,.03-.09,.06-.14,.08,.25,.56,.05,.99,.07,1.46-.08-.28-.14-.28-.2-.26l-.1-.1,.12,.25c-.51-.43-1.02-.53-1.54-.88-.07-.04-.08-.15-.08-.24-.1,0-.53-.18-.86-.31,.23-.22-.64-.7-.09-.6-.89-.11-1.5-.72-2.36-.79-2.43-1.37-5.07-2.64-7.75-3.73v.13c-.96-.36-2.03-.32-2.94-1.16-.96-.13-2.11-.64-2.76-.3-.89-.49-1.4-.45-2.32-.88,.03,.41-1.01-.23-.75,.25,.29,.74,.54,.45,.8,1.06l.05-.1c1.89,1.88,3.96,3.56,6.15,5.11,1.66,.72,3.2,1.9,4.83,2.77,1.77,.91,3.7,1.79,5.26,2.42,.15,.04,.42,.25,.6,.45,.19,.2,.37,.44,.59,.66,1.65,.88,3.66,2.19,5.56,3.32,.29-.74,.57-1.52,.82-2.26l-.06,.12c.53-1.46,1.2-2.25,1.74-3.73-.08-.05,0-.27,0-.4,.06,0,.14-.14,.24-.38,.1-.22,.25-.66,.3-.85,.14-.5,.28-1.17,.42-1.85,.28-1.35,.55-2.73,.72-2.84,.02-.1,.04-.19,.06-.29,.89-1.71,2.39-3.24,2.94-4.79-.05-.41-.06-.85-.16-1.21,.28-.2-.03-.39,.15-.69,1.12-.51,.98-1.13,.53-.81,.17-.72,.51-1.38,.73-1.99,.05-.3,.1-.6,.15-.92,.03-.27,.2-.35,.44-.4,.14-.66,.26-.4,.6-1.01,.34-.05,.21-1.79,.37-1.94v.12c.35-.73,1.08-1.01,1.39-1.73,1.02-1.94,1.7-4.24,2.55-6.07-.28-.13-.1,.44-.49,.31,.49-1.09,1.3-2.06,1.8-3.16,.16-.17,.4-.36,.53-.42,.25-.31-.05-.26,.09-.51l.28,.07c-.06-.47,.51-.44,.55-.85-.1-.06-.06-.2,0-.32,.28,.1,.14-.4,.38-.28h-.02c.04-.09,.04-.15,.13-.22-.04-.18-.25-1.85-.31-2.04l.07-.05c.07-.21-.1-.38-.19-.28l.12-.25v.04l.12-.25s.19-.04,.29,.08c-.04-.18-.03-.36,.08-.48-.33,.33-.77,.73-1.22,1.03-.03-.21,.24-.46,.29-.65,.27-.15,.61-.54,.88-.85,.02-.08-.27-.26-.07-.38,.25,0,.07-.2,.29-.29,.05,.21-.07,.36-.15,.52,.26,.07,.34-.35,.46-.45-.05-.09,.16-.39,.17-.62,.21,.18,.22-.11,.4-.18,.09-.13,.02-.25-.09-.23-.25-.15-.38,.49-.58,.19,.15,0,.21-.29,.26-.44-.14-.06-.15,.06-.25-.09,.1-.15,0-.39,.18-.43,.03,.05-.02,.1-.05,.15,.1-.21,.48,1.51,.5,1.21-.16,.02-.37-1.54-.43-1.4-.12,.1-.22-.19-.33-.08l.11,.22c-.13,.16-.41,.14-.48,.04,.15-.3,.63,1.25,.59,.93l-.11,.08c-.05-.15-.01-.48,.19-.53-.14-.06-.13-.22-.13-.37l.04-.03c-.02-.16,.09-.32-.14-.31-.28,.76-1.25-1.05-1.62-.35,.44-.18,.28,.23,.19,.56-.12-.01-.33,.07-.51,.27-.06,.21,.07,.16,.13,.23-.12,.08-.26,.27-.41,.18,.13,.23-.23,.2-.23,.41,.03,.2,.09,.02,.14,.18-.12,.24-.29,.57-.4,.76-.19,.02-.55,.14-.73-.12,.18-.36,.33,.29,.44-.12-.42,.03,.04-.38-.2-.56-.21,.06-.31,.31-.35,.54l.06-.02c-.03,.2-.1,.6-.37,.73-.11-.1-.23-.04-.21-.19l-.13,.25s.05,.1,.11,.03c.05,.16-.05,.26-.16,.32-.14-.02,0,1.57-.06,1.5-.07,.19-.29,.15-.22,.38,.1,.06,.26-1.93,.2-1.67-.21,.1-.18,2.34-.47,2.35-.04,.14-.08,.31,.06,.34-.16,.2-.23-.17-.42-.05,.02,.01,.07,.01,.05,.06l-.23,.09c.06,.44-.42,.86-.29,1.34-.1-.16-.3-.39-.34-.68h.09c-.03-.06,0-.28-.13-.33-.18,.19-.23,.4-.2,.69-.05,.03-.11,.07-.16,.09l.05,.02c-.11,.05-.12,.03-.16-.02,0,0-.02-.02-.02-.03-.45,0-.11,.99-.48,1.33,0,.14,.06,.04,.07,.22-.33,.37-.56,.61-.83,1.02,.11,.21,.17,.25,.42,.14l-.19,.32c-.32-.48-.68,.46-.99-.05-.14,.06-.24,.25-.25,.47,.1,.06,.27,.16,.18,.4-.28,.27-.2,.21-.45,.43-.17,0-.19-.12-.31-.15,.02,.5-.47,.24-.6,.65-.06,.27-.24,.76,.01,.88-.15,.33-.33,.26-.53,.14Z"/></svg>