<svg id="a" xmlns="http://www.w3.org/2000/svg" viewBox="7.08 56.47 259.57 170.98"><defs><style>.b{fill:#005bea;}.c{fill:#65dff6;}.d{fill:#0b1f65;}</style></defs><path class="d" d="M136.03,88.05h-.08c.24-.05,.5,0,.75,.04-.59-.51-1.27-.95-1.59,.28-.1-.63-.65-.88-.65-.72-.1,.13-.2,.23-.31,.32,.07-.05,.15-.11,.22-.18-.07,.07-.14,.12-.22,.18-.66,.55-1.45,.41-2.27,.23-.45-.08-1.66-.12-2.13-.26l-.2-.05,.23,.09c-.26,.19-.5,.38-.73,.51,.05,.09,.07,.17,.18,.29l-.13-.05c-.09,.27-.35,.28-.46,.41,.01-.14-.08-.16-.17-.17l.04,.09c-.33-.03-.69,.12-.98,.12-.04,0-.07-.05-.1-.09l-.27,.13c0-.19-.24-.14-.12-.27-.19,.24-.41,.12-.58,.36-.7,.11-1.44,.26-2.13,.7l.02,.06c-.24,.23-.43,.55-.75,.52-.2,.2-.51,.28-.59,.41-.26,0-.36,.01-.62-.06,.07,.02-.25-.06-.12-.04,.18,.1,.18,.09,.34,.2h0c.7,.42,1.41,.98,2.13,1.54,.42-.26,.92-.13,1.38-.23,.49-.11,1.02-.28,1.43-.48,.1-.06,.18,.09,.28,.17,.38-.12,.89-.1,1.32-.24,0,0-.02,0-.02,0,.23-.05,.42,.13,.65,.08,0-.05,.03-.06,.04-.09,.06,.25,1.3-.64,1.4-.51,.02-.01,.05-.03,.07-.04,.49,.07,1.04,.52,1.45,.44,.08-.13,.17-.24,.24-.38,.08,.1,.08-.11,.17-.09,.27,.49,.38,.26,.25,.09,.18-.08,.37-.06,.53-.09l.22-.14c.06-.05,.1,.02,.15,.14,.16-.09,.12,.04,.3,.08,.06,.17,.41-.32,.47-.27l-.03,.03c.21,.01,.37,.34,.57,.34,.56,.08,1.15-.1,1.66-.09-.01-.19-.11,.05-.14-.19,.3,0,.63,.2,.94,.26,.06,.03,.13,.06,.16,.09,.1-.03,.05-.14,.11-.18l.02,.14c.08-.22,.15,0,.24-.16,0-.06,.03-.1,.06-.14,.01,.13,.1-.12,.1,0h0s.03-.06,.06-.06c.03-.11,.35-.77,.38-.82h.02c.05-.05,.07-.13,.04-.12l.06-.05h0l.06-.04s.03,.02,.01,.07c.03-.06,.07-.11,.11-.13-.1,.05-.24,.09-.35,.06,.04-.06,.12-.07,.17-.11,.06,.01,.18-.04,.27-.08,.02-.02,.03-.09,.07-.1,.02,.02,.05-.05,.09-.06-.04,.06-.08,.1-.13,.13,.01,.05,.11-.07,.14-.1,.01-.03,.1-.11,.15-.17-.02,.05,.04-.03,.07-.06,.03-.04,.06-.07,.04-.06,.01-.02-.14,.14-.09,.06,.01,0,.08-.07,.12-.11,0,0-.03,.02,0,0,.03-.03,0,0,.11-.1-.04,.03-.03,.03-.04,.03,.05-.08-.28,.35-.22,.28-.02-.02,.3-.38,.26-.33-.03,.03,.02-.02-.01,0l-.04,.03s-.07,.04-.05,.03c.08-.08-.22,.24-.15,.18l-.03,.02s.1-.11,.13-.13c0,0,.04-.05,.07-.07h.01s.08-.08,.06-.06c-.1,.08-.07,.04-.03,.02,.03-.02,.07-.03-.03,0,.08-.02-.03,.01-.11,.05,0,0-.05,0-.11,0-.05,.02-.03,.02-.04,.03-.03,0-.09,0-.08-.02-.04,.04-.07,0-.12,.01-.04,.03,0,.01-.03,.04-.07,.01-.16,.03-.21,.03-.02-.03-.09-.1-.05-.17,.1,0-.03,.1,.07,.08-.05-.08,.09-.03,.11-.09-.04-.03-.11-.04-.16-.03h.01s-.15,.05-.21-.01c0-.04-.02-.07,.02-.07h-.07s-.02,0,0,.02c-.03,.03-.07,.01-.09-.02-.01-.06-.35,.2-.35,.18-.05,0-.07-.09-.11-.02,0,.03,.47-.19,.4-.16-.05-.09-.55,.27-.59,.16-.04,0-.08,.02-.07,.1-.07-.03,0-.14-.04-.21,0,.01,0,.04,0,.03l-.05-.1c-.09,.12-.25-.06-.33,.12,.02-.1,.04-.26,.1-.33l.02,.05s.06-.05,.05-.13c-.07-.06-.12-.07-.18,.01l-.04-.07v.03c-.02-.05-.02-.06-.02-.1v-.02c-.06-.27-.23,.21-.35,.08-.03,.04,0,.04-.04,.09-.12-.09-.21-.16-.34-.21-.03,.11-.03,.15,.03,.26l-.09-.03c.06-.29-.2-.26-.13-.55-.03-.06-.09-.07-.14-.02,0,.07,0,.19-.06,.19-.1-.09-.07-.06-.16-.14-.03-.09,0-.13-.01-.21-.1,.13-.12-.2-.22-.17-.07,.03-.2,.06-.19,.22-.09,0-.1-.12-.11-.25Z"/><path class="d" d="M138.45,109.01h-.08c.24-.05,.5,0,.75,.04-.59-.51-1.27-.95-1.59,.28-.1-.63-.65-.88-.65-.72-.1,.13-.2,.23-.31,.32,.07-.05,.14-.11,.22-.18-.07,.07-.14,.12-.22,.18-.66,.55-1.45,.41-2.26,.23-.45-.08-1.66-.12-2.12-.26l-.2-.05,.23,.09c-.26,.19-.49,.38-.73,.51,.05,.09,.07,.17,.18,.29l-.13-.05c-.09,.27-.35,.28-.46,.41,.01-.14-.08-.16-.17-.17l.04,.09c-.33-.03-.69,.12-.98,.12-.04,0-.07-.05-.1-.09l-.27,.13c0-.19-.24-.14-.12-.27-.19,.24-.41,.12-.58,.36-.7,.11-1.43,.26-2.12,.71l.02,.06c-.24,.23-.43,.55-.75,.52-.2,.2-.51,.28-.59,.41-.26,0-.36,.01-.61-.06,.07,.02-.25-.06-.12-.04,.18,.1,.18,.09,.33,.2h0c.7,.42,1.41,.98,2.12,1.54,.42-.26,.92-.13,1.37-.23,.49-.11,1.01-.28,1.43-.48,.1-.06,.18,.09,.28,.17,.38-.12,.89-.1,1.32-.24,0,0-.02,0-.02,0,.23-.05,.42,.13,.65,.08,0-.05,.03-.06,.04-.09,.06,.25,1.3-.64,1.39-.51,.02-.01,.05-.03,.07-.04,.49,.07,1.04,.52,1.45,.44,.08-.13,.17-.24,.24-.38,.08,.1,.08-.11,.17-.09,.27,.49,.38,.26,.25,.09,.18-.08,.37-.06,.53-.09l.22-.14c.06-.05,.1,.02,.15,.14,.16-.09,.12,.04,.3,.08,.06,.17,.41-.32,.47-.27l-.03,.03c.2,.01,.37,.34,.57,.34,.56,.08,1.15-.1,1.66-.09-.01-.19-.11,.05-.14-.19,.3,0,.62,.2,.93,.26,.06,.03,.13,.06,.16,.09,.09-.03,.05-.14,.11-.18l.02,.14c.08-.22,.15,0,.24-.16,0-.06,.03-.1,.06-.14,.01,.13,.1-.12,.1,0h0s.03-.06,.06-.06c.03-.11,.35-.77,.38-.82h.02c.05-.05,.07-.13,.04-.12l.06-.05h0l.06-.04s.03,.02,.01,.07c.03-.06,.07-.11,.11-.13-.1,.05-.23,.09-.35,.06,.04-.06,.12-.07,.17-.11,.06,.01,.18-.04,.27-.08,.02-.02,.03-.09,.07-.1,.02,.02,.05-.05,.09-.06-.04,.06-.08,.1-.13,.13,.01,.05,.11-.07,.14-.1,.01-.03,.1-.11,.15-.17-.02,.05,.04-.03,.07-.06,.03-.04,.06-.07,.04-.06,.01-.02-.14,.14-.09,.06,.01,0,.08-.07,.12-.11,0,0-.03,.02,0,0,.03-.03,0,0,.11-.1-.04,.03-.03,.03-.04,.03,.05-.08-.28,.35-.21,.28-.02-.02,.3-.38,.26-.33-.03,.03,.02-.02-.01,0l-.04,.03s-.07,.04-.05,.03c.08-.08-.22,.24-.15,.18l-.03,.02s.1-.11,.13-.13c0,0,.04-.05,.07-.07h.01s.08-.08,.06-.06c-.1,.08-.07,.04-.03,.02,.03-.02,.07-.03-.03,0,.08-.02-.03,.01-.11,.05,0,0-.05,0-.11,0-.05,.02-.03,.02-.04,.03-.03,0-.09,0-.08-.02-.04,.04-.07,0-.12,.01-.04,.03,0,.01-.03,.04-.07,.01-.16,.03-.21,.03-.02-.03-.09-.1-.05-.17,.1,0-.03,.1,.07,.08-.05-.08,.09-.03,.11-.09-.04-.03-.11-.04-.16-.03h.01s-.15,.05-.21-.01c0-.04-.02-.07,.02-.07h-.07s-.02,0,0,.02c-.03,.03-.06,.01-.09-.02-.01-.06-.35,.2-.34,.18-.05,0-.07-.09-.11-.02,0,.03,.46-.19,.4-.16-.05-.09-.55,.27-.59,.17-.04,0-.08,.02-.07,.1-.07-.03,0-.14-.04-.21,0,.01,0,.04,0,.03l-.05-.1c-.09,.12-.25-.06-.33,.12,.02-.1,.04-.26,.1-.33l.02,.05s.06-.05,.05-.13c-.07-.06-.12-.07-.18,.01l-.04-.07v.03c-.02-.05-.02-.06-.02-.1v-.02c-.06-.27-.22,.21-.35,.08-.03,.04,0,.04-.04,.09-.12-.09-.21-.16-.34-.21-.03,.11-.03,.15,.03,.26l-.09-.03c.06-.29-.19-.26-.13-.55-.03-.06-.09-.07-.14-.02,0,.07,0,.19-.06,.19-.1-.09-.07-.05-.16-.14-.03-.09,0-.13-.01-.21-.1,.13-.12-.2-.22-.17-.07,.03-.2,.06-.19,.22-.09,0-.1-.12-.11-.25Z"/><path class="d" d="M140.33,130.55h-.07c.23-.05,.49-.01,.74,.03-.58-.51-1.25-.95-1.55,.28-.1-.63-.64-.88-.64-.72-.1,.13-.19,.23-.3,.32,.07-.05,.14-.11,.21-.18-.07,.07-.14,.12-.21,.18-.64,.56-1.41,.41-2.21,.24-.44-.08-1.62-.11-2.08-.25l-.2-.04,.22,.09c-.25,.19-.48,.38-.71,.51,.05,.09,.07,.17,.18,.29l-.13-.05c-.09,.27-.34,.29-.45,.41,.01-.14-.08-.16-.17-.17l.04,.09c-.32-.03-.67,.12-.95,.13-.04,0-.07-.05-.1-.09l-.26,.13c0-.19-.24-.14-.12-.27-.18,.24-.4,.12-.57,.37-.68,.11-1.4,.26-2.07,.71l.02,.06c-.23,.23-.42,.55-.73,.52-.19,.2-.51,.28-.56,.41-.11,0-.15,.03-.17,.04,0,.01-.08,0-.03,0-.01,.01,.02,.05,.05,.08-.02-.03,.01,.02,.05,0,.04-.04,0-.09,.02-.03-.06,.07-.07-.03-.08-.04,0-.02,0-.03,0-.05,0-.01-.04,.04-.05,.04h0l.09,.03h0s-.01,0,0,0c.01,0,.05,.05,.09,.13,.05,.12,.04,.1,.07,.14,.02,.03,.04,.06,.07,.09,.17,.12,.35,.24,.52,.37l1.05,.82c.41-.26,.9-.13,1.34-.23,.48-.11,.99-.29,1.39-.48,.09-.06,.18,.09,.27,.17,.37-.12,.87-.1,1.29-.25,0,0-.02,0-.02,0,.23-.05,.42,.13,.64,.07,0-.05,.03-.06,.04-.09,.06,.25,1.27-.65,1.36-.51,.02-.01,.05-.03,.07-.04,.48,.07,1.02,.52,1.42,.43,.08-.13,.17-.24,.23-.38,.08,.1,.08-.11,.17-.09,.27,.49,.38,.26,.25,.09,.17-.09,.36-.06,.52-.09l.21-.14c.06-.05,.1,.02,.15,.14,.16-.09,.12,.04,.3,.08,.06,.17,.4-.32,.46-.27l-.03,.03c.2,.01,.36,.34,.56,.34,.55,.08,1.12-.11,1.63-.09-.01-.19-.11,.05-.13-.19,.3,0,.61,.2,.92,.25,.06,.03,.13,.06,.15,.09,.09-.03,.04-.14,.11-.18l.02,.14c.08-.22,.15,0,.23-.16,0-.06,.03-.1,.06-.14,.01,.13,.09-.12,.1,0h0s.03-.06,.06-.06c.03-.11,.33-.77,.37-.82h.02c.05-.05,.07-.13,.03-.12l.06-.05h0l.06-.04s.03,.02,.01,.07c.03-.06,.07-.11,.11-.13-.1,.05-.23,.09-.34,.07,.04-.06,.12-.07,.17-.11,.06,.01,.18-.04,.27-.09,.02-.02,.03-.09,.07-.1,.02,.02,.05-.05,.09-.06-.04,.06-.08,.1-.12,.13,.01,.05,.1-.07,.14-.1,.01-.03,.09-.11,.14-.17-.02,.05,.04-.03,.07-.06,.03-.04,.05-.07,.04-.06,0-.02-.14,.14-.09,.06,.01,0,.08-.07,.12-.11,0,0-.03,.02,0,0,.03-.03,0,0,.11-.1-.04,.03-.03,.03-.04,.03,.05-.08-.28,.35-.21,.28-.02-.02,.29-.38,.26-.33-.03,.03,.02-.02-.01,0l-.04,.03s-.07,.04-.05,.03c.07-.08-.21,.24-.15,.18l-.03,.02s.1-.11,.13-.13c0,0,.04-.05,.07-.07h.01s.08-.08,.06-.06c-.09,.08-.06,.04-.03,.02,.03-.02,.07-.03-.03,0,.08-.02-.03,.01-.11,.05,0,0-.05,0-.11,0-.05,.02-.03,.02-.04,.03-.03,0-.09,0-.08-.02-.04,.04-.07,0-.12,.02-.04,.03,0,.01-.02,.04-.07,.01-.16,.03-.21,.03-.02-.03-.09-.1-.05-.17,.1,0-.03,.1,.07,.08-.05-.08,.09-.03,.1-.09-.04-.03-.1-.04-.16-.03h.01s-.15,.05-.2-.01c0-.04-.02-.07,.02-.07h-.07s-.02,.01,0,.02c-.03,.03-.06,.01-.09-.02-.01-.06-.34,.2-.34,.18-.05,0-.07-.09-.11-.02,0,.03,.45-.19,.39-.16-.05-.09-.53,.27-.57,.17-.04,0-.08,.02-.06,.1-.06-.03,0-.14-.04-.21,0,.01,0,.04,0,.03l-.05-.1c-.08,.12-.24-.05-.32,.12,.02-.1,.04-.26,.1-.33l.02,.05s.06-.05,.05-.13c-.07-.06-.12-.07-.18,.01l-.04-.07v.03c-.02-.05-.02-.06-.02-.1v-.02c-.06-.27-.22,.21-.34,.08-.03,.04,0,.04-.04,.09-.12-.09-.21-.16-.33-.2-.03,.11-.03,.15,.03,.26l-.09-.03c.05-.29-.19-.26-.13-.55-.03-.06-.09-.07-.13-.02,0,.07,0,.19-.06,.2-.1-.09-.07-.05-.15-.14-.03-.09,0-.13-.01-.21-.1,.13-.12-.2-.22-.17-.06,.03-.19,.06-.18,.22-.09,0-.1-.12-.1-.25Z"/><path class="d" d="M143.35,151.24h-.07c.23-.05,.48-.02,.73,.02-.59-.5-1.26-.93-1.53,.31-.11-.63-.66-.87-.65-.71-.09,.13-.19,.23-.29,.32,.07-.05,.14-.11,.2-.18-.07,.07-.13,.13-.2,.18-.63,.57-1.39,.44-2.19,.28-.44-.07-1.61-.08-2.07-.22l-.2-.04,.22,.09c-.25,.2-.47,.39-.69,.52,.05,.09,.07,.17,.18,.29l-.13-.05c-.08,.27-.33,.29-.44,.42,0-.14-.09-.16-.17-.17l.04,.09c-.32-.02-.66,.13-.94,.14-.04,0-.07-.04-.1-.09l-.25,.14c0-.19-.24-.14-.12-.27-.17,.24-.39,.13-.56,.38-.67,.12-1.38,.29-2.04,.75l.02,.06c-.22,.23-.41,.56-.71,.54-.19,.2-.49,.29-.56,.42-.25,0-.35,.02-.6-.05,.03,.02-.03,0-.08-.02-.06-.03-.09,.02-.04-.01,.17,.08,.18,.08,.33,.19h0c.69,.4,1.39,.95,2.1,1.49,.4-.27,.89-.15,1.33-.26,.47-.12,.98-.3,1.37-.51,.09-.07,.18,.09,.27,.17,.37-.13,.86-.12,1.27-.27,0,0-.02,0-.02,0,.22-.06,.41,.12,.63,.06,0-.05,.03-.06,.04-.09,.07,.25,1.24-.67,1.34-.53,.02-.01,.04-.03,.07-.04,.48,.06,1.02,.5,1.41,.41,.07-.13,.16-.24,.22-.39,.08,.1,.07-.11,.16-.09,.27,.48,.38,.26,.24,.09,.17-.09,.36-.06,.51-.1l.21-.14c.06-.05,.1,.02,.15,.14,.15-.09,.12,.04,.29,.07,.06,.17,.39-.33,.45-.28l-.02,.03c.2,0,.37,.34,.56,.33,.55,.07,1.11-.13,1.61-.12-.02-.19-.1,.05-.14-.19,.29,0,.61,.19,.91,.24,.06,.03,.13,.06,.15,.09,.09-.03,.04-.14,.1-.19l.03,.14c.08-.23,.15,0,.23-.16,0-.06,.03-.1,.06-.14,.02,.13,.09-.12,.1,0h0s.03-.06,.05-.06c.03-.11,.32-.78,.35-.82h.02c.05-.05,.06-.13,.03-.12l.06-.05h0l.06-.04s.03,.02,.01,.07c.03-.06,.07-.11,.1-.13-.1,.05-.23,.09-.34,.07,.04-.06,.12-.07,.16-.11,.06,.01,.17-.04,.26-.09,.02-.02,.02-.09,.07-.1,.02,.02,.05-.05,.08-.06-.04,.06-.08,.1-.12,.13,.01,.05,.1-.08,.13-.1,.01-.03,.09-.11,.14-.17-.02,.05,.04-.03,.07-.06,.03-.04,.05-.07,.04-.06,0-.02-.13,.14-.09,.07,.01,0,.08-.08,.11-.11,0,0-.02,.02,0,0,.03-.03,0,0,.1-.1-.04,.03-.03,.03-.03,.03,.05-.08-.27,.35-.2,.29-.02-.02,.28-.39,.25-.33-.03,.03,.02-.02-.01,0l-.04,.03s-.06,.04-.05,.03c.07-.08-.2,.25-.14,.19l-.03,.02s.1-.11,.12-.13c0,0,.03-.05,.06-.08h.01s.07-.08,.05-.06c-.09,.08-.06,.04-.03,.02,.03-.03,.07-.03-.03,0,.08-.02-.03,.02-.11,.05,0,0-.05,0-.11,0-.05,.02-.03,.02-.04,.03-.03,0-.08,.01-.08-.01-.04,.04-.07,0-.11,.02-.04,.03,0,.01-.02,.04-.06,.01-.15,.03-.21,.03-.02-.03-.09-.1-.06-.16,.1,0-.03,.1,.07,.08-.05-.08,.09-.03,.1-.09-.04-.03-.1-.04-.16-.02h.01s-.14,.05-.2,0c0-.04-.02-.07,.02-.07h-.07s-.01,.01,0,.02c-.03,.03-.06,.01-.09-.02-.01-.06-.34,.2-.33,.19-.05,0-.07-.08-.11-.02,0,.03,.45-.2,.38-.17-.05-.09-.52,.28-.56,.18-.04,0-.08,.02-.06,.1-.06-.03,0-.14-.05-.21,0,.01,0,.04,0,.03l-.05-.09c-.08,.12-.24-.05-.32,.13,.02-.1,.03-.26,.09-.33l.02,.04s.06-.05,.05-.13c-.07-.06-.12-.07-.18,.02l-.04-.07v.03c-.02-.05-.02-.06-.02-.1v-.02c-.07-.27-.21,.21-.34,.08-.03,.04,0,.04-.03,.1-.12-.09-.21-.15-.33-.2-.03,.11-.02,.16,.03,.26l-.09-.03c.05-.3-.2-.25-.14-.55-.03-.06-.09-.07-.13-.02,0,.07,0,.19-.05,.2-.1-.09-.07-.05-.16-.14-.03-.09,0-.13-.02-.21-.1,.13-.12-.19-.22-.16-.06,.03-.19,.06-.18,.23-.09,0-.1-.12-.11-.25Z"/><path class="d" d="M145.66,172.66h-.08c.25-.04,.52,0,.79,.05-.6-.53-1.31-.98-1.67,.24-.09-.63-.66-.89-.66-.74-.11,.12-.22,.23-.33,.31,.08-.05,.16-.11,.23-.17-.08,.06-.15,.12-.23,.17-.71,.54-1.53,.37-2.38,.18-.47-.09-1.73-.16-2.22-.31l-.21-.05,.24,.1c-.28,.19-.53,.37-.78,.49,.05,.09,.06,.18,.18,.3l-.13-.05c-.1,.27-.37,.28-.5,.4,.02-.14-.08-.16-.17-.18l.04,.09c-.34-.04-.72,.1-1.03,.1-.04,0-.08-.05-.1-.09l-.28,.12c.01-.19-.25-.15-.12-.27-.2,.23-.43,.11-.62,.35-.73,.09-1.51,.22-2.25,.66l.02,.06c-.25,.22-.47,.54-.8,.5-.22,.2-.55,.27-.63,.39-.19,0-.3,0-.44-.03l.06-.19s.07,.1,.12,.17c-.03-.07,.14,.23,.07,.12-.06-.19-.07-.2-.11-.38l-.13,.4h0c.72,.44,1.44,1.01,2.18,1.59,.45-.25,.97-.11,1.45-.2,.52-.1,1.07-.26,1.51-.45,.1-.06,.19,.09,.29,.18,.41-.11,.93-.08,1.39-.21,0,0-.02,0-.02,0,.24-.05,.44,.14,.68,.09,0-.05,.03-.06,.05-.09,.06,.25,1.38-.61,1.48-.47,.02-.01,.05-.03,.08-.03,.51,.08,1.07,.54,1.5,.47,.09-.13,.19-.24,.26-.38,.08,.1,.09-.11,.18-.08,.27,.49,.39,.27,.26,.1,.19-.08,.39-.05,.56-.08l.23-.13c.07-.05,.11,.03,.15,.14,.17-.08,.13,.05,.31,.09,.06,.18,.44-.31,.5-.26l-.03,.03c.21,.02,.38,.35,.59,.36,.58,.09,1.21-.08,1.74-.05,0-.19-.12,.05-.14-.2,.32,.01,.65,.22,.97,.28,.06,.03,.13,.06,.16,.1,.1-.03,.05-.14,.12-.18l.02,.14c.1-.22,.16,.01,.25-.15,0-.06,.04-.1,.07-.13,.01,.13,.11-.12,.11,0h0s.03-.06,.06-.06c.03-.11,.39-.76,.43-.81h.02c.06-.05,.08-.13,.04-.12l.07-.05h0l.07-.04s.03,.02,.01,.07c.04-.06,.08-.11,.12-.13-.11,.05-.25,.08-.37,.06,.05-.06,.13-.06,.18-.11,.06,.02,.19-.03,.29-.08,.02-.02,.03-.09,.08-.1,.03,.02,.05-.05,.1-.06-.04,.06-.09,.1-.14,.13,.01,.05,.11-.07,.15-.1,.02-.03,.11-.11,.16-.17-.02,.05,.05-.03,.08-.06,.04-.04,.06-.07,.05-.06,.01-.02-.15,.13-.1,.06,.01,0,.09-.07,.13-.11,0,0-.03,.02,0,0,.03-.03,0,0,.12-.09l-.04,.03c.06-.08-.31,.34-.23,.28-.02-.02,.32-.37,.29-.32-.04,.03,.03-.02-.01,0l-.04,.03c-.05,.04-.07,.04-.05,.03,.08-.08-.23,.24-.16,.18l-.03,.02s.11-.11,.14-.13c0,0,.04-.04,.07-.07h.01s.08-.08,.06-.06c-.1,.08-.07,.04-.04,.01,.03-.02,.07-.02-.03,0,.09-.02-.03,.01-.12,.05,0,0-.05,0-.12,0-.06,.01-.03,.02-.04,.03-.03,0-.09,0-.09-.02-.04,.04-.07,0-.12,.01-.05,.02,0,.01-.03,.04-.07,0-.17,.02-.22,.02-.02-.03-.09-.1-.05-.17,.11,0-.03,.1,.08,.08-.05-.08,.1-.03,.11-.09-.04-.03-.11-.04-.17-.03h.01c-.05,.02-.16,.04-.22-.02,.01-.04-.02-.07,.02-.07l-.07-.02s-.02,.02,0,.03c-.03,.03-.07,0-.1-.02-.01-.06-.38,.19-.37,.17-.05,0-.07-.09-.12-.03,0,.03,.49-.18,.42-.15-.05-.09-.58,.25-.62,.15-.04,0-.08,.02-.07,.09-.07-.03,.01-.14-.04-.21,0,.01,0,.04,0,.03l-.05-.1c-.1,.12-.26-.06-.35,.11,.03-.1,.05-.26,.12-.33v.05s.08-.04,.07-.12c-.07-.07-.13-.07-.19,0l-.04-.07v.03c-.02-.06-.02-.06-.01-.1v-.02c-.05-.27-.24,.2-.37,.07-.03,.04,0,.04-.04,.09-.13-.09-.22-.16-.35-.21-.03,.11-.03,.15,.02,.26l-.1-.03c.07-.29-.2-.26-.12-.56-.03-.06-.09-.07-.14-.02,0,.07,0,.19-.07,.19-.1-.09-.08-.06-.16-.14-.02-.09,0-.13,0-.21-.11,.13-.12-.2-.23-.17-.07,.03-.21,.05-.2,.22-.1,0-.1-.12-.1-.26Z"/><path class="d" d="M147.71,193.36h-.08c.26-.04,.55,0,.82,.06-.62-.53-1.36-.99-1.75,.23-.09-.63-.69-.89-.69-.73-.11,.12-.23,.23-.35,.31,.08-.05,.16-.11,.24-.17-.08,.07-.16,.12-.24,.17-.75,.54-1.6,.39-2.5,.22-.49-.08-1.82-.11-2.34-.24l-.22-.04,.25,.09c-.29,.2-.55,.39-.8,.53,.06,.09,.07,.17,.2,.29l-.14-.05c-.1,.27-.38,.29-.5,.42,.01-.14-.09-.16-.19-.17l.05,.09c-.36-.02-.75,.13-1.07,.15-.04,0-.08-.04-.11-.09l-.29,.14c0-.19-.27-.13-.14-.27-.2,.24-.44,.14-.63,.39-.76,.13-1.57,.32-2.3,.81l.03,.06c-.25,.24-.45,.57-.8,.57-.22,.22-.53,.37-.56,.51-.25,.08-.32,.13-.57,.24,.07-.04-.23,.15-.12,.07,.2-.06,.2-.07,.38-.06h-.01c.4,.03,.71,.21,1.05,.45,.32,.23,.75,.52,1.14,.77,.45-.29,.98-.17,1.47-.3,.52-.13,1.08-.33,1.53-.53,.1-.07,.2,.08,.3,.16,.41-.13,.95-.12,1.42-.28,0,0-.02,0-.02,0,.25-.06,.46,.12,.7,.06,0-.05,.03-.06,.05-.09,.07,.25,1.4-.66,1.51-.52,.02-.01,.05-.03,.08-.04,.53,.07,1.11,.52,1.56,.44,.09-.13,.19-.24,.26-.38,.09,.1,.09-.11,.18-.09,.28,.49,.41,.27,.27,.1,.19-.08,.4-.05,.57-.08l.24-.14c.07-.05,.11,.03,.16,.14,.18-.08,.13,.05,.32,.08,.06,.17,.46-.31,.51-.26l-.03,.03c.22,.02,.39,.35,.6,.36,.6,.09,1.24-.07,1.79-.04,0-.19-.12,.05-.14-.2,.33,.01,.66,.23,.99,.29,.06,.04,.13,.07,.16,.1,.1-.02,.06-.14,.13-.18l.02,.15c.1-.22,.16,.01,.26-.15,0-.06,.04-.1,.08-.13,0,.14,.11-.12,.11,0h0s.04-.05,.06-.06c.04-.11,.42-.75,.46-.8h.02c.06-.05,.08-.13,.05-.12l.07-.05h0l.07-.03s.03,.02,.01,.07c.04-.06,.09-.1,.13-.12-.12,.04-.26,.07-.38,.05,.05-.06,.14-.06,.19-.1,.07,.02,.2-.03,.3-.07,.02-.02,.04-.09,.09-.1,.03,.02,.06-.05,.1-.05-.05,.06-.1,.09-.14,.12,.01,.05,.12-.07,.16-.09,.02-.03,.11-.1,.17-.16-.03,.05,.05-.03,.08-.05,.04-.04,.07-.07,.05-.06,.01-.02-.16,.13-.1,.06,.02,0,.09-.07,.14-.1,0,0-.03,.02,0,0,.03-.02,0,0,.12-.09l-.04,.03c.06-.08-.33,.33-.25,.27-.02-.02,.35-.36,.31-.31-.04,.03,.03-.02-.01,0l-.04,.03c-.05,.04-.08,.04-.06,.02,.09-.07-.25,.23-.18,.18l-.03,.02s.12-.11,.15-.12c0,0,.04-.04,.08-.07h.01s.09-.07,.07-.06c-.11,.07-.07,.03-.04,.01,.04-.02,.08-.02-.03,0,.09-.01-.03,.01-.12,.04,0,0-.05,0-.12,0-.06,.01-.03,.02-.05,.03-.03,0-.1,0-.09-.02-.05,.04-.07,0-.13,0-.05,.02,0,.01-.03,.04-.07,0-.18,.02-.23,.02-.02-.03-.09-.11-.05-.17,.11,0-.04,.1,.08,.08-.05-.08,.1-.03,.12-.08-.04-.03-.11-.04-.18-.04h.01c-.05,.02-.16,.04-.23-.02,.01-.04-.01-.07,.03-.07l-.08-.02s-.02,.02,0,.03c-.03,.03-.07,0-.1-.02-.01-.06-.4,.18-.39,.16-.05,0-.07-.09-.12-.03,0,.03,.52-.17,.45-.14-.05-.09-.61,.24-.65,.14-.04,0-.09,.02-.08,.09-.07-.03,.02-.14-.04-.21,0,.01,0,.04-.01,.03l-.05-.1c-.1,.11-.27-.07-.37,.11,.03-.09,.06-.26,.13-.33v.05s.08-.04,.08-.12c-.07-.07-.13-.07-.2,0l-.04-.07v.03c-.02-.06-.02-.06-.01-.1v-.02c-.05-.27-.26,.2-.39,.06-.04,.04,0,.04-.05,.09-.13-.09-.22-.17-.36-.22-.04,.11-.04,.15,.02,.26l-.1-.03c.08-.29-.2-.27-.11-.56-.03-.06-.09-.07-.15-.03,0,.07,0,.19-.08,.19-.1-.09-.08-.06-.16-.15-.02-.09,0-.13,0-.21-.12,.13-.12-.2-.24-.18-.07,.03-.22,.05-.21,.22-.1,0-.11-.12-.1-.26Z"/><g><path class="c" d="M22.57,219.89c.27,1.6,.63,4.33,1.88,5.36,.81,.66,1.86,1.92,2.89,2.11,3.25,.61,25.77-3.19,38.71-4.19,7.62-.59,15.32-1.28,22.87-2.45,7.55-1.18,14.86-1.83,22.49-2.37,7.13-.51,14.62-.19,21.21-2.96,1.12-.47,2.23-1.09,2.93-2.08,.82-1.17,.95-2.69,.94-4.13-.03-5.87-.77-11.6-1.43-17.43-.86-7.6-1.89-15.31-2.65-22.92-.64-6.47-.52-12.74-1.82-19.11-4.42-21.52-4.26-41.4-7.05-65.47-.52-4.53-1.68-9.38-5.85-11.22-2.89-1.27-8.19-.46-11.33-.11-29.38,3.29-34.59,4.45-62.92,7.66-4.22,.48-26.85,1.91-30.93,3.07-5.9,1.67-4.15,5.39-3.53,18.55,.46,9.65,2.01,19.09,3.08,28.7,2.14,19.11,4.41,38.3,6.38,57.43,1.08,10.56,2.38,21.1,4.14,31.57Z"/><path class="c" d="M131.72,217.2c.7-.26,1.38-.49,2.1-.83-3.35,1.52-6.94,2.24-10.53,2.6-3.59,.37-7.17,.4-10.66,.59,3.8-.12,7.84-.04,12-.5,2.08-.23,4.18-.59,6.24-1.21,1.04-.32,2.01-.65,3.07-1.12,1.04-.48,2.19-1.18,3.05-2.36,.85-1.19,1.14-2.52,1.24-3.65,.1-1.17,.04-2.13,.02-3.11-.06-1.95-.21-3.85-.41-5.67-.39-3.64-.97-6.96-1.55-9.88,.38-1.34-1.08-16.16-1.25-16.44-.22-1.53-.44-3.07-.67-4.62-.23-1.56-.44-3.1-.58-4.65,.19,2.13,.52,4.28,.81,6.41-.29-2.13-.62-4.29-.81-6.41-.48-4.92-.62-10.11-1.57-15.38-.5-2.65-1.05-5.12-1.47-7.74-.45-2.59-.84-5.22-1.18-7.87-1.38-10.61-1.96-21.65-2.75-32.9-.23-3.12-.55-7.58-1.05-12.71l-.4-3.97c-.14-1.34-.27-2.77-.54-4.24-.26-1.47-.64-2.98-1.26-4.48-.64-1.49-1.56-3.01-2.94-4.17-.66-.6-1.46-1.05-2.26-1.43-.89-.39-1.74-.56-2.56-.69-1.64-.23-3.17-.19-4.65-.11-1.47,.09-2.9,.25-4.25,.4l-3.96,.43-12.84,1.39-5.55,.63,6.18-.66c-7.74,1.11-14.75,2.12-21.53,3.1,1.21-.08,1.42-.03,4.28-.3l-3.47,.4c-3.13,.63-10.41,1.54-13.82,2.04,.72-.2-1.98,.1-4.36,.36l.95-.03-6.99,.8c-2.39,.3-4.75,.52-7.15,.71-4.78,.4-9.45,.79-13.51,1.13-1.13,.1-1.99,.13-2.5,.14-2.6,.28-5.19,.56-7.8,.96,.15-.06-.19-.05-.72,.03l-.91,.13-1.04,.21c-.65,.21-1.2,.36-1.34,.43-.14,.05,.12-.12,1.1-.45-.76,.27-1.55,.56-2.3,1.09-.77,.47-1.43,1.28-1.83,2.11-.75,1.72-.71,3.34-.7,4.83,.1,3,.42,5.83,.67,8.59,.16,2.46,.26,4.98,.47,7.52,.2,2.53,.47,5.07,.77,7.61,.6,5.09,1.34,10.19,1.97,15.31l3.72,30.85v-.51c.9,7.15,1.9,13.42,2.77,22.14,.91,6.19,1.93,15.03,2.58,17.45,.92,7.15,1.47,9.98,2.63,16.94-.14-1.82,1.3,6.74,.86,3.29-.54-4.65-.76-4.88-1.16-8.84l-.04,.12c-1.24-9.19-2.09-18.42-3.03-27.71-.98-9.28-1.96-18.6-2.94-27.97-.76-6.24-1.49-12.76-2.22-19.33-.68-6.57-1.54-13.25-2.37-19.7-.44-3.48-.84-7.02-1.12-10.57-.26-3.51-.43-7.19-.74-10.7-.14-1.76-.29-3.5-.31-5.13-.01-1.64,.18-3.11,.97-3.82,.16-.22,.46-.36,.7-.54,.32-.13,.57-.31,.94-.41,.69-.26,1.34-.4,2.13-.53,1.52-.27,3.06-.46,4.55-.64,2.84-.35,4.92-.4,7.37-.54l8.78-.75c3.07-.26,6.25-.46,9.53-.84,6.45-.74,13.07-1.53,19.28-2.36l-.61,.07c6.6-.85,11.57-1.35,18-2.2-.04-.04,.96-.17,1.44-.25,.57,.03,10.04-1.28,19.66-2.49,4.81-.53,9.72-1.52,13.21-1.06,.88,.13,1.56,.31,2.18,.67,.62,.32,1.12,.7,1.5,1.09,.76,.77,1.14,1.43,1.26,1.66,.33,.51,.59,1.11,.84,1.72,1.11,3.02,1.21,6.5,1.57,9.92,.3,3.42,.56,6.83,.78,10.18,.45,6.7,.8,13.18,1.3,19.06,.31,2.54,.64,5.41,.96,7.55,.11,2.09,.33,2.47,.57,4.98,.29,6.4,1.07,10.1,.74,6.8,.39,2.61,.8,5.21,1.24,7.74,.43,2.52,.98,5,1.35,7.21,.36,2.08,.6,4.18,.79,6.34,.17,1.83,.16,2.86,.11,3.8,.17,2.36,.22,3.2,.26,4.07,.05,.86,.05,1.8,.33,4.25,0,1.21,1.66,12.35,1.78,13.75l-.11-.8c.63,5.7,.8,9.54,1.39,15.09,.19,1.93,.35,3.87,.47,5.82,.06,.98,.1,1.96,.13,2.94,.02,.97,.05,2,0,2.86-.06,.87-.24,1.63-.59,2.16-.33,.53-.94,.98-1.72,1.36-1.64,.75-3.52,1.34-5.37,1.74-3.76,.8-7.67,.97-11.53,1.16-3.89,.16-7.68,.47-11.28,.76-.13,.16,3.18-.3,3.37-.1-4.26,.32-8.54,.66-12.83,1.13-2.14,.24-4.29,.5-6.43,.81-2.11,.3-4.22,.57-6.34,.83-1.53,.15-3.41,.27-4.12,.3-2.72,.22-1.6,.24-3.59,.41l-.28-.11c-2.9,.38-4.27,.22-7.02,.5-.14,.07-1.14,.15-2.13,.23-.07-.15-3.05,.28-2.91,.14h-.03c-.6,.07-1.02,.12-1.75,.17-1.14,.14-11.58,1.85-12.7,2.08l-.53,.04c-1.56,.21-2.22,.41-1.3,.31l-1.93,.24,.22-.04-1.92,.24c-.36,.03-.76,.02-.23-.12-1.08,.19-2.3,.38-3.38,.49,3.03-.29,6.8-.66,9.98-.92-1.29,.22-3.65,.45-5.06,.65-1.69,.12-5.16,.49-7.85,.74-.59,.08-.98,.29-2.32,.36-.66-.04-1.5,.16-2.62,.17,1.26-.17,2.51-.27,3.8-.41-.24-.1-3.16,.26-4.16,.28-.17,.03-.62,.07-1.18,.1l-.88,.02c-.33,.01-.52-.04-.77-.03-.08,0-.35-.14-.61-.34,.24,.1,.08-.03-.25-.34l-1.28-1.23c-.12-.11-.27-.32-.36-.47-.09-.14-.13-.18-.09-.03-.06-.04,0,.12,.1,.31,.05,.1,.12,.19,.18,.26l.04,.05,.15,.13,.29,.27c.7,.69,1.15,1.11,.62,.73-.11-.13-.54-.58-1.12-1.08-.22-.16-.54-.76-.68-1.21-.08,.02,.18,.62-.11,.08-.35-1.02-.63-2.29-.67-3.02,.06,.23,.13,.73,.19,1.08-.07-.39,.02-.05,.2,.6,.18,.62,.52,1.64,.95,2.14,.05,.07,.1,.1,.14,.15l.15,.11c.26,.2,.47,.38,.66,.53,.38,.32,.67,.56,.89,.71,.42,.28,.54,.3,.26,.13,.06,.06-.22-.06-.83-.57l-.52-.44-.32-.27-.24-.18c-.17-.11-.4-.46-.59-.87-.39-.84-.63-1.89-.79-2.61-.16-.73-.26-1.15-.21-.88,.13,1-.26-.69-.11,.35l.28,1.09c.22,1.33,.29,1.83,.1,1.42-.14-.53-.07-.43,.09,0,.16,.41,.47,1.15,.86,1.56,.1,.1,.17,.15,.28,.23,.21,.15,.38,.29,.54,.42l.76,.61c.38,.27,.5,.34,.16,.1,.17,.16,.34,.3,.49,.41-.26-.12-.78-.55-1.38-1.1l-.49-.43c-.11-.09-.11-.1-.14-.13-.03-.02-.06-.06-.09-.1-.12-.15-.22-.36-.28-.51-.07,.05-.48-.79-.69-1.69l-.06-.31c-.22-.89-.42-2.29-.41-1.63,.23,1.42,.3,1.85,.22,1.87-.07,.02-.27-.41-.45-.86-.35-.92-.75-1.86-.27,.89-.14-1.16-.06-.97,.11-.2,.18,.74,.49,2.15,1.18,2.97,.03,.11,.2,.29,.61,.7,.38,.38,.85,.93,1.53,1.42,.5,.32,.73,.31,.8,.32,.2,0,.06-.04,.23-.06,.76,.14,2.42,.03,2.21,.14,1.18-.18,1.91-.08,3.34-.26,1.25-.19-.09-.04,.8-.18,1.89-.21,4.54-.51,6.04-.68,.59,0,2.38-.08,1.11,.22-2.86,.35,1.06-.34-1.91,.06,1.31,.03-2.63,.38-3.15,.59,.96-.03,2.89-.26,4.49-.49l-.33,.02c1.41-.21,4.24-.62,5.79-.72-.35,.11,.32,.08-.72,.23l1.95-.24c.25-.05,.5-.11-.07-.05,.91-.17,1.84-.26,2.55-.31,.22,.02,10.34-1.59,10.04-1.48,1.41-.16,1.76-.08,3.13-.3,.02,0-.18,0-.53,.05l-1.48,.17-4.42,.59c-3.14,.44-6.06,.89-5.13,.76,.61-.04,4.57-.64,8.51-1.16,3.94-.53,7.85-.88,8.3-.86,1.05-.09,2.31-.21,2.06-.26,1.77-.12-.52,.18,.75,.14,.03-.01-.11-.03,.3-.06l1.22-.02c2.74-.35,6.78-.61,9.63-1.1-.82,.18-1.75,.42-3.59,.69h-.33c-.26,.05-1.78,.23-1.73,.29,1.76-.13,3.27-.3,5.11-.59l1.01-.06s-.04-.01-.03-.02c.61-.03,.55-.01,.33,.04l-.13,.03c.56,.04,2.28-.21,4.26-.54,1.98-.34,4.19-.75,5.79-.9,.93-.16,.08-.05,1.25-.24,3.27-.33,5.53-.51,8.95-.78,1.08-.19,1.17-.23-.16-.21l2.59-.2c-2.33,.43,4.85-.16,2.28,.29,.76,0,2.31-.11,3.76-.25,.14-.07,.36-.19,2.18-.29,2.55-.04,1.94-.03,4.05-.07,.5,.05-.27,.12-.18,.18,3.26-.28,2.87,.04,5.98-.28,.98-.12,2.43-.32,3.65-.59,1.22-.25,2.19-.54,2.22-.63,2.59-.73,2.61-.72,2.4-.5Z"/></g><g><path class="c" d="M150.92,205.8c.27,1.6,.63,4.33,1.88,5.36,.81,.66,1.86,1.92,2.89,2.11,3.25,.61,25.77-3.19,38.71-4.19,7.62-.59,15.32-1.28,22.87-2.45,7.55-1.18,14.86-1.83,22.49-2.37,7.13-.51,14.62-.19,21.21-2.96,1.12-.47,2.23-1.09,2.93-2.08,.82-1.17,.95-2.69,.94-4.13-.03-5.87-.77-11.6-1.43-17.43-.86-7.6-1.89-15.31-2.65-22.92-.64-6.47-.52-12.74-1.82-19.11-4.42-21.52-4.26-41.4-7.05-65.47-.52-4.53-1.68-9.38-5.85-11.22-2.89-1.27-8.19-.46-11.33-.11-29.38,3.29-34.59,4.45-62.92,7.66-4.22,.48-26.85,1.91-30.93,3.07-5.9,1.67-4.15,5.39-3.53,18.55,.46,9.65,2.01,19.09,3.08,28.7,2.14,19.11,4.41,38.3,6.38,57.43,1.08,10.56,2.38,21.1,4.14,31.57Z"/><path class="c" d="M260.06,203.1c.7-.26,1.38-.49,2.1-.83-3.35,1.52-6.94,2.24-10.53,2.6-3.59,.37-7.17,.4-10.66,.59,3.8-.12,7.84-.04,12-.5,2.08-.23,4.18-.59,6.24-1.21,1.04-.32,2.01-.65,3.07-1.12,1.04-.48,2.19-1.18,3.05-2.36,.85-1.19,1.14-2.52,1.24-3.65,.1-1.17,.04-2.13,.02-3.11-.06-1.95-.21-3.85-.41-5.67-.39-3.64-.97-6.96-1.55-9.88,.38-1.34-1.08-16.16-1.25-16.44-.22-1.53-.44-3.07-.67-4.62-.23-1.56-.44-3.1-.58-4.65,.19,2.13,.52,4.28,.81,6.41-.29-2.13-.62-4.29-.81-6.41-.48-4.92-.62-10.11-1.57-15.38-.5-2.65-1.05-5.12-1.47-7.74-.45-2.59-.84-5.22-1.18-7.87-1.38-10.61-1.96-21.65-2.75-32.9-.23-3.12-.55-7.58-1.05-12.71-.13-1.28-.26-2.61-.4-3.97-.14-1.34-.27-2.77-.54-4.24-.26-1.47-.64-2.98-1.26-4.48-.64-1.49-1.56-3.01-2.94-4.17-.66-.6-1.46-1.05-2.26-1.43-.89-.39-1.74-.56-2.56-.69-1.64-.23-3.17-.19-4.65-.11-1.47,.09-2.9,.25-4.25,.4l-3.96,.43-12.84,1.39-5.55,.63,6.18-.66-21.53,3.1c1.21-.08,1.42-.03,4.28-.3l-3.47,.4c-3.13,.63-10.41,1.54-13.82,2.04,.72-.2-1.98,.1-4.36,.36l.95-.03-6.99,.8c-2.39,.3-4.75,.52-7.15,.71l-13.51,1.13c-1.13,.1-1.99,.13-2.5,.14-2.6,.28-5.19,.56-7.8,.96,.15-.06-.19-.05-.72,.03l-.91,.13-1.04,.21c-.65,.21-1.2,.36-1.34,.43-.14,.05,.12-.12,1.1-.45-.76,.27-1.55,.56-2.3,1.09-.77,.47-1.43,1.28-1.83,2.11-.75,1.72-.71,3.34-.7,4.83,.1,3,.42,5.83,.67,8.59,.16,2.46,.26,4.98,.47,7.52,.2,2.53,.47,5.07,.77,7.61,.6,5.09,1.34,10.19,1.97,15.31,1.24,10.27,2.49,20.63,3.72,30.85v-.51c.9,7.15,1.9,13.42,2.77,22.14,.91,6.19,1.93,15.03,2.58,17.45,.92,7.15,1.47,9.98,2.63,16.94-.14-1.82,1.3,6.74,.86,3.29-.54-4.65-.76-4.88-1.16-8.84l-.04,.12c-1.24-9.19-2.09-18.42-3.03-27.71-.98-9.28-1.96-18.6-2.94-27.97-.76-6.24-1.49-12.76-2.22-19.33-.68-6.57-1.54-13.25-2.37-19.7-.44-3.48-.84-7.02-1.12-10.57-.26-3.51-.43-7.19-.74-10.7-.14-1.76-.29-3.5-.31-5.13-.01-1.64,.18-3.11,.97-3.82,.16-.22,.46-.36,.7-.54,.32-.13,.57-.31,.94-.41,.69-.26,1.34-.4,2.13-.53,1.52-.27,3.06-.46,4.55-.64,2.84-.35,4.92-.4,7.37-.54l8.78-.75c3.07-.26,6.25-.46,9.53-.84,6.45-.74,13.07-1.53,19.28-2.36l-.61,.07c6.6-.85,11.57-1.35,18-2.2-.04-.04,.96-.17,1.44-.25,.57,.03,10.04-1.28,19.66-2.49,4.81-.53,9.72-1.52,13.21-1.06,.88,.13,1.56,.31,2.18,.67,.62,.32,1.12,.7,1.5,1.09,.76,.77,1.14,1.43,1.26,1.66,.33,.51,.59,1.11,.84,1.72,1.11,3.02,1.21,6.5,1.57,9.92,.3,3.42,.56,6.83,.78,10.18,.45,6.7,.8,13.18,1.3,19.06,.31,2.54,.64,5.41,.96,7.55,.11,2.09,.33,2.47,.57,4.98,.29,6.4,1.07,10.1,.74,6.8,.39,2.61,.8,5.21,1.24,7.74,.43,2.52,.98,5,1.35,7.21,.36,2.08,.6,4.18,.79,6.34,.17,1.83,.16,2.86,.11,3.8,.17,2.36,.22,3.2,.26,4.07,.05,.86,.05,1.8,.33,4.25,0,1.21,1.66,12.35,1.78,13.75l-.11-.8c.63,5.7,.8,9.54,1.39,15.09,.19,1.93,.35,3.87,.47,5.82,.06,.98,.1,1.96,.13,2.94,.02,.97,.05,2,0,2.86-.06,.87-.24,1.63-.59,2.16-.33,.53-.94,.98-1.72,1.36-1.64,.75-3.52,1.34-5.37,1.74-3.76,.8-7.67,.97-11.53,1.16-3.89,.16-7.68,.47-11.28,.76-.13,.16,3.18-.3,3.37-.1-4.26,.32-8.54,.66-12.83,1.13-2.14,.24-4.29,.5-6.43,.81-2.11,.3-4.22,.57-6.34,.83-1.53,.15-3.41,.27-4.12,.3-2.72,.22-1.6,.24-3.59,.41l-.28-.11c-2.9,.38-4.27,.22-7.02,.5-.14,.07-1.14,.15-2.13,.23-.07-.15-3.05,.28-2.91,.14h-.03c-.6,.07-1.02,.12-1.75,.17-1.14,.14-11.58,1.85-12.7,2.08l-.53,.04c-1.56,.21-2.22,.41-1.3,.31l-1.93,.24,.22-.04-1.92,.24c-.36,.03-.76,.02-.23-.12-1.08,.19-2.3,.38-3.38,.49,3.03-.29,6.8-.66,9.98-.92-1.29,.22-3.65,.45-5.06,.65-1.69,.12-5.16,.49-7.85,.74-.59,.08-.98,.29-2.32,.36-.66-.04-1.5,.16-2.62,.17,1.26-.17,2.51-.27,3.8-.41-.24-.1-3.16,.26-4.16,.28-.17,.03-.62,.07-1.18,.1l-.88,.02c-.33,.01-.52-.04-.77-.03-.08,0-.35-.14-.61-.34,.24,.1,.08-.03-.25-.34l-1.28-1.23c-.12-.11-.27-.32-.36-.47-.09-.14-.13-.18-.09-.03-.06-.04,0,.12,.1,.31,.05,.1,.12,.19,.18,.26l.04,.05,.15,.13,.29,.27c.7,.69,1.15,1.11,.62,.73-.11-.13-.54-.58-1.12-1.08-.22-.16-.54-.76-.68-1.21-.08,.02,.18,.62-.11,.08-.35-1.02-.63-2.29-.67-3.02,.06,.23,.13,.73,.19,1.08-.07-.39,.02-.05,.2,.6,.18,.62,.52,1.64,.95,2.14,.05,.07,.1,.1,.14,.15l.15,.11c.26,.2,.47,.38,.66,.53,.38,.32,.67,.56,.89,.71,.42,.28,.54,.3,.26,.13,.06,.06-.22-.06-.83-.57l-.52-.44-.32-.27-.24-.18c-.17-.11-.4-.46-.59-.87-.39-.84-.63-1.89-.79-2.61-.16-.73-.26-1.15-.21-.88,.13,1-.26-.69-.11,.35l.28,1.09c.22,1.33,.29,1.83,.1,1.42-.14-.53-.07-.43,.09,0,.16,.41,.47,1.15,.86,1.56,.1,.1,.17,.15,.28,.23,.21,.15,.38,.29,.54,.42l.76,.61c.38,.27,.5,.34,.16,.1,.17,.16,.34,.3,.49,.41-.26-.12-.78-.55-1.38-1.1l-.49-.43c-.11-.09-.11-.1-.14-.13-.03-.02-.06-.06-.09-.1-.12-.15-.22-.36-.28-.51-.07,.05-.48-.79-.69-1.69l-.06-.31c-.22-.89-.42-2.29-.41-1.63,.23,1.42,.3,1.85,.22,1.87-.07,.02-.27-.41-.45-.86-.35-.92-.75-1.86-.27,.89-.14-1.16-.06-.97,.11-.2,.18,.74,.49,2.15,1.18,2.97,.03,.11,.2,.29,.61,.7,.38,.38,.85,.93,1.53,1.42,.5,.32,.73,.31,.8,.32,.2,0,.06-.04,.23-.06,.76,.14,2.42,.03,2.21,.14,1.18-.18,1.91-.08,3.34-.26,1.25-.19-.09-.04,.8-.18,1.89-.21,4.54-.51,6.04-.68,.59,0,2.38-.08,1.11,.22-2.86,.35,1.06-.34-1.91,.06,1.31,.03-2.63,.38-3.15,.59,.96-.03,2.89-.26,4.49-.49l-.33,.02c1.41-.21,4.24-.62,5.79-.72-.35,.11,.32,.08-.72,.23l1.95-.24c.25-.05,.5-.11-.07-.05,.91-.17,1.84-.26,2.55-.31,.22,.02,10.34-1.59,10.04-1.48,1.41-.16,1.76-.08,3.13-.3,.02,0-.18,0-.53,.05l-1.48,.17-4.42,.59c-3.14,.44-6.06,.89-5.13,.76,.61-.04,4.57-.64,8.51-1.16,3.94-.53,7.85-.88,8.3-.86,1.05-.09,2.31-.21,2.06-.26,1.77-.12-.52,.18,.75,.14,.03-.01-.11-.03,.3-.06l1.22-.02c2.74-.35,6.78-.61,9.63-1.1-.82,.18-1.75,.42-3.59,.69h-.33c-.26,.05-1.78,.23-1.73,.29,1.76-.13,3.27-.3,5.11-.59l1.01-.06s-.04-.01-.03-.02c.61-.03,.55-.01,.33,.04l-.13,.03c.56,.04,2.28-.21,4.26-.54,1.98-.34,4.19-.75,5.79-.9,.93-.16,.08-.05,1.25-.24,3.27-.33,5.53-.51,8.95-.78,1.08-.19,1.17-.23-.16-.21l2.59-.2c-2.33,.43,4.85-.16,2.28,.29,.76,0,2.31-.11,3.76-.25,.14-.07,.36-.19,2.18-.29,2.55-.04,1.94-.03,4.05-.07,.5,.05-.27,.12-.18,.18,3.26-.28,2.87,.04,5.98-.28,.98-.12,2.43-.32,3.65-.59,1.22-.25,2.19-.54,2.22-.63,2.59-.73,2.61-.72,2.4-.5Z"/></g><path class="d" d="M62.25,118.77l-.1,.46c.29-1.5,.49-3.11,.53-4.71-.21,1.74-.63,3.58-1.06,5.27-.42,1.7-.86,3.26-1.01,4.68-.3,.02-.87,.73-1.42,1.38-.55,.66-1.06,1.28-1.04,1.35-.33,.58-.72,1.14-1.17,1.68,.31-.36,.59-.74,.86-1.12-.27,.38-.55,.76-.86,1.12-1.39,1.69-3.34,3.07-5.55,3.86-2.21,.79-4.67,.89-7.1,.44-1.35-.21-3.85-.9-6.2-2.08-2.37-1.15-4.58-2.66-5.56-3.59-.3-.27-.58-.54-.85-.82q.45,.48,.93,.93c-1.4-.94-2.51-1.96-3.29-3.13,.07,.25,0,.33,.27,.89-.13-.21-.25-.43-.36-.65-.27-.23-.58-.7-.83-1.22-.25-.52-.45-1.08-.59-1.44,.15,.13,.02-.46-.07-.99l-.03,.22c-.36-1.99-.69-4.54-.74-6.38,0-.26,.04-.45,.08-.57-.03-.59-.03-1.17,0-1.75,.12,.15,.34-1.41,.31-.58,0-.65,.12-1.3,.28-1.94,.18-.63,.37-1.24,.48-1.87,.81-2.08,2.05-4.07,3.69-5.74,1.63-1.67,3.64-3.02,5.82-3.98h-.13c1.5-.72,2.91-1.37,4.98-1.52,.72-.18,1.61-.33,2.41-.39,.79-.12,1.48-.15,1.8-.28l1.15,.06,.95,.1,.95,.09,1.12,.24c-.38-.28,1.68,.29,.9-.07-1.07-.53-1.18-.39-2.11-.79l.02,.06c-4.51-1.24-9.49-.98-13.99,.91-2.89,1.44-5.84,3.58-7.8,6.4-.97,1.55-1.89,3.24-2.35,5.01-.57,1.72-.79,3.47-.82,5.02,0,.73-.13,1.26-.18,1.88,.08,1.41,.24,2.9,.44,4.49,.21,1.59,.56,3.28,1.24,4.81l-.06-.15c.7,1.62,1.34,2.84,2.51,4.08,.03-.04,.21,.16,.32,.23,0,.2,1.89,1.87,4.03,3,2.1,1.18,4.36,2.04,4.61,2.2l.48,.18c3.05,1.39,6.59,2.54,9.69,2.27,.66-.14,1.39-.33,1.91-.54,.54-.02,.61-.2,1.23-.35,1.7-.04,2.53-.64,1.69-.45,1.23-.54,2.43-1.14,3.41-1.81,.44-.34,.86-.68,1.26-1.05,.34-.32,.57-.45,.82-.53,.84-.86,.66-.53,1.56-1.43,.16-.06,.65-.7,1.07-1.38,.43-.68,.78-1.4,.89-1.54l-.09,.19c.78-1.21,1.48-1.95,2.04-3.27,1.63-3.65,2.04-8.03,1.75-11.67-.16-.02,.1,.8-.11,.86-.1-2.14-.31-4.35-1.06-6.46-.11-.39-.22-.88-.26-1.07-.26-.68-.24-.36-.46-.84l.09-.13c-.46-.64-.42-1.08-.88-1.68-.07,0-.23-.22-.38-.44,.12-.11-.51-.64-.38-.7h-.01c-.1-.13-.17-.22-.29-.38-.12-.1-.73-.63-1.39-1.07-.65-.45-1.33-.82-1.47-.88l-.1-.1c-.34-.24-.54-.25-.36-.09l-.41-.29,.05,.02-.41-.28c-.07-.06-.12-.17,.03-.15-.27-.11-.55-.25-.78-.41,.64,.46,1.38,1.11,1.93,1.73-.29-.17-.74-.58-1.05-.76-.3-.32-1.02-.86-1.6-1.23-.14-.07-.31,.04-.58-.18-.1-.18-.35-.16-.57-.36,.32,.08,.6,.24,.89,.4,.01-.15-.68-.44-.91-.58-.13-.01-.7-.31-1.08-.42,.21-.06-.27-.2-.46-.35-.25-.11-.43-.12-.34-.04-.13,.1,.97,.46,.56,.46-.07-.1-.56-.27-.83-.35-.03,.07,.16,.12-.04,.13-.29-.12-.63-.14-.77-.27,.06,0,.18,.05,.26,.08-.38-.17,2.25,.29,1.74,.16,.1,.09-2.34-.38-2.09-.27,.22,.12-.21,.08,.02,.18h.3c.32,.14,.41,.32,.27,.33-.55-.22,1.74,.09,1.25-.01l.18,.11c-.22-.04-.76-.2-.94-.35-.03,.07-.31,0-.54-.06l-.08-.04c-.24-.04-.56-.17-.44-.02,1.34,.45-1.12,.44,.15,.92-.48-.34,.24-.11,.81,.09,.03,.08,.25,.24,.63,.45,.35,.13,.23,.03,.31,.01,.18,.11,.52,.3,.44,.36,.31,.02,.39,.25,.72,.37,.29,.09,0-.05,.22,0,.41,.21,.96,.54,1.27,.74,.08,.14,.36,.49,.03,.44-.58-.37,.34-.05-.3-.39,.17,.32-.58-.27-.76-.2,.16,.18,.56,.4,.9,.58l-.05-.06c.3,.15,.9,.48,1.13,.78-.11,0,0,.14-.22,0l.37,.28c.06,.02,.12,.03,.02-.06,.21,.08,.36,.25,.47,.38,0,.04,.52,.36,1.01,.72,.49,.35,.93,.75,.89,.74,.23,.25,.2,.38,.45,.59,.04,0-.51-.6-1.08-1.08-.57-.48-1.15-.86-.98-.73,.08,.12,.86,.65,1.53,1.31,.69,.64,1.26,1.39,1.26,1.51,.14,.21,.3,.46,.33,.37,.19,.38-.18-.04-.08,.25,.01,0,.02-.04,.07,.04,.03,.1,.05,.19,.06,.29,.42,.51,.69,1.43,1.06,2.01-.15-.15-.35-.31-.59-.68v-.08s-.22-.36-.28-.32c.13,.39,.28,.7,.51,1.07,.01,.08,.03,.17,.03,.24,0,0,.01-.01,.02-.02,0,.15,0,.14-.05,.1,0,0-.02-.01-.02-.02-.11,.3,.65,1.47,.69,2.23,.08,.21,.04,.01,.14,.27,.07,.77,.1,1.29,.14,2.09,.12,.24,.16,.26,.22-.06,.02,.2,.02,.4,.03,.61-.28-.52-.15,1.14-.43,.55-.05,.18-.04,.53,0,.86,.06,.03,.16,.08,.16,.5-.08,.58-.06,.45-.15,.93-.08,.11-.11-.07-.17-.05,.06,.75-.2,.64-.25,1.33,0,.44-.12,1.29,0,1.33-.1,.58-.2,.56-.3,.49Z"/><g><path class="b" d="M52.47,122.21c-2.95,3.44-8.15,3.21-9.9,2.76-1.71-.44-3.41-1.04-4.8-2.18-6.18-5.04-3.98-17.57,4.45-18.66,12.19-1.58,17.32,11.42,10.25,18.08Z"/><path class="b" d="M39.09,122.4l-.2-.15c.65,.45,1.4,.85,2.21,1.19-.84-.5-1.63-1.09-2.29-1.65-.33-.29-.63-.59-.98-.81-.34-.24-.63-.5-1.02-.67,.11-.17,0-.66-.11-1.1-.15-.42-.27-.84-.32-.84-.18-.31-.4-.62-.53-.98,.07,.25,.22,.47,.33,.69-.11-.23-.26-.44-.33-.69-.45-1.11-.61-2.4-.5-3.71,.16-1.3,.52-2.62,1.18-3.79,.17-.33,.47-.76,.79-1.26,.39-.44,.79-.99,1.32-1.38l.37-.32,.41-.24c.28-.14,.51-.35,.79-.43,.54-.18,.98-.4,1.34-.4l.6-.09-.68,.07c.42-.12,.77-.34,1.21-.39l1.27-.21c-.15-.05-.18-.11-.53-.17h.43c.39-.24,1.3-.12,1.74-.16-.1,.08,.23,.13,.53,.17l-.11-.07c.56,.06,1.14,.27,1.72,.38,.58,.13,1.09,.41,1.56,.59,.13,.05,.21,.13,.25,.18l.84,.45c-.13,.07,.6,.51,.18,.33,.36,.1,.6,.38,.88,.59,.26,.24,.58,.41,.83,.65,1.63,1.8,2.82,4.31,2.89,6.93l.05-.06c0,.46,.07,.9,.07,1.37-.05,.46-.11,.96-.3,1.5-.08,.4-.21,.89-.32,1.33-.09,.44-.28,.78-.24,1.01-.26,.42-.38,.76-.58,1.04-.2,.29-.39,.58-.7,.97,.27-.09-.55,.81-.14,.54,.58-.37,.49-.51,.99-.84h-.04c1.89-1.92,3.08-4.69,2.99-7.51-.12-1.87-.66-3.86-1.65-5.53-1.06-1.79-2.77-3.38-4.37-4.11-.19-.1-.33-.21-.46-.32l-.43-.3-1.2-.48c-.42-.16-.88-.23-1.33-.36-.91-.28-1.87-.28-2.77-.34h.09c-.95-.02-1.66-.04-2.58,.02,0,.04-.13,.04-.2,.08-.05-.03-.42,.05-.95,.19-.26,.09-.58,.13-.88,.29l-.95,.48c-.33,.14-.61,.38-.89,.58l-.75,.57c-.39,.4-.67,.68-.75,.72l-.21,.22c-1.43,1.36-2.64,3.14-3.06,4.81-.01,.38-.09,.79-.03,1.12-.12,.28,.01,.36-.06,.71-.25,.42-.33,.79-.32,.98,0,.19,.07,.21,.13-.02,0,.38,0,.75-.01,1.11,0,.36,.04,.72,.07,1.05,.06,.3,.08,.61,.19,.91,.08,.25,.06,.41,.01,.55,.21,.65,.02,.49,.23,1.18-.03,.1,.17,.52,.37,.92,.2,.41,.52,.77,.54,.87l-.07-.1c.19,.37,.27,.72,.42,1.04,.15,.32,.32,.64,.56,.98,.71,.91,1.64,1.79,2.7,2.37,1.04,.59,2.12,.97,3.09,1.27,.06-.11-.44-.1-.41-.27l.85,.29,.42,.14,.49,.14c.64,.16,1.26,.25,1.89,.28,.22,.04,.5,.1,.61,.14,.41,.03,.24-.07,.53-.06l.05,.11c.42-.13,.64,.08,1.05-.03,.02-.05,.16-.07,.31-.09,.03,.12,.44-.09,.44,.02h0c.09-.03,.15-.05,.26-.05,.08-.03,.49-.23,.89-.43,.39-.22,.77-.46,.84-.51h.08c.22-.11,.27-.23,.14-.2l.27-.11-.03,.02,.27-.11c.05-.01,.13,.01,.08,.09,.13-.11,.28-.22,.44-.28-.44,.17-1,.3-1.47,.35,.17-.09,.5-.19,.69-.28,.26-.01,.74-.22,1.13-.37,.07-.06,.05-.2,.25-.27,.13,.02,.19-.13,.37-.17-.13,.15-.3,.24-.47,.35,.09,.07,.44-.21,.59-.28,.04-.07,.36-.29,.53-.47-.01,.14,.2-.07,.34-.14,.13-.11,.17-.22,.1-.19-.03-.11-.52,.4-.43,.16,.09,0,.3-.23,.41-.36-.04-.04-.11,.05-.08-.07,.14-.13,.22-.32,.34-.36-.01,.04-.07,.09-.11,.13,.09-.09-.07,.22-.23,.53-.16,.31-.37,.57-.25,.46-.06,.04,.76-1.27,.63-1.15-.12,.09-.01-.15-.13-.05l-.06,.17c-.16,.14-.3,.12-.28,.04,.27-.24-.41,1.01-.25,.75l-.11,.06c.08-.11,.31-.36,.44-.42-.04-.04,.06-.18,.15-.3l.04-.03c.08-.13,.23-.27,.1-.25-.57,.61-.09-.8-.67-.25,.32-.14,.03,.17-.2,.43-.05,0-.21,.05-.42,.18-.15,.14-.06,.12-.07,.17-.11,.05-.3,.18-.32,.1-.08,.17-.25,.11-.39,.24-.12,.13,.03,.02-.05,.13-.21,.15-.54,.31-.73,.39-.1-.02-.36-.01-.26-.19,.34-.17-.05,.22,.29,0-.22-.05,.29-.2,.29-.34-.14,0-.37,.12-.54,.24h.05c-.15,.11-.48,.29-.7,.3,.02-.07-.07-.07,.05-.14l-.24,.09s-.05,.06,.02,.04c-.09,.09-.22,.1-.32,.1-.03-.02-1.24,.63-1.22,.57-.18,.04-.24-.04-.41,.06,0,.08,1.68-.61,1.43-.55-.08,0-.55,.22-1.05,.4-.49,.18-1.01,.3-1.07,.26-.14,.03-.3,.06-.26,.11-.24,0,.06-.11-.11-.15,0,0,.02,.03-.04,.03l-.16-.06c-.35,.12-.89,.03-1.27,.13,.11-.06,.24-.16,.48-.23l.04,.03s.23-.04,.22-.1c-.23-.03-.42,0-.66,.04l-.13-.05s0,.01,0,.02c-.08-.04-.07-.04-.04-.06,0,0,0,0,.02-.01-.13-.16-.89,.06-1.29-.08-.12,0-.01,.03-.17,.03-.39-.13-.65-.26-1.08-.42-.16,.03-.18,.05-.03,.17l-.32-.12c.35-.09-.54-.36-.17-.44-.08-.07-.26-.14-.45-.17-.03,.04-.09,.1-.31,.02-.28-.17-.22-.13-.44-.28-.03-.08,.07-.07,.07-.12-.4-.08-.27-.26-.6-.41-.22-.09-.61-.3-.67-.22-.26-.16-.21-.24-.14-.29Z"/></g><path class="d" d="M70.55,188.25s-.1,.06-.14,.09c.43-.28,.95-.94,1.3-1.61-.51,.68-1.23,1.32-1.64,1.43-.12,.04-.23,.09-.36,.12-.06,.02-.14,.04-.21,.06-.08,.01-.11,.04-.35,.04-.78,.05-1.68-.18-2.16-.1-.25-.22-.88-.55-1.68-.9l-1.23-.52c-.44-.18-.68-.26-1.03-.39,.48,.72,.95,1.38,1.06,1.47,.95,1.23,1.86,2.31,2.24,3.04-.18-.29-.3-.53-.55-.86l-.8-1.05,.8,1.05c.25,.33,.37,.58,.55,.86l.15,.43c.05,.12,.11,.34,.11,.36,.04,.12,.06,.24,.08,.37,.03,.25,.04,.51,.01,.77-.05,.51-.24,1.01-.55,1.42-.61,.84-1.76,1.36-2.78,1.29-.29-.02-.65-.06-1.11-.26-.45-.19-1-.53-1.44-.92-.93-.79-1.4-1.87-1.41-2.37-.01-.15-.02-.29,0-.43-.03,.23-.02,.23-.01,.48-.13-.3-.19-.58-.2-.89l.02-.77c.02-.31-.04-.59-.07-.87-.06,.2-.09,.24-.18,.7,.03-.19,.02-.37,.03-.56-.08-.25-.21-.64-.32-1.03-.15-.37-.29-.75-.44-.95,.12,.07,0-.32-.17-.62v.15c-.57-1.19-1.6-2.23-2.37-2.98-.11-.1-.16-.21-.19-.28l-.75-.62c.05-.04-.01-.14,0-.16-.41,.27-.66,.32-.69,.33-.02-.02-.05,.08,.56-.24-.09,.06-.19,.11-.3,.15-.08,.04-.14,.07-.23,.08-.12,.05-.17-.02-.13,.03,.05,.07,.05,.2,.05,.42l-.04,.34v.09s-.02,0-.02,0h0s.19,.03,.31,.07l.39,.15,.09,.04h.02s-.02,.07,.09-.17c.08-.16,.18-.32,.28-.48,.03-.05,.05-.05,.03-.12,.07-.08,.04,.04,.05-.04,.01-.07,.03-.14,.06-.2,.05-.07,.18-.4,.26-.58h0l-.19-.06-.76,1.55c.15,.07,.37,.1,.57,.06,.09-.02,.19-.06,.25-.09l.03-.02,.12-.09c.08-.06,.1-.09,.14-.14,.91-.75,1.64-1.49,2.46-2.27,.44-.35,.63-1,.7-1.38,.1-.5,.09-.63,.12-.88,.02-.24,.04-.5,.12-.76,.03-.12,.15-.27,.26-.21,.11,.04,.2,.1,.31,.15l-.04-.09c.26,.13,.55,.23,.89,.4,.38,.2,.81,.47,1.25,.82,.74,.35,1.8,.83,2.18,.68,.83,.25,1.2,.17,1.9-.03-.11-.03,.06-.13,.19-.21,.12-.07,.3-.19,.06-.14-.48-.03-.46,.12-.83,0v.04c-.81-.07-1.68-.66-2.58-1.34l-1.52-1.19c-.43-.32-.86-.64-1.3-.88-.11-.06-.22-.14-.32-.18l-.28-.05c-.19-.02-.38-.1-.56-.07-.19,.03-.45,.15-.59,.3-.16,.14-.29,.3-.4,.5-.23,.4-.38,.95-.49,1.53l-.16,.84c-.03,.15-.06,.29-.1,.41-.02,.05-.03,.12-.05,.16l-.02,.04s-.04,.06-.07,.09l-.75,.69-.9,.86-.44,.41-.2,.18-.07,.06h.01c.05,.07,.17,.27,.25,.4,.08,.15,.16,.35,.23,.36,.06,.06,.07,.16,.03,.23l-.51,1.03,.19,.08,.06,.02,.05,.02s.09,.07,.39,.09c.04,0,.1,0,.21,0,.11-.03,.29-.01,.62-.29,.38-.28,.44-1.04,.28-1.26-.12-.27-.22-.33-.27-.4-.25-.2-.14-.1-.17-.13h-.02l-.05-.04-.04-.02-.06-.03-.39-.16c-.27-.1-.5-.19-.9-.27-.11-.02-.22-.04-.47-.03-.12,.02-.33,.02-.64,.24-.17,.13-.3,.3-.37,.5-.04,.09-.06,.22-.07,.29,0,.06,0,.12,0,.19,.06,.47,.16,.52,.22,.65,.06,.09,.12,.17,.19,.24,.27,.29,.4,.37,.58,.53,.3,.23,.41,.48,.58,.73,1,.89,2.05,2.23,2.41,3.45v-.06c.08,.33,.09,.62,.07,.89l-.16,1.02s.03,.17,.04,.25c-.04,.04-.09,.48,.04,1.07,.12,.59,.41,1.31,.83,1.9,.82,1.23,2.04,1.97,2.14,2.1l.26,.15c.78,.56,1.67,1.11,2.76,1.31,1.07,.21,2.15,.02,2.98-.4,.33-.25,.68-.55,.88-.82,.29-.15,.26-.29,.54-.54,.94-.49,1.09-1.18,.72-.77,.42-.71,.7-1.48,.79-2.19,.03-.33,.02-.66-.02-.98-.04-.27,0-.43,.06-.58l-.05-.23s0-.05,0-.07c0-.04,.03-.08,.02-.18,.08,0-.11-.24-.33-.5l-.16-.18s.04,0,.06,0h-.02c.37,.15,.76,.44,.93,.47,.04,0,.07,.02,.11,.02h.31c.33-.02,.68-.07,1.02-.17,.7-.2,1.35-.65,1.79-1.14,.87-.96,1.36-2.01,1.69-3.07-.11-.05-.11,.47-.28,.44,.44-1.17,.73-2.52,.4-3.89l-.08-.69c-.14-.44-.15-.23-.29-.54l.08-.09c-.32-.4-.29-.71-.63-1.06-.05,.01-.17-.11-.29-.24,.09-.1-.39-.35-.29-.41h0c-.07-.07-.14-.1-.23-.2-.09-.04-.55-.28-1.03-.42-.48-.15-.98-.2-1.07-.2l-.08-.04c-.26-.06-.38,0-.24,.06-.1-.03-.21-.05-.31-.06h.04l-.32-.05c-.06-.01-.12-.07-.03-.12-.19,.04-.4,.04-.59,.04,.53,.04,1.15,.24,1.58,.5-.2-.02-.55-.17-.78-.18-.25-.13-.83-.21-1.3-.18-.1,.03-.14,.15-.37,.16-.13-.06-.25,.07-.45,.07,.18-.12,.41-.16,.63-.21-.06-.11-.56,.07-.73,.11-.07,.06-.45,.19-.63,.32,.04-.14-.19,.02-.32,.03-.12,.05-.17,.12-.11,.13,0,.13,.51-.19,.4,0-.08-.02-.3,.12-.41,.18,.03,.06,.1,0,.05,.09-.14,.05-.23,.18-.33,.15,.01-.02,.07-.04,.1-.05-.08,.03,.08-.15,.27-.36,.19-.21,.42-.43,.3-.34,.05,0-.21,.24-.4,.44-.19,.2-.36,.34-.31,.33,.11-.01-.03,.13,.08,.11l.08-.12c.15-.04,.26,.02,.22,.09-.12,.05,0-.12,.14-.3,.14-.18,.32-.38,.21-.28l.11-.03c-.09,.09-.34,.26-.46,.25,.03,.06-.08,.14-.17,.2h-.04c-.08,.08-.22,.12-.13,.17,.59-.27-.16,.75,.45,.51-.32,0,.03-.16,.3-.32,.05,.03,.2,.02,.42-.05,.18-.1,.08-.1,.1-.14,.11-.02,.33-.09,.33-.01,.12-.14,.26-.04,.43-.12,.15-.09-.02-.03,.09-.11,.26-.06,.62-.08,.82-.06,.08,.07,.3,.2,.13,.29-.36-.03,.14-.17-.24-.15,.17,.15-.34,.05-.39,.2,.13,.04,.36,.03,.55,.01l-.04-.02c.17-.02,.54-.02,.7,.11-.05,.04,.02,.1-.11,.08l.22,.06s.07-.02,0-.05c.12-.02,.22,.05,.29,.1,0,.03,.32,.07,.62,.17,.31,.09,.6,.23,.57,.23,.14,.11,.13,.19,.29,.27,.03-.01-.33-.26-.69-.42-.37-.15-.72-.22-.61-.19,.05,.06,.53,.17,.96,.42,.44,.23,.81,.58,.8,.66,.08,.1,.19,.22,.22,.16,.1,.2-.12,0-.08,.17,0,0,.02-.03,.04,.02l.02,.16c.26,.24,.35,.74,.55,1.05-.09-.08-.23-.16-.35-.35v-.05s-.1-.18-.15-.15c.05,.2,.12,.36,.23,.55,0,.04,0,.09-.02,.13h.02c-.02,.07-.03,.06-.05,.04,0,0-.01,0-.02-.01-.12,.15,.26,.77,.16,1.16,.02,.11,.03,.01,.05,.15-.08,.39-.17,.64-.3,1.02,.04,.14,.07,.16,.18,.02-.03,.1-.06,.2-.1,.3-.1-.31-.34,.49-.44,.14-.07,.07-.13,.23-.17,.39,.04,.03,.11,.09,.01,.28-.18,.23-.14,.18-.3,.36-.08,.02-.06-.07-.11-.09-.12,.35-.27,.2-.45,.47-.1,.18-.35,.44-.28,.53-.19,.16-.23,.09-.27,0Z"/><g><path class="d" d="M239.1,97c.65-.94,5.15-3.66,4.57-8.23-1.04-6.15-8.43-10.4-11.73-11.86-4.91-2.18-7.82-3.36-12.73-5.54,1.57,3.31-.32,6.9-3.26,9.09-3.35,2.5-6.97,4.2-10.37,5.56-1.31,.53-2.65,1.05-3.8,1.87s-2.12,1.99-2.4,3.38c-.31,1.56,.31,3.19,1.35,4.39s2.45,2.01,3.91,2.63c6.54,2.79,13.98,2.12,21.06,1.4,3.22-.33,6.44-.66,9.64-1.18,1.04-.17,2.19-.38,2.94-1.19,.52-.56,.66-1.36,1.16-1.91,.53-.59,1.36-.75,2.01-1.17,.86-.56-2.93,3.61-2.35,2.77Z"/><path class="d" d="M231.65,75.58l-.47-.22c1.51,.62,3.21,1.48,4.68,2.46-1.53-1.2-3.48-2.27-5.22-3.04-1.77-.8-3.5-1.43-5-1.65-.06-.26-.9-.79-1.75-1.26-.42-.23-.85-.45-1.17-.6l-.64-.28c-.19-.08-.31-.12-.33-.12l-3.83-1.46,2.6,1.02-2.6-1.02c-.48-.21-.66-.2-.93-.25l.91,2.16,.41,1.03c.08,.18,.12,.33,.14,.46l.08,.42,.08,.41c.02,.06,.03,.14,.03,.24v.47c-.05,.25-.06,.5-.13,.74-.22,1-.76,1.97-1.47,2.83-.73,.87-1.6,1.55-2.67,2.24-1.03,.68-2.12,1.31-3.25,1.88-1.32,.7-3.82,1.85-6.47,2.83-1.34,.51-2.81,1.11-4.03,2.03-1.22,.9-2.07,2.07-2.47,3.05-.23,.56-.39,1.18-.43,1.81,.15-1.03,.15-1.05,.54-1.99-.46,1.19-.47,2.51-.17,3.57,.29,1.08,.82,1.99,1.46,2.76-.16-.32-.17-.39-.5-1.15,.14,.3,.31,.59,.5,.87,.34,.32,.85,.85,1.43,1.29,.57,.45,1.18,.82,1.59,1.01-.22-.02,.39,.37,.95,.64l-.19-.16c2.09,1.07,4.71,1.75,6.74,2.06,.28,.05,.49,.11,.61,.17,.65,.06,1.31,.12,1.96,.15-.16,.11,1.61,.23,.67,.24,1.47-.05,2.95,.05,4.33-.14,4.95-.16,10.08-.97,15.07-1.78l-.13-.03c.87-.15,1.69-.33,2.55-.5,.85-.2,1.81-.33,2.8-.92,.28-.24,.55-.54,.72-.9,.18-.36,.28-.71,.44-1.06,.28-.75,.95-1.14,1.36-1.44,.11-.08,.2-.15,.27-.22l.62-.25,.25-.11s.09-.05,.12-.01c0,.03-.02,.06-.03,.08-.15,.18-.32,.3-.52,.45-.21,.17-.43,.25-.8,.52-.17,.12-.39,.24-.64,.41-.26,.18-.57,.44-.81,.79,.09-.21,0-.16-.16,.03-.03,.05-.11,.1-.1,.18l.07,.27c-.07,.12-.17,.23-.25,.34-.04,.05-.08,.11-.12,.13,.01-.21,.04-.21,.06-.28l.06-.11,.05-.08c.04-.07,.06-.12,.08-.16,.03-.07,0-.06-.15,.1l-.06,.07-.03,.05s-.05,.09-.07,.14l-.03,.08c-.02,.06-.03,.17-.03,.2l.02-.02,.03-.05,.12-.23c.03-.09,.11-.15,.1-.25-.06-.14-.15-.28-.17-.39,.19-.38,.41-.73,.67-.98,.52-.52,1.05-.7,1.69-1.28l-.05,.1c.67-.4,1.06-.58,1.26-.64,.02-.01,.15-.05-.04-.09-.1-.01-.22-.02-.36,0-.28,.02-.63,.08-.99,.29-.59,.29-1.19,.49-1.69,.95-.25,.22-.47,.49-.66,.8-.1,.15-.18,.32-.27,.48l-.19,.36c-.19,.33-.28,.43-.51,.59-.22,.15-.5,.27-.84,.36-.67,.18-1.59,.26-2.46,.35l-2.63,.28c-3.01,.47-6.33,.83-9.49,1.11-3.39,.34-7.04,.52-9.9,.28-.69-.03-1.16-.22-1.72-.37-1.29-.2-2.73-.55-4.15-1.06-1.43-.51-2.82-1.18-3.85-2.03l.1,.09c-1.1-.91-1.56-1.9-1.8-3.1-.04,.01-.06-.18-.09-.27,.05-.06-.03-.53,.14-1.18,.16-.65,.66-1.51,1.43-2.21,.76-.7,1.77-1.24,2.58-1.63,.82-.38,1.46-.64,1.59-.68l.47-.21c3.16-1.2,6.5-2.54,8.95-4.27,.49-.43,1.03-.91,1.42-1.35,.46-.31,.46-.47,.94-.93,1.43-1,1.79-2.06,1.22-1.34,.77-1.18,1.37-2.53,1.51-3.84,.02-.15,.01-.3,.02-.46,0-.15,0-.34,0-.33-.02-.12-.03-.24-.07-.38-.06-.23-.05-.31,.02-.3-.01-.04-.03-.08-.05-.11l-.08-.19s.08,.04,.11,.05c.09,.06,.2,.14,.4,.24,.09,.1,.27,.13,.56,.19l.96,.33c.29,.1,.52,.19,.59,.23l-.19-.06c1.28,.58,2.04,1.16,3.3,1.72,1.73,.8,3.57,1.6,5.36,2.37,1.7,.77,3.33,1.71,4.7,2.7,.1-.09-.63-.4-.57-.56,1.67,1.13,3.12,2.55,4.36,4.04,.21,.28,.4,.67,.46,.82,.33,.51,.25,.26,.49,.64l-.06,.11c.44,.49,.34,.87,.65,1.36,.06,0,.13,.21,.2,.4-.11,.05,.24,.59,.11,.59h0c.02,.12,.05,.2,.06,.34l.18,.43c.08,.21,.12,.46,.18,.74,.08,.56,.04,1.15,.03,1.27l-.05,.1c-.09,.3-.05,.47,.02,.29-.04,.13-.09,.25-.15,.37v-.05l-.16,.37c-.04,.06-.14,.11-.12-.01-.08,.22-.17,.46-.32,.64,.41-.51,.84-1.18,1.11-1.81-.02,.28-.23,.75-.36,1.02-.19,.31-.65,.92-1.04,1.37-.08,.11-.02,.26-.26,.46-.17,.05-.22,.26-.44,.41,.15-.25,.37-.44,.54-.67-.11-.02-.51,.5-.69,.64-.05,.1-.47,.49-.73,.76,.05-.19-.26,.15-.47,.27-.2,.17-.3,.31-.19,.26,.02,.14,.8-.64,.62-.31-.1,.02-.46,.37-.67,.57,.04,.05,.18-.1,.08,.07-.25,.21-.44,.48-.69,.69,.04-.08,.19-.24,.25-.29-.17,.16,.23-.37,.54-.78,.33-.42,.61-.81,.45-.64,.06-.02-.26,.41-.63,.85-.18,.22-.37,.46-.52,.66-.18,.26-.23,.36-.18,.3,.25-.27-.07,.26,.18-.01,.07-.12,.15-.26,.2-.34,.31-.27,.47-.26,.41-.16-.23,.2,.02-.17,.27-.52,.25-.35,.48-.7,.33-.51l.16-.11c-.12,.17-.5,.56-.7,.66,.04,.04-.16,.26-.33,.44l-.08,.06c-.16,.17-.53,.63-.31,.48,.18-.22,.28-.3,.35-.35,.07-.05,.11-.05,.13-.03,.04,.04,0,.19-.03,.34-.09,.35-.11,.6,.4,.09-.53,.33,.05-.26,.49-.66,.07,0,.32-.13,.66-.4,.26-.27,.12-.19,.15-.26,.17-.12,.46-.39,.48-.3,.14-.26,.36-.3,.56-.59,.17-.26-.04,0,.07-.2,.3-.35,.68-.86,.87-1.17,.12-.09,.44-.41,.38-.09-.36,.61-.01-.32-.36,.33,.3-.19-.32,.57-.32,.74,.19-.15,.48-.54,.66-.91l-.06,.06c.17-.32,.45-.96,.64-1.31,.02,.11,.11-.04,.04,.21l.16-.48c0-.07,0-.13-.05,0,.04-.23,.11-.46,.17-.63,.02-.01,.05-.18,.07-.43,0-.25,0-.58-.03-.9-.06-.32-.08-.63-.16-.85-.07-.22-.12-.35-.1-.34-.08-.34-.01-.45-.16-.76,0,0,.05,.19,.13,.48,.07,.3,.24,.68,.26,1.08,.13,.79,.03,1.56,.07,1.32,.02-.07,.03-.37,.04-.77-.04-.4-.07-.92-.25-1.38l-.21-.7-.25-.59c-.14-.35-.25-.6-.26-.65-.12-.23-.27-.5-.29-.42-.17-.4,.16,.07,.06-.24-.01,0-.01,.04-.06-.05-.02-.1-.04-.21-.08-.3-.22-.27-.43-.63-.67-.99-.26-.34-.51-.69-.78-.93,.19,.11,.4,.24,.73,.58l.02,.08c.06,.04,.3,.34,.33,.3-.22-.39-.47-.68-.79-1.02l-.13-.22s0,.02-.01,.02c-.07-.14-.06-.13,0-.1,0,0,.02,0,.03,.02-.05-.33-1.24-1.23-1.79-1.81-.19-.14-.04,0-.28-.17-.57-.59-.98-.99-1.66-1.53-.26-.1-.3-.09-.08,.16l-.51-.4c.6,.18-.9-.83-.25-.62-.13-.14-.45-.37-.78-.54-.06,.02-.15,.06-.54-.18l-.83-.6c-.08-.12,.1-.04,.11-.1-.76-.32-.56-.47-1.26-.81-.44-.21-1.33-.6-1.39-.5-.58-.26-.55-.33-.45-.39Z"/></g><g><path class="b" d="M208.17,131.79c1.88-4.26,8.4-6.19,12.92-6.01-1-3.42-2.83-6.71-5.68-8.85-2-1.51-4.3-2.56-6.54-3.68-5.53-2.78-8.21-10.16-8.94-15.75,0,0,13.97-1.16,23.05-1.75s21.64-1.44,21.64-1.44c.71,5.6-2.24,11.48-6.15,15.54-1.74,1.8-3.84,3.26-5.39,5.23-2.21,2.8-3.14,6.44-3.23,10.01,4.18-.14,8.46,1.37,11.37,5.01l-33.05,1.7Z"/><path class="b" d="M204.81,108.03c-.13-.19-.24-.4-.36-.6,1.17,1.92,2.77,3.7,4.73,4.8-2.1-1.28-3.73-3.51-4.95-5.8-1.23-2.29-2.08-4.67-2.91-6.54,.04-.07,.06-.2,.06-.38v-.5l.02-.05c.03-.06,.05-.12,.08-.16,.02-.04,.04-.07,.12-.04-.29,.11,1.65-.01,1.59-.06,1.08-.16,2.17-.31,3.27-.44l-2.27,.28,2.27-.28c6.99-.84,14.6-1.35,22.51-1.68l10.35-.56,3.04-.17,.74-.04c.08,0,.06,0,.09,0,.04,0,.09,0,.07,.06v.06s-.01,.02-.01,.02h0v.14c0,.38-.05,.74-.07,1.08-.08,.68-.2,1.29-.33,1.78-.15,.57-.31,1.14-.52,1.71,.18-.47,.26-.71,.33-.94,.07-.24,.16-.47,.27-.96-.4,2.47-1.31,4.68-2.49,6.64,.27-.31,.37-.33,.92-1.12-.21,.33-.4,.67-.64,.99-.39,1.02-1.93,3-2.71,3.87,.1-.24-.53,.41-1.14,.95l.28-.18c-1.14,1.06-2.49,2.15-3.71,3.43-1.24,1.27-2.19,2.8-2.81,4.17-.16,.39-.32,.66-.42,.83-.32,.91-.57,1.84-.74,2.78-.11-.25-.51,2.33-.37,.96l-.13,1.68c-.03,.75-.08,1.52-.06,2.22l1.31-.02h1.23c.51,.04,1.01,.08,1.5,.13,1.62,.29,3.22,.87,4.65,1.77,.09,.05,.18,.11,.27,.17l.13,.09c.1,.06,.19,.13,.28,.2,.19,.14,.36,.3,.54,.46,.17,.17,.35,.34,.51,.53l.06,.07,.03,.04h-.04l-.17,.02-.35,.03-9.68,.73,.18,.04c-2.52,.21-4.74,.57-7.81,.65-2.18,.28-5.3,.53-6.16,.83-2.53,.17-3.53,.35-6.01,.54,.65,.09-2.4,.28-1.18,.31,1.66,.09,1.74-.06,3.14,0l-.04-.04c6.53-.14,13.06-.37,19.68-.65l3.37-.22,3.66-.19c1.01-.06,2.11-.09,3.05-.17,.82-.13,1.72-.23,2.49-.38l-1.78-2.07c-.32-.33-.6-.66-.94-.99-.37-.32-.72-.65-1.11-.96-.13-.1-.27-.21-.42-.31l-.39-.26c-.18-.12-.37-.22-.55-.34-.37-.23-.76-.41-1.14-.61-.78-.37-1.6-.66-2.42-.89-.83-.22-1.66-.37-2.49-.46-1.08-.09-.94-.05-1.26-.04-.03-.11-.01-.27-.02-.41v-.11l.03-.29,.07-.62c.1-.81,.25-1.57,.44-2.28,.23-.93,.59-1.53,.98-2.22,.38-.82,.86-1.65,1.48-2.42,.61-.78,1.38-1.52,2.21-2.27,.83-.75,1.72-1.51,2.57-2.35,.85-.85,1.63-1.74,2.3-2.67l-.14,.17c1.47-1.93,2.52-3.46,3.45-5.68-.04,0,.1-.35,.15-.53,.07-.08,.44-.95,.74-2.29,.15-.67,.29-1.45,.37-2.3,.06-.9,.12-1.56-.04-3.11,.42-1.96-1.69-1.06-2.72-1.12l-2.24,.21c-1.34,.12-2.3,.2-2.5,.19l-.73,.07c-4.81,.25-9.8,.25-13.92,.55-.89,.14-1.89,.29-2.64,.44-.73-.02-.87,.13-1.75,.18-2.26-.17-3.55,.07-2.39,.1-1.83,.19-3.68,.3-5.31,.43l-2.27,.25c-.65,.08-1.01,.05-1.34,0-1.66,.17-1.17,.05-2.91,.15-.21-.04-1.3,.09-2.4,.23l-.81,.11-1.08,.12c-.68,.07-1.18,.13-1.38,.14l.42-.05-.57,.04h-.14s0,.09,0,.13l.03,.27,.12,1.04,.22,1.76c.12,.85,.26,1.7,.56,2.68,.77,2.73,2.03,5.51,3.9,7.89,.93,1.18,2.03,2.25,3.29,3.08,1.31,.84,2.49,1.34,3.6,1.93,.1-.09-1-.47-.98-.65,2.66,1.35,5.2,2.8,6.91,4.93,.3,.39,.61,.93,.71,1.14,.45,.76,.35,.39,.67,.96l-.05,.13c.55,.78,.55,1.28,.95,2.08,.02,0,.09,.13,.12,.18,.01,.01,.02,.02,.02,.03-.13,0,.03,.06-.1,.01h.01s0,.01-.02,0h0s.06,.05,.06,.09c0,.02,0,.04-.01,.06-.05,.03,.08,.04-.28,.09-1.03,.18-2.01,.48-2.2,.55l-.2,.02c-.57,.14-.79,.29-.45,.23-.23,.06-.47,.11-.7,.18l.08-.03-.69,.21c-.13,.03-.29,.02-.11-.09-.38,.16-.8,.36-1.19,.48,1.09-.37,2.47-.67,3.65-.77-.46,.12-1.32,.27-1.82,.44-.62,.09-1.87,.47-2.81,.87-.2,.11-.27,.3-.75,.49-.26,.04-.49,.31-.89,.48,.39-.3,.81-.55,1.26-.77-.13-.08-1.1,.53-1.44,.74-.13,.14-.95,.69-1.38,1.16,.07-.13-.04-.06-.2,.08-.15,.15-.35,.37-.5,.49-.31,.31-.42,.59-.29,.46-.03,.14,1.18-1.24,.86-.72-.14,.08-.7,.7-.94,1.1,.05,.04,.22-.23,.1,.05-.32,.39-.47,.92-.67,1.14,.03-.09,.13-.27,.21-.4-.16,.29,.15-.56,.62-1.31,.48-.73,1.06-1.36,.76-1.05,.1-.06-.54,.64-.99,1.45-.25,.39-.42,.81-.53,1.1-.12,.29-.16,.44-.12,.35,.21-.34-.03,.3,.18-.06l.14-.44c.27-.5,.53-.59,.44-.42-.26,.38,0-.22,.34-.83,.36-.58,.81-1.13,.54-.83l.26-.2c-.24,.24-.81,.94-1.07,1.19,.05,.04-.21,.42-.39,.76l-.07,.12c-.16,.37-.43,.85-.23,.66,.53-1.03,.48-.6,.45-.2-.03,.41-.04,.78,.45-.11-.51,.7-.03-.35,.55-1.06,.1-.03,.39-.32,.89-.72,.4-.38,.21-.26,.27-.35,.25-.19,.74-.5,.72-.4,.29-.34,.6-.33,1.01-.63,.37-.25-.05-.02,.22-.21,.6-.32,1.47-.71,1.98-.87,.22-.01,.84-.12,.45,.14-.95,.34,.3-.29-.68,.1,.47-.04-.84,.4-.96,.59,.34-.07,.94-.36,1.47-.56l-.11,.02c.45-.21,1.4-.53,1.95-.57-.11,.08,.13,.06-.22,.17l.66-.16c.08-.03,.16-.07-.03-.04,.31-.11,.63-.15,.88-.16,.05,.02,.91-.2,1.82-.33,.99-.13,1.8-.17,1.76-.15h.15c.14,.04,.05-.09,.05-.15l-.04-.2c-.03-.13-.07-.28-.18-.51-.01,0,.02,.09,.08,.26l.11,.32,.07,.19,.04,.11s-.05,.02-.07,.03c-.66,.01-1.69,.06-2.38,.18-.66,.09-1.09,.21-.86,.16,.11,0,.52-.08,1.09-.15,.65-.09,1.48-.13,2.22-.15,.11,.01,.03-.11,0-.2l-.09-.27-.19-.51c-.12-.32-.24-.62-.34-.87-.21-.51-.35-.83-.36-.91-.16-.34-.35-.74-.37-.63-.25-.57,.18,.12,.03-.3-.01,0,0,.05-.07-.08-.04-.14-.09-.28-.13-.42-.53-.82-1.22-2.1-1.98-2.8,.24,.19,.54,.38,.97,.89l.04,.11c.07,.06,.39,.51,.43,.47-.31-.56-.64-.99-1.1-1.48l-.2-.31s0,.02-.01,.02c-.11-.19-.1-.18-.03-.13,0,0,.02,.01,.04,.03-.06-.21-.51-.66-1.06-1.14-.56-.47-1.24-.94-1.69-1.3-.29-.17-.04,0-.41-.21-.95-.7-1.64-1.14-2.7-1.74-.38-.12-.42-.1-.04,.18l-.81-.44c.83,.2-1.45-.93-.54-.69-.22-.16-.71-.41-1.17-.61-.07,.02-.19,.06-.7-.24-.7-.46-.52-.37-1.06-.81-.09-.14,.13-.02,.13-.08-.46-.26-.59-.48-.74-.65-.14-.18-.27-.35-.62-.71-.47-.41-1.24-1.4-1.34-1.36-.49-.71-.43-.75-.3-.73Z"/></g><g><path class="b" d="M224.13,145.37c-2.71,.62-6.74,2.38-9.22,4.87-.95,.96-2.75,3.07-3.45,4.22-4.92,8.07-4.43,17.16-2.82,26.47,.3,1.74,.69,3.52,1.66,5s2.64,2.62,4.41,2.49c0,0,26.63-2,34.66-3.22,1.63-.25,3-2.13,3.82-3.56,.68-1.17,.62-2.62,.53-3.97-.25-3.65-.64-7.29-1.18-10.91-.52-3.49-1.18-7-2.69-10.19-3.25-6.88-10.57-11.64-18.17-11.82,0,0-4.83-.01-7.55,.61Z"/><path class="b" d="M206.46,171.51v.64c-.11-2.05-.04-4.24,.23-6.37-.91,4.63-.61,10.26,.74,13.61-.17,.23-.15,1.42-.01,2.63,.13,1.21,.5,2.44,.58,2.46,.42,.95,.93,1.9,1.69,2.76-.52-.59-.92-1.23-1.25-1.88,.34,.65,.74,1.29,1.25,1.88,.6,.66,1.3,1.24,2.13,1.66,.82,.42,1.79,.69,2.79,.63,1.56-.13,3.13-.26,4.73-.39,3.17-.24,6.44-.43,9.77-.63,3.69-.22,13.69-1.03,17.5-1.4,.55-.05,1.1-.1,1.66-.17l-1.85,.16,1.69-.29,.82-.16,.41-.08c.13-.02,.26-.05,.48-.1,.79-.2,1.4-.6,1.89-1.01,.49-.42,.88-.86,1.23-1.32-.31,.26-.37,.3-1.15,.91,.32-.25,.59-.53,.86-.81,.28-.45,.75-1.15,1.15-1.88,.19-.33,.44-.84,.54-1.24,.12-.42,.17-.79,.18-1.08,.06,.26,.2-.66,.18-1.41l-.06,.3c-.07-2.81-.47-5.86-.74-8.29-.04-.33-.04-.59-.02-.75l-.38-2.29c.15,.16-.17-1.92,.07-.84-.4-1.7-.6-3.47-1.14-5.08-.68-2.91-1.82-5.93-3.74-8.48-1.86-2.57-4.37-4.65-7.11-6.12l.11,.12c-1.93-1.01-3.78-1.55-6.3-2.19-.46-.06-.97-.13-1.5-.15-.52-.05-1.05-.07-1.54-.05-.98-.01-1.82,.15-2.18,.27-2.12,.12-2.97,.28-4.98,.62,.53,.01-1.9,.53-.89,.42,1.31-.08,1.38-.22,2.53-.2l-.04-.04c1.34-.08,2.69-.1,4.05-.09,1.33,0,2.58,.17,3.87,.44,2.54,.55,4.97,1.62,7.14,3.09,3,1.83,5.56,4.84,7.05,8.13,1.67,3.56,2.35,7.99,2.94,11.49,.15,.83,.12,1.45,.14,2.17,.22,1.61,.41,3.45,.56,5.35,.07,.95,.17,1.93,.15,2.77,0,.42-.06,.82-.15,1.18-.1,.38-.2,.6-.45,1.01l.09-.14c-.46,.8-.96,1.42-1.49,1.92-.27,.25-.54,.46-.82,.61-.14,.08-.27,.14-.41,.18-.16,.05-.19,.06-.47,.1,.01,.03-.28,.08-.41,.12-.17-.05-2.93,.4-5.77,.79-2.84,.39-5.72,.77-6.07,.75l-.61,.08c-4.04,.3-8.24,.32-11.7,.64-.75,.14-1.59,.28-2.21,.42-.62-.02-.73,.13-1.47,.17-1.9-.19-2.99,.04-2.01,.08-.77,.08-1.54,.15-2.29,.21l-1.11,.08c-.35,.03-.75,.06-.97,.06-.48,.01-.98-.09-1.48-.31-.42-.18-.6-.4-.73-.6-.47-.36-.59-.54-.72-.71-.12-.19-.24-.35-.54-.92-.03-.16-.44-.85-.74-1.66-.31-.8-.54-1.69-.56-1.89l.06,.22c-.28-1.63-.22-2.79-.45-4.41-.55-4.5-.82-9.45,0-13.48-.13-.06-.13,.9-.29,.92,.38-2.41,1.16-4.73,2.19-6.91,.22-.38,.5-.83,.62-.99,.4-.66,.17-.43,.45-.91h.13c.33-.8,.66-.9,1.09-1.56-.01-.06,.15-.29,.33-.5,.1,.06,.53-.67,.59-.57h0c.11-.14,.18-.24,.33-.38,.09-.13,.56-.83,1.05-1.48,.47-.62,1.02-1.19,1.14-1.3l.13-.07c.34-.27,.45-.44,.22-.31l.44-.31-.05,.04,.45-.29c.09-.05,.21-.06,.11,.07,.24-.19,.52-.4,.8-.53-.78,.35-1.72,.85-2.48,1.32,.26-.26,.83-.61,1.16-.84,.44-.21,1.31-.66,2.02-.95,.15-.08,.19-.26,.56-.37,.21,0,.39-.19,.71-.26-.32,.19-.64,.32-.98,.48,.1,.07,.84-.32,1.12-.41,.11-.09,.78-.33,1.19-.51-.15,.16,.36-.06,.63-.09,.29-.08,.45-.17,.33-.17,.06-.15-1.15,.31-.79,.07,.12,.01,.67-.19,.97-.29-.01-.06-.22,.02-.04-.1,.34-.09,.68-.25,.89-.23-.06,.03-.2,.06-.3,.08,.22-.05-.35,.19-.89,.47-.54,.27-1.05,.57-.79,.45-.08,0,.49-.31,1.07-.58,.58-.26,1.15-.47,1-.44-.28,.04,.17-.16-.12-.11l-.29,.15c-.39,.08-.57,.02-.45-.06,.63-.2-1.68,.98-1.15,.75l-.23,.05c.21-.13,.81-.37,1.07-.38-.02-.06,.29-.18,.54-.27l.09-.02c.26-.1,.63-.17,.44-.21-1.59,.41,.92-.87-.66-.51,.7-.04-.19,.17-.87,.42-.08-.02-.41,.01-.91,.16-.42,.17-.23,.14-.3,.2-.24,.06-.69,.22-.66,.13-.29,.22-.54,.17-.91,.38-.32,.2,.04,.02-.18,.17-.51,.23-1.2,.6-1.59,.81-.18,.03-.69,.2-.42-.08,.74-.43-.19,.31,.56-.16-.41,.06,.66-.42,.76-.59-.29,.07-.79,.34-1.2,.61l.09-.03c-.36,.23-1.05,.72-1.47,.93,.06-.11-.13-.02,.12-.22-.16,.11-.33,.22-.48,.34-.05,.06-.1,.12,.04,.03-.19,.2-.43,.35-.61,.47-.04,0-.61,.55-1.09,1.15-.48,.59-.9,1.19-.89,1.15-.27,.32-.4,.34-.62,.69,0,.02,.15-.18,.38-.47l.82-1.04c.59-.74,1.23-1.37,1.02-1.17-.16,.1-.98,.99-1.69,1.93-.73,.93-1.38,1.89-1.5,1.97-.18,.25-.39,.57-.3,.54-.32,.42,0-.19-.26,.09,0,.01,.04-.01-.03,.09-.09,.09-.17,.18-.25,.27-.16,.38-.42,.82-.67,1.26-.24,.45-.45,.92-.59,1.33,.05-.25,.07-.55,.27-1.08l.07-.07c0-.08,.23-.49,.17-.5-.31,.44-.46,.87-.66,1.39l-.17,.25s.02,0,.02,0c-.11,.15-.11,.13-.1,.06,0,0,0-.02,0-.04-.3,.24-.72,1.96-1.06,2.86-.07,.28,.02,.03-.06,.38-.32,.93-.58,1.58-.8,2.59,0,.34,.03,.37,.18,0l-.17,.76c-.08-.74-.41,1.41-.47,.61-.08,.22-.15,.69-.18,1.13,.04,.05,.11,.13,.06,.68l-.2,1.21c-.07,.15-.08-.09-.14-.06,.04,.99-.18,.85-.19,1.79,.02,.58,.02,1.73,.14,1.76,.02,.78-.06,.78-.15,.71Z"/></g><path class="d" d="M228.54,165.12l.17,.6c-.2-.75-.54-1.62-.68-1.66-.09-.07-.14-.11-.38-.18-.21-.06-.54-.11-.83-.14-.59-.07-1.18-.07-1.68,.03,.5-.05,1.06,0,1.64,.1,.28,.05,.61,.13,.81,.2,.23,.09,.24,.13,.28,.19,0-.05,.36,.94,.53,1.76,.21,.86,.42,1.83,.8,2.82,.19,.49,.43,.99,.73,1.45,.33,.51,.73,.95,1.16,1.29,.85,.69,1.87,1.07,2.85,1.1,.11,.14,.62,.41,1.48,.37,.85-.02,1.98-.56,2.62-1.34,.66-.76,.96-1.52,1.16-2.04,.18-.52,.26-.83,.24-.87,.2-1.05,.35-2.02,.61-2.89-.18,.6-.32,1.24-.45,1.93,.14-.68,.27-1.33,.45-1.93,.19-.67,.46-1.32,.81-1.8,.32-.46,.83-.86,1.36-1.08,.54-.23,1.08-.24,1.44-.07,.36,.14,.7,.57,1.06,1.31,.33,.71,.83,1.74,1.49,2.53,.65,.81,1.46,1.51,2.36,2.07,.23,.14,.46,.27,.71,.39,.27,.13,.54,.24,.82,.33,.57,.17,1.17,.29,1.84,.25,.65-.01,1.54-.27,2.14-.77,.62-.5,1.05-1.25,1.21-2.03,.16-.78,.1-1.58,.04-2.26-.06-.71-.13-1.5-.23-2.35-.19-1.69-.47-3.61-.83-5.51-.36-1.87-.77-3.89-1.62-5.68-.86-1.82-2.03-3.09-2.84-3.91-.48-.47-.97-.91-1.48-1.33,.82,.72,.83,.72,1.62,1.52-1.07-.94-2.15-1.64-3.21-2.3-1.07-.65-2.13-1.2-3.2-1.7,.33,.26,.36,.36,1.17,.92l-1.02-.61c-1.05-.32-3.32-1.32-4.48-1.53,.27-.03-.59-.36-1.37-.56l.29,.16c-1.47-.46-3.11-.72-4.72-.9-1.61-.15-3.19-.15-4.56-.09-.38,0-.67,0-.85-.02-.88,.09-1.74,.25-2.6,.42,.17-.21-2.17,.33-.96-.04-1.9,.59-3.85,1.13-5.48,2.05-1.52,.66-3.01,1.42-4.47,2.21-1.47,.8-2.97,1.65-4.37,2.71-1.4,1.05-2.7,2.35-3.65,3.88-.95,1.52-1.55,3.21-1.89,4.9l.1-.15c-.48,2.38-.31,4.49-.28,7.34,.06,.46,.16,.97,.21,1.47l.14,1.54c.1,1.02,.29,1.82,.57,2.1,.06,.07,.11,.11,.17,.13,.12,.19,.31,.34,.52,.35,.21,0,.39-.08,.55-.17,.32-.19,.56-.42,.82-.57,.72-.4,1.57-.84,2.9-.86-.34-.08,.31-.15,.9-.06,.3,.04,.55,.1,.63,.1,.1,0,.07-.03-.19-.14-.87-.36-1.42-.35-1.87-.33-.46,.04-.88,.09-1.65,.24l.06,.04c-.37,.11-.79,.28-1.08,.4-.13,.05-.24,.11-.35,.17-.11,.05-.23,.1-.35,.06-.12-.04-.19-.17-.22-.29-.05-.21-.05-.42-.04-.6-.01-.47,0-1.08,.02-1.66,0-.3,.01-.59,0-.97l-.03-.86c-.02-.57-.02-1.13-.02-1.69,.03-2.24,.32-4.42,1.05-6.43,.53-1.77,1.49-3.4,2.89-4.7,1.39-1.32,3.16-2.37,4.98-3.37,1.97-1.09,4.03-2.18,6.06-3.03,2.03-.85,4.05-1.4,5.9-1.71,.88-.14,1.54-.09,2.29-.03,1.71-.11,3.67-.03,5.64,.31,1.98,.33,3.96,.91,5.76,1.63l-.17-.07c1.91,.78,3.19,1.67,4.84,2.78,.02-.04,.27,.13,.41,.2,.05,.19,2.69,1.75,4.09,4.14,.71,1.2,1.16,2.65,1.47,3.82,.31,1.18,.49,2.05,.49,2.23l.15,.65c.35,2.16,.52,4.42,.6,6.53,.02,1.09-.18,1.22-.48,1.33-.09,.03-.42,.06-.73,0-.32-.06-.64-.16-.95-.31-.64-.2-1.33-.6-1.82-.95-.32-.48-.54-.44-.91-1.03-.26-.81-.53-1.66-.81-2.1-.28-.44-.36-.43-.1,.15-.25-.42-.56-.87-.99-1.28-.42-.41-.99-.73-1.56-.89-1.16-.33-2.26-.1-3.11,.28-.79,.38-1.47,.92-2.02,1.6-.46,.6-.66,.88-.94,1.15-.39,.8-.48,1.07-.62,1.35-.13,.28-.28,.57-.53,1.37-.14,.17-.34,1.2-.55,2.13-.19,.96-.52,1.59-.64,1.66,.03-.04,.06-.09,.09-.14-.39,.47-.77,.5-1.18,.4-.41-.11-.87-.37-1.35-.79-.37-.35-.59-.67-.84-1.21-.23-.52-.42-1.12-.59-1.78-.17-.66-.34-1.38-.58-2.13-.12-.38-.24-.74-.44-1.18-.18-.41-.54-.98-1.02-1.37-.38-.32-.91-.56-1.3-.66-.41-.12-.76-.17-1.09-.21-.66-.08-1.34-.11-2.03-.05-.7,.06-1.42,.23-2.12,.56-.7,.34-1.35,.88-1.79,1.52,.04,.07,.24-.24,.52-.53,.27-.29,.61-.53,.7-.47-.81,.56-1.42,1.42-1.72,2.29-.31,.87-.39,1.71-.42,2.48-.03,1.58,.07,2.82,.03,4.17-.04,.48-.14,1.07-.2,1.28-.1,.84,.05,.51-.01,1.12l-.15,.07c.04,.87-.29,1.16-.41,1.66,.04,.05-.02,.22-.11,.34-.12-.06-.26,.35-.35,.22h0c-.05,.05-.08,.09-.14,.09l-.08,.13c-.02,.05-.16,.13-.47,.09-.29-.03-.73-.16-1.04-.26l-.58-.2-.09-.09c-.29-.2-.44-.21-.32-.06-.1-.09-.19-.18-.26-.27l.03,.02c-.07-.09-.12-.17-.16-.25-.01-.05,.03-.13,.12-.09-.1-.09-.19-.3-.19-.58,0,.41,0,.61,.12,.88,.12,.27,.42,.59,.77,.87-.36-.13-.78-.55-.93-.76-.06-.17-.12-.34-.14-.65-.03-.3,0-.75,0-1.24-.03-.22-.19-.34-.22-.91,.06-.3-.15-.62-.25-1.08,.26,.47,.38,1.02,.44,1.56,.06-.05,.04-.39-.04-.77-.08-.38-.24-.78-.31-.99-.1-.18-.58-1.15-1.08-1.61,.3,.13-.29-.46-.57-.77-.34-.31-.63-.42-.5-.28-.1,.01,.26,.29,.53,.56,.27,.27,.46,.53,.2,.36-.05-.17-.72-.73-1.14-.96-.04,.06,.24,.22-.06,.12-.43-.29-.97-.42-1.23-.58,.1,.01,.3,.09,.44,.16-.32-.13,.6,.06,1.4,.53,.8,.45,1.44,1.13,1.14,.78,.05,.11-.68-.6-1.55-1.01-.86-.44-1.79-.56-1.56-.5,.37,.16-.31,.04,.07,.2,.16,.02,.31,.04,.47,.07,.52,.26,.63,.51,.44,.45-.41-.21,.25-.07,.87,.27,.62,.33,1.18,.83,.87,.54,.07,.09,.14,.18,.2,.28l-1.23-1.11c-.05,.06-.45-.19-.81-.33l-.12-.07c-.38-.14-.92-.32-.7-.14,1.1,.42,.63,.46,.22,.49-.43,.07-.78,.13,.1,.51-.7-.46,.37-.11,1.06,.44,.03,.1,.29,.39,.65,.89,.34,.4,.24,.21,.34,.26,.15,.26,.38,.77,.27,.75,.27,.33,.21,.62,.36,1.07,.13,.41,.04-.04,.15,.25,.1,.65,.07,1.51,.16,1.96-.07,.18,0,.79-.26,.42-.2-.94,.26,.3,.05-.65-.15,.45-.14-.86-.28-1.02-.06,.31-.05,.95,.11,1.5v-.11c.06,.24,.18,.59,.39,.91,.2,.32,.46,.59,.63,.8-.14-.03,0,.17-.28-.07,.17,.17,.35,.31,.53,.45,.08,.03,.17,.06,.02-.06,.29,.14,.55,.32,.74,.46,.02,.04,.81,.4,1.68,.56,.43,.08,.88,.05,1.18-.04,.3-.08,.47-.19,.45-.16,.43-.19,.59-.19,.89-.55,0-.02-.18,.19-.53,.43-.34,.24-.91,.45-1.47,.41-1.12-.08-1.99-.57-1.72-.41,.08,.06,.43,.22,.96,.36,.52,.14,1.3,.2,1.93-.13,.64-.31,1.07-.85,1.33-1.29,.26-.45,.36-.79,.42-.85,.11-.33,.18-.74,.09-.68,.15-.56,.1,.2,.25-.2,0-.01-.04,.03-.02-.1l.15-.39c0-.92,.2-2.22,.06-3.17,.07,.27,.21,.59,.25,1.2l-.04,.1c.02,.09,.02,.59,.09,.58,.08-.58,.09-1.08,.03-1.69l.06-.33s-.02,.01-.03,0c.04-.2,.05-.18,.08-.11,0,0,.01,.02,.02,.04,.23-.36-.18-2.31-.15-3.32-.04-.3-.04-.03-.09-.4,.07-1.02,.16-1.74,.56-2.55,.05-.29,.03-.35-.22-.06,.11-.22,.24-.42,.39-.59-.09,.32,.14,.08,.38-.07,.25-.16,.51-.24,.33,.02,.16-.06,.46-.23,.79-.37,.02-.06,.03-.19,.52-.28,.7,0,.54,0,1.14,.07,.14,.08-.08,.11-.06,.17,.46-.04,.66,.04,.85,.12,.18,.08,.37,.17,.63,.25,.08,.02,.15,.05,.22,.1,.09,.07,.14,.11,.23,.23,.09,.11,.16,.21,.21,.2,.25,.66,.15,.73,.02,.69Z"/><path class="b" d="M102.4,108.67h-.13c.41-.05,.84-.05,1.27-.04-.95-.29-2.07-.51-2.7,.35-.12-.41-1.03-.52-1.03-.41-.18,.1-.36,.18-.54,.25,.13-.04,.25-.09,.38-.14-.12,.05-.25,.1-.38,.14-1.15,.45-2.46,.44-3.8,.39-.74-.01-2.75,.05-3.52-.03l-.33-.02,.37,.05c-.45,.15-.87,.28-1.27,.38,.08,.06,.09,.11,.27,.19l-.21-.03c-.18,.19-.62,.21-.82,.29,.04-.1-.12-.1-.27-.11l.06,.06c-.54,0-1.17,.11-1.66,.13-.07,0-.12-.03-.15-.06l-.46,.1c.03-.13-.39-.08-.18-.17-.34,.17-.7,.1-1.02,.28-1.19,.11-2.45,.27-3.65,.65l.03,.04c-.42,.18-.77,.42-1.3,.44-.36,.16-.88,.27-1.02,.36-.43,.04-.6,.07-1.02,.06,.11,0-.41,0-.21,0,.29,.04,.3,.03,.55,.08h0c1.14,.16,2.28,.44,3.43,.75,.72-.22,1.54-.17,2.3-.27,.83-.11,1.72-.25,2.43-.41,.17-.05,.3,.05,.45,.1,.66-.1,1.5-.11,2.24-.23h-.04c.39-.05,.7,.06,1.09,.02,0-.04,.06-.04,.08-.06,.08,.17,2.26-.51,2.41-.43l.12-.03c.83,.01,1.7,.26,2.4,.17,.15-.09,.31-.18,.43-.28,.13,.06,.14-.08,.29-.08,.41,.3,.62,.14,.41,.04,.31-.08,.62-.08,.9-.12l.38-.12c.11-.04,.17,0,.24,.08,.28-.08,.2,.02,.5,.02,.08,.11,.72-.26,.81-.24l-.05,.02c.34-.01,.59,.19,.92,.17,.93,0,1.93-.19,2.78-.22,0-.12-.19,.04-.21-.12,.5-.02,1.02,.09,1.53,.1,.09,.02,.21,.03,.25,.05,.16-.02,.09-.1,.21-.13l.02,.1c.16-.16,.25,0,.41-.12,0-.04,.06-.07,.12-.09,0,.09,.17-.09,.17,0h0s.06-.04,.1-.04c.06-.08,.66-.53,.73-.56h.03c.09-.04,.13-.09,.07-.08l.11-.03h-.01l.11-.03s.05,.01,.01,.05c.06-.04,.13-.07,.2-.09-.18,.04-.4,.06-.59,.05,.08-.04,.22-.05,.3-.08,.1,0,.31-.03,.47-.06,.03-.02,.06-.06,.14-.07,.04,.01,.09-.03,.16-.04-.08,.04-.15,.07-.23,.09,.01,.03,.19-.05,.25-.07,.03-.02,.18-.07,.27-.12-.04,.03,.08-.02,.13-.04,.06-.03,.1-.05,.08-.04,.02-.02-.25,.09-.16,.04,.02,0,.15-.05,.21-.07,0,0-.05,.01,0,0l.2-.07-.07,.02c.1-.05-.52,.24-.4,.19-.03-.01,.55-.26,.48-.22-.06,.02,.04-.01-.02,0l-.07,.02c-.08,.03-.12,.03-.09,.02,.14-.05-.39,.16-.28,.12h-.05c.05-.01,.18-.06,.24-.07,0,0,.07-.03,.12-.05h.02c.06-.03,.14-.05,.1-.04-.34,.08,.23-.05-.11,0,.14-.01-.05,.01-.19,.03-.01,0-.08,0-.19,0-.09,.01-.05,.01-.07,.02-.05,0-.15,0-.14-.01-.07,.03-.11,0-.2,.01-.07,.02,0,0-.05,.03l-.36,.02s-.14-.06-.07-.11c.17,0-.06,.07,.12,.05-.08-.05,.16-.02,.19-.06-.06-.02-.17-.02-.27-.01h.02c-.08,.02-.25,.04-.35,0,.02-.03-.02-.05,.04-.05h-.12s-.03,0,0,.02c-.05,.02-.11,0-.15,0-.02-.04-.62,.15-.6,.13-.08,0-.11-.06-.19-.01,0,.02,.8-.15,.69-.12-.08-.06-.95,.2-1.01,.14-.06,0-.14,.02-.12,.07-.11-.02,.03-.09-.05-.14,0,0,0,.02-.02,.02l-.08-.06c-.16,.09-.41-.02-.57,.1,.05-.07,.09-.18,.2-.23l.02,.03s.11-.03,.1-.09c-.11-.04-.2-.04-.31,.02l-.06-.05v.02s-.03-.04-.02-.06h0c-.08-.19-.4,.14-.6,.06-.05,.03,0,.03-.07,.07-.2-.05-.34-.09-.55-.11-.06,.08-.06,.11,.02,.18h-.16c.12-.21-.31-.17-.17-.37-.05-.04-.14-.04-.23,0,0,.05-.01,.13-.12,.14-.16-.05-.12-.03-.25-.08-.04-.06,0-.09,0-.14-.19,.1-.18-.12-.36-.09-.11,.03-.34,.06-.33,.17-.16,0-.16-.07-.16-.16Z"/><path class="b" d="M102.09,126.46h-.17c.54-.06,1.12-.07,1.69-.08-1.26-.26-2.74-.45-3.62,.43-.14-.41-1.35-.5-1.36-.39-.24,.1-.49,.19-.73,.26l.51-.15-.51,.15c-1.57,.48-3.32,.5-5.14,.5-1.01,.01-3.73,.17-4.76,.15h-.45l.5,.03c-.61,.17-1.17,.33-1.71,.46,.1,.05,.12,.11,.36,.17h-.28c-.24,.18-.83,.23-1.09,.33,.05-.1-.17-.1-.36-.09l.08,.05c-.73,.03-1.57,.18-2.22,.23-.09,0-.16-.02-.21-.05l-.62,.13c.04-.13-.53-.06-.24-.16-.45,.19-.93,.14-1.37,.34-1.59,.18-3.27,.39-4.89,.8l.04,.04c-.56,.19-1.05,.44-1.75,.47-.49,.17-1.19,.27-1.38,.37-.58,.03-.81,.06-1.38,.05,.15,0-.55,0-.27,0,.38,.04,.4,.03,.73,.09h-.01c1.52,.19,3.05,.48,4.59,.72,.99-.24,2.09-.23,3.13-.37,1.12-.15,2.33-.35,3.28-.54,.23-.06,.4,.03,.6,.07,.88-.14,2.01-.2,3.01-.37h-.05c.53-.07,.94,.02,1.46-.05,0-.04,.07-.05,.11-.07,.11,.16,3.02-.64,3.21-.56l.16-.04c1.1-.03,2.26,.2,3.2,.08,.2-.1,.42-.19,.58-.3,.17,.06,.19-.09,.39-.09,.54,.29,.82,.12,.55,.03,.41-.08,.84-.09,1.21-.14l.51-.13c.15-.04,.23,0,.31,.07,.37-.08,.27,.01,.67,0,.11,.11,.98-.28,1.09-.26l-.06,.02c.46-.02,.78,.18,1.23,.15,1.25-.03,2.6-.24,3.76-.31,0-.12-.25,.05-.28-.11,.68-.04,1.38,.04,2.07,.03,.13,.01,.28,.02,.34,.04,.22-.03,.12-.1,.28-.14l.03,.1c.22-.16,.34-.01,.56-.14,0-.04,.09-.07,.16-.1,.01,.09,.24-.09,.23,0h0s.08-.04,.14-.05c.08-.07,.89-.57,.98-.62h.04c.12-.05,.17-.11,.1-.1l.15-.05h-.02l.15-.04s.06,0,.02,.05c.08-.05,.18-.09,.27-.11-.24,.05-.54,.1-.8,.1,.1-.05,.29-.07,.4-.11,.14,0,.41-.06,.63-.11,.05-.02,.08-.07,.18-.08,.05,0,.12-.04,.21-.05-.1,.05-.2,.08-.3,.11,.02,.03,.25-.07,.33-.09,.04-.02,.24-.09,.36-.14-.05,.04,.1-.03,.17-.05,.08-.03,.14-.06,.1-.05,.03-.02-.33,.11-.22,.06,.03,0,.2-.06,.28-.09,0,0-.06,.02,0,0l.26-.08-.09,.03c.13-.06-.69,.28-.52,.22-.04,0,.72-.3,.64-.26-.08,.02,.06-.02-.03,0l-.09,.03c-.11,.03-.16,.04-.12,.03,.18-.07-.52,.2-.37,.15l-.06,.02c.07-.03,.25-.09,.32-.11,0,0,.09-.04,.17-.06h.03c.08-.03,.19-.07,.14-.05-.46,.11,.3-.07-.14,.02,.19-.02-.06,.01-.26,.05l-.25,.02c-.12,.02-.07,.02-.09,.03-.07,0-.2,.02-.18,0-.09,.03-.15,0-.27,.03-.1,.02,0,0-.06,.03l-.49,.05s-.2-.06-.09-.11c.23-.01-.08,.08,.16,.04-.11-.05,.21-.04,.25-.08-.08-.02-.23-.01-.36,0h.03c-.11,.02-.34,.05-.47,.02,.03-.03-.03-.04,.06-.05h-.16s-.04,.02,0,.02c-.07,.02-.15,.02-.21,0-.02-.04-.83,.19-.8,.18-.11,.01-.15-.05-.25,0,0,.02,1.07-.2,.93-.17-.1-.05-1.27,.27-1.35,.21-.08,0-.18,.03-.16,.08-.14-.01,.03-.1-.07-.14,0,0,.01,.02-.02,.02l-.1-.06c-.21,.1-.55,0-.77,.14,.06-.07,.13-.18,.27-.24l.03,.03s.14-.04,.13-.09c-.14-.03-.27-.03-.41,.04l-.08-.04v.02s-.04-.04-.03-.06c0,0,0,0,0-.01-.1-.17-.54,.17-.81,.11-.07,.03,0,.03-.1,.07-.27-.04-.45-.08-.73-.09-.08,.08-.09,.11,.03,.17h-.21c.17-.21-.4-.15-.21-.36-.06-.04-.19-.04-.3,0,0,.05-.02,.13-.17,.14-.21-.04-.16-.03-.33-.07-.05-.06,.01-.09,0-.14-.25,.1-.24-.12-.48-.08-.15,.03-.46,.07-.45,.18-.21,.01-.21-.07-.2-.16Z"/><path class="b" d="M110.51,175.24h-.13c.42-.05,.86-.06,1.29-.06-.98-.28-2.12-.49-2.76,.37-.12-.41-1.05-.52-1.06-.41-.18,.1-.37,.18-.55,.25,.13-.04,.26-.09,.39-.15-.13,.05-.26,.1-.39,.15-1.19,.46-2.54,.45-3.93,.44-.77,0-2.86,.14-3.65,.1h-.35l.39,.03c-.46,.17-.88,.33-1.3,.45,.08,.05,.1,.11,.28,.17l-.22-.02c-.17,.2-.62,.24-.83,.34,.03-.1-.13-.1-.28-.09l.07,.05c-.56,.03-1.2,.18-1.7,.23-.07,0-.13-.02-.16-.05l-.47,.13c.02-.13-.41-.06-.19-.16-.34,.19-.71,.14-1.03,.34-1.21,.18-2.5,.4-3.72,.83l.04,.04c-.42,.2-.78,.45-1.32,.48-.36,.17-.9,.28-1.04,.38-.44,.04-.62,.07-1.05,.07,.11,0-.43,0-.21,0,.3,.03,.31,.03,.56,.07h0c1.18,.15,2.36,.41,3.56,.67,.74-.25,1.59-.24,2.38-.38,.85-.15,1.76-.35,2.49-.54,.17-.06,.31,.03,.47,.07,.67-.14,1.53-.2,2.29-.35h-.04c.4-.07,.72,.03,1.11-.04,0-.04,.05-.05,.08-.07,.09,.16,2.29-.61,2.44-.53l.13-.03c.85-.02,1.75,.22,2.46,.11,.15-.1,.32-.18,.44-.29,.13,.06,.14-.08,.3-.08,.42,.3,.64,.13,.42,.03,.31-.08,.64-.08,.92-.12l.39-.12c.11-.04,.18,0,.24,.08,.28-.08,.21,.01,.51,.02,.09,.11,.74-.27,.83-.24l-.05,.02c.35-.02,.61,.19,.95,.16,.96-.01,1.99-.2,2.88-.25,0-.12-.19,.05-.22-.12,.52-.03,1.06,.06,1.59,.06,.1,.01,.22,.03,.26,.04,.17-.03,.09-.1,.21-.14l.03,.09c.17-.16,.26-.01,.42-.14,0-.04,.06-.07,.12-.1,.01,.09,.18-.09,.18,0h0s.06-.04,.1-.05c.06-.08,.66-.56,.73-.6h.03c.09-.04,.13-.1,.07-.09l.12-.04h-.01l.12-.03s.05,0,.02,.04c.06-.04,.14-.08,.2-.1-.18,.05-.41,.09-.61,.08,.08-.05,.22-.06,.31-.09,.1,0,.32-.04,.48-.09,.04-.02,.06-.06,.14-.08,.04,0,.09-.04,.16-.05-.08,.04-.15,.08-.23,.1,.02,.03,.19-.06,.25-.08,.03-.02,.18-.08,.27-.13-.04,.03,.08-.03,.13-.05,.06-.03,.1-.05,.08-.04,.02-.02-.25,.11-.17,.05,.02,0,.15-.06,.21-.09,0,0-.05,.02,0,0l.2-.08-.07,.03c.1-.06-.52,.27-.39,.22-.03,0,.55-.29,.48-.25-.06,.02,.04-.01-.02,0l-.07,.03c-.08,.03-.12,.04-.09,.02,.14-.06-.4,.19-.28,.14l-.05,.02s.19-.09,.24-.1c0,0,.07-.03,.12-.06h.02c.06-.03,.14-.06,.1-.05-.35,.11,.23-.06-.11,.01,.14-.02-.05,.01-.2,.05-.01,0-.08,0-.19,.02-.09,.02-.05,.02-.07,.03-.05,0-.15,.02-.14,0-.07,.03-.12,0-.2,.02-.08,.02,0,0-.05,.03l-.37,.04s-.15-.06-.08-.11c.18,0-.06,.07,.12,.05-.08-.05,.16-.03,.19-.07-.06-.02-.18-.01-.28,0h.02c-.09,.02-.26,.05-.36,.02,.02-.03-.02-.04,.04-.05h-.12s-.03,.02,0,.02c-.05,.02-.11,.01-.16,0-.02-.04-.63,.17-.61,.16-.09,0-.11-.05-.19,0,0,.02,.82-.18,.71-.15-.08-.05-.97,.24-1.03,.18-.06,0-.14,.02-.12,.07-.11-.01,.02-.09-.06-.13,0,0,0,.02-.02,.02l-.08-.06c-.16,.09-.42,0-.59,.12,.04-.07,.09-.18,.2-.24l.02,.03s.11-.04,.1-.09c-.11-.04-.21-.03-.31,.03l-.07-.04v.02s-.03-.04-.02-.06h0c-.09-.19-.41,.15-.62,.08-.06,.03,0,.03-.07,.07-.21-.05-.35-.08-.57-.1-.06,.08-.06,.11,.03,.17h-.16c.13-.21-.32-.16-.18-.37-.05-.04-.15-.04-.23,0,0,.05-.01,.13-.12,.14-.16-.05-.12-.03-.26-.08-.04-.06,0-.09,0-.14-.19,.1-.19-.12-.37-.09-.12,.03-.35,.06-.34,.17-.16,.01-.17-.07-.16-.16Z"/><path class="b" d="M109.83,189.74h-.17c.54-.06,1.12-.08,1.69-.09-1.27-.25-2.75-.43-3.61,.46-.15-.41-1.36-.49-1.37-.38-.24,.1-.48,.19-.73,.27,.17-.05,.34-.1,.51-.16-.17,.06-.34,.11-.51,.16-1.56,.49-3.31,.52-5.13,.54-1.01,.02-3.72,.2-4.76,.18h-.45l.5,.03c-.61,.18-1.16,.34-1.7,.47,.1,.05,.13,.11,.36,.17h-.28c-.23,.19-.82,.24-1.09,.34,.05-.1-.17-.09-.36-.09l.08,.05c-.73,.04-1.57,.2-2.22,.25-.09,0-.16-.02-.21-.05l-.61,.13c.03-.13-.53-.06-.24-.16-.45,.19-.93,.15-1.36,.35-1.58,.19-3.27,.42-4.88,.84l.04,.04c-.56,.19-1.04,.45-1.75,.48-.49,.17-1.19,.28-1.38,.38-.58,.04-.81,.07-1.38,.06,.15,0-.55,0-.27,0,.38,.04,.4,.03,.73,.08h-.01c1.52,.18,3.05,.45,4.59,.69,.99-.25,2.09-.24,3.13-.39,1.12-.16,2.32-.37,3.28-.57,.23-.06,.4,.03,.61,.07,.88-.15,2.01-.22,3-.39h-.05c.53-.07,.94,.02,1.46-.06,0-.04,.07-.05,.11-.07,.11,.16,3.01-.66,3.21-.58l.16-.04c1.1-.04,2.27,.18,3.21,.05,.2-.1,.42-.19,.58-.3,.17,.06,.19-.09,.39-.09,.55,.29,.83,.11,.55,.02,.41-.09,.84-.1,1.21-.15l.51-.13c.14-.04,.23,0,.32,.07,.37-.09,.27,0,.67,0,.11,.11,.97-.29,1.09-.26l-.06,.02c.46-.03,.79,.17,1.24,.14,1.25-.04,2.6-.26,3.76-.34,0-.12-.25,.05-.28-.11,.68-.05,1.38,.03,2.07,.02,.13,.01,.28,.02,.34,.04,.22-.03,.12-.1,.28-.14l.03,.1c.22-.16,.34-.02,.55-.14,0-.04,.08-.08,.16-.1,.01,.09,.23-.1,.23,0h0s.08-.04,.14-.05c.08-.08,.88-.58,.96-.63h.04c.12-.05,.17-.11,.1-.1l.15-.05h-.02l.15-.04s.06,0,.02,.05c.08-.05,.18-.09,.26-.11-.24,.06-.54,.11-.8,.11,.1-.05,.29-.07,.4-.11,.14,0,.41-.06,.62-.11,.05-.02,.07-.07,.18-.08,.05,0,.12-.04,.21-.05-.1,.05-.2,.08-.3,.11,.02,.03,.25-.07,.33-.09,.04-.02,.23-.09,.36-.14-.05,.04,.1-.03,.17-.05,.08-.03,.14-.06,.1-.05,.03-.02-.33,.12-.22,.06,.03,0,.19-.06,.28-.1,0,0-.06,.02,0,0l.26-.08-.09,.03c.13-.06-.68,.28-.52,.23-.05,0,.72-.31,.63-.27-.08,.02,.06-.02-.02,0l-.09,.03c-.11,.03-.16,.04-.12,.03,.18-.07-.52,.2-.36,.15l-.06,.02c.07-.03,.24-.09,.31-.11,0,0,.09-.04,.16-.06h.03c.08-.03,.18-.07,.13-.05-.45,.12,.3-.07-.14,.02,.19-.03-.06,.01-.26,.05l-.25,.02c-.12,.02-.07,.02-.09,.03-.07,0-.2,.02-.18,0-.09,.03-.15,0-.27,.03-.1,.02,0,0-.06,.03l-.48,.06s-.2-.05-.1-.11c.23-.01-.08,.08,.16,.04-.11-.05,.21-.04,.25-.08-.08-.02-.23,0-.36,0h.03c-.11,.02-.34,.06-.47,.02,.03-.03-.03-.04,.05-.05h-.16s-.04,.02,0,.02c-.07,.02-.15,.02-.21,0-.02-.04-.82,.2-.8,.18-.11,.01-.15-.05-.25,0,0,.02,1.07-.21,.92-.18-.1-.05-1.26,.28-1.34,.22-.08,.01-.18,.03-.16,.08-.14-.01,.03-.1-.07-.13,0,0,.01,.02-.02,.02l-.1-.06c-.21,.1-.55,0-.77,.14,.06-.07,.12-.18,.27-.24l.03,.03s.14-.04,.13-.09c-.15-.03-.27-.02-.41,.04l-.09-.04v.02s-.04-.04-.03-.06c0,0,0,0,0-.01-.11-.17-.54,.18-.81,.11-.07,.03,0,.03-.09,.07-.27-.04-.46-.07-.74-.08-.08,.08-.08,.11,.03,.17h-.21c.17-.21-.41-.15-.22-.36-.07-.04-.19-.03-.3,0,0,.05-.02,.13-.16,.14-.21-.04-.16-.02-.33-.07-.05-.06,.01-.09,0-.14-.25,.11-.24-.11-.49-.08-.15,.03-.45,.07-.45,.18-.21,.02-.22-.06-.21-.16Z"/><path class="b" d="M181.2,116.76h-.13c.41-.05,.84-.06,1.27-.06-.96-.27-2.09-.49-2.72,.38-.12-.41-1.04-.51-1.05-.41-.18,.1-.36,.18-.55,.25,.13-.04,.26-.09,.38-.15-.13,.05-.25,.1-.38,.15-1.17,.46-2.5,.46-3.87,.44-.76,0-2.81,.13-3.6,.09h-.34l.38,.03c-.46,.16-.87,.32-1.28,.44,.08,.05,.1,.11,.28,.17l-.21-.02c-.17,.2-.62,.24-.82,.33,.03-.1-.13-.1-.28-.1l.06,.05c-.55,.02-1.18,.16-1.67,.21-.07,0-.12-.02-.16-.05l-.46,.12c.02-.13-.4-.07-.19-.17-.34,.18-.7,.13-1.02,.32-1.19,.16-2.46,.35-3.67,.74l.03,.04c-.42,.18-.78,.42-1.31,.45-.36,.16-.89,.25-1.04,.35-.31,.02-.49,.04-.72,.04v-.14l.31,.03c-.11-.02,.42,.05,.21,.03-.28-.07-.3-.07-.52-.13l.02,.29h.01c1.15,.2,2.32,.49,3.5,.78,.74-.23,1.57-.2,2.36-.33,.84-.14,1.75-.32,2.47-.5,.17-.05,.31,.04,.46,.08,.66-.13,1.52-.18,2.26-.33h-.04c.4-.06,.71,.03,1.1-.03,0-.04,.05-.04,.08-.07,.09,.16,2.26-.6,2.41-.52l.12-.03c.83-.01,1.72,.22,2.43,.12,.15-.1,.31-.18,.43-.29,.13,.06,.14-.08,.3-.08,.42,.3,.63,.13,.42,.03,.31-.08,.63-.08,.91-.13l.38-.12c.11-.04,.18,0,.24,.08,.28-.08,.2,.01,.51,.02,.08,.11,.73-.27,.82-.24l-.05,.02c.35-.02,.6,.19,.94,.16,.95-.01,1.96-.21,2.84-.27,0-.12-.19,.05-.22-.11,.51-.03,1.05,.06,1.57,.06,.1,.01,.21,.02,.26,.04,.16-.03,.09-.1,.21-.14l.03,.09c.16-.16,.26-.01,.42-.14,0-.04,.06-.07,.12-.1,.01,.09,.17-.09,.17-.01h0s.06-.04,.1-.05c.06-.08,.65-.56,.72-.6h.03c.09-.04,.13-.1,.07-.09l.11-.04h-.01l.11-.03s.05,0,.02,.04c.06-.04,.13-.08,.2-.1-.18,.05-.41,.09-.6,.09,.07-.05,.22-.06,.3-.1,.1,0,.31-.05,.47-.09,.03-.02,.05-.06,.14-.08,.04,0,.09-.04,.16-.05-.07,.04-.15,.08-.22,.1,.02,.03,.19-.06,.25-.08,.03-.02,.17-.08,.27-.13-.04,.04,.08-.03,.13-.05,.06-.03,.1-.05,.08-.04,.02-.02-.25,.11-.16,.05,.02,0,.15-.06,.21-.09,0,0-.05,.02,0,0l.19-.08-.07,.03c.09-.06-.51,.27-.39,.22-.03,0,.54-.29,.47-.25-.06,.02,.04-.02-.02,0l-.07,.03c-.08,.03-.12,.04-.09,.02,.14-.06-.39,.19-.27,.14l-.05,.02s.18-.09,.23-.1c0,0,.07-.04,.12-.06h.02c.06-.03,.14-.06,.1-.05-.34,.11,.23-.06-.11,.02,.14-.02-.05,.01-.19,.05-.01,0-.08,0-.19,.02-.09,.02-.05,.02-.07,.03-.05,0-.15,.02-.14,0-.07,.03-.12,0-.2,.02-.07,.02,0,0-.05,.03l-.37,.04s-.15-.06-.08-.11c.17-.01-.06,.07,.12,.05-.08-.05,.16-.03,.19-.07-.06-.02-.18-.01-.27,0h.02c-.09,.02-.26,.05-.35,.02,.02-.03-.02-.04,.04-.05h-.12s-.03,.02,0,.02c-.05,.02-.11,.02-.16,0-.02-.04-.62,.18-.6,.16-.09,0-.11-.05-.19,0,0,.02,.81-.18,.69-.16-.08-.05-.95,.25-1.01,.18-.06,0-.14,.03-.12,.07-.11-.01,.02-.09-.06-.13,0,0,0,.02-.02,.02l-.08-.06c-.16,.09-.41,0-.58,.12,.04-.07,.09-.18,.2-.24l.02,.03s.11-.04,.1-.09c-.11-.03-.2-.03-.31,.03l-.07-.04v.02s-.03-.04-.02-.06h0c-.09-.19-.4,.15-.61,.08-.05,.03,0,.03-.07,.07-.21-.04-.35-.08-.56-.1-.06,.08-.06,.11,.03,.17h-.16c.12-.21-.31-.16-.18-.37-.05-.04-.15-.04-.23,0,0,.05,0,.13-.12,.14-.16-.05-.12-.03-.25-.08-.04-.06,0-.09,0-.14-.19,.1-.19-.12-.37-.09-.11,.03-.34,.06-.34,.17-.16,.01-.17-.07-.16-.16Z"/><path class="b" d="M188.78,131.16h-.16c.52-.06,1.07-.08,1.62-.09-1.22-.25-2.64-.43-3.47,.46-.14-.41-1.31-.49-1.32-.38-.23,.1-.46,.19-.7,.27,.16-.05,.33-.1,.49-.16-.16,.06-.32,.11-.49,.16-1.5,.49-3.19,.52-4.93,.54-.97,.02-3.58,.2-4.57,.18h-.43l.48,.03c-.59,.18-1.12,.34-1.64,.47,.1,.05,.12,.11,.35,.17h-.27c-.23,.19-.79,.24-1.05,.34,.05-.1-.16-.09-.35-.09l.08,.05c-.7,.04-1.5,.19-2.13,.25-.09,0-.16-.02-.2-.05l-.59,.13c.03-.13-.51-.06-.23-.16-.43,.19-.9,.15-1.31,.35-1.52,.19-3.14,.42-4.69,.84l.04,.04c-.54,.19-1,.45-1.68,.48-.47,.17-1.14,.28-1.33,.38-.56,.04-.78,.07-1.32,.06,.14,0-.53,0-.26,0,.37,.04,.39,.03,.7,.08h0c1.46,.18,2.93,.46,4.42,.69,.95-.25,2.01-.24,3-.39,1.07-.16,2.23-.36,3.15-.57,.22-.06,.39,.03,.58,.07,.85-.15,1.93-.22,2.89-.39h-.05c.51-.07,.9,.02,1.4-.06,0-.04,.07-.05,.11-.07,.1,.16,2.9-.66,3.08-.58l.16-.04c1.06-.03,2.18,.18,3.08,.05,.19-.1,.4-.19,.56-.3,.17,.06,.18-.09,.38-.09,.52,.29,.79,.12,.53,.02,.4-.09,.8-.1,1.16-.15l.49-.13c.14-.04,.22,0,.3,.07,.36-.09,.26,0,.64,0,.1,.11,.93-.29,1.05-.26l-.06,.02c.44-.03,.76,.17,1.19,.14,1.2-.04,2.5-.26,3.61-.34,0-.12-.24,.05-.27-.11,.65-.05,1.33,.03,1.99,.02,.12,.01,.27,.02,.33,.04,.21-.03,.12-.1,.27-.14l.03,.1c.21-.16,.33-.02,.53-.14,0-.04,.08-.08,.16-.1,.01,.09,.22-.1,.22,0h0s.07-.04,.13-.05c.08-.08,.84-.58,.93-.63h.04c.12-.05,.16-.11,.09-.1l.15-.05h-.02l.15-.04s.06,0,.02,.05c.08-.05,.17-.09,.25-.11-.23,.06-.52,.11-.77,.11,.1-.05,.28-.07,.38-.11,.13,0,.4-.06,.6-.11,.04-.02,.07-.07,.17-.08,.05,0,.11-.04,.2-.05-.1,.05-.19,.08-.29,.11,.02,.03,.24-.07,.32-.09,.04-.02,.22-.09,.34-.14-.05,.04,.1-.03,.17-.05,.08-.03,.13-.06,.1-.05,.02-.02-.32,.12-.21,.06,.03,0,.19-.06,.27-.1,0,0-.06,.02,0,0l.25-.08-.08,.03c.12-.06-.66,.28-.5,.23-.04,0,.69-.31,.61-.27-.07,.02,.05-.02-.02,0l-.09,.03c-.11,.03-.15,.04-.11,.03,.18-.07-.5,.2-.35,.15l-.06,.02c.06-.03,.23-.09,.3-.11,0,0,.09-.04,.16-.06h.03c.07-.03,.18-.07,.13-.05-.44,.12,.29-.07-.14,.02,.18-.03-.06,.01-.25,.05l-.24,.02c-.12,.02-.07,.02-.09,.03-.07,0-.19,.02-.18,0-.09,.03-.15,0-.26,.03-.1,.02,0,0-.06,.03l-.47,.06s-.19-.05-.09-.11c.22-.01-.08,.08,.15,.04-.11-.05,.2-.04,.24-.08-.08-.02-.23,0-.35,0h.03c-.11,.02-.33,.06-.45,.02,.03-.03-.03-.04,.05-.05h-.15s-.04,.02,0,.02c-.07,.02-.14,.02-.2,0-.02-.04-.79,.2-.77,.18-.11,.01-.14-.05-.24,0,0,.02,1.03-.21,.89-.18-.1-.05-1.22,.28-1.29,.22-.08,.01-.18,.03-.15,.08-.14-.01,.03-.1-.07-.13,0,0,.01,.02-.02,.02l-.1-.06c-.2,.1-.53,0-.74,.14,.06-.07,.12-.18,.26-.24l.03,.03s.13-.04,.13-.09c-.14-.03-.26-.02-.39,.04l-.08-.04v.02s-.04-.04-.03-.06c0,0,0,0,0-.01-.1-.17-.52,.18-.77,.11-.07,.03,0,.03-.09,.07-.26-.04-.44-.07-.71-.08-.08,.08-.08,.11,.03,.17h-.2c.16-.21-.39-.15-.21-.36-.06-.04-.18-.03-.29,0,0,.05-.02,.13-.16,.14-.2-.04-.15-.02-.32-.07-.04-.06,.01-.09,0-.14-.24,.11-.23-.11-.47-.08-.15,.03-.44,.07-.43,.18-.2,.02-.21-.06-.2-.16Z"/><path class="b" d="M185.65,168.83h-.13c.41-.05,.85-.05,1.28-.05-.97-.28-2.1-.5-2.74,.36-.12-.41-1.04-.52-1.05-.42-.18,.1-.36,.18-.55,.25,.13-.04,.26-.09,.38-.14-.13,.05-.25,.1-.38,.14-1.18,.45-2.51,.43-3.9,.41-.77,0-2.83,.11-3.62,.07h-.34l.38,.03c-.46,.16-.88,.32-1.29,.43,.08,.05,.1,.11,.28,.18l-.22-.02c-.17,.2-.62,.23-.82,.33,.04-.1-.13-.1-.28-.1l.06,.05c-.56,.02-1.19,.16-1.68,.21-.07,0-.12-.02-.16-.05l-.46,.12c.02-.13-.4-.06-.19-.17-.34,.19-.71,.14-1.03,.33-1.2,.17-2.48,.38-3.69,.79l.04,.04c-.42,.19-.78,.44-1.31,.47-.36,.17-.89,.28-1.03,.37-.44,.04-.61,.07-1.05,.07,.11,0-.42,0-.21,0,.29,.04,.31,.03,.56,.08h0c1.16,.16,2.34,.42,3.52,.69,.74-.24,1.57-.23,2.36-.36,.84-.15,1.75-.34,2.47-.52,.17-.06,.31,.04,.46,.08,.66-.13,1.52-.18,2.27-.33h-.04c.4-.06,.71,.03,1.11-.03,0-.04,.05-.04,.08-.07,.08,.16,2.28-.59,2.43-.51l.12-.03c.84,0,1.73,.23,2.44,.13,.15-.09,.31-.18,.44-.28,.13,.06,.14-.08,.3-.08,.42,.3,.63,.14,.42,.04,.31-.08,.63-.08,.92-.12l.38-.12c.11-.04,.18,0,.24,.08,.28-.08,.21,.02,.51,.02,.08,.11,.74-.26,.82-.24l-.05,.02c.35-.01,.6,.19,.94,.17,.95,0,1.98-.2,2.86-.25,0-.12-.19,.05-.22-.12,.52-.03,1.05,.06,1.58,.07,.1,.01,.21,.02,.26,.04,.17-.03,.09-.1,.21-.14l.03,.09c.16-.16,.26-.01,.42-.14,0-.04,.06-.07,.12-.1,.01,.09,.18-.09,.18,0h0s.06-.04,.1-.05c.06-.08,.66-.56,.72-.6h.03c.09-.04,.13-.1,.07-.09l.11-.04h-.01l.11-.03s.05,0,.02,.04c.06-.04,.13-.08,.2-.1-.18,.05-.41,.09-.6,.09,.08-.05,.22-.06,.3-.1,.1,0,.31-.05,.47-.09,.03-.02,.05-.06,.14-.08,.04,0,.09-.04,.16-.05-.07,.04-.15,.08-.23,.1,.02,.03,.19-.06,.25-.08,.03-.02,.18-.08,.27-.13-.04,.04,.08-.03,.13-.05,.06-.03,.1-.05,.08-.04,.02-.02-.25,.11-.16,.05,.02,0,.15-.06,.21-.09,0,0-.05,.02,0,0l.19-.08-.07,.03c.09-.06-.51,.27-.39,.22-.03,0,.54-.29,.48-.25-.06,.02,.04-.02-.02,0l-.07,.03c-.08,.03-.12,.04-.09,.02,.14-.06-.39,.19-.27,.14l-.05,.02s.18-.09,.24-.1c0,0,.07-.04,.12-.06h.02c.06-.03,.14-.06,.1-.05-.34,.11,.23-.06-.11,.02,.14-.02-.05,.01-.19,.05-.01,0-.08,0-.19,.02-.09,.02-.05,.02-.07,.03-.05,0-.15,.02-.14,0-.07,.03-.12,0-.2,.02-.08,.02,0,0-.05,.03l-.37,.04s-.15-.06-.08-.11c.18,0-.06,.07,.12,.05-.08-.05,.16-.03,.19-.07-.06-.02-.18-.01-.28,0h.02c-.09,.02-.26,.05-.36,.02,.02-.03-.02-.04,.04-.05h-.12s-.03,.02,0,.02c-.05,.02-.11,.02-.16,0-.02-.04-.62,.18-.6,.16-.09,0-.11-.05-.19,0,0,.02,.81-.18,.7-.16-.08-.05-.96,.24-1.02,.18-.06,0-.14,.03-.12,.07-.11-.01,.02-.09-.06-.13,0,0,0,.02-.02,.02l-.08-.06c-.16,.09-.42,0-.58,.12,.04-.07,.09-.18,.2-.24l.02,.03s.11-.04,.1-.09c-.11-.03-.2-.03-.31,.03l-.07-.04v.02s-.03-.04-.02-.06h0c-.09-.19-.41,.15-.61,.08-.06,.03,0,.03-.07,.07-.21-.05-.35-.08-.56-.1-.06,.08-.06,.11,.03,.17h-.16c.12-.21-.31-.16-.17-.37-.05-.04-.15-.04-.23,0,0,.05-.01,.13-.12,.14-.16-.05-.12-.03-.26-.08-.04-.06,0-.09,0-.14-.19,.1-.19-.12-.37-.09-.11,.03-.34,.06-.34,.17-.16,.01-.17-.07-.16-.16Z"/><path class="b" d="M192.1,184.7h-.15c.49-.06,1.02-.07,1.54-.08-1.16-.25-2.52-.44-3.29,.44-.14-.41-1.25-.49-1.26-.39-.22,.1-.44,.19-.66,.26,.16-.05,.31-.1,.46-.15-.15,.06-.31,.11-.46,.15-1.42,.48-3.02,.51-4.68,.52-.92,.02-3.4,.19-4.34,.16h-.41l.46,.03c-.56,.17-1.06,.34-1.55,.46,.09,.05,.12,.11,.33,.17h-.26c-.21,.19-.75,.24-.99,.34,.04-.1-.16-.09-.33-.09l.08,.05c-.67,.03-1.43,.19-2.02,.24-.08,0-.15-.02-.19-.05l-.56,.13c.03-.13-.48-.06-.22-.16-.41,.19-.85,.15-1.24,.34-1.44,.18-2.98,.4-4.45,.82l.04,.04c-.51,.19-.95,.44-1.59,.47-.44,.17-1.08,.28-1.26,.37-.53,.04-.74,.06-1.26,.06,.13,0-.51,0-.25,0,.35,.04,.37,.03,.67,.08h0c1.39,.19,2.79,.47,4.21,.71,.9-.24,1.9-.23,2.85-.38,1.02-.15,2.12-.35,2.98-.55,.21-.06,.37,.03,.55,.07,.8-.14,1.83-.21,2.74-.37h-.05c.48-.07,.86,.02,1.33-.05,0-.04,.07-.05,.1-.07,.1,.16,2.74-.65,2.92-.57l.15-.04c1.01-.03,2.08,.19,2.93,.07,.18-.1,.38-.19,.52-.3,.16,.06,.17-.09,.36-.09,.5,.29,.76,.12,.5,.02,.38-.09,.76-.1,1.1-.14l.46-.13c.13-.04,.21,0,.29,.07,.34-.08,.25,0,.61,0,.1,.11,.88-.28,.99-.26l-.06,.02c.42-.02,.72,.18,1.13,.14,1.14-.03,2.37-.25,3.43-.32,0-.12-.23,.05-.26-.11,.62-.04,1.26,.04,1.89,.03,.12,.01,.26,.02,.31,.04,.2-.03,.11-.1,.25-.14l.03,.1c.2-.16,.31-.01,.5-.14,0-.04,.08-.07,.15-.1,.01,.09,.21-.09,.21,0h0s.07-.04,.12-.05c.07-.07,.79-.58,.87-.62h.04c.11-.05,.15-.11,.09-.1l.14-.05h-.02l.14-.04s.06,0,.02,.05c.08-.05,.16-.09,.24-.11-.22,.05-.49,.1-.73,.11,.09-.05,.26-.07,.36-.11,.12,0,.38-.06,.57-.11,.04-.02,.07-.07,.16-.08,.05,0,.11-.04,.19-.05-.09,.05-.18,.08-.27,.11,.02,.03,.23-.07,.3-.09,.03-.02,.21-.09,.32-.14-.05,.04,.09-.03,.16-.05,.08-.03,.12-.06,.09-.05,.02-.02-.3,.12-.2,.06,.03,0,.18-.06,.26-.09,0,0-.05,.02,0,0l.23-.08-.08,.03c.11-.06-.62,.28-.47,.23-.04,0,.65-.31,.58-.26-.07,.02,.05-.02-.02,0l-.08,.03c-.1,.03-.14,.04-.11,.03,.17-.07-.47,.2-.33,.15l-.06,.02c.06-.03,.22-.09,.28-.11,0,0,.08-.04,.15-.06h.02c.07-.03,.17-.07,.12-.05-.41,.11,.27-.07-.13,.02,.17-.03-.06,.01-.23,.05l-.23,.02c-.11,.02-.06,.02-.09,.03-.06,0-.18,.02-.17,0-.08,.03-.14,0-.24,.03-.09,.02,0,0-.06,.03l-.44,.05s-.18-.05-.09-.11c.21-.01-.07,.08,.15,.04-.1-.05,.19-.04,.23-.08-.07-.02-.21,0-.33,0h.02c-.1,.02-.31,.05-.43,.02,.02-.03-.03-.04,.05-.05h-.14s-.04,.02,0,.02c-.07,.02-.13,.02-.19,0-.02-.04-.75,.19-.73,.18-.1,.01-.14-.05-.23,0,0,.02,.97-.21,.84-.18-.1-.05-1.15,.27-1.22,.21-.08,.01-.17,.03-.14,.08-.13-.01,.03-.1-.07-.13,0,0,.01,.02-.02,.02l-.1-.06c-.19,.1-.5,0-.7,.14,.05-.07,.11-.18,.24-.24l.03,.03s.13-.04,.12-.09c-.13-.03-.24-.03-.37,.04l-.08-.04v.02s-.04-.04-.03-.06c0,0,0,0,0-.01-.1-.17-.49,.18-.73,.11-.07,.03,0,.03-.09,.07-.25-.04-.42-.07-.67-.09-.07,.08-.07,.11,.03,.17h-.19c.15-.21-.37-.15-.21-.36-.06-.04-.17-.03-.28,0,0,.05-.01,.13-.15,.14-.19-.04-.15-.03-.31-.07-.04-.06,.01-.09,0-.14-.23,.11-.22-.11-.44-.08-.14,.03-.41,.07-.41,.18-.19,.02-.2-.07-.19-.16Z"/><g><path class="b" d="M61.93,179.05c-1.3-1.5-3.01-4.34-3.18-6.33s-.03-4.02-.6-5.92c-.84-2.81-3.08-4.95-5.29-6.88-.62-.54-1.24-1.08-1.96-1.48-1.29-.73-2.8-.97-4.27-1.13-1.49-.16-3-.24-4.48-.02-3.55,.53-6.72,2.81-8.68,5.82s-2.77,6.67-2.68,10.26c.03,1.01,.13,2.03,.39,3.01,.73,2.65,2.67,4.85,4.94,6.41,2.57,1.76,5.73,2.83,8.81,2.35,1.91-.3,2.8-.23,5.61-.47,1.93-.16,4.11,.51,5.06,2.19,0,0,4.99-2.49,6.32-7.81Z"/><path class="b" d="M53.65,159.15l-.3-.28c1,.86,2.04,1.83,2.96,2.92-.92-1.29-2.02-2.49-3.22-3.55-.62-.53-1.4-1.04-2.2-1.3-.79-.27-1.53-.33-2.17-.26-.08-.24-.89-.55-1.67-.72-.76-.18-1.53-.26-1.57-.2-.63,.04-1.28,.08-1.94,.16,.45-.05,.9-.08,1.34-.1-.44,.02-.89,.05-1.34,.1-4.25,.39-8.51,2.76-11.19,6.64-.75,1.06-1.88,3.22-2.43,5.57-.6,2.33-.66,4.74-.64,6.07,0,.39,.03,.78,.08,1.19-.05-.67-.05-.67-.05-1.32,.19,1.61,.67,3.18,1.39,4.46-.06-.26-.03-.33-.18-.92,.07,.24,.17,.47,.25,.7,.42,.55,1.23,1.84,1.76,2.32-.17-.06,.17,.39,.5,.76l-.09-.19c1.22,1.42,3.02,2.62,4.48,3.37,.21,.1,.34,.21,.42,.28,.49,.2,.99,.39,1.5,.54-.17,.09,1.23,.5,.48,.35,1.19,.21,2.4,.5,3.56,.35,.51,0,1.04-.04,1.55-.12,.49-.07,.93-.15,1.41-.2,.93-.1,1.93-.16,2.92-.26l1.48-.15c.44-.04,.9-.03,1.34,.02,.89,.11,1.76,.42,2.44,.96l-.03-.09c.32,.25,.67,.67,.91,1,.05,0,.09,.07,.15,.03l.19-.12,.37-.25c.25-.17,.48-.35,.72-.53l1.34-1.07c.83-.9,1.83-2.3,1.86-2.84,.7-1.15,.82-1.7,1.18-2.94-.21,.29,.2-1.25-.07-.65-.41,.74-.27,.84-.67,1.43h.05c-.58,1.2-1.42,2.27-2.38,3.21-.49,.47-1,.91-1.55,1.3l-.42,.29c-.07,.05-.09,.05-.13,.07-.07,.02-.16,.11-.2,.05-.02-.06-.1-.14-.1-.16-.28-.27-.64-.54-.99-.75-1.36-.71-2.85-.96-4.34-.85-1.26,.08-2.53,.17-3.79,.25-.68,.06-1.47,.18-2.09,.29-.6,.09-1.21,.13-1.81,.1-1.21-.06-2.39-.33-3.41-.69-.49-.16-.78-.42-1.14-.67-1.78-.86-3.79-2.52-4.98-4.33l.05,.09c-.64-.97-.84-1.81-1.11-2.86-.03,.01-.07-.15-.11-.23,.03-.06-.05-.48-.13-1.13-.08-.65-.14-1.53-.15-2.42-.03-1.78,.3-3.57,.41-3.76l.08-.37c.75-2.43,2.35-4.48,3.78-5.94,.26-.37,.59-.77,.83-1.08,.33-.18,.3-.33,.68-.58,1.12-.36,1.63-.75,1.07-.58,.79-.5,1.67-.83,2.45-1.06,.36-.12,.72-.23,1.1-.32,.32-.08,.51-.05,.68,.01,.84-.11,.59-.02,1.48,.01,.2,.09,2.29-.06,2.56,.03h-.15c1.06,.15,1.7,.48,2.57,.78,.61,.23,1.13,.51,1.67,.92,.53,.4,1.11,.93,1.68,1.42,1.12,.99,2.15,2,2.89,3.03,.12-.06-.36-.43-.26-.55,.95,1.2,1.55,2.56,1.81,3.94,.02,.26,.01,.59-.01,.72,.01,.47,.09,.27,.12,.62l-.11,.06c.14,.51-.07,.77,0,1.28,.05,.02,.06,.21,.06,.4-.12,.01,.03,.58-.08,.56h0c0,.12,.01,.2,0,.35,.03,.13,.13,.65,.3,1.32,.18,.71,.47,1.28,.54,1.39l.02,.12c.11,.33,.25,.42,.2,.23l.14,.39-.02-.04,.15,.37c.02,.07,0,.17-.09,.09,.13,.19,.26,.41,.34,.63-.22-.59-.44-1.36-.52-2.04,.12,.25,.23,.74,.35,1,.06,.35,.3,1.03,.52,1.54,.07,.1,.22,.11,.31,.38,0,.16,.16,.27,.22,.49-.18-.2-.29-.43-.42-.66-.07,.09,.26,.6,.35,.79,.08,.07,.33,.52,.54,.77-.17-.06,.09,.25,.17,.44,.12,.19,.24,.27,.22,.18,.13,0-.46-.75-.18-.57,0,.1,.27,.43,.41,.61,.05-.04-.06-.15,.08-.07,.15,.21,.38,.38,.43,.53-.04-.03-.1-.12-.15-.18,.18,.29-1.42-1.21-1.13-.89-.05-.1,1.45,1.32,1.33,1.12-.11-.18,.18,.04,.06-.14l-.21-.13c-.17-.24-.15-.4-.06-.35,.28,.4-1.15-.84-.85-.55l-.07-.15c.13,.12,.43,.48,.49,.66,.05-.03,.21,.14,.35,.28l.04,.06c.15,.14,.33,.37,.3,.21-.76-.89,.96,.18,.27-.7,.19,.44-.21-.03-.51-.41,0-.06-.07-.28-.23-.58-.18-.24-.14-.12-.2-.15-.07-.15-.22-.43-.13-.44-.2-.15-.15-.34-.32-.57-.16-.19-.02,.03-.15-.1-.18-.33-.41-.79-.52-1.06,.01-.13-.03-.49,.17-.31,.22,.5-.24-.12,.02,.39,.03-.29,.27,.44,.42,.47-.03-.19-.2-.52-.34-.79v.06c-.13-.23-.37-.72-.4-1.02,.07,.05,.07-.09,.15,.09-.04-.12-.08-.23-.12-.35-.03-.04-.06-.08-.04,.03-.09-.15-.13-.32-.13-.46,.02-.03-.18-.47-.28-.93-.11-.47-.19-.95-.17-.92-.02-.27,.07-.34,0-.6-.02-.01,.05,.63,.14,1.23,.09,.6,.28,1.1,.23,.94-.08-.16-.51-3-.41-3.18-.01-.2-.04-.44-.09-.39,0-.34,.12,.1,.15-.15,0,0-.03,.02-.03-.06l.06-.24c-.12-.52-.1-1.32-.33-1.85,.09,.15,.24,.31,.35,.66l-.02,.07s.08,.34,.14,.33c0-.35-.05-.65-.18-1v-.21s0,0-.01,.01c0-.13,.02-.12,.05-.08,0,0,.01,.01,.02,.02,.14-.27-.46-1.33-.67-1.93-.1-.16-.03,0-.16-.2-.24-.61-.43-1.04-.79-1.62-.19-.14-.22-.13-.13,.13l-.29-.43c.44,.25-.45-.87,.02-.58-.06-.15-.26-.39-.47-.59-.06,0-.14,.03-.39-.24l-.48-.65c-.03-.11,.1-.02,.12-.07-.52-.4-.31-.49-.76-.9-.29-.25-.85-.74-.94-.66-.37-.34-.32-.4-.22-.43Z"/></g><path class="b" d="M184.44,101.75h-.18c.57-.06,1.18-.08,1.78-.1-1.33-.24-2.89-.42-3.81,.48-.15-.41-1.42-.48-1.44-.37-.25,.1-.51,.19-.77,.27l.54-.16-.54,.16c-1.65,.5-3.5,.54-5.41,.57-1.06,.03-3.92,.22-5.01,.21h-.47l.53,.03c-.65,.18-1.23,.35-1.8,.48,.11,.05,.13,.11,.38,.17h-.3c-.25,.19-.87,.25-1.15,.35,.05-.1-.18-.09-.38-.09l.09,.05c-.77,.04-1.65,.2-2.34,.26-.1,0-.17-.02-.22-.04l-.65,.14c.04-.13-.56-.05-.25-.16-.48,.2-.98,.16-1.44,.36-1.67,.2-3.44,.44-5.15,.87l.05,.04c-.59,.2-1.11,.45-1.85,.49-.51,.18-1.26,.29-1.46,.39-.44,.03-.68,.05-1.01,.07v-.14l.43,.03c-.15-.02,.58,.04,.29,.03-.39-.06-.42-.06-.73-.13l.02,.29h.02c1.6,.18,3.21,.44,4.83,.67,1.04-.26,2.2-.25,3.3-.41,1.18-.17,2.45-.38,3.45-.59,.24-.06,.42,.03,.64,.07,.93-.15,2.12-.23,3.17-.41h-.05c.56-.08,.99,.01,1.53-.07,0-.04,.08-.05,.12-.07,.11,.16,3.18-.68,3.38-.6l.17-.04c1.16-.04,2.39,.17,3.37,.03,.21-.1,.44-.2,.61-.3,.18,.05,.2-.09,.41-.09,.57,.28,.87,.11,.58,.02,.44-.09,.88-.11,1.27-.16l.54-.14c.15-.04,.24,0,.33,.07,.39-.09,.28,0,.7,0,.11,.11,1.03-.29,1.15-.27l-.07,.02c.48-.03,.83,.17,1.3,.13,1.32-.05,2.74-.28,3.96-.36,0-.12-.26,.05-.3-.11,.72-.05,1.45,.02,2.18,0,.13,0,.29,.02,.36,.04,.23-.03,.13-.1,.29-.14l.03,.1c.23-.17,.36-.02,.59-.14,0-.04,.09-.08,.17-.1,.01,.09,.25-.1,.24-.01h0s.08-.04,.14-.05c.09-.08,.93-.59,1.02-.63h.04c.13-.05,.18-.11,.1-.1l.16-.05h-.02l.16-.04s.07,0,.02,.05c.09-.05,.19-.09,.28-.11-.25,.06-.57,.11-.84,.12,.11-.05,.31-.07,.42-.11,.14,0,.43-.06,.66-.11,.05-.02,.08-.07,.19-.09,.06,0,.13-.04,.22-.06-.1,.05-.21,.08-.32,.11,.02,.03,.26-.07,.35-.09,.04-.02,.25-.09,.38-.14-.06,.04,.11-.03,.18-.05,.09-.03,.14-.06,.11-.05,.03-.02-.35,.12-.23,.06,.03,0,.21-.07,.3-.1,0,0-.06,.02,0,0l.27-.09-.09,.03c.13-.06-.72,.29-.55,.23-.05,0,.76-.31,.67-.27-.08,.02,.06-.02-.03,0l-.09,.03c-.12,.04-.16,.04-.12,.03,.19-.07-.55,.2-.38,.15l-.07,.02c.07-.03,.26-.09,.33-.11,0,0,.09-.04,.17-.06h.03c.08-.04,.2-.07,.14-.05-.48,.12,.32-.07-.15,.02,.2-.03-.07,.01-.27,.05l-.26,.02c-.13,.02-.08,.02-.1,.03-.07,0-.21,.02-.19,0-.1,.03-.16,0-.28,.03-.11,.03,0,0-.07,.03l-.51,.06c-.05-.02-.21-.05-.1-.11,.24-.02-.09,.08,.17,.04-.11-.05,.22-.04,.26-.08-.08-.02-.25,0-.38,0h.03c-.12,.02-.36,.06-.49,.03,.03-.03-.03-.04,.06-.05h-.17s-.04,.02,0,.03c-.08,.03-.16,.02-.22,0-.02-.04-.87,.2-.84,.19-.12,.01-.15-.05-.27,0-.01,.02,1.13-.22,.97-.19-.11-.05-1.34,.29-1.42,.22-.09,.01-.19,.03-.17,.08-.15,0,.04-.1-.08-.13,0,0,.01,.02-.02,.02l-.11-.06c-.22,.1-.58,0-.81,.15,.06-.07,.13-.19,.28-.25l.03,.03s.15-.04,.14-.1c-.15-.03-.28-.02-.43,.04l-.09-.04v.02c-.05-.03-.05-.04-.03-.06,0,0,0,0,0-.01-.11-.17-.57,.18-.85,.12-.08,.03,0,.03-.1,.07-.28-.04-.48-.07-.77-.08-.09,.08-.09,.11,.03,.17h-.22c.18-.21-.43-.14-.23-.36-.07-.04-.2-.03-.32,.01,0,.05-.02,.13-.17,.14-.22-.04-.17-.02-.35-.07-.05-.06,.01-.09,0-.14-.27,.11-.25-.11-.51-.07-.16,.03-.48,.07-.48,.19-.22,.02-.23-.06-.21-.15Z"/><path class="b" d="M107.67,160.95h-.13c.42-.05,.86-.06,1.29-.06-.98-.28-2.12-.49-2.76,.37-.12-.41-1.05-.52-1.06-.41-.18,.1-.37,.18-.55,.25,.13-.04,.26-.09,.39-.15-.13,.05-.26,.1-.39,.15-1.19,.46-2.54,.45-3.93,.44-.77,0-2.86,.14-3.65,.1h-.35l.39,.03c-.46,.17-.88,.33-1.3,.45,.08,.05,.1,.11,.28,.17l-.22-.02c-.17,.2-.62,.24-.83,.34,.03-.1-.13-.1-.28-.09l.07,.05c-.56,.03-1.2,.18-1.7,.23-.07,0-.13-.02-.16-.05l-.47,.13c.02-.13-.41-.06-.19-.16-.34,.19-.71,.14-1.03,.34-1.21,.18-2.5,.4-3.72,.83l.04,.04c-.42,.2-.78,.45-1.32,.48-.36,.17-.9,.28-1.04,.38-.44,.04-.62,.07-1.05,.07,.11,0-.43,0-.21,0,.3,.03,.31,.03,.56,.07h0c1.18,.15,2.36,.41,3.56,.67,.74-.25,1.59-.24,2.38-.38,.85-.15,1.76-.35,2.49-.54,.17-.06,.31,.03,.47,.07,.67-.14,1.53-.2,2.29-.35h-.04c.4-.07,.72,.03,1.11-.04,0-.04,.05-.05,.08-.07,.09,.16,2.29-.61,2.44-.53l.13-.03c.85-.02,1.75,.22,2.46,.11,.15-.1,.32-.18,.44-.29,.13,.06,.14-.08,.3-.08,.42,.3,.64,.13,.42,.03,.31-.08,.64-.08,.92-.12l.39-.12c.11-.04,.18,0,.24,.08,.28-.08,.21,.01,.51,.02,.09,.11,.74-.27,.83-.24l-.05,.02c.35-.02,.61,.19,.95,.16,.96-.01,1.99-.2,2.88-.25,0-.12-.19,.05-.22-.12,.52-.03,1.06,.06,1.59,.06,.1,.01,.22,.03,.26,.04,.17-.03,.09-.1,.21-.14l.03,.09c.17-.16,.26-.01,.42-.14,0-.04,.06-.07,.12-.1,.01,.09,.18-.09,.18,0h0s.06-.04,.1-.05c.06-.08,.66-.56,.73-.6h.03c.09-.04,.13-.1,.07-.09l.12-.04h-.01l.12-.03s.05,0,.02,.04c.06-.04,.14-.08,.2-.1-.18,.05-.41,.09-.61,.08,.08-.05,.22-.06,.31-.09,.1,0,.32-.04,.48-.09,.04-.02,.06-.06,.14-.08,.04,0,.09-.04,.16-.05-.08,.04-.15,.08-.23,.1,.02,.03,.19-.06,.25-.08,.03-.02,.18-.08,.27-.13-.04,.03,.08-.03,.13-.05,.06-.03,.1-.05,.08-.04,.02-.02-.25,.11-.17,.05,.02,0,.15-.06,.21-.09,0,0-.05,.02,0,0l.2-.08-.07,.03c.1-.06-.52,.27-.39,.22-.03,0,.55-.29,.48-.25-.06,.02,.04-.01-.02,0l-.07,.03c-.08,.03-.12,.04-.09,.02,.14-.06-.4,.19-.28,.14l-.05,.02s.19-.09,.24-.1c0,0,.07-.03,.12-.06h.02c.06-.03,.14-.06,.1-.05-.35,.11,.23-.06-.11,.01,.14-.02-.05,.01-.2,.05-.01,0-.08,0-.19,.02-.09,.02-.05,.02-.07,.03-.05,0-.15,.02-.14,0-.07,.03-.12,0-.2,.02-.08,.02,0,0-.05,.03l-.37,.04s-.15-.06-.08-.11c.18,0-.06,.07,.12,.05-.08-.05,.16-.03,.19-.07-.06-.02-.18-.01-.28,0h.02c-.09,.02-.26,.05-.36,.02,.02-.03-.02-.04,.04-.05h-.12s-.03,.02,0,.02c-.05,.02-.11,.01-.16,0-.02-.04-.63,.17-.61,.16-.09,0-.11-.05-.19,0,0,.02,.82-.18,.71-.15-.08-.05-.97,.24-1.03,.18-.06,0-.14,.02-.12,.07-.11-.01,.02-.09-.06-.13,0,0,0,.02-.02,.02l-.08-.06c-.16,.09-.42,0-.59,.12,.04-.07,.09-.18,.2-.24l.02,.03s.11-.04,.1-.09c-.11-.04-.21-.03-.31,.03l-.07-.04v.02s-.03-.04-.02-.06h0c-.09-.19-.41,.15-.62,.08-.06,.03,0,.03-.07,.07-.21-.05-.35-.08-.57-.1-.06,.08-.06,.11,.03,.17h-.16c.13-.21-.32-.16-.18-.37-.05-.04-.15-.04-.23,0,0,.05-.01,.13-.12,.14-.16-.05-.12-.03-.26-.08-.04-.06,0-.09,0-.14-.19,.1-.19-.12-.37-.09-.12,.03-.35,.06-.34,.17-.16,.01-.17-.07-.16-.16Z"/></svg>