<?xml version="1.0" encoding="UTF-8"?><svg id="a" xmlns="http://www.w3.org/2000/svg" viewBox="0 0 276.77 280.34"><defs><style>.b{fill:#005bea;}.c{fill:#65dff6;}.d{fill:#0b1f65;}</style></defs><g><path class="b" d="M59.74,152.14c-11.73,15.26-26.1,28.4-27.91,47.56-1.29,13.63,4.65,27.73,15.3,36.34,10.65,8.6,25.69,11.45,38.74,7.33,8.78,8.95,22.69,11.11,34.76,7.73,12.07-3.37,22.06-11.82,27.03-23.33,4.97-11.51,5.1-24.83,1.32-36.78-1.59-5.02-3.82-9.8-5.74-14.69-5.26-13.4-8.16-27.62-10-41.9-1.47-11.35-.05-24.19-9.22-31.02-4.3-3.2-10.61-4.94-17.97-5.44-3.15-.21-6.32,.07-9.42,.66-10.23,1.95-14.01,11.11-16.63,20.01-3.35,11.41-13.09,24.2-20.26,33.53Z"/><path class="b" d="M46.53,239.02c.51,.39,1.01,.81,1.56,1.16-5.21-3.54-9.75-8.57-12.86-14.22,1.55,3.15,3.59,6.29,6.1,9.12,2.49,2.83,5.47,5.33,8.65,7.26,3.18,1.94,6.56,3.33,9.82,4.15,3.26,.83,6.41,1.05,9.14,.84,.51,.61,4.22,1.33,7.91,1.27,1.84,0,3.65-.21,5.01-.42,1.35-.26,2.26-.47,2.31-.55,.16-.04,.1-.04,.15-.06l.08-.05,.16-.09,.36-.19,.26,.13,.15,.08s.03,.01,.1,.06l.31,.22c.83,.58,1.62,1.22,2.51,1.72-.88-.51-1.67-1.15-2.49-1.74l-.31-.22-.1-.07-.15-.09-.27-.16-.05,.02,.05-.02,.27,.16,.15,.09,.1,.07,.31,.22c.83,.59,1.61,1.23,2.49,1.74,8.15,5.12,18.22,6.77,27.96,5.32,9.76-1.46,19.38-6.14,26.56-13.79,1.99-2.1,4.59-5.39,6.81-9.64,1.08-2.15,2.06-4.47,2.9-6.95,.8-2.48,1.44-5.09,1.9-7.73,.89-5.29,.97-10.69,.47-15.41-.46-4.73-1.44-8.79-2.27-11.62-.48-1.63-1.02-3.22-1.59-4.79,.89,2.64,.91,2.63,1.68,5.37-2.43-6.76-5.43-12.07-7.53-17.4,.23,1,.13,1.22,.82,3.55l-.97-2.79c-.69-1.18-1.53-3.25-2.3-5.37-.76-2.13-1.46-4.32-1.94-5.71,.4,.54-.2-1.69-.65-3.68l.05,.82c-1.87-7.51-3.64-16.37-4.54-23.28-.13-.96-.14-1.7-.12-2.14-.33-2.15-.57-4.34-.8-6.56,.36,.51-.15-5.62,.29-2.4-.37-2.51-.63-5.11-1.09-7.69-.46-2.58-1.13-5.18-2.32-7.53-1.71-4.36-5.41-8.25-9.72-10.26-4.29-2.1-8.92-3.03-13.5-3.45-2.26-.21-4.68-.29-7-.06-1.17,.1-2.32,.26-3.47,.46-.58,.1-1.13,.21-1.71,.34l-1.76,.47c-2.32,.74-4.52,1.95-6.34,3.54-1.83,1.58-3.3,3.5-4.46,5.5l.34-.32c-1.68,2.79-2.6,5.66-3.49,8.65-.44,1.49-.81,3.07-1.29,4.64-.22,.8-.51,1.59-.84,2.41-.3,.82-.69,1.64-1.09,2.49-.91,2.52-2.3,5.48-3.61,8.03-1.29,2.56-2.49,4.72-2.81,5.8-3.44,5.22-4.68,7.4-8.24,12.38,1.21-1.05-3.31,4.94-1.28,2.71,2.82-2.95,2.66-3.35,5.02-5.91l-.15,.02c5-6.35,9.84-12.94,13.61-20.46,.49-.93,.89-1.91,1.34-2.87,.39-.99,.83-1.96,1.17-2.99l.52-1.54,.45-1.41c.31-.92,.61-1.85,.95-2.74,1.32-3.58,2.98-6.96,5.31-9.42,1.46-1.74,3.32-3.02,5.49-3.8,2.07-.74,4.92-1.14,7.47-1.26,1.31-.06,2.57-.04,3.9,.08,1.35,.11,2.7,.26,4.02,.48,2.64,.42,5.21,1.05,7.54,1.99,1.25,.5,2.46,1.09,3.56,1.79,.26,.19,.54,.36,.79,.56l.74,.61c.53,.37,.93,.87,1.38,1.32,1.74,1.87,2.88,4.33,3.65,6.98,1.53,5.35,1.71,11.26,2.35,16.51,.15,1.25,.25,2.36,.29,3.42,.05,1.03,.11,2.03,.16,3.09,.74,4.78,1.65,10.21,2.85,15.76,1.2,5.54,2.7,11.2,4.5,16.4l-.16-.51c1.84,5.52,3.26,9.78,5.45,14.87,.07-.06,.4,.73,.6,1.1-.02,.26,.83,2.25,1.88,5.11,1.02,2.85,2.18,6.66,2.78,10.63,.65,3.96,.8,8.03,.59,11.19-.08,1.58-.27,2.93-.4,3.95-.18,1.01-.31,1.68-.39,1.91-.09,.55-.22,1.12-.34,1.69-1.45,5.51-4.09,10.69-7.59,14.86-3.47,4.21-7.68,7.41-11.77,9.76-.83,.62-1.78,1.17-2.68,1.73-.93,.5-1.81,1.04-2.61,1.43-1.65,.43-1.85,.85-3.84,1.38-2.61,.28-4.64,.4-5.69,.55-.52,.08-.81,.16-.79,.21,.02,.07,.33,.11,1,.1-2.1,.32-4.25,.42-6.32,.31-2.07-.07-4.06-.38-5.9-.75-.85-.18-1.72-.31-2.55-.57l-1.27-.34-1.24-.42c-.72-.22-1.23-.49-1.65-.74-.42-.25-.74-.48-1.03-.74-.83-.44-1.39-.74-1.81-.99-.4-.28-.67-.48-.94-.69-.26-.22-.56-.41-.93-.75l-.67-.59-.44-.37-.25-.21-.41-.39c-.24-.32-1.1-1.14-2.28-2.21-1.14,.35-2.51,.77-3.96,1.21-.92,.22-1.87,.55-2.78,.71-1.82,.42-3.42,.58-3.85,.59l.66-.1c-1.17,.12-2.25,.03-3.26,.01-1.02-.1-1.99-.19-2.94-.35-.95-.18-1.9-.31-2.87-.55l-1.5-.31c-.51-.13-1.04-.26-1.59-.38-6.08-1.51-12.1-4.48-16.86-8.74-4.79-4.24-8.33-9.71-10.34-15.14-.17,0,.08,.59,.33,1.22,.28,.61,.57,1.25,.41,1.4-2.85-6.3-3.79-13.4-3.07-20.17,.26-1.22,.6-2.69,.79-3.22,.59-2.1,.14-1.29,.52-2.84l.32-.14c.23-1.14,.56-1.94,.89-2.71,.35-.76,.78-1.48,1.11-2.53-.07-.15,.21-.91,.57-1.61,.29,.09,1-2.22,1.22-1.98v-.03c.22-.42,.37-.73,.69-1.22,.09-.21,.34-.87,.74-1.74,.42-.86,.92-1.95,1.48-3.02,1.12-2.15,2.37-4.28,2.61-4.7l.3-.33c.78-1.08,.97-1.66,.44-1.07l1.01-1.3-.1,.16,1.01-1.29c.21-.22,.53-.4,.34,.04,.5-.79,1.11-1.65,1.73-2.35-1.76,1.91-3.97,4.27-5.77,6.3,.55-.97,1.89-2.47,2.61-3.45,1.03-1.03,3.01-3.24,4.6-4.96,.31-.41,.27-.89,1.13-1.7,.54-.29,.83-1.02,1.58-1.66-.61,.94-1.35,1.74-2.08,2.6,.33,.02,1.89-2,2.51-2.64,.2-.38,1.66-2.01,2.48-3.12-.18,.63,.83-.76,1.46-1.31,.61-.71,.91-1.24,.6-1-.03-.41-2.47,2.78-1.88,1.58,.32-.18,1.44-1.62,2.04-2.4-.11-.11-.51,.46-.23-.14,.7-.84,1.27-1.87,1.79-2.27-.09,.19-.39,.53-.59,.78,.44-.56-.54,1.13-1.53,2.74-.99,1.61-1.97,3.17-1.42,2.43-.2,.14,.9-1.58,1.97-3.24,1.05-1.69,2.08-3.31,1.78-2.94-.6,.64,.16-.66-.43,.02l-.47,.9c-.81,.93-1.33,1.16-1.14,.76,1.31-1.59-2.83,5.21-1.85,3.74l-.51,.51c.39-.64,1.57-2.24,2.18-2.74-.11-.1,.47-.92,.94-1.61l.2-.22c.47-.73,1.24-1.65,.74-1.33-3.09,3.98,.82-3.55-2.26,.23,1.52-1.4-.14,.76-1.45,2.45-.22,.09-.95,.72-1.98,1.86-.82,1.04-.4,.68-.5,.93-.53,.52-1.47,1.57-1.49,1.31-.49,.93-1.16,1.19-1.89,2.19-.62,.9,.12,0-.3,.66-1.06,1.25-2.53,3.01-3.38,4.01-.44,.29-1.63,1.31-1.14,.28,1.58-1.93-.26,1,1.31-1.06-1,.63,1.36-1.85,1.44-2.39-.65,.53-1.72,1.82-2.55,2.95l.21-.19c-.74,.99-2.19,2.99-3.15,3.93,.08-.33-.35,.07,.18-.67-.35,.45-.71,.89-1.05,1.35-.09,.2-.19,.41,.12,.03-.39,.71-.9,1.33-1.33,1.79-.13,.02-1.29,1.98-2.37,3.91-.51,.98-1.01,1.95-1.37,2.66-.36,.71-.55,1.18-.55,1.1-.57,1.08-.92,1.24-1.34,2.37,0,.02,.07-.14,.22-.41,.14-.28,.34-.67,.58-1.15l.8-1.63,.98-1.8c.64-1.22,1.34-2.35,1.79-3.11,.45-.76,.67-1.14,.46-.8-.18,.2-.72,1.05-1.43,2.21-.36,.58-.72,1.28-1.12,1.99-.39,.72-.82,1.47-1.18,2.26l-1.1,2.28c-.32,.75-.61,1.45-.87,2.06-.55,1.21-.84,2.11-.98,2.26-.32,.85-.69,1.88-.48,1.73-.55,1.43-.13-.54-.59,.47,.01,.03,.09-.06-.01,.27l-.48,.96c-.58,2.33-1.49,5.76-1.49,8.29-.05-.73-.22-1.59-.12-3.24l.14-.27c0-.23,.25-1.56,.1-1.55-.2,.75-.42,1.45-.51,2.18-.09,.73-.15,1.47-.19,2.29l-.24,.87s.04-.03,.06-.02c-.14,.53-.14,.47-.18,.27,0-.03-.02-.06-.03-.12-.12,.24-.19,.74-.23,1.41l-.04,1.11,.06,1.28c.02,.44,.05,.9,.07,1.36,.05,.46,.1,.92,.14,1.37,.08,.9,.15,1.74,.21,2.46,.17,.83,.08,.07,.29,1.1,.33,2.89,.64,4.9,1.53,7.84,.5,.86,.58,.9,.38-.26,.21,.74,.5,1.44,.75,2.17-.59-.89-.34,.16-.03,1.18,.33,1,.66,2-.04,1.03,.09,.33,.28,.83,.52,1.38,.27,.54,.6,1.13,.95,1.69,.18,.05,.4,.16,1.27,1.56,1.05,2.05,.86,1.52,1.8,3.18,.13,.46-.32-.08-.38,.06,1.95,2.23,1.27,2.29,3.18,4.38,.59,.66,1.58,1.53,2.38,2.28,.86,.69,1.59,1.22,1.71,1.14,1.82,1.51,1.74,1.62,1.41,1.67Z"/></g><path class="d" d="M104.8,51.04l.09,.24c-.34-.76-.68-1.57-.99-2.38,.34,1.95,.74,4.13,2.4,5.03-.53,.39-.16,2.19,0,2.16,.24,.32,.45,.64,.66,.98-.13-.24-.27-.47-.41-.7,.14,.23,.28,.46,.41,.7,1.28,2.15,1.86,4.81,2.29,7.55,.13,.75,.41,2.17,.61,3.57,.22,1.4,.37,2.81,.38,3.59l.03,.68v-.76c.32,.91,.58,1.74,.77,2.56,.08-.16,.16-.19,.25-.55l-.02,.43c.31,.36,.37,1.26,.51,1.68-.15-.08-.15,.25-.15,.55l.08-.12c.01,1.12,.18,2.41,.16,3.41,0,.14-.05,.24-.1,.31,.03,.32,.08,.64,.11,.96-.18-.08-.18,.79-.29,.33,.2,.72,.06,1.44,.23,2.13-.11,2.44-.28,5.03-.48,7.59l.08-.05c-.06,.9,.14,1.75-.25,2.78,.07,.82-.14,1.92,.15,2.34-.19,.89-.15,1.29-.33,2.18,.26-.16-.06,.9,.22,.54,.44-.48,.24-.59,.6-1.01h-.07c1.02-2.19,1.79-4.5,2.33-6.89,.12-1.63,.53-3.36,.63-5.05,.12-1.82,.07-3.79-.08-5.35-.06-.37,.1-.64,.19-.96-.08-1.43-.12-3.25-.36-4.85v.08c-.11-.85,.01-1.51-.11-2.34-.05,.01-.07-.12-.11-.18,.11-.09-.16-1.3-.53-2.5-.34-1.21-.77-2.4-.72-2.56l-.08-.26c-.26-1.73-.21-3.6-.65-5.04-.2-.28-.4-.61-.61-.84,.03-.29-.18-.28-.24-.59,.25-.92-.09-1.32-.14-.86-.25-.62-.41-1.27-.62-1.83l-.37-.75c-.11-.21-.09-.36-.01-.51-.27-.55-.09-.42-.26-1.03,.13-.21-.82-1.39-.83-1.58l.06,.09c-.23-.7-.09-1.28-.35-1.95-.63-1.9-1.68-3.84-2.48-5.51-.17,.07,.22,.35,.01,.48-.46-.99-.78-2.07-1.3-3.05-.05-.2-.1-.46-.09-.57-.12-.34-.18-.14-.3-.37l.13-.12c-.31-.26-.12-.57-.37-.85-.07,.02-.14-.09-.2-.2,.15-.1-.22-.33-.07-.4h-.01c-.04-.06-.08-.1-.1-.2-.14-.09-1.27-.98-1.42-1.06v-.07c-.13-.17-.29-.16-.25-.05l-.13-.21,.03,.02-.13-.21s.03-.14,.13-.12c-.13-.08-.25-.19-.3-.33,.13,.39,.28,.88,.35,1.31-.15-.1-.24-.41-.36-.55-.02-.25-.19-.67-.32-1.01-.05-.06-.24,.01-.27-.18,.06-.15-.12-.16-.12-.33,.16,.09,.23,.24,.32,.39,.12-.12-.15-.4-.19-.53-.08-.02-.23-.32-.38-.45,.18-.02-.02-.19-.02-.34-.07-.12-.17-.16-.18-.08-.16,.06,.24,.5-.02,.45,.04-.09-.15-.29-.24-.4-.08,.05,0,.12-.12,.1-.08-.14-.27-.21-.25-.35,.04,0,.06,.07,.09,.11-.12-.18,1.16,.56,.95,.38-.03,.1-1.15-.65-1.07-.53,.04,.13-.19,.03-.14,.15l.18,.05c.08,.17,0,.32-.1,.31-.17-.25,1.01,.32,.79,.17l.03,.11c-.11-.05-.33-.26-.32-.41-.07,.05-.19-.05-.29-.13v-.04c-.13-.07-.21-.23-.26-.09,.45,.59-1.03,.17-.65,.77-.01-.36,.22-.04,.43,.2-.04,.07-.04,.24,.05,.45,.13,.15,.13,.05,.19,.05,.03,.11,.12,.3,.01,.34,.19,.05,.08,.24,.22,.36,.14,.1,.04-.04,.15,.02,.12,.21,.3,.49,.39,.67-.04,.12-.06,.4-.28,.35-.19-.31,.29-.03,.05-.32-.1,.26-.24-.24-.42-.2-.02,.16,.12,.36,.26,.51v-.05c.13,.13,.37,.4,.38,.63-.09,0-.09,.11-.18,.01l.13,.21s.08,.02,.05-.04c.12,.06,.15,.18,.16,.28-.06,.07,1,.91,.93,.91,.1,.15,.01,.25,.18,.35,.07-.02-1.15-1.27-1-1.09,0,.18,1.44,1.46,1.35,1.65,.07,.11,.17,.24,.23,.17,.08,.21-.17,.03-.16,.2,.01,0,.03-.03,.05,.01l-.02,.19c.29,.23,.4,.75,.73,.97-.13-.05-.33-.07-.52-.22l.02-.06s-.16-.16-.23-.12c.06,.22,.17,.37,.36,.53,0,.05,0,.1,0,.14,0,0,.02-.01,.03-.02,0,.09-.02,.09-.06,.08,0,0-.02,0-.02,0-.15,.24,.55,.67,.63,1.09,.09,.09,.04-.01,.16,.09,.11,.4,.17,.69,.31,1.1,.16,.07,.2,.06,.23-.14l.12,.3c-.39-.13,.03,.66-.37,.5-.02,.11,.06,.29,.18,.43,.07-.02,.19-.04,.29,.16,.05,.33,.05,.24,.08,.52-.06,.1-.13,.03-.2,.07,.28,.31-.03,.4,.14,.74,.13,.2,.34,.62,.49,.56,.12,.29,.01,.34-.12,.37Z"/><path class="d" d="M154.77,58.86l.46-.46c-1.4,1.59-2.98,3.18-4.54,4.73,3.99-2.86,8.41-6.47,9.28-10.57,1.11,.47,4.63-2.26,4.51-2.49,.52-.78,1.08-1.53,1.69-2.24-.43,.48-.84,.97-1.24,1.48,.39-.51,.8-1,1.24-1.48,1.93-2.25,4.34-4.16,7.08-5.53,2.74-1.37,5.81-2.21,8.82-2.34,.83-.03,2.02-.08,3.34,.06,1.32,.13,2.78,.47,4.2,.98,1.41,.51,2.78,1.21,3.93,1.96,1.14,.77,2.09,1.51,2.7,2.12,.37,.33,.72,.68,1.08,1.04-.56-.64-.56-.63-1.15-1.22,1.85,1.04,3.47,2.22,4.89,3.56-.1-.36,0-.53-.39-1.28,.21,.26,.39,.54,.58,.82,1,.35,2.27,2.08,3,2.8-.33-.04,.07,.65,.42,1.26v-.32c1.35,2.3,2.95,5.02,3.88,7.3,.13,.31,.15,.59,.13,.76,.36,.7,.72,1.4,1.06,2.12-.38-.05,.41,1.94-.18,.96,1,1.52,1.35,3.32,2.28,4.81,1.95,5.84,4.16,12.08,6.65,18.01l.07-.19c.9,2.07,2.15,3.75,2.82,6.4,1.05,1.7,2.21,4.23,3.15,4.71,.87,2.06,1.52,2.77,2.5,4.73,.11-.65,1.19,1.81,1.04,.71-.08-1.52-.51-1.43-.58-2.72l-.1,.08c-1.57-5.56-3.13-11.07-4.71-16.64-1.46-3.62-2.51-7.78-3.83-11.61-1.43-4.13-3.13-8.68-4.86-12.18-.43-.82-.43-1.55-.59-2.35-1.58-3.24-3.65-7.45-6.42-10.68l.12,.17c-1.4-1.72-2.26-3.22-3.91-4.71-.06,.08-.31-.15-.47-.23,.02-.29-2.56-2.37-5.57-3.82-1.51-.71-3.07-1.34-4.34-1.68-1.25-.39-2.18-.57-2.34-.7l-.71-.11c-2.26-.64-4.67-1.14-7.04-1.2-2.36-.08-4.66,.19-6.59,.83-.78,.48-1.64,.99-2.22,1.49-.72,.08-.7,.49-1.49,.78-2.34,.06-3.27,1.07-2.14,.82-1.48,.93-3.01,1.8-4.24,2.72-.55,.46-1.06,.95-1.58,1.44-.42,.44-.78,.53-1.15,.56-1.11,1.09-.9,.62-2.18,1.61-.54,0-2.59,3.13-2.94,3.38l.15-.22c-1.33,1.26-2.63,1.7-3.86,2.99-3.51,3.47-6.83,7.55-9.94,10.82,.22,.26,.61-.79,.98-.52-1.82,1.93-3.93,3.63-5.76,5.58-.39,.3-.91,.62-1.14,.71-.67,.55-.22,.48-.67,.92l-.29-.14c-.43,.85-1.15,.76-1.63,1.49,.06,.12-.14,.36-.35,.58-.25-.21-.61,.72-.81,.48v.02c-.12,.13-.19,.25-.38,.37-.15,.34-1.68,3.38-1.82,3.73l-.15,.09c-.32,.37-.28,.69-.05,.52l-.42,.44,.03-.07-.42,.43c-.1,.06-.29,.05-.29-.17-.14,.33-.35,.66-.63,.87,.79-.57,1.79-1.25,2.7-1.77-.19,.38-.81,.81-1.08,1.16-.51,.25-1.38,.93-2.06,1.46-.11,.15,.08,.49-.33,.7-.33-.02-.31,.36-.68,.5,.17-.39,.48-.64,.76-.93-.27-.15-.82,.6-1.09,.78-.03,.18-.63,.69-.9,1.12-.07-.35-.4,.17-.71,.29-.25,.22-.31,.46-.14,.43,.16,.29,1.03-.86,.96-.3-.19-.01-.59,.51-.82,.78,.12,.12,.26-.09,.22,.19-.29,.27-.42,.71-.7,.76,.01-.09,.14-.19,.22-.27-.35,.37,1.03-2.79,.66-2.24,.23-.03-1.2,2.83-.96,2.58,.27-.17,.08,.37,.34,.17l.09-.4c.34-.28,.68-.22,.67-.03-.51,.53,.54-2.33,.25-1.75l.23-.14c-.1,.27-.5,.87-.82,.95,.12,.11-.07,.42-.23,.68l-.09,.06c-.14,.29-.46,.58-.16,.58,1.19-1.36,.47,2.02,1.71,.79-.77,.3-.12-.44,.37-1.04,.14,.03,.51-.1,.95-.45,.3-.38,.09-.3,.08-.43,.24-.14,.63-.47,.73-.29,.08-.43,.51-.34,.75-.73,.18-.37-.09-.05,.01-.33,.42-.42,1-1.02,1.35-1.34,.26-.01,.87-.21,.81,.28-.63,.64-.11-.56-.69,.17,.58-.02-.47,.69-.35,1.03,.34-.09,.75-.54,1.04-.95l-.11,.04c.26-.37,.79-1.09,1.28-1.29,.03,.18,.26,.1,.06,.37l.43-.44c.02-.09,.04-.18-.11-.07,.11-.29,.35-.46,.56-.57,.16,.05,1.7-2.86,1.7-2.72,.29-.33,.54-.25,.71-.68-.06-.12-2.43,3.49-2.08,3.02,.38-.17,2.77-4.23,3.18-4.24,.21-.25,.45-.57,.28-.61,.43-.36,.11,.32,.49,.13-.01-.02-.08-.03,0-.12l.4-.15c.39-.8,1.47-1.52,1.83-2.41-.05,.31-.02,.73-.3,1.26l-.13,.02c-.02,.09-.3,.48-.17,.58,.45-.34,.74-.71,1.01-1.24,.1-.05,.22-.11,.31-.15-.02-.01-.04-.02-.05-.03,.2-.07,.2-.05,.2,.04,0,.01,0,.03,0,.05,.57,.05,1.23-1.8,2.08-2.38,.15-.26-.04-.07,.14-.41,.82-.64,1.4-1.07,2.2-1.79,.08-.39,.04-.46-.39-.29l.59-.56c-.1,.9,1.39-.78,1.24,.17,.25-.09,.59-.44,.83-.83-.07-.12-.18-.32,.2-.74,.66-.47,.49-.37,1.05-.75,.23,0,.12,.23,.24,.3,.51-.9,.87-.4,1.49-1.14,.36-.48,1.14-1.37,.93-1.6,.55-.59,.72-.44,.85-.22Z"/><path class="d" d="M239.16,150.37l.18,.62c-.71-1.97-1.35-4.09-1.97-6.18,.32,2.4,.72,5,1.44,7.32,.71,2.32,1.7,4.35,3.26,5.76-.5,.35-.57,1.63-.52,2.81,.06,1.18,.23,2.27,.39,2.28,.4,.83,.76,1.69,1.06,2.57-.2-.61-.4-1.21-.64-1.8,.24,.59,.44,1.19,.64,1.8,.94,2.77,1.35,5.84,1.12,8.86-.21,3.03-1.09,6.09-2.47,8.81-.38,.75-.94,1.82-1.7,2.94-.77,1.11-1.73,2.27-2.83,3.24-1.09,.98-2.3,1.79-3.48,2.36-1.19,.56-2.26,.96-3.08,1.14-.46,.13-.93,.23-1.41,.33,.81-.13,.81-.12,1.6-.3-1.79,.99-3.64,1.69-5.53,2.13,.36,.12,.44,.27,1.28,.38l-1,.03c-.83,.62-2.98,.77-4,.98,.21-.27-.59-.27-1.29-.33l.28,.17c-2.68-.09-5.84-.14-8.31-.48-.34-.04-.59-.17-.73-.27l-2.38-.13c.23-.31-1.91-.59-.75-.63-1.82,.13-3.57-.41-5.34-.3-6.07-.99-12.51-1.99-18.87-2.71l.13,.15c-2.23-.22-4.29,.04-6.91-.71-1.99,.06-4.74-.23-5.63,.32-2.21-.32-3.15-.14-5.33-.35,.49,.44-2.16,.04-1.15,.5,1.34,.74,1.49,.34,2.62,.95v-.12c5.52,1.56,11.08,3.02,16.78,4.34,3.88,.49,8,1.55,12.03,2.2,4.33,.66,9.04,1.27,12.88,1.5,.92,.02,1.53,.4,2.29,.65,3.51,.27,8.12,.72,12.26,.18-.08,0-.15,0-.2,0,2.18-.23,3.9-.12,6.06-.69-.03-.09,.3-.18,.45-.27,.23,.18,3.42-.85,6.26-2.74,1.4-.95,2.73-2.02,3.65-2.98,.94-.93,1.56-1.64,1.73-1.74l.44-.57c1.62-1.69,3.15-3.56,4.36-5.55,1.21-1.98,2.11-4.07,2.53-6.04-.02-.9,0-1.89-.16-2.64,.31-.66-.05-.85,.09-1.67,1.16-2.03,.75-3.35,.4-2.25-.05-1.76-.03-3.48-.17-5.01-.13-.7-.26-1.39-.44-2.08-.15-.59-.05-.94,.11-1.27-.37-1.5-.07-1.09-.27-2.69,.26-.47-1.38-3.81-1.42-4.24l.11,.24c-.41-1.78-.14-3.13-.65-4.84-1.27-4.8-3.3-9.67-4.74-13.94-.34,.08,.41,.91,0,1.11-.85-2.51-1.39-5.17-2.29-7.69-.09-.48-.14-1.1-.12-1.34-.19-.85-.33-.41-.52-1.01l.26-.19c-.57-.76-.17-1.37-.6-2.13-.13,0-.26-.28-.37-.57,.3-.13-.37-.87-.07-.94h-.03c-.06-.17-.13-.29-.16-.52-.24-.29-2.29-3.01-2.56-3.28v-.17c-.21-.45-.51-.55-.46-.27l-.21-.57,.05,.06-.21-.56c-.02-.11,.08-.29,.28-.18-.24-.27-.44-.6-.51-.94,.17,.96,.36,2.16,.42,3.2-.26-.34-.37-1.08-.57-1.48,0-.57-.24-1.65-.43-2.48-.09-.16-.47-.14-.49-.59,.15-.29-.19-.44-.16-.83,.28,.32,.37,.71,.52,1.09,.25-.18-.19-1-.24-1.33-.14-.1-.36-.87-.63-1.29,.35,.09,.01-.44,.04-.77-.1-.32-.29-.47-.33-.31-.33,.02,.35,1.3-.13,.99,.09-.17-.21-.75-.36-1.07-.16,.06-.02,.27-.26,.12-.12-.37-.47-.68-.39-.95,.07,.05,.11,.21,.15,.32-.18-.48,2.1,2.11,1.75,1.54-.07,.21-2.06-2.28-1.94-1.96,.04,.32-.37-.08-.3,.23l.33,.25c.11,.43-.09,.71-.26,.61-.26-.69,1.88,1.47,1.48,.96l.02,.27c-.2-.2-.57-.82-.51-1.14-.15,.06-.35-.24-.52-.49l-.02-.11c-.2-.25-.33-.66-.46-.39,.73,1.65-2.03-.42-1.44,1.22,.06-.82,.45,.08,.78,.77-.09,.12-.12,.5,0,1.05,.21,.43,.23,.21,.36,.25,.03,.28,.16,.77-.05,.78,.36,.25,.09,.6,.34,.99,.25,.32,.08-.06,.29,.15,.2,.55,.49,1.33,.63,1.78-.1,.24-.19,.87-.61,.61-.3-.84,.56,.14,.15-.7-.23,.53-.42-.72-.78-.75-.06,.35,.17,.9,.41,1.34v-.11c.23,.39,.65,1.17,.62,1.7-.18-.05-.2,.19-.36-.1l.2,.57c.07,.05,.15,.11,.11-.07,.21,.22,.26,.51,.26,.75-.12,.12,1.81,2.76,1.69,2.71,.17,.41-.01,.59,.29,.93,.14,0-2.05-3.7-1.79-3.18-.01,.41,2.56,4.33,2.39,4.7,.13,.3,.3,.65,.42,.52,.13,.54-.34-.04-.33,.37,.03,0,.06-.06,.1,.06l-.05,.42c.54,.71,.69,1.99,1.31,2.71-.25-.18-.64-.35-.99-.83l.04-.12c-.07-.06-.3-.48-.44-.41,.1,.55,.29,.97,.64,1.45,0,.11,0,.24,0,.34,.02,0,.03-.02,.05-.03-.02,.21-.05,.2-.13,.16-.01,0-.03,0-.05-.02-.31,.48,1.04,1.9,1.16,2.91,.16,.25,.08,0,.29,.31,.19,1.02,.3,1.72,.57,2.76,.3,.25,.39,.25,.44-.21l.22,.78c-.75-.5,.04,1.58-.73,1.01-.03,.26,.11,.72,.34,1.11,.14,0,.37,0,.56,.52,.1,.8,.1,.6,.16,1.27-.11,.2-.26,0-.38,.07,.55,.87-.06,.95,.29,1.83,.25,.54,.65,1.64,.95,1.57,.25,.76,.04,.83-.22,.84Z"/><path class="d" d="M210.67,94.59l.19,.15c-.67-.37-1.32-.88-1.95-1.39,.98,1.78,2.27,3.6,4.54,2.41-.47,1.07,.67,2.41,.85,2.18,.41,0,.8,.03,1.18,.1-.25-.06-.51-.11-.77-.14,.26,.03,.52,.08,.77,.14,1.19,.2,2.25,.72,3.24,1.41,.49,.34,.97,.73,1.44,1.14,.4,.32,.8,.65,1.21,.98,.45,.37,.9,.75,1.35,1.13,.51,.42,1.27,1.01,2.15,1.7,.45,.35,.92,.72,1.42,1.1l.76,.59,.39,.3c.08,.1,.09-.03,.13-.07l.1-.18c.53-.95,1.05-1.91,1.53-2.76,.25-.43,.48-.83,.7-1.2l.16-.26,.13-.32,.24-.58c.17-.43,.34-.84,.51-1.26l-.63,1.33c.15-1.01,.29-1.98,.43-2.9,.11-.82,.3-1.85,.26-2.08-.1,.04-.19,.05-.3,.09-.05,.02-.11,.04-.17,.07-.06,.02-.14,.09-.24,.23,.12-.26,.17-.3,.25-.43-.36-.49-.09-1.28-.17-1.72,.22,.16,.36-.12,.47-.37l-.19,.05c.41-.96,.57-2.17,.87-3.04,.04-.12,.16-.19,.26-.22l.08-.91c.3,.17,.5-.61,.58-.15-.19-.75,.25-1.32,.04-2.05,.31-1.09,.58-2.23,.8-3.39,.11-.58,.2-1.17,.27-1.77,.03-.3,.09-.59,.13-.88,.04-.29,0-.62-.03-.93l-.12,.02c-.11-.89-.43-1.75-.04-2.67-.12-.78,.08-1.78-.04-2.11,.3-.77,.38-1.08,.78-1.8-.07,.09,.03-.09,.13-.24,.12-.14,.11-.3,.07-.11-.36,.45-.35,.48-.7,.85h.03c-.77,.86-1.55,1.73-2.42,2.57-.84,.87-1.67,1.72-2.5,2.57-.03,1.49-.8,2.87-1.13,4.32-.35,1.57-.65,3.29-.78,4.68,0,.34-.35,.48-.59,.7-.22,1.25-.81,2.75-1.05,4.17,0-.03,.02-.05,.03-.06-.08,.37-.25,.66-.42,.95-.08,.17-.06,.2,0,.36,.08,.05,.1,.09,.15,.14-.09-.05-.04,.05,.06,.25,.04,.1,.13,.23,.16,.37l.02,.46c0,.34,0,.74-.02,1.06-.03,.31-.04,.58-.12,.37-.02,.01-.05,.02-.08,.01-.36-.38-.7-.95-.89-1.37-.2-.43-.26-.72-.43-.78-.31,.06-.73,0-1.06,.09-.09-.3-.34,0-.56-.2-.11-1.18-.69-1.09-.54-.6-.57-.22-1.04-.61-1.51-.87-.25-.07-.49-.15-.75-.21-.22-.05-.25-.23-.22-.47-.53-.17-.27-.29-.71-.67,.05-.35-1.49-.3-1.58-.47h.1c-.53-.39-.58-1.15-1.12-1.5-1.41-1.12-3.21-1.91-4.56-2.84-.19,.29,.35,.12,.14,.52-.8-.54-1.44-1.39-2.2-2.02-.12-.14-.27-.31-.3-.41-.28-.13-.28,.12-.51,.06l.11-.25c-.48,.16-.39-.29-.8-.21-.07,.09-.21,.09-.33,.08,.12-.22-.39,0-.26-.2v.02c-.09,0-.15,0-.22-.03-.2,.09-1.82,.48-1.99,.5l-.05-.03c-.2-.01-.34,.07-.24,.11l-.23-.04h.03l-.23-.04s-.05-.08,.05-.12c-.16,.03-.33,.03-.45,0,.34,.11,.73,.28,1.02,.52-.18,.02-.41-.12-.59-.14-.15-.13-.53-.26-.83-.35-.08,0-.18,.08-.32,.02-.04-.07-.19-.02-.3-.08,.18,0,.33,.01,.49,.04,.02-.09-.37-.09-.49-.11-.07,.01-.39-.02-.6-.03,.11-.03-.15-.03-.26-.05-.14,0-.23,0-.18,0-.06,.02,.53,.06,.32,.08-.04-.02-.31-.04-.45-.06,0,0,.09,.02,0,.02l-.4-.06,.14,.02c-.1-.01,.17,.02,.46,.02,.29,0,.59-.04,.44-.03,.03,.01-.3,.04-.59,.03-.3,0-.56-.05-.5-.04,.12,.02-.08-.02,.04,0l.14,.02c.17,.03,.23,.06,.17,.05-.14-.03,.06,0,.29,.02,.22,.01,.47,0,.33,0l.1,.02c-.12,0-.4-.03-.5-.05,0,.01-.15,0-.27-.02h-.04c-.12-.02-.29-.05-.21-.04,.35,.06,.22,.07,.11,.04-.12-.02-.21-.09,.07,.06-.24-.12,.09,.03,.36,.13,.02,.02,.12,.09,.3,.19,.16,.07,.11,.03,.14,.03,.08,.05,.24,.14,.2,.17,.15,.02,.18,.13,.33,.19,.14,.04,0-.03,.11-.01,.19,.1,.46,.25,.6,.34,.02,.09,.13,.31-.06,.33-.27-.19,.2-.1-.1-.25,.04,.21-.28-.12-.39-.06,.06,.11,.24,.25,.4,.33l-.02-.04c.14,.08,.44,.22,.53,.41-.07,.04-.04,.13-.14,.07l.17,.15s.07,0,.03-.06c.12,.01,.18,.1,.23,.19-.04,.12,1.18,.34,1.13,.35,.14,.08,.08,.25,.28,.24,.05-.04-1.47-.55-1.26-.48,.03,.09,.45,.26,.9,.41,.44,.15,.89,.26,.87,.39,.11,.06,.24,.11,.29-.02,.14,.16-.18,.19-.13,.38,.01-.02,.03-.07,.06-.04l.02,.23c.37-.02,.6,.51,1.04,.41-.17,.1-.41,.3-.66,.3v-.09s-.2-.04-.27,.09c.11,.21,.25,.31,.5,.3,0,.06,.03,.12,.03,.18l.03-.06c0,.12,0,.13-.06,.17,0,0-.02,.02-.03,.02-.15,.5,.85,.11,1.04,.51,.13,0,.05-.06,.21-.07,.23,.35,.38,.6,.66,.89,.21-.11,.26-.17,.23-.43l.22,.21c-.5,.32,.22,.71-.3,1.02,.01,.15,.15,.26,.34,.27,.08-.11,.21-.28,.39-.17,.16,.3,.13,.21,.25,.48-.04,.18-.15,.19-.21,.32,.43,0,.09,.49,.4,.64,.21,.07,.59,.27,.76,.01,.25,.16,.13,.35-.02,.55Z"/><path class="d" d="M179.84,180.96l-.22,.08c.64-.38,1.37-.66,2.1-.93-1.96-.08-4.11,.06-4.19,2.6-.68-.96-2.36-.67-2.25-.4-.19,.35-.41,.66-.64,.95,.17-.19,.33-.38,.49-.59-.15,.21-.32,.4-.49,.59-.74,.91-1.69,1.55-2.74,2.05-.53,.25-1.08,.47-1.65,.67-.97,.38-1.97,.78-2.98,1.18-.59,.24-1.43,.6-2.41,1.02-.5,.22-1.03,.45-1.57,.69l-.84,.37-.21,.09-.11,.05s-.08,.03-.05,.06l.19,.33c.5,.9,1.01,1.81,1.46,2.65,.22,.42,.42,.82,.61,1.18,.2,.37,.53,.74,.71,1.04l.78,1.06q-.39-.6-.77-1.2c.75,.62,1.48,1.22,2.17,1.79l.94,.77,.21,.18,.13,.08,.25,.16c.03-.22,.16-.32,.1-.74,.09,.16,.12,.25,.18,.38,.59-.06,1.11,.56,1.51,.71-.24,.11-.09,.36,.06,.59l.06-.19c.58,.82,1.49,1.55,2.06,2.24,.08,.09,.07,.23,.04,.33l.71,.51c-.3,.18,.24,.73-.19,.56,.72,.22,.97,.86,1.68,1.05,.74,.8,1.53,1.59,2.39,2.35,.43,.38,.87,.75,1.32,1.11,.23,.17,.44,.37,.66,.55,.22,.18,.51,.3,.79,.44l.05-.11c.8,.35,1.68,.5,2.23,1.29,.71,.29,1.43,.95,1.77,1.01,.48,.63,.7,.85,1.08,1.55-.04-.1,.06,.07,.13,.23,.06,.17,.19,.25,.05,.11-.18-.52-.21-.53-.33-1.01v.03c-.32-1.08-.62-2.17-.86-3.31-.27-1.14-.54-2.26-.8-3.38-1.21-.76-1.95-2.1-2.98-3.1-1.11-1.07-2.38-2.17-3.47-2.97-.28-.17-.21-.53-.27-.84-.92-.81-1.85-2.05-2.89-2.95,.02,.02,.03,.04,.04,.06-.26-.25-.41-.54-.57-.83-.1-.19-.09-.14-.15-.19-.04-.02-.1-.04-.18-.04-.08,.05-.13,.04-.19,.06,.08-.06-.02-.06-.24-.08-.11,0-.24-.02-.4-.04l-.38-.21c-.53-.3-1.39-.86-1.15-.83,0-.03,0-.05,.03-.07,.49-.13,1.13-.14,1.57-.1,.46,.04,.73,.13,.86,.02,.06-.28,.32-.63,.39-.94,.3,.07,.16-.29,.43-.37,1.05,.5,1.24-.03,.76-.16,.45-.38,1-.57,1.44-.84,.17-.17,.35-.35,.53-.53,.14-.16,.31-.1,.5,.05,.4-.36,.37-.09,.9-.26,.27,.23,.96-1.11,1.14-1.09l-.06,.08c.58-.25,1.25,.1,1.81-.17,1.62-.62,3.15-1.74,4.59-2.42-.15-.31-.27,.24-.51-.15,.85-.41,1.87-.52,2.76-.86,.18-.03,.39-.07,.49-.06,.25-.17,.03-.3,.19-.47l.16,.22c.09-.5,.44-.19,.56-.58-.04-.1,.02-.22,.09-.32,.13,.22,.19-.34,.29-.13v-.02c.03-.06,.05-.12,.12-.16,.02-.22,.44-1.8,.49-1.96l.05-.03c.1-.16,.09-.33,.01-.27l.14-.18v.03l.13-.18s.09,0,.08,.1c.05-.15,.12-.3,.21-.39-.25,.24-.58,.49-.91,.62,.07-.17,.29-.3,.39-.44,.18-.06,.47-.32,.68-.55,.04-.07,.01-.2,.13-.29,.08,0,.1-.15,.2-.23-.07,.16-.16,.28-.25,.4,.07,.06,.24-.28,.32-.37,.02-.07,.19-.32,.29-.5-.02,.11,.1-.11,.16-.2,.07-.12,.11-.2,.07-.16,.01-.06-.29,.43-.21,.24,.04-.02,.17-.24,.25-.36,0-.01-.06,.07-.01-.01l.23-.32-.08,.11c.06-.08-.1,.14-.22,.39-.13,.25-.23,.53-.17,.4-.02,.02,.1-.27,.24-.52,.14-.25,.3-.46,.26-.41-.07,.09,.05-.06-.02,.03l-.08,.11c-.1,.13-.15,.17-.12,.12,.09-.1-.03,.05-.14,.24-.11,.19-.21,.4-.15,.29l-.06,.07c.05-.1,.2-.33,.27-.41,0-.01,.07-.13,.14-.22l.02-.03c.07-.1,.17-.23,.12-.17-.21,.27-.15,.16-.08,.07,.07-.09,.17-.14-.09,.03,.21-.15-.06,.06-.27,.24-.03,0-.13,.06-.3,.16-.14,.1-.07,.08-.09,.11-.08,.05-.23,.14-.24,.09-.08,.12-.19,.09-.31,.19-.1,.1,.02,.02-.04,.1-.17,.11-.42,.27-.57,.35-.09-.02-.33-.04-.26-.22,.29-.14-.01,.22,.26,.04-.2-.07,.23-.18,.23-.3-.12,0-.32,.08-.47,.18h.04c-.13,.09-.38,.27-.59,.25,0-.08-.09-.1,0-.16l-.21,.07s-.03,.06,.04,.05c-.06,.09-.17,.11-.27,.1-.08-.1-.83,.84-.82,.8-.13,.08-.25-.05-.33,.12,.02,.06,1.14-.98,.99-.84-.09-.02-.43,.26-.76,.56-.33,.3-.63,.63-.74,.55-.1,.06-.2,.15-.11,.26-.2,.04-.08-.25-.26-.3,0,.02,.04,.05,0,.07l-.21-.09c-.16,.33-.71,.25-.83,.68,0-.19-.06-.5,.05-.71l.07,.06c0-.05,.13-.16,.05-.29-.23-.01-.38,.06-.49,.28-.06-.02-.12-.04-.17-.07l.03,.05c-.11-.06-.11-.07-.12-.14,0-.01,0-.02,0-.04-.35-.38-.49,.67-.92,.62-.06,.11,.03,.07-.04,.21-.4,.02-.69,.02-1.07,.11,0,.23,.02,.31,.25,.41l-.28,.08c-.04-.59-.71-.18-.72-.78-.13-.06-.29,0-.39,.15,.05,.12,.13,.32-.04,.42-.33-.02-.24,0-.52-.03-.13-.12-.09-.23-.17-.34-.2,.37-.45-.18-.73,.01-.16,.15-.51,.37-.37,.64-.25,.13-.36-.07-.46-.3Z"/><g><path class="c" d="M111.35,85.7c-.74-3.25-1.99-6.43-4.09-9.02-4.56-5.62-12.3-7.81-19.54-7.86-8.59-.6-11.05-4.75-10.5-9.55-4.82,7.73-3.96,20.34,1.45,27.99,3.74,5.29,9.42,8.98,15.58,10.83,4,1.2,13.49,3.5,16.37-.82,2.09-3.14,1.51-8.13,.73-11.57Z"/><path class="c" d="M91.26,67.92l-.54-.07c1.74,.14,3.56,.47,5.3,.96-1.86-.67-3.99-1.17-6.04-1.34-.51-.04-1.02-.07-1.49-.06h-1.34c-.82,0-1.62-.01-2.35,.05-.1-.25-.99-.59-1.77-.98l-1.04-.53c-.26-.16-.44-.26-.47-.24-.61-.25-1.14-.61-1.63-1.04,.33,.3,.68,.58,1.07,.79-.4-.22-.74-.5-1.07-.79-.19-.21-.42-.39-.57-.64l-.26-.35-.32-.75-.16-.38s-.04-.17-.05-.28l-.03-.34-.11-1.35v-.17c-.02-.06,0-.21,0-.32l.04-.68,.07-1.36,.17-2.88-.76,1.14-.26,.25c-.06,.06-.06,.04-.07,.02l-.02-.06s0-.09-.04-.01l-.26,.47c-.35,.62-.7,1.25-1.05,1.88-.32,.6-.64,1.2-.97,1.8-.32,.63-.58,1.43-.88,2.15-.14,.37-.32,.74-.42,1.13l-.22,.8c-.15,.5-.28,1.01-.38,1.52-.1,.51-.23,1.03-.29,1.55-.27,1.6-.47,4.62-.14,7.63,.31,3.01,1.16,5.95,1.73,7.54,.17,.46,.36,.91,.55,1.36-.29-.77-.31-.76-.57-1.53,.87,1.86,1.82,3.47,2.9,4.91-.12-.3-.1-.38-.44-1.05l.46,.79c.58,.61,1.74,2.09,2.4,2.68-.19-.09,.24,.46,.68,.9l-.13-.22c1.58,1.73,3.77,3.35,5.52,4.45,.24,.16,.42,.29,.51,.39,.58,.33,1.18,.62,1.77,.91-.2,.04,1.43,.83,.54,.48,1.4,.53,2.77,1.18,4.17,1.49,2.4,.78,4.92,1.37,7.53,1.69,1.3,.16,2.63,.22,3.97,.15,1.33-.08,2.69-.28,3.94-.85h-.14c.44-.18,.83-.45,1.21-.71,.34-.32,.71-.6,.97-1.01,.58-.75,.94-1.64,1.3-2.69,.33-1.57,.24-3.79-.05-4.38-.13-1.76-.36-2.45-.75-4.13-.03,.46-.51-1.61-.42-.75,.07,1.15,.22,1.18,.24,2.15l.04-.03c.24,2.21,.28,4.47-.27,6.47-.15,.49-.31,.98-.54,1.4-.21,.45-.5,.83-.78,1.12-.59,.6-1.46,.99-2.44,1.22-1.3,.37-2.85,.4-4.4,.28-1.56-.13-3.14-.41-4.68-.75-3.35-.68-6.81-1.85-9.39-3.21-.62-.31-1-.66-1.46-1.02-2.29-1.36-4.84-3.61-6.71-5.94l.09,.12c-.5-.62-.88-1.2-1.21-1.79-.37-.57-.65-1.19-1.02-1.86-.03,.02-.14-.19-.22-.28,0-.08-.23-.63-.61-1.42-.34-.8-.79-1.86-1.14-2.98-.72-2.22-1.12-4.59-1.06-4.87l-.06-.5c-.25-3.3,.5-6.77,1.19-9.31-.03-.21,0-.49,.02-.83,.11-.08,.07-.35,.19-.58,.18,.05,.26,.1,.31-.03,.05-.11,.09-.35,.02-.4l.08-.18s.07-.17,.05-.07l-.02,.31c0,.21,0,.44,.03,.64,0,.09,.03,.17,.05,.25,.02,.09,.06,.18,.11,.28l.07,.15,.12,.21c.1,.19,.28,.54,.34,.79,.83,1.04,.51,.81,1.51,1.79,.1,.14,.81,.67,1.6,1.01,.78,.35,1.59,.59,1.76,.66l-.21-.05c1.42,.54,2.36,.93,3.81,1.18l1.56,.18c.51,.04,.99,.04,1.49,.06,.96,.06,1.93,.13,2.88,.25,1.9,.24,3.74,.65,5.36,1.21,.07-.11-.72-.21-.72-.37,1.95,.59,3.77,1.55,5.46,2.62,.29,.22,.63,.5,.73,.64,.48,.41,.34,.17,.7,.46l-.02,.13c.57,.36,.69,.71,1.17,1.11,.05,0,.22,.15,.38,.3-.07,.09,.49,.48,.38,.54h.01c.09,.1,.16,.17,.25,.3,.1,.08,.61,.5,1.07,1,.47,.48,.9,1.02,.99,1.12l.04,.12c.18,.32,.34,.41,.25,.21l.21,.4-.03-.04,.2,.41c.03,.08,.02,.19-.08,.1,.15,.21,.3,.46,.38,.71-.22-.68-.54-1.52-.83-2.23,.2,.24,.42,.76,.58,1.06,.12,.39,.42,1.16,.6,1.78,.06,.13,.22,.17,.28,.49-.03,.18,.13,.34,.16,.61-.15-.27-.23-.56-.34-.85-.08,.09,.2,.73,.25,.97,.07,.1,.23,.68,.36,1.03-.15-.13,.02,.31,.03,.54,.06,.25,.14,.4,.15,.29,.14,.05-.21-1,0-.69-.03,.11,.13,.58,.2,.84,.06-.01,0-.19,.1-.04,.07,.29,.21,.59,.19,.77-.03-.05-.05-.17-.07-.26,.11,.37-.93-1.94-.77-1.46,.04-.16,.93,2.05,.86,1.8-.03-.24,.15,.14,.11-.1l-.14-.25c-.05-.34,.01-.5,.08-.39,.14,.55-.83-1.45-.64-.99l-.03-.2c.1,.18,.28,.7,.27,.92,.06-.01,.15,.25,.23,.47v.08c.09,.22,.16,.55,.2,.38-.34-1.37,.82,.77,.54-.58,0,.6-.17-.16-.35-.74,.03-.07,.02-.35-.07-.78-.12-.36-.11-.2-.17-.26-.03-.21-.14-.6-.05-.57-.17-.25-.11-.46-.25-.79-.15-.28-.03,.03-.15-.16-.15-.44-.41-1.05-.55-1.39,0-.16-.09-.61,.15-.36,.29,.66-.26-.18,.07,.49,0-.36,.31,.58,.46,.67-.03-.25-.22-.69-.41-1.05l.02,.08c-.17-.32-.52-.94-.64-1.31,.09,.05,.04-.11,.18,.11l-.24-.44s-.09-.09-.03,.04c-.15-.18-.26-.39-.32-.56,.01-.04-.39-.57-.82-1.04-.42-.48-.89-.9-.85-.88-.23-.26-.23-.39-.5-.61-.04,0,.58,.59,1.11,1.18,.53,.6,.97,1.2,.84,1-.06-.14-.67-.96-1.39-1.66-.68-.73-1.46-1.33-1.5-1.45-.19-.18-.45-.36-.44-.29-.32-.3,.17,0-.03-.24-.01,0,0,.04-.07-.03l-.19-.25c-.58-.37-1.34-1.07-2.02-1.34,.21,.06,.48,.08,.89,.31l.05,.07c.06,.02,.39,.23,.41,.18-.34-.29-.65-.52-1.09-.71l-.19-.18s0,.02,0,.02c-.11-.11-.09-.11-.04-.1,0,0,.02,0,.03,0-.15-.31-1.57-.81-2.27-1.21-.23-.08-.03,.02-.32-.08-.73-.4-1.25-.67-2.06-.99-.29-.02-.32,0-.02,.18l-.61-.23c.63,0-1.12-.54-.43-.53-.17-.1-.55-.21-.92-.28-.05,.04-.12,.09-.58-.01l-.98-.34c-.11-.09,.09-.07,.07-.12-.83-.08-.69-.27-1.46-.4-.49-.05-1.45-.19-1.49-.07-.66-.07-.65-.15-.57-.24Z"/></g><path class="b" d="M104.62,87.54l-.14-.17c.48,.52,.96,1.1,1.39,1.69-.77-1.42-1.97-3-3.29-3.37,.12-.33-.99-1.46-1.08-1.4l-.87-.48,.59,.35-.59-.35c-1.84-1.04-3.75-2.23-5.8-3.31-1.14-.61-4.28-2.02-5.4-2.64l-.49-.26,.54,.31c-.74-.24-1.42-.47-2.05-.73,.09,.09,.09,.14,.31,.33l-.3-.18c-.34-.02-.99-.36-1.32-.48,.1-.03-.14-.16-.34-.29l.06,.09c-.78-.46-1.69-.97-2.34-1.44-.09-.06-.14-.13-.17-.18-.22-.13-.43-.27-.65-.41,.1-.03-.44-.46-.13-.28-.52-.27-.91-.7-1.38-.99-1.42-1.33-2.67-2.98-3.52-4.83v.06c-.31-.64-.67-1.21-.75-2.09-.24-.6-.31-1.5-.5-1.76,.01-.75-.06-1.06,.05-1.8-.14,.16,.05-.73-.1-.4-.24,.47-.16,.52-.32,.93h.03c-.46,1.98-.2,4.11,.54,6.02,.6,1.23,1.3,2.54,2.23,3.61,.99,1.15,2.25,2.17,3.32,2.86,.26,.16,.39,.35,.57,.53,.98,.63,2.23,1.41,3.4,1.95l-.05-.03c.62,.3,1.03,.61,1.64,.89,0-.03,.1,.02,.15,.02,.05,.19,3.67,1.35,3.85,1.5l.2,.07c1.25,.61,2.44,1.42,3.49,1.92,.25,.06,.53,.15,.75,.18,.16,.14,.24,.07,.45,.2,.43,.52,.79,.62,.56,.38,.47,.23,.9,.52,1.29,.76l.57,.3c.16,.09,.22,.18,.26,.28,.4,.24,.25,.21,.63,.52,.03,.15,1.06,.64,1.14,.76l-.07-.04c.42,.38,.6,.75,.99,1.14,1.07,1.08,2.23,2.29,3.06,3.44,.08-.05-.2-.24-.12-.33,.5,.68,.9,1.43,1.33,2.15,.06,.14,.12,.32,.13,.4,.11,.25,.13,.11,.21,.28l-.06,.07c.2,.21,.13,.41,.29,.62,.04,0,.09,.08,.13,.16-.07,.05,.15,.26,.07,.28h0c.03,.05,.05,.08,.07,.15,.08,.08,.76,.88,.84,.98v.05c.08,.14,.16,.17,.14,.08l.08,.18v-.02l.06,.17s-.01,.09-.07,.05c.08,.08,.13,.19,.16,.3-.06-.3-.15-.66-.2-.99,.08,.1,.14,.34,.21,.46,.02,.17,.11,.51,.17,.77,.03,.05,.13,.05,.14,.19-.04,.09,.06,.14,.06,.26-.08-.1-.11-.22-.16-.34-.07,.05,.07,.31,.08,.41,.05,.03,.1,.28,.18,.41-.1-.04,0,.14-.01,.24,.03,.1,.08,.15,.09,.1,.09,0-.09-.41,.04-.3-.03,.05,.06,.24,.1,.34,.04-.01,0-.08,.07-.03,.03,.12,.13,.23,.11,.31-.02-.02-.03-.07-.04-.1,.05,.15-.58-.72-.48-.53,.02-.07,.57,.77,.53,.67-.01-.1,.1,.04,.08-.06l-.09-.09c-.03-.14,.03-.22,.07-.18,.07,.22-.52-.52-.41-.34v-.08c.05,.07,.15,.27,.13,.37,.04-.01,.1,.09,.14,.17v.03c.06,.08,.09,.22,.13,.14-.2-.54,.57,.21,.4-.33-.02,.26-.12-.04-.22-.27,.02-.03,.03-.15,0-.33-.06-.14-.07-.07-.1-.09,0-.09-.05-.25,.01-.25-.1-.09-.04-.19-.11-.32-.08-.11-.02,.02-.08-.05l-.21-.58c.03-.07,.03-.27,.16-.19,.1,.27-.16-.05-.03,.22,.06-.17,.13,.24,.23,.25,.01-.11-.06-.29-.14-.44v.04c-.07-.13-.22-.38-.23-.55,.05,.02,.05-.06,.1,.04l-.08-.19s-.04-.04-.03,.02c-.07-.07-.09-.17-.1-.24,.04-.05-.63-.87-.6-.85-.07-.13-.03-.19-.13-.29-.04,0,.76,1.16,.66,1,0-.14-.93-1.36-.92-1.46-.06-.09-.13-.2-.15-.15-.07-.17,.1,0,.07-.13,0,0-.01,.02-.03-.02v-.13c-.21-.21-.35-.6-.59-.81,.08,.05,.21,.09,.34,.22v.04s.12,.14,.15,.11c-.07-.17-.16-.29-.3-.43l-.03-.11h-.01c-.01-.06,0-.05,.02-.04,0,0,0,0,.02,0,.05-.17-.45-.56-.59-.86-.07-.07-.02,0-.11-.08-.15-.31-.25-.52-.44-.82-.11-.06-.13-.05-.1,.09l-.15-.22c.26,.11-.19-.48,.08-.36-.02-.08-.11-.22-.23-.32-.04,.01-.1,.03-.22-.12l-.21-.37c0-.07,.07-.02,.09-.05-.26-.22-.11-.3-.32-.53-.14-.14-.41-.43-.48-.38-.18-.2-.13-.24-.07-.27Z"/></svg>