<?xml version="1.0" encoding="UTF-8"?><svg id="a" xmlns="http://www.w3.org/2000/svg" viewBox="0 0 276.77 280.34"><defs><style>.b{fill:#005bea;}.c{fill:#65dff6;}.d{fill:#0b1f65;}</style></defs><g><path class="b" d="M147.31,123.23c-1.55-3.77-2.02-7.91-2.11-11.98-.03-1.4-.02-2.82,.39-4.16,.45-1.48,1.36-2.78,2.45-3.87,3.29-3.29,8.34-4.7,12.86-3.58,1.83,.46,3.6,1.32,4.89,2.69,1.03,1.09,1.72,2.45,2.26,3.84,2.33,6.02,1.78,13.33-2.31,18.32-2.01,2.44-4.7,4.21-7.35,5.93-3.1,2.02-4.26,1.66-6.95-.94-1.81-1.75-3.18-3.93-4.13-6.24Z"/><path class="b" d="M148.44,104.81l.23-.24c-.71,.79-1.35,1.68-1.75,2.63,.6-.98,1.48-1.86,2.35-2.69,.87-.83,1.71-1.58,2.3-2.48,.22,.18,.87,.05,1.47-.08,.6-.12,1.16-.27,1.17-.33,.42-.23,.88-.43,1.36-.58-.33,.09-.65,.22-.96,.35,.31-.13,.63-.26,.96-.35,1.5-.5,3.23-.54,4.88-.14,1.65,.4,3.22,1.27,4.23,2.5,.58,.65,1.47,2.16,2,4.01,.58,1.79,.78,3.68,.77,4.7v.89c.01-.5,.03-.5,.03-.99,.24,1.23,.35,2.39,.33,3.5,.09-.19,.17-.21,.31-.68l-.1,.57c.18,.55-.04,1.75-.09,2.33-.08-.14-.21,.29-.34,.66l.12-.13c-.43,1.44-1.06,3.08-1.81,4.19-.1,.16-.21,.25-.29,.3-.21,.37-.46,.72-.69,1.08-.05-.17-.8,.71-.47,.19-.49,.84-1.29,1.44-1.88,2.18-1.28,1.09-2.74,2.11-4.22,3.15-1.48,1.03-2.87,2.11-4.25,1.44l.04,.09c-1.02-.41-2.09-1.02-3.07-2.16-.91-.64-1.91-1.86-2.41-2.07-.72-1.08-1.11-1.46-1.72-2.6-.02,.37-.67-1.07-.54-.45,.13,.89,.33,.85,.5,1.6l.04-.04c.67,1.6,1.57,3.13,2.71,4.51,.59,.7,1.18,1.31,1.85,1.92,.69,.59,1.48,1.3,2.78,1.62,.86,.16,1.79,.02,2.48-.23,.71-.25,1.3-.58,1.86-.9,1.08-.67,2.02-1.27,3-1.97,2.07-1.47,4.25-3.43,5.49-5.39,.3-.46,.62-.72,.94-1.08,1.1-1.83,2.1-4.38,2.38-6.73l-.02,.11c.16-1.24,.42-2.16,.4-3.39-.05,0-.04-.18-.07-.28,.1-.1-.02-1.92-.48-3.68-.42-1.77-1.19-3.43-1.21-3.65l-.16-.35c-.42-1.19-.9-2.45-1.66-3.59-.76-1.15-1.81-2.08-2.85-2.63-.5-.17-1.05-.32-1.48-.37-.34-.23-.48-.1-.93-.27-1.06-.77-1.85-.68-1.24-.42-1-.16-2-.3-2.89-.28-.41,.02-.82,.08-1.23,.14-.35,.06-.54,.03-.73-.05-.89,.19-.64,.04-1.58,.19-.13-.05-.7,.15-1.25,.41-.55,.25-1.07,.56-1.2,.59l.13-.08c-1.01,.41-1.79,.5-2.72,1.08-1.29,.81-2.5,1.88-3.46,3.17-.97,1.27-1.66,2.86-1.9,4.33,.14,.06,.09-.65,.3-.64-.43,1.7-.54,3.34-.52,4.87-.03,.28-.09,.63-.14,.76-.03,.5,.09,.29,.09,.66l-.14,.06c.15,.53-.1,.79,0,1.3,.06,.02,.08,.21,.09,.39-.15,.02,.07,.55-.07,.54h.01c0,.11,.03,.19,.02,.33,.06,.21,.76,2.08,.87,2.27v.1c.06,.29,.19,.39,.18,.21l.06,.35-.02-.04,.07,.35c0,.07-.05,.16-.14,.07,.1,.19,.17,.4,.19,.61-.05-.57-.06-1.28-.02-1.88,.09,.23,.1,.66,.17,.92-.03,.32,.03,.97,.09,1.47,.03,.11,.22,.13,.21,.39-.08,.15,.08,.27,.06,.49-.12-.21-.16-.45-.22-.68-.12,.08,.07,.6,.09,.79,.07,.07,.16,.54,.3,.81-.17-.08,0,.25,0,.44,.05,.2,.14,.3,.16,.21,.15,.01-.19-.78,.05-.57-.04,.09,.11,.45,.19,.65,.07-.02,0-.15,.12-.05,.07,.22,.24,.42,.22,.57-.04-.03-.06-.13-.08-.19,.09,.3-1.05-1.38-.87-1.03,.02-.11,1.03,1.48,.97,1.28-.03-.19,.18,.07,.13-.12l-.16-.16c-.07-.25,.02-.4,.1-.33,.14,.42-.92-.98-.72-.66l-.02-.16c.1,.13,.28,.52,.26,.7,.07-.02,.17,.17,.26,.32v.06c.11,.16,.19,.4,.24,.25-.4-.98,.97,.35,.64-.61,0,.45-.22-.07-.39-.48,.04-.06,.05-.27-.01-.59-.1-.26-.11-.13-.16-.17-.01-.16-.07-.44,.03-.43-.17-.17-.03-.35-.14-.58-.11-.2-.04,.03-.13-.11-.08-.33-.18-.79-.22-1.06,.06-.12,.13-.46,.31-.27,.09,.5-.25-.14-.1,.37,.13-.27,.17,.44,.33,.5,.04-.18-.04-.51-.13-.78v.06c-.09-.24-.24-.72-.19-1.01,.08,.05,.1-.08,.16,.1l-.05-.34s-.06-.08-.05,.02c-.08-.15-.08-.31-.06-.44,.05-.04-.57-1.76-.51-1.72-.03-.25,.07-.32-.03-.55-.08-.01,.55,2.32,.49,2,.02-.21-.73-2.74-.58-2.92-.02-.18-.05-.4-.12-.36,.01-.31,.14,.08,.19-.14-.01,0-.03,.02-.04-.05l.08-.22c-.15-.47-.04-1.19-.2-1.69,.08,.14,.23,.31,.31,.63l-.03,.06s.06,.31,.14,.3c.03-.31,0-.57-.08-.89,.02-.06,.03-.13,.05-.18,0,0-.02,0-.03,0,.04-.11,.05-.1,.08-.06,0,0,.01,.01,.02,.02,.2-.2-.17-1.21-.06-1.76-.03-.16-.04-.02-.07-.22,.1-.56,.18-.94,.3-1.5-.06-.19-.1-.21-.22,0l.1-.42c.16,.41,.38-.72,.53-.26,.08-.1,.15-.33,.18-.55-.05-.04-.14-.1-.04-.37,.22-.34,.16-.26,.37-.53,.1-.03,.08,.09,.14,.1,.14-.49,.35-.3,.57-.7,.13-.26,.48-.74,.38-.83,.26-.32,.34-.25,.4-.14Z"/></g><g><path class="b" d="M83.07,162.09c11.23-17.1,28.43-30.17,47.89-36.47,19-6.15,40.1-5.81,58.78,1.26,18.68,7.07,34.78,20.89,44.32,38.44,8.2,15.07,11.48,32.35,12.7,49.46,.12,1.74,.21,3.57-.49,5.17-1.15,2.6-4.04,3.89-6.72,4.82-5.85,2.03-11.91,3.44-18.06,4.21-11.18,1.38-22.5,.61-33.72-.36-16.75-1.44-33.47-3.31-50.13-5.59-12.2-1.67-24.56-3.57-36.76-1.94-5.45,.73-10.8,2.16-16.28,2.65-4.23,.38-11.01,.59-14.61-2.19-2.9-2.25-1.74-10.17-1.59-13.73,.44-10.31,2.66-20.55,6.52-30.12,2.2-5.45,4.92-10.69,8.15-15.6Z"/><path class="b" d="M176.74,124.53l1.92,.42c-6.19-1.39-12.84-2.32-19.44-2.37,7.17,.25,14.91,1.48,22,3.44,7.11,1.94,13.55,4.58,18.64,6.83,.2,.27,1.09,.91,2.32,1.72,.61,.43,1.29,.9,2.01,1.4,.72,.49,1.48,1.01,2.21,1.56,.74,.54,1.46,1.07,2.14,1.57,.67,.52,1.28,1,1.82,1.42,1.08,.81,1.77,1.42,1.85,1.43,1.14,.87,2.28,1.76,3.37,2.72,1.12,.93,2.19,1.93,3.26,2.95-.74-.69-1.45-1.41-2.21-2.07-.76-.66-1.52-1.31-2.28-1.97,.76,.65,1.52,1.31,2.28,1.97,.76,.66,1.47,1.38,2.21,2.07,6.73,6.44,12.53,14.46,16.67,23.6,4.15,9.15,6.73,19.28,8.18,29.72,.41,2.9,.92,7.05,1.28,11.87,.14,2.41,.56,5.07-.34,6.68-.85,1.7-3.17,2.84-5.65,3.66-5.11,1.75-10.41,2.98-15.15,3.67-4.75,.69-8.95,.89-11.93,.93-1.73,.04-3.45,.02-5.2-.01,2.9,.06,2.9,.07,5.79,.04-7.27,.37-13.92,.09-20.37-.31,1.13,.16,1.32,.26,4.01,.55l-3.28-.29c-3.01,0-9.93-.63-13.19-.85,.71-.05-1.85-.31-4.11-.55l.89,.16c-8.57-.88-18.51-1.9-26.15-2.87-1.06-.13-1.86-.28-2.33-.38l-7.33-.87c.58-.07-6.05-.96-2.54-.58-5.5-.57-11.06-1.48-16.36-1.79-4.72-.43-9.56-.67-14.45-.45-2.44,.09-4.9,.36-7.34,.71-2.44,.37-4.85,.86-7.25,1.33-4.78,.96-9.61,1.72-14.42,1.53-2.38-.12-4.79-.45-6.81-1.5-.26-.12-.49-.27-.72-.43-.26-.15-.42-.32-.59-.48-.18-.16-.3-.4-.45-.6-.11-.25-.25-.47-.33-.74-.38-1.04-.55-2.22-.63-3.4-.02,.16-.02,.31-.03,.47-.29-3.31,.08-6.54,.13-9.93,.12-3.38,.45-6.94,1.24-11,.42-2.92,1.15-6.43,1.96-9.47,.79-3.04,1.63-5.61,1.89-6.77,1.21-3.21,2.15-5.42,3.14-7.59,1-2.17,2.04-4.3,3.75-7.21-.52,.71,.28-.73,1.02-1.97,.75-1.24,1.39-2.28,.44-.94-2.61,3.67-2.55,4-4.53,7.27l.1-.08c-4.28,7.82-7.36,16.31-9.18,25.1-.89,4.4-1.5,8.87-1.73,13.37-.11,2.15-.37,4.38-.42,6.7-.02,1.16,0,2.33,.13,3.55,.14,1.21,.37,2.48,1.08,3.79,.29,.43,.55,.87,1,1.25l.31,.29,.28,.2,.56,.38c.77,.44,1.57,.82,2.37,1.07,1.61,.54,3.24,.81,4.86,.94,3.24,.25,6.43,.06,9.63-.33,6.38-.82,12.43-2.49,18.46-2.85,6.51-.51,13.37-.08,19.98,.62,6.61,.72,13.03,1.64,18.71,2.29,2.71,.31,4.65,.69,6.95,1.05,10.45,1.23,23.77,2.71,35.6,3.65l-.58-.06c6.28,.52,10.99,1.08,17.19,1.29-.03-.05,.93-.02,1.4-.03,.52,.09,9.71,.41,18.94-1.06,4.61-.71,9.17-1.85,12.66-2.94,1.75-.54,3.23-1.05,4.36-1.46,1.13-.42,1.89-.77,2.16-.88,.61-.3,1.23-.66,1.84-1.08,1.47-.96,2.81-2.55,3.25-4.43,.45-1.84,.27-3.59,.18-5.2-.18-3.27-.46-6.53-.8-9.72-.69-6.38-1.78-12.51-3.23-17.97-.36-1.17-.77-2.41-1.16-3.6-.43-1.18-.83-2.32-1.21-3.28-.59-1.91-.83-2.23-1.7-4.47-.9-2.92-1.88-5.15-2.44-6.29-.55-1.14-.67-1.2-.06,.26-2.19-4.52-4.78-8.89-7.39-12.51-.6-.85-1.23-1.66-1.89-2.46-.65-.8-1.28-1.63-1.98-2.4-1.18-1.32-1.75-2.14-2.3-2.85-1.56-1.65-2.11-2.23-2.68-2.83-.59-.58-1.12-1.26-2.87-2.88-.19-.22-.85-.82-1.75-1.61-.92-.76-2.1-1.69-3.29-2.62-1.23-.87-2.44-1.78-3.45-2.45-1.02-.67-1.79-1.18-2.06-1.38l.65,.42c-4.54-3.09-7.61-5.14-12.49-7.46-3.38-1.62-6.98-2.99-10.68-4.12-1.84-.6-3.72-1.05-5.6-1.54-1.89-.4-3.78-.84-5.69-1.12-1.9-.35-3.81-.54-5.69-.78-1.9-.15-3.77-.34-5.63-.38-1.86-.11-3.7-.07-5.5-.08l-2.68,.1c-.89,.02-1.76,.08-2.63,.16-.06,.09,.7,0,1.5-.05,.8-.04,1.64-.07,1.73,.03-8.17,.28-16.4,1.59-24.3,4.06-1.42,.45-3.18,.97-3.84,1.16-2.48,.92-1.43,.65-3.24,1.34l-.3-.03c-2.55,1.25-3.86,1.53-6.22,2.8-.1,.12-.98,.54-1.8,1.01-.11-.11-2.55,1.42-2.5,1.24l-.02,.02c-.5,.29-.84,.51-1.45,.85l-1.86,1.24c-.91,.66-2.05,1.49-3.19,2.32-1.1,.88-2.21,1.75-3.09,2.45-.85,.74-1.48,1.29-1.69,1.47l-.42,.3c-1.2,.94-1.59,1.47-.91,.91l-1.42,1.22,.16-.15-1.41,1.21c-.27,.21-.6,.43-.25,.02-.74,.76-1.58,1.59-2.37,2.29,1.11-.96,2.31-2.08,3.63-3.1,.65-.51,1.3-1.03,1.94-1.54,.66-.48,1.31-.95,1.93-1.4-.48,.41-1.17,.95-1.88,1.5-.69,.57-1.38,1.15-1.89,1.6-.32,.25-.73,.57-1.18,.93-.44,.39-.93,.82-1.44,1.26-.51,.46-1.04,.93-1.57,1.4-.51,.49-1.01,.98-1.48,1.43-.39,.42-.57,.8-1.49,1.71-.51,.39-.98,1.09-1.76,1.84,.79-.96,1.6-1.87,2.48-2.76-.28,.03-2.13,2.21-2.83,2.91-.29,.36-1.86,2.23-2.8,3.43,.3-.61-.81,.93-1.41,1.62-.63,.81-.99,1.37-.7,1.07-.09,.35,2.54-3.22,1.79-1.99-.28,.26-1.49,1.87-2.11,2.76,.06,.06,.47-.58,.13,.05-.7,.98-1.35,2.09-1.8,2.61,.11-.2,.4-.6,.61-.89-.43,.65,.62-1.2,1.77-2.93,1.14-1.74,2.31-3.39,1.69-2.58,.18-.2-1.08,1.67-2.3,3.47-1.15,1.85-2.26,3.64-1.96,3.21,.57-.77-.27,.64,.31-.16l.54-.96c.79-1.1,1.21-1.48,.99-1.05-.63,.94,.12-.5,1.03-1.87,.9-1.39,1.83-2.81,1.28-2.01,.17-.2,.34-.4,.52-.6-.48,.67-1.75,2.46-2.33,3.09,.05,.04-.56,.97-1.06,1.74l-.2,.26c-.51,.8-1.27,1.88-.84,1.43,3.13-4.57-1.42,3.42,1.65-.96-1.39,1.76,.24-.75,1.65-2.64,.19-.14,.87-.94,1.94-2.24,.92-1.14,.5-.7,.64-.94,.55-.6,1.56-1.78,1.49-1.56,.67-.93,1.26-1.31,2.14-2.35,.77-.93-.09,.03,.45-.64,1.27-1.29,3.03-3.1,4.12-4.04,.46-.32,1.79-1.37,.98-.43-2,1.86,.62-.87-1.44,1.1,.51-.35,.06,.09-.55,.67-.6,.6-1.33,1.37-1.46,1.6,.35-.29,.84-.77,1.38-1.31,.55-.53,1.16-1.1,1.72-1.63l-.24,.19c.94-.97,2.97-2.76,4.14-3.63-.22,.28,.3-.1-.44,.56,.46-.41,.95-.8,1.44-1.17,.17-.16,.35-.33-.08,0,.65-.58,1.36-1.11,1.91-1.5,.09-.05,2.03-1.57,3.96-3.02,.98-.7,1.95-1.39,2.66-1.89,.73-.47,1.19-.77,1.13-.72,1.15-.69,1.46-.8,2.57-1.5,.02-.03-.66,.35-1.64,.99-.99,.62-2.3,1.44-3.52,2.32-.61,.43-1.22,.85-1.76,1.24-.53,.41-1.01,.77-1.39,1.07-.76,.59-1.14,.88-.78,.61,.24-.15,1.11-.81,2.3-1.7,1.23-.83,2.74-1.97,4.34-2.95,3.14-2.07,6.44-3.79,6.85-3.91,.89-.45,1.95-1,1.71-.96,1.54-.66-.4,.33,.72-.1,.02-.02-.1,0,.24-.15l1.08-.39c2.31-1.21,5.95-2.4,8.48-3.41-.72,.33-1.53,.76-3.15,1.4l-.3,.08c-.22,.11-1.55,.67-1.49,.72,1.55-.59,2.89-1.06,4.52-1.7,.31-.09,.67-.2,.92-.25,0,0-.04,0-.03-.02,.56-.12,.5-.1,.31-.01l-.11,.05c.53-.04,2.07-.57,3.87-1.11,.9-.25,1.87-.52,2.79-.78,.93-.23,1.82-.41,2.57-.54,.87-.21,.07-.05,1.16-.32,1.53-.23,2.83-.41,4.14-.58,1.32-.12,2.65-.3,4.26-.41,1.02-.18,1.1-.22-.15-.21l2.44-.17c-1.1,.22,.04,.15,1.15,.16,1.11,.01,2.19,.02,.98,.19,.71,.03,2.17-.05,3.53-.06,.14-.06,.35-.16,2.07-.16,2.39,.15,1.82,.12,3.79,.27,.46,.1-.26,.1-.18,.17,1.52,.04,2.18,.16,2.81,.26,.64,.1,1.25,.21,2.67,.39,1.79,.15,5.28,.77,5.39,.64,2.38,.47,2.35,.6,2.09,.65Z"/></g><path class="d" d="M163.74,195.19h.44c-1.41,.06-2.9,.06-4.37,.06,3.23,.35,6.94,.6,9.36-.35,.26,.52,3.3,.85,3.37,.73,.64-.07,1.29-.12,1.94-.16-.44,.02-.89,.05-1.34,.07,.45-.02,.9-.05,1.34-.07,2.07-.11,4.25-.02,6.5,.09,2.23,.13,4.54,.26,6.91,.39,2.61,.15,9.68,.24,12.33,.38l1.16,.05q-.64-.05-1.29-.09c1.62-.15,3.08-.28,4.5-.37-.25-.08-.29-.15-.89-.26l.72,.05c.66-.22,2.18-.19,2.9-.28-.16,.11,.41,.14,.91,.17l-.2-.08c1.89,.07,4.08,.02,5.77,.07,.24,0,.41,.05,.52,.1l1.62-.05c-.13,.15,1.34,.17,.56,.25,1.22-.15,2.44,0,3.6-.15,4.13,.11,8.54,.15,12.82,0l-.1-.06c1.5-.07,2.83-.33,4.64-.2,1.3-.18,3.15-.26,3.67-.57,1.5-.02,2.1-.18,3.57-.25-.38-.16,1.43-.18,.71-.31-.97-.23-1.03-.04-1.85-.23l.02,.05c-3.85-.28-7.71-.5-11.61-.68-2.61,.06-5.43-.14-8.15-.19-2.92-.04-6.09-.04-8.61,.03-.6,.03-1.03-.11-1.54-.2-2.31,.02-5.26-.09-7.87-.02h.13c-1.39,.02-2.42-.14-3.78-.12,0,.05-.2,.05-.3,.07-.24-.22-7.95,.46-8.42,.34l-.43,.02c-2.85-.1-5.78-.53-8.21-.55-.53,.09-1.13,.16-1.57,.26-.43-.1-.52,.07-1.03,.03-1.3-.47-2.07-.33-1.4-.15-1.09,.01-2.16-.08-3.13-.12-.45,0-.9,.02-1.35,.02-.39,.01-.6-.06-.79-.17-.99,.01-.69-.08-1.73-.17-.24-.16-2.61,.13-2.9,.09l.17-.02c-1.2-.06-2-.36-3.18-.37-3.31-.09-6.82,.2-9.82,.25-.02,.16,.66-.06,.7,.15-1.77,.04-3.55-.09-5.32-.08-.32-.03-.71-.1-.86-.15-.57-.05-.33,.08-.75,.07l-.06-.14c-.6,.13-.88-.15-1.45-.08-.03,.06-.24,.07-.44,.06-.01-.15-.62,.01-.59-.13h0c-.12,0-.21,.02-.36,0-.24,.05-2.36,.44-2.63,.49l-.11-.03c-.32,0-.46,.1-.28,.13l-.4-.02h.05l-.4-.03c-.07-.02-.15-.09-.04-.15-.23,.05-.48,.06-.7,.02,.62,.13,1.39,.27,2.04,.44-.27,.04-.75-.05-1.05-.04-.35-.11-1.06-.22-1.61-.32-.12,0-.22,.16-.49,.08-.13-.12-.31-.02-.54-.11,.27-.04,.52,0,.79,.02-.04-.13-.65-.13-.85-.18-.1,.04-.61-.04-.94-.03,.15-.12-.25-.1-.44-.19-.22-.03-.36,0-.27,.06-.08,.13,.86,.16,.54,.28-.07-.08-.5-.09-.73-.1,0,.08,.15,.07,0,.13-.25-.04-.53,.03-.67-.06,.05-.02,.15,0,.23,.01-.33-.04,1.84-.35,1.41-.34,.11,.08-1.93,.29-1.71,.32,.2,.06-.16,.13,.05,.17l.24-.07c.29,.05,.39,.2,.29,.24-.48-.05,1.41-.41,.99-.37l.16,.05c-.18,.04-.65,.04-.82-.05,0,.08-.24,.08-.44,.09l-.07-.02c-.21,.02-.49-.02-.36,.09,1.19,.09-.86,.7,.29,.85-.47-.21,.18-.16,.69-.13,.04,.06,.26,.17,.63,.24,.32,0,.19-.05,.26-.09,.17,.05,.51,.1,.46,.19,.25-.09,.39,.09,.69,.08,.27-.03-.02-.05,.17-.09,.39,.03,.94,.08,1.26,.11,.12,.09,.48,.25,.21,.37-.6-.05,.24-.2-.39-.2,.26,.2-.55,.03-.67,.16,.19,.1,.6,.12,.94,.11l-.07-.03c.3,0,.89-.03,1.21,.08-.08,.06,.06,.12-.16,.13l.41,.03c.05-.02,.11-.04-.01-.06,.19-.05,.39-.01,.53,.03,.04,.07,2.18-.26,2.11-.23,.29,0,.37,.11,.65,.03,.03-.05-2.82,.22-2.43,.2,.25,.09,3.35-.32,3.53-.2,.22,0,.48-.02,.43-.09,.37,.03-.11,.14,.15,.2,0-.01-.02-.04,.06-.03l.25,.09c.57-.12,1.41,.01,2.01-.15-.17,.08-.37,.22-.75,.3l-.07-.04c-.05,.02-.37,.05-.36,.12,.37,.04,.68,.02,1.07-.06l.21,.05s0-.02,0-.03c.13,.04,.11,.05,.07,.08,0,0-.01,.01-.03,.02,.24,.2,1.44-.17,2.11-.08,.2-.04,.02-.04,.26-.08,.69,.06,1.16,.11,1.88,.13,.23-.1,.24-.14-.04-.22h.54c-.48,.27,1.02,.2,.48,.46,.16,.05,.48,.05,.79,0,.03-.06,.07-.16,.45-.17,.53,.06,.41,.04,.85,.1,.11,.07-.05,.11-.03,.17,.67-.13,.6,.15,1.23,.11,.4-.04,1.18-.07,1.2-.21,.54-.01,.54,.09,.49,.2Z"/><g><path class="d" d="M57.35,212.49c2.85-1.74,6.37-1.85,9.71-1.91l81.51-1.4c24.28-.42,48.56,.17,72.84,.18,7.01,0,14.03,.04,20.99,.83,4.52,.51,10.22-.57,13.79,2.26s4.61,9.06,2.49,13.09c-2.46,4.69-8.74,5.48-14.03,5.67-59.88,2.11-119.84,2.84-179.7,.18-2.48-.11-5.07-1.26-7.19-2.53-5.15-3.09-5.62-13.17-.4-16.37Z"/><path class="d" d="M155.05,210.47h1.81c-5.85,.05-12,.12-18.07,.18,6.61,.12,13.8,.2,20.61,.2,6.81,0,13.25-.13,18.36-.6,1.1,.53,13.91,.88,14.17,.75,2.67-.06,5.36-.11,8.08-.17-1.87,.03-3.74,.05-5.59,.08,1.85-.03,3.72-.05,5.59-.08,8.6-.12,17.62-.16,26.84-.1,4.6,.06,9.26,.23,13.91,.72l1.77,.2c.63,.07,1.26,.11,1.87,.14,1.2,.03,2.4,.07,3.6,.1,2.32,.07,4.62,.28,6.33,1.23,.49,.24,.93,.61,1.4,1.05,.44,.47,.87,1.05,1.25,1.73,.71,1.38,1.21,3.18,1.14,5.1-.05,1.91-.64,3.88-2,5.23-1.35,1.39-3.46,2.23-5.72,2.67-2.29,.45-4.67,.54-7.11,.6-2.43,.06-4.8,.13-7.02,.19-4.44,.1-8.32,.18-11.08,.24-1.59,.03-3.18,.06-4.79,.09l5.33-.06c-6.7,.34-12.77,.65-18.65,.88,1.04,.05,1.22,.12,3.68,.17l-3,.02c-2.73,.28-9.04,.43-12,.57,.63-.13-1.7-.11-3.76-.08l.82,.06c-7.82,.11-16.9,.33-23.89,.38-.97,.01-1.71-.02-2.15-.06l-6.7,.13c.51-.16-5.56-.1-2.36-.22-5.02,.22-10.1,.1-14.89,.29-17.09,0-35.28-.14-52.95-.4l.43,.07c-6.19-.09-11.65,.06-19.16-.36-1.35-.01-2.83-.02-4.33-.04-.75-.01-1.51,0-2.26-.04-.74-.04-1.47-.17-2.16-.34-1.39-.35-2.62-.87-3.63-1.33-1.01-.45-1.78-.93-2.27-1.24-1.23-1.08-1.93-2.32-2.4-3.46-.28-.56-.4-1.15-.58-1.69-.1-.56-.27-1.11-.3-1.67-.17-1.11-.11-2.24,.03-3.47,.21-1.22,.58-2.58,1.48-3.96-.53,.68,.22-.77,1.34-1.75l.8-.63c.22-.15,.39-.27,.5-.35,.21-.15,.11-.13-.54,.24-.47,.33-.94,.58-1.27,.91-.32,.32-.64,.59-.86,.89-.21,.3-.41,.57-.58,.82-.17,.26-.28,.52-.41,.76-.49,1-.85,1.96-1.17,3.81l.07-.1c-.28,2.17-.07,4.39,.73,6.47l.31,.78,.4,.75c.24,.51,.63,.95,.96,1.42,.4,.42,.78,.88,1.25,1.23l.72,.53c.24,.16,.45,.28,.68,.42,1.82,1.05,3.79,1.94,6.03,2.32,1.19,.18,2.14,.16,3.14,.23l3,.15c4.01,.21,8.02,.39,12.05,.55,4.03,.17,8.06,.31,12.11,.44,10.81,.16,22.54,.49,33.78,.53,12.1,.05,25.19-.05,35.57-.27,2.48-.06,4.26,.05,6.38,.11,9.54-.15,21.69-.32,32.45-.64-.2,0-.4,0-.53,0,5.72-.16,10-.09,15.59-.28-.03-.04,.84-.07,1.26-.11,.49,.1,8.7-.25,17.04-.64,2.08-.1,4.18-.2,6.16-.3,1.97-.1,3.85-.16,5.54-.32,3.36-.29,5.76-1.07,6.26-1.24,.58-.21,1.17-.47,1.76-.78,1.42-.71,2.77-1.75,3.75-3.12,.97-1.38,1.51-2.99,1.75-4.59,.41-3.2-.23-6.54-2.16-9.24-.94-1.35-2.37-2.44-3.88-3.05-1.51-.64-3.03-.87-4.47-1-2.89-.25-5.53-.08-7.88-.36-2.23-.15-4.73-.25-6.59-.24-1.8-.18-2.15-.02-4.32-.12-5.49-.56-8.71-.34-5.88-.19-4.52,.04-9.02,0-13.02,0-1.85,.02-3.7,.04-5.57,.07-1.59,.02-2.47-.05-3.27-.15-4.07,.03-2.87-.07-7.13-.15-1.03-.16-10.7,.14-11.9,.09l.7-.02c-4.93-.06-8.21-.37-13.03-.4-6.7-.07-13.71-.06-20.6,.05-6.88,.11-13.64,.23-19.84,.33-.12,.16,2.73-.08,2.88,.12-7.31,.04-14.7,.09-22.08,.13-1.33-.02-2.96-.07-3.57-.11-2.36-.02-1.39,.1-3.12,.11l-.24-.14c-2.52,.16-3.69-.09-6.07,0-.12,.06-.99,.08-1.84,.09-.05-.15-2.6,.06-2.48-.08h-.02c-.51,.02-.87,.03-1.49,.02-.97,.06-10.01,.65-11,.71l-.46-.02c-1.36,.03-1.93,.15-1.14,.16l-1.67,.02h-1.47c-.31,0-.65-.06-.18-.14-.94,.07-2,.11-2.94,.1,2.62,.05,5.88,.12,8.62,.22-1.12,.07-3.16,.03-4.38,.06-1.46-.07-4.46-.11-6.79-.13-.51,.02-.86,.19-2.03,.14-.57-.1-1.31,.03-2.28-.04,1.11-.08,2.2-.07,3.32-.08-.2-.13-2.74-.04-3.63-.07-.41,.05-2.6,.02-4.03,.17,.61-.17-1.15-.01-2.04,.07-.99,.14-1.62,.36-1.2,.31-.14,.1,.84-.1,1.68-.17,.84-.09,1.54-.11,.88,.02-.35-.05-2.26,.22-3.29,.53,0,.08,.71-.12,.07,.12-1.15,.28-2.27,.89-2.91,1.18,.18-.14,.64-.35,.96-.5-.72,.33,1.16-.77,3.14-1.22,1.96-.48,3.83-.62,2.88-.56,.26,.03-1.85,.2-3.9,.83-2.08,.58-3.84,1.9-3.38,1.61,.85-.44-.51,.46,.35,0,.3-.21,.61-.4,.93-.58,1.25-.5,1.81-.47,1.38-.3-1.03,.37,.37-.35,1.92-.74,1.54-.4,3.11-.57,2.21-.47l.74-.02c-.76,.07-2.81,.35-3.63,.48,.01,.07-1.03,.33-1.87,.68-.1,.03-.2,.07-.3,.1-.87,.37-2.01,1.06-1.43,.83,1.21-.68,1.68-.73,1.7-.68,.03,.07-.36,.32-.71,.6-.36,.28-.69,.6-.67,.67,.03,.09,.38-.12,1.53-.58-1.97,.73,.54-.62,2.72-.94,.22,.02,1.18-.07,2.72-.12,1.33-.08,.78-.1,1.03-.15,.74,0,2.14,.02,1.96,.11,1.03-.12,1.65,.04,2.88-.02,1.09-.07-.07-.04,.7-.11,1.63-.01,3.92-.03,5.23-.04,.5,.07,2.04,.2,.93,.34-2.48,.02,.94-.23-1.64-.15,1.11,.17-2.28,.09-2.75,.24,.82,.07,2.49,.04,3.88,0l-.28-.02c1.23-.05,3.68-.13,5.01-.05-.31,.07,.27,.11-.63,.14l1.69-.02c.21-.02,.43-.05-.05-.06,.8-.07,1.59-.05,2.21-.02,.19,.07,8.99-.45,8.71-.4,1.22-.02,1.51,.08,2.7-.01,.02,0-.15,0-.46,0-.31,0-.75,.02-1.28,.04-1.06,.04-2.47,.1-3.83,.15-2.72,.11-5.26,.22-4.46,.2,1.04,.06,13.79-.59,14.55-.47,.9-.02,1.99-.05,1.78-.12,1.53,0-.45,.14,.63,.19,.02-.01-.09-.03,.26-.04l1.04,.07c2.37-.15,5.84-.07,8.32-.26-.72,.09-1.53,.24-3.13,.34l-.28-.03c-.23,.03-1.54,.07-1.5,.14,1.52,.02,2.81-.01,4.41-.11l.87,.04s-.03-.02-.02-.03c.52,.04,.47,.04,.28,.07l-.11,.02c.95,.19,5.95-.23,8.72-.17,.81-.04,.08-.04,1.09-.09,2.83,.03,4.78,.06,7.74,.06,.94-.11,1.02-.14-.13-.22h2.23c-2.03,.27,4.17,.15,1.94,.43,.65,.04,1.99,.03,3.24-.03,.12-.06,.32-.16,1.89-.19,2.19,.04,1.66,.03,3.48,.07,.43,.07-.23,.11-.16,.18,2.8-.15,2.44,.13,5.08,.07,1.65-.05,4.91-.11,4.99-.24,2.22-.02,2.23,.08,2.01,.2Z"/></g><g><path class="c" d="M22.27,50.76c.74-2.36,3.2-4.38,5.59-3.72,2.84,.79,3.6,4.41,3.78,7.35,.53,8.36,.67,16.74,.44,25.11-.05,1.62-.09,3.31,.57,4.79s2.28,2.67,3.86,2.29c2.37-.57,2.74-3.75,2.63-6.19-.38-9.15-.61-18.8,.3-27.91,.27-2.74,2.05-5.54,4.8-5.5,3.31,.05,3.63,3.02,3.85,5.33,.61,6.39,.21,12.97-.2,19.37-1.12,13.65,3.23,14.01,4.09,13.98,2.46-.08,3.37-3.06,3.35-4.21-.12-5.78,.04-9.9,.05-11.31,.14-13.61-.1-7.64,.48-19.37,.13-2.59,2-5.32,5.91-4.14,2,.6,2.58,3.08,2.74,5.16,.92,11.49,1.19,23.04,.83,34.56-.11,3.57-.37,7.37-2.48,10.25-2.09,2.84-5.67,4.3-7.75,7.15-2.3,3.16-2.32,7.39-2.25,11.3l1.22,67.19c.07,3.87,.07,8.02-2.09,11.24-2,2.99-5.79,4.67-9.34,4.15s-6.7-3.22-7.76-6.66c-.54-1.77-.56-3.65-.58-5.51-.17-22.68-.34-45.39,1.16-68.03,.28-4.25,.57-8.78-1.48-12.52-2.73-5-9.06-7.51-11.02-12.85-.74-2.02-.76-4.22-.76-6.37l-.05-19.25c0-2.64,.09-5.28,.08-7.91s-.78-5.25,.02-7.78Z"/><path class="c" d="M46.97,63.26l-.1,2.06c.15-3.34,.22-6.74,.06-10.16-.04-.85-.1-1.71-.17-2.56-.07-.86-.15-1.68-.33-2.37-.37-1.45-1.03-1.96-2.41-1.94,1.53,0,2.08,.67,2.39,2.42,.13,.82,.18,1.82,.24,2.78,.05,.97,.08,1.94,.09,2.92,.05,3.91-.17,7.88-.42,11.77-.12,1.97-.23,3.91-.35,5.8-.03,1.96,0,3.89,.29,5.8,.31,1.89,.8,3.82,2.15,5.51,.68,.83,1.73,1.55,2.94,1.68,.29,.03,.63,.04,.89-.02,.28-.03,.55-.09,.81-.19,.52-.18,.99-.47,1.36-.81,.21-.08,.65-.37,1.1-.9,.44-.53,.88-1.28,1.16-2.22,.07-.24,.13-.49,.18-.78,.05-.26,.06-.7,.07-.85,.02-.43,.04-.89,.07-1.35,.04-.93,.07-1.9,.11-2.86,.13-3.86,.17-7.59,.12-7.75-.06-3.06-.12-6.15-.18-9.27,.03,2.15,.06,4.29,.09,6.41-.03-2.12-.06-4.26-.09-6.41,0-2.4,.11-4.92,.2-7.44,.03-.61,.04-1.32,.08-1.84,.03-.48,.15-.95,.33-1.37,.38-.85,1-1.38,1.84-1.54,.79-.14,2.15,.08,2.5,.5,.56,.48,.94,1.58,1.1,2.73,.05,.29,.08,.59,.1,.89l.08,.98,.15,1.96c.08,1.31,.17,2.62,.25,3.94,.3,5.28,.44,10.65,.42,16.07,0,2.71-.05,5.44-.13,8.18-.11,2.74-.1,5.53-.56,8.04-.25,1.39-.71,3.03-1.74,4.47-1,1.45-2.83,2.69-4.93,4.32-1.04,.83-2.16,1.81-3.07,3.11-.92,1.29-1.53,2.79-1.9,4.3-.73,3.03-.62,6.07-.59,8.92,.13,11.49,.26,23.03,.33,29.35,.02,1.83,.03,3.66,.05,5.51q0-3.07-.02-6.13c.27,7.71,.52,14.69,.76,21.45,.05-1.19,.12-1.4,.18-4.23v3.45c.29,3.14,.41,10.39,.57,13.8-.13-.74-.1,1.97-.08,4.31l.07-.93c.02,2.22,0,4.51-.49,6.65-.48,2.14-1.52,4.09-3.21,5.37-1.65,1.31-3.79,1.97-5.77,1.87-1.98-.09-3.82-.97-5.15-2.18-.75-.67-1.16-1.31-1.38-1.7-.64-.94-1.09-1.97-1.31-3.12-.24-1.14-.29-2.37-.32-3.64,.16,.6,.09-6.39,.21-2.71-.23-5.77-.15-11.61-.35-17.11-.03-9.82,0-19.95,.27-30.15,.13-5.1,.31-10.22,.57-15.33,.11-2.55,.33-5.1,.32-7.71-.02-2.59-.34-5.29-1.5-7.72,.06,.16,.1,.34,.16,.5-.73-1.73-1.9-3.15-3.14-4.38-1.25-1.24-2.61-2.31-3.94-3.46-1.33-1.14-2.66-2.38-3.71-3.94-.51-.78-.95-1.65-1.23-2.59-.28-.95-.42-1.97-.48-3.04-.34-6.14-.39-14.94-.74-17.39-.04-3.56-.07-6.05-.1-8.53-.02-1.24-.03-2.47-.05-3.83-.01-1.31-.28-2.75-.4-4.55,0,.93-.27-.8-.06-2.45,.05-.41,.14-.8,.23-1.13l.18-.68c.07-.29,0-.19-.28,.62-.44,1.26-.49,2.26-.51,3.05,0,.8,.04,1.41,.09,1.98,.05,.58,.11,1.12,.15,1.74,.04,.63,.04,1.29-.03,2.3l.05-.12-.15,6.88-.06,6.89c-.03,4.6-.05,9.21-.08,13.82,.01,1.19,.07,2.42,.3,3.69,.22,1.27,.69,2.57,1.35,3.69,1.31,2.29,3.17,3.97,4.9,5.52,1.73,1.55,3.43,3.01,4.6,4.7,1.19,1.65,1.79,3.61,2.01,5.75,.34,2.85,.02,5.97-.14,9.2-.19,3.21-.35,6.47-.5,9.74-.29,6.54-.47,13.15-.53,19.61-.07,6.96-.04,14.2,.04,21.19,.05,3.49,.09,6.93,.14,10.23,.03,1.65,.05,3.27,.08,4.85,.03,1.57,.04,3.19,.35,4.81,.29,1.54,.85,2.88,1.54,4,.69,1.13,1.54,2.1,2.62,2.97,1.26,.92,2.75,1.63,4.4,1.95,1.65,.34,3.41,.22,5.07-.25,1.66-.5,3.24-1.35,4.55-2.58,1.32-1.23,2.31-2.84,2.89-4.51,1.17-3.39,1.01-6.85,.96-10.04-.07-3.22-.15-6.41-.22-9.5v.61c-.14-6.57-.07-11.49-.21-17.9-.04,.03-.07-.96-.1-1.44,.2-1.11-1.14-37.77-1.03-40-.01-.66,0-1.33,.03-2.01,.1-1.63,.35-3.24,.9-4.69,.55-1.47,1.44-2.67,2.63-3.71,1.18-1.05,2.6-1.97,3.98-3.07,.69-.55,1.37-1.16,1.99-1.87,.62-.71,1.15-1.51,1.56-2.34,.83-1.67,1.24-3.43,1.48-5.13,.23-1.7,.3-3.35,.36-4.93,.13-3.17,.19-6.24,.18-9.16-.1-2.54-.23-5.39-.39-7.52,.03-2.06-.15-2.46-.22-4.94,.16-6.33-.32-10.01-.25-6.75-.1-1.3-.2-2.59-.29-3.88-.05-.65-.11-1.3-.16-1.95-.07-.68-.18-1.37-.37-2.06-.19-.69-.45-1.39-.91-2.05-.44-.66-1.11-1.28-1.92-1.58-.43-.18-.72-.21-1.07-.31-.35-.06-.7-.12-1.06-.13-.72-.05-1.48,.07-2.18,.32-1.33,.49-2.32,1.63-2.82,2.81-.25,.6-.41,1.22-.48,1.85-.06,.68-.05,1.13-.08,1.69-.05,1.82-.17,2.84-.31,3.75-.16,4.68-.2,3.36-.28,8.24-.16,1.17,.15,12.29,.11,13.69l-.02-.8c-.01,1.42-.04,2.72-.08,3.96v.46c-.02,.15-.02,.33-.03,.38-.02,.18-.06,.41-.13,.63-.13,.45-.34,.88-.59,1.22-.49,.71-1.13,.96-1.68,.85-.53-.11-1.16-.75-1.61-1.8-.6-1.5-.84-3.34-.91-5.2-.1-1.87,.04-3.78,.17-5.74,.26-3.98,.5-7.98,.5-11.99,0-2.01-.06-4.01-.21-6-.09-1-.14-1.95-.32-3.03-.18-1.05-.47-2.25-1.35-3.35-.45-.54-1.06-.98-1.7-1.25-.65-.27-1.29-.36-1.89-.39-1.27-.07-2.63,.4-3.56,1.18-1.9,1.56-2.67,3.75-2.88,5.79,.07,.12,.12-.81,.39-1.75,.24-.94,.75-1.86,.89-1.89-.61,1.09-.98,2.28-1.11,3.5-.11,1.06-.21,2.12-.3,3.18-.17,2.13-.3,4.26-.38,6.39-.17,4.26-.17,8.54-.06,12.8,0,1.54,0,3.42-.03,4.12,.03,1.36,.06,1.76,.09,2.02,.02,.27,.07,.48,0,1.34l-.16,.21c-.07,1.21-.47,1.92-.78,2.14-.15,.12-.29,.15-.46,.18-.14,0-.3,0-.59-.11-.07,.04-.56-.21-.89-.7,.04-.07-.17-.35-.33-.85-.16-.47-.21-1.04-.14-.99v-.02c-.06-.47-.09-.82-.06-1.48-.01-.56-.08-3.44-.14-6.32-.09-2.9-.24-5.8-.28-6.37l.02-.53c-.03-1.57-.16-2.23-.17-1.32l-.04-1.93,.02,.22-.05-1.92c0-.35,.06-.76,.14-.21-.09-1.09-.17-2.31-.19-3.39,.05,3.03,.03,6.79-.09,9.95-.06-1.3-.03-3.64-.09-5.05,.05-1.68,0-5.14-.09-7.83-.05-.61-.22-.95-.26-2.37,.04-.7-.18-1.59-.41-2.8,.43,1.35,.54,2.72,.6,4.04,.06-.1,.05-.92-.06-1.88-.1-.95-.34-2.02-.5-2.59-.1-.25-.34-1.07-.89-2.02-.52-.95-1.58-1.97-2.6-2.38,.45,.16,.08-.1-.61-.32-.71-.25-1.77-.28-2.42-.16-.73,.14-1.28,.39-1.56,.56-.28,.17-.34,.23-.08,.12-.17,.18,1.04-.54,2.34-.56,.63-.04,1.22,.1,1.5,.18,.27,.1,.29,.1-.22,.03-.24-.11-1.11-.24-2.05-.04-.94,.18-1.83,.71-2.37,1.13,.03,.06,.8-.49,.12,.08-1.25,.9-1.99,2.31-2.35,3.09,.07-.28,.36-.83,.59-1.19-.24,.42-.1,.02,.39-.69,.49-.7,1.41-1.7,2.72-2.27,.65-.29,1.38-.45,2.06-.46,.69-.01,1.3,.13,1.74,.28,.87,.33,1.19,.54,.53,.18,.16,.12-.47-.28-1.65-.43-.59-.06-1.3-.02-1.99,.18-.7,.19-1.36,.54-1.92,.96-1.14,.84-1.89,1.98-2.26,2.81-.19,.42-.29,.76-.34,.95-.05,.18-.05,.2,0,.08,.44-1.1-.15,.83,.29-.3,.13-.43,.31-.84,.51-1.24,.45-.7,.9-1.08,1.14-1.26,.25-.17,.3-.15,.11,.06-.47,.48-.4,.36-.04-.08,.36-.43,1.12-1.11,2.12-1.53,1-.43,2.23-.46,2.93-.28,.68,.18,.92,.27,.28,.05,.35,.12,.67,.29,.98,.48-.5-.27-1.49-.67-2.57-.64-1.07,.02-2.02,.4-2.52,.64,.01,.03-.3,.23-.69,.53-.39,.31-.84,.75-1.19,1.19l-.26,.31c-.72,.93-1.21,2.53-.86,1.84,.3-.8,.63-1.27,.84-1.54,.21-.28,.34-.36,.36-.34,.06,.04-.21,.53-.39,1.05-.19,.51-.27,1.05-.2,1.1,.09,.06,.19-.43,1.05-1.6-.4,.46-.54,.68-.56,.66-.02-.02,.09-.25,.32-.61,.46-.7,1.55-1.8,2.86-2.19,.13,0,.49-.1,1.06-.1,.57,0,1.36,.13,2.16,.61,.69,.42,.83,.63,.91,.66,.07,.04,.02-.04,.14,.06,.3,.34,.65,.9,.86,1.36,.2,.46,.29,.81,.21,.73,.52,1.11,.5,1.87,.72,3.27,.17,1.25,.04-.09,.17,.8,.12,1.88,.23,4.51,.28,6.01-.05,.58-.14,2.35-.32,1.07-.1-2.85,.26,1.08,.1-1.88-.13,1.28-.18-2.62-.36-3.15-.03,.95,.07,2.86,.15,4.45v-.32c.1,1.41,.23,4.23,.15,5.75-.07-.36-.11,.31-.15-.73l.03,1.94c.02,.25,.05,.5,.06-.06,.07,.91,.05,1.83,.01,2.53-.03,.11,.06,2.68,.11,5.2,.05,2.52,.06,4.97,.04,4.81-.02,1.4-.17,1.75,.1,3.11,.02,.03-.15-.78-.16-2.01,0-1.22,0-2.84,0-4.41-.01-3.13-.1-6.04-.09-5.12-.04,.6,.05,4.56,.02,8.48,0,.98,0,1.98,.17,2.9,.16,.92,.47,1.78,.94,2.4,.93,1.29,2.11,1.57,2.3,1.64,.53,.12,1.14,.06,1.53-.12,.39-.16,.6-.33,.47-.29,1.41-1.1-.31,.5,.71-.31,0-.03-.09,.06,.18-.26,.3-.31,.51-.68,.7-1.05,.48-1.35,.57-3.09,.48-4.78-.07-1.69-.13-3.4-.25-4.82,.1,.82,.27,1.76,.41,3.58l-.02,.32c.03,.26,.12,1.76,.18,1.73-.02-1.76-.1-3.23-.22-5.06,0-.34,.02-.73,.03-1,0,0-.02,.04-.03,.03,.03-.6,.04-.54,.07-.32l.02,.13c.16-1.09-.3-6.82-.13-9.99-.01-.93-.03-.09-.06-1.25,.15-3.24,.32-5.46,.63-8.83,0-1.08-.02-1.17-.23,.12,.09-.83,.15-1.73,.28-2.5,0,1.1,.11-.03,.5-1.01,.39-1,1.01-1.75,.56-.74,.31-.56,1.08-1.66,2.06-2.07,.04-.05,.09-.1,.3-.2,.22-.07,.58-.21,1.33-.1,.95,.24,1.12,.53,1.32,.75,.17,.25,.35,.44,.59,1.28,.04,.43-.17-.19-.21-.09,.23,.61,.3,1.15,.35,1.57,.04,.43,.05,.77,.06,1.1,0,.67,0,1.31,.09,2.8,.15,1.86,.13,5.56,.26,5.66-.05,2.53-.17,2.53-.27,2.28Z"/></g><g><path class="c" d="M122.81,68.34c1.66,7.89-.14,16.45-4.84,23-1.86,2.6-4.15,4.89-5.77,7.64-3.25,5.53-3.45,12.28-3.34,18.69,.34,20.59,2.91,41.1,2.95,61.69,0,4.25,.86,10.68-1.12,14.43s-7.37,6.59-11.45,5.42c-2.99-.85-6.12-3.62-7.06-6.58s-.88-8.14-.81-11.25c.54-24.58,1.95-49.16,2.23-73.74,.02-2.05,.03-4.16-.76-6.04-.79-1.88-2.29-3.35-3.61-4.9-9.46-11.02-10.42-28.48-2.22-40.47,1.73-2.53,3.86-4.85,6.54-6.33,13.85-7.64,26.53,5.35,29.28,18.42Z"/><path class="c" d="M108.62,141.89l.08,1.42c-.32-4.6-.58-9.45-.75-14.23,.04,10.44,.59,22.7,2.02,30.64-.24,.45-.28,3.19-.27,5.83,.02,2.65,.06,5.2,.13,5.3,.16,2.08,.3,4.18,.37,6.31-.04-1.47-.13-2.92-.21-4.37,.08,1.45,.17,2.91,.21,4.37l.09,2.55c.03,.89,.09,1.76,.14,2.62,.1,1.73,.2,3.44,.16,5.13-.04,1.68-.19,3.38-.72,4.83-.48,1.42-1.52,2.66-2.8,3.66-2.57,1.96-6.14,2.95-8.88,1.35-1.43-.76-2.74-1.91-3.66-3.23-.46-.67-.79-1.36-.99-2.1-.21-.78-.34-1.66-.43-2.55-.21-1.99-.24-4.93-.12-8.38,.12-3.47,.26-7.39,.39-11.32,.3-7.86,.67-15.75,.91-20.08,.06-1.25,.13-2.5,.19-3.77q-.13,2.1-.25,4.2c.06-5.29,.11-10.08,.16-14.71-.1,.81-.18,.95-.36,2.89l.13-2.36c-.14-2.16,.03-7.13,0-9.47,.1,.51,.18-1.33,.24-2.96l-.09,.64c.11-3.08,.18-6.41,.22-9.66,.02-1.62,.04-3.23,.06-4.77,0-1.54,.06-3.01,0-4.46-.05-.8-.09-1.42-.11-1.82-.17-.95-.48-1.92-.95-2.8-.46-.88-1.04-1.65-1.64-2.35,.2,.11-.51-.8-1.05-1.43-.53-.64-.88-1.06-.02-.17-2.69-2.75-4.64-6.11-6.12-9.45-2.36-6.08-2.98-13.09-1.54-19.76,.72-3.33,1.95-6.56,3.7-9.5,1.7-2.95,3.94-5.66,6.8-7.38l-.31,.11c2.01-1.23,4.11-2.12,6.45-2.54,1.17-.18,2.4-.26,3.69-.14,1.28,.13,2.62,.44,3.98,.98,2,.61,4.24,1.91,6,3.3,1.77,1.39,3.09,2.82,3.75,3.38,1.54,1.93,2.47,3.4,3.32,4.9,.83,1.51,1.6,3.05,2.35,5.39-.11-.63,.3,.49,.58,1.51,.29,1.03,.49,1.86,.31,.7-.25-1.63-.5-2.47-.75-3.23-.25-.77-.5-1.47-.97-2.79l-.02,.1c-1.25-3.01-2.94-5.85-5.09-8.35-2.15-2.49-4.79-4.66-7.89-6.09-3.08-1.43-6.68-1.99-10.11-1.4-1.71,.28-3.37,.82-4.93,1.53-1.53,.69-3.09,1.68-4.37,2.82-6.61,6.36-10.1,16.09-9.71,25.31,.12,4.97,1.46,10.07,3.63,14.56,.3,.55,.6,1.09,.89,1.64l.45,.81,.51,.77c.34,.51,.67,1.01,1.01,1.51,.38,.47,.75,.94,1.12,1.4,1.48,1.88,3.1,3.28,3.91,4.84,.78,1.46,.76,2.77,.74,4.32,.05,7.4-.27,17.01-.45,25.45l.02-.41c-.12,4.5-.4,7.86-.54,12.25,.05-.02,.02,.66,.04,.99-.25,.75-.52,25.87-.65,27.42,0,.46-.01,.93-.02,1.41-.1,2.32-.2,4.65-.3,6.99-.11,2.32-.22,4.67-.18,7,.02,1.17,.08,2.33,.22,3.5,.15,1.17,.34,2.36,.88,3.57,1.06,2.32,2.77,4,4.65,5.2,.85,.48,1.8,.9,2.8,1.15,1.02,.25,2.04,.31,2.85,.21,.8,0,1.27-.09,1.76-.22,.49-.13,1.01-.3,1.88-.61,2.28-.66,3.83-1.86,4.54-2.55,.71-.71,.7-.82-.23,0,.71-.68,1.34-1.44,1.88-2.28,.55-.84,.91-1.81,1.16-2.71,.5-1.83,.6-3.59,.63-5.21,0-1.51-.09-2.98-.18-4.45-.09-1.25-.05-1.94,.04-2.56-.1-3.17,.04-2.26,.02-5.62,.16-.82-.49-8.44-.51-9.38l.05,.55c-.15-3.89-.02-6.48-.24-10.28-.56-10.54-1.55-22-1.82-31.72-.16-.09,.11,2.14-.09,2.26-.11-2.87-.13-5.75-.13-8.63,.01-2.87,.1-5.72,.46-8.48,.15-1,.46-2.18,.6-2.61,.45-1.68,.16-1.02,.52-2.24l.19-.12c.49-1.78,1.07-2.45,1.85-3.93,0-.11,.31-.64,.67-1.14,.12,.06,1.13-1.56,1.19-1.4v-.02c.24-.3,.41-.52,.73-.88,.2-.31,1.39-1.87,2.55-3.6,1.15-1.75,2.07-3.63,2.21-4.01l.2-.32c.51-1,.58-1.49,.29-.91,.19-.42,.41-.82,.57-1.25l-.05,.15,.52-1.27c.1-.23,.25-.48,.19-.09,.21-.75,.47-1.58,.7-2.33-.67,2.06-1.8,4.51-3.03,6.38,.4-.83,1.22-2.28,1.56-3.22,.57-1.05,1.44-3.36,1.88-5.23,.08-.42-.04-.73,.21-1.66,.17-.45,.15-1.07,.31-1.85-.04,.91-.17,1.8-.36,2.71,.18-.13,.47-2.21,.54-2.94,0-.35,.16-2.13,.08-3.26,.13,.49,.09-.91,.08-1.59-.04-.76-.14-1.25-.15-.93-.08-.12-.04,.64-.02,1.3,.02,.65,0,1.21-.09,.68,.07-.28-.04-1.76-.16-2.55-.08,0,.01,.55-.13,.04-.08-.89-.35-1.79-.36-2.3,.05,.16,.1,.52,.15,.78-.1-.57,.33,.94,.57,2.46,.27,1.51,.34,3.02,.32,2.26-.03,.2-.15-1.47-.45-3.05-.27-1.59-.73-3.07-.64-2.7,.09,.7-.23-.46-.12,.25l.24,.77c.15,.98,.03,1.4-.05,1.07-.11-.82,.21,.32,.43,1.52,.24,1.2,.33,2.45,.28,1.73l-.02,.58c-.04-.3-.06-.86-.1-1.41-.05-.56-.08-1.11-.06-1.43-.08,0-.21-.8-.32-1.47,0-.08-.02-.16-.03-.24-.16-.68-.32-1.64-.34-1.17,.37,2,.06,1.37-.26,.74-.32-.63-.64-1.25-.32,.64-.13-1.61,.31,.5,.45,2.2-.05,.17-.05,.93-.09,2.14,.02,1.05,.05,.62,.1,.82-.04,.58-.14,1.69-.23,1.54,.05,.83-.18,1.29-.28,2.27-.08,.86,.06-.05,0,.56-.21,1.28-.68,3.04-1.01,4.02-.2,.36-.74,1.45-.57,.58,.62-1.84,0,.78,.56-1.17-.21,.39-.1-.04,.06-.62,.15-.58,.31-1.33,.29-1.52-.12,.3-.25,.77-.38,1.3l-.47,1.62,.09-.2c-.28,.92-.9,2.75-1.47,3.63,.04-.25-.19,.14,.09-.5-.19,.39-.37,.8-.58,1.18-.06,.16-.12,.32,.07,0-.25,.57-.55,1.12-.84,1.5-.04,.02-.26,.42-.58,.99-.35,.56-.79,1.3-1.29,2.01-.98,1.41-2.01,2.74-1.95,2.65-.6,.74-.83,.86-1.35,1.64,0,.03,.33-.42,.84-1.09,.51-.66,1.18-1.54,1.84-2.39,1.3-1.7,2.26-3.43,1.94-2.89-.14,.15-.54,.81-1.14,1.68-.61,.87-1.43,1.93-2.25,3-.82,1.07-1.62,2.14-2.19,3.02-.58,.87-.94,1.52-1.03,1.64-.35,.62-.7,1.41-.56,1.29-.54,1.07,.03-.39-.4,.37,0,.02,.06-.05-.05,.2l-.39,.74c-.61,1.78-1.37,4.45-1.46,6.42,0-.57-.05-1.24,.13-2.5l.08-.21c.02-.18,.24-1.21,.16-1.2-.34,1.17-.54,2.2-.65,3.47l-.15,.68s.02-.02,.03-.02c-.09,.41-.1,.36-.11,.21,0-.02,0-.05,0-.09-.16,.36-.25,1.56-.28,2.92-.03,1.37,0,2.91-.05,4,.03,.65,.04,.06,.08,.86-.05,2.24-.08,3.77-.06,6.11,.12,.74,.15,.8,.22-.1l.03,1.76c-.3-1.59-.11,3.3-.41,1.54-.03,.52,0,1.57,.09,2.56,.07,.1,.17,.25,.23,1.49,.01,1.73,0,1.31,.02,2.75-.06,.34-.12-.18-.18-.12,.22,2.2-.06,1.93,.08,4.01,.1,1.3,.28,3.87,.42,3.92,.11,1.75,0,1.76-.12,1.59Z"/></g></svg>