<?xml version="1.0" encoding="UTF-8"?><svg id="a" xmlns="http://www.w3.org/2000/svg" viewBox="0 0 276.77 280.34"><defs><style>.b{fill:#005bea;}.c{fill:#65dff6;}.d{fill:#0b1f65;}</style></defs><g><path class="c" d="M54.74,31.17c-3.16,3.54-3.99,8.6-4.1,13.34-1.34,61.57,1.28,111.45,.05,176.02-.21,11.16-.83,24.45,8.32,30.82,4.53,3.16,10.3,4.26,15.82,4.17,50.2-.79,84.78,.54,132.24,.42,3.8,0,7.63-1.31,10.78-3.44,6.23-4.21,8.52-6.5,8.69-14.02,.68-30.01-.72-50.19-1.09-71.88-.66-39.18,1.35-77.5,.68-116.67-.12-6.79-.46-14.2-4.92-19.32-6.85-7.86-19.11-4.39-29.51-5.08-23.78-1.57-38.4,.59-57.54-.58-9.83-.6-19.68-.12-29.54,.04s-18.59,1.01-27.91,1.29c-7.37,.22-16.45-1.31-21.98,4.89Z"/><path class="c" d="M49.54,205.44l-.05,3.23c.1-10.46,.22-21.46,.23-32.3-.23,11.81-.47,24.66-.7,36.83-.05,3.05-.09,6.05-.14,8.99-.04,2.94-.06,5.85,.1,8.68,.3,5.63,1.36,11.1,3.91,15.28,.08,.26,.34,.82,.74,1.6,.22,.38,.52,.79,.84,1.26,.3,.48,.71,.94,1.17,1.43,.23,.25,.46,.5,.7,.76,.27,.23,.54,.47,.83,.71,.29,.24,.58,.48,.87,.73,.31,.22,.63,.44,.95,.67,1.31,.86,2.79,1.6,4.3,2.18,3.03,1.17,6.17,1.65,8.52,1.81,1.18,.09,2.17,.08,2.87,.08,.69-.01,1.09-.03,1.15-.05,4.75-.16,9.56-.31,14.42-.41-3.35,.08-6.68,.16-9.98,.24,3.31-.08,6.64-.16,9.98-.24,15.38-.34,31.42-.33,47.95-.14,16.53,.23,33.54,.46,50.84,.7,2.4,.02,5.31,.04,8.62,.06,1.65,0,3.4,.01,5.23,.02,.91,0,1.85,0,2.8,0h1.45c.53,0,1.07-.02,1.6-.07,2.15-.19,4.31-.74,6.39-1.62,1.04-.44,2.05-.97,3.03-1.58,.99-.63,1.83-1.22,2.76-1.88,1.79-1.31,3.73-2.81,5.14-5.01,1.44-2.2,1.94-4.79,2.13-7.13,.06-.6,.06-1.18,.1-1.77l.04-1.68c.02-1.12,.05-2.24,.07-3.35,.03-2.23,.06-4.44,.1-6.62,.04-4.36,.05-8.6,.02-12.59-.05-7.97-.21-14.93-.32-19.85-.07-2.85-.15-5.69-.22-8.57q.1,4.77,.21,9.54c-.5-12-1.07-22.83-1.25-33.33-.05,1.85-.14,2.18-.16,6.57l-.03-5.36c-.32-4.88-.32-16.15-.37-21.45,.11,1.14,.15-3.03,.21-6.72l-.09,1.46c.2-13.99,.44-30.22,.62-42.72,.02-1.74,.09-3.05,.14-3.84l.05-11.99c.15,.92,.2-9.95,.26-4.22-.14-8.99-.06-18.08-.45-26.67-.16-3.85-.48-7.84-1.9-11.67-.72-1.9-1.73-3.74-3.07-5.32-1.38-1.57-3.07-2.88-4.96-3.78-3.84-1.74-8.01-1.98-11.99-1.94-4,.04-7.95,.39-11.86,.29-7.89-.45-15.96-.68-23.93-.52-7.99,.11-15.93,.51-23.82,.52l.77,.06c-2.76,.03-5.44,0-8.11-.05-2.67-.06-5.34-.21-8.11-.26-5.51-.11-11.32,.03-18.04,.14-4.79,.24-10.61,.34-15.7,.72-5.08,.35-9.44,.74-11.34,1-5.52,.32-9.43,.54-13.28,.5-1.92,.01-3.83,.03-5.9,.23-2.05,.23-4.33,.55-6.67,1.69,1.26-.47-1.12,.47-2.72,1.95-.4,.37-.74,.76-1.05,1.07-.3,.36-.55,.65-.7,.83-.29,.36-.16,.25,.76-.73,2.4-2.32,4.13-2.9,5.68-3.44,1.58-.46,3.11-.8,6.08-.86l-.18-.05c3.46-.16,7.05,.13,10.69,0,3.59-.09,7.17-.27,10.74-.46,3.57-.18,7.13-.37,10.69-.5,3.55-.13,7.12-.13,10.72-.21,7.17-.13,14.32-.3,21.44,.03,3.52,.19,7.22,.42,10.83,.49,3.63,.09,7.27,.07,10.89,.02,9.68-.24,19.7-.61,29.8-.23,2.52,.09,5.05,.21,7.58,.37,1.24,.07,2.6,.15,3.9,.16,1.31,.02,2.6-.01,3.88-.05,5.11-.15,10.16-.58,14.73,.45,2.45,.54,4.69,1.64,6.43,3.35,1.78,1.68,3.03,3.94,3.81,6.4,1.57,4.96,1.46,10.5,1.58,15.92,.2,10.85,.2,21.32,.16,30.59,0,4.42-.19,7.61-.32,11.38-.19,17.04-.74,38.75-.58,58.02,0-.36,0-.71,0-.94,.05,10.23,.02,17.91,.36,27.89,.04-.05,.09,1.5,.14,2.25-.11,.87,.6,15.55,.93,30.43,.16,7.44,.19,14.94,.13,20.8-.05,2.93,0,5.47-.2,7.26-.19,1.81-.59,2.91-.75,3.28-.31,.89-.76,1.75-1.38,2.54-1.49,1.89-3.68,3.36-5.84,4.83-2.1,1.41-4.44,2.42-6.89,2.91-1.23,.25-2.44,.36-3.7,.34-1.32-.01-2.63-.03-3.94-.04-2.62-.03-5.23-.06-7.81-.09-10.34-.14-20.3-.27-29.33-.39-3.93,.06-8.33,.12-11.65,.17-3.2-.13-3.81,.04-7.67-.02-9.78-.53-15.51-.4-10.46-.2-8.06-.04-16.13-.08-23.29-.11-3.32,.03-6.62,.07-9.96,.1-2.84,.04-4.43,0-5.86-.1-7.27,.09-5.13,0-12.76,.01-.9-.07-5.75,.08-10.48,.18-2.33,0-4.66-.26-6.49-.66-1.83-.39-3.16-.9-3.63-1.11,.37,.15,.74,.27,1.12,.4-1.98-.69-3.7-1.6-5.13-2.69-1.43-1.08-2.56-2.35-3.51-3.74-1.81-2.85-2.85-6.18-3.41-10.3-.78-5.75-.43-11.84-.35-18.02,.11-6.17,.19-12.38,.23-18.53,.08-12.31,.05-24.4,0-35.49-.16-.22,.06,4.89-.14,5.15-.04-13.08,0-26.28-.13-39.48,.01-2.38,.06-5.29,.1-6.38,0-4.22-.1-2.49-.12-5.58l.14-.42c-.16-4.51,.08-6.6,0-10.84-.06-.22-.08-1.78-.09-3.28,.15-.08-.05-4.65,.09-4.43v-.04c-.01-.91-.03-1.56,0-2.67-.05-1.73-.5-17.91-.55-19.67l.03-.82c0-2.42-.1-3.46-.13-2.04l.02-2.99v.34l.03-2.97c.02-.55,.09-1.17,.15-.32-.04-1.68-.04-3.57,0-5.25-.15,4.67-.33,10.48-.48,15.38-.04-2.01,.06-5.64,.05-7.83,.08-2.62,.24-7.96,.37-12.12,0-.92-.16-1.55-.05-3.62,.13-1.01,.04-2.35,.15-4.07,.03,1.98-.04,3.92-.08,5.93,.14-.34,.18-4.89,.25-6.48-.01-.37,0-1.53,.03-2.9,.03-1.38,.04-2.94,.11-4.1,.05,1.03,.19-1.89,.54-3.2,.3-1.51,.57-2.43,.34-1.86,0-.26-.44,1.2-.65,2.53-.22,1.33-.32,2.48-.29,1.37,.06-.29,.17-1.2,.36-2.22,.19-1.02,.49-2.15,.76-2.9-.07-.05-.41,1.03-.14,0,.58-1.71,1.5-3.36,2.22-4.07-.2,.26-.63,.83-.9,1.28,.32-.48,.04-.07-.39,.85-.44,.91-.95,2.38-1.23,3.91-.59,3.05-.45,6.19-.43,4.62-.04,.42-.1-3.08,.81-6.18,.44-1.55,1.13-2.96,1.73-3.83,.58-.86,1-1.32,.72-1.02-.92,1.05,.54-.87-.41,.23-.32,.43-.61,.89-.86,1.36-1.04,1.69-1.36,2.51-1.17,1.8,.74-1.54-.32,.66-.72,3.15-.44,2.48-.39,5.11-.34,3.62-.04,.4-.09,.8-.12,1.21,0-.64,.06-1.8,.22-2.95,.15-1.15,.43-2.27,.64-2.87-.08-.03,.35-1.64,.94-2.87l.24-.42c.59-1.28,1.92-2.69,1.26-2.07-1.28,1.58-1.51,2.28-1.61,2.23-.06-.03,.16-.7,.47-1.35,.3-.65,.69-1.28,.66-1.35,0-.06-.63,.33-1.65,2.19,2.04-2.93-.86,.94-1.45,4.69-.13,.34-.59,1.95-.77,4.66-.08,2.35,.02,1.39,.05,1.84-.06,1.31-.14,3.81-.22,3.48,.07,1.84-.12,2.94-.12,5.15,.01,1.95,.05-.13,.07,1.25-.05,2.92-.12,7.02-.16,9.34-.09,.9-.27,3.64-.38,1.64,.07-4.43,.19,1.69,.22-2.92-.21,1.98,0-4.08-.14-4.92-.1,1.47-.14,4.45-.14,6.94l.03-.5c-.01,2.19,.02,6.59-.1,8.96-.06-.56-.12,.48-.13-1.14l-.03,3.02c.02,.38,.04,.78,.06-.09,.05,1.43,0,2.85-.03,3.95-.08,.33,.31,16.07,.28,15.59,.01,2.18-.09,2.71,0,4.83,0,.03,0-.28,0-.82,0-.55-.02-1.34-.03-2.29-.03-1.89-.07-4.41-.12-6.85-.07-4.87-.14-9.41-.13-7.97-.11,1.86,.44,24.67,.34,26.03,.02,1.61,.05,3.56,.12,3.18,0,2.73-.14-.82-.19,1.13,.01,.04,.03-.16,.04,.46l-.07,1.87c.15,4.23,.08,10.44,.28,14.87-.09-1.28-.25-2.74-.35-5.6l.03-.5c-.03-.41-.08-2.75-.15-2.68-.02,2.71,.02,5.03,.13,7.88l-.04,1.55s.02-.06,.03-.04c-.03,.93-.04,.83-.07,.49l-.02-.2c-.19,1.7,.26,10.64,.2,15.58,.05,1.46,.04,.14,.1,1.95-.02,5.06-.04,8.55-.07,13.83,.1,1.69,.14,1.82,.22-.22v3.99c-.26-3.63-.19,7.46-.45,3.46-.05,1.17-.05,3.56,0,5.79,.06,.22,.16,.58,.16,3.39-.08,3.91-.06,2.98-.12,6.22-.08,.77-.11-.42-.17-.29,.1,5-.18,4.36-.18,9.08,.02,2.95-.03,8.78,.11,8.93-.04,3.98-.14,3.98-.25,3.58Z"/></g><g><path class="b" d="M75.54,48.51c12.04,2.3,24.42,.57,36.66-.06,29-1.51,58.23,3.14,87.03-.59,.5-.06,1.03-.15,1.39-.49,.46-.43,.52-1.12,.55-1.75,.32-6.6,.22-13.22-.28-19.81-7.61-1.26-15.37-1.67-23.07-1.21-3.54,.21-7.07,.6-10.62,.6-4.2,0-8.39-.55-12.59-.77-11.82-.62-23.65,1.37-35.47,.81-5.26-.25-10.49-1-15.75-1.15-4.58-.13-9.15,.19-13.72,.52-3.26,.23-6.53,.46-9.79,.69-3.1,.22-4.08,.28-4.33,3.49-.51,6.51-.25,13.19-.03,19.71Z"/><path class="b" d="M141.58,49.83l1.22,.06c-3.94-.14-8.09-.28-12.18-.42,8.87,.6,19.36,1.5,26.3,.72,.73,.57,9.4,1.05,9.58,.91,1.82-.06,3.64-.12,5.48-.18-1.27,.03-2.53,.06-3.79,.09,1.26-.03,2.52-.06,3.79-.09,5.84-.2,11.94-.39,18.21-.83,1.57-.13,3.15-.2,4.74-.38,1.61-.17,3.24-.34,4.87-.51,.68-.11,1.34-.35,1.83-.83,.49-.47,.78-1.12,.9-1.8,.11-.73,.09-1,.13-1.44l.07-1.22c.08-1.63,.15-3.27,.18-4.92,.04-1.83,.05-4.45-.04-7.46-.03-.75-.06-1.53-.09-2.33-.02-.4-.04-.8-.06-1.21-.03-.54-.07-1.1-.1-1.65l-.08-1.14-.04-.57c0-.09,0-.2-.02-.28l-.28-.05c-.76-.12-1.52-.25-2.29-.37l-1.42-.22-1.27-.18c-6.81-.96-13.73-1.06-17.51-.96-1.1,.02-2.19,.07-3.29,.13,1.83-.07,1.83-.07,3.67-.1-4.63,.3-8.68,.97-12.53,1.08,.68,.07,.8,.15,2.43,.18-.67,.01-1.33,.02-1.99,.01-1.79,.3-5.99,.03-8-.07,.44-.08-1.13-.23-2.52-.36l.55,.12c-5.31-.54-11.55-.34-16.27-.09-.66,.03-1.16,.02-1.46,0l-4.52,.35c.34-.17-3.75,.08-1.6-.14-3.37,.38-6.79,.42-9.98,.63-2.87,.02-5.75-.07-8.69-.3-2.94-.22-5.92-.51-8.95-.68-6.08-.38-12.19,.19-18.12,.74l.3,.04c-2.08,.2-4.04,.44-6.1,.66-1.04,.1-2.1,.21-3.22,.32-.56,.05-1.14,.1-1.75,.22-.59,.11-1.31,.38-1.71,1-.5,.91-.49,1.95-.53,2.96-.03,1.02-.04,2.05-.03,3.01,.01,1.93,.11,3.58,.27,4.3,.05,4.18,.27,5.84,.49,9.94,.12-1.06,.33,3.98,.38,1.96,.13-2.73-.07-2.87,.05-5.18l-.05,.07c-.02-2.69-.01-5.37,.07-8.04,.04-1.34,.1-2.67,.19-4l.15-1.99c.05-.67,.12-1.27,.26-1.7,.16-.43,.2-.44,.43-.54,.27-.12,.94-.19,1.57-.23l4.05-.25c2.71-.17,5.43-.34,8.16-.51,3.62-.32,7.38-.55,11.14-.49,3.75,.07,7.57,.49,11.37,.8,4.09,.36,8.46,.48,12.59,.31,4.15-.15,8.11-.47,11.6-.74,1.67-.14,2.87-.08,4.29-.07,3.2-.18,6.83-.32,10.53-.19,3.69,.09,7.52,.55,11.22,.69l-.36-.02c3.92,.21,6.94,.16,10.69-.15-.02-.04,.56-.09,.84-.14,.35,.08,5.79-.5,11.37-.45,5.58-.01,11.22,.65,11.86,.81l.92,.11,.36,.07s.16-.01,.14,.07v.19l.04,.93c.04,.99,.07,1.99,.09,2.98,.04,1.98,.03,3.96-.01,5.9-.04,1.94-.11,3.84-.2,5.68-.05,.92-.09,1.82-.14,2.71l-.04,.64c-.02,.23-.02,.23-.03,.3-.02,.11-.08,.22-.18,.28-.03,.04-.08,.07-.13,.09-.07,.03-.04,.04-.25,.08-.37,.07-.75,.13-1.12,.2l-2.07,.39c-1.2,.03-1.41,.26-2.85,.36-3.7-.13-5.82,.21-3.92,.21-3.01,.24-6.05,.38-8.73,.44-1.25,.06-2.48,.15-3.74,.18-1.07,.04-1.67-.02-2.21-.12-2.74,.08-1.93-.02-4.8-.1-.69-.13-7.2,.12-8.02,.04h.47c-3.32-.13-5.52-.49-8.77-.62-9.02-.44-18.92-.75-27.34-.8-.08,.16,1.86-.03,1.95,.18-4.96-.06-9.97-.19-14.99,.02-.91-.01-2.02-.02-2.43-.05-1.61,.03-.94,.13-2.11,.19l-.17-.13c-1.7,.23-2.51,.01-4.1,.18-.08,.06-.66,.11-1.23,.15-.04-.15-1.75,.13-1.67-.01h-.02c-.34,.03-.59,.06-1,.06-.65,.12-6.69,.85-7.34,.9l-.31-.02c-.91,.03-1.29,.15-.76,.16h-2.1c-.2,0-.44-.08-.12-.15-.63,.06-1.33,.07-1.96,.04,1.74,.13,3.92,.22,5.76,.31-.75,.07-2.12,.04-2.93,.05-.98-.08-2.98-.16-4.52-.3-.34,0-.58,.16-1.35,.05-.37-.14-.87-.05-1.51-.18,.74-.02,1.45,.07,2.2,.1-.12-.13-1.81-.19-2.39-.27-.28,.04-1.7-.16-2.61-.2,.4-.08-.71-.17-1.23-.31-.6-.09-.99-.09-.75-.02-.22,.11,2.39,.4,1.53,.44-.21-.1-1.4-.22-2.03-.31-.02,.08,.42,.13,0,.13-.7-.14-1.46-.17-1.85-.32,.14,0,.42,.06,.63,.1-.46-.09,.8,.03,2.03,.07,1.23,.05,2.42,.07,1.82,.02,.15,.06-1.17,0-2.46-.06-1.28-.11-2.53-.22-2.22-.17,.55,.13-.43,.07,.15,.19l.66,.02c.79,.16,1.09,.35,.8,.36-.66-.13,.3-.06,1.29-.07,.99,0,1.99,.03,1.42,0l.46,.09c-.49,0-1.79-.13-2.27-.27-.02,.08-.67,0-1.21-.06l-.19-.05c-.56-.06-1.33-.21-.99-.05,3.27,.54-2.3,.39,.88,.98-1.31-.41,.48-.06,1.89,.1,.13,.07,.75,.25,1.76,.41,.89,.07,.53-.01,.7-.04,.49,.08,1.42,.21,1.29,.28,.7-.06,1.1,.14,1.94,.16,.74,0-.05-.04,.48-.07,1.1,.06,2.64,.12,3.52,.14,.34,.09,1.37,.24,.62,.37-1.68-.04,.64-.2-1.1-.19,.75,.2-1.54,.04-1.86,.15,.55,.12,1.68,.13,2.62,.12l-.19-.03c.83,0,2.49-.07,3.39,.01-.21,.07,.18,.11-.43,.14l1.14-.02c.14-.03,.29-.05-.04-.06,.54-.07,1.08-.05,1.49-.03,.13,.09,6.06-.6,5.87-.56,.82-.05,1.03,.04,1.82-.09,.02-.02-.46,.03-1.17,.09-.71,.07-1.66,.16-2.58,.24-1.83,.17-3.55,.31-3.01,.27,.71,.09,9.29-.9,9.81-.82,.61-.05,1.34-.11,1.19-.18,1.03-.04-.3,.16,.44,.17,.02-.01-.06-.03,.17-.05l.71,.04c1.59-.22,3.93-.23,5.6-.44-.48,.09-1.02,.26-2.09,.39l-.19-.03c-.15,.03-1.03,.11-1,.18,1.02-.01,1.89-.08,2.96-.2l.59,.04s-.02-.02-.02-.03c.35,.03,.32,.04,.19,.07-.02,0-.04,.01-.07,.02,.65,.2,4-.32,5.87-.22,.55-.04,.05-.04,.73-.09,1.91,.05,3.23,.09,5.22,.14,.64-.09,.69-.12-.08-.22l1.51,.03c-1.37,.24,2.81,.23,1.3,.47,.44,.05,1.34,.07,2.18,.05,.09-.06,.22-.15,1.28-.14,1.47,.11,1.11,.08,2.34,.17,.29,.08-.16,.11-.11,.17,1.89-.06,1.64,.21,3.42,.24,1.11,0,3.31,.06,3.37-.07,1.5,.06,1.5,.16,1.35,.27Z"/></g><path class="b" d="M106.98,93.6l-.18,.13c.5-.51,1.12-.94,1.73-1.36-1.81,.39-3.78,1.13-3.27,3.42-.84-.67-2.3,.09-2.14,.3-.09,.37-.21,.71-.35,1.04,.11-.22,.21-.44,.29-.67-.09,.23-.19,.45-.29,.67-.88,2.07-2.69,3.47-4.57,4.94-.51,.41-1.38,1.22-2.24,1.96-.87,.75-1.74,1.42-2.26,1.7l-.44,.26,.54-.24c-.16,.34-.32,.68-.48,.98l-.12,.22s0,.08,0,.11c0,.07,0,.14,0,.2,.1,.11,.17,.24,.38,.35h-.15c.14,.45-.16,.65-.25,.95-.02-.27-.13-.25-.22-.24l.06,.15c-.11,.04-.22,.1-.33,.18l-.17,.13c-.06,.05-.12,.11-.16,.04-.12-.11-.23-.22-.32-.35-.03-.04-.02-.17,0-.27-.1-.03-.2-.06-.31-.11,.18-.26-.01-.45,.2-.49-.18,.07-.29,0-.39-.08-.03,0-.18-.16-.3-.24-.12-.09-.26-.17-.43-.22-1.38-1.56-3.03-3.05-4.88-4.24l-.05,.12c-.67-.4-1.55-.44-2.05-1.22-.74-.17-1.55-.65-2.18-.36-.59-.44-1.02-.41-1.66-.78-.08,.36-.77-.19-.68,.23,.04,.65,.32,.39,.36,.92l.07-.09c1.02,1.63,2.13,3.13,3.31,4.59,1.06,.72,1.81,1.88,2.72,2.8,.5,.49,1.04,.99,1.57,1.47,.19,.15,.73,.71,1.1,1.09,.39,.38,.76,.75,1.12,1.1,.34,.28,.43,.83,.65,1.35,.35,.38,.7,.8,1.07,1.25l.23-.08,.25-.15,.51-.3c.33-.2,.67-.41,1.01-.62,.67-.43,1.34-.84,1.93-1.35-.03,.02-.07,.04-.09,.05,.45-.33,.86-.56,1.29-.82,.21-.12,.44-.25,.64-.4,.21-.15,.3-.21,.44-.36-.06-.07,.02-.14,.03-.22,.19,.12,.85-.77,1.41-1.68,.57-.91,1.08-1.85,1.25-1.86,.03-.07,.07-.13,.11-.19,1.12-.93,2.69-1.46,3.43-2.38,.03-.32,.09-.66,.08-.97,.28-.03,.05-.3,.25-.45,1.06,.11,1.05-.4,.61-.37,.28-.46,.7-.79,1-1.15,.1-.2,.2-.4,.31-.61,.08-.18,.24-.17,.45-.1,.25-.43,.3-.18,.71-.47,.3,.12,.55-1.22,.72-1.26l-.03,.09c.45-.37,1.12-.23,1.55-.6,1.27-.93,2.37-2.26,3.51-3.16-.2-.24-.19,.27-.48-.03,.67-.54,1.57-.82,2.25-1.35,.17-.04,.42-.05,.54-.02,.28-.09,.02-.22,.2-.32l.2,.19c.07-.37,.53-.04,.66-.31-.06-.1,0-.17,.08-.23,.2,.22,.22-.21,.38,0v-.02s.05-.08,.14-.08c.01-.15,.3-1.45,.3-1.63h.07c.12-.11,.03-.32-.08-.3l.16-.11v.03l.16-.11s.16,.08,.2,.21c.02-.15,.08-.27,.2-.3-.35,.05-.81,.09-1.25,.07,.04-.16,.32-.2,.41-.31,.26,.04,.64-.05,.93-.12,.04-.05-.14-.33,.05-.31,.2,.14,.11-.1,.31-.05-.02,.18-.16,.21-.27,.29,.19,.2,.36-.06,.49-.07-.02-.1,.24-.19,.31-.35,.11,.25,.2,.05,.37,.1,.1-.04,.09-.17,0-.21-.15-.24-.44,.14-.51-.19,.12,.08,.25-.09,.33-.17-.1-.12-.13-.04-.17-.2,.12-.05,.11-.28,.26-.2,0,.05-.05,.06-.08,.08,.14-.09-.06,1.34,.05,1.14-.13-.07,.15-1.3,.06-1.24-.13,0-.12-.26-.23-.24l.03,.22c-.15,.04-.36-.13-.39-.24,.2-.13,.13,1.25,.2,1h-.11c0-.14,.13-.35,.3-.28-.09-.12-.04-.23,0-.34h.04c.03-.12,.16-.18-.02-.3-.44,.39-.67-1.45-1.17-1.16,.4,.11,.15,.32-.02,.51-.09-.07-.28-.13-.48-.09-.11,.12,0,.15,.04,.24-.12,0-.28,.05-.38-.1,.04,.24-.24,.02-.3,.17-.04,.16,.06,.07,.06,.2-.16,.11-.39,.26-.54,.32-.15-.09-.48-.2-.54-.48,.25-.16,.18,.4,.38,.16-.34-.21,.14-.25,0-.51-.18-.07-.34,.06-.44,.2l.06,.02c-.08,.13-.26,.38-.51,.32-.06-.13-.17-.16-.11-.25l-.17,.11s.01,.1,.08,.08c0,.14-.12,.16-.22,.14-.11-.09-.44,1.15-.47,1.06-.11,.1-.27-.04-.29,.16,.06,.1,.75-1.27,.63-1.11-.2-.04-.8,1.6-1.04,1.46-.07,.08-.15,.19-.04,.28-.18,.07-.14-.24-.32-.26,.01,.02,.05,.05,.02,.07l-.21-.06c-.07,.35-.57,.41-.6,.83-.04-.17-.14-.44-.09-.67l.07,.03c0-.05,.08-.19-.02-.3-.2,.05-.3,.17-.35,.4-.05,0-.11,0-.16-.02l.04,.04c-.11-.03-.11-.04-.13-.1,0,0,0-.02-.01-.03-.36-.24-.36,.67-.75,.73-.03,.11,.04,.06,0,.2-.36,.1-.63,.16-.95,.33,.04,.21,.08,.27,.31,.32l-.24,.14c-.14-.52-.68,0-.8-.54-.13-.03-.27,.06-.33,.22,.07,.1,.18,.26,.04,.39-.3,.06-.22,.06-.48,.1-.14-.08-.13-.18-.22-.27-.11,.38-.45-.05-.66,.19-.12,.17-.39,.45-.21,.66-.2,.18-.34,.03-.48-.15Z"/><path class="b" d="M108.31,146.88l-.18,.14c.51-.53,1.13-.99,1.75-1.44-1.83,.48-3.8,1.24-3.32,3.56-.84-.66-2.33,.1-2.17,.31-.1,.37-.23,.72-.38,1.05,.11-.22,.22-.44,.32-.67-.1,.23-.2,.46-.32,.67-.96,2.09-2.88,3.46-4.9,4.85-1.1,.79-3.87,3.16-5.06,3.9-.17,.12-.33,.23-.5,.34l.61-.33c-.2,.39-.39,.77-.58,1.13-.03,.21,.04,.3,0,.46,.1,.11,.18,.25,.38,.34h-.15c.14,.48-.13,.74-.23,1.03-.03-.28-.14-.26-.25-.27l.06,.17c-.46,.06-.87-.23-1.2-.47-.05-.04-.03-.14,0-.22-.07-.02-.1,0-.22-.06l-.37-.18c.24-.2-.35-.64,.07-.54-.7-.1-1.04-.67-1.72-.75-1.62-1.31-3.41-2.63-5.32-3.79l-.04,.12c-.68-.39-1.6-.44-2.1-1.26-.76-.19-1.57-.75-2.22-.51-.59-.52-1.04-.53-1.67-1-.11,.36-.78-.31-.72,.14,0,.68,.31,.45,.33,1.02l.07-.08c1.01,1.84,2.23,3.53,3.63,5.1,1.19,.78,2.14,1.97,3.28,2.87,1.24,.95,2.67,1.87,3.88,2.49,.38,.19,.55,.68,.83,1.06,.43,.25,.87,.53,1.32,.83,.46,.25,.94,.43,1.46,.52,.52,.09,1.1,.06,1.61-.11,.51-.16,.97-.43,1.38-.77-.03,.02-.07,.04-.09,.05,.45-.32,.84-.61,1.27-.91,.21-.15,.41-.31,.62-.48l.31-.27c.12-.11,.14-.13,.21-.21-.07-.06,0-.14,.01-.21,.38,.22,2.32-3.49,2.66-3.49,.04-.06,.08-.13,.13-.19,1.18-.89,2.85-1.36,3.7-2.3,.06-.33,.16-.67,.16-1,.29-.03,.07-.31,.3-.46,1.08,.13,1.12-.4,.66-.37,.32-.47,.78-.81,1.11-1.18,.12-.21,.23-.41,.36-.63,.09-.19,.26-.18,.47-.1,.28-.44,.32-.19,.76-.5,.3,.12,.62-1.27,.8-1.31l-.03,.09c.48-.39,1.17-.27,1.62-.67,1.35-1.01,2.5-2.44,3.68-3.45-.21-.23-.2,.29-.5,0,.69-.6,1.62-.97,2.31-1.57,.18-.06,.43-.09,.56-.07,.29-.12,.02-.23,.2-.35l.22,.18c.06-.38,.55-.1,.68-.39-.07-.09,0-.18,.08-.25,.21,.21,.22-.24,.4-.04v-.02s.05-.09,.15-.1c.01-.16,.25-1.53,.25-1.71h.08c.11-.13,.01-.34-.1-.31l.16-.13v.03l.16-.13s.17,.06,.22,.2c.01-.16,.07-.29,.19-.33-.36,.1-.83,.19-1.29,.22,.03-.17,.32-.24,.41-.36,.27,.01,.65-.13,.95-.23,.03-.06-.17-.33,.04-.32,.21,.11,.11-.12,.31-.09-.01,.18-.15,.24-.26,.33,.21,.18,.37-.11,.51-.13-.02-.1,.23-.22,.3-.4,.13,.24,.21,.02,.38,.05,.1-.06,.08-.18-.01-.22-.17-.23-.44,.2-.54-.13,.13,.07,.25-.12,.33-.22-.11-.11-.14-.03-.19-.19,.12-.07,.09-.3,.26-.24,.01,.05-.05,.07-.08,.09,.14-.11,.02,1.38,.12,1.16-.14-.06,.08-1.35-.02-1.28-.13,.02-.14-.25-.26-.21l.04,.22c-.15,.06-.38-.09-.42-.2,.2-.16,.22,1.26,.27,.99h-.11c0-.13,.11-.36,.29-.31-.11-.11-.05-.23-.02-.35h.04c.02-.14,.15-.21-.04-.31-.43,.45-.79-1.39-1.28-1.04,.42,.06,.18,.31,.02,.52-.1-.06-.3-.1-.5-.03-.1,.13,.02,.16,.05,.24-.12,0-.29,.09-.4-.06,.06,.24-.24,.05-.3,.21-.03,.16,.07,.06,.07,.2-.16,.13-.39,.3-.53,.39-.16-.07-.5-.15-.58-.43,.25-.19,.21,.38,.4,.12-.36-.18,.13-.27-.03-.52-.19-.05-.34,.09-.43,.25h.06c-.07,.15-.24,.43-.5,.4-.07-.12-.19-.14-.13-.25l-.17,.13s.02,.1,.09,.08c0,.14-.11,.17-.22,.17-.11-.08-.39,1.21-.43,1.12-.11,.11-.28-.02-.29,.19,.07,.09,.7-1.36,.59-1.19-.2-.02-.74,1.71-.99,1.58-.07,.09-.15,.2-.03,.29-.18,.08-.15-.24-.34-.24,.01,.02,.06,.04,.02,.07l-.22-.04c-.06,.37-.57,.46-.58,.89-.04-.17-.16-.44-.12-.68l.08,.03c-.01-.05,.07-.2-.03-.3-.2,.06-.3,.2-.34,.44-.05,0-.11,0-.16,0l.04,.04c-.11-.02-.11-.03-.14-.09,0,0-.01-.02-.01-.03-.38-.22-.35,.71-.74,.79-.03,.11,.04,.06,0,.2-.37,.13-.63,.21-.96,.39,.04,.21,.09,.27,.32,.3l-.24,.15c-.15-.52-.69,.04-.83-.5-.14-.02-.27,.08-.33,.24,.07,.1,.19,.25,.05,.39-.31,.08-.22,.07-.49,.12-.15-.07-.13-.18-.23-.26-.11,.39-.46-.03-.67,.22-.12,.18-.39,.48-.21,.68-.21,.19-.35,.04-.49-.14Z"/><path class="b" d="M107.73,198.37l-.18,.13c.5-.52,1.11-.97,1.72-1.41-1.81,.45-3.76,1.19-3.27,3.49-.84-.67-2.31,.07-2.15,.28-.1,.37-.22,.71-.37,1.04,.11-.21,.22-.44,.31-.67-.09,.23-.2,.45-.31,.67-.94,2.06-2.83,3.4-4.82,4.76-1.09,.77-3.81,3.09-4.99,3.81-.17,.11-.33,.22-.49,.33l.6-.32c-.1,.19-.19,.38-.29,.57-.07,.12-.02,.12-.02,.16,.01,.03,.02,.07,.03,.1,.04,.14,.04,.3,.02,.45,.09,.13,.15,.27,.33,.39h-.14c.11,.51-.17,.75-.32,1.02,0-.29-.12-.29-.23-.34l.05,.18c-.44-.1-.81-.37-1.12-.64-.04-.04-.02-.14,.01-.21-.07,.01-.38-.18-.6-.3,.25-.19-.3-.65,.11-.53-.69-.14-.97-.72-1.65-.84-1.5-1.39-3.17-2.79-4.97-4.05l-.05,.12c-.65-.42-1.55-.53-1.98-1.37-.74-.24-1.49-.83-2.16-.63-.54-.55-.99-.59-1.58-1.09-.14,.35-.75-.35-.73,.09-.05,.67,.27,.46,.25,1.03l.08-.08c.85,1.88,1.94,3.63,3.21,5.26,1.12,.84,1.97,2.08,3.03,3.04,1.16,1.01,2.51,2.01,3.65,2.69,.12,.05,.28,.25,.38,.44,.11,.2,.2,.41,.32,.62,.81,.52,1.64,1.33,2.6,1.61,.48,.16,1.03,.22,1.56,.15,.53-.07,1.01-.27,1.43-.54-.03,.02-.07,.03-.09,.03,.89-.51,1.68-.84,2.5-1.72-.06-.07,.06-.2,.09-.29,.05,.02,.16-.05,.3-.18,.09-.08,.2-.2,.31-.36,.24-.31,.52-.75,.8-1.19,.56-.89,1.12-1.8,1.29-1.8,.04-.06,.08-.13,.12-.19,1.17-.87,2.81-1.32,3.65-2.24,.05-.33,.15-.67,.16-.99,.28-.02,.07-.3,.29-.45,1.07,.14,1.11-.39,.65-.36,.32-.47,.77-.8,1.1-1.16,.11-.2,.23-.41,.35-.62,.09-.19,.26-.17,.47-.1,.27-.43,.31-.18,.75-.48,.3,.12,.61-1.25,.78-1.29l-.03,.09c.47-.38,1.16-.25,1.6-.65,1.33-.99,2.46-2.39,3.62-3.38-.21-.23-.19,.28-.49,0,.68-.59,1.6-.94,2.28-1.53,.18-.05,.43-.08,.55-.06,.29-.12,.02-.23,.2-.34l.22,.18c.06-.38,.54-.09,.67-.38-.07-.09,0-.18,.08-.24,.21,.21,.21-.24,.39-.03v-.02s.05-.08,.14-.1c.01-.16,.24-1.52,.24-1.69h.07c.11-.13,0-.33-.1-.3l.16-.13v.03l.16-.13s.17,.06,.22,.2c.01-.15,.06-.29,.18-.33-.36,.09-.83,.18-1.28,.2,.03-.17,.32-.23,.4-.36,.27,.02,.65-.12,.94-.22,.03-.06-.17-.32,.04-.32,.21,.12,.11-.12,.31-.08-.01,.18-.15,.24-.25,.32,.21,.18,.37-.1,.5-.12-.02-.1,.23-.22,.3-.39,.13,.24,.21,.02,.38,.06,.1-.06,.08-.18-.02-.22-.17-.23-.44,.19-.53-.13,.13,.07,.25-.12,.33-.21-.11-.11-.14-.03-.19-.19,.12-.07,.09-.3,.26-.24,.01,.05-.05,.07-.08,.09,.13-.11,.03,1.37,.13,1.15-.14-.06,.07-1.34-.02-1.27-.13,.02-.14-.25-.26-.22l.04,.22c-.15,.06-.38-.09-.41-.2,.2-.16,.23,1.25,.27,.99h-.11c0-.13,.11-.36,.29-.31-.11-.11-.06-.23-.02-.34h.04c.02-.13,.15-.21-.04-.31-.42,.44-.79-1.39-1.28-1.04,.41,.07,.18,.31,.02,.52-.1-.06-.3-.1-.49-.04-.1,.13,.02,.15,.05,.24-.12,0-.28,.08-.39-.06,.06,.24-.24,.04-.3,.2-.03,.16,.07,.06,.07,.2-.16,.12-.38,.3-.52,.38-.16-.08-.5-.16-.58-.44,.24-.19,.21,.38,.4,.12-.36-.18,.13-.27-.03-.52-.19-.05-.34,.09-.43,.24h.06c-.07,.15-.23,.42-.49,.39-.07-.12-.19-.14-.13-.25l-.17,.13s.02,.1,.09,.08c0,.14-.11,.17-.22,.16-.11-.09-.38,1.19-.41,1.11-.1,.11-.28-.02-.28,.18,.07,.09,.69-1.34,.58-1.17-.2-.02-.72,1.68-.97,1.56-.07,.08-.15,.2-.03,.28-.18,.08-.15-.23-.34-.24,.01,.02,.06,.04,.02,.07l-.22-.04c-.05,.36-.56,.45-.57,.87-.05-.17-.16-.44-.12-.67l.08,.03c-.01-.05,.07-.2-.03-.3-.2,.06-.3,.19-.34,.43-.05,0-.11,0-.16,0l.04,.04c-.11-.02-.11-.03-.14-.09,0,0-.01-.02-.01-.03-.38-.22-.34,.7-.73,.78-.03,.11,.04,.06,0,.2-.36,.12-.62,.2-.95,.38,.04,.21,.09,.27,.32,.31l-.24,.15c-.16-.52-.69,.03-.82-.51-.13-.02-.27,.08-.32,.24,.07,.1,.19,.25,.05,.39-.3,.07-.22,.07-.48,.11-.15-.08-.13-.18-.23-.26-.11,.38-.45-.04-.66,.21-.11,.17-.39,.47-.2,.67-.2,.18-.35,.04-.48-.14Z"/><path class="d" d="M180.35,103.17l-.25-.03c.79-.04,1.63,.04,2.46,.13-1.82-.89-3.95-1.67-5.29,.35-.17-1.06-1.92-1.52-1.95-1.25-.36,.2-.72,.37-1.09,.5,.25-.08,.5-.17,.75-.27-.25,.1-.5,.19-.75,.27-2.32,.86-4.87,.54-7.5,.15-1.46-.19-5.42-.4-6.91-.71l-.65-.11,.72,.19c-.91,.28-1.74,.56-2.54,.74,.14,.15,.16,.3,.5,.51l-.41-.1c-.37,.44-1.23,.42-1.63,.6,.09-.23-.23-.28-.51-.31l.11,.15c-1.06-.1-2.3,.08-3.25,.04-.13,0-.23-.09-.29-.17l-.91,.17c.07-.31-.75-.28-.32-.47-.69,.36-1.38,.13-2.03,.5-2.33,.02-4.8,.21-7.22,.68l.06,.12c-.85,.19-1.6,.78-2.62,.55-.74,.4-1.79,.59-2.09,1.22-.85,.07-1.19,.38-2.03,.53,.2,.32-.82,.36-.42,.62,.54,.46,.58,.08,1.04,.45v-.11c2.16,.54,4.34,.86,6.55,1.06,1.48-.25,3.08,0,4.62-.05,1.65-.09,3.45-.28,4.87-.53,.34-.09,.58,.18,.87,.33,1.3-.13,2.96-.02,4.43-.18-.03,0-.05,0-.07-.01,.78-.05,1.37,.28,2.13,.22,0-.09,.11-.1,.17-.14,.13,.43,4.49-.89,4.76-.65,.08-.02,.16-.04,.24-.05,1.61,.18,3.28,.99,4.66,.9,.3-.2,.63-.38,.88-.61,.25,.18,.29-.17,.58-.13,.76,.84,1.19,.48,.8,.18,.61-.12,1.23-.06,1.78-.09,.25-.07,.5-.14,.76-.21,.22-.07,.34,.05,.45,.25,.55-.13,.39,.08,.98,.16,.15,.3,1.45-.5,1.62-.41l-.09,.05c.67,.04,1.13,.6,1.79,.62,1.83,.18,3.83-.09,5.53-.03,0-.31-.37,.08-.4-.33,1,.03,2.02,.38,3.03,.41,.18,.08,.41,.23,.5,.32,.33,.11,.19-.15,.42-.12l.04,.28c.34-.24,.51,.29,.84,.17,.01-.11,.13-.13,.25-.13,.02,.3,.35-.03,.35,.24v-.02c.07,0,.12-.02,.21,.03,.13-.11,1.34-.96,1.47-1.1l.06,.05c.18-.02,.26-.24,.15-.29h.23l-.03,.03h.23s.1,.17,.04,.3c.12-.11,.27-.17,.4-.12-.36-.17-.82-.41-1.2-.7,.15-.11,.43,.04,.6,0,.21,.19,.62,.34,.94,.47,.07-.02,.11-.35,.27-.21,.09,.23,.18-.01,.32,.15-.15,.13-.3,.08-.45,.07,.04,.27,.38,.17,.51,.24,.05-.09,.35,0,.54-.09-.07,.26,.16,.16,.27,.3,.13,.03,.2-.08,.15-.17,.03-.28-.51-.15-.34-.45,.05,.14,.3,.08,.43,.06,0-.15-.09-.11-.01-.26,.15,.03,.3-.16,.39,0-.03,.04-.09,.02-.13,.02,.19,0-1,1.04-.76,.95-.07-.13,1.06-.95,.93-.96-.12-.07,.07-.28-.05-.33l-.13,.19c-.17-.05-.25-.32-.19-.43,.28,.01-.75,1.08-.52,.92l-.1-.07c.1-.1,.36-.2,.47-.04,0-.15,.13-.21,.24-.27l.04,.02c.11-.08,.28-.05,.19-.25-.68,.05,.39-1.57-.27-1.63,.29,.33-.08,.35-.37,.4-.03-.11-.17-.28-.38-.36-.18,.03-.1,.13-.13,.21-.1-.07-.3-.13-.28-.31-.13,.22-.23-.13-.4-.05-.14,.1,.01,.09-.09,.2-.22-.01-.54-.03-.72-.07-.07-.16-.29-.45-.15-.71,.34,.02-.11,.42,.24,.36-.16-.37,.31-.12,.36-.41-.12-.17-.34-.16-.53-.11l.04,.05c-.17,.06-.5,.15-.68-.05,.04-.13-.04-.23,.08-.27l-.23-.02s-.06,.09,.01,.12c-.1,.11-.22,.05-.3-.02-.03-.14-1.2,.63-1.17,.54-.17,0-.21-.2-.37-.05-.01,.12,1.57-.53,1.35-.48-.15-.15-1.85,.77-1.97,.5-.12,.01-.27,.05-.24,.19-.21-.06,.05-.27-.1-.4,0,.02,.01,.07-.03,.07l-.15-.18c-.32,.23-.8-.04-1.13,.26,.09-.16,.2-.43,.41-.58l.04,.07s.21-.1,.2-.24c-.21-.09-.38-.06-.6,.09-.04-.04-.09-.07-.12-.11v.06c-.07-.09-.06-.1-.04-.16,0-.01,0-.02,.01-.03-.14-.41-.8,.29-1.18,.08-.11,.06,0,.07-.14,.16-.39-.16-.66-.28-1.06-.36-.12,.18-.13,.26,.03,.44l-.31-.05c.26-.49-.58-.44-.29-.93-.09-.11-.27-.12-.44-.04-.01,.12-.04,.32-.25,.32-.3-.15-.23-.1-.48-.25-.06-.16,.03-.22,.01-.35-.38,.21-.34-.33-.7-.3-.22,.05-.67,.08-.67,.36-.3,0-.31-.21-.28-.43Z"/><path class="d" d="M179.12,157.84l-.24-.03c.78-.03,1.59,.06,2.4,.16-1.77-.92-3.83-1.72-5.17,.28-.16-1.06-1.85-1.54-1.89-1.28-.35,.2-.71,.35-1.07,.49,.25-.08,.5-.16,.74-.26-.24,.1-.49,.19-.74,.26-2.28,.83-4.77,.46-7.33,.03-1.42-.21-5.28-.5-6.73-.83l-.63-.12,.7,.2c-.89,.27-1.71,.52-2.49,.69,.13,.16,.15,.3,.48,.52l-.4-.11c-.37,.43-1.21,.4-1.61,.57,.09-.23-.22-.28-.49-.32l.1,.16c-1.04-.12-2.25,.04-3.17-.02-.13,0-.22-.09-.28-.17l-.9,.15c.08-.31-.73-.29-.3-.48-.68,.34-1.35,.1-1.99,.45-2.27-.03-4.69,.1-7.07,.51l.05,.12c-.83,.17-1.59,.74-2.58,.49-.73,.38-1.76,.54-2.08,1.17-.83,.04-1.18,.35-2,.47,.19,.33-.81,.34-.42,.61,.51,.47,.56,.1,1,.48v-.11c2.1,.6,4.22,.97,6.38,1.22,1.46-.21,3.01,.08,4.52,.05,1.62-.05,3.38-.2,4.77-.42,.33-.08,.56,.19,.84,.35,1.28-.1,2.9,.04,4.34-.09-.03,0-.05,0-.07-.01,.77-.04,1.33,.3,2.08,.26,0-.09,.11-.09,.17-.14,.12,.43,4.41-.81,4.67-.56,.08-.02,.16-.04,.24-.05,1.57,.21,3.19,1.05,4.55,.98,.29-.2,.63-.37,.87-.6,.24,.18,.29-.17,.57-.12,.73,.85,1.16,.5,.78,.2,.6-.11,1.21-.04,1.74-.07,.24-.07,.49-.13,.74-.2,.21-.07,.33,.05,.44,.26,.54-.12,.38,.09,.95,.17,.14,.3,1.43-.48,1.59-.39l-.09,.04c.66,.05,1.1,.62,1.75,.64,1.79,.2,3.75-.04,5.41,.04,.01-.31-.36,.08-.39-.34,.98,.04,1.97,.41,2.96,.44,.18,.08,.4,.23,.48,.33,.32,.11,.18-.15,.42-.12l.04,.28c.33-.24,.5,.3,.82,.18,.01-.11,.13-.13,.24-.12,.01,.3,.35-.03,.34,.24v-.02c.07,0,.12-.02,.2,.03,.13-.11,1.32-.95,1.45-1.08l.06,.05c.18-.01,.25-.24,.15-.29h.22l-.03,.03h.22s.09,.17,.03,.31c.12-.11,.26-.17,.39-.12-.36-.17-.8-.42-1.17-.71,.15-.11,.42,.04,.59,0,.2,.19,.6,.35,.92,.47,.07-.02,.11-.35,.27-.21,.08,.23,.18-.01,.31,.15-.15,.13-.29,.08-.44,.07,.03,.27,.37,.17,.49,.25,.05-.09,.35,0,.53-.09-.07,.26,.15,.16,.26,.3,.12,.03,.2-.08,.15-.17,.03-.28-.49-.16-.33-.46,.05,.14,.29,.08,.42,.07,0-.15-.09-.11-.01-.26,.15,.03,.29-.16,.38,0-.03,.04-.09,.02-.13,.02,.19,.01-.99,1.04-.75,.94-.07-.14,1.04-.94,.92-.95-.12-.07,.07-.28-.05-.33l-.13,.19c-.16-.05-.24-.32-.18-.43,.27,.02-.74,1.07-.51,.91l-.1-.07c.1-.1,.36-.2,.46-.04,0-.15,.13-.21,.24-.27l.04,.02c.11-.08,.27-.05,.19-.25-.66,.04,.39-1.56-.26-1.63,.28,.33-.08,.35-.36,.39-.03-.11-.16-.28-.37-.36-.18,.03-.1,.13-.13,.21-.1-.07-.29-.13-.27-.31-.13,.21-.22-.13-.39-.05-.14,.1,.01,.09-.09,.2-.22-.02-.52-.04-.7-.07-.07-.16-.28-.45-.14-.71,.33,.03-.11,.42,.23,.36-.16-.38,.3-.11,.36-.4-.11-.17-.34-.16-.52-.11l.04,.05c-.16,.05-.49,.14-.67-.06,.04-.13-.04-.23,.08-.27l-.23-.02s-.06,.09,0,.12c-.1,.11-.21,.05-.29-.03-.03-.14-1.18,.62-1.15,.53-.16,0-.21-.2-.36-.06-.01,.12,1.54-.52,1.32-.47-.14-.15-1.82,.75-1.93,.48-.12,.01-.26,.05-.23,.19-.2-.06,.05-.27-.09-.4,0,.02,.01,.07-.03,.07l-.14-.18c-.31,.23-.78-.05-1.1,.25,.09-.16,.2-.43,.41-.58l.04,.07s.2-.1,.2-.24c-.2-.09-.38-.06-.58,.08-.04-.04-.09-.08-.12-.11v.06c-.07-.09-.06-.1-.04-.16,0-.01,0-.02,.01-.03-.13-.42-.79,.28-1.16,.07-.11,.06,0,.07-.14,.15-.38-.16-.64-.28-1.04-.37-.12,.18-.13,.25,.02,.44l-.3-.05c.26-.49-.56-.45-.27-.93-.09-.11-.27-.13-.43-.05-.01,.12-.04,.32-.25,.32-.29-.16-.22-.1-.47-.25-.06-.16,.03-.22,.02-.35-.37,.21-.33-.34-.68-.3-.22,.05-.65,.07-.66,.35-.3,0-.3-.21-.27-.44Z"/><path class="d" d="M179.72,208.87l-.24-.03c.79-.02,1.61,.08,2.43,.19-1.77-.94-3.86-1.77-5.23,.23-.15-1.06-1.87-1.55-1.9-1.29-.36,.19-.72,.35-1.08,.48,.25-.08,.5-.16,.75-.26-.25,.1-.5,.19-.75,.26-2.31,.82-4.82,.47-7.42,.06-1.44-.2-5.35-.43-6.83-.74-.21-.04-.43-.07-.64-.1q.36,.1,.72,.19c-.9,.28-1.72,.56-2.51,.74,.14,.15,.16,.3,.49,.51l-.4-.1c-.37,.44-1.21,.42-1.61,.61,.09-.23-.23-.28-.5-.31l.11,.15c-1.05-.1-2.27,.09-3.21,.06-.13,0-.23-.09-.29-.17l-.9,.18c.07-.31-.75-.27-.32-.47-.67,.37-1.36,.14-2,.52-2.3,.05-4.74,.28-7.11,.8l.06,.11c-.83,.21-1.56,.81-2.57,.61-.72,.41-1.75,.63-2.03,1.27-.83,.09-1.16,.41-1.98,.58,.21,.32-.79,.39-.39,.63,.54,.45,.57,.07,1.03,.43v-.11c2.13,.48,4.28,.75,6.45,.9,1.45-.27,3.02-.05,4.53-.13,1.62-.12,3.38-.32,4.77-.59,.33-.09,.57,.18,.86,.32,1.28-.14,2.91-.04,4.35-.21-.03,0-.05,0-.07-.01,.77-.05,1.34,.27,2.09,.22,0-.09,.11-.1,.17-.14,.13,.42,4.41-.88,4.68-.64,.08-.02,.16-.04,.24-.05,1.58,.19,3.22,1.01,4.58,.94,.29-.2,.63-.37,.87-.6,.24,.18,.29-.17,.58-.12,.73,.85,1.16,.49,.79,.19,.6-.11,1.21-.04,1.75-.07,.25-.06,.5-.13,.75-.2,.21-.07,.33,.05,.44,.26,.55-.12,.38,.09,.96,.17,.14,.3,1.43-.47,1.6-.38l-.09,.04c.66,.05,1.1,.63,1.75,.65,1.8,.22,3.76,0,5.42,.1,.02-.31-.37,.07-.39-.34,.98,.05,1.97,.44,2.96,.49,.18,.08,.4,.24,.48,.34,.32,.12,.19-.15,.42-.11l.03,.28c.34-.23,.5,.31,.81,.19,.02-.11,.13-.13,.25-.12,0,.3,.35-.02,.33,.25v-.02c.07,0,.12-.01,.2,.04,.13-.1,1.35-.92,1.48-1.05l.06,.05c.18,0,.26-.23,.15-.28l.22,.02-.03,.02,.22,.02s.09,.16,.02,.3c.13-.1,.27-.16,.39-.11-.35-.18-.79-.44-1.16-.74,.15-.1,.42,.06,.59,.02,.2,.2,.6,.36,.91,.5,.07-.02,.12-.35,.27-.2,.08,.23,.18,0,.31,.16-.15,.12-.29,.07-.45,.06,.03,.27,.37,.18,.49,.26,.06-.09,.35,0,.53-.07-.08,.26,.15,.17,.26,.31,.12,.03,.2-.07,.15-.17,.04-.28-.49-.17-.32-.47,.05,.14,.29,.09,.42,.08,0-.15-.09-.12,0-.26,.15,.03,.3-.15,.38,0-.03,.04-.09,.02-.13,.01,.19,.02-1.02,1.01-.78,.92-.06-.14,1.07-.92,.95-.93-.11-.08,.08-.28-.04-.33l-.13,.19c-.16-.06-.23-.33-.17-.43,.27,.02-.77,1.05-.54,.9l-.09-.07c.1-.1,.36-.19,.46-.03,0-.15,.13-.21,.24-.26l.04,.03c.11-.08,.27-.04,.2-.24-.67,.02,.44-1.55-.21-1.64,.27,.34-.09,.35-.38,.38-.03-.11-.15-.28-.36-.37-.18,.03-.1,.12-.14,.21-.1-.08-.29-.14-.26-.32-.14,.21-.22-.13-.39-.06-.15,.1,0,.09-.09,.19-.22-.02-.53-.05-.7-.09-.07-.17-.27-.46-.12-.72,.33,.04-.13,.42,.22,.36-.15-.38,.31-.1,.37-.39-.11-.17-.33-.17-.52-.13l.04,.05c-.16,.05-.49,.13-.67-.07,.04-.13-.04-.23,.09-.27l-.23-.03s-.06,.09,0,.12c-.11,.1-.21,.05-.3-.03-.02-.14-1.21,.59-1.17,.51-.16,0-.2-.21-.36-.06-.02,.11,1.56-.48,1.35-.44-.14-.15-1.85,.71-1.95,.44-.12,.01-.27,.04-.24,.18-.2-.07,.06-.27-.08-.41,0,.02,.01,.07-.03,.07l-.14-.18c-.32,.22-.78-.07-1.12,.23,.1-.16,.21-.43,.42-.57l.04,.08s.21-.09,.2-.24c-.2-.1-.38-.07-.59,.07-.04-.04-.09-.08-.12-.12,0,.02,0,.03,0,.06-.07-.09-.06-.1-.04-.16,0-.01,0-.02,.01-.03-.13-.42-.8,.27-1.17,.05-.11,.06-.01,.07-.15,.15-.38-.17-.64-.29-1.04-.39-.13,.18-.14,.25,.02,.44l-.3-.06c.27-.48-.56-.46-.26-.94-.09-.11-.27-.13-.44-.05-.02,.12-.04,.32-.25,.31-.29-.16-.22-.1-.47-.26-.06-.16,.03-.22,.02-.34-.38,.2-.33-.34-.68-.31-.22,.05-.66,.07-.67,.34-.3-.01-.3-.21-.27-.44Z"/></svg>