<?xml version="1.0" encoding="UTF-8"?><svg id="a" xmlns="http://www.w3.org/2000/svg" viewBox="0 0 276.77 280.34"><defs><style>.b{fill:#005bea;}.c{fill:#65dff6;}.d{fill:#0b1f65;}</style></defs><g><path class="b" d="M254.72,176.78c2.67,2.78,5.34,5.58,7.53,8.75,1.4,2.03,2.65,4.47,2.09,6.87-.33,1.38-1.23,2.57-2.27,3.53-1.38,1.27-3.16,2.24-5.03,2.21-2.29-.03-4.29-1.48-6.07-2.94-11.76-9.62-21.21-21.73-32.19-32.23-1.39-1.33-2.92-2.91-2.75-4.82,.08-.93,.57-1.78,1.08-2.57,1.54-2.37,3.63-4.66,6.29-5.76,3.42-1.42,4.61,.34,6.99,2.63,5.27,5.07,10.48,10.2,15.63,15.4,2.92,2.95,5.82,5.92,8.7,8.92Z"/><path class="b" d="M254.86,196.21c-.15-.07-.29-.16-.44-.24,1.47,.81,2.93,1.1,4.46,.51-1.75,.49-3.25-.12-4.87-1.22-.8-.54-1.6-1.15-2.42-1.72-.81-.57-1.63-1.02-2.41-1.38,.04-.32-.66-1.2-1.39-2-.72-.81-1.46-1.54-1.54-1.52-.69-.5-1.36-1.05-2.04-1.61l1.38,1.15-1.38-1.15c-4.26-3.54-8.25-8.08-12.37-12.8-1.15-1.3-3.31-3.71-5.52-6.1-2.21-2.39-4.48-4.75-5.73-6.06l-1.04-1.09,1.14,1.24c-.85-.74-1.6-1.32-2.17-1.94-.57-.6-.92-1.19-1.01-1.7-.05,.2-.15,.23-.06,.79-.07-.22-.13-.44-.13-.64-.16-.26-.21-.72-.02-1.27,.18-.55,.55-1.16,.77-1.57-.01,.23,.4-.36,.79-.85l-.21,.16c1.42-1.93,3.45-3.87,5.37-4.51,.26-.11,.46-.11,.59-.1,.57-.19,1.09-.25,1.58-.16-.07,.07,.21,.16,.41,.31,.21,.13,.34,.24,0,.1,1.12,.37,2.23,1.84,3.48,2.75,3.95,3.86,8.22,7.91,12.47,11.73l-.06-.14c1.49,1.34,2.99,2.33,4.61,4.16,1.36,1.1,3.16,2.79,3.88,3.06,1.43,1.4,2.11,1.86,3.54,3.22-.24-.47,1.47,1.24,.89,.46-.75-1.09-.94-1.01-1.58-1.93l-.02,.06c-3.45-3.87-6.94-7.7-10.65-11.41-2.59-2.36-5.22-5.11-7.84-7.63-1.42-1.34-2.89-2.74-4.32-4.09-.71-.65-1.4-1.37-2.32-2.01-.88-.66-2.2-1.12-3.3-.99-1.03,.11-1.71,.21-2.48,.42-1.64,.7-3.25,1.88-4.58,3.3-.67,.71-1.28,1.48-1.83,2.27-.53,.79-1.07,1.56-1.47,2.62l.08-.2c-.46,1.06-.55,2.34-.24,3.37,.29,1.04,.83,1.89,1.5,2.65,.03-.03,.24,.2,.35,.29,.01,.1,.56,.68,1.32,1.35,.75,.68,1.73,1.57,2.73,2.48,1.99,1.81,3.96,3.7,4.14,3.97l.42,.4c2.55,2.82,4.92,5.99,7.19,8.36,.56,.45,1.17,.98,1.66,1.34,.33,.48,.54,.44,1,.97,.91,1.58,1.77,2.21,1.24,1.44,1.05,1.02,2.05,2.09,2.97,3.01l1.35,1.21c.39,.34,.55,.59,.67,.84,.99,.88,.64,.68,1.61,1.68,.13,.35,2.71,2.21,2.97,2.51l-.18-.14c1.19,1.08,1.78,2.03,3,3.05,.82,.72,1.65,1.47,2.63,2.18,.97,.7,2.07,1.38,3.35,1.79,1.27,.42,2.77,.49,4.05,.14,1.29-.33,2.39-.94,3.31-1.62-.05-.15-.81,.62-.98,.46,1.17-.7,2.19-1.53,3.1-2.59,.9-1.04,1.65-2.5,1.73-4.07,.07-.55,.09-1.23,.1-1.48-.11-.95-.17-.54-.32-1.21l.11-.13c-.41-.9-.34-1.4-.79-2.17-.07-.01-.22-.3-.37-.56,.12-.09-.49-.8-.35-.83h-.01c-.1-.15-.17-.26-.27-.45-.22-.3-2.37-2.48-2.64-2.67l-.08-.13c-.29-.35-.5-.42-.35-.2l-.35-.43,.05,.04-.35-.42c-.06-.09-.08-.22,.07-.14-.24-.21-.49-.45-.68-.7,.5,.71,1.1,1.61,1.55,2.42-.27-.26-.64-.83-.91-1.12-.23-.43-.82-1.23-1.28-1.85-.12-.12-.32-.09-.52-.43-.04-.21-.29-.31-.45-.6,.29,.23,.51,.51,.76,.78,.06-.14-.54-.73-.71-.97-.12-.07-.58-.62-.91-.92,.23,.05-.19-.32-.32-.56-.2-.23-.37-.33-.31-.21-.17,.03,.76,.92,.37,.72-.03-.13-.45-.54-.67-.76-.06,.05,.11,.2-.09,.1-.23-.27-.55-.47-.64-.67,.06,.03,.15,.15,.22,.22-.31-.34,2.08,1.44,1.63,1.05,.06,.15-2.13-1.57-1.92-1.34,.16,.23-.24-.05-.06,.18l.29,.17c.25,.3,.27,.51,.13,.45-.45-.49,1.68,.99,1.23,.64l.13,.19c-.2-.14-.67-.57-.79-.81-.06,.05-.3-.16-.5-.34l-.06-.08c-.22-.17-.47-.46-.42-.26,1.13,1.16-1.29-.23-.24,.93-.33-.59,.28,.04,.77,.52,0,.09,.16,.37,.46,.76,.3,.3,.22,.14,.31,.17,.14,.2,.42,.55,.32,.57,.31,.17,.31,.44,.61,.71,.27,.23,.02-.05,.22,.1,.35,.4,.83,.96,1.09,1.3,.05,.18,.26,.65-.08,.46-.51-.61,.36,.09-.21-.52,.1,.39-.53-.52-.74-.53,.11,.26,.47,.66,.78,.98l-.04-.08c.28,.28,.82,.86,1.02,1.26-.12-.04-.04,.14-.23-.07l.34,.43c.06,.04,.12,.08,.03-.05,.2,.17,.34,.38,.43,.56,0,.07,1.98,2.13,1.87,2.1,.22,.32,.18,.46,.45,.74,.04,0-.52-.76-1.09-1.43-.57-.67-1.13-1.27-.96-1.07,.07,.16,.82,.98,1.51,1.84,.7,.85,1.26,1.79,1.26,1.93,.14,.26,.29,.57,.33,.48,.17,.46-.18-.08-.11,.26,.01,0,.02-.04,.06,.06l.03,.34c.38,.67,.47,1.76,.57,2.53-.07-.23-.2-.48-.33-.94l.03-.09c-.02-.07-.14-.45-.2-.42,.06,.45,.11,.83,.18,1.3l-.06,.25s.02,0,.03,0c-.06,.15-.06,.13-.09,.07,0,0,0-.02-.01-.03-.12,.13-.11,.54-.21,1.02-.09,.48-.3,1.02-.57,1.34-.11,.22,.02,.04-.12,.31-.57,.64-1.03,1.02-1.75,1.56-.16,.25-.16,.3,.17,.15-.18,.14-.37,.27-.56,.4,.36-.53-1.16,.5-.74-.07-.19,.05-.52,.23-.82,.41,0,.06-.01,.19-.43,.35-.61,.11-.46,.1-.96,.12-.13-.06,.04-.12,.01-.18-.71,.19-.63-.09-1.28-.12-.41,0-1.23-.26-1.31-.16-.57-.24-.52-.35-.42-.42Z"/></g><g><path class="c" d="M28.33,122.97c24.72,.42,27.54,.42,47.55-.32,1.92,25.15,2.38,48.42,1.38,73.63-.02,.57-.08,1.2-.5,1.57-.27,.24-.64,.32-.99,.39-8,1.61-16.14,.54-24.3,.79-5.29,.16-21.46,.09-21.46,.09,0,0-.39-15.15-.59-20.12-.35-8.71-.61-17.42-.79-26.14-.21-9.96-.31-19.92-.3-29.88Z"/><path class="c" d="M75.06,130.45l.05,1.02-.27-4.31-.14-2.19-.03-.57v-.38h-.5l.42,.07-.05,.43v.09s-.02,.02-.02,.17v.68l.08,2.74c.04,1.83,.13,3.67,.22,5.45,.2,3.56,.54,6.89,1.12,9.55-.49,.65-.45,7.85-.33,8,.14,1.49,.27,3,.37,4.53-.06-1.05-.14-2.1-.22-3.14,.08,1.04,.16,2.09,.22,3.14,.66,9.68,.49,20.22,.01,31.09l-.27,6.15-.09,1.92-.05,1-.02,.45v.08c-.03,.11-.14,.17-.24,.17l-.91,.15c-.33,.06-.67,.11-1,.15-5.37,.73-10.99,.36-14.09,.25l-2.72-.11,3.02,.16c-1.89,.03-3.71,.06-5.48,.12-.89,.03-1.76,.08-2.62,.12-.85,.03-1.68,.06-2.51,.09,.59,.07,.69,.15,2.08,.25l-1.69-.04c-1.53,.23-5.09,.23-6.76,.33,.36-.12-.96-.13-2.12-.15l.46,.07c-2.2-.02-4.58,0-6.91,.03-.94,.01-1.86,.02-2.75,.03h-.19c-.06,0-.15,.03-.13-.06v-.37l-.04-1c-.02-.55,.02-.96,.05-1.21l-.2-3.78c.16,.29,.04-3.14,.19-1.34-.27-2.83-.24-5.7-.51-8.4-.3-9.64-.76-19.88-1.29-29.84l-.05,.25c-.14-3.49-.47-6.56-.41-10.8-.24-3.03-.39-7.34-.72-8.54-.08-3.5-.26-4.89-.37-8.32-.16,.88-.22-3.33-.33-1.64-.2,2.28,0,2.4-.17,4.33l.05-.06c-.14,9.02-.23,18.05-.15,27.2,.32,6.1,.41,12.71,.64,19.05,.27,6.83,.58,14.18,.89,20.03,.09,1.39-.02,2.4-.06,3.59l.06,1.67,.03,.89,.02,.45v.23c.01,.07-.01,.17,.1,.14l3.5-.03,4.63-.03,9.43-.1h-.3c3.23-.03,5.67,.09,8.76,.05-.02-.05,.47-.04,.7-.07,.27,.08,4.86,.13,9.63,.03,2.38-.06,4.79-.24,6.67-.47,1.88-.22,3.22-.5,3.5-.52l.5-.11c.17-.03,.47-.09,.7-.17,.59-.16,1.13-.52,1.43-1.07,.15-.27,.25-.56,.31-.87,.06-.29,.08-.68,.1-.86l.16-2.51c.11-1.67,.22-3.33,.33-4.96,.21-3.26,.36-6.41,.38-9.27-.08-1.24-.15-2.64-.26-3.69,.1-1.01-.08-1.21-.04-2.42,.43-3.09,.25-4.91,.1-3.31l-.09-7.36-.15-3.15c-.05-.9,0-1.4,.09-1.85-.12-2.3,.02-1.62-.01-4.03,.14-.59-.43-6.03-.42-6.71l.04,.39c-.08-2.78,.12-4.65,0-7.37-.1-2.86-.26-5.82-.45-8.77-.25-3.42-.49-6.84-.73-10.12-2.31,.08-4.56,.15-6.71,.23-.06,.16,1.54-.09,1.63,.11-4.12,.12-8.28,.07-12.43,.13-.75-.02-1.67-.09-2.01-.13-1.33-.04-.78,.09-1.75,.08l-.13-.14c-1.42,.13-2.07-.13-3.41-.07-.07,.06-.56,.07-1.03,.06-.02-.15-1.46,0-1.39-.13h-.01c-.29,0-.49,.02-.84,0l-6.2,.47-.26-.03c-.76,0-1.09,.1-.65,.13l-.94-.02h.11l-.94-.03c-.17-.02-.37-.09-.1-.15-.53,.04-1.13,.06-1.66,.03,1.48,.12,3.31,.27,4.85,.44-.64,.04-1.78-.05-2.47-.04-.82-.11-2.51-.22-3.82-.3-.29,0-.49,.17-1.14,.08-.32-.12-.74,0-1.28-.1,.63-.05,1.24-.01,1.87,0-.11-.14-1.54-.12-2.04-.16-.24,.04-1.46-.02-2.23,0,.34-.12-.62-.09-1.08-.17-.52-.02-.85,.02-.64,.07-.17,.14,2.06,.12,1.34,.26-.19-.07-1.21-.06-1.75-.07,0,.08,.37,.06,.02,.13-.61-.03-1.26,.05-1.6-.03,.11-.02,.37,0,.54,0-.79-.02,4.3-.43,3.28-.4,.27,.07-4.52,.38-3.99,.4,.48,.05-.35,.13,.15,.17l.56-.08c.68,.04,.96,.18,.72,.23-1.14-.03,3.26-.47,2.28-.41l.4,.04c-.42,.04-1.53,.07-1.95-.02,0,.08-.56,.09-1.03,.11l-.16-.02c-.48,.03-1.15,0-.84,.11,2.81,.03-1.86,.74,.86,.83-1.14-.19,.39-.17,1.58-.17,.11,.06,.65,.15,1.51,.21,.75,0,.44-.05,.58-.09,.41,.04,1.2,.09,1.1,.18,.58-.1,.93,.08,1.63,.06,.62-.04-.04-.05,.4-.09l2.95,.09c.28,.09,1.15,.25,.51,.37-1.4-.04,.54-.2-.92-.2,.62,.2-1.29,.03-1.55,.17,.46,.09,1.4,.11,2.19,.1l-.16-.03c.69-.01,2.08-.04,2.83,.08-.18,.06,.15,.12-.36,.13l.95,.02c.12-.02,.25-.04-.03-.06,.45-.05,.9-.01,1.25,.03,.1,.08,5.08-.25,4.92-.21,.69,0,.85,.11,1.52,.04,.02-.01-.38,0-.98,.01l-2.16,.07c-1.54,.05-2.97,.11-2.52,.1,.59,.1,7.79-.3,8.22-.18,.51,0,1.12-.02,1-.1,.86,.03-.26,.14,.36,.2,.01-.01-.05-.04,.15-.03l.59,.08c1.34-.12,3.3,0,4.69-.18-.4,.09-.86,.23-1.76,.32l-.16-.04c-.13,.02-.87,.06-.85,.13,.86,.03,1.59,.01,2.49-.08l.49,.05s-.02-.02-.01-.03c.3,.04,.26,.05,.16,.08-.01,0-.03,.01-.06,.02,.54,.2,3.36-.21,4.92-.15,.46-.04,.04-.04,.61-.09,1.6,.03,2.7,.06,4.37,.05,.53-.11,.57-.15-.08-.22h1.26c-1.14,.27,2.36,.13,1.11,.42,.37,.04,1.13,.03,1.83-.04,.1-.06,.15-.16,.65-.18l.49,.04c0,.16,0,.26-.03,.56-.07,.15-.11,0-.17,.05,.04,.15,.05,.27,.04,.37,0,.11,0,.37-.02,.51-.03,.34-.07,.66,0,1.4,.1,.93,.22,2.76,.36,2.8,.08,1.25-.02,1.26-.14,1.14Z"/></g><g><path class="b" d="M95.71,198.32c15.83,.87,31.71,.7,47.51-.5,.72-12.75,.63-25.53,.54-38.3-.15-21.24-.3-42.48-.45-63.73l-29.64,.78c-4.73,.12-9.51,.47-14.24,.3-1.79-.06-2.64-.28-3.02,1.64-.44,2.22-.02,4.98-.03,7.26-.08,19.85-.2,39.71-.36,59.56-.02,2.76-.51,32.99-.31,33Z"/><path class="b" d="M145.16,178.57l.02-1.24c-.01,4-.13,8.21-.32,12.36,.77-9.01,1.14-19.68,.09-26.63,.53-.76,.71-9.49,.58-9.67-.11-1.81-.2-3.65-.28-5.5,.05,1.27,.11,2.54,.16,3.81-.05-1.26-.1-2.53-.16-3.81-.49-11.73-.4-24.49-.29-37.68,0-3.51,.02-9.58,.03-16.16-4.39,.08-8.99,.16-13.11,.24-3.57,.04-6.73,.08-8.89,.11l-3.27,.03h3.64c-4.58,.26-8.73,.5-12.73,.73,.71,.05,.84,.11,2.53,.17l-2.06,.02c-1.87,.29-6.15,.47-8.14,.56,.43-.12-1.15-.12-2.53-.17l.55,.09-2-.07-.57-.02c-.22,0-.52,0-.77,.04-.53,.06-1.04,.28-1.42,.66-.38,.38-.61,.88-.76,1.4-.14,.53-.18,.86-.23,1.26-.09,.78-.1,1.53-.08,2.26,.03,1.46,.17,2.85,.19,4.12v3.79c-.02,.66-.06,1.16-.11,1.46l.06,4.57c-.15-.35-.16,3.79-.24,1.61,.16,3.42,.03,6.89,.2,10.16-.05,11.66,0,24.06,.18,36.11l.06-.29c.09,4.22,.31,7.94,.14,13.07,.15,3.66,.2,8.87,.5,10.34,0,4.22,.13,5.92,.21,10.05,.08-.54,.12,.48,.18,1.34l.02,.31v.12s.02,.1,.01,0c-.01-.11-.07-.27-.2-.41-.23-.06-.51,.15-.58,.35-.02,.05-.04,.11-.05,.16v.1c-.06,.79,.05-1.04,.04-.86h.4c.09-.02,.12-.03,.06-.04-.03,0-.08-.02-.15-.03l-.13-.02h-.08l-.04-.02h-.04c-.02,.43,.05-.99-.06,.98,0-.21,.1-.43,.3-.55,.1-.06,.23-.1,.37-.1h.1s.03,.04,.05,.06c.03,.04,.05,.08,.07,.11,.04,.08,.06,.15,.07,.21,.01,.07,.02,.13,.02,.1v-.12l.02-.21,.02-.42,.03-.72,.02-1.12c0-.67,0-1.29,.1-2.45l-.05,.07c.31-10.88,.69-21.77,.83-32.82-.09-7.37,.07-15.35,.07-23.01,0-8.24-.06-17.16-.15-24.24-.04-1.69,.11-2.9,.19-4.34v-2.52c0-.87-.04-1.84-.09-2.73-.05-.9-.11-1.8-.1-2.67,0-.43,.02-.86,.06-1.28,.04-.39,.12-.89,.16-.99,.04-.14,.12-.29,.27-.34,.19-.05,.17-.05,.69-.03,.97,.04,1.95,.06,2.92,.06,1.94,0,3.85-.06,5.69-.15h-.36c3.92-.18,6.79-.11,10.61-.23-.02-.04,.57-.06,.86-.09,.33,.1,5.93-.16,11.61-.43l7.94-.37,2.8-.11,.7-.02c.12,0,.2,0,.23,0l.58-.04v.04c-.07,3.68-.14,7.45-.2,11.09-.08,3.94-.15,7.75-.11,11.19,.11,1.5,.21,3.18,.33,4.44-.08,1.22,.1,1.45,.08,2.92-.4,3.73-.21,5.92-.07,3.99,.08,3.07,.06,6.15,.1,8.88l.13,3.8c.04,1.08-.02,1.69-.11,2.23,.08,2.77-.03,1.96-.05,4.86-.14,.7,.29,7.29,.25,8.11l-.03-.47c0,3.36-.27,5.6-.27,8.88-.06,9.12,0,19.07-.45,27.48,.15,.09,.05-1.86,.25-1.95l-.15,2.72-.04,.68-.02,.32v.11l-.06,.4h-.57l-.59,.03-2.38,.11-4.76,.2c-.9,0-2.01-.02-2.43-.06-1.6,0-.94,.11-2.11,.14l-.16-.13c-1.71,.18-2.51-.07-4.12,.03-.08,.06-.67,.08-1.24,.09-.03-.15-1.76,.05-1.68-.09h-.02c-.35,.01-.59,.03-1.01,0-.65,.09-6.8,.51-7.47,.56l-.31-.03c-.92,0-1.32,.1-.78,.13l-1.14-.02h.13l-1.13-.03c-.21-.02-.44-.09-.12-.15-.64,.04-1.36,.06-2,.02,1.76,.13,3.95,.3,5.85,.45-.77,.05-2.15-.05-2.98-.04-.99-.12-3.02-.23-4.6-.34-.35,0-.59,.16-1.38,.07-.38-.12-.89-.03-1.54-.13,.76-.03,1.49,.02,2.26,.04-.13-.13-1.86-.14-2.46-.21-.28,.03-1.76-.06-2.68-.07,.41-.11-.74-.11-1.29-.21-.62-.04-1.02-.01-.77,.05-.21,.14,2.48,.19,1.6,.3-.23-.08-1.45-.1-2.11-.14-.01,.08,.45,.08,.02,.13-.73-.05-1.51,0-1.93-.1,.14-.01,.44,.01,.65,.03-.95-.05,5.19-.26,3.95-.27,.32,.09-5.45,.2-4.82,.23,.58,.07-.42,.12,.18,.18l.67-.06c.82,.07,1.15,.22,.86,.26-1.38-.07,3.94-.34,2.76-.32l.48,.06c-.5,.03-1.84,.02-2.35-.09,0,.08-.68,.07-1.24,.07l-.2-.02c-.58,0-1.38-.05-1.01,.07,3.38,.16-2.27,.66,1.01,.87-1.37-.24,.47-.15,1.92-.1,.14,.06,.78,.17,1.81,.26,.9,.03,.53-.04,.71-.07,.5,.06,1.45,.12,1.32,.21,.71-.08,1.12,.11,1.96,.1,.74-.03-.05-.05,.48-.08,1.11,.04,2.67,.1,3.56,.13,.34,.09,1.38,.26,.62,.37-1.69-.05,.65-.2-1.11-.2,.75,.21-1.56,.02-1.88,.15,.56,.1,1.69,.13,2.64,.12l-.19-.03c.84,0,2.51-.02,3.42,.09-.21,.06,.18,.12-.43,.13l1.15,.02c.15-.02,.3-.04-.04-.06,.54-.04,1.09-.02,1.51,.02,.13,.08,6.13-.31,5.95-.28,.83-.01,1.03,.09,1.84,0,.02-.01-.46,0-1.19,.03l-2.61,.11c-1.86,.08-3.59,.14-3.04,.13,.71,.11,9.41-.44,9.93-.34,.61-.02,1.36-.06,1.21-.13,1.04,0-.31,.15,.43,.19,.02-.01-.06-.03,.17-.04l.71,.07c1.61-.16,3.98-.12,5.67-.35-.49,.1-1.04,.26-2.12,.38l-.19-.03c-.15,.03-1.05,.09-1.02,.16,1.04,0,1.92-.05,3-.17l.59,.03s-.02-.02-.02-.03c.36,.03,.32,.04,.19,.07-.02,0-.04,.01-.07,.02,.66,.18,4.05-.35,5.94-.37,.55-.07,.05-.04,.74-.12,1.23-.05,2.26-.08,3.33-.12,.07-.94,.15-1.91,.24-3.06-.06-.65-.09-.7-.22,.07l.1-1.52c.18,1.4,.35-2.84,.52-1.3,.07-.44,.12-1.36,.11-2.21-.06-.09-.15-.23-.12-1.3,.12-1.49,.09-1.13,.19-2.37,.09-.29,.11,.16,.17,.11-.05-1.91,.21-1.66,.23-3.47,0-1.13,.02-3.36-.12-3.42,.02-1.52,.12-1.52,.23-1.37Z"/></g><g><path class="d" d="M162.52,198.07c15.83,1.27,28.86,.8,47.51,.26,.72-18.67,.63-38.39,.54-57.09-.15-31.11-.3-62.22-.45-93.33-9.88,.38-19.76-.24-29.64,.15-4.73,.18-17.26,.83-17.26,.83,0,0-.02,10.3-.03,13.63-.08,29.08-.2,58.16-.36,87.23-.02,4.04-.51,48.31-.31,48.33Z"/><path class="d" d="M211.99,157.3v-1.64c.03,5.29-.02,10.86-.12,16.35,.56-11.94,.88-26.04-.15-35.25,.53-1,.72-12.58,.58-12.81-.09-2.41-.18-4.84-.28-7.3,.05,1.69,.1,3.38,.16,5.05-.05-1.67-.1-3.36-.16-5.05-.49-15.56-.39-32.46-.27-49.94,0-2.43,.02-5.89,.03-9.88,0-1.99,0-4.12,.01-6.31v-4.36h-.54l-.78,.04-2.81,.07-1.68,.02c-4.48,.04-9-.08-13.02-.16-4.03-.08-7.57-.11-10.08-.08-1.46,.01-2.91,.05-4.36,.11,2.41-.07,2.43-.07,4.86-.08-3.08,.13-5.94,.38-8.74,.57l-8.15,.56c.94,.03,1.11,.1,3.34,.09l-2.72,.08-1.06,.12-.62,.06-.83,.07-2.28,.15h-.15s-.12,0-.1,.06v.91l.02,1.22c.01,1.13,.03,2.27,.04,3.31l.05,2.48c-.11-.58-.14,1.54-.16,3.4l.08-.74c-.02,7.07-.03,15.28-.05,21.6,0,.88-.05,1.54-.09,1.94l.06,6.06c-.15-.47-.16,5.02-.24,2.13,.16,4.54,.03,9.14,.2,13.46-.04,15.45,.02,31.9,.19,47.87l.06-.39c.05,5.59,.3,10.53,.14,17.32,.16,4.86,.21,11.76,.52,13.7,0,5.6,.14,7.84,.22,13.33,.08-.71,.12,.63,.18,1.79l.02,.42v.18l.02,.07v.02h0l-.15,.03c-.3,.09-.35-.08-.51-.06-.07,0-.13,.03-.16,.08-.02,.02-.03,.05-.03,.08v.02c-.07,.78,.08-1.04,.07-.86h.53c.12,0,.15,0,.08-.02l-.2-.04-.17-.02h-.11l-.06-.02h-.06c-.04,.43,.08-.99-.08,.97,1.43-.26,.85-.13,.98-.22v-.44l.04-.56,.03-.96,.02-1.48c0-.89,0-1.71,.1-3.26l-.05,.09c.31-14.43,.63-28.87,.81-43.51-.09-9.76,.06-20.35,.06-30.5-.01-10.93-.07-22.75-.16-32.13-.04-2.24,.1-3.85,.19-5.76,0-4.31,0-9.21,.01-14.24,0-4.87-.02-9.87-.03-14.58v-.17c.01-.09-.07-.27,.09-.23l.75-.02,3.41-.12c2.24-.07,4.47-.15,6.98-.28-.03-.04,.75-.08,1.13-.13,.22,.05,2.19-.07,5.02-.2,2.83-.12,6.55-.19,10.31-.21,3.77-.03,7.58-.05,10.54-.07l3.73-.07,1.2-.03h.4c.11,0,.1,0,.14,0l.82-.05s.11-.03,.1,.02v.88l-.03,1.89-.05,4.01c-.04,2.67-.09,5.33-.13,7.95-.09,5.23-.15,10.27-.11,14.84,.11,1.98,.21,4.22,.33,5.89-.08,1.62,.09,1.93,.08,3.88-.4,4.95-.21,7.84-.07,5.29,.08,4.07,.06,8.15,.09,11.77,.04,1.68,.08,3.34,.12,5.03,.04,1.44-.02,2.24-.11,2.96,.08,3.67-.03,2.59-.06,6.44-.14,.93,.28,9.66,.24,10.75l-.02-.63c0,4.45-.28,7.42-.27,11.77-.05,12.1,.11,25.31-.1,36.5,.16,.11,0-2.47,.2-2.6-.09,6.6-.42,13.25-.67,19.91l-.06,.78v.17l-.03,.04-.02,.07c-.03,.08-.06,.13-.08,.15-.04,0-.06-.02-.08-.02-.08-.01-.12-.01-.15,0-.01,0-.03,0-.04,.01l-.19,.02c-.24,.03-.41,.06-1.19,.08l-.21-.13c-2.28,.18-3.34-.06-5.48,.06-.11,.06-.9,.09-1.66,.1-.04-.15-2.35,.07-2.24-.07h-.02c-.46,.02-.79,.04-1.35,.02-.87,.09-9.03,.63-9.91,.68l-.41-.02c-1.22,0-1.74,.12-1.03,.14h-1.5l.17-.02-1.5-.02c-.28-.02-.59-.09-.16-.15-.85,.04-1.8,.07-2.65,.02,2.34,.12,5.26,.27,7.75,.4-1.01,.06-2.85-.02-3.95,0-1.31-.1-4.01-.21-6.1-.33-.46,0-.78,.15-1.83,.05-.51-.13-1.18-.04-2.05-.15,1-.02,1.97,.04,2.99,.07-.17-.14-2.46-.16-3.25-.24-.38,.03-2.32-.1-3.55-.13,.54-.1-.98-.13-1.7-.25-.82-.07-1.35-.05-1.02,.02-.28,.12,3.28,.29,2.12,.37-.3-.09-1.92-.16-2.79-.21-.02,.08,.59,.1,.02,.13-.97-.09-2-.07-2.55-.19,.18,0,.58,.04,.86,.06-1.26-.08,6.86-.04,5.23-.12,.21,.05-1.59,.06-3.34,.05-1.75-.02-3.45-.05-3.03-.02,.77,.1-.56,.1,.23,.18l.89-.03c1.08,.11,1.52,.28,1.13,.3-1.82-.13,5.21-.19,3.65-.22l.63,.07c-.66,.02-2.43-.05-3.11-.17-.01,.08-.9,.05-1.64,.01l-.26-.03c-.76-.02-1.83-.12-1.34,.02,4.48,.32-3.01,.55,1.33,.92-1.81-.31,.62-.11,2.54-.02,.18,.06,1.03,.21,2.4,.33,1.19,.05,.71-.03,.93-.06,.66,.08,1.92,.16,1.75,.24,.93-.07,1.48,.13,2.6,.13,.98-.02-.06-.05,.63-.08,1.48,.05,3.54,.11,4.72,.15,.45,.09,1.84,.25,.83,.37-2.24-.04,.86-.2-1.48-.2,1,.21-2.06,.02-2.49,.15,.74,.1,2.25,.13,3.51,.12l-.25-.03c1.11-.01,3.33-.04,4.53,.06-.28,.07,.24,.12-.57,.13h1.53c.19-.01,.39-.03-.05-.05,.72-.06,1.44-.03,2,0,.17,.09,8.12-.41,7.88-.38,1.1-.03,1.37,.07,2.44-.03,.03-.02-.61,.01-1.57,.05-.96,.04-2.23,.1-3.46,.16-2.46,.11-4.76,.2-4.03,.18,.95,.1,12.47-.6,13.15-.5,.81-.03,1.8-.07,1.6-.14,1.38,0-.41,.15,.57,.19,.02-.01-.08-.03,.23-.04l.95,.06c1.43-.11,3.19-.13,5.23-.19,.03-.98,.05-2.01,.03-2.72,.05,.56,.14,1.32,.16,2.91l-.38,.03-.33-.03c-.22,.03-1.69,.1-1.62,.17,.81,0,1.66-.02,2.46-.04,.02-.82,.04-1.75,.03-2.57l.09-.78s-.02,.03-.03,.02c.06-.47,.07-.42,.09-.25,0,.02,0,.05,.01,.1,.24-.85,.03-5.38,.2-7.88-.01-.74-.03-.07-.05-.99,.14-2.56,.23-4.32,.32-6.99-.08-.86-.11-.92-.22,.11l.06-2.02c.22,1.84,.27-3.77,.49-1.74,.06-.59,.09-1.8,.06-2.93-.06-.11-.16-.29-.15-1.72,.09-1.98,.07-1.5,.15-3.15,.08-.39,.11,.21,.17,.15-.09-2.53,.18-2.21,.17-4.59-.02-1.49-.03-4.45-.17-4.52,0-2.01,.1-2.01,.22-1.81Z"/></g><g><path class="c" d="M230.74,99c6.61,12.63,7.16,28.28,1.46,41.35-1.57,3.59-3.57,6.97-5.79,10.18-3.9,5.63-8.62,10.87-14.59,14.22-4.78,2.68-10.17,4.05-15.57,4.98-3.08,.53-6.2,.93-9.31,.73-11.27-.78-16.37-3.6-20.11-5.12-7.71-3.13-14.56-8.57-18.93-15.66-1.59-2.59-2.85-5.36-4.02-8.17-1.94-4.65-3.67-9.42-4.52-14.38-2.21-13,2.01-26.8,10.58-36.82,8.2-9.58,21.25-16.83,33.97-17.65,11.48-.74,24.49,3.72,33.53,10.64,5.48,4.2,10.1,9.57,13.31,15.7Z"/><path class="c" d="M216.03,160.18c-.32,.25-.64,.51-.97,.75,3.13-2.43,6.04-5.5,8.6-8.8-2.91,3.5-6.45,6.94-10.21,9.49-3.73,2.58-7.75,4.18-11.01,5.57-.44-.15-2.79,.26-5.09,.57-2.31,.33-4.52,.59-4.59,.66-1.77,.32-3.57,.51-5.36,.49,1.23,.02,2.47-.05,3.7-.21-1.23,.15-2.47,.23-3.7,.21-2.92-.08-5.96-.39-8.96-.99-3.01-.61-5.94-1.57-8.87-2.85-.75-.32-1.51-.65-2.27-.97-.73-.32-1.46-.62-2.17-.98-1.43-.7-2.84-1.47-4.18-2.36-2.7-1.75-5.21-3.85-7.41-6.25-1.22-1.33-2.87-3.33-4.39-5.87-1.52-2.54-2.89-5.68-4.18-8.92-1.29-3.22-2.39-6.48-3.1-9.41-.35-1.47-.62-2.84-.77-4.09l-.22-1.75-.09-1.52c-.1-1.06-.03-2.13-.06-3.21,0,1.79-.07,1.79,.04,3.58-.52-4.48-.2-8.63,.56-12.55-.2,.68-.34,.77-.73,2.41,.1-.68,.29-1.34,.44-2,.03-.47,.12-1.09,.29-1.77,.15-.68,.31-1.45,.55-2.2,.41-1.52,.99-3,1.31-3.97-.06,.45,.59-1.02,1.2-2.29-.11,.15-.21,.31-.31,.47,2.28-4.86,5.88-10.04,9.39-13.34,.46-.48,.88-.78,1.12-.96,1.1-1.07,2.26-2.08,3.46-3.05-.09,.17,.69-.38,1.28-.8,.6-.41,1.02-.66,.15,0,2.68-2.18,5.78-3.85,8.69-5.4,5.33-2.49,11.29-4.16,17.39-4.37,6.11-.2,12.32,.97,18.11,2.99-.09-.06-.17-.11-.26-.16,4.04,1.43,7.68,2.79,11.99,5.82,1.6,.99,3.45,2.32,5,3.6,1.55,1.27,2.82,2.44,3.45,2.89,1.5,1.6,2.5,2.77,3.46,3.96,.95,1.2,1.87,2.41,3,4.26-.22-.52,.37,.35,.85,1.16,.49,.8,.87,1.47,.44,.51-1.2-2.65-1.45-2.69-2.66-4.84v.09c-3.15-4.81-7.16-9.07-11.84-12.5-4.68-3.43-9.95-6.04-15.51-7.84-3.75-1.09-7.74-1.96-11.86-2.25-2.05-.18-4.14-.16-6.22-.04-2.07,.18-4.13,.43-6.11,.91-4.3,.94-8.56,2.63-12.43,4.68-3.88,2.05-7.32,4.54-10.13,6.98-.68,.57-1.24,1.09-1.82,1.55-.58,.46-1.11,.92-1.67,1.43-2.41,2.46-4.9,5.52-6.98,8.97-2.08,3.45-3.75,7.26-4.85,10.99l.12-.36c-1.18,3.94-1.93,6.98-2.19,11.02,.05-.02,.02,.61,.04,.91-.03,.09-.06,.52-.09,1.23-.02,.7,.03,1.67,.06,2.81,.17,2.28,.56,5.28,1.35,8.17,1.53,5.82,4.14,11.24,4.32,11.91l.52,1.16c.81,1.93,1.69,3.87,2.71,5.74,1.03,1.87,2.2,3.67,3.51,5.32,2.6,3.31,5.66,6.05,8.74,8.05,1.39,.8,2.98,1.63,4.22,2.13,1.11,.67,1.41,.62,2.82,1.26,3.34,1.89,5.58,2.61,3.76,1.7,2.99,1.2,6.12,2.2,8.94,2.74,1.31,.25,2.62,.42,3.95,.57,1.13,.12,1.75,.23,2.31,.4,1.45,.1,1.95,.15,2.49,.21,.54,.05,1.11,.13,2.67,.1,.38,.07,2.33-.1,4.23-.45,1.9-.34,3.77-.79,4.2-.85l-.48,.11c3.44-.64,5.81-.9,9.12-2.04,2.3-.79,4.6-1.83,6.77-3.14,2.16-1.32,4.18-2.89,6-4.6,3.66-3.42,6.6-7.32,9.06-11-.07-.15-1.06,1.65-1.3,1.61,2.99-4.26,5.83-8.83,7.58-13.92,.35-.9,.8-2,.94-2.42,.5-1.64,.21-.99,.53-2.21l.17-.13c.14-.91,.31-1.56,.5-2.2,.15-.64,.3-1.27,.41-2.13-.04-.1,.06-.72,.11-1.34,.15-.01,.18-1.89,.31-1.79v-.02c.04-.37,.02-.64,.07-1.09,0-.35-.02-2.19-.19-4.01-.17-1.82-.41-3.62-.51-3.97v-.33c-.13-.97-.29-1.38-.25-.8-.05-.4-.08-.8-.14-1.2l.03,.14-.2-1.18c-.02-.22,0-.48,.12-.15-.17-.66-.31-1.41-.45-2.08,.19,.93,.26,1.99,.4,3.05,.1,1.07,.13,2.15,.18,3.13-.15-.8-.21-2.26-.38-3.12-.04-.52-.13-1.32-.24-2.2-.14-.87-.33-1.81-.48-2.64-.09-.36-.34-.56-.49-1.38,0-.42-.26-.91-.39-1.6,.3,.75,.48,1.51,.7,2.29,.08-.17-.44-1.93-.63-2.55-.15-.27-.59-1.78-1.01-2.68,.29,.35-.23-.77-.39-1.34-.24-.63-.46-.99-.39-.73-.21-.14,.94,2.48,.45,1.68-.04-.25-.53-1.46-.85-2.08-.07,.02,.16,.45-.11,.08-.33-.71-.77-1.41-.89-1.84,.08,.12,.21,.42,.31,.62-.23-.45,.51,.71,1.17,1.89,.63,1.19,1.23,2.36,.96,1.76,.03,.17-.61-1.14-1.29-2.38-.71-1.22-1.39-2.4-1.25-2.09,.24,.57-.32-.33-.06,.25l.39,.59c.36,.8,.39,1.18,.21,.92-.32-.65,.28,.2,.81,1.13,.52,.93,1.04,1.91,.77,1.34l.16,.48c-.25-.47-.84-1.76-.97-2.3-.07,.03-.41-.6-.69-1.13l-.08-.19c-.3-.53-.66-1.31-.58-.91,1.57,3.2-1.71-1.74-.25,1.36-.49-1.36,.39,.34,1.01,1.72,0,.16,.18,.81,.56,1.82,.35,.87,.25,.49,.35,.65,.14,.5,.43,1.45,.31,1.35,.35,.65,.31,1.12,.58,1.95,.26,.72,.03-.06,.23,.45,.35,1.1,.63,2.7,.83,3.59-.02,.37,.02,1.45-.24,.71-.29-1.71,.34,.61-.04-1.16-.01,.8-.41-1.55-.62-1.84,.04,.58,.32,1.71,.53,2.66v-.2c.15,.84,.53,2.53,.5,3.47-.09-.21-.09,.2-.18-.42l.12,1.17c.04,.15,.08,.3,.05-.04,.12,.55,.16,1.1,.13,1.53-.06,.07,.2,1.62,.26,3.15,.12,1.53,.1,3.03,.09,2.93-.05,.85-.12,1.05-.15,1.89,0,.01,.02-.11,.04-.32,.03-.21,.02-.52,.03-.9,0-.74,.07-1.73,0-2.68-.04-1.91-.26-3.67-.21-3.11,0,.36,.22,2.76,.16,5.15,0,2.39-.29,4.75-.4,5-.09,.63-.2,1.38-.1,1.25-.21,1.05-.08-.34-.27,.4,0,.02,.05-.05,0,.18l-.24,.7c-.12,.82-.33,1.82-.63,2.81l-.4,1.48c-.15,.47-.28,.93-.39,1.35,.07-.51,.18-1.07,.39-2.17l.09-.18c.02-.16,.24-1.05,.16-1.04-.33,1-.53,1.88-.83,2.94l-.25,.55s.02-.01,.03,0c-.16,.33-.15,.29-.14,.16,0-.02,0-.04,0-.08-.37,.56-1.33,3.91-2.32,5.58-.23,.52,.01,.06-.28,.71-.99,1.7-1.72,2.84-2.86,4.56-.28,.6-.28,.67,.23,.05l-.87,1.29c.59-1.3-1.82,2.27-1.14,.85-.31,.34-.84,1.09-1.33,1.81,0,.11,0,.28-.66,1.14-1,1.14-.75,.88-1.61,1.8-.25,.18,.02-.2-.06-.2-1.17,1.53-1.21,1.17-2.43,2.5-.74,.85-2.38,2.36-2.33,2.5-1.15,.99-1.23,.9-1.18,.72Z"/></g><path class="d" d="M182.48,95.26c-.18,.05-.36,.09-.53,.15,1.67-.66,3.51-1.02,5.34-1.16-2.05-.3-4.39-.27-6.46,.5-2.05,.74-3.87,2.32-4.31,4.45-.58-.39-1.89,.06-2.98,1.1-.54,.51-1,1.22-1.3,1.72-.2,.37-.27,.61-.2,.67-.09,.9-.17,1.78-.26,2.64,.07-.62,.16-1.22,.24-1.8-.08,.59-.17,1.19-.24,1.8-.12,1.42-.26,2.91-.14,4.55,.1,1.62,.47,3.38,1.27,4.98,1.58,3.27,4.42,5.37,7.02,6.82,1.47,.82,4.24,1.85,6.61,2.69,1.16,.43,2.4,.91,3.3,1.32,.93,.42,1.62,.82,2.04,1.14,.24,.18,.47,.35,.68,.52-.33-.33-.33-.34-.73-.67,1.31,.22,2.33,.54,3.07,1.01,.08-.22,.18-.38,.07-.87,.1,.15,.18,.31,.27,.46,.34-.06,.65,.11,.91,.38,.26,.27,.49,.67,.72,.94-.33-.02-.21,.46-.08,.98l.12-.26c.32,1.12,.54,1.66,.66,2.45,.12,.75,.11,1.54-.04,2.2-.03,.19-.18,.3-.3,.35-.02,.43-.1,.86-.2,1.28-.31-.23-.78,.76-.74,.13,.02,.52-.22,.92-.45,1.32-.26,.37-.51,.73-.7,1.2-1.12,1.02-2.82,1.64-4.92,2.06-1.02,.21-2.2,.39-3.26,.56-1.07,.16-2.05,.26-3.08,.23l.07,.17c-.73,0-1.49,.06-2.29,0-.39-.02-.83-.09-1.2-.18-.19-.03-.36-.14-.54-.24-.19-.11-.39-.24-.57-.4-1.46-.23-3.16-1.29-4.17-1.18-1.27-1.18-1.98-1.58-3.07-2.71-.1,.56-1.28-.9-1.09-.1,.11,1.12,.53,.88,.69,1.91l.1-.1c.51,.99,1.22,2.12,2.09,3.11,.86,1.01,1.84,1.85,2.82,2.59,.52,.37,.87,.67,1.79,1.19l1.02,.43c.27,.11,.54,.23,.83,.34,1.12,.44,2.43,.83,3.83,1.04,1.91,.03,3.61-.12,5.13-.21,1.59-.11,3.37-.27,5.2-.87,.98-.33,2-.78,2.98-1.4,.98-.63,1.88-1.4,2.6-2.23,1.46-1.66,2.35-3.57,2.76-5.29,.17-.83,.64-1.32,.97-2.02,.22-1.66,.23-3.59-.25-5.55-.05-.24-.14-.49-.21-.73-.07-.24-.16-.51-.21-.64l-.39-1.05c-.29-.75-.67-1.65-1.23-2.51,.04,.07,.07,.14,.09,.18-.54-.91-1.15-1.81-1.69-2.46-.56-.68-1.17-1.32-1.97-1.82-.06,.1-.3-.06-.45-.08,0-.16-.61-.57-1.53-.95-.92-.39-2.13-.75-3.3-1-1.17-.25-2.3-.43-3.15-.58-.87-.16-1.49-.29-1.59-.4-.16-.02-.31-.04-.47-.07-1.44-.55-2.76-1.31-3.89-2.06-1.12-.76-2-1.49-2.71-1.98-.46-.02-.93-.13-1.36-.17-.04-.38-.41-.13-.6-.46,.19-.69,.23-.99,.14-1.12-.07-.13-.28-.07-.39,.2-.41-.57-.44-1.3-.47-2-.07-.33-.13-.69-.17-1.07-.03-.34,.15-.49,.45-.59,.05-.85,.25-.55,.63-1.38,.21-.04,.26-.64,.33-1.28,.02-.19,.02-.27,.02-.36v-.26c-.01-.17,.06-.3,.11-.32l-.03,.12c.14-.14,.3-.25,.46-.33,.16-.08,.4-.13,.58-.18,.36-.11,.81-.16,1.16-.41,2.22-1.22,5.44-2.44,8.05-2.46,0-.4-.56,.11-.65-.4,1.59-.1,3.17,.48,4.15,.89,.14,.17,.28,.41,.28,.56,.15,.25,.2-.12,.36,.03l-.16,.33c.43-.09,.17,.59,.52,.68,.11-.1,.23-.02,.32,.07-.25,.28,.34,.28,.08,.52l.02-.02c.06,.06,.12,.09,.15,.21,.1,.02,.63,.12,1.18,.33,.55,.18,1.11,.44,1.23,.48v.12c.17,.23,.48,.18,.44,0l.18,.31-.04-.02,.17,.32c0,.07-.11,.23-.31,.23,.22,.1,.4,.26,.43,.47-.05-.61-.15-1.38-.18-2.11,.25,.13,.34,.63,.52,.83-.04,.41,.11,1.09,.18,1.62,.07,.09,.49-.04,.43,.27-.21,.24,.13,.25,.02,.53-.23-.15-.27-.39-.37-.61-.29,.19,.04,.62,.02,.83,.14,.04,.21,.49,.39,.71-.36,0-.12,.28-.26,.48,.01,.17,.18,.24,.27,.14,.37-.05,0-.74,.43-.63-.14,.13,.02,.44,.09,.62,.19-.05,.11-.17,.33-.1,.01,.21,.3,.37,.13,.53-.06-.03-.05-.11-.06-.17,.07,.23-1.67-1.01-1.46-.7,.18-.16,1.57,1.08,1.53,.93,.05-.18,.38,.04,.41-.14l-.28-.13c.02-.24,.33-.44,.48-.39,.03,.21-.36,0-.76-.19-.38-.19-.76-.38-.6-.25l.04-.17c.19,.1,.41,.44,.25,.64,.19-.06,.32,.11,.42,.25l-.02,.06c.14,.13,.15,.37,.38,.21-.14-.47,.39-.46,.94-.4,.55,.05,1.14,.16,1.05-.43-.32,.58-.45-.05-.67-.52,.12-.09,.28-.38,.24-.78-.15-.3-.22-.12-.34-.14,.03-.21-.03-.56,.2-.61-.36-.13,0-.46-.23-.7-.24-.19-.1,.07-.31-.05-.15-.39-.39-.91-.51-1.22,.13-.22,.24-.75,.69-.68,.29,.59-.59,.06-.2,.61,.29-.5,.41,.45,.79,.39,.1-.3-.12-.69-.35-.99l-.02,.1c-.23-.25-.64-.75-.63-1.19,.19-.03,.21-.23,.38-.05l-.23-.4c-.08-.02-.16-.04-.12,.1-.23-.1-.29-.32-.31-.52,.06-.07-.45-.46-.99-.78-.52-.33-1.08-.59-1-.6-.22-.23-.09-.47-.45-.57-.06,.04,.6,.46,1.21,.91,.6,.45,1.16,.9,1,.74,0-.18-.76-.79-1.55-1.31-.79-.53-1.6-.94-1.56-1.14-.2-.13-.46-.28-.52-.09-.27-.31,.31-.21,.17-.53-.02,.02-.03,.09-.11,.03-.03-.12-.07-.24-.11-.36-.68-.13-1.43-.89-2.22-.73,.25-.12,.59-.39,1.1-.39l.04,.13c.08-.02,.47,.09,.54-.07-.36-.34-.76-.45-1.28-.43-.07-.08-.15-.16-.2-.23,0,.02,0,.05-.01,.07-.12-.16-.1-.17-.02-.22,.01-.01,.02-.02,.04-.03-.15-.65-1.82-.11-2.55-.43-.24,.05-.03,.09-.33,.16-.79-.26-1.35-.46-2.2-.54-.26,.25-.27,.34,.06,.57l-.63-.04c.54-.67-1.24-.5-.66-1.17-.2-.12-.6-.1-.95,.05-.01,.16-.04,.42-.49,.48-.65-.08-.49-.04-1.05-.13-.16-.18,.01-.29-.04-.45-.76,.41-.81-.29-1.57-.05-.47,.17-1.4,.5-1.3,.85-.63,.2-.72-.05-.76-.35Z"/><path class="d" d="M186.33,89.67l-.03,.05c-.02-.16,.08-.33,.19-.49-.94,.34-1.78,.76,.22,1.07-1.06,.02-1.56,.36-1.3,.37,.19,.08,.35,.15,.48,.23-.08-.05-.16-.1-.26-.16,.1,.05,.18,.1,.26,.16,.82,.48,.45,.98,.04,1.51-.21,.29-.45,1.09-.76,1.39-.04,.04-.08,.09-.11,.13l.19-.14c.28,.19,.56,.35,.74,.51,.15-.03,.3-.03,.51-.1l-.1,.08c.44,.08,.42,.25,.6,.33-.23-.02-.28,.05-.31,.1l.15-.02c-.1,.21,.09,.46,.06,.65,0,.03-.09,.05-.17,.06l.18,.18c-.31-.01-.27,.15-.47,.06,.36,.14,.14,.28,.52,.41,.04,.47,.27,.96,.78,1.44h.11c.2,.16,.81,.3,.61,.51,.41,.14,.63,.35,1.27,.4,.09,.17,.41,.23,.57,.4,.32-.04,.38,.16,.63,.07,.45-.11,.07-.12,.43-.21h-.11c.48-.43,.76-.86,.92-1.3-.27-.29-.04-.61-.12-.91-.11-.33-.32-.68-.58-.96-.09-.07,.18-.11,.33-.17-.14-.26-.03-.58-.2-.87,0,0,0,.01-.01,.01-.05-.15,.28-.27,.22-.42-.09,0-.1-.02-.14-.03,.42-.02-.87-.89-.63-.94-.02-.02-.04-.03-.05-.05,.19-.32,1.02-.64,.95-.91-.2-.06-.37-.13-.6-.18,.18-.05-.17-.06-.12-.12,.85-.14,.5-.23,.2-.16-.11-.12-.04-.24-.06-.35l-.2-.15c-.07-.04,.06-.07,.26-.09-.12-.11,.09-.08,.18-.19,.3-.02-.47-.29-.38-.33l.04,.02c.05-.13,.63-.21,.66-.34,.22-.36,0-.75,.11-1.09-.31,0,.07,.07-.34,.07,.06-.2,.44-.39,.5-.59,.08-.03,.24-.08,.34-.09,.12-.06-.15-.04-.11-.09h.28c-.23-.07,.31-.09,.2-.16-.11,0-.13-.03-.12-.05,.3,0-.02-.07,.25-.06h-.02s-.01-.02,.04-.04l-1.04-.32h.05s-.23-.07-.28-.05l.02-.04h.02l.02-.04s.16-.01,.3,0c-.1-.03-.16-.06-.11-.08-.18,.07-.45,.15-.75,.22-.1-.03,.06-.08,.02-.12,.2-.04,.37-.11,.5-.17-.02-.01-.35-.03-.2-.06,.23-.01,0-.04,.16-.06,.12,.03,.07,.06,.05,.09,.27,0,.18-.07,.26-.09-.09-.01,0-.07-.07-.11,.26,.02,.17-.03,.31-.04,.03-.02-.07-.04-.16-.03-.28-.01-.17,.1-.47,.05,.14,0,.09-.06,.08-.08-.15,0-.12,.02-.26,0,.03-.03-.15-.06,0-.08,.04,0,.02,.02,.01,.03,.02-.04,1,.23,.92,.18-.14,0-.91-.23-.92-.21-.08,.02-.28-.02-.33,0l.19,.03c-.06,.03-.33,.04-.43,.03,.02-.05,1.05,.18,.9,.13l-.07,.02c-.1-.02-.19-.08-.02-.09-.15,0-.21-.03-.26-.05h.03c-.08-.03-.04-.06-.24-.05,.02,.14-1.55-.12-1.64,0,.34-.05,.34,.03,.38,.08-.11,0-.28,.03-.37,.06,.03,.04,.12,.02,.21,.03-.08,.02-.14,.05-.32,.05,.21,.03-.14,.04-.06,.08,.1,.03,.09,0,.19,.02-.02,.04-.05,.11-.09,.14-.17,.01-.46,.05-.72,.01,.04-.07,.42,.03,.36-.04-.38,.02-.1-.06-.39-.08-.17,.02-.17,.06-.13,.1h.05s.13,.1-.08,.13c-.13-.01-.23,0-.27-.02l-.03,.05s.09,.01,.12,0c.1,.02,.05,.04-.03,.06-.14,0,.59,.26,.5,.25,0,.03-.21,.04-.07,.07,.11,0-.48-.33-.43-.28-.16,.03,.7,.39,.43,.4,.01,.02,.04,.05,.18,.05-.07,.04-.27-.02-.41,0,.02,0,.07,0,.07,0l-.18,.02c.22,.07-.07,.16,.22,.23-.15-.02-.43-.05-.57-.1h.08s-.09-.05-.24-.05c-.1,.04-.07,.08,.07,.12l-.12,.02h.06c-.09,.01-.1,.01-.16,0h-.03c-.42,.01,.26,.16,.05,.23,.06,.02,.07,0,.15,.03-.17,.07-.3,.12-.39,.2,.18,.03,.25,.03,.44,0l-.06,.06c-.48-.06-.46,.11-.94,.04-.11,.02-.13,.05-.06,.09,.12,0,.32,.01,.31,.06-.16,.06-.1,.04-.26,.09-.16,0-.22,0-.34,0,.2,.08-.34,.06-.31,.13,.05,.05,.06,.14,.34,.14-.01,.06-.21,.06-.44,.05Z"/><path class="d" d="M183.47,148.14l-.03,.04c-.02-.14,.08-.28,.2-.42-.94,.29-1.78,.65,.21,.93-1.06,0-1.56,.3-1.3,.31,.19,.07,.35,.13,.48,.2-.08-.05-.16-.09-.26-.14,.1,.05,.18,.09,.26,.14,.82,.42,.45,.85,.04,1.3-.21,.25-.45,.92-.76,1.17-.04,.04-.08,.07-.11,.11l.19-.12c.28,.16,.56,.3,.74,.44,.15-.02,.3-.02,.51-.08l-.1,.07c.44,.07,.42,.21,.6,.28-.23-.02-.28,.04-.31,.08l.15-.02c-.1,.18,.09,.39,.05,.55,0,.02-.09,.04-.17,.05l.18,.16c-.31-.02-.27,.12-.47,.05,.36,.12,.14,.23,.51,.35,.04,.39,.26,.81,.76,1.23h.12c.2,.14,.8,.29,.59,.46,.41,.14,.62,.33,1.26,.41,.08,.15,.4,.22,.56,.37,.32-.02,.38,.16,.63,.1,.45-.07,.07-.1,.43-.16h-.11c.5-.36,.79-.74,.95-1.12-.26-.27-.03-.54-.11-.81-.11-.29-.31-.61-.57-.86-.09-.06,.18-.1,.33-.15-.14-.23-.03-.51-.2-.77h-.01c-.05-.12,.28-.22,.22-.35-.09,0-.1-.02-.14-.03,.42-.02-.87-.78-.63-.82-.02-.01-.04-.03-.05-.04,.19-.27,1.02-.55,.95-.78-.2-.05-.37-.11-.6-.16,.18-.04-.17-.05-.12-.1,.85-.12,.5-.19,.19-.13-.11-.1-.04-.21-.06-.3l-.2-.13c-.07-.04,.06-.06,.26-.07-.12-.1,.09-.06,.18-.16,.3-.02-.47-.25-.38-.28l.04,.02c.05-.11,.63-.18,.66-.29,.22-.3,0-.64,.12-.91-.31-.01,.07,.06-.34,.06,.06-.16,.45-.32,.5-.49,.08-.03,.24-.06,.34-.07,.12-.05-.15-.04-.11-.07h.28c-.23-.06,.31-.07,.2-.13-.11,0-.13-.03-.12-.04,.3,0-.02-.06,.25-.05h-.02s-.01-.02,.04-.03l-1.04-.28h.05s-.23-.06-.28-.04l.02-.04h.02l.02-.03s.17,0,.3,0c-.1-.03-.16-.05-.1-.07-.19,.05-.45,.12-.75,.17-.1-.03,.06-.07,.03-.1,.2-.03,.37-.09,.51-.13-.02-.01-.35-.03-.2-.05,.23,0,0-.03,.16-.04,.12,.03,.07,.05,.05,.08,.27,0,.19-.05,.26-.07-.08-.01,0-.06-.07-.09,.26,.02,.17-.02,.31-.03,.03-.02-.07-.04-.16-.03-.28-.02-.17,.08-.47,.03,.14,0,.09-.04,.08-.07-.15,0-.12,0-.26-.01,.03-.02-.15-.06,.01-.06,.04,0,.02,.02,.01,.02,.02-.03,1,.21,.91,.17-.14,0-.91-.22-.92-.2-.08,.02-.28-.03-.33,0l.19,.03c-.06,.02-.33,.02-.43,.01,.03-.04,1.05,.17,.89,.13h-.07c-.1,0-.18-.06-.02-.07-.15,0-.2-.03-.26-.05h.03c-.08-.03-.04-.05-.24-.05,.02,.11-1.55-.14-1.64-.04,.34-.03,.34,.03,.38,.08-.11,0-.28,.01-.37,.05,.03,.03,.12,.02,.21,.03-.08,.01-.14,.04-.32,.03,.21,.03-.14,.03-.06,.06,.1,.03,.09,0,.19,.02-.02,.04-.06,.09-.1,.12-.17,0-.46,.03-.72,0,.04-.06,.42,.04,.37-.02-.38,.01-.1-.06-.39-.08-.17,.01-.18,.05-.13,.09h.05s.13,.09-.08,.11c-.13-.01-.23,0-.27-.02l-.03,.04s.08,.01,.12,0c.1,.02,.04,.04-.04,.05-.14,0,.59,.23,.5,.22,0,.03-.21,.03-.07,.06,.11,0-.47-.29-.43-.25-.16,.02,.69,.35,.43,.35,0,.02,.04,.05,.18,.05-.07,.03-.27-.02-.41,0,.02,0,.07,0,.07,0l-.18,.02c.22,.06-.07,.13,.22,.2-.15-.02-.43-.05-.56-.09h.08s-.09-.04-.24-.05c-.1,.03-.07,.06,.07,.11l-.12,.02h.06c-.09,.01-.1,0-.16,0h-.03c-.42,0,.26,.14,.04,.2,.06,.02,.07,0,.15,.03-.17,.06-.3,.1-.4,.17,.18,.03,.25,.03,.44,0l-.06,.05c-.48-.06-.46,.09-.94,.02-.11,.01-.13,.04-.06,.08,.12,0,.31,.02,.31,.05-.16,.05-.1,.04-.26,.08-.16,0-.22-.01-.34-.01,.2,.07-.34,.05-.31,.11,.05,.04,.06,.12,.34,.13-.01,.05-.22,.05-.44,.04Z"/><path class="d" d="M61.62,203.75l.91,.03c-2.95,.02-6.06-.08-9.12-.19,6.66,.94,14.52,1.77,19.67-.23,.56,1.06,7.02,1.55,7.15,1.29,1.34-.2,2.7-.36,4.07-.49-.95,.08-1.89,.17-2.82,.27,.93-.1,1.87-.19,2.82-.27,8.68-.84,18.12-.51,27.88-.14,5.42,.18,20.12,.34,25.68,.6l2.42,.09-2.69-.17c3.38-.31,6.45-.6,9.42-.81-.52-.15-.62-.3-1.86-.5l1.52,.09c1.38-.45,4.56-.45,6.05-.65-.32,.23,.86,.27,1.9,.3l-.41-.15c3.95,.06,8.53-.16,12.06-.17,.49,0,.86,.08,1.08,.16l3.38-.21c-.26,.31,2.81,.25,1.2,.45,2.53-.39,5.1-.19,7.51-.59,8.62-.13,17.8-.47,26.71-1.1l-.22-.11c3.12-.25,5.86-.89,9.66-.74,2.7-.45,6.55-.72,7.62-1.38,3.12-.13,4.37-.47,7.43-.68-.79-.31,2.97-.43,1.46-.65-2.04-.42-2.15-.04-3.88-.37l.05,.11c-8.06-.36-16.13-.53-24.29-.58-5.44,.33-11.35,.19-17.02,.33-6.09,.18-12.69,.46-17.92,.77-1.25,.1-2.15-.16-3.22-.29-4.81,.19-10.93,.13-16.35,.35h.27c-2.88,.08-5.04-.23-7.86-.16,.01,.09-.42,.1-.63,.15-.49-.41-16.57,.98-17.56,.75l-.9,.05c-5.94-.16-12.09-.95-17.19-.86-1.11,.2-2.35,.38-3.28,.61-.9-.18-1.07,.17-2.16,.13-2.76-.84-4.38-.48-2.95-.18-2.27,.12-4.55,.05-6.57,.09l-2.81,.21c-.8,.07-1.25-.05-1.65-.25-2.05,.13-1.45-.09-3.6-.17-.52-.29-5.39,.48-6,.39l.35-.04c-2.49-.05-4.14-.62-6.57-.64-6.75-.21-14.12,0-20.38-.1-.06,.31,1.38-.07,1.45,.34-3.69-.06-7.41-.45-11.13-.51-.67-.08-1.49-.24-1.8-.34-1.19-.12-.7,.15-1.57,.1l-.12-.28c-1.27,.23-1.86-.32-3.06-.2-.06,.11-.5,.13-.93,.12-.02-.3-1.31,.02-1.25-.25v.02c-.27,0-.45,.01-.77-.04-.49,.1-5.06,.91-5.55,1.03l-.23-.05c-.68,0-.98,.23-.58,.28l-.84-.02,.1-.02-.84-.02c-.15-.03-.33-.17-.09-.3-.48,.1-1.01,.16-1.48,.1,1.32,.19,2.96,.45,4.34,.76-.57,.1-1.59-.06-2.21-.03-.73-.2-2.24-.37-3.42-.51-.26,.02-.44,.35-1.02,.2-.29-.23-.66,0-1.15-.16,.56-.12,1.11-.06,1.68-.05-.1-.27-1.38-.19-1.83-.27-.21,.08-1.31,0-1.99,.06,.3-.26-.55-.17-.96-.31-.46-.03-.76,.07-.57,.16-.15,.28,1.85,.18,1.2,.47-.17-.14-1.08-.09-1.57-.08,0,.15,.33,.12,.02,.26-.54-.04-1.12,.15-1.43-.01,.1-.04,.33-.01,.49,0-.71-.02,3.84-.99,2.93-.91,.24,.14-4.04,.9-3.57,.91,.43,.08-.31,.28,.14,.33l.5-.18c.61,.06,.86,.33,.64,.44-1.02-.03,2.91-1.04,2.04-.89l.36,.07c-.37,.1-1.36,.18-1.74,.02,0,.15-.5,.2-.92,.26l-.15-.03c-.43,.08-1.03,.04-.75,.24,2.51-.02-1.66,1.54,.77,1.64-1.02-.34,.34-.34,1.42-.38,.1,.11,.58,.28,1.35,.38,.67-.02,.39-.12,.52-.21,.37,.08,1.08,.14,.98,.32,.52-.21,.83,.14,1.45,.07,.55-.1-.04-.09,.35-.19,.82,.03,1.98,.06,2.64,.1,.25,.17,1.03,.46,.46,.72-1.25-.04,.48-.42-.82-.37,.56,.38-1.15,.1-1.39,.39,.41,.17,1.25,.18,1.96,.13l-.14-.05c.62-.05,1.86-.12,2.53,.08-.16,.13,.13,.23-.32,.26l.85,.03c.11-.04,.22-.08-.03-.12,.4-.1,.8-.04,1.11,.04,.09,.14,4.54-.58,4.4-.49,.61,0,.76,.21,1.36,.07,.06-.11-5.87,.47-5.06,.42,.52,.16,6.96-.69,7.34-.42,.45,0,1-.04,.9-.18,.77,.07-.23,.27,.32,.41,.01-.02-.04-.07,.13-.07l.53,.18c1.19-.22,2.95,.07,4.2-.22-.36,.15-.78,.43-1.58,.56l-.14-.08c-.11,.04-.78,.09-.76,.23,.76,.1,1.42,.07,2.22-.07,.15,.04,.32,.08,.44,.12,0-.02-.02-.03-.01-.06,.26,.09,.23,.1,.14,.16-.01,.01-.03,.02-.06,.03,.48,.42,3-.26,4.4-.04,.41-.06,.04-.07,.55-.15,1.43,.17,2.41,.3,3.9,.4,.48-.18,.51-.25-.06-.44l1.13,.06c-1.02,.48,2.1,.46,.97,.94,.33,.11,1,.13,1.64,.06,.06-.12,.16-.31,.96-.31,1.1,.16,.84,.1,1.76,.26,.22,.16-.12,.22-.08,.34,1.41-.2,1.23,.34,2.56,.31,.83-.05,2.48-.06,2.52-.34,1.12,.01,1.12,.21,1.01,.44Z"/></svg>