<?xml version="1.0" encoding="UTF-8"?><svg id="a" xmlns="http://www.w3.org/2000/svg" viewBox="0 0 276.77 280.34"><defs><style>.b{fill:#005bea;}.c{fill:#65dff6;}.d{fill:#0b1f65;}</style></defs><g><path class="c" d="M188.23,179.66c7.83,14.96,8.48,33.5,1.72,48.97-1.85,4.25-4.23,8.25-6.86,12.06-4.62,6.67-10.21,12.87-17.28,16.84-5.66,3.17-12.05,4.79-18.44,5.9-3.64,.63-7.34,1.11-11.03,.86-13.35-.93-19.39-4.26-23.82-6.06-9.14-3.71-17.25-10.15-22.42-18.55-1.89-3.06-3.38-6.35-4.76-9.67-2.3-5.5-4.35-11.16-5.35-17.04-2.62-15.4,2.38-31.74,12.53-43.61,9.71-11.35,25.17-19.93,40.24-20.91,13.59-.88,29.01,4.4,39.71,12.6,6.5,4.98,11.96,11.33,15.76,18.59Z"/><path class="c" d="M170.96,252.31c-.38,.3-.76,.61-1.15,.9,3.73-2.89,7.19-6.55,10.22-10.48-3.42,4.18-7.6,8.31-12.09,11.36-4.45,3.1-9.27,4.98-13.17,6.54-.5-.13-3.29,.39-6.03,.78-2.74,.42-5.37,.73-5.46,.8-2.11,.36-4.26,.58-6.4,.53,1.47,.04,2.96-.05,4.43-.22-1.47,.17-2.95,.26-4.43,.22-3.48-.11-7.09-.49-10.65-1.21-3.57-.73-7.07-1.87-10.55-3.4-.89-.38-1.78-.77-2.68-1.15-.86-.38-1.74-.74-2.58-1.17-1.7-.83-3.38-1.75-4.98-2.8-3.22-2.07-6.22-4.57-8.85-7.43-1.46-1.58-3.43-3.97-5.25-6.99-1.82-3.03-3.46-6.76-4.98-10.6-1.53-3.82-2.85-7.69-3.7-11.18-.42-1.74-.75-3.39-.93-4.87l-.26-2.09-.11-1.81c-.12-1.27-.05-2.54-.08-3.83,.01,2.13-.07,2.14,.07,4.27-.59-5.34-.18-10.29,.74-14.95-.23,.81-.38,.93-.82,2.88,.12-.8,.34-1.59,.51-2.38,.05-.56,.17-1.29,.36-2.1,.19-.81,.37-1.72,.66-2.61,.5-1.8,1.18-3.57,1.58-4.71-.1,.52,.67-1.22,1.4-2.74-.13,.18-.24,.38-.35,.57,1.38-2.88,3.09-5.88,5.03-8.63,1.93-2.75,4.08-5.25,6.14-7.23,.55-.57,1.03-.93,1.33-1.15,1.31-1.27,2.7-2.46,4.12-3.61-.12,.19,.81-.47,1.51-.97,.71-.49,1.21-.79,.17,0,3.21-2.57,6.88-4.56,10.35-6.37,6.33-2.96,13.41-4.93,20.67-5.17,7.26-.22,14.63,1.18,21.49,3.6-.1-.06-.21-.12-.31-.18,4.79,1.71,9.08,3.37,14.2,6.95,1.88,1.19,4.07,2.78,5.89,4.3,1.83,1.52,3.31,2.92,4.03,3.47,1.77,1.89,2.94,3.29,4.07,4.7,1.12,1.42,2.2,2.87,3.52,5.05-.27-.61,.42,.43,.97,1.38,.57,.95,1.02,1.75,.5,.62-.71-1.56-1.16-2.34-1.59-3.06-.43-.71-.82-1.35-1.58-2.63v.1c-3.73-5.66-8.47-10.68-13.99-14.71-5.53-4.04-11.74-7.1-18.3-9.22-4.41-1.29-9.12-2.33-13.98-2.67-2.42-.22-4.88-.19-7.32-.05-1.22,.13-2.44,.19-3.64,.41l-1.8,.28-1.77,.38c-5.06,1.1-10.09,3.09-14.67,5.5-4.58,2.41-8.64,5.34-11.97,8.21-.8,.68-1.47,1.27-2.14,1.84-.67,.55-1.3,1.09-1.95,1.71-2.84,2.9-5.78,6.51-8.24,10.57-2.45,4.07-4.43,8.56-5.73,12.96l.14-.43c-1.4,4.65-2.25,8.24-2.57,13,.05-.02,.02,.72,.03,1.08-.03,.1-.06,.62-.1,1.44-.02,.83,.03,1.97,.07,3.31,.2,2.69,.64,6.22,1.56,9.64,1.79,6.87,4.84,13.29,5.07,14.08l.62,1.37c.97,2.28,2,4.56,3.22,6.77,1.22,2.2,2.62,4.32,4.16,6.25,3.07,3.89,6.7,7.1,10.32,9.46,1.62,.96,3.49,1.95,4.95,2.55,.65,.4,1.07,.57,1.53,.75,.46,.19,.95,.4,1.79,.75,3.99,2.17,6.62,3.05,4.45,2,3.53,1.43,7.22,2.59,10.55,3.24,1.55,.3,3.09,.51,4.66,.69,1.33,.15,2.07,.27,2.73,.45,1.72,.12,2.3,.18,2.94,.25,.64,.05,1.3,.14,3.14,.11,.45,.07,2.75-.12,4.99-.52,2.25-.39,4.46-.9,4.97-.98l-.57,.13c4.07-.76,6.85-1.12,10.75-2.47,2.71-.93,5.41-2.16,7.96-3.71,2.54-1.56,4.91-3.4,7.06-5.41,4.31-4.03,7.79-8.63,10.69-12.98-.07-.17-1.26,1.94-1.5,1.92,3.53-5.04,6.85-10.44,8.9-16.45,.41-1.06,.92-2.36,1.08-2.86,.58-1.94,.26-1.17,.63-2.6l.18-.16c.17-1.07,.37-1.84,.58-2.59,.17-.76,.34-1.5,.47-2.52-.04-.11,.08-.85,.14-1.57,.15-.02,.21-2.22,.34-2.11v-.02c.04-.44,.03-.75,.08-1.28,0-.42,0-2.58-.17-4.72-.04-1.07-.22-2.14-.31-2.99-.09-.85-.19-1.48-.24-1.69l-.02-.39c-.14-1.15-.31-1.62-.25-.95-.06-.47-.1-.94-.17-1.41l.04,.16-.23-1.4c-.03-.26-.01-.56,.12-.18-.19-.78-.35-1.67-.53-2.45,.24,1.09,.33,2.35,.5,3.6,.13,1.26,.18,2.53,.25,3.69-.17-.94-.26-2.67-.45-3.68-.06-.62-.17-1.55-.31-2.59-.18-1.02-.4-2.13-.59-3.11-.11-.42-.37-.66-.56-1.63-.03-.49-.3-1.07-.47-1.88,.34,.88,.56,1.79,.82,2.71,.07-.19-.53-2.28-.76-3-.17-.32-.7-2.1-1.18-3.16,.32,.42-.28-.9-.49-1.57-.28-.74-.54-1.17-.45-.86-.23-.18,1.12,2.92,.57,1.97-.06-.28-.63-1.71-1.01-2.45-.07,.02,.19,.53-.11,.08-.39-.83-.89-1.67-1.05-2.18,.09,.15,.25,.49,.36,.73-.27-.53,.59,.85,1.34,2.25,.72,1.41,1.42,2.8,1.1,2.09,.04,.2-.7-1.35-1.47-2.82-.82-1.45-1.61-2.84-1.44-2.48,.29,.67-.35-.4-.05,.29l.45,.71c.42,.94,.49,1.37,.28,1.07-.38-.77,.31,.25,.91,1.36,.59,1.11,1.19,2.27,.87,1.6l.2,.57c-.29-.56-.97-2.09-1.14-2.72-.07,.03-.46-.72-.79-1.34l-.1-.23c-.35-.63-.78-1.55-.66-1.08,1.85,3.78-1.89-2.12-.16,1.54-.61-1.59,.44,.42,1.17,2.05,.01,.18,.24,.95,.69,2.14,.41,1.03,.28,.59,.4,.77,.17,.59,.53,1.71,.39,1.59,.4,.78,.37,1.32,.69,2.3,.3,.86,.03-.07,.25,.53,.41,1.3,.75,3.19,.99,4.25,0,.43,.06,1.71-.22,.82-.35-2.03,.37,.73-.08-1.37,.02,.94-.48-1.84-.7-2.18,.06,.69,.4,2.03,.64,3.15v-.23c.17,1,.61,3,.59,4.11-.1-.25-.09,.23-.19-.51l.15,1.39c.04,.17,.08,.35,.05-.05,.13,.65,.18,1.31,.16,1.82-.02,.04,.02,.52,.09,1.22,.08,.7,.16,1.61,.19,2.52,.13,1.81,.09,3.59,.08,3.47-.06,1.01-.13,1.25-.17,2.23,0,.01,.02-.13,.04-.38,.03-.25,.03-.62,.04-1.06,0-.88,.09-2.05,.02-3.18-.04-2.26-.28-4.35-.23-3.69,0,.43,.25,3.28,.17,6.11-.02,2.83-.37,5.63-.49,5.93-.11,.74-.24,1.64-.14,1.48-.24,1.24-.07-.4-.29,.48,0,.02,.05-.07-.01,.21l-.27,.83c-.15,.97-.4,2.16-.75,3.33l-.48,1.75c-.18,.56-.34,1.1-.47,1.6,.1-.6,.25-1.26,.51-2.55l.1-.21c.03-.19,.29-1.24,.21-1.23-.38,1.19-.62,2.23-1,3.49l-.28,.66s.02-.02,.03-.01c-.18,.39-.17,.35-.15,.19,0-.02,0-.05,.01-.09-.4,.68-1.6,4.63-2.76,6.61-.27,.61,0,.07-.34,.84-1.16,2.03-2.02,3.39-3.36,5.42-.35,.7-.35,.78,.24,.03l-1.03,1.53c.74-1.52-2.13,2.72-1.28,1.06-.35,.41-.99,1.3-1.57,2.15-.01,.12-.02,.31-.81,1.34-1.17,1.37-.88,1.05-1.89,2.15-.28,.22,.04-.22-.05-.21-1.4,1.81-1.42,1.41-2.87,2.99-.89,1.01-2.83,2.81-2.8,2.95-1.37,1.18-1.45,1.08-1.38,.89Z"/></g><path class="d" d="M131.3,175.85c-.21,.06-.41,.11-.62,.18,1.93-.76,4.06-1.2,6.18-1.38-2.37-.25-5.04-.13-7.42,.77-2.35,.87-4.44,2.61-5.06,4.91-.31-.18-.81-.13-1.39,.1-.59,.18-1.23,.74-1.83,1.26-.59,.57-1.08,1.36-1.41,1.91-.22,.43-.3,.7-.24,.76l-.38,3c.1-.7,.21-1.39,.33-2.06-.12,.67-.23,1.35-.33,2.06-.18,1.62-.36,3.32-.24,5.17,.1,1.83,.52,3.82,1.42,5.62,1.79,3.67,5.02,6.05,8.05,7.69,1.7,.93,4.93,2.1,7.77,3.08,1.39,.5,2.86,1.05,3.96,1.53,1.13,.49,2,.97,2.53,1.35,.31,.21,.61,.42,.88,.63-.44-.4-.45-.4-.95-.79,1.6,.36,2.87,.85,3.79,1.54,.05-.25,.14-.43-.05-1,.14,.18,.25,.38,.37,.56,.38,0,.76,.25,1.08,.61,.32,.37,.59,.87,.84,1.21-.34-.05-.18,.53-.02,1.15l.11-.3c.39,1.3,.67,2.03,.8,3.02,.14,.95,.12,1.93-.07,2.76-.03,.23-.2,.38-.33,.45-.05,.53-.16,1.06-.31,1.59-.3-.25-.9,1-.78,.23-.04,.62-.34,1.13-.64,1.62-.33,.47-.67,.91-.94,1.45-1.44,1.29-3.57,2.03-6.09,2.5-1.23,.23-2.63,.43-3.9,.61-1.29,.17-2.48,.26-3.72,.18l.09,.17c-.88-.03-1.77,0-2.71-.11-.46-.05-.97-.14-1.43-.26-.23-.04-.42-.16-.64-.29-.23-.14-.46-.29-.68-.47-1.69-.36-3.67-1.66-4.74-1.63-1.47-1.39-2.25-1.9-3.51-3.27-.06,.62-1.44-1.13-1.17-.21,.22,1.28,.64,1.05,.9,2.21l.09-.11c.62,1.15,1.45,2.43,2.46,3.55,1,1.14,2.13,2.1,3.27,2.95,.29,.2,.57,.43,.86,.61l.49,.32c.23,.13,.44,.32,.7,.4l1.14,.48c.31,.13,.63,.26,.96,.38,1.3,.5,2.81,.94,4.4,1.17,2.17,.06,4.14-.1,5.93-.22,1.86-.14,3.92-.32,6.01-1,1.12-.37,2.28-.88,3.39-1.57,1.11-.7,2.13-1.56,2.95-2.5,1.67-1.87,2.7-4.03,3.19-5.98,.11-.47,.28-.85,.47-1.21,.2-.36,.41-.71,.58-1.1,.26-1.88,.28-4.09-.27-6.3-.06-.28-.16-.55-.24-.83-.08-.27-.18-.58-.24-.74l-.45-1.24c-.33-.88-.76-1.9-1.39-2.87,.04,.08,.08,.15,.1,.2-.6-1.03-1.29-2.02-1.92-2.76-.64-.76-1.35-1.48-2.26-2.06-.06,.1-.34-.08-.5-.11,0-.16-.7-.63-1.76-1.08-1.06-.46-2.45-.9-3.81-1.21-1.36-.32-2.68-.56-3.69-.76-1.02-.21-1.75-.37-1.87-.49-.18-.03-.36-.06-.55-.1-1.71-.63-3.31-1.47-4.69-2.32-1.37-.87-2.5-1.72-3.4-2.36-.54-.09-1.11-.27-1.59-.38-.1-.44-.48-.2-.73-.62,.11-.8,.11-1.19,0-1.37-.09-.18-.3-.13-.39,.21-.49-.76-.57-1.72-.59-2.61-.07-.42-.12-.86-.15-1.34-.01-.41,.17-.6,.48-.74,.04-.52,.12-.69,.23-.86,.11-.17,.25-.33,.49-.85,.22-.06,.31-.78,.43-1.54l.11-.78c0-.21,.11-.37,.17-.41l-.05,.15c.18-.19,.37-.33,.56-.46,.2-.12,.47-.2,.69-.28,.42-.18,.96-.28,1.4-.61,2.76-1.58,6.68-3,9.88-3.06,0-.4-.69,.12-.79-.39,1.94-.13,3.89,.45,5.2,.97,.2,.19,.42,.46,.44,.62,.25,.31,.27-.1,.5,.1l-.15,.34c.53-.03,.32,.69,.76,.85,.11-.1,.26,0,.39,.13-.25,.28,.43,.37,.16,.6l.02-.02c.07,.08,.15,.12,.2,.26,.12,.04,.73,.22,1.35,.52,.62,.28,1.25,.64,1.39,.69v.14c.22,.28,.55,.25,.49,.04,.07,.13,.16,.25,.23,.38l-.05-.03,.21,.39c.01,.09-.09,.26-.3,.24,.25,.14,.45,.34,.5,.59-.11-.72-.3-1.62-.4-2.46,.28,.18,.43,.75,.64,1.01,0,.47,.22,1.28,.34,1.9,.08,.11,.51,0,.47,.36-.2,.26,.16,.31,.06,.63-.25-.2-.31-.48-.43-.75-.29,.2,.1,.74,.09,.99,.15,.05,.25,.6,.46,.88-.37-.02-.1,.33-.23,.56,.02,.21,.2,.3,.28,.19,.38-.03-.06-.9,.4-.74-.14,.14,.05,.54,.14,.76,.19-.05,.1-.2,.33-.1,.03,.26,.32,.47,.16,.66-.07-.03-.06-.14-.07-.22,.02,.16-.37-.19-.82-.52-.42-.33-.86-.62-.73-.44,.07-.08,.51,.26,.91,.63,.39,.36,.74,.74,.72,.63,.04-.22,.39,.07,.41-.16l-.3-.18c0-.3,.31-.52,.47-.45,.05,.26-.36-.02-.79-.28-.4-.26-.81-.51-.64-.35l.03-.2c.2,.13,.45,.56,.31,.8,.19-.06,.34,.16,.45,.33l-.02,.08c.15,.17,.17,.46,.4,.28-.17-.59,.37-.53,.93-.43,.56,.09,1.16,.24,1.04-.47-.29,.68-.45-.08-.71-.64,.12-.1,.26-.43,.2-.9-.17-.36-.23-.16-.36-.19,.02-.24-.07-.65,.16-.69-.38-.17-.03-.53-.28-.83-.26-.24-.1,.07-.32-.08-.2-.45-.47-1.08-.63-1.45,.12-.24,.19-.84,.66-.71,.35,.69-.61,.02-.16,.68,.26-.54,.46,.55,.86,.51,.08-.33-.18-.8-.44-1.15v.11c-.27-.3-.74-.91-.77-1.39,.2-.01,.2-.24,.4-.02l-.28-.47c-.08-.03-.17-.05-.12,.1-.25-.14-.33-.39-.37-.6,.05-.07-.52-.56-1.13-.96-.59-.42-1.21-.74-1.14-.76-.26-.28-.14-.53-.54-.66-.06,.04,.7,.56,1.39,1.1,.69,.55,1.32,1.1,1.14,.91-.02-.2-.88-.94-1.78-1.58-.9-.65-1.84-1.16-1.82-1.38-.24-.16-.54-.33-.59-.14-.33-.36,.33-.2,.15-.55-.02,.02-.03,.09-.12,.02-.04-.13-.09-.26-.15-.38-.78-.19-1.67-1.03-2.58-.9,.28-.11,.66-.37,1.25-.34l.05,.13c.09-.02,.53,.13,.61-.04-.43-.37-.88-.51-1.47-.51-.08-.08-.18-.17-.24-.24,0,.02,0,.05-.01,.07-.14-.17-.12-.18-.03-.23,.01,0,.03-.02,.05-.03-.08-.34-.63-.38-1.23-.38-.61-.03-1.28,.06-1.73-.13-.28,.05-.04,.09-.38,.16-.46-.17-.85-.24-1.26-.34-.4-.09-.82-.18-1.32-.2-.31,.25-.32,.35,.06,.57l-.73-.03c.63-.68-1.44-.48-.75-1.17-.23-.11-.7-.09-1.11,.07-.02,.16-.05,.42-.58,.49-.76-.06-.57-.02-1.21-.1-.18-.17,.02-.29-.04-.45-.89,.44-.92-.26-1.81,0-.55,.19-1.63,.56-1.53,.92-.73,.23-.82-.02-.85-.31Z"/><path class="d" d="M136.14,168.62l-.03,.06c-.02-.19,.08-.39,.2-.58-.94,.41-1.78,.9,.21,1.26-1.06,.02-1.56,.43-1.3,.44,.19,.09,.35,.18,.48,.27-.08-.06-.16-.12-.26-.18,.1,.06,.18,.12,.26,.18,.82,.57,.45,1.16,.03,1.79-.21,.34-.45,1.29-.76,1.64-.04,.05-.08,.1-.11,.15l.19-.17c.28,.22,.55,.42,.73,.61,.15-.03,.3-.04,.51-.12l-.1,.1c.44,.09,.42,.29,.6,.39-.23-.02-.28,.05-.31,.12l.15-.03c-.1,.25,.09,.55,.05,.77,0,.03-.09,.05-.17,.07l.18,.22c-.31-.02-.27,.18-.47,.08,.36,.16,.14,.33,.51,.48,.04,.55,.27,1.14,.78,1.71h.11c.2,.18,.81,.36,.61,.6,.41,.17,.63,.42,1.27,.48,.09,.2,.41,.28,.57,.47,.32-.05,.38,.19,.63,.09,.45-.13,.07-.14,.43-.25h-.11c.49-.51,.76-1.02,.92-1.54-.27-.34-.04-.72-.12-1.08-.11-.39-.31-.8-.58-1.14-.09-.08,.18-.14,.33-.2-.14-.3-.03-.69-.2-1.04,0,0,0,.01-.01,.02-.05-.18,.28-.32,.23-.5-.09,0-.1-.03-.14-.04,.42-.03-.87-1.06-.63-1.12-.02-.02-.04-.04-.05-.06,.19-.38,1.02-.76,.95-1.08-.2-.07-.37-.15-.6-.21,.18-.06-.17-.07-.12-.14,.85-.17,.5-.27,.2-.18-.11-.15-.04-.29-.06-.42-.06-.06-.13-.12-.2-.18-.07-.05,.06-.08,.26-.1-.12-.13,.09-.09,.18-.23,.3-.03-.47-.35-.38-.39l.04,.02c.05-.16,.63-.25,.66-.41,.22-.42,0-.89,.11-1.29-.31,0,.07,.09-.34,.09,.06-.23,.45-.46,.5-.7,.08-.04,.24-.09,.34-.11,.12-.07-.15-.05-.11-.1h.28c-.23-.09,.31-.11,.2-.19-.11,0-.13-.03-.12-.06,.3,0-.02-.08,.25-.07h-.02s-.01-.03,.04-.05c-.1-.04-.92-.33-1.04-.37h.05c0-.06-.23-.08-.28-.06l.02-.05h.02l.02-.05s.16-.02,.3,0c-.1-.03-.16-.07-.11-.1-.18,.08-.45,.18-.75,.26-.1-.04,.06-.1,.03-.14,.2-.04,.37-.14,.5-.21-.02-.02-.35-.03-.2-.07,.23-.01,0-.04,.16-.07,.12,.04,.07,.07,.05,.11,.27,0,.18-.08,.26-.11-.09-.02,0-.08-.07-.13,.26,.02,.17-.03,.31-.05,.03-.03-.07-.05-.16-.04-.28-.02-.17,.11-.47,.07,.14,0,.09-.07,.08-.1-.15,0-.12,.02-.26,0,.03-.03-.15-.07,0-.09,.04,0,.02,.02,.01,.03,.02-.04,1,.26,.92,.2-.14,.01-.91-.27-.92-.25-.08,.03-.28-.03-.33,0l.19,.04c-.06,.04-.33,.05-.43,.03,.02-.06,1.05,.21,.9,.15l-.07,.02c-.1-.03-.19-.09-.02-.11-.15,0-.21-.04-.26-.06h.03c-.08-.04-.04-.07-.24-.06,.02,.16-1.55-.14-1.64,.01,.34-.06,.34,.03,.38,.1-.11,0-.28,.03-.37,.08,.03,.04,.12,.03,.21,.04-.08,.02-.14,.07-.32,.06,.21,.04-.14,.05-.06,.09,.1,.04,.09,0,.19,.03-.02,.05-.05,.12-.09,.17-.17,.01-.46,.06-.72,.01,.04-.08,.42,.04,.36-.05-.38,.03-.1-.08-.39-.1-.17,.02-.17,.08-.13,.12h.05s.13,.11-.08,.15c-.13-.01-.23,0-.27-.03l-.03,.05s.09,.02,.12,0c.1,.03,.05,.05-.03,.07-.14,0,.59,.3,.5,.29,0,.04-.21,.04-.07,.09,.11,0-.48-.38-.43-.33-.16,.03,.7,.46,.43,.48,.01,.03,.04,.06,.18,.06-.07,.05-.27-.02-.41,.01,.02,0,.07,0,.07,0l-.18,.03c.22,.08-.07,.19,.22,.27-.15-.03-.43-.06-.57-.11h.08s-.09-.06-.24-.06c-.1,.05-.07,.09,.07,.14l-.12,.03h.06c-.09,.02-.1,.01-.16,0h-.03c-.42,.02,.26,.19,.05,.28,.06,.03,.07,0,.15,.04-.17,.09-.3,.15-.39,.24,.18,.03,.25,.04,.44,0l-.06,.07c-.48-.07-.46,.13-.94,.05-.11,.02-.13,.06-.06,.1,.12,0,.32,.02,.31,.07-.16,.07-.1,.05-.26,.11-.16,.01-.22-.01-.34-.01,.2,.09-.34,.07-.31,.16,.05,.05,.06,.16,.34,.17-.01,.07-.22,.07-.44,.06Z"/><path class="d" d="M132.74,237.88l-.03,.05c-.02-.16,.08-.33,.2-.5-.95,.35-1.78,.78,.21,1.09-1.06,.01-1.56,.36-1.3,.37,.19,.08,.35,.16,.48,.23-.08-.05-.16-.11-.26-.16,.1,.05,.18,.11,.26,.16,.82,.49,.45,1,.04,1.53-.21,.29-.45,1.09-.76,1.39-.04,.04-.08,.09-.11,.13l.19-.14c.28,.19,.55,.35,.73,.52,.15-.03,.3-.03,.51-.09l-.1,.08c.44,.08,.42,.25,.6,.34-.23-.02-.28,.04-.31,.1l.15-.02c-.1,.21,.09,.46,.05,.65,0,.03-.09,.04-.17,.06l.18,.18c-.31-.02-.27,.15-.47,.06,.36,.14,.14,.28,.51,.41,.04,.46,.26,.96,.76,1.46h.12c.2,.17,.8,.34,.59,.54,.41,.16,.61,.38,1.25,.47,.08,.18,.4,.26,.56,.44,.32-.03,.38,.18,.63,.11,.45-.09,.07-.12,.44-.2h-.11c.5-.43,.79-.87,.96-1.33-.26-.31-.03-.64-.1-.96-.11-.34-.31-.72-.57-1.01-.09-.07,.18-.12,.33-.17-.14-.27-.03-.61-.2-.91,0,0,0,.01-.01,.01-.05-.16,.28-.27,.23-.43-.09,0-.1-.02-.14-.04,.42-.02-.87-.92-.63-.97-.02-.02-.04-.03-.05-.05,.19-.32,1.02-.65,.95-.93-.2-.06-.37-.13-.6-.18,.18-.05-.17-.06-.12-.12,.85-.14,.5-.23,.2-.16-.11-.12-.04-.25-.06-.36l-.2-.15c-.07-.04,.06-.07,.26-.09-.12-.11,.09-.08,.18-.19,.3-.02-.47-.3-.38-.33l.04,.02c.05-.13,.63-.21,.66-.34,.22-.36,.01-.76,.12-1.09-.31-.01,.07,.08-.34,.07,.06-.2,.45-.38,.51-.58,.08-.03,.24-.07,.34-.09,.12-.06-.15-.04-.11-.09h.28c-.23-.07,.31-.09,.2-.15-.11,0-.13-.03-.12-.05,.3,0-.02-.07,.25-.06h-.02s-.01-.03,.04-.04c-.1-.03-.91-.29-1.04-.33h.05s-.23-.07-.28-.05l.02-.04h.02l.02-.04s.17-.01,.3,0c-.1-.03-.16-.06-.1-.08-.19,.06-.45,.14-.75,.2-.1-.03,.06-.08,.03-.12,.2-.03,.37-.11,.51-.16-.02-.01-.35-.04-.2-.06,.23,0,0-.04,.16-.05,.12,.03,.06,.06,.05,.09,.27,0,.19-.07,.26-.09-.08-.01,0-.07-.07-.11,.26,.03,.17-.02,.31-.04,.03-.02-.07-.04-.16-.04-.28-.02-.17,.09-.47,.04,.14,0,.09-.05,.08-.08-.15,0-.12,.01-.26-.01,.04-.03-.15-.07,.01-.08,.04,0,.01,.02,.01,.03,.02-.04,1,.25,.91,.19-.14,0-.91-.25-.92-.23-.08,.02-.28-.03-.33,0l.19,.03c-.06,.03-.33,.03-.43,.02,.03-.05,1.05,.2,.89,.15l-.07,.02c-.1-.02-.18-.08-.02-.09-.15,0-.2-.04-.26-.06h.03c-.08-.03-.04-.06-.24-.06,.02,.14-1.55-.16-1.64-.03,.34-.04,.34,.03,.38,.09-.11,0-.28,.02-.37,.06,.02,.04,.12,.03,.21,.04-.08,.02-.14,.05-.32,.04,.21,.04-.14,.04-.07,.08,.1,.03,.09,0,.19,.03-.02,.04-.06,.11-.1,.14-.17,0-.46,.04-.72,0,.04-.07,.42,.04,.37-.03-.38,.02-.1-.07-.39-.09-.17,.02-.18,.06-.13,.1h.05s.13,.1-.08,.13c-.13-.01-.23,0-.27-.03l-.03,.05s.08,.02,.12,0c.1,.03,.04,.05-.04,.06-.14,0,.58,.27,.5,.26,0,.03-.21,.03-.07,.07,.11,0-.47-.34-.43-.29-.16,.02,.69,.4,.42,.42,0,.03,.04,.06,.18,.05-.07,.04-.27-.02-.41,0,.02,0,.07,0,.07,0l-.18,.02c.22,.07-.07,.16,.22,.24-.15-.02-.43-.05-.56-.1h.08s-.09-.05-.23-.05c-.1,.04-.07,.08,.07,.12l-.12,.02h.06c-.09,.01-.1,.01-.16,0h-.03c-.42,.01,.26,.17,.04,.24,.06,.02,.07,0,.15,.03-.17,.07-.3,.12-.4,.2,.18,.03,.25,.03,.44,0l-.06,.06c-.48-.07-.46,.1-.94,.03-.11,.02-.13,.05-.06,.09,.12,0,.31,.02,.31,.06-.16,.06-.1,.04-.26,.09-.16,0-.22-.01-.34-.01,.2,.08-.34,.06-.31,.13,.05,.05,.06,.14,.34,.15-.01,.06-.22,.06-.44,.05Z"/><g><path class="d" d="M103.59,50.88c-.64,1.57-1.54,3.07-2.8,4.22-1.35,1.23-3.05,2.01-4.79,2.58-3.12,1.02-6.53,1.4-9.67,.46-20.26-6.09-4.89-39.76,15-22.56,4.21,3.64,4.32,10.27,2.26,15.31Z"/><path class="d" d="M87.19,56.96l-.31-.1c1.01,.28,2.12,.47,3.24,.53-1.23-.24-2.45-.62-3.57-1.06-1.17-.43-2.25-.77-3.31-.84,.06-.29-.38-.78-.77-1.22-.37-.48-.77-.86-.84-.83-.37-.27-.74-.57-1.11-.89,.24,.23,.5,.44,.74,.65-.24-.21-.5-.42-.74-.65-1.08-1.07-1.83-2.58-2.15-4.23-.32-1.65-.21-3.44,.22-5.16,.22-.95,.76-2.72,1.71-4.28,.91-1.58,2.18-2.89,2.97-3.44,.22-.17,.42-.36,.67-.5-.41,.23-.38,.26-.77,.53,.76-.93,1.61-1.6,2.49-2.17-.2,0-.26-.03-.7,.1l.5-.23c.35-.4,1.43-.85,1.95-1.04-.08,.15,.33,.03,.71-.02l-.16-.05c1.42-.25,3.1-.28,4.39-.05,.18,.04,.3,.12,.37,.18,.41,.08,.83,.12,1.24,.23-.14,.11,.93,.5,.34,.38,.46,.1,.93,.2,1.36,.41,.43,.2,.86,.4,1.31,.52,.7,.42,1.42,.86,2.12,1.35,.34,.26,.69,.52,1.03,.78,.36,.26,.7,.52,.98,.79,1.23,1.08,2.1,2.56,2.69,4.16l.03-.09c.41,1.12,.87,2.18,.78,3.69,.21,1.07,.13,2.63,.33,3.12-.21,1.27-.19,1.81-.54,3.04,.27-.25-.26,1.23,.08,.69,.51-.73,.37-.84,.75-1.49h-.06c1.24-3.2,1.62-6.88,.48-10.46-.48-1.15-1.1-2.32-1.92-3.38-.41-.53-.88-1.01-1.37-1.47-.48-.4-.95-.76-1.43-1.13-2.09-1.54-4.7-2.81-6.95-3.27-.54-.09-.89-.32-1.34-.49-.54-.05-1.1-.11-1.69-.16-.6,0-1.22,.01-1.84,.03-.62,.1-1.26,.16-1.87,.32-.6,.2-1.22,.31-1.76,.59l.11-.04c-1.18,.49-2.12,.8-3.13,1.55,.03,.03-.12,.15-.19,.22-.15-.03-1.6,1.15-2.65,2.66-1.07,1.49-1.83,3.15-1.95,3.32l-.15,.36c-1.19,2.21-2.21,4.78-2.19,7.05,.11,.49,.19,1.04,.33,1.43-.05,.4,.14,.46,.17,.93-.16,.63-.08,1.12-.02,1.36,.07,.25,.15,.24,.15-.08,.14,.48,.25,.96,.43,1.42,.17,.45,.29,.92,.52,1.3l.65,1.05c.23,.27,.28,.47,.3,.67,.57,.71,.29,.58,.9,1.32,.03,.12,.44,.58,.94,.92,.5,.34,1.01,.67,1.09,.77l-.13-.08c.41,.36,.76,.64,1.09,.97,.17,.15,.33,.32,.52,.46,.2,.13,.41,.26,.64,.38l1,.53,1.06,.4c.7,.27,1.45,.51,2.23,.65,1.53,.28,3.05,.31,4.41,.22,.02-.15-.6,.08-.64-.13,1.6-.05,3.22-.15,4.77-.58,.29-.04,.65-.07,.79-.07,.51-.11,.26-.17,.63-.27l.1,.11c.48-.3,.82-.15,1.3-.42,0-.06,.18-.15,.36-.23,.07,.13,.53-.27,.57-.14h0c.11-.07,.18-.11,.32-.16,.09-.08,.55-.47,.97-.9,.42-.43,.8-.91,.86-1.01l.1-.05c.23-.22,.25-.4,.1-.29l.28-.27-.02,.04,.27-.27c.06-.04,.16-.06,.14,.07,.11-.2,.25-.4,.4-.56-.45,.42-1.07,.88-1.64,1.17,.16-.2,.55-.46,.73-.68,.3-.17,.82-.63,1.18-1.03,.06-.1-.03-.26,.18-.44,.17-.04,.16-.25,.34-.39-.08,.24-.24,.44-.39,.64,.14,.04,.42-.47,.56-.62,.01-.1,.3-.5,.41-.8,.05,.18,.19-.18,.33-.31,.1-.18,.11-.32,.04-.27-.09-.12-.44,.7-.44,.37,.1-.04,.25-.41,.33-.6-.07-.03-.12,.11-.12-.05,.11-.21,.13-.47,.25-.57,0,.05-.05,.13-.08,.2,.16-.29-.26,1.74-.14,1.36-.07,.06,.35-1.81,.24-1.62-.11,.16-.08-.17-.18,0v.23c-.13,.23-.3,.27-.31,.17,.21-.4-.06,1.36,.02,.99l-.11,.12c.03-.17,.19-.57,.33-.69-.07-.03,0-.24,.05-.42l.04-.05c.04-.19,.15-.42,.01-.34-.4,.98-.45-.93-.88-.02,.32-.32,.11,.2-.07,.61-.07,.01-.23,.16-.42,.41-.12,.25-.02,.17,0,.24-.11,.12-.28,.35-.34,.27-.02,.24-.23,.26-.34,.49-.08,.21,.05,.01,0,.17-.2,.28-.5,.65-.69,.84-.13,.03-.44,.17-.4-.09,.34-.37,.04,.28,.35-.14-.29,.06,.25-.39,.18-.56-.17,.08-.36,.34-.53,.57l.06-.03c-.13,.2-.44,.59-.71,.7,0-.09-.12-.05,0-.18l-.25,.22s-.04,.09,.05,.04c-.08,.14-.22,.23-.34,.27-.04-.02-.32,.32-.64,.63-.32,.31-.65,.59-.64,.56-.21,.13-.32,.06-.49,.23,0,.03,.5-.29,.92-.64,.42-.35,.76-.71,.65-.61-.1,.03-.58,.51-1.14,.91-.55,.41-1.15,.75-1.25,.72-.16,.08-.36,.17-.3,.22-.3,.08,.03-.16-.19-.14,0,.01,.03,.03-.04,.05h-.23c-.4,.27-1.11,.35-1.54,.63,.12-.12,.23-.3,.51-.46l.06,.02s.28-.14,.24-.21c-.3,.05-.54,.14-.82,.3-.06,0-.13,0-.18,0,0,0,.01,.01,.01,.03-.11-.01-.1-.02-.07-.06,0,0,0-.01,.02-.02-.23-.15-1.1,.44-1.66,.43-.15,.06,0,.04-.2,.11-.58,.01-.98,.02-1.53,.03-.17,.11-.19,.14,.05,.22h-.44c.37-.25-.82-.17-.4-.44-.13-.05-.38-.04-.62,0-.02,.06-.06,.16-.36,.16-.41-.1-.32-.06-.66-.15-.08-.08,.05-.11,.04-.17-.53,.06-.44-.2-.92-.25-.3-.01-.89-.12-.93,0-.4-.09-.37-.2-.31-.29Z"/></g><g><path class="d" d="M74.74,60.2c9.26-1.57,18.73-1.19,28.12-.8,3.07,.13,6.2,.27,9.08,1.35,4.08,1.53,7.39,5.01,8.72,9.16,.92,2.87,.92,5.95,.92,8.96l-.04,21.7c0,3.33-.13,7.93-2.37,10.39-1.5,1.66-3.87,2.5-6.09,2.16s-4.22-2.8-5.15-4.84l-.43,46.26c-.03,3.25-.2,6.87-2.51,9.17-1.79,1.79-4.62,2.34-7.05,1.64s-4.46-2.52-5.7-4.73c-3.26,5.02-6.51,6.7-10.84,5.44-1.19-.34-3.28-1.86-4.09-2.79-1.49-1.7-1.58-4.17-1.6-6.44l-.28-47.93c-1,2.34-3.12,4.25-5.63,4.68s-5.3-.8-6.42-3.09c-.68-1.39-.73-2.99-.76-4.54-.13-6.27-.21-12.55-.25-18.82-.03-6.04-.95-12.21,.73-18.05,1.6-5.58,5.92-7.92,11.64-8.89Z"/><path class="d" d="M120.19,91.85l-.02,1.34c0-4.33,.05-8.89,.12-13.38-.24,4.88-.47,10.21-.52,15.26-.03,2.5,.02,5.02,.07,7.23,.03,2.21-.04,4.2-.38,5.86-.18,.13-.52,.7-1.03,1.29-.48,.57-1.27,1.16-2.15,1.5-.88,.35-1.81,.44-2.46,.38-.16,0-.32-.04-.44-.05-.09-.03-.17-.03-.25-.06-.15-.04-.25-.07-.27-.06-.22-.06-.46-.19-.7-.33-.44-.32-1.03-.8-1.55-1.51l-.4-.53-.42-.78c-.26-.46-.62-1.18-.94-1.81-.77-1.54-1.55-3.09-2.32-4.63l-.05,1.46-.02,.41-.02,.28,.02-.28,.02-.41,.05-1.43c.91,1.82,1.81,3.62,2.71,5.42l.29,.57,.25,.46c.17,.28,.35,.68,.5,.88l.47,.64c.16,.21,.32,.34,.48,.52-.16-.18-.32-.31-.48-.52l-.47-.64c-.16-.2-.33-.59-.5-.88l-.25-.46-.29-.57c-.9-1.8-1.81-3.61-2.71-5.42l-.05,1.43-.02,.41-.02,.28c.01,4.58,.03,9.22,.04,13.95,0,3.31-.02,6.68-.06,10.1-.08,6.84-.25,13.88-.41,21.04l-.12,6.02c-.06,2.31-.19,4.96-1.37,6.8-.58,.92-1.4,1.57-2.43,1.94-1.03,.37-2.21,.43-3.27,.19-1.06-.24-2.07-.79-2.91-1.5-.21-.18-.41-.37-.6-.56-.1-.1-.18-.19-.29-.31-.23-.26-.4-.5-.6-.76-.72-1.07-1.43-2.36-2.07-3.43-.83,1.19-1.61,2.33-2.36,3.41-.19,.27-.38,.53-.58,.77l-.34,.41c-.18,.21-.37,.4-.55,.59-.73,.73-1.41,1.22-2.01,1.51-.79,.42-1.6,.59-2.49,.58,.73,.02,1.07-.07,1.42-.14,.34-.11,.69-.18,1.36-.55-.81,.52-1.64,.83-2.54,.9-.45,.03-.91,.03-1.39-.05-.45-.05-1.03-.18-1.28-.28-.79-.33-1.72-.94-2.47-1.53-.19-.15-.36-.3-.52-.45-.13-.13-.26-.27-.37-.43-.23-.31-.41-.66-.56-1.07,.06,.3,.1,.47,.18,.73,.1,.25,.21,.59,.68,1.13-.42-.42-.69-.87-.91-1.42-.44-.68-.75-2.16-.79-3.81l-.13-4.49c.12,.47,.13-1.26,.14-2.78l-.07,.6c.01-5.79-.12-12.51-.14-17.68,0-.72,.04-1.26,.07-1.59l-.12-4.96c.16,.38,.11-4.12,.22-1.75-.1-1.86-.13-3.73-.16-5.57l-.05-2.75-.11-2.88-.04-5.14v-1.29l-.02-.65v-.32s-.03,.02-.05,.02c-.12,.09-.27,.12-.45-1.01l-.97,1.97-.81,1.59-.34,.64c-.11,.2-.24,.47-.33,.58-.19,.26-.39,.63-.58,.81-.19,.18-.38,.42-.58,.55-.18,.14-.45,.35-.54,.4-.26,.16-.5,.3-.77,.42-1.05,.49-2.2,.64-3.33,.41-1.13-.22-2.2-.8-2.92-1.65-.74-.83-1.08-1.97-1.2-3.24-.12-1.26-.11-2.66-.16-4l-.11-4.06-.25-8.09-.05,.32c-.09-2.29-.2-4.44-.33-6.73-.14-2.28-.35-4.67-.31-7.45-.12-1.98-.07-4.38,.23-6.48,.28-2.09,.84-3.85,1.1-4.64,.53-1.06,1.13-1.89,1.76-2.57,.62-.69,1.25-1.24,1.93-1.71,1.36-.96,2.86-1.69,5.09-2.32-.6,.08,.48-.27,1.44-.49,.97-.23,1.76-.39,.67-.27-1.54,.15-2.34,.38-3.08,.58-.74,.23-1.42,.42-2.7,.92h.1c-1.45,.65-2.86,1.54-4.01,2.73-1.16,1.18-2.06,2.61-2.66,4.13-1.13,3.03-1.46,6.13-1.55,9.18-.08,3.05,.11,6.04,.15,8.97l.05,8.94c.13,4.02,.16,8.13,.25,12.42,.05,1.11,.17,2.35,.67,3.6,.5,1.26,1.42,2.37,2.51,3.12,1.09,.75,2.34,1.21,3.63,1.35,1.29,.16,2.65-.07,3.81-.54,.74-.28,1.75-.95,1.62-.9,.13-.11,.25-.24,.36-.39,.13-.14,.29-.66,.26-.23l.03,.71,.02,.38,.02,1.42,.05,2.83c.08,3.74,.15,7.33,.21,10.57,.06,1.83-.07,3.15-.13,4.72,.12,7.07,.1,16.02,.25,24.03v-.4c.02,1.09,.07,2.16,.26,3.22,.2,1.06,.56,2.15,1.23,3.11,.72,1,1.5,1.59,2.32,2.21,.42,.3,.85,.59,1.33,.87,.24,.14,.5,.27,.78,.4,.28,.12,.68,.26,.93,.31,0-.05,.68,.14,1.04,.15,.09,.05,.57,.15,1.37,.19,.8,.02,1.95-.05,3.2-.52,1.26-.45,2.51-1.34,3.59-2.42,.28-.26,.52-.56,.78-.85,.13-.14,.24-.3,.37-.45l.16-.21,.24-.35,.12-.19,.06-.1s.04-.09,.06-.03c.15,.23,.36,.49,.57,.7,.6,.63,1.26,1.2,1.97,1.67,1.41,.94,3.01,1.48,4.45,1.57,2.91,.21,4.81-1.03,5.17-1.2,.41-.28,.82-.59,1.2-.97,.91-.87,1.59-1.97,2.02-3.1,.44-1.14,.67-2.3,.82-3.45,.27-2.31,.25-4.47,.35-6.6,.15-4.28,.28-8.4,.3-12.14-.08-1.63-.15-3.46-.25-4.83,.1-1.32-.07-1.58-.03-3.17,.46-4.04,.31-6.42,.14-4.33-.03-3.33,.04-6.67,.06-9.63l-.03-2.06c-.01-.65-.02-1.53-.04-1.69-.03-.57,.04-.86,.14-.93-.02-.55-.01-.8,0-.95,.08,.12,.18,.41,.37,.71,.07,.11,.16,.25,.27,.4,.05,.11,.17,.26,.38,.43,.04,.03,.14,.1,.23,.16,.18,.11,.44,.29,.69,.41,.51,.27,1.11,.51,1.78,.6,2.43,.37,4.6-.72,5.03-.96-.17,.1-.35,.19-.53,.28,.97-.42,1.79-.97,2.47-1.61,.69-.65,1.22-1.41,1.63-2.17,.79-1.54,1.19-3.16,1.4-5.03,.27-2.62,.19-5.15,.22-7.69,0-2.55,0-5.12,.01-7.66,0-2.55,0-5.07,0-7.53-.01-2.46,.06-4.84-.07-7.25-.14-.08,.13,2.1-.09,2.2-.03-2.74-.16-5.69-1.27-8.52-1.08-2.8-2.98-5.28-5.42-7.06-.85-.68-1.99-1.4-2.44-1.64-1.78-.83-1.09-.4-2.42-.87l-.14-.19c-2.01-.41-2.9-.78-4.75-.91-.1,.05-.77,0-1.41-.04-.03-.16-1.96-.09-1.86-.22h-.02c-.38,0-.65,0-1.11-.05-.71,.01-7.46,.18-8.2,.25l-.34-.03c-1.01-.01-1.44,.09-.85,.13l-1.25-.02h.14l-1.24-.02c-.23-.01-.49-.08-.14-.15-.7,.06-1.49,.08-2.2,.07,1.96,.06,4.39,.2,6.42,.4-.84,.03-2.35-.07-3.26-.06-1.08-.11-3.32-.18-5.07-.18-.38,.02-.64,.19-1.51,.16-.43-.09-.98,.04-1.71,.01,.83-.12,1.64-.12,2.49-.16-.15-.13-2.06,0-2.73,.01-.31,.06-1.94,.14-2.96,.28,.43-.18-.83,0-1.45,0-.69,.07-1.13,.18-.84,.19-.2,.15,2.75-.23,1.81,.02-.26-.05-1.61,.13-2.33,.24,0,.08,.5,0,.04,.13-.81,.08-1.64,.33-2.12,.31,.15-.04,.48-.08,.72-.12-.52,.08,.87-.28,2.24-.57,1.37-.29,2.72-.53,2.03-.44,.18,.03-1.31,.27-2.75,.58-1.44,.3-2.82,.64-2.47,.58,.64-.06-.43,.21,.23,.13l.72-.21c.9-.12,1.29-.03,.98,.07-.75,.1,.3-.18,1.38-.44,1.09-.25,2.21-.47,1.57-.37l.53-.02c-.55,.11-2.01,.3-2.58,.31,0,.08-.73,.19-1.34,.32l-.22,.02c-.63,.14-1.51,.26-1.08,.29,3.68-.59-2.29,1.14,1.27,.63-1.51,.07,.47-.27,2.04-.47,.16,.03,.87,.04,2-.03,.98-.1,.57-.11,.75-.17,.55-.02,1.59-.06,1.46,.04,.76-.16,1.22-.02,2.14-.1,.8-.09-.06-.04,.51-.12,1.21-.05,2.91-.07,3.88-.06,.37,.08,1.51,.22,.68,.36-1.83,0,.7-.22-1.21-.17,.82,.18-1.69,.08-2.03,.24,.61,.06,1.84,.04,2.87,0l-.21-.02c.91-.03,2.72-.07,3.7,.05-.23,.06,.2,.12-.47,.13l1.25,.03c.16-.02,.32-.04-.04-.06,.59-.04,1.18,0,1.63,.05,.13,.05,6.65-.08,6.45-.03,.9,.03,1.11,.15,1.99,.11,.02-.01-.5-.03-1.29-.04-.78,0-1.83-.02-2.84-.03-2.02-.01-3.89,0-3.3,.01,.76,.09,10.22,0,10.76,.27,.66,.06,1.46,.16,1.32,.06,1.11,.21-.35,.08,.43,.27,.02,0-.06-.05,.19,0l.73,.23c.86,.12,1.89,.4,2.88,.82,.99,.41,1.93,.95,2.71,1.41-.47-.24-1.04-.46-2.1-.9l-.16-.12c-.15-.06-1.04-.39-1.04-.31,.99,.42,1.82,.83,2.81,1.39,.17,.13,.35,.29,.47,.4,0-.01,0-.03,0-.03,.28,.25,.24,.23,.11,.18-.02,0-.04-.01-.07-.03,.21,.29,1.07,.88,1.93,1.75,.87,.85,1.72,1.96,2.13,2.86,.3,.49,.06,.03,.42,.66,.76,1.87,1.01,3.24,1.2,5.36,.15,.67,.19,.72,.21-.11,.05,.54,.08,1.08,.09,1.62-.16-.73-.17,.03-.2,.77-.04,.74-.09,1.47-.22,.65-.05,.48-.05,1.45-.02,2.38,.06,.09,.16,.24,.15,1.4l-.13,2.58c-.08,.32-.11-.17-.17-.12,.1,2.07-.17,1.81-.16,3.76,.02,1.22,.03,3.64,.16,3.7,0,1.65-.11,1.65-.22,1.48Z"/></g><g><path class="b" d="M73.94,81.16c.45,10.3-.47,20.22-.47,32.24"/><path class="b" d="M72.68,88.39l-.02,.13c0-.43,.04-.88,.1-1.33-.47,.97-.89,2.1,.09,2.87-.53,.07-.79,1.01-.66,1.03,.09,.2,.17,.4,.23,.6-.04-.14-.08-.28-.12-.41,.05,.14,.09,.27,.12,.41,.39,1.28,.17,2.65-.08,4.07-.13,.79-.32,2.94-.5,3.74l-.06,.35,.11-.39c.12,.5,.25,.95,.32,1.39,.08-.07,.15-.09,.26-.26l-.06,.22c.21,.21,.19,.68,.27,.9-.11-.05-.14,.12-.16,.27l.08-.06c-.07,.58,0,1.25-.02,1.77,0,.07-.05,.13-.09,.16l.07,.5c-.15-.04-.15,.41-.24,.17,.17,.38,.05,.75,.23,1.11-.01,1.27,.08,2.62,.32,3.93l.06-.03c.1,.46,.4,.87,.29,1.42,.2,.4,.31,.97,.63,1.12,.04,.46,.2,.64,.28,1.09,.16-.12,.19,.44,.32,.21,.22-.3,.03-.31,.22-.57h-.05c.24-1.17,.39-2.34,.48-3.53-.12-.8,0-1.66-.02-2.49-.03-.89-.12-1.86-.22-2.63-.04-.18,.1-.31,.18-.47-.05-.71,.03-1.6-.03-2.4v.04c-.02-.42,.15-.73,.14-1.15-.05,0-.05-.06-.07-.1,.21-.06-.36-2.44-.23-2.59l-.02-.13c.13-.87,.56-1.76,.55-2.51-.09-.17-.18-.35-.29-.49,.09-.13-.08-.16-.05-.32,.44-.39,.26-.64,.11-.43-.05-.34,0-.67,0-.97l-.09-.42c-.03-.12,.03-.18,.13-.24-.05-.3,.05-.21,.1-.53,.15-.07-.22-.8-.17-.89l.02,.05c.03-.37,.32-.61,.34-.96,.13-.99,.02-2.09,.07-3.01-.16,0,.04,.2-.17,.22,.02-.55,.21-1.1,.23-1.65,.04-.1,.12-.22,.17-.27,.05-.18-.08-.1-.06-.23l.14-.02c-.12-.19,.15-.28,.09-.46-.06,0-.07-.07-.06-.14,.15,0-.01-.19,.12-.19h-.01s0-.07,.02-.11c-.05-.07-.48-.74-.54-.81l.02-.03c0-.1-.12-.14-.14-.08v-.13h.01v-.11s.08-.05,.15-.02c-.05-.07-.09-.15-.06-.22-.09,.2-.21,.45-.35,.65-.05-.08,.02-.24,0-.33,.09-.11,.17-.34,.23-.51,0-.04-.18-.06-.11-.15,.11-.05,0-.1,.07-.17,.06,.08,.04,.16,.04,.25,.13-.02,.08-.21,.12-.28-.04-.03,0-.19-.05-.29,.13,.04,.08-.09,.15-.15,.01-.07-.04-.11-.09-.08-.14-.02-.07,.28-.23,.19,.07-.03,.04-.16,.03-.23-.08,0-.06,.05-.13,0,.01-.08-.08-.16,0-.21,.02,.01,0,.05,0,.07,0-.11,.52,.55,.47,.41-.07,.04-.48-.58-.48-.51-.04,.07-.14-.04-.17,.03l.1,.07c-.03,.09-.16,.13-.21,.1,0-.15,.54,.41,.46,.28l-.03,.05c-.05-.05-.1-.2-.02-.26-.08,0-.11-.07-.14-.13v-.02c-.03-.06-.01-.15-.11-.11,.03,.37-.78-.21-.81,.15,.16-.16,.17,.04,.2,.2-.06,.02-.14,.09-.18,.21,.02,.1,.06,.06,.11,.07-.04,.06-.06,.16-.15,.15,.11,.07-.06,.12-.02,.21,.05,.08,.05,0,.1,.05,0,.12-.02,.29-.03,.39-.08,.04-.22,.16-.36,.08,.01-.18,.21,.06,.18-.13-.19,.09-.06-.17-.2-.2-.08,.06-.08,.19-.05,.29l.02-.02c.03,.09,.07,.27-.02,.37-.07-.02-.12,.02-.13-.04v.12s.04,.03,.05,0c.05,.06,.03,.12-.01,.16-.07,.02,.31,.66,.27,.64,0,.09-.1,.11-.03,.2,.06,0-.26-.85-.23-.74-.08,.08,.37,1.01,.24,1.07,0,.07,.02,.15,.09,.13-.03,.11-.14-.03-.2,.05,.01,0,.04,0,.03,.02l-.09,.08c.11,.17-.02,.43,.12,.61-.08-.05-.21-.11-.29-.23l.04-.02s-.05-.11-.12-.11c-.04,.11-.03,.21,.04,.32-.02,.02-.04,.05-.06,.06h.03s-.05,.03-.08,.02h-.02c-.21,.06,.14,.43,.03,.63,.03,.06,.04,0,.08,.08-.08,.21-.14,.35-.19,.57,.09,.07,.13,.07,.22,0l-.03,.16c-.24-.15-.23,.31-.47,.14-.05,.05-.07,.15-.03,.24,.06,0,.16,.02,.16,.14-.08,.16-.05,.12-.13,.26-.08,.03-.11-.02-.17-.01,.1,.21-.17,.18-.16,.37,.02,.12,.03,.36,.17,.37,0,.16-.11,.16-.22,.15Z"/></g><g><path class="b" d="M90.57,119.45c.33,14.46,.02,29.22,.64,43.67"/><path class="b" d="M89.35,129.28v.18c-.03-.59,.01-1.2,.06-1.81-.46,1.33-.86,2.89,.15,3.9-.53,.11-.77,1.4-.64,1.42,.1,.27,.18,.53,.25,.81-.04-.19-.08-.37-.13-.56,.05,.18,.09,.37,.13,.56,.42,1.72,.25,3.59,.05,5.53-.1,1.08-.2,4-.34,5.1l-.05,.48,.09-.54c.15,.67,.29,1.28,.39,1.87,.08-.1,.15-.12,.25-.37l-.05,.3c.22,.27,.22,.9,.32,1.2-.12-.06-.14,.17-.15,.38l.08-.08c-.04,.79,.06,1.69,.06,2.4,0,.1-.04,.17-.08,.22l.1,.67c-.16-.05-.13,.56-.23,.24,.19,.5,.09,1.01,.28,1.49,.05,1.72,.21,3.54,.52,5.3l.06-.05c.12,.62,.44,1.15,.37,1.91,.22,.53,.36,1.29,.69,1.49,.07,.62,.24,.86,.35,1.46,.15-.16,.22,.58,.33,.28,.21-.41,.02-.43,.18-.77h-.05c.17-1.59,.26-3.19,.28-4.81-.16-1.07-.09-2.25-.15-3.37-.08-1.21-.21-2.51-.36-3.55-.05-.25,.08-.43,.15-.64-.09-.95-.04-2.17-.14-3.24v.05c-.04-.57,.12-1,.09-1.56-.05,0-.05-.08-.07-.13,.21-.1-.46-3.29-.34-3.48l-.03-.18c.09-1.18,.49-2.4,.45-3.42-.1-.22-.19-.47-.3-.65,.09-.18-.09-.21-.06-.43,.42-.55,.24-.87,.09-.59-.06-.45-.02-.9-.04-1.3l-.1-.56c-.04-.16,.03-.25,.13-.33-.06-.41,.04-.29,.08-.72,.15-.1-.24-1.07-.2-1.19l.02,.07c.02-.49,.31-.82,.32-1.31,.1-1.34-.02-2.81,.01-4.05-.16-.01,.04,.27-.17,.29,.02-.73,.2-1.48,.22-2.22,.04-.13,.12-.3,.16-.36,.05-.24-.08-.14-.06-.31l.14-.03c-.12-.25,.15-.37,.09-.61-.06-.01-.07-.1-.06-.18,.15,0-.01-.26,.12-.25h-.01c0-.05,0-.09,.02-.15-.05-.1-.48-1-.54-1.1l.02-.05c0-.14-.12-.19-.14-.11v-.17l.02,.02v-.17s.09-.07,.15-.02c-.05-.09-.08-.2-.06-.29-.09,.26-.21,.59-.35,.87-.05-.11,.02-.32,0-.44,.1-.15,.17-.45,.24-.69,0-.05-.18-.08-.11-.2,.11-.06,0-.13,.07-.23,.06,.11,.04,.22,.03,.33,.13-.02,.09-.28,.12-.37-.04-.04,0-.26-.04-.4,.13,.06,.08-.11,.15-.2,.01-.09-.04-.15-.08-.11-.14-.03-.08,.37-.23,.24,.07-.04,.04-.22,.03-.31-.08,0-.06,.07-.13,0,.01-.11-.08-.22,0-.29,.02,.02,0,.06,0,.1,0-.14,.52,.75,.47,.57-.07,.05-.47-.79-.48-.7-.04,.09-.14-.06-.17,.03l.1,.1c-.03,.12-.16,.18-.21,.13,0-.2,.54,.57,.46,.39l-.04,.07c-.05-.07-.1-.27-.02-.35-.08,0-.1-.1-.13-.18v-.03c-.03-.08-.01-.2-.11-.15,.02,.5-.78-.31-.82,.17,.16-.21,.17,.06,.2,.28-.06,.02-.14,.12-.18,.27,.02,.13,.06,.08,.11,.1-.04,.07-.07,.22-.15,.2,.11,.1-.06,.17-.03,.29,.05,.11,.05,0,.1,.07,0,.16-.02,.39-.04,.52-.08,.05-.23,.21-.36,.1,.01-.25,.21,.09,.18-.17-.19,.11-.06-.23-.2-.27-.08,.08-.08,.25-.05,.39l.02-.03c.03,.12,.07,.37-.03,.5-.07-.03-.12,.03-.13-.06v.17s.03,.04,.05,0c.05,.08,.03,.16-.01,.22-.07,.02,.31,.9,.27,.87,0,.12-.1,.15-.03,.27,.06,.01-.26-1.16-.23-1-.08,.11,.37,1.38,.24,1.45,0,.09,.02,.2,.09,.18-.03,.15-.14-.04-.2,.07,.01,0,.04,0,.03,.03l-.09,.11c.11,.24-.02,.59,.13,.83-.08-.07-.22-.15-.29-.31l.04-.03s-.05-.15-.12-.15c-.05,.15-.03,.28,.04,.44-.02,.03-.04,.06-.06,.09h.03s-.05,.04-.08,.03c0,0-.01,0-.02-.01-.21,.1,.14,.59,.03,.87,.03,.08,.04,0,.08,.11-.08,.28-.14,.48-.19,.78,.09,.09,.13,.1,.22-.01l-.03,.22c-.24-.2-.22,.42-.47,.2-.05,.07-.06,.2-.02,.32,.06,.01,.16,.03,.16,.19-.08,.22-.05,.17-.13,.35-.08,.04-.11-.02-.17-.01,.1,.28-.17,.25-.15,.51,.02,.17,.04,.49,.17,.5,0,.22-.11,.22-.22,.2Z"/></g><g><path class="d" d="M171.14,49.56c.64,1.57,1.54,3.07,2.8,4.22,1.35,1.23,3.05,2.01,4.79,2.58,3.12,1.02,6.53,1.4,9.67,.46,20.26-6.09,4.89-39.76-15-22.56-4.21,3.64-4.32,10.27-2.26,15.31Z"/><path class="d" d="M188.2,58.29l.4-.09c-1.27,.38-2.66,.5-3.99,.45,1.44,.23,3.16,.24,4.65-.24,1.46-.43,2.76-1.21,3.45-2.23,.23,.15,1.01-.09,1.7-.48,.66-.42,1.26-.91,1.24-.98,.37-.55,.72-1.06,1.06-1.57-.24,.35-.49,.7-.75,1.06,.25-.36,.5-.71,.75-1.06,2.09-3.39,3.09-7.62,2.46-11.9-.16-1.18-.69-3.36-1.74-5.35-1-2.01-2.49-3.78-3.41-4.65-.26-.26-.51-.53-.81-.76,.47,.4,.44,.44,.87,.87-1.21-.96-2.49-1.58-3.71-2.11,.18,.17,.18,.27,.61,.62l-.56-.38c-.65-.07-1.93-.61-2.61-.65,.16-.06-.32-.26-.77-.35l.16,.1c-1.7-.41-3.74-.25-5.24,0-.21,.05-.37,.05-.47,.03-.47,.15-.94,.27-1.39,.46,.06-.19-1.18,.3-.56-.04-.47,.29-1.01,.46-1.47,.73-.47,.26-.94,.52-1.34,.84-.77,.47-1.55,.98-2.28,1.54-.35,.29-.71,.59-1.07,.89-.36,.29-.71,.6-1.05,.97-1.4,1.42-2.23,3.29-2.61,5.13l.08-.07c-.24,1.31-.1,2.46-.21,3.99,.2,1.11,.51,2.63,.93,2.98,.28,1.2,.57,1.63,1.05,2.72,.04-.34,.59,1.01,.49,.41-.06-.8-.27-.77-.28-1.45l-.05,.03c-.67-2.95-.65-6.07,.34-8.73,.26-.91,.71-1.79,1.31-2.54,.3-.38,.65-.72,1-1.05,.42-.34,.84-.68,1.26-1.01,1.79-1.45,3.93-2.7,5.75-3.33,.43-.15,.79-.11,1.17-.12,.43-.06,.88-.13,1.36-.19,.48-.01,.97,0,1.47,0,.49,.08,1,.12,1.49,.23,.48,.15,.98,.2,1.43,.4l-.09-.04c.97,.36,1.59,.86,2.43,1.42,.02-.04,.15,.05,.23,.08,0,.14,1.3,.91,2.37,2.06,1.08,1.13,2,2.49,1.99,2.7l.17,.3c.91,2.09,1.02,4.44,1.06,6.26,.09,.4,.18,.86,.28,1.21-.13,.32,.04,.4-.04,.8-.25,.48-.43,.84-.46,1.04-.04,.2,.04,.24,.17,0-.06,.41-.15,.82-.3,1.19-.15,.37-.25,.76-.43,1.08l-.37,.96c-.13,.26-.28,.36-.45,.43-.37,.64-.3,.43-.85,.97-.13,0-.36,.44-.69,.82-.32,.37-.65,.77-.75,.83l.08-.1c-.35,.29-.74,.4-1.09,.55l-.53,.22c-.19,.06-.38,.13-.58,.23l-.84,.39-.9,.31c-.61,.23-1.19,.42-1.8,.53-1.21,.24-2.46,.29-3.6,.16-.03,.16,.51,0,.52,.21-1.37-.1-2.7-.53-4.03-.95-.23-.11-.5-.28-.59-.36-.4-.2-.27-.01-.57-.14v-.15c-.47-.05-.57-.38-.97-.5-.04,.04-.19-.01-.32-.08,.06-.14-.41-.19-.33-.3h0c-.08-.04-.14-.06-.22-.13-.08-.02-.51-.12-.93-.27-.41-.14-.81-.33-.9-.36l-.04-.07c-.17-.15-.32-.14-.24-.03l-.2-.21,.03,.02-.19-.21s-.01-.14,.09-.12c-.15-.08-.29-.21-.37-.35,.21,.42,.5,.91,.78,1.34-.19-.09-.4-.4-.56-.54-.11-.26-.4-.71-.58-1.09-.06-.07-.23-.02-.29-.24,.04-.15-.13-.2-.16-.39,.16,.14,.24,.32,.35,.48,.09-.1-.19-.46-.24-.61-.08-.04-.23-.4-.38-.6,.16,.04-.02-.21-.02-.38-.06-.16-.15-.23-.16-.15-.16,.01,.22,.64-.02,.49,.03-.09-.13-.37-.21-.53-.07,.03,0,.14-.12,.06-.07-.19-.24-.35-.21-.49,.03,.03,.05,.11,.08,.16-.11-.22,1.05,1.05,.87,.76-.04,.14-1.04-1.12-.96-.98,.03,.16-.17-.05-.13,.11l.16,.14c.06,.22-.02,.36-.1,.31-.15-.34,.94,.75,.73,.48l.03,.13c-.11-.09-.31-.4-.29-.56-.07,.03-.17-.12-.26-.25v-.05c-.11-.13-.18-.34-.23-.21,.39,.88-.97-.29-.64,.6,0-.44,.21,.06,.41,.42-.03,.06-.03,.27,.07,.56,.13,.23,.13,.11,.19,.13,.04,.15,.15,.4,.05,.41,.19,.12,.11,.32,.28,.5,.16,.15,.03-.04,.16,.06,.17,.28,.43,.64,.58,.86,0,.13,.09,.46-.15,.37-.32-.4,.28,.01-.07-.37,0,.3-.33-.33-.5-.33,.03,.19,.24,.47,.45,.67l-.02-.06c.18,.18,.55,.52,.68,.78-.09,0-.04,.12-.19,0l.25,.25s.1,.03,.03-.05c.16,.07,.26,.21,.34,.32,0,.04,.4,.29,.82,.47,.42,.19,.84,.33,.8,.34,.22,.12,.22,.24,.47,.29,.03-.02-.53-.23-1.04-.49-.51-.25-.97-.53-.83-.43,.06,.1,.69,.47,1.35,.74,.65,.28,1.31,.48,1.35,.58,.17,.07,.38,.14,.37,.06,.27,.15-.14,.09,.04,.24,0,0,0-.04,.06-.01l.17,.16c.49,.07,1.12,.43,1.65,.44-.16,.03-.36,.11-.7,.08l-.04-.05c-.05,0-.32-.06-.33,.01,.28,.15,.54,.21,.88,.25l.16,.11s0-.02,0-.03c.09,.07,.08,.08,.03,.09,0,0-.01,0-.03,0,.13,.26,1.23,.2,1.77,.41,.17,0,.02-.03,.24-.03,.56,.19,.96,.31,1.57,.43,.21-.07,.22-.11,0-.22l.46,.07c-.45,.21,.86,.29,.38,.49,.14,.06,.43,.09,.7,.05,.03-.06,.07-.16,.41-.16l.75,.1c.1,.07-.04,.11-.02,.17,.6-.15,.55,.13,1.13,.05,.36-.07,1.08-.22,1.06-.36,.48-.1,.51-.01,.49,.11Z"/></g><g><path class="d" d="M199.99,58.88c-9.26-1.57-18.73-1.19-28.12-.8-3.07,.13-6.2,.27-9.08,1.35-4.08,1.53-7.39,5.01-8.72,9.16-.92,2.87-.92,5.95-.92,8.96l.04,21.7c0,3.33,.13,7.93,2.37,10.39,1.5,1.66,3.87,2.5,6.09,2.16s4.22-2.8,5.15-4.84l.43,46.26c.03,3.25,.2,6.87,2.51,9.17,1.79,1.79,4.62,2.34,7.05,1.64s4.46-2.52,5.7-4.73c3.26,5.02,6.51,6.7,10.84,5.44,1.19-.34,3.28-1.86,4.09-2.79,1.49-1.7,1.58-4.17,1.6-6.44l.28-47.93c1,2.34,3.12,4.25,5.63,4.68s5.3-.8,6.42-3.09c.68-1.39,.73-2.99,.76-4.54,.13-6.27,.21-12.55,.25-18.82,.03-6.04,.95-12.21-.73-18.05-1.6-5.58-5.92-7.92-11.64-8.89Z"/><path class="d" d="M151.8,90.54v1.34c-.03-4.33,0-8.89,.06-13.38-.23,4.88-.44,10.21-.46,15.26,0,2.54,0,4.94,.14,7.32,.16,2.37,.58,4.68,1.54,6.58-.05,.26,.12,1.1,.73,2.19,.61,1.12,1.79,2.26,3.19,2.96,1.39,.72,2.96,.97,4.15,.9,.3,0,.57-.05,.82-.08,.28-.06,.53-.1,.72-.17,.39-.12,.6-.23,.62-.26,.49-.22,.91-.5,1.31-.79,.18-.15,.16-.17,.2-.22,.07-.11,.16-.25,.25-.42l.16-.32c-.05,.11-.1,.22-.16,.31-.11,.2-.22,.36-.3,.47,.08-.11,.19-.27,.3-.47,.05-.09,.1-.2,.16-.31,.06-.18,.05,0,.07,.02l.04,.21,.06,.54v.16c.02,.08,.02,.03,.03,.3l.03,1.23c.02,.82,.04,1.65,.06,2.47,.07,3.31,.11,6.68,.13,10.1,.04,6.84,.01,13.88-.02,21.04v6.04c0,1.22,.02,2.57,.23,4.02,.2,1.44,.6,3.03,1.52,4.53,.89,1.5,2.41,2.77,4.09,3.38,1.68,.63,3.49,.75,5.2,.4,1.72-.36,3.23-1.17,4.46-2.16,.31-.25,.6-.51,.87-.78,.14-.13,.28-.28,.39-.4-.02,.02,.02-.01,.02-.01,.04-.04,.07-.07,.09-.1,.03,.03,.06,.1,.08,.13l.02,.03,.27,.33c.22,.27,.46,.52,.68,.77,.92,.98,1.91,1.76,2.87,2.29,1.27,.74,2.81,1.14,4.31,1.15-1.25-.03-1.87-.22-2.48-.39-.59-.21-1.22-.4-2.24-1.04,1.32,.76,2.86,1.22,4.34,1.23,.73,0,1.45-.05,2.12-.2,.34-.06,.67-.14,.98-.24,.27-.07,.74-.22,1.08-.38,1.29-.64,2.21-1.35,3.16-2.18,.23-.21,.47-.43,.7-.68,.25-.27,.47-.55,.67-.85,.4-.6,.68-1.24,.88-1.87-.19,.43-.33,.67-.57,1.05-.25,.36-.59,.93-1.42,1.66,.66-.59,1.23-1.4,1.59-2.22,.42-1.18,.63-3.05,.6-4.79-.02-1.72-.04-3.42-.07-4.52,.11,.47,.15-1.26,.17-2.78l-.08,.6c.08-5.79,.03-12.51,.07-17.68,0-.72,.05-1.26,.09-1.59l-.06-4.96c.15,.38,.16-4.11,.24-1.75-.08-1.86-.09-3.73-.09-5.58,0-.92-.01-1.84-.02-2.75l-.03-1.36-.02-.67v-.32l-.03-.16v-2.42s.03,.06,.04,.08c.12,.25,.26,.49,.43,.72,.19,.26,.42,.5,.68,.7,.07,.05,.13,.1,.2,.15,.09,.06,.08,.06,.28,.18,.31,.19,.64,.38,.99,.53,1.38,.63,3.02,.83,4.52,.49,1.5-.32,2.92-1.11,3.93-2.33,1.05-1.23,1.44-2.85,1.53-4.26,.1-1.44,.05-2.76,.07-4.13v-4.07c-.02-2.71-.03-5.41-.04-8.1l-.06,.32c-.04-2.28-.08-4.44-.13-6.72-.01-2.27,.1-4.67,.16-7.47-.09-1.99-.3-4.41-.78-6.47-.47-2.06-1.22-3.71-1.74-4.3-.52-.98-1.1-1.73-1.71-2.32-.6-.6-1.22-1.07-1.87-1.46-1.31-.79-2.73-1.36-4.86-1.87,.52,.22-.51-.01-1.43-.14-.91-.13-1.77-.22-.68,.02,1.4,.36,2.12,.57,2.78,.76,.65,.21,1.28,.39,2.3,.96l-.04-.08c2.48,1.17,4.32,3.18,5.19,5.69,.87,2.56,1.13,5.44,1.13,8.3,0,2.88-.24,5.83-.34,8.85-.06,2.99-.13,5.98-.19,8.98,0,3.97-.02,8.19-.11,12.31-.04,.98-.16,1.87-.46,2.59-.28,.7-.76,1.28-1.41,1.73-.65,.44-1.43,.74-2.22,.82-.79,.1-1.56-.03-2.32-.32-.25-.11-.5-.22-.75-.37-.15-.1-.19-.09-.5-.34-.25-.19-.5-.38-.74-.66-.12-.13-.24-.25-.36-.39l-.37-.6-.19-.3-.09-.15-.11-.24-.46-.95c-.83-1.74-1.66-3.48-2.49-5.23-.14,3.3-.27,1.44-.23,4.05,0,1.69,0,3.37,0,5.06,0,2.28,.01,4.54,.02,6.77,.03,3.74,.06,7.34,.09,10.58,.03,1.83-.11,3.15-.19,4.71-.01,7.06-.03,16.02-.04,23.98v-.38c.01,2.04-.26,3.72-1.09,4.79-.36,.49-1.06,1.03-1.76,1.53-.7,.47-1.49,.99-2.15,1.13,.03,.03-.52,.19-.77,.24-.15-.04-1.48,.32-3.19-.25-.86-.28-1.8-.88-2.71-1.74-.24-.2-.45-.45-.68-.68-.12-.11-.22-.25-.33-.38-.12-.13-.36-.43-.53-.65l-1.07-1.5-.52-.75-.26-.37c-.09-.12-.17-.27-.25-.3l-1.07,1.81c-.18,.31-.37,.58-.55,.87-.2,.26-.38,.5-.6,.76-.46,.53-.97,1-1.52,1.39-1.09,.78-2.29,1.23-3.37,1.35-1.09,.12-2.05-.05-2.72-.27-.68-.22-1.07-.49-1.2-.57-.31-.19-.62-.4-.89-.67-1.32-1.31-1.87-3.31-2.01-5.36-.15-2.05-.02-4.26,0-6.4,.07-4.28,.13-8.41,.07-12.15-.11-1.62-.22-3.45-.34-4.82,.08-1.32-.1-1.58-.09-3.17,.39-4.05,.19-6.42,.06-4.33-.09-3.33-.08-6.67-.12-9.63l-.14-4.49c-.05-1.78,0-2.81,.09-3.92-.04-1.97-.05-2.88-.04-3.69,0-.14,0-.11-.01-.13l-.02-.04s-.03-.08-.05-.16l-.03-.12-.04-.25-.04-.32-.06-.58c-.51,.99-1.17,2.28-2,3.91-.3,.45-1.08,2.2-2.01,3.11-.24,.28-.48,.46-.74,.68-.19,.14-.3,.23-.47,.32-.31,.19-.64,.35-.96,.42-.77,.17-1.64,.14-2.29-.01-.67-.14-1.15-.37-1.3-.47,.13,.07,.27,.11,.4,.17-.7-.32-1.27-.75-1.71-1.23-.43-.49-.73-1.01-.97-1.61-.47-1.2-.69-2.56-.85-4.23-.2-2.32-.1-4.86-.12-7.42,0-2.55,0-5.12-.01-7.66,0-2.55-.02-5.07-.02-7.53,0-2.46-.05-4.88,.09-7.06-.16-.1-.05,1.95-.24,2.06,.04-2.65,.31-5.24,1.3-7.47,.97-2.25,2.61-4.21,4.59-5.63,.74-.49,1.71-.94,2.09-1.05,1.42-.55,.8-.44,1.88-.78l.19,.09c1.6-.54,2.45-.37,4.09-.59,.08-.06,.69-.12,1.3-.15,.03,.14,1.88-.1,1.81,.04h.02c.37-.03,.64-.05,1.1-.04,.72-.09,7.37-.74,8.09-.79l.34,.02c1-.02,1.42-.14,.84-.16h2.31c.22,.02,.48,.1,.13,.16,.69-.05,1.47-.08,2.15-.03-1.91-.1-4.28-.23-6.32-.35,.83-.07,2.33-.01,3.22-.03,1.11,.07,3.28,.21,4.97,.31,.37,0,.64-.16,1.49-.04,.41,.14,.96,.03,1.66,.17-.81,0-1.6-.05-2.42-.1,.14,.14,1.99,.18,2.64,.27,.31-.03,1.88,.14,2.87,.2-.44,.08,.79,.17,1.36,.3,.66,.1,1.09,.1,.83,.02,.24-.13-2.63-.39-1.69-.43,.24,.09,1.54,.21,2.24,.31,.02-.08-.47-.12,0-.13,.78,.11,1.61,.17,2.04,.31-.15,0-.47-.07-.69-.1,.5,.08-.88-.02-2.23-.06-1.35-.04-2.66-.05-2-.01-.17-.04,1.29-.03,2.7,.06,1.41,.08,2.78,.22,2.44,.16-.61-.13,.46-.07-.17-.19l-.72-.02c-.87-.17-1.21-.34-.89-.36,.73,.11-.33,.09-1.41,.07-1.08,0-2.19,0-1.56,.02l-.51-.09c.54,0,1.97,.11,2.5,.27,.01-.07,.73-.01,1.33,.05l.21,.05c.62,.06,1.47,.21,1.09,.05-3.6-.55,2.5-.39-.99-.98,1.45,.4-.52,.08-2.07-.09-.14-.08-.82-.24-1.94-.4-.97-.07-.58,.01-.77,.04-.53-.09-1.56-.2-1.42-.27-.77,.05-1.21-.15-2.12-.16-.81,0,.05,.05-.52,.07-1.21-.07-2.9-.12-3.86-.15-.37-.08-1.5-.24-.68-.36,1.84,.03-.7,.2,1.21,.19-.82-.2,1.69-.03,2.04-.15-.61-.11-1.84-.13-2.87-.12l.21,.03c-.91,.02-2.73,.06-3.71-.03,.23-.07-.2-.12,.47-.14h-1.25c-.16,.03-.32,.05,.04,.06-.59,.06-1.18,.05-1.64,.02-.14-.09-6.64,.52-6.44,.47-.9,.04-1.12-.06-2,.05-.02,.02,.5-.01,1.29-.07,.78-.05,1.82-.13,2.83-.2,2.01-.14,3.89-.26,3.3-.23-.78-.06-10.19,.7-10.76,.71-.67,.07-1.46,.2-1.3,.25-1.12,.14,.32-.19-.49-.13-.02,.01,.07,.02-.18,.06l-.78,.06c-.86,.23-1.92,.51-2.94,.94-1.03,.42-2.01,.98-2.72,1.57,.4-.37,.83-.84,1.9-1.44l.21-.06c.14-.11,1.06-.5,1.01-.55-1.11,.36-2.01,.83-2.99,1.56l-.58,.33s.03,0,.03,.01c-.35,.2-.32,.17-.22,.06,.01-.02,.03-.03,.06-.06-.35,.13-1.27,.85-2.13,1.86-.88,1-1.69,2.25-2.23,3.17-.28,.56,0,.07-.31,.78-.98,1.94-1.39,3.43-1.69,5.66,.03,.72,.05,.78,.23-.07-.07,.56-.12,1.12-.16,1.67-.08-.77-.19,.01-.27,.77-.08,.76-.14,1.5-.25,.66-.07,.49-.08,1.49-.04,2.42,.06,.09,.16,.24,.16,1.4l-.12,2.58c-.08,.32-.11-.17-.17-.12,.1,2.07-.17,1.81-.15,3.76,.03,1.22,.04,3.64,.18,3.7,0,1.65-.1,1.65-.22,1.48Z"/></g><g><path class="b" d="M201.55,79.83c-.45,10.3,.47,20.22,.47,32.24"/><path class="b" d="M200.06,87.09v.13c-.03-.44,.02-.9,.07-1.35-.47,.98-.87,2.16,.14,2.9-.53,.09-.76,1.05-.63,1.07,.1,.2,.19,.39,.25,.6-.04-.14-.09-.28-.14-.41,.05,.14,.1,.27,.14,.41,.44,1.27,.3,2.66,.14,4.1-.08,.8-.12,2.96-.25,3.78l-.04,.36,.08-.4c.16,.49,.31,.94,.42,1.37,.07-.08,.15-.09,.25-.28l-.04,.22c.23,.19,.23,.66,.33,.88-.12-.04-.13,.13-.15,.28l.07-.06c-.03,.58,.09,1.25,.09,1.76,0,.07-.04,.13-.08,.16l.1,.49c-.16-.03-.12,.41-.23,.18,.19,.36,.09,.74,.29,1.09,.06,1.26,.2,2.6,.48,3.9l.06-.03c.11,.46,.42,.85,.32,1.41,.21,.39,.32,.96,.64,1.12,.05,.46,.21,.64,.29,1.09,.16-.12,.19,.44,.32,.22,.22-.3,.03-.32,.21-.57h-.05c.24-1.18,.36-2.37,.42-3.58-.15-.8-.06-1.67-.11-2.51-.08-.9-.21-1.86-.37-2.63-.05-.18,.08-.32,.15-.48-.09-.71-.07-1.61-.18-2.4v.04c-.04-.42,.11-.74,.07-1.16-.05,0-.05-.06-.08-.09,.21-.08-.52-2.41-.41-2.56l-.03-.13c.06-.87,.45-1.79,.39-2.53-.1-.16-.2-.34-.31-.47,.09-.13-.09-.15-.07-.31,.41-.42,.23-.65,.08-.43-.07-.33-.04-.66-.06-.96l-.11-.41c-.04-.12,.02-.18,.12-.24-.07-.3,.04-.21,.08-.53,.15-.08-.25-.78-.21-.87l.02,.05c.02-.36,.3-.61,.31-.96,.09-.99-.02-2.06,.03-2.97-.16,0,.03,.2-.17,.21,.03-.54,.23-1.08,.26-1.62,.04-.1,.12-.22,.17-.26,.06-.17-.07-.1-.05-.23h.14c-.11-.2,.16-.28,.11-.46-.06-.01-.06-.07-.06-.14,.15,0,0-.19,.13-.18h-.01s0-.07,.02-.11c-.05-.07-.45-.74-.51-.82l.03-.03c0-.1-.11-.14-.14-.09v-.12h.02v-.11s.1-.05,.16,0c-.05-.07-.07-.15-.05-.22-.1,.19-.24,.42-.39,.62-.05-.08,.04-.23,.02-.32,.1-.1,.19-.32,.27-.49,0-.04-.17-.07-.1-.15,.12-.04,0-.1,.08-.16,.06,.08,.03,.16,.02,.24,.14,0,.1-.2,.14-.26-.04-.03,0-.19-.03-.29,.13,.05,.09-.08,.16-.13,.02-.07-.03-.11-.08-.09-.14-.03-.09,.26-.24,.16,.07-.02,.05-.15,.05-.23-.08,0-.06,.05-.13,0,.02-.08-.07-.17,.01-.21,.02,.02,0,.05,0,.07,.01-.1,.48,.58,.44,.44-.07,.03-.44-.6-.44-.54-.04,.06-.14-.05-.17,.01l.09,.08c-.03,.09-.17,.12-.22,.08,.02-.15,.51,.44,.44,.31l-.04,.05c-.05-.06-.09-.2,0-.25-.08,0-.1-.08-.13-.14v-.02c-.02-.06,0-.15-.1-.11,0,.37-.77-.27-.82,.08,.17-.14,.17,.06,.18,.21-.06,.01-.14,.08-.19,.19,0,.1,.06,.06,.1,.08-.04,.05-.08,.15-.16,.14,.1,.08-.07,.12-.04,.21,.05,.08,.05,0,.09,.06-.02,.12-.04,.29-.06,.38-.08,.03-.24,.14-.36,.06,.02-.18,.21,.08,.19-.12-.19,.08-.05-.17-.19-.21-.09,.06-.09,.18-.07,.29l.03-.02c.02,.09,.05,.27-.05,.37-.07-.03-.12,.02-.13-.05l-.02,.12s.04,.03,.06,0c.05,.06,.02,.12-.02,.16-.07,.01,.28,.67,.24,.65,0,.09-.11,.11-.04,.2,.06,.01-.22-.87-.2-.75-.08,.08,.33,1.03,.2,1.08,0,.07,.02,.15,.09,.13-.04,.11-.14-.04-.2,.04,.01,0,.04,0,.03,.02l-.09,.08c.11,.18-.04,.43,.1,.62-.08-.05-.21-.12-.28-.24l.04-.02s-.04-.11-.12-.11c-.05,.11-.04,.21,.03,.33-.02,.02-.04,.05-.06,.06h.03s-.05,.03-.08,.02h-.02c-.21,.06,.13,.43,.02,.64,.03,.06,.04,0,.08,.08-.08,.21-.15,.35-.2,.57,.09,.07,.13,.08,.22,0l-.03,.17c-.24-.15-.23,.31-.47,.14-.06,.05-.07,.15-.03,.24,.06,0,.16,.02,.16,.14-.08,.16-.05,.12-.13,.26-.08,.03-.11-.02-.17-.01,.1,.21-.17,.18-.15,.38,.02,.12,.03,.37,.17,.37,0,.17-.11,.17-.22,.15Z"/></g><g><path class="b" d="M184.91,118.13c-.33,14.46-.02,29.22-.64,43.67"/><path class="b" d="M183.4,127.93l-.02,.18c0-.59,.05-1.2,.11-1.81-.48,1.32-.91,2.88,.08,3.91-.53,.11-.79,1.39-.66,1.42,.1,.27,.17,.54,.24,.81-.04-.19-.08-.38-.13-.56,.05,.19,.09,.37,.13,.56,.4,1.73,.21,3.6,0,5.54-.11,1.07-.24,3.99-.4,5.09l-.06,.48,.1-.53c.14,.67,.27,1.28,.35,1.87,.08-.1,.15-.12,.26-.37l-.05,.3c.22,.28,.2,.91,.29,1.2-.11-.07-.14,.17-.16,.37l.08-.08c-.06,.78,.03,1.69,0,2.39,0,.1-.05,.17-.09,.21l.08,.67c-.15-.05-.14,.55-.24,.23,.17,.5,.06,1.01,.24,1.49,0,1.71,.07,3.53,.27,5.3l.06-.04c.08,.62,.37,1.18,.24,1.93,.19,.54,.27,1.31,.58,1.54,.02,.62,.17,.88,.23,1.49,.17-.15,.17,.6,.3,.31,.24-.4,.05-.43,.24-.76h-.05c.31-1.59,.49-3.19,.62-4.81-.11-1.09,.04-2.26,.02-3.39-.03-1.22-.11-2.53-.23-3.57-.04-.25,.09-.43,.17-.64-.06-.96,0-2.18-.07-3.26v.05c-.03-.57,.14-1,.12-1.56-.05,0-.05-.08-.07-.13,.21-.1-.42-3.3-.29-3.49l-.02-.18c.1-1.18,.52-2.4,.49-3.41-.1-.22-.18-.47-.3-.65,.09-.18-.08-.21-.06-.43,.43-.55,.25-.87,.1-.59-.06-.45-.02-.9-.03-1.3l-.1-.56c-.03-.16,.03-.25,.13-.33-.06-.41,.05-.29,.09-.71,.15-.1-.23-1.07-.18-1.19l.02,.07c.03-.49,.32-.82,.33-1.3,.12-1.34,.02-2.8,.09-4.04-.16-.01,.03,.27-.17,.29,.04-.73,.24-1.47,.27-2.2,.04-.13,.12-.29,.17-.35,.06-.23-.07-.14-.05-.31l.14-.02c-.11-.25,.16-.37,.11-.6-.06-.01-.06-.1-.06-.18,.15,0,0-.26,.13-.25h-.01c0-.05,0-.09,.02-.15-.05-.1-.45-1.01-.51-1.11l.03-.05c0-.14-.11-.2-.14-.12v-.17l.02,.02v-.17s.1-.06,.16-.02c-.05-.1-.08-.2-.05-.29-.1,.26-.23,.58-.39,.85-.05-.11,.03-.32,.02-.44,.1-.14,.19-.44,.26-.67,0-.05-.17-.09-.1-.2,.12-.05,0-.13,.08-.23,.06,.11,.03,.22,.02,.33,.14-.02,.1-.27,.14-.36-.04-.04,0-.26-.03-.4,.13,.06,.09-.11,.16-.19,.02-.09-.03-.15-.08-.12-.14-.03-.09,.36-.24,.23,.07-.03,.05-.21,.04-.31-.08,0-.06,.06-.13,0,.02-.11-.07-.22,0-.28,.02,.02,0,.06,0,.1,.01-.14,.49,.77,.45,.59-.07,.05-.44-.81-.45-.72-.04,.08-.14-.06-.17,.02l.09,.1c-.03,.12-.17,.17-.22,.12,.02-.2,.51,.59,.44,.41l-.04,.07c-.05-.07-.09-.27,0-.35-.08,0-.1-.1-.13-.18v-.03c-.02-.09,0-.2-.1-.15,0,.5-.77-.35-.82,.14,.17-.2,.17,.07,.19,.28-.06,.02-.14,.11-.19,.26,.01,.13,.06,.08,.1,.11-.04,.07-.07,.21-.16,.19,.1,.11-.07,.16-.04,.29,.05,.11,.05,0,.1,.07-.01,.16-.03,.39-.06,.52-.08,.05-.23,.2-.36,.09,.02-.25,.21,.1,.19-.16-.19,.11-.05-.23-.19-.28-.09,.08-.09,.25-.07,.39l.03-.03c.02,.12,.06,.37-.05,.5-.07-.03-.12,.02-.13-.07l-.02,.17s.04,.04,.06,0c.05,.08,.02,.16-.02,.22-.07,.02,.28,.91,.24,.88,0,.12-.11,.15-.04,.27,.06,.01-.22-1.17-.2-1.01-.08,.1,.33,1.39,.2,1.46,0,.09,.02,.2,.09,.18-.04,.15-.14-.05-.2,.06,.01,0,.04,0,.03,.03l-.09,.1c.11,.24-.04,.58,.1,.83-.08-.07-.21-.16-.28-.32l.04-.03s-.04-.15-.12-.15c-.05,.15-.04,.28,.03,.44-.02,.03-.04,.06-.06,.09h.03s-.05,.04-.08,.02c0,0-.01,0-.02-.01-.21,.09,.13,.6,.01,.87,.03,.08,.04,0,.07,.11-.09,.28-.15,.48-.2,.77,.09,.1,.13,.1,.22,0l-.03,.22c-.24-.21-.23,.42-.47,.19-.06,.06-.07,.2-.03,.32,.06,.01,.16,.03,.16,.19-.08,.22-.05,.17-.13,.35-.08,.04-.11-.02-.17-.02,.1,.28-.17,.24-.16,.51,.02,.17,.03,.49,.17,.5,0,.22-.11,.22-.22,.2Z"/></g><g><path class="b" d="M149.66,42.48c-.68,1.67-1.63,3.26-2.97,4.48-1.43,1.31-3.24,2.14-5.08,2.74-3.31,1.08-6.93,1.48-10.26,.48-21.5-6.46-5.19-42.18,15.91-23.94,4.47,3.86,4.58,10.9,2.4,16.24Z"/><path class="b" d="M132.25,49l-.33-.11c1.08,.3,2.26,.5,3.47,.56-1.32-.24-2.62-.63-3.82-1.1-1.25-.45-2.4-.83-3.52-.93,.05-.3-.42-.8-.85-1.27-.4-.5-.83-.91-.9-.88-.39-.3-.79-.62-1.17-.97,.25,.25,.53,.47,.79,.7-.26-.23-.53-.45-.79-.7-1.15-1.16-1.94-2.77-2.28-4.53-.34-1.77-.24-3.67,.22-5.51,.23-1.02,.8-2.91,1.81-4.58,.97-1.69,2.32-3.09,3.16-3.69,.24-.18,.45-.39,.71-.54-.44,.25-.41,.29-.82,.58,.82-.98,1.74-1.69,2.68-2.3-.21,.01-.27-.02-.74,.12l.53-.25c.38-.42,1.54-.9,2.09-1.09-.09,.16,.35,.02,.75-.03l-.17-.05c1.51-.27,3.31-.3,4.69-.05,.19,.05,.32,.13,.4,.18,.44,.09,.88,.13,1.32,.25-.14,.11,1,.52,.37,.39,.49,.11,.99,.22,1.44,.45,.46,.22,.91,.43,1.39,.56,.75,.45,1.51,.92,2.26,1.43,.36,.27,.73,.55,1.1,.83,.38,.27,.74,.55,1.04,.85,1.31,1.15,2.23,2.74,2.85,4.44l.03-.1c.43,1.19,.9,2.32,.81,3.92,.21,1.14,.12,2.79,.32,3.31-.22,1.34-.21,1.91-.59,3.22,.28-.27-.29,1.3,.06,.73,.52-.78,.39-.89,.78-1.58h-.06c1.29-3.39,1.68-7.28,.49-11.05-.51-1.21-1.15-2.44-2.02-3.56-.23-.27-.44-.55-.68-.81l-.76-.74c-.5-.42-1.01-.81-1.52-1.2-2.21-1.63-4.96-2.98-7.34-3.47-.57-.09-.94-.33-1.41-.51-.57-.06-1.16-.11-1.79-.17-.63,0-1.28,.01-1.95,.03-.66,.11-1.33,.17-1.98,.33-.63,.21-1.29,.33-1.86,.62l.12-.04c-1.24,.52-2.23,.85-3.3,1.64,.03,.03-.13,.16-.2,.23-.15-.03-1.69,1.21-2.8,2.8-1.13,1.57-1.95,3.32-2.07,3.51l-.16,.38c-1.25,2.34-2.31,5.06-2.29,7.46,.11,.52,.2,1.09,.33,1.51-.04,.42,.14,.48,.18,.98-.16,.66-.07,1.18,0,1.43,.07,.26,.15,.26,.15-.08,.14,.51,.26,1.02,.46,1.5,.18,.48,.31,.97,.55,1.37l.68,1.12c.24,.29,.3,.49,.32,.71,.59,.75,.31,.61,.95,1.39,.04,.13,.46,.61,.99,.97,.53,.37,1.06,.71,1.15,.82l-.14-.09c.43,.38,.81,.67,1.15,1.01,.18,.16,.36,.33,.56,.49,.21,.14,.43,.27,.68,.4,.35,.19,.7,.37,1.05,.56l1.12,.43c.74,.29,1.54,.54,2.35,.69,1.62,.3,3.22,.33,4.66,.23,.02-.15-.63,.08-.68-.13,1.69-.06,3.4-.17,5.04-.63,.3-.05,.68-.09,.83-.08,.53-.12,.28-.17,.66-.29l.1,.11c.51-.31,.87-.16,1.37-.45,0-.06,.19-.15,.38-.24,.07,.13,.56-.29,.6-.16h0c.11-.07,.19-.12,.33-.17,.09-.08,.58-.48,1.03-.94,.45-.45,.85-.95,.92-1.05l.1-.06c.25-.23,.27-.41,.11-.3l.3-.28-.03,.04,.29-.29c.06-.05,.17-.06,.14,.07,.12-.21,.26-.42,.43-.59-.47,.45-1.12,.94-1.72,1.25,.17-.21,.58-.49,.77-.71,.31-.18,.85-.67,1.23-1.09,.06-.11-.02-.27,.19-.46,.17-.05,.17-.26,.36-.41-.09,.26-.25,.46-.41,.68,.14,.04,.44-.5,.58-.66,.02-.11,.32-.53,.43-.84,.05,.19,.2-.19,.34-.34,.11-.19,.12-.34,.04-.28-.09-.12-.46,.74-.45,.4,.1-.04,.26-.43,.35-.64-.07-.03-.12,.11-.12-.05,.12-.22,.14-.5,.26-.6,0,.05-.05,.14-.08,.21,.17-.3-.3,1.83-.17,1.43-.07,.06,.39-1.9,.28-1.7-.11,.17-.07-.18-.18,0v.24c-.14,.24-.31,.29-.32,.18,.22-.42-.09,1.43,0,1.03l-.11,.13c.04-.18,.2-.6,.35-.73-.07-.03,0-.25,.06-.44l.04-.06c.04-.2,.16-.44,.02-.36-.43,1.04-.43-.97-.89,0,.33-.34,.11,.21-.08,.64-.07,.02-.24,.17-.43,.44-.12,.26-.03,.18-.02,.25-.11,.12-.29,.37-.35,.29-.02,.25-.24,.27-.36,.52-.09,.23,.05,.01,0,.18-.21,.29-.53,.68-.73,.89-.14,.03-.46,.18-.4-.08,.36-.39,.03,.29,.36-.15-.29,.07,.27-.42,.2-.59-.17,.09-.38,.37-.56,.61l.06-.03c-.14,.22-.47,.63-.75,.74,0-.09-.12-.05,0-.19l-.26,.23s-.04,.09,.05,.04c-.09,.15-.23,.24-.36,.29-.04-.02-.35,.34-.69,.66-.34,.32-.7,.62-.68,.58-.22,.13-.33,.06-.52,.25,0,.03,.53-.3,.98-.67,.45-.37,.82-.75,.69-.64-.11,.04-.62,.54-1.22,.97-.59,.43-1.23,.79-1.33,.76-.17,.08-.38,.18-.32,.23-.32,.09,.04-.16-.2-.14,0,.01,.03,.03-.04,.05h-.24c-.43,.29-1.18,.38-1.64,.67,.12-.12,.25-.3,.55-.47l.07,.02s.29-.15,.26-.21c-.32,.06-.57,.15-.87,.32-.06,0-.14,0-.19,0,0,0,.01,.01,.01,.03-.12-.01-.11-.02-.08-.06,0,0,0-.01,.02-.02-.24-.14-1.17,.46-1.76,.46-.16,.06,0,.04-.21,.12-.6,.03-1.01,.02-1.62,.04-.19,.11-.2,.15,.05,.22h-.47c.4-.25-.87-.16-.43-.43-.14-.05-.4-.04-.66,0-.02,.06-.06,.16-.38,.16-.44-.1-.34-.06-.7-.16-.08-.09,.05-.11,.04-.17-.56,.06-.47-.2-.98-.25-.32-.02-.95-.13-.99,0-.43-.1-.4-.2-.33-.3Z"/></g><g><path class="b" d="M119.06,52.37c9.83-1.67,19.88-1.26,29.84-.85,3.26,.13,6.58,.28,9.64,1.43,4.33,1.63,7.84,5.31,9.25,9.72,.98,3.05,.98,6.31,.97,9.51l-.04,23.02c0,3.53-.14,8.41-2.51,11.03-1.6,1.76-4.11,2.65-6.46,2.29s-4.47-2.97-5.46-5.14l-.46,49.09c-.03,3.45-.22,7.29-2.66,9.73-1.9,1.9-4.9,2.48-7.48,1.74s-4.73-2.68-6.05-5.02c-3.45,5.33-6.91,7.11-11.5,5.78-1.26-.36-3.48-1.98-4.34-2.96-1.58-1.8-1.68-4.43-1.7-6.83l-.3-50.85c-1.06,2.49-3.31,4.51-5.97,4.96s-5.62-.85-6.81-3.28c-.72-1.47-.77-3.17-.81-4.81-.14-6.66-.23-13.31-.26-19.97-.03-6.4-1.01-12.95,.77-19.16s6.28-8.4,12.35-9.43Z"/><path class="b" d="M167.36,85.95l-.02,1.42c0-4.6,.06-9.43,.12-14.19-.24,5.18-.48,10.83-.52,16.19-.03,2.66,.02,5.33,.07,7.67,.03,2.35-.06,4.47-.44,6.24-.19,.14-.54,.76-1.08,1.4-.51,.63-1.36,1.27-2.31,1.64-.95,.38-1.95,.48-2.67,.42-.18,0-.35-.04-.48-.06-.1-.03-.19-.03-.28-.06-.16-.04-.27-.08-.29-.07-.25-.07-.52-.22-.78-.38l-.22-.15c-.17-.12-.31-.25-.46-.4-.3-.28-.59-.56-.87-.94-.14-.2-.28-.3-.43-.58l-.44-.73c-.14-.21-.31-.56-.47-.89l-.5-.98c-.8-1.6-1.6-3.21-2.41-4.81-.03,1.24-.06,1.7-.09,2.03,.03-.33,.06-.77,.1-2,.95,1.91,1.91,3.81,2.85,5.7l.3,.6c.1,.21,.18,.31,.27,.47,.18,.29,.36,.62,.53,.87,.34,.43,.68,.88,1.05,1.19-.36-.31-.7-.76-1.05-1.19-.17-.25-.35-.58-.53-.87-.09-.16-.17-.27-.27-.47l-.3-.6c-.95-1.89-1.9-3.79-2.85-5.7-.04,1.23-.07,1.67-.1,2,.01,4.8,.02,9.67,.04,14.62,0,3.51-.02,7.09-.06,10.72-.09,7.26-.25,14.72-.43,22.32-.03,1.65-.07,3.85-.12,6.39-.03,1.25-.08,2.54-.28,3.8-.2,1.26-.56,2.49-1.19,3.46-.63,.99-1.52,1.7-2.64,2.1-1.11,.4-2.38,.46-3.53,.21-1.15-.26-2.23-.85-3.14-1.61-.23-.19-.44-.39-.65-.6l-.3-.32s-.17-.21-.26-.32l-.31-.39c-.76-1.1-1.51-2.48-2.18-3.59-.88,1.26-1.71,2.46-2.5,3.6-.19,.27-.44,.59-.6,.78l-.3,.35c-.2,.22-.4,.42-.59,.63-.78,.78-1.51,1.3-2.15,1.62-.86,.46-1.74,.65-2.69,.64,.79,.02,1.16-.08,1.54-.16,.37-.12,.75-.19,1.47-.6-.87,.56-1.77,.9-2.75,.96-.49,.03-.99,.03-1.5-.06-.49-.06-1.1-.2-1.38-.31-.85-.36-1.84-1-2.64-1.64-.2-.16-.39-.33-.55-.48-.15-.15-.28-.3-.4-.47-.25-.33-.45-.72-.61-1.15,.07,.32,.11,.5,.2,.78,.12,.27,.23,.63,.75,1.21-.45-.45-.75-.93-.99-1.53-.47-.73-.79-2.32-.83-4.07l-.14-4.77c.12,.5,.13-1.33,.14-2.95l-.07,.64c.01-6.14-.12-13.27-.14-18.76,0-.77,.04-1.34,.07-1.69l-.12-5.26c.16,.4,.11-4.37,.22-1.86-.1-1.97-.13-3.95-.16-5.91l-.05-2.92-.05-1.44-.07-1.5c-.01-1.77-.03-3.56-.04-5.35v-1.34l-.02-.67v-.51s-.02,0-.03,.01c-.12,.12-.27,.2-.46-.95l-.96,1.96-.83,1.64-.69,1.28c-.21,.35-.4,.55-.61,.83-.2,.22-.41,.39-.61,.59-.2,.16-.46,.35-.55,.41-.26,.17-.53,.32-.81,.46-1.12,.54-2.36,.73-3.57,.5-1.21-.22-2.38-.82-3.18-1.73-.81-.89-1.19-2.1-1.32-3.46-.14-1.34-.12-2.83-.17-4.26l-.12-4.33c-.09-2.88-.17-5.76-.26-8.62l-.05,.34c-.09-2.43-.2-4.71-.34-7.13-.14-2.42-.37-4.96-.33-7.9-.12-2.1-.06-4.65,.26-6.87,.3-2.22,.9-4.08,1.19-4.91,.57-1.12,1.19-2,1.86-2.72,.65-.73,1.33-1.31,2.05-1.81,1.44-1.01,3.03-1.79,5.4-2.45-.63,.09,.51-.28,1.53-.51,1.03-.25,1.87-.41,.71-.28-1.63,.17-2.48,.4-3.26,.62-.78,.24-1.5,.45-2.85,.98h.1c-1.53,.69-3.02,1.62-4.23,2.88-1.22,1.24-2.17,2.76-2.8,4.36-1.19,3.2-1.54,6.48-1.64,9.72-.08,3.23,.12,6.4,.17,9.51,.02,3.15,.04,6.32,.06,9.49,.13,4.26,.17,8.63,.26,13.17,.06,1.18,.18,2.48,.7,3.78,.52,1.32,1.49,2.49,2.63,3.26,1.14,.79,2.45,1.27,3.81,1.42,1.36,.17,2.78-.07,4-.57,.42-.18,.84-.38,1.23-.62l.29-.18c.09-.05,.22-.15,.22-.15,.05-.04,.08-.06,.11-.09,.14-.12,.27-.26,.38-.43,.07-.11,.14-.22,.2-.35l.04-.09s0,.05,0,.08v.18l.04,.76c.03,1.73,.06,3.44,.09,5.12,.08,3.94,.15,7.73,.22,11.15,.06,1.94-.07,3.34-.13,5,.12,7.5,.11,16.99,.26,25.49v-.43c.02,1.15,.07,2.28,.28,3.4,.21,1.12,.59,2.26,1.29,3.26,.75,1.05,1.58,1.67,2.44,2.33,.44,.32,.9,.63,1.41,.92,.25,.15,.53,.29,.82,.42,.29,.13,.71,.27,.97,.32,0-.05,.72,.15,1.1,.17,.1,.05,.6,.15,1.44,.2,.84,.02,2.05-.05,3.36-.55,1.33-.47,2.64-1.41,3.78-2.54,.3-.28,.55-.59,.83-.89,.14-.15,.26-.32,.39-.47l.23-.29,.25-.37,.12-.2,.06-.1s.04-.1,.06-.04c.18,.28,.32,.47,.65,.8,.63,.67,1.33,1.27,2.08,1.76,1.49,.99,3.18,1.56,4.69,1.67,3.07,.22,5.08-1.08,5.45-1.27,.43-.29,.87-.62,1.26-1.02,.95-.92,1.67-2.07,2.12-3.27,.46-1.2,.71-2.43,.86-3.64,.28-2.44,.26-4.73,.36-7,.15-4.54,.29-8.91,.31-12.88-.08-1.72-.15-3.67-.25-5.12,.1-1.4-.07-1.67-.03-3.37,.46-4.29,.31-6.81,.14-4.59-.02-3.54,.05-7.08,.06-10.22-.02-1.37-.04-2.73-.06-4.11-.03-.6,.04-.91,.14-1-.02-.57-.01-.83,0-.99,0-.08,.04,.05,.06,.09l.08,.18c.06,.12,.13,.26,.22,.42,.07,.13,.18,.29,.32,.47,.05,.11,.18,.28,.4,.45-.02-.01,.58,.44,1.09,.7,.54,.28,1.16,.53,1.86,.63,1.26,.18,2.49,.02,3.44-.26,.95-.27,1.61-.63,1.85-.75-.18,.11-.37,.2-.55,.29,1.02-.44,1.88-1.02,2.6-1.69,.72-.69,1.28-1.48,1.7-2.29,.83-1.63,1.25-3.33,1.46-5.31,.29-2.77,.2-5.46,.23-8.15l.02-8.13v-7.99c-.01-2.61,.07-5.13-.07-7.68-.14-.09,.13,2.22-.09,2.33-.03-2.91-.18-6.02-1.34-9.01-1.15-2.95-3.15-5.57-5.73-7.44-.9-.72-2.1-1.47-2.58-1.73-1.87-.87-1.15-.43-2.55-.92l-.15-.19c-2.12-.44-3.06-.82-5.02-.95-.11,.05-.82,0-1.49-.05-.03-.16-2.08-.09-1.97-.22h-.02c-.4,0-.68-.01-1.17-.06-.75,0-7.91,.16-8.69,.24l-.36-.03c-1.07-.01-1.53,.09-.91,.13l-1.32-.02h.15l-1.32-.02c-.24-.01-.52-.08-.14-.15-.75,.06-1.58,.08-2.33,.08,2.08,.05,4.65,.2,6.81,.4-.89,.03-2.49-.07-3.46-.06-1.15-.11-3.52-.18-5.37-.18-.41,.02-.68,.19-1.6,.16-.46-.09-1.04,.05-1.81,.02,.88-.12,1.74-.13,2.64-.16-.16-.13-2.18,0-2.89,.02-.33,.06-2.06,.15-3.14,.29,.46-.18-.88,.01-1.53,.01-.73,.07-1.19,.19-.89,.2-.22,.15,2.92-.25,1.91,0-.27-.05-1.7,.14-2.47,.26,0,.08,.53-.01,.04,.13-.86,.09-1.74,.34-2.24,.33,.16-.05,.51-.09,.76-.12-.55,.08,.92-.29,2.38-.59,1.45-.3,2.88-.54,2.16-.45,.19,.02-1.39,.27-2.91,.6-1.53,.31-2.99,.67-2.62,.6,.68-.07-.46,.21,.24,.13l.76-.21c.96-.13,1.37-.04,1.04,.06-.8,.11,.31-.19,1.47-.45,1.15-.26,2.35-.49,1.66-.38l.56-.02c-.58,.11-2.13,.31-2.74,.32,0,.08-.78,.2-1.42,.33l-.23,.02c-.66,.14-1.6,.27-1.15,.3,3.9-.62-2.44,1.17,1.34,.62-1.6,.08,.5-.27,2.16-.49,.17,.03,.92,.04,2.12-.04,1.04-.1,.61-.11,.8-.17,.58-.02,1.68-.07,1.54,.04,.8-.16,1.3-.02,2.27-.1,.85-.09-.06-.04,.54-.12,1.29-.05,3.09-.07,4.11-.07,.4,.08,1.6,.22,.73,.36-1.94,0,.74-.22-1.29-.17,.87,.18-1.79,.08-2.15,.25,.65,.06,1.95,.04,3.04,0l-.22-.02c.96-.03,2.89-.07,3.93,.05-.25,.06,.21,.12-.5,.13l1.32,.03c.17-.02,.34-.04-.04-.06,.63-.04,1.25,0,1.73,.05,.14,.05,7.06-.06,6.84-.02,.96,.04,1.18,.15,2.12,.12,.03-.01-.53-.03-1.37-.04-.83-.01-1.94-.02-3.01-.04-2.14-.02-4.13,0-3.5,0,.81,.09,10.84,.01,11.41,.3,.7,.06,1.55,.17,1.39,.07,1.17,.22-.37,.08,.45,.28,.02,0-.06-.05,.2,0l.78,.24c.91,.13,2.01,.43,3.06,.88,1.05,.44,2.05,1.01,2.88,1.5-.5-.25-1.1-.5-2.22-.97l-.18-.13c-.16-.07-1.1-.41-1.1-.33,1.06,.45,1.93,.88,2.99,1.48,.18,.14,.37,.31,.51,.43,0-.01,0-.03,0-.03,.3,.26,.26,.25,.12,.18-.02,0-.04-.02-.08-.03,.22,.3,1.14,.93,2.05,1.86,.92,.91,1.82,2.09,2.26,3.04,.32,.53,.06,.03,.44,.7,.82,1.98,1.09,3.45,1.29,5.69,.15,.71,.2,.77,.21-.12,.05,.57,.08,1.15,.1,1.72-.16-.78-.17,.03-.2,.82-.03,.79-.09,1.56-.22,.69-.04,.51-.05,1.54-.02,2.53,.06,.1,.16,.25,.15,1.49l-.13,2.73c-.08,.34-.11-.19-.17-.13,.1,2.2-.17,1.92-.16,3.99,.02,1.3,.03,3.86,.16,3.92,0,1.75-.11,1.75-.22,1.57Z"/></g><path class="d" d="M116.55,82.28l-.02,.14c0-.46,.04-.94,.1-1.41-.47,1.03-.89,2.23,.09,3.04-.53,.08-.79,1.07-.66,1.09,.09,.21,.17,.42,.23,.63-.03-.15-.07-.29-.12-.44,.05,.15,.09,.29,.12,.44,.39,1.35,.16,2.81-.09,4.32-.13,.84-.32,3.12-.5,3.97l-.07,.37,.11-.42c.12,.53,.24,1.01,.32,1.48,.08-.08,.15-.09,.26-.28l-.06,.23c.21,.22,.19,.72,.27,.95-.11-.05-.14,.13-.17,.29l.08-.06c-.07,.61,0,1.33-.03,1.88,0,.08-.05,.13-.09,.17l.07,.53c-.15-.05-.15,.43-.24,.18,.17,.4,.05,.8,.23,1.18-.01,1.34,.07,2.78,.31,4.17l.06-.03c.1,.49,.4,.92,.29,1.51,.2,.42,.31,1.02,.63,1.19,.04,.49,.2,.68,.28,1.16,.16-.12,.19,.46,.32,.23,.22-.32,.03-.33,.22-.6h-.05c.24-1.24,.39-2.49,.48-3.75-.12-.85,0-1.76-.01-2.64-.03-.95-.11-1.97-.22-2.79-.04-.2,.1-.33,.18-.49-.05-.75,.04-1.7-.02-2.54v.04c-.02-.45,.16-.78,.14-1.22-.05,0-.05-.07-.07-.1,.21-.07-.35-2.59-.23-2.74l-.02-.14c.13-.92,.57-1.87,.56-2.66-.09-.18-.18-.37-.28-.52,.09-.14-.08-.17-.05-.34,.44-.42,.27-.68,.11-.46-.05-.36,0-.71,0-1.03l-.09-.44c-.03-.13,.03-.19,.13-.26-.05-.32,.05-.22,.1-.56,.15-.08-.22-.85-.17-.94l.02,.06c.03-.39,.32-.64,.34-1.02,.13-1.06,.02-2.21,.07-3.19-.16,0,.04,.22-.17,.23,.02-.58,.21-1.16,.23-1.75,.04-.11,.12-.24,.17-.28,.05-.19-.08-.11-.06-.25l.14-.02c-.12-.2,.15-.3,.09-.48-.06,0-.07-.08-.06-.14,.15,0-.01-.21,.12-.2h-.01s0-.07,.02-.12c-.05-.08-.48-.79-.54-.86l.02-.04c0-.11-.12-.15-.14-.09v-.12l.02-.13s.08-.05,.15-.02c-.05-.07-.09-.16-.06-.23-.08,.21-.2,.47-.35,.69-.05-.09,.02-.25,0-.35,.09-.12,.17-.36,.23-.55,0-.04-.18-.06-.11-.16,.11-.05,0-.1,.07-.18,.06,.09,.04,.17,.04,.26,.13-.02,.08-.22,.12-.29-.04-.03,0-.21-.05-.31,.13,.04,.08-.09,.15-.16,.01-.07-.04-.12-.09-.09-.14-.02-.07,.29-.23,.2,.07-.03,.04-.17,.03-.25-.08,0-.06,.05-.13,0,.01-.09-.08-.17,0-.23,.02,.02,0,.05,0,.08,0-.11,.52,.58,.47,.44-.07,.04-.48-.62-.48-.54-.04,.07-.14-.04-.17,.03l.1,.07c-.03,.1-.16,.14-.21,.11,0-.16,.54,.43,.46,.3l-.03,.06c-.05-.06-.1-.21-.02-.27-.08,0-.11-.07-.14-.14v-.02c-.03-.07-.01-.16-.11-.11,.03,.39-.78-.22-.81,.16,.16-.17,.17,.05,.2,.21-.06,.02-.14,.1-.18,.22,.02,.1,.06,.06,.11,.08-.04,.06-.06,.17-.15,.16,.11,.08-.06,.13-.02,.23,.05,.08,.05,0,.1,.05,0,.13-.02,.31-.03,.41-.08,.04-.22,.17-.36,.08,.01-.19,.21,.07,.18-.13-.19,.09-.06-.18-.2-.21-.08,.07-.08,.2-.05,.31l.02-.02c.03,.1,.07,.29-.02,.39-.07-.02-.12,.02-.13-.05v.13s.04,.03,.05,0c.05,.06,.03,.12-.01,.17-.07,.02,.31,.7,.27,.68,0,.1-.1,.12-.03,.21,.06,0-.26-.91-.23-.78-.08,.08,.37,1.07,.24,1.14,0,.07,.02,.16,.09,.14-.03,.12-.14-.03-.2,.05,.01,0,.04,0,.03,.02l-.09,.08c.12,.18-.02,.46,.12,.65-.08-.06-.21-.12-.29-.24l.04-.02s-.05-.12-.12-.12c-.04,.12-.03,.22,.04,.34-.02,.02-.04,.05-.06,.07h.03s-.05,.03-.08,.02h-.02c-.21,.07,.14,.46,.03,.67,.03,.06,.04,0,.08,.08-.08,.22-.14,.37-.19,.61,.09,.07,.13,.08,.22-.01l-.03,.17c-.24-.16-.23,.33-.47,.15-.05,.05-.07,.16-.03,.25,.06,0,.16,.03,.16,.15-.08,.17-.05,.13-.13,.27-.08,.03-.11-.02-.17-.01,.1,.22-.17,.19-.16,.4,.02,.13,.03,.38,.17,.39,0,.17-.11,.17-.22,.15Z"/><path class="d" d="M152.75,82.12l-.02,.14c-.01-.45,.04-.92,.09-1.39-.47,1.01-.88,2.21,.12,3-.53,.08-.77,1.07-.64,1.09,.1,.21,.18,.41,.24,.62-.04-.14-.08-.29-.13-.43,.05,.14,.09,.29,.13,.43,.42,1.33,.24,2.76,.04,4.25-.1,.83-.21,3.07-.36,3.91l-.05,.37,.09-.41c.14,.52,.28,.98,.38,1.44,.08-.08,.15-.09,.25-.28l-.05,.23c.22,.21,.21,.7,.31,.92-.12-.05-.14,.13-.15,.29l.08-.06c-.05,.6,.05,1.3,.04,1.84,0,.08-.04,.13-.08,.16l.09,.52c-.15-.04-.13,.43-.23,.18,.18,.39,.07,.78,.26,1.15,.03,1.32,.15,2.71,.41,4.07l.06-.03c.1,.48,.41,.9,.31,1.47,.21,.41,.32,1,.64,1.17,.05,.48,.21,.67,.29,1.13,.16-.12,.19,.45,.32,.22,.22-.31,.03-.33,.21-.59h-.05c.24-1.22,.37-2.45,.44-3.69-.14-.83-.03-1.73-.07-2.59-.06-.93-.17-1.94-.3-2.73-.05-.19,.09-.33,.16-.49-.07-.73-.02-1.67-.11-2.49v.04c-.03-.44,.13-.77,.1-1.2-.05,0-.05-.06-.07-.1,.21-.07-.45-2.53-.33-2.68l-.02-.14c.09-.91,.5-1.84,.46-2.62-.1-.17-.19-.36-.3-.5,.09-.14-.09-.16-.06-.33,.42-.42,.24-.67,.1-.45-.06-.35-.02-.69-.04-1l-.1-.43c-.04-.12,.03-.19,.13-.25-.06-.31,.04-.22,.09-.55,.15-.08-.24-.82-.19-.92l.02,.05c.02-.38,.31-.63,.32-1,.11-1.03,0-2.15,.04-3.11-.16-.01,.04,.21-.17,.22,.03-.56,.22-1.13,.24-1.7,.04-.1,.12-.23,.17-.27,.06-.18-.07-.11-.06-.24l.14-.02c-.12-.19,.15-.28,.1-.47-.06,0-.06-.08-.06-.14,.15,0-.01-.2,.12-.19h-.01s0-.07,.02-.12c-.05-.07-.46-.77-.53-.85l.02-.04c0-.1-.12-.15-.14-.09v-.13h.02v-.11s.09-.05,.16-.01c-.05-.07-.08-.15-.05-.23-.09,.2-.22,.45-.37,.66-.05-.09,.03-.24,.01-.34,.1-.11,.18-.34,.25-.52,0-.04-.17-.07-.1-.16,.11-.04,0-.1,.08-.17,.06,.09,.03,.17,.03,.26,.14-.01,.09-.21,.13-.28-.04-.03,0-.2-.04-.3,.13,.05,.08-.08,.15-.15,.02-.07-.04-.12-.08-.09-.14-.02-.08,.28-.23,.18,.07-.03,.04-.16,.04-.24-.08,0-.06,.05-.13,0,.02-.08-.08-.17,0-.22,.02,.02,0,.05,0,.07,0-.11,.51,.59,.46,.45-.07,.04-.46-.62-.46-.55-.04,.07-.14-.05-.17,.02l.09,.08c-.03,.09-.16,.13-.22,.1,.01-.16,.53,.45,.45,.31l-.04,.05c-.05-.06-.09-.21-.01-.27-.08,0-.1-.08-.13-.14v-.02c-.03-.07,0-.16-.11-.11,.01,.38-.78-.26-.82,.11,.17-.15,.17,.05,.19,.22-.06,.02-.14,.09-.18,.2,.01,.1,.06,.06,.1,.08-.04,.06-.07,.16-.16,.15,.11,.08-.07,.13-.03,.22,.05,.08,.05,0,.1,.05-.01,.13-.03,.3-.05,.4-.08,.04-.23,.16-.36,.07,.02-.19,.21,.07,.18-.12-.19,.08-.05-.18-.2-.21-.09,.06-.09,.19-.06,.3l.03-.02c.03,.09,.07,.28-.04,.39-.07-.02-.12,.02-.13-.05v.13s.03,.03,.05,0c.05,.06,.02,.12-.02,.17-.07,.01,.3,.69,.25,.67,0,.09-.1,.12-.03,.21,.06,.01-.24-.9-.22-.77-.08,.08,.36,1.06,.22,1.12,0,.07,.02,.15,.09,.14-.03,.12-.14-.04-.2,.05,.01,0,.04,0,.03,.02l-.09,.08c.11,.18-.03,.45,.12,.64-.08-.06-.21-.12-.28-.24l.04-.02s-.05-.12-.12-.12c-.05,.12-.03,.22,.04,.34-.02,.02-.04,.05-.06,.07h.03s-.05,.03-.08,.02h-.02c-.21,.06,.13,.45,.03,.66,.03,.06,.04,0,.08,.08-.08,.22-.15,.37-.19,.59,.09,.07,.13,.08,.22,0l-.03,.17c-.24-.16-.23,.32-.47,.15-.05,.05-.07,.15-.03,.25,.06,.01,.16,.03,.16,.15-.08,.17-.05,.13-.13,.27-.08,.03-.11-.02-.17-.01,.1,.22-.17,.19-.15,.39,.02,.13,.03,.38,.17,.39,0,.17-.11,.17-.22,.15Z"/><path class="d" d="M134.24,125.65v.19c-.03-.62,.01-1.28,.06-1.92-.46,1.41-.86,3.06,.15,4.14-.53,.12-.77,1.48-.64,1.51,.1,.28,.18,.57,.25,.86-.04-.2-.08-.4-.13-.59,.05,.2,.09,.39,.13,.59,.42,1.83,.25,3.81,.06,5.87-.1,1.14-.19,4.24-.34,5.41l-.05,.51,.09-.57c.15,.71,.29,1.36,.39,1.98,.08-.11,.15-.13,.25-.39l-.05,.32c.22,.29,.22,.96,.32,1.27-.12-.07-.14,.18-.15,.4l.08-.09c-.04,.83,.06,1.8,.06,2.54,0,.1-.04,.18-.08,.23l.1,.71c-.16-.05-.13,.59-.23,.26,.19,.53,.09,1.07,.29,1.58,.06,1.82,.22,3.75,.53,5.63l.06-.05c.12,.66,.45,1.23,.37,2.03,.22,.56,.36,1.37,.69,1.59,.07,.66,.24,.91,.35,1.55,.15-.17,.22,.62,.33,.3,.21-.44,.02-.45,.18-.82h-.05c.17-1.69,.25-3.38,.27-5.1-.16-1.14-.09-2.38-.15-3.57-.08-1.28-.21-2.66-.36-3.76-.05-.26,.08-.45,.15-.68-.09-1.01-.05-2.3-.15-3.44v.06c-.04-.61,.12-1.06,.09-1.65-.05,0-.05-.09-.07-.13,.21-.1-.47-3.49-.35-3.7l-.03-.19c.09-1.25,.49-2.55,.45-3.62-.1-.23-.19-.5-.3-.69,.09-.19-.09-.23-.06-.46,.42-.58,.24-.92,.09-.62-.06-.48-.02-.96-.04-1.38l-.1-.59c-.04-.17,.03-.26,.13-.35-.06-.43,.04-.31,.08-.76,.15-.11-.24-1.14-.2-1.26l.02,.07c.02-.52,.31-.87,.32-1.39,.1-1.42-.02-2.98,.01-4.3-.16-.01,.04,.29-.17,.31,.02-.78,.2-1.57,.22-2.35,.04-.14,.12-.32,.16-.38,.05-.25-.08-.15-.06-.33l.14-.03c-.12-.27,.15-.4,.09-.65-.06-.01-.07-.1-.06-.19,.15,0-.01-.28,.12-.27h-.01c0-.06,0-.1,.02-.16-.05-.1-.48-1.06-.54-1.16l.02-.05c0-.14-.12-.2-.14-.12v-.18l.02,.02v-.18s.09-.07,.15-.02c-.05-.1-.08-.21-.06-.31-.09,.28-.21,.63-.35,.92-.05-.12,.02-.34,0-.47,.1-.16,.17-.48,.24-.73,0-.05-.18-.09-.11-.21,.11-.06,0-.14,.07-.24,.06,.12,.04,.23,.03,.35,.13-.02,.09-.29,.12-.39-.04-.04,0-.28-.04-.42,.13,.06,.08-.12,.15-.21,.01-.1-.04-.16-.08-.12-.14-.03-.08,.39-.23,.26,.07-.04,.04-.23,.03-.33-.08,0-.06,.07-.13,0,.01-.12-.08-.24,0-.3,.02,.02,0,.07,0,.1,0-.15,.52,.8,.47,.61-.07,.05-.47-.84-.48-.74-.04,.09-.14-.06-.17,.03l.1,.1c-.03,.13-.16,.19-.21,.14,0-.22,.54,.6,.46,.42l-.04,.08c-.05-.08-.1-.29-.02-.37-.08,0-.11-.1-.13-.19v-.03c-.03-.09-.01-.22-.11-.16,.02,.53-.78-.33-.82,.18,.16-.22,.17,.07,.2,.29-.06,.02-.14,.13-.18,.29,.02,.14,.06,.08,.11,.11-.04,.08-.07,.23-.15,.21,.11,.11-.06,.18-.02,.31,.05,.11,.05,0,.1,.07,0,.17-.02,.42-.04,.56-.08,.06-.23,.22-.36,.1,.01-.26,.21,.1,.18-.18-.19,.12-.06-.24-.2-.29-.08,.09-.08,.27-.05,.41l.02-.03c.03,.13,.07,.39-.03,.53-.07-.03-.12,.03-.13-.07v.18s.03,.05,.05,0c.05,.08,.03,.17-.01,.23-.07,.02,.31,.95,.27,.92,0,.13-.1,.16-.03,.29,.06,.01-.26-1.23-.23-1.06-.08,.11,.38,1.46,.24,1.54,0,.1,.02,.21,.09,.19-.03,.16-.14-.05-.2,.07,.01,0,.04,0,.03,.03l-.09,.11c.11,.25-.02,.62,.13,.88-.08-.08-.22-.16-.29-.33l.04-.03s-.05-.16-.12-.16c-.05,.16-.03,.3,.04,.47-.02,.03-.04,.07-.06,.09h.03c-.04,.05-.05,.05-.08,.03,0,0-.01,0-.02-.01-.21,.1,.14,.63,.03,.93,.03,.09,.04,0,.08,.12-.08,.3-.14,.51-.19,.82,.09,.1,.13,.11,.22-.02l-.03,.24c-.24-.21-.22,.45-.47,.21-.05,.07-.06,.21-.02,.34,.06,.01,.16,.03,.16,.2-.08,.23-.05,.18-.13,.37-.08,.05-.11-.02-.17-.02,.1,.3-.17,.26-.15,.54,.02,.18,.04,.52,.17,.53,0,.24-.11,.24-.22,.21Z"/></svg>