<?xml version="1.0" encoding="UTF-8"?><svg id="a" xmlns="http://www.w3.org/2000/svg" viewBox="0 0 276.77 280.34"><defs><style>.b{fill:#005bea;}.c{fill:#65dff6;}.d{fill:#0b1f65;}</style></defs><g><path class="b" d="M33.19,34.63c-1.17-.03-2.38-.05-3.44,.45s-1.88,1.69-1.57,2.81c.21,.76,.89,1.32,1.63,1.6s1.54,.31,2.33,.35c4.13,.18,8.42,.33,12.21-1.32,.81-.36,1.65-.86,1.94-1.7,.85-2.48-3.3-1.73-4.48-1.8-2.87-.17-5.75-.3-8.62-.39Z"/><path class="b" d="M29.22,40.73l.22,.1c-.73-.25-1.46-.74-1.96-1.5,.39,.94,1.27,1.71,2.16,1.99,.88,.28,1.63,.16,2.15-.31,.09,.54,1.29,.83,1.33,.7,.26-.09,.52-.16,.78-.21-.18,.03-.36,.07-.54,.11,.18-.04,.36-.08,.54-.11,1.67-.36,3.47-.16,5.43-.14,.54,0,1.55-.07,2.58-.24,1.03-.15,2.06-.44,2.64-.58l.5-.15-.57,.13c.6-.39,1.19-.78,1.77-1.3-.15,.01-.22-.03-.52,.04,.11-.05,.22-.1,.34-.15,.16-.35,.78-.91,.91-1.35,.05,.14,.26-.13,.38-.42l-.12,.08,.1-.22c.14-.49,.32-1.12-.06-1.9-.41-.74-1.03-.95-1.43-1.11-.12-.03-.2-.1-.25-.16-.29-.04-.55-.05-.8-.05,.07-.15-.61-.19-.24-.25-.56,.15-1.07,.05-1.53,.26l-1.13,.07-1.26,.02c-.85,.03-1.7,.08-2.54,.17l.04,.06c-.59,.08-1.12,.36-1.83,.22-.52,.18-1.24,.26-1.45,.57-.59,.02-.82,.17-1.4,.23,.14,.16-.56,.17-.28,.3,.37,.24,.4,.05,.72,.25v-.05c1.49,.31,2.98,.51,4.5,.65,1.02-.09,2.12,.07,3.17,.08,.77,.01,1.33-.1,1.87-.15,.53-.07,1.01-.11,1.38-.12,.19-.02,.24,.15,.31,.24,.02,0,.04,.01,.06,.01,0,0,.03,0,.02,0h0l.05-.08c.07-.1,.2-.21,.19-.21,.01-.01,.03-.03,.05-.04,.02-.01,.06-.03,.02,0-.05,.02-.09,.03-.12,.03-.07,.02-.14,.03-.21,.03h-.09s-.03,.1-.02,.14c-.03,.11-.08,.21-.19,.36,0,0,.02-.01,.02-.01-.2,.23-.55,.25-.91,.45,.02,.04-.04,.07-.06,.11-.07-.08-.67,.3-1.33,.63-.66,.33-1.37,.63-1.47,.58l-.15,.05c-1.06,.12-2.19-.19-3.09-.1-.19,.11-.41,.21-.58,.33-.17-.09-.19,.09-.39,.07-.51-.41-.8-.24-.54-.09-.41,.06-.83,.02-1.2,.03l-.52,.09c-.15,.03-.23-.03-.3-.14-.38,.05-.27-.05-.66-.11-.09-.15-1.01,.2-1.12,.15l.07-.02c-.46-.05-.77-.34-1.16-.39-.54-.09-1.02-.2-1.31-.35-.16-.08-.29-.17-.38-.27-.09-.1-.11-.14-.13-.23-.15,.05,.06,.05-.13,.14-.02-.04-.02-.08-.02-.12,.02-.23,.17-.29,.31-.5,.07-.03,.17-.04,.22-.02,.1-.04-.02-.09,.04-.13l.11,.09c0-.15,.21,.01,.24-.08-.03-.05,0-.08,.02-.09,.08,.12,.07-.06,.14,.07h0s.02-.03,.05-.02c-.02-.07,.34-.62,.44-.69l.04,.02c.09-.02,.11-.14,.05-.15h.23s.06,.07,.03,.14c.06-.06,.14-.1,.21-.08-.21-.08-.46-.17-.7-.27,.07-.07,.24-.02,.33-.05,.12,.08,.37,.14,.56,.2,.04-.01,.06-.18,.16-.11,.05,.11,.11,0,.19,.07-.09,.06-.18,.04-.27,.04,.02,.13,.23,.08,.3,.12,.03-.04,.22,0,.34-.04-.05,.13,.1,.08,.17,.16,.08,.02,.14-.03,.1-.08,.03-.14-.32-.09-.21-.24,.03,.07,.19,.05,.28,.04,0-.08-.06-.06,0-.13,.1,.02,.21-.07,.26,.01-.02,.02-.06,0-.09,0,.12,0-.7,.49-.53,.45-.05-.07,.73-.44,.65-.45-.08-.04,.06-.14-.02-.17l-.09,.09c-.11-.03-.15-.17-.11-.22,.18,.02-.53,.52-.37,.44l-.06-.04c.06-.05,.24-.09,.31,0,0-.08,.09-.1,.17-.13h.03c.08-.02,.19,0,.14-.1-.46,0,.33-.77-.12-.82,.19,.17-.07,.17-.27,.19-.02-.06-.1-.14-.25-.19-.12,.01-.07,.06-.1,.1-.07-.04-.2-.07-.18-.16-.09,.11-.15-.07-.27-.03-.1,.05,0,.05-.06,.1h-.48c-.05-.09-.21-.22-.12-.36,.24,0-.07,.22,.17,.17-.12-.18,.21-.07,.25-.21-.08-.08-.25-.07-.38-.03l.03,.02c-.12,.04-.34,.1-.49,.03,.02-.07-.05-.11,.04-.14l-.17,.02s-.03,.05,.02,.06c-.07,.06-.15,.06-.22,.03-.06-.08-.77,.54-.74,.51-.11,.05-.18-.03-.25,.09,0,.03,.23-.16,.46-.31,.23-.16,.47-.28,.39-.25-.06-.03-.38,.15-.66,.37-.28,.21-.5,.47-.57,.44-.07,.05-.14,.14-.08,.18-.13,.07-.05-.13-.18-.12,0,.01,.03,.02,0,.04h-.14c-.1,.24-.44,.43-.45,.73-.03-.1-.1-.25-.05-.43h.05s.07-.16,.01-.2c-.15,.1-.23,.22-.26,.41l-.1,.05h.03c-.07,.04-.07,.03-.08,0,0,0,0-.01,0-.02-.25,0-.2,.67-.35,.97,.01,.1,.03,.02,.05,.14-.12,.32-.19,.58-.14,.96,.03,.02,.05,.04,.07,.05,.04,.02,.07,.01,.09-.03,.01-.02,.03-.05,.05-.09v.08l.05,.19c-.33-.16,0,.58-.34,.41-.01,.11,.07,.29,.21,.41,.06-.02,.15-.04,.28,.12,.12,.27,.1,.2,.21,.42-.01,.1-.1,.06-.13,.11,.35,.18,.14,.35,.44,.56,.2,.11,.59,.3,.66,.18,.26,.12,.22,.21,.15,.31Z"/></g><g><path class="b" d="M33.19,52.07c-1.17-.03-2.38-.05-3.44,.45s-1.88,1.69-1.57,2.81c.21,.76,.89,1.32,1.63,1.6s1.54,.31,2.33,.35c4.13,.18,8.42,.33,12.21-1.32,.81-.36,1.65-.86,1.94-1.7,.85-2.48-3.3-1.73-4.48-1.8-2.87-.17-5.75-.3-8.62-.39Z"/><path class="b" d="M29.22,58.17l.22,.1c-.73-.25-1.46-.74-1.96-1.5,.39,.94,1.27,1.71,2.16,1.99,.88,.28,1.63,.16,2.15-.31,.09,.54,1.29,.83,1.33,.7,.26-.09,.52-.16,.78-.21-.18,.03-.36,.07-.54,.11,.18-.04,.36-.08,.54-.11,1.67-.36,3.47-.16,5.43-.14,.54,0,1.55-.07,2.58-.24,1.03-.15,2.06-.44,2.64-.58l.5-.15-.57,.13c.6-.39,1.19-.78,1.77-1.3-.15,.01-.22-.03-.52,.04,.11-.05,.22-.1,.34-.15,.16-.35,.78-.91,.91-1.35,.05,.14,.26-.13,.38-.42l-.12,.08,.1-.22c.14-.49,.32-1.12-.06-1.9-.41-.74-1.03-.95-1.43-1.11-.12-.03-.2-.1-.25-.16-.29-.04-.55-.05-.8-.05,.07-.15-.61-.19-.24-.25-.56,.15-1.07,.05-1.53,.26l-1.13,.07-1.26,.02c-.85,.03-1.7,.08-2.54,.17l.04,.06c-.59,.08-1.12,.36-1.83,.22-.52,.18-1.24,.26-1.45,.57-.59,.02-.82,.17-1.4,.23,.14,.16-.56,.17-.28,.3,.37,.24,.4,.05,.72,.25v-.05c1.49,.31,2.98,.51,4.5,.65,1.02-.09,2.12,.07,3.17,.08,.77,.01,1.33-.1,1.87-.15,.53-.07,1.01-.11,1.38-.12,.19-.02,.24,.15,.31,.24,.02,0,.04,.01,.06,.01,0,0,.03,0,.02,0h0l.05-.08c.07-.1,.2-.21,.19-.21,.01-.01,.03-.03,.05-.04,.02-.01,.06-.03,.02,0-.05,.02-.09,.03-.12,.03-.07,.02-.14,.03-.21,.03h-.09s-.03,.1-.02,.14c-.03,.11-.08,.21-.19,.36,0,0,.02-.01,.02-.01-.2,.23-.55,.25-.91,.45,.02,.04-.04,.07-.06,.11-.07-.08-.67,.3-1.33,.63-.66,.33-1.37,.63-1.47,.58l-.15,.05c-1.06,.12-2.19-.19-3.09-.1-.19,.11-.41,.21-.58,.33-.17-.09-.19,.09-.39,.07-.51-.41-.8-.24-.54-.09-.41,.06-.83,.02-1.2,.03l-.52,.09c-.15,.03-.23-.03-.3-.14-.38,.05-.27-.05-.66-.11-.09-.15-1.01,.2-1.12,.15l.07-.02c-.46-.05-.77-.34-1.16-.39-.54-.09-1.02-.2-1.31-.35-.16-.08-.29-.17-.38-.27-.09-.1-.11-.14-.13-.23-.15,.05,.06,.05-.13,.14-.02-.04-.02-.08-.02-.12,.02-.23,.17-.29,.31-.5,.07-.03,.17-.04,.22-.02,.1-.04-.02-.09,.04-.13l.11,.09c0-.15,.21,.01,.24-.08-.03-.05,0-.08,.02-.09,.08,.12,.07-.06,.14,.07h0s.02-.03,.05-.02c-.02-.07,.34-.62,.44-.69l.04,.02c.09-.02,.11-.14,.05-.15h.23s.06,.07,.03,.14c.06-.06,.14-.1,.21-.08-.21-.08-.46-.17-.7-.27,.07-.07,.24-.02,.33-.05,.12,.08,.37,.14,.56,.2,.04-.01,.06-.18,.16-.11,.05,.11,.11,0,.19,.07-.09,.06-.18,.04-.27,.04,.02,.13,.23,.08,.3,.12,.03-.04,.22,0,.34-.04-.05,.13,.1,.08,.17,.16,.08,.02,.14-.03,.1-.08,.03-.14-.32-.09-.21-.24,.03,.07,.19,.05,.28,.04,0-.08-.06-.06,0-.13,.1,.02,.21-.07,.26,.01-.02,.02-.06,0-.09,0,.12,0-.7,.49-.53,.45-.05-.07,.73-.44,.65-.45-.08-.04,.06-.14-.02-.17l-.09,.09c-.11-.03-.15-.17-.11-.22,.18,.02-.53,.52-.37,.44l-.06-.04c.06-.05,.24-.09,.31,0,0-.08,.09-.1,.17-.13h.03c.08-.02,.19,0,.14-.1-.46,0,.33-.77-.12-.82,.19,.17-.07,.17-.27,.19-.02-.06-.1-.14-.25-.19-.12,.01-.07,.06-.1,.1-.07-.04-.2-.07-.18-.16-.09,.11-.15-.07-.27-.03-.1,.05,0,.05-.06,.1h-.48c-.05-.09-.21-.22-.12-.36,.24,0-.07,.22,.17,.17-.12-.18,.21-.07,.25-.21-.08-.08-.25-.07-.38-.03l.03,.02c-.12,.04-.34,.1-.49,.03,.02-.07-.05-.11,.04-.14l-.17,.02s-.03,.05,.02,.06c-.07,.06-.15,.06-.22,.03-.06-.08-.77,.54-.74,.51-.11,.05-.18-.03-.25,.09,0,.03,.23-.16,.46-.31,.23-.16,.47-.28,.39-.25-.06-.03-.38,.15-.66,.37-.28,.21-.5,.47-.57,.44-.07,.05-.14,.14-.08,.18-.13,.07-.05-.13-.18-.12,0,.01,.03,.02,0,.04h-.14c-.1,.24-.44,.43-.45,.73-.03-.1-.1-.25-.05-.43h.05s.07-.16,.01-.2c-.15,.1-.23,.22-.26,.41l-.1,.05h.03c-.07,.04-.07,.03-.08,0,0,0,0-.01,0-.02-.25,0-.2,.67-.35,.97,.01,.1,.03,.02,.05,.14-.12,.32-.19,.58-.14,.96,.03,.02,.05,.04,.07,.05,.04,.02,.07,.01,.09-.03,.01-.02,.03-.05,.05-.09v.08l.05,.19c-.33-.16,0,.58-.34,.41-.01,.11,.07,.29,.21,.41,.06-.02,.15-.04,.28,.12,.12,.27,.1,.2,.21,.42-.01,.1-.1,.06-.13,.11,.35,.18,.14,.35,.44,.56,.2,.11,.59,.3,.66,.18,.26,.12,.22,.21,.15,.31Z"/></g><g><path class="b" d="M33.19,69.68c-1.17-.03-2.38-.05-3.44,.45s-1.88,1.69-1.57,2.81c.21,.76,.89,1.32,1.63,1.6s1.54,.31,2.33,.35c4.13,.18,8.42,.33,12.21-1.32,.81-.36,1.65-.86,1.94-1.7,.85-2.48-3.3-1.73-4.48-1.8-2.87-.17-5.75-.3-8.62-.39Z"/><path class="b" d="M29.22,75.78l.22,.1c-.73-.25-1.46-.74-1.96-1.5,.39,.94,1.27,1.71,2.16,1.99,.88,.28,1.63,.16,2.15-.31,.09,.54,1.29,.83,1.33,.7,.26-.09,.52-.16,.78-.21-.18,.03-.36,.07-.54,.11,.18-.04,.36-.08,.54-.11,1.67-.36,3.47-.16,5.43-.14,.54,0,1.55-.07,2.58-.24,1.03-.15,2.06-.44,2.64-.58l.5-.15-.57,.13c.6-.39,1.19-.78,1.77-1.3-.15,.01-.22-.03-.52,.04,.11-.05,.22-.1,.34-.15,.16-.35,.78-.91,.91-1.35,.05,.14,.26-.13,.38-.42l-.12,.08,.1-.22c.14-.49,.32-1.12-.06-1.9-.41-.74-1.03-.95-1.43-1.11-.12-.03-.2-.1-.25-.16-.29-.04-.55-.05-.8-.05,.07-.15-.61-.19-.24-.25-.56,.15-1.07,.05-1.53,.26l-1.13,.07-1.26,.02c-.85,.03-1.7,.08-2.54,.17l.04,.06c-.59,.08-1.12,.36-1.83,.22-.52,.18-1.24,.26-1.45,.57-.59,.02-.82,.17-1.4,.23,.14,.16-.56,.17-.28,.3,.37,.24,.4,.05,.72,.25v-.05c1.49,.31,2.98,.51,4.5,.65,1.02-.09,2.12,.07,3.17,.08,.77,.01,1.33-.1,1.87-.15,.53-.07,1.01-.11,1.38-.12,.19-.02,.24,.15,.31,.24,.02,0,.04,.01,.06,.01,0,0,.03,0,.02,0h0l.05-.08c.07-.1,.2-.21,.19-.21,.01-.01,.03-.03,.05-.04,.02-.01,.06-.03,.02,0-.05,.02-.09,.03-.12,.03-.07,.02-.14,.03-.21,.03h-.09s-.03,.1-.02,.14c-.03,.11-.08,.21-.19,.36,0,0,.02-.01,.02-.01-.2,.23-.55,.25-.91,.45,.02,.04-.04,.07-.06,.11-.07-.08-.67,.3-1.33,.63-.66,.33-1.37,.63-1.47,.58l-.15,.05c-1.06,.12-2.19-.19-3.09-.1-.19,.11-.41,.21-.58,.33-.17-.09-.19,.09-.39,.07-.51-.41-.8-.24-.54-.09-.41,.06-.83,.02-1.2,.03l-.52,.09c-.15,.03-.23-.03-.3-.14-.38,.05-.27-.05-.66-.11-.09-.15-1.01,.2-1.12,.15l.07-.02c-.46-.05-.77-.34-1.16-.39-.54-.09-1.02-.2-1.31-.35-.16-.08-.29-.17-.38-.27-.09-.1-.11-.14-.13-.23-.15,.05,.06,.05-.13,.14-.02-.04-.02-.08-.02-.12,.02-.23,.17-.29,.31-.5,.07-.03,.17-.04,.22-.02,.1-.04-.02-.09,.04-.13l.11,.09c0-.15,.21,.01,.24-.08-.03-.05,0-.08,.02-.09,.08,.12,.07-.06,.14,.07h0s.02-.03,.05-.02c-.02-.07,.34-.62,.44-.69l.04,.02c.09-.02,.11-.14,.05-.15h.23s.06,.07,.03,.14c.06-.06,.14-.1,.21-.08-.21-.08-.46-.17-.7-.27,.07-.07,.24-.02,.33-.05,.12,.08,.37,.14,.56,.2,.04-.01,.06-.18,.16-.11,.05,.11,.11,0,.19,.07-.09,.06-.18,.04-.27,.04,.02,.13,.23,.08,.3,.12,.03-.04,.22,0,.34-.04-.05,.13,.1,.08,.17,.16,.08,.02,.14-.03,.1-.08,.03-.14-.32-.09-.21-.24,.03,.07,.19,.05,.28,.04,0-.08-.06-.06,0-.13,.1,.02,.21-.07,.26,.01-.02,.02-.06,0-.09,0,.12,0-.7,.49-.53,.45-.05-.07,.73-.44,.65-.45-.08-.04,.06-.14-.02-.17l-.09,.09c-.11-.03-.15-.17-.11-.22,.18,.02-.53,.52-.37,.44l-.06-.04c.06-.05,.24-.09,.31,0,0-.08,.09-.1,.17-.13h.03c.08-.02,.19,0,.14-.1-.46,0,.33-.77-.12-.82,.19,.17-.07,.17-.27,.19-.02-.06-.1-.14-.25-.19-.12,.01-.07,.06-.1,.1-.07-.04-.2-.07-.18-.16-.09,.11-.15-.07-.27-.03-.1,.05,0,.05-.06,.1h-.48c-.05-.09-.21-.22-.12-.36,.24,0-.07,.22,.17,.17-.12-.18,.21-.07,.25-.21-.08-.08-.25-.07-.38-.03l.03,.02c-.12,.04-.34,.1-.49,.03,.02-.07-.05-.11,.04-.14l-.17,.02s-.03,.05,.02,.06c-.07,.06-.15,.06-.22,.03-.06-.08-.77,.54-.74,.51-.11,.05-.18-.03-.25,.09,0,.03,.23-.16,.46-.31,.23-.16,.47-.28,.39-.25-.06-.03-.38,.15-.66,.37-.28,.21-.5,.47-.57,.44-.07,.05-.14,.14-.08,.18-.13,.07-.05-.13-.18-.12,0,.01,.03,.02,0,.04h-.14c-.1,.24-.44,.43-.45,.73-.03-.1-.1-.25-.05-.43h.05s.07-.16,.01-.2c-.15,.1-.23,.22-.26,.41l-.1,.05h.03c-.07,.04-.07,.03-.08,0,0,0,0-.01,0-.02-.25,0-.2,.67-.35,.97,.01,.1,.03,.02,.05,.14-.12,.32-.19,.58-.14,.96,.03,.02,.05,.04,.07,.05,.04,.02,.07,.01,.09-.03,.01-.02,.03-.05,.05-.09v.08l.05,.19c-.33-.16,0,.58-.34,.41-.01,.11,.07,.29,.21,.41,.06-.02,.15-.04,.28,.12,.12,.27,.1,.2,.21,.42-.01,.1-.1,.06-.13,.11,.35,.18,.14,.35,.44,.56,.2,.11,.59,.3,.66,.18,.26,.12,.22,.21,.15,.31Z"/></g><g><path class="b" d="M33.19,87.12c-1.17-.03-2.38-.05-3.44,.45s-1.88,1.69-1.57,2.81c.21,.76,.89,1.32,1.63,1.6s1.54,.31,2.33,.35c4.13,.18,8.42,.33,12.21-1.32,.81-.36,1.65-.86,1.94-1.7,.85-2.48-3.3-1.73-4.48-1.8-2.87-.17-5.75-.3-8.62-.39Z"/><path class="b" d="M29.22,93.22l.22,.1c-.73-.25-1.46-.74-1.96-1.5,.39,.94,1.27,1.71,2.16,1.99,.88,.28,1.63,.16,2.15-.31,.09,.54,1.29,.83,1.33,.7,.26-.09,.52-.16,.78-.21-.18,.03-.36,.07-.54,.11,.18-.04,.36-.08,.54-.11,1.67-.36,3.47-.16,5.43-.14,.54,0,1.55-.07,2.58-.24,1.03-.15,2.06-.44,2.64-.58l.5-.15-.57,.13c.6-.39,1.19-.78,1.77-1.3-.15,.01-.22-.03-.52,.04,.11-.05,.22-.1,.34-.15,.16-.35,.78-.91,.91-1.35,.05,.14,.26-.13,.38-.42l-.12,.08,.1-.22c.14-.49,.32-1.12-.06-1.9-.41-.74-1.03-.95-1.43-1.11-.12-.03-.2-.1-.25-.16-.29-.04-.55-.05-.8-.05,.07-.15-.61-.19-.24-.25-.56,.15-1.07,.05-1.53,.26l-1.13,.07-1.26,.02c-.85,.03-1.7,.08-2.54,.17l.04,.06c-.59,.08-1.12,.36-1.83,.22-.52,.18-1.24,.26-1.45,.57-.59,.02-.82,.17-1.4,.23,.14,.16-.56,.17-.28,.3,.37,.24,.4,.05,.72,.25v-.05c1.49,.31,2.98,.51,4.5,.65,1.02-.09,2.12,.07,3.17,.08,.77,.01,1.33-.1,1.87-.15,.53-.07,1.01-.11,1.38-.12,.19-.02,.24,.15,.31,.24,.02,0,.04,.01,.06,.01,0,0,.03,0,.02,0h0l.05-.08c.07-.1,.2-.21,.19-.21,.01-.01,.03-.03,.05-.04,.02-.01,.06-.03,.02,0-.05,.02-.09,.03-.12,.03-.07,.02-.14,.03-.21,.03h-.09s-.03,.1-.02,.14c-.03,.11-.08,.21-.19,.36,0,0,.02-.01,.02-.01-.2,.23-.55,.25-.91,.45,.02,.04-.04,.07-.06,.11-.07-.08-.67,.3-1.33,.63-.66,.33-1.37,.63-1.47,.58l-.15,.05c-1.06,.12-2.19-.19-3.09-.1-.19,.11-.41,.21-.58,.33-.17-.09-.19,.09-.39,.07-.51-.41-.8-.24-.54-.09-.41,.06-.83,.02-1.2,.03l-.52,.09c-.15,.03-.23-.03-.3-.14-.38,.05-.27-.05-.66-.11-.09-.15-1.01,.2-1.12,.15l.07-.02c-.46-.05-.77-.34-1.16-.39-.54-.09-1.02-.2-1.31-.35-.16-.08-.29-.17-.38-.27-.09-.1-.11-.14-.13-.23-.15,.05,.06,.05-.13,.14-.02-.04-.02-.08-.02-.12,.02-.23,.17-.29,.31-.5,.07-.03,.17-.04,.22-.02,.1-.04-.02-.09,.04-.13l.11,.09c0-.15,.21,.01,.24-.08-.03-.05,0-.08,.02-.09,.08,.12,.07-.06,.14,.07h0s.02-.03,.05-.02c-.02-.07,.34-.62,.44-.69l.04,.02c.09-.02,.11-.14,.05-.15h.23s.06,.07,.03,.14c.06-.06,.14-.1,.21-.08-.21-.08-.46-.17-.7-.27,.07-.07,.24-.02,.33-.05,.12,.08,.37,.14,.56,.2,.04-.01,.06-.18,.16-.11,.05,.11,.11,0,.19,.07-.09,.06-.18,.04-.27,.04,.02,.13,.23,.08,.3,.12,.03-.04,.22,0,.34-.04-.05,.13,.1,.08,.17,.16,.08,.02,.14-.03,.1-.08,.03-.14-.32-.09-.21-.24,.03,.07,.19,.05,.28,.04,0-.08-.06-.06,0-.13,.1,.02,.21-.07,.26,.01-.02,.02-.06,0-.09,0,.12,0-.7,.49-.53,.45-.05-.07,.73-.44,.65-.45-.08-.04,.06-.14-.02-.17l-.09,.09c-.11-.03-.15-.17-.11-.22,.18,.02-.53,.52-.37,.44l-.06-.04c.06-.05,.24-.09,.31,0,0-.08,.09-.1,.17-.13h.03c.08-.02,.19,0,.14-.1-.46,0,.33-.77-.12-.82,.19,.17-.07,.17-.27,.19-.02-.06-.1-.14-.25-.19-.12,.01-.07,.06-.1,.1-.07-.04-.2-.07-.18-.16-.09,.11-.15-.07-.27-.03-.1,.05,0,.05-.06,.1h-.48c-.05-.09-.21-.22-.12-.36,.24,0-.07,.22,.17,.17-.12-.18,.21-.07,.25-.21-.08-.08-.25-.07-.38-.03l.03,.02c-.12,.04-.34,.1-.49,.03,.02-.07-.05-.11,.04-.14l-.17,.02s-.03,.05,.02,.06c-.07,.06-.15,.06-.22,.03-.06-.08-.77,.54-.74,.51-.11,.05-.18-.03-.25,.09,0,.03,.23-.16,.46-.31,.23-.16,.47-.28,.39-.25-.06-.03-.38,.15-.66,.37-.28,.21-.5,.47-.57,.44-.07,.05-.14,.14-.08,.18-.13,.07-.05-.13-.18-.12,0,.01,.03,.02,0,.04h-.14c-.1,.24-.44,.43-.45,.73-.03-.1-.1-.25-.05-.43h.05s.07-.16,.01-.2c-.15,.1-.23,.22-.26,.41l-.1,.05h.03c-.07,.04-.07,.03-.08,0,0,0,0-.01,0-.02-.25,0-.2,.67-.35,.97,.01,.1,.03,.02,.05,.14-.12,.32-.19,.58-.14,.96,.03,.02,.05,.04,.07,.05,.04,.02,.07,.01,.09-.03,.01-.02,.03-.05,.05-.09v.08l.05,.19c-.33-.16,0,.58-.34,.41-.01,.11,.07,.29,.21,.41,.06-.02,.15-.04,.28,.12,.12,.27,.1,.2,.21,.42-.01,.1-.1,.06-.13,.11,.35,.18,.14,.35,.44,.56,.2,.11,.59,.3,.66,.18,.26,.12,.22,.21,.15,.31Z"/></g><g><path class="b" d="M33.19,104.56c-1.17-.03-2.38-.05-3.44,.45s-1.88,1.69-1.57,2.81c.21,.76,.89,1.32,1.63,1.6s1.54,.31,2.33,.35c4.13,.18,8.42,.33,12.21-1.32,.81-.36,1.65-.86,1.94-1.7,.85-2.48-3.3-1.73-4.48-1.8-2.87-.17-5.75-.3-8.62-.39Z"/><path class="b" d="M29.22,110.66l.22,.1c-.73-.25-1.46-.74-1.96-1.5,.39,.94,1.27,1.71,2.16,1.99,.88,.28,1.63,.16,2.15-.31,.09,.54,1.29,.83,1.33,.7,.26-.09,.52-.16,.78-.21-.18,.03-.36,.07-.54,.11,.18-.04,.36-.08,.54-.11,1.67-.36,3.47-.16,5.43-.14,.54,0,1.55-.07,2.58-.24,1.03-.15,2.06-.44,2.64-.58l.5-.15-.57,.13c.6-.39,1.19-.78,1.77-1.3-.15,.01-.22-.03-.52,.04,.11-.05,.22-.1,.34-.15,.16-.35,.78-.91,.91-1.35,.05,.14,.26-.13,.38-.42l-.12,.08,.1-.22c.14-.49,.32-1.12-.06-1.9-.41-.74-1.03-.95-1.43-1.11-.12-.03-.2-.1-.25-.16-.29-.04-.55-.05-.8-.05,.07-.15-.61-.19-.24-.25-.56,.15-1.07,.05-1.53,.26l-1.13,.07-1.26,.02c-.85,.03-1.7,.08-2.54,.17l.04,.06c-.59,.08-1.12,.36-1.83,.22-.52,.18-1.24,.26-1.45,.57-.59,.02-.82,.17-1.4,.23,.14,.16-.56,.17-.28,.3,.37,.24,.4,.05,.72,.25v-.05c1.49,.31,2.98,.51,4.5,.65,1.02-.09,2.12,.07,3.17,.08,.77,.01,1.33-.1,1.87-.15,.53-.07,1.01-.11,1.38-.12,.19-.02,.24,.15,.31,.24,.02,0,.04,.01,.06,.01,0,0,.03,0,.02,0h0l.05-.08c.07-.1,.2-.21,.19-.21,.01-.01,.03-.03,.05-.04,.02-.01,.06-.03,.02,0-.05,.02-.09,.03-.12,.03-.07,.02-.14,.03-.21,.03h-.09s-.03,.1-.02,.14c-.03,.11-.08,.21-.19,.36,0,0,.02-.01,.02-.01-.2,.23-.55,.25-.91,.45,.02,.04-.04,.07-.06,.11-.07-.08-.67,.3-1.33,.63-.66,.33-1.37,.63-1.47,.58l-.15,.05c-1.06,.12-2.19-.19-3.09-.1-.19,.11-.41,.21-.58,.33-.17-.09-.19,.09-.39,.07-.51-.41-.8-.24-.54-.09-.41,.06-.83,.02-1.2,.03l-.52,.09c-.15,.03-.23-.03-.3-.14-.38,.05-.27-.05-.66-.11-.09-.15-1.01,.2-1.12,.15l.07-.02c-.46-.05-.77-.34-1.16-.39-.54-.09-1.02-.2-1.31-.35-.16-.08-.29-.17-.38-.27-.09-.1-.11-.14-.13-.23-.15,.05,.06,.05-.13,.14-.02-.04-.02-.08-.02-.12,.02-.23,.17-.29,.31-.5,.07-.03,.17-.04,.22-.02,.1-.04-.02-.09,.04-.13l.11,.09c0-.15,.21,.01,.24-.08-.03-.05,0-.08,.02-.09,.08,.12,.07-.06,.14,.07h0s.02-.03,.05-.02c-.02-.07,.34-.62,.44-.69l.04,.02c.09-.02,.11-.14,.05-.15h.23s.06,.07,.03,.14c.06-.06,.14-.1,.21-.08-.21-.08-.46-.17-.7-.27,.07-.07,.24-.02,.33-.05,.12,.08,.37,.14,.56,.2,.04-.01,.06-.18,.16-.11,.05,.11,.11,0,.19,.07-.09,.06-.18,.04-.27,.04,.02,.13,.23,.08,.3,.12,.03-.04,.22,0,.34-.04-.05,.13,.1,.08,.17,.16,.08,.02,.14-.03,.1-.08,.03-.14-.32-.09-.21-.24,.03,.07,.19,.05,.28,.04,0-.08-.06-.06,0-.13,.1,.02,.21-.07,.26,.01-.02,.02-.06,0-.09,0,.12,0-.7,.49-.53,.45-.05-.07,.73-.44,.65-.45-.08-.04,.06-.14-.02-.17l-.09,.09c-.11-.03-.15-.17-.11-.22,.18,.02-.53,.52-.37,.44l-.06-.04c.06-.05,.24-.09,.31,0,0-.08,.09-.1,.17-.13h.03c.08-.02,.19,0,.14-.1-.46,0,.33-.77-.12-.82,.19,.17-.07,.17-.27,.19-.02-.06-.1-.14-.25-.19-.12,.01-.07,.06-.1,.1-.07-.04-.2-.07-.18-.16-.09,.11-.15-.07-.27-.03-.1,.05,0,.05-.06,.1h-.48c-.05-.09-.21-.22-.12-.36,.24,0-.07,.22,.17,.17-.12-.18,.21-.07,.25-.21-.08-.08-.25-.07-.38-.03l.03,.02c-.12,.04-.34,.1-.49,.03,.02-.07-.05-.11,.04-.14l-.17,.02s-.03,.05,.02,.06c-.07,.06-.15,.06-.22,.03-.06-.08-.77,.54-.74,.51-.11,.05-.18-.03-.25,.09,0,.03,.23-.16,.46-.31,.23-.16,.47-.28,.39-.25-.06-.03-.38,.15-.66,.37-.28,.21-.5,.47-.57,.44-.07,.05-.14,.14-.08,.18-.13,.07-.05-.13-.18-.12,0,.01,.03,.02,0,.04h-.14c-.1,.24-.44,.43-.45,.73-.03-.1-.1-.25-.05-.43h.05s.07-.16,.01-.2c-.15,.1-.23,.22-.26,.41l-.1,.05h.03c-.07,.04-.07,.03-.08,0,0,0,0-.01,0-.02-.25,0-.2,.67-.35,.97,.01,.1,.03,.02,.05,.14-.12,.32-.19,.58-.14,.96,.03,.02,.05,.04,.07,.05,.04,.02,.07,.01,.09-.03,.01-.02,.03-.05,.05-.09v.08l.05,.19c-.33-.16,0,.58-.34,.41-.01,.11,.07,.29,.21,.41,.06-.02,.15-.04,.28,.12,.12,.27,.1,.2,.21,.42-.01,.1-.1,.06-.13,.11,.35,.18,.14,.35,.44,.56,.2,.11,.59,.3,.66,.18,.26,.12,.22,.21,.15,.31Z"/></g><g><path class="b" d="M33.19,121.99c-1.17-.03-2.38-.05-3.44,.45s-1.88,1.69-1.57,2.81c.21,.76,.89,1.32,1.63,1.6s1.54,.31,2.33,.35c4.13,.18,8.42,.33,12.21-1.32,.81-.36,1.65-.86,1.94-1.7,.85-2.48-3.3-1.73-4.48-1.8-2.87-.17-5.75-.3-8.62-.39Z"/><path class="b" d="M29.22,128.09l.22,.1c-.73-.25-1.46-.74-1.96-1.5,.39,.94,1.27,1.71,2.16,1.99,.88,.28,1.63,.16,2.15-.31,.09,.54,1.29,.83,1.33,.7,.26-.09,.52-.16,.78-.21-.18,.03-.36,.07-.54,.11,.18-.04,.36-.08,.54-.11,1.67-.36,3.47-.16,5.43-.14,.54,0,1.55-.07,2.58-.24,1.03-.15,2.06-.44,2.64-.58l.5-.15-.57,.13c.6-.39,1.19-.78,1.77-1.3-.15,.01-.22-.03-.52,.04,.11-.05,.22-.1,.34-.15,.16-.35,.78-.91,.91-1.35,.05,.14,.26-.13,.38-.42l-.12,.08,.1-.22c.14-.49,.32-1.12-.06-1.9-.41-.74-1.03-.95-1.43-1.11-.12-.03-.2-.1-.25-.16-.29-.04-.55-.05-.8-.05,.07-.15-.61-.19-.24-.25-.56,.15-1.07,.05-1.53,.26l-1.13,.07-1.26,.02c-.85,.03-1.7,.08-2.54,.17l.04,.06c-.59,.08-1.12,.36-1.83,.22-.52,.18-1.24,.26-1.45,.57-.59,.02-.82,.17-1.4,.23,.14,.16-.56,.17-.28,.3,.37,.24,.4,.05,.72,.25v-.05c1.49,.31,2.98,.51,4.5,.65,1.02-.09,2.12,.07,3.17,.08,.77,.01,1.33-.1,1.87-.15,.53-.07,1.01-.11,1.38-.12,.19-.02,.24,.15,.31,.24,.02,0,.04,.01,.06,.01,0,0,.03,0,.02,0h0l.05-.08c.07-.1,.2-.21,.19-.21,.01-.01,.03-.03,.05-.04,.02-.01,.06-.03,.02,0-.05,.02-.09,.03-.12,.03-.07,.02-.14,.03-.21,.03h-.09s-.03,.1-.02,.14c-.03,.11-.08,.21-.19,.36,0,0,.02-.01,.02-.01-.2,.23-.55,.25-.91,.45,.02,.04-.04,.07-.06,.11-.07-.08-.67,.3-1.33,.63-.66,.33-1.37,.63-1.47,.58l-.15,.05c-1.06,.12-2.19-.19-3.09-.1-.19,.11-.41,.21-.58,.33-.17-.09-.19,.09-.39,.07-.51-.41-.8-.24-.54-.09-.41,.06-.83,.02-1.2,.03l-.52,.09c-.15,.03-.23-.03-.3-.14-.38,.05-.27-.05-.66-.11-.09-.15-1.01,.2-1.12,.15l.07-.02c-.46-.05-.77-.34-1.16-.39-.54-.09-1.02-.2-1.31-.35-.16-.08-.29-.17-.38-.27-.09-.1-.11-.14-.13-.23-.15,.05,.06,.05-.13,.14-.02-.04-.02-.08-.02-.12,.02-.23,.17-.29,.31-.5,.07-.03,.17-.04,.22-.02,.1-.04-.02-.09,.04-.13l.11,.09c0-.15,.21,.01,.24-.08-.03-.05,0-.08,.02-.09,.08,.12,.07-.06,.14,.07h0s.02-.03,.05-.02c-.02-.07,.34-.62,.44-.69l.04,.02c.09-.02,.11-.14,.05-.15h.23s.06,.07,.03,.14c.06-.06,.14-.1,.21-.08-.21-.08-.46-.17-.7-.27,.07-.07,.24-.02,.33-.05,.12,.08,.37,.14,.56,.2,.04-.01,.06-.18,.16-.11,.05,.11,.11,0,.19,.07-.09,.06-.18,.04-.27,.04,.02,.13,.23,.08,.3,.12,.03-.04,.22,0,.34-.04-.05,.13,.1,.08,.17,.16,.08,.02,.14-.03,.1-.08,.03-.14-.32-.09-.21-.24,.03,.07,.19,.05,.28,.04,0-.08-.06-.06,0-.13,.1,.02,.21-.07,.26,.01-.02,.02-.06,0-.09,0,.12,0-.7,.49-.53,.45-.05-.07,.73-.44,.65-.45-.08-.04,.06-.14-.02-.17l-.09,.09c-.11-.03-.15-.17-.11-.22,.18,.02-.53,.52-.37,.44l-.06-.04c.06-.05,.24-.09,.31,0,0-.08,.09-.1,.17-.13h.03c.08-.02,.19,0,.14-.1-.46,0,.33-.77-.12-.82,.19,.17-.07,.17-.27,.19-.02-.06-.1-.14-.25-.19-.12,.01-.07,.06-.1,.1-.07-.04-.2-.07-.18-.16-.09,.11-.15-.07-.27-.03-.1,.05,0,.05-.06,.1h-.48c-.05-.09-.21-.22-.12-.36,.24,0-.07,.22,.17,.17-.12-.18,.21-.07,.25-.21-.08-.08-.25-.07-.38-.03l.03,.02c-.12,.04-.34,.1-.49,.03,.02-.07-.05-.11,.04-.14l-.17,.02s-.03,.05,.02,.06c-.07,.06-.15,.06-.22,.03-.06-.08-.77,.54-.74,.51-.11,.05-.18-.03-.25,.09,0,.03,.23-.16,.46-.31,.23-.16,.47-.28,.39-.25-.06-.03-.38,.15-.66,.37-.28,.21-.5,.47-.57,.44-.07,.05-.14,.14-.08,.18-.13,.07-.05-.13-.18-.12,0,.01,.03,.02,0,.04h-.14c-.1,.24-.44,.43-.45,.73-.03-.1-.1-.25-.05-.43h.05s.07-.16,.01-.2c-.15,.1-.23,.22-.26,.41l-.1,.05h.03c-.07,.04-.07,.03-.08,0,0,0,0-.01,0-.02-.25,0-.2,.67-.35,.97,.01,.1,.03,.02,.05,.14-.12,.32-.19,.58-.14,.96,.03,.02,.05,.04,.07,.05,.04,.02,.07,.01,.09-.03,.01-.02,.03-.05,.05-.09v.08l.05,.19c-.33-.16,0,.58-.34,.41-.01,.11,.07,.29,.21,.41,.06-.02,.15-.04,.28,.12,.12,.27,.1,.2,.21,.42-.01,.1-.1,.06-.13,.11,.35,.18,.14,.35,.44,.56,.2,.11,.59,.3,.66,.18,.26,.12,.22,.21,.15,.31Z"/></g><g><path class="b" d="M33.19,139.43c-1.17-.03-2.38-.05-3.44,.45s-1.88,1.69-1.57,2.81c.21,.76,.89,1.32,1.63,1.6s1.54,.31,2.33,.35c4.13,.18,8.42,.33,12.21-1.32,.81-.36,1.65-.86,1.94-1.7,.85-2.48-3.3-1.73-4.48-1.8-2.87-.17-5.75-.3-8.62-.39Z"/><path class="b" d="M29.22,145.53l.22,.1c-.73-.25-1.46-.74-1.96-1.5,.39,.94,1.27,1.71,2.16,1.99,.88,.28,1.63,.16,2.15-.31,.09,.54,1.29,.83,1.33,.7,.26-.09,.52-.16,.78-.21-.18,.03-.36,.07-.54,.11,.18-.04,.36-.08,.54-.11,1.67-.36,3.47-.16,5.43-.14,.54,0,1.55-.07,2.58-.24,1.03-.15,2.06-.44,2.64-.58l.5-.15-.57,.13c.6-.39,1.19-.78,1.77-1.3-.15,.01-.22-.03-.52,.04,.11-.05,.22-.1,.34-.15,.16-.35,.78-.91,.91-1.35,.05,.14,.26-.13,.38-.42l-.12,.08,.1-.22c.14-.49,.32-1.12-.06-1.9-.41-.74-1.03-.95-1.43-1.11-.12-.03-.2-.1-.25-.16-.29-.04-.55-.05-.8-.05,.07-.15-.61-.19-.24-.25-.56,.15-1.07,.05-1.53,.26l-1.13,.07-1.26,.02c-.85,.03-1.7,.08-2.54,.17l.04,.06c-.59,.08-1.12,.36-1.83,.22-.52,.18-1.24,.26-1.45,.57-.59,.02-.82,.17-1.4,.23,.14,.16-.56,.17-.28,.3,.37,.24,.4,.05,.72,.25v-.05c1.49,.31,2.98,.51,4.5,.65,1.02-.09,2.12,.07,3.17,.08,.77,.01,1.33-.1,1.87-.15,.53-.07,1.01-.11,1.38-.12,.19-.02,.24,.15,.31,.24,.02,0,.04,.01,.06,.01,0,0,.03,0,.02,0h0l.05-.08c.07-.1,.2-.21,.19-.21,.01-.01,.03-.03,.05-.04,.02-.01,.06-.03,.02,0-.05,.02-.09,.03-.12,.03-.07,.02-.14,.03-.21,.03h-.09s-.03,.1-.02,.14c-.03,.11-.08,.21-.19,.36,0,0,.02-.01,.02-.01-.2,.23-.55,.25-.91,.45,.02,.04-.04,.07-.06,.11-.07-.08-.67,.3-1.33,.63-.66,.33-1.37,.63-1.47,.58l-.15,.05c-1.06,.12-2.19-.19-3.09-.1-.19,.11-.41,.21-.58,.33-.17-.09-.19,.09-.39,.07-.51-.41-.8-.24-.54-.09-.41,.07-.83,.02-1.2,.03l-.52,.09c-.15,.03-.23-.03-.3-.14-.38,.05-.27-.05-.66-.11-.09-.15-1.01,.2-1.12,.15l.07-.02c-.46-.05-.77-.34-1.16-.39-.54-.09-1.02-.2-1.31-.35-.16-.08-.29-.17-.38-.27-.09-.1-.11-.14-.13-.23-.15,.05,.06,.05-.13,.14-.02-.04-.02-.08-.02-.12,.02-.23,.17-.29,.31-.5,.07-.03,.17-.04,.22-.02,.1-.04-.02-.09,.04-.13l.11,.09c0-.15,.21,.01,.24-.08-.03-.05,0-.08,.02-.09,.08,.12,.07-.06,.14,.07h0s.02-.03,.05-.02c-.02-.07,.34-.62,.44-.69l.04,.02c.09-.02,.11-.14,.05-.15h.23s.06,.07,.03,.14c.06-.06,.14-.1,.21-.08-.21-.08-.46-.17-.7-.27,.07-.07,.24-.02,.33-.05,.12,.08,.37,.14,.56,.2,.04-.01,.06-.18,.16-.11,.05,.11,.11,0,.19,.07-.09,.06-.18,.04-.27,.04,.02,.13,.23,.08,.3,.12,.03-.04,.22,0,.34-.04-.05,.13,.1,.08,.17,.16,.08,.02,.14-.03,.1-.08,.03-.14-.32-.09-.21-.24,.03,.07,.19,.05,.28,.04,0-.08-.06-.06,0-.13,.1,.02,.21-.07,.26,.01-.02,.02-.06,0-.09,0,.12,0-.7,.49-.53,.45-.05-.07,.73-.44,.65-.45-.08-.04,.06-.14-.02-.17l-.09,.09c-.11-.03-.15-.17-.11-.22,.18,.02-.53,.52-.37,.44l-.06-.04c.06-.05,.24-.09,.31,0,0-.08,.09-.1,.17-.13h.03c.08-.02,.19,0,.14-.1-.46,0,.33-.77-.12-.82,.19,.17-.07,.17-.27,.19-.02-.06-.1-.14-.25-.19-.12,.01-.07,.06-.1,.1-.07-.04-.2-.07-.18-.16-.09,.11-.15-.07-.27-.03-.1,.05,0,.05-.06,.1h-.48c-.05-.09-.21-.22-.12-.36,.24,0-.07,.22,.17,.17-.12-.18,.21-.07,.25-.21-.08-.08-.25-.07-.38-.03l.03,.02c-.12,.04-.34,.1-.49,.03,.02-.07-.05-.11,.04-.14l-.17,.02s-.03,.05,.02,.06c-.07,.06-.15,.06-.22,.03-.06-.08-.77,.54-.74,.51-.11,.05-.18-.03-.25,.09,0,.03,.23-.16,.46-.31,.23-.16,.47-.28,.39-.25-.06-.03-.38,.15-.66,.37-.28,.21-.5,.47-.57,.44-.07,.05-.14,.14-.08,.18-.13,.07-.05-.13-.18-.12,0,.01,.03,.02,0,.04h-.14c-.1,.24-.44,.43-.45,.73-.03-.1-.1-.25-.05-.43h.05s.07-.16,.01-.2c-.15,.1-.23,.22-.26,.41l-.1,.05h.03c-.07,.04-.07,.03-.08,0,0,0,0-.01,0-.02-.25,0-.2,.67-.35,.97,.01,.1,.03,.02,.05,.14-.12,.32-.19,.58-.14,.96,.03,.02,.05,.04,.07,.05,.04,.02,.07,.01,.09-.03,.01-.02,.03-.05,.05-.09v.08l.05,.19c-.33-.16,0,.58-.34,.41-.01,.11,.07,.29,.21,.41,.06-.02,.15-.04,.28,.12,.12,.27,.1,.2,.21,.42-.01,.1-.1,.06-.13,.11,.35,.18,.14,.35,.44,.56,.2,.11,.59,.3,.66,.18,.26,.12,.22,.21,.15,.31Z"/></g><g><path class="c" d="M39.1,129.81c-.08,6.52,.15,10.36,.1,20.5,28,1.01,56-.98,84,.03,1.51,.05,4.63-.52,4.71-1.18,1.07-8.45-.25-17.06,.89-25.5,.54-3.99,1.62-7.89,2.21-11.88,.66-4.43-.28-8.92-.26-13.4,.12-22.97,.6-42.02-.17-67.85-.07-2.46-57.56-.7-64.22-.95-3.32-.13-20.63-.56-26.77,1.02-1.33,7.98-.79,41.32-.95,54.56-.18,14.89,.64,29.77,.47,44.66Z"/><path class="c" d="M112.82,151.46l1.73,.05c-5.61-.08-11.51-.13-17.33-.13,6.36,.18,13.25,.39,19.76,.57,1.63,.04,3.24,.08,4.81,.12l1.17,.02c.16,0,.47,0,.69,0,.24,0,.46-.03,.68-.05,.87-.09,1.68-.24,2.52-.48l.4-.12c.16-.05,.32-.12,.48-.18,.31-.12,.61-.27,.86-.46,.26-.18,.49-.4,.63-.68,.16-.26,.19-.58,.29-.87l.08-.94,.03-.55c0-.36,.02-.72,.03-1.07,.03-1.41-.03-2.74-.13-3.99,.29-.53,.5-3.93,.55-7.16,.05-3.24,.17-6.29,.12-6.42-.01-2.5,.13-4.98,.53-7.5-.27,1.74-.44,3.44-.52,5.17,.08-1.73,.25-3.43,.52-5.17,.3-2,.72-4.04,1.1-6.14,.19-1.05,.38-2.12,.53-3.2,.16-1.1,.25-2.26,.26-3.38,.03-2.26-.19-4.46-.36-6.62-.08-1.08-.15-2.15-.17-3.21-.01-1.04,0-2.19,.01-3.29,.07-8.88,.28-18.01,.44-27.31,.06-3.78,.12-9.95,.11-16.76-.02-3.41-.05-6.97-.07-10.48-.06-3.71-.13-7.36-.18-10.72l-.21-.71c-.06-.1-.02-.27-.15-.32l-.07-.18-.12-.14c-.34-.36-.78-.59-1.28-.76-.24-.1-.52-.13-.77-.2-.24-.06-.58-.11-.68-.13-.31-.05-.59-.09-.88-.13-1.14-.14-2.19-.22-3.19-.29-1.99-.13-3.72-.2-5.14-.26l-4.63-.14,5.16,.2c-6.49-.03-12.34,.13-18,.24,1,.07,1.17,.14,3.54,.24l-2.89-.04c-2.63,.23-8.7,.28-11.54,.41,.61-.12-1.63-.12-3.62-.11l.79,.07-11.78,.17c-3.95,.05-7.83,.18-11.13,.07-.94-.03-1.65-.09-2.07-.14-2.16-.02-4.31-.01-6.47,.02,.5-.17-5.37-.1-2.28-.22-2.42,.11-4.86,.19-7.28,.33-1.21,.07-2.41,.17-3.61,.29l-1.78,.23-.89,.16c-.3,.06-.55,.09-1.02,.21l-1.14,.25-.57,.12c-.03,.17-.05,.36-.08,.54l-.27,2.12c-.08,1.05-.18,2.1-.22,3.15-.12,2.1-.18,4.2-.23,6.31-.1,4.23-.12,8.49-.11,12.76,.01,8.55,.16,17.17,.27,25.66l.06-.42c.08,5.94,.29,11.19,.33,18.42,.29,5.16,.57,12.49,.93,14.54,.15,5.96,.35,8.33,.43,14.18,.17-1.51,.14,5.68,.29,2.81,.25-3.88,.06-4.1,.23-7.4l-.05,.1c.07-7.69-.06-15.37-.12-23.07-.03-3.85-.04-7.69,0-11.55,.06-3.84,.11-7.76,.12-11.64-.14-10.38-.1-21.64,.08-32.39,.06-2.89,.12-5.84,.28-8.77,.04-.73,.1-1.45,.15-2.18l.04-.47,.02-.22,.05-.45c-.06-.04,1.88-.35,3.19-.48,5.7-.56,11.34-.61,16.29-.64,2.37-.02,4.07,.15,6.09,.3,4.69,.03,9.84-.11,15.21-.18,5.35-.09,10.84-.18,16.01-.26h-.51c5.49-.08,9.6,.07,14.95,.07-.03-.05,.8-.04,1.21-.06,.25,.06,2.62,.07,6,.11,1.69,.03,3.62,.06,5.65,.15,1.01,.05,2.05,.11,3.07,.21l.73,.09c.11,.01,.21,.03,.32,.05,.1,.02,.21,.05,.3,.11,.07,.08,.03,.2,.05,.31,.07,1.72,.14,3.42,.21,5.02,.06,1.72,.12,3.32,.16,4.72,.09,2.8,.12,4.79,.1,5.23,.02,.56,.03,1.13,.05,1.72,.04,11.31-.47,23-.52,32.72,.08,2.11,.15,4.49,.24,6.26-.11,1.72,.07,2.05,.03,4.12-.47,5.26-.3,8.34-.14,5.62-.09,4.42,.66,8.81,.5,12.45-.01,.86-.09,1.67-.21,2.53-.12,.86-.26,1.73-.41,2.61-.26,1.49-.5,2.31-.76,3.04-.37,1.92-.51,2.61-.66,3.32-.14,.71-.34,1.44-.61,3.53-.15,.5-.34,3.13-.31,5.75,.02,2.63,.15,5.24,.13,5.82l-.03-.67c.01,4.74-.16,7.87-.59,12.35l-.07,.55c-.02,.11-.16,.14-.26,.18l-.25,.07c-.17,.04-.34,.08-.52,.11-.36,.07-.72,.13-1.09,.17-.36,.04-.73,.06-1.05,.06l-1.2-.04-2.49-.08c-3.32-.1-6.67-.15-9.98-.17-6.63-.04-13.13,.04-19.09,.1-.12,.15,2.63-.07,2.77,.13-7.02,.03-14.12,.06-21.21,.09-1.28-.02-2.84-.08-3.43-.12-2.26-.03-1.34,.09-2.99,.09l-.22-.14c-2.42,.13-3.54-.13-5.82-.06-.12,.06-.95,.06-1.76,.06-.04-.15-2.49,.01-2.37-.12h-.02c-.49,.01-.83,.02-1.43-.01-.92,.06-9.61,.36-10.55,.37l-.44-.04c-1.3-.03-1.86,.06-1.1,.11l-1.12-.04h.06l-.25-.02h-.18v-.07c.01-.11,.08-.23,.15-.17-.03-.09-.05-.2-.05-.33v-1.31c0,.32-.02,.64-.03,.97v.25c-.01,.1-.02,.07-.02,.11l-.02,.16-.04,.35c-.03,.09,.06,.06,.1,.08l.17,.03,.4,.06,1.06,.08c.7,.06,1.38,.11,2.04,.17-.54,0-1.3-.02-2.06-.05l-1.1-.05-.45-.02-.23-.04s-.11,0-.1-.04l.02-.17,.03-.34,.02-.17c0-.06,.01-.07,.02-.26,.04-1.18,.07-2.46,.11-3.58-.01-.49-.18-.83-.11-1.95,.11-.55-.02-1.26,.06-2.19,.07,1.07,.06,2.11,.06,3.2,.13-.19,.07-2.64,.1-3.49-.05-.4-.03-2.49-.09-3.8,.14,.57,.07-1.06,.13-1.83,0-.88-.04-1.44-.09-1.08-.15-.29-.06,3.5-.22,2.28,.06-.32,.02-2.05,.02-2.98-.08-.01-.06,.63-.13,.03,.01-1.03-.07-2.13,.02-2.72,.02,.19,0,.62,0,.92-.01-1.34,.53,7.28,.48,5.54-.09,.45-.49-7.65-.48-6.75-.05,.82-.13-.59-.17,.26l.08,.94c-.03,1.16-.17,1.63-.22,1.23,0-1.94,.55,5.52,.47,3.86l-.03,.68c-.06-.71-.12-2.59-.04-3.31-.08,0-.11-.95-.13-1.74v-.28c-.02-.81,.01-1.95-.1-1.42-.02,4.77-.75-3.15-.83,1.48,.18-1.94,.16,.65,.2,2.69-.06,.2-.13,1.1-.16,2.57,.03,1.27,.07,.75,.12,.99-.03,.7-.04,2.05-.13,1.88,.12,.99-.05,1.58,0,2.77,.06,1.05,.05-.07,.1,.67,0,1.57-.02,3.77-.03,5.02-.04,.26-.1,.68-.17,1-.06,.31-.13,.47-.2-.08,.02-2.47,.21,.88,.19-1.61-.19,1.07-.05-2.19-.2-2.64-.08,.8-.08,2.38-.06,3.74l.03-.28c0,.32,0,.71,.02,1.15,0,.22,0,.45,0,.68v.36c.04,.09,.22,.03,.32,.05,.97,.03,1.96,.07,2.57,.14-.3,.06,.25,.12-.61,.11l1.62,.06c.21-.01,.42-.03-.05-.06,.77-.03,1.53,.03,2.12,.07,.09,.04,2.25,0,4.36-.04,2.11-.05,4.16-.12,4.02-.1,1.17,0,1.45,.12,2.59,.04-.25,0-8.14,.1-9.64,.12,1,.15,13.27-.23,13.99-.12,.87-.01,1.91-.03,1.71-.1,1.46,.02-.44,.14,.61,.2,.02-.01-.09-.04,.25-.03l1,.08c2.27-.12,5.61-.03,7.99-.21-.69,.09-1.47,.24-3.01,.32l-.27-.03c-.22,.02-1.48,.06-1.44,.14,1.46,.03,2.7,0,4.23-.09l.83,.05s-.03-.02-.02-.03c.5,.04,.45,.04,.27,.08-.02,0-.05,.01-.11,.02,.92,.2,5.72-.22,8.37-.16,.78-.04,.07-.04,1.05-.09l7.43,.07c.91-.1,.98-.14-.12-.22h2.15c-1.95,.26,4.01,.17,1.86,.44,.63,.05,1.91,.04,3.11-.01,.12-.06,.31-.16,1.82-.17,2.1,.07,1.59,.05,3.34,.1,.41,.08-.23,.11-.15,.17,2.68-.11,2.34,.17,4.87,.15,1.59-.03,4.71,0,4.79-.14,2.14,.02,2.13,.13,1.92,.24Z"/></g><path class="d" d="M69.74,105.18l.15,.02c-.49,0-1-.04-1.51-.1,1.09,.48,2.41,.9,3.25-.11,.09,.53,1.17,.77,1.19,.64,.22-.1,.44-.18,.67-.25-.16,.04-.31,.08-.46,.14,.15-.05,.31-.1,.46-.14,1.43-.43,2.98-.28,4.59-.12,.89,.08,3.31,.13,4.22,.26l.4,.04-.44-.08c.55-.16,1.05-.31,1.54-.41-.09-.07-.1-.15-.31-.25l.25,.04c.22-.23,.74-.23,.99-.33-.05,.12,.14,.13,.32,.15l-.07-.07c.65,.03,1.4-.08,1.98-.08,.08,0,.14,.04,.18,.08l.55-.1c-.04,.16,.46,.12,.2,.23,.41-.19,.83-.09,1.23-.29,1.41-.06,2.92-.22,4.37-.51l-.04-.06c.51-.12,.95-.43,1.58-.35,.44-.22,1.07-.34,1.24-.67,.51-.06,.71-.22,1.21-.32-.13-.16,.48-.21,.23-.32-.34-.21-.35-.02-.64-.2v.05c-1.32-.21-2.65-.31-3.99-.35-.89,.16-1.86,.07-2.79,.14-1,.08-2.08,.21-2.93,.37-.2,.05-.35-.08-.53-.15-.79,.09-1.79,.06-2.68,.17h.04c-.47,.04-.83-.11-1.29-.07,0,.05-.07,.05-.1,.07-.09-.21-2.71,.51-2.87,.39l-.15,.03c-.98-.07-1.99-.46-2.83-.4-.18,.1-.38,.2-.53,.31-.15-.09-.17,.09-.35,.07-.46-.41-.72-.23-.49-.09-.37,.06-.74,.03-1.07,.05l-.46,.11c-.13,.04-.2-.02-.27-.12-.33,.06-.24-.04-.59-.08-.09-.15-.88,.25-.98,.2l.06-.02c-.41-.02-.68-.31-1.07-.32-1.1-.11-2.3,0-3.32-.07-.01,.16,.22-.03,.23,.17-.6-.03-1.2-.24-1.8-.28-.11-.04-.24-.13-.29-.18-.19-.06-.12,.07-.26,.05v-.14c-.22,.11-.31-.16-.51-.11-.01,.06-.08,.06-.15,.05,0-.15-.21,0-.2-.13h0s-.07,.02-.12-.01c-.09,.05-.81,.43-.92,.49l-.04-.03c-.11,0-.16,.11-.1,.14h-.14l.02-.02-.14-.02s-.05-.08,0-.15c-.08,.05-.17,.07-.24,.04,.21,.1,.47,.24,.69,.41-.09,.05-.26-.04-.36-.03-.11-.1-.36-.2-.54-.28-.04,0-.08,.17-.17,.09-.04-.12-.11,0-.18-.09,.09-.06,.18-.02,.27-.01,0-.14-.22-.1-.29-.15-.04,.04-.21-.01-.32,.02,.06-.13-.08-.09-.15-.16-.07-.02-.13,.03-.1,.08-.03,.14,.29,.1,.18,.24-.02-.07-.17-.06-.25-.05,0,.08,.05,.06,0,.13-.09-.02-.19,.06-.23-.02,.02-.02,.05,0,.08,0-.11-.01,.65-.47,.5-.43,.04,.07-.68,.42-.6,.43,.07,.04-.06,.14,.01,.17l.09-.09c.1,.03,.13,.17,.09,.22-.16-.02,.5-.5,.36-.43l.06,.04c-.06,.05-.23,.08-.28,0,0,.08-.09,.1-.16,.12h-.02c-.07,.02-.17,0-.13,.1,.41,.01-.32,.76,.07,.83-.16-.18,.07-.17,.24-.18,.01,.06,.09,.15,.21,.2,.11,0,.07-.06,.09-.1,.06,.04,.17,.08,.15,.17,.09-.1,.13,.08,.24,.05,.09-.04,0-.05,.06-.09,.13,.02,.32,.04,.43,.07,.04,.08,.16,.24,.06,.36-.2-.03,.09-.21-.13-.19,.08,.19-.19,.04-.24,.18,.06,.09,.2,.1,.32,.08l-.02-.03c.1-.02,.31-.05,.41,.06-.03,.07,.02,.12-.06,.13l.14,.02s.04-.04,0-.06c.07-.05,.13-.02,.18,.03,.01,.07,.76-.27,.73-.22,.1,0,.12,.11,.22,.04,.01-.06-.97,.2-.84,.19,.08,.08,1.16-.31,1.21-.17,.07,0,.17-.02,.15-.09,.13,.04-.04,.14,.05,.2,0-.01,0-.04,.02-.03l.08,.09c.2-.11,.48,.05,.69-.09-.06,.08-.13,.21-.27,.28l-.02-.04s-.13,.04-.13,.11c.12,.05,.23,.04,.37-.02,.02,.02,.05,.04,.07,.06v-.03s.04,.05,.02,.08v.02c.06,.21,.49-.12,.72,0,.07-.03,0-.04,.09-.07,.23,.09,.39,.16,.64,.21,.08-.09,.09-.13,0-.22l.19,.03c-.17,.24,.34,.23,.15,.47,.05,.06,.17,.07,.27,.03,.01-.06,.03-.16,.16-.16,.18,.08,.14,.05,.29,.13,.04,.08-.02,.11-.01,.17,.23-.1,.2,.17,.42,.16,.14-.02,.41-.03,.42-.17,.19,0,.19,.11,.17,.22Z"/><path class="d" d="M89.89,120.08l-.15-.02c.48-.01,.99,.04,1.49,.09-1.09-.47-2.38-.88-3.22,.11-.09-.53-1.15-.78-1.17-.65-.22,.1-.44,.18-.67,.24,.15-.04,.31-.08,.46-.13-.15,.05-.31,.09-.46,.13-1.42,.41-2.97,.23-4.57,.03-.89-.1-3.3-.22-4.2-.37-.13-.02-.26-.04-.4-.05q.22,.05,.44,.1c-.55,.14-1.06,.28-1.54,.37,.09,.08,.1,.15,.3,.25l-.25-.05c-.23,.22-.75,.21-.99,.3,.05-.12-.14-.14-.31-.16l.07,.08c-.65-.05-1.4,.05-1.97,.03-.08,0-.14-.04-.18-.08l-.55,.09c.04-.15-.46-.14-.2-.23-.41,.18-.84,.07-1.23,.26-1.41,.02-2.92,.14-4.38,.4l.04,.06c-.51,.1-.96,.41-1.58,.31-.44,.21-1.07,.31-1.25,.64-.51,.04-.72,.21-1.22,.29,.13,.16-.49,.19-.24,.32,.33,.22,.35,.03,.63,.21v-.05c1.31,.24,2.63,.38,3.97,.45,.89-.14,1.86-.02,2.79-.07,1-.06,2.08-.16,2.94-.29,.2-.05,.35,.09,.53,.16,.79-.07,1.79-.02,2.68-.11-.02,0-.03,0-.04,0,.47-.03,.83,.14,1.29,.11,0-.05,.07-.05,.1-.07,.08,.21,2.72-.44,2.88-.32,.05-.01,.1-.02,.15-.02,.97,.09,1.98,.51,2.82,.47,.18-.1,.39-.19,.54-.3,.15,.09,.18-.09,.35-.06,.45,.42,.72,.25,.48,.1,.37-.06,.75-.02,1.08-.03,.15-.03,.31-.06,.46-.1,.13-.04,.2,.03,.27,.13,.34-.06,.24,.04,.59,.09,.09,.15,.88-.24,.98-.19l-.06,.02c.41,.03,.68,.31,1.08,.33,1.11,.11,2.31,0,3.34,.05,.01-.16-.23,.03-.24-.17,.6,.03,1.21,.22,1.82,.25,.11,.04,.24,.12,.29,.17,.19,.06,.12-.07,.26-.05l.02,.14c.21-.11,.3,.16,.5,.1,.01-.06,.08-.06,.15-.06,0,.15,.21-.01,.2,.13h0s.07-.02,.12,0c.08-.05,.83-.46,.91-.52l.04,.02c.11,0,.16-.11,.09-.14h.14l-.02,.02h.14s.05,.09,.01,.16c.08-.05,.17-.08,.24-.05-.22-.09-.49-.22-.71-.37,.09-.05,.26,.03,.36,.01,.12,.1,.37,.18,.56,.25,.04,0,.07-.17,.17-.1,.05,.11,.11,0,.19,.08-.09,.06-.18,.03-.27,.03,.02,.14,.23,.09,.3,.13,.03-.04,.21,0,.33-.04-.05,.13,.09,.08,.16,.15,.08,.02,.12-.04,.09-.08,.02-.14-.3-.08-.2-.23,.03,.07,.18,.04,.26,.04,0-.08-.05-.06,0-.13,.09,.02,.18-.08,.23,0-.02,.02-.05,0-.08,0,.12,0-.63,.5-.48,.46-.04-.07,.66-.46,.58-.46-.07-.04,.05-.14-.02-.17l-.08,.09c-.1-.03-.14-.16-.11-.22,.17,.01-.48,.53-.33,.45l-.06-.04c.06-.05,.22-.09,.29-.01,0-.08,.08-.1,.15-.13h.02c.07-.03,.17,0,.12-.11-.41,.01,.27-.78-.13-.82,.17,.17-.06,.17-.23,.19-.02-.06-.1-.14-.22-.19-.11,.01-.06,.06-.09,.1-.06-.04-.18-.07-.16-.16-.09,.11-.14-.07-.24-.03-.09,.05,0,.05-.06,.1-.14-.01-.32-.03-.43-.05-.04-.08-.17-.23-.08-.36,.2,.02-.08,.21,.14,.18-.09-.19,.19-.05,.23-.2-.07-.09-.21-.09-.32-.06l.02,.03c-.1,.02-.3,.06-.41-.04,.03-.07-.02-.12,.05-.13h-.14s-.04,.03,0,.05c-.07,.05-.13,.02-.18-.02-.02-.07-.74,.3-.72,.25-.1,0-.12-.1-.22-.03-.01,.06,.96-.24,.83-.22-.09-.08-1.14,.35-1.2,.22-.07,0-.16,.02-.15,.09-.13-.03,.04-.14-.05-.2,0,.01,0,.04-.02,.03l-.09-.09c-.2,.11-.48-.03-.69,.11,.06-.08,.13-.21,.26-.28l.02,.04s.13-.05,.12-.12c-.13-.05-.23-.03-.36,.04-.02-.02-.05-.04-.07-.06,0,0,0,.02,0,.03-.04-.04-.04-.05-.02-.08,0,0,0-.01,0-.02-.08-.21-.49,.13-.72,.02-.07,.03,0,.04-.09,.08-.23-.08-.39-.15-.64-.2-.08,.09-.08,.13,.01,.22l-.18-.03c.17-.24-.34-.23-.16-.47-.05-.06-.16-.07-.27-.03-.01,.06-.03,.16-.16,.16-.18-.08-.14-.05-.29-.13-.04-.08,.02-.11,.01-.17-.23,.1-.2-.17-.42-.16-.14,.02-.41,.03-.41,.17-.18,0-.18-.11-.17-.22Z"/><g><path class="b" d="M164.17,62.02c5.32,1.59,9.56,6.11,11.27,11.4,1.71,5.29,1.02,11.21-1.43,16.2-1.18,2.41-2.81,4.68-5.07,6.14-2.76,1.78-6.17,2.19-9.45,2.35-13.81,2.48-19.87-10.12-20.76-11.98-2.24-4.7-1.19-10.37,.9-15.14,4.38-10.04,14.89-11.84,24.54-8.95Z"/><path class="b" d="M174.6,83.69l-.11,.46c.32-1.5,.57-3.1,.62-4.69-.23,1.73-.67,3.55-1.16,5.23-.47,1.7-.96,3.26-1.13,4.69-.3,.01-.89,.73-1.45,1.38-.55,.66-1.08,1.25-1.05,1.31-.34,.56-.74,1.09-1.19,1.57,.32-.33,.61-.67,.88-1.04-.27,.37-.56,.71-.88,1.04-1.42,1.52-3.58,2.41-5.98,2.76-1.22,.19-2.42,.25-3.8,.28l-1.98,.17c-.62,.09-1.23-.03-1.85-.04-.69,.02-1.64-.2-2.73-.38l-1.68-.5c-.55-.25-1.13-.49-1.7-.75-2.24-1.15-4.09-2.96-4.99-4.04l-.77-.96q.41,.55,.83,1.09c-1.27-1.16-2.32-2.37-3.2-3.65,.08,.27,.03,.36,.3,.96-.14-.22-.25-.47-.38-.7-.58-.48-1.4-2.01-1.75-2.67,.17,.1-.06-.44-.19-.95v.22c-.66-1.88-.86-4.27-.62-6.11,.03-.26,.1-.44,.15-.55,.06-.59,.13-1.17,.24-1.76,.1,.16,.5-1.4,.38-.55,.15-1.34,.71-2.59,1.04-3.85,.89-2.09,2.11-4.09,3.78-5.74,1.65-1.65,3.72-2.93,5.96-3.73-.04,0-.09-.02-.13-.02,1.57-.55,3.01-1.14,5.1-1.15,1.47-.25,3.62-.23,4.25-.42,.87,.09,1.49,.13,2.09,.21,.61,.06,1.22,.13,2.06,.32-.39-.27,1.67,.26,.89-.09-1.06-.51-1.17-.36-2.09-.76l.02,.06c-4.43-1.25-9.37-1.5-14.04,.15-3.05,1.2-6.07,3.41-8.06,6.21-2.07,3.1-3.24,6.75-3.68,9.78-.09,.72-.29,1.23-.43,1.85-.11,1.42-.1,3.07,.21,4.75,.14,.84,.39,1.68,.69,2.49,.16,.4,.34,.8,.52,1.17,.18,.36,.37,.71,.56,1.05l-.07-.14c.81,1.46,1.36,2.6,2.37,3.9,.03-.03,.19,.17,.28,.25-.02,.18,1.59,2.04,3.59,3.5,1.99,1.48,4.3,2.48,4.56,2.59l.5,.18c1.58,.73,3.32,1.19,5.03,1.49,.86,.11,1.71,.14,2.54,.18,.82-.03,1.61-.12,2.36-.22l.24-.07,.06-.02h0s-.12,.01-.08,0h.01s0-.02,.06-.03l.48-.1c.32-.07,.62-.14,.88-.21,.52,.05,.6-.13,1.22-.17,1.63,.24,2.56-.16,1.7-.14,1.29-.28,2.61-.61,3.73-1.1,.51-.25,1-.53,1.47-.85,.4-.28,.65-.38,.92-.44,.96-.81,.74-.49,1.73-1.35,.16-.06,.7-.69,1.14-1.37,.45-.68,.81-1.4,.92-1.54l-.09,.19c.81-1.21,1.49-1.94,2.09-3.24,1.7-3.6,2.29-8.02,1.95-11.71-.16-.02,.1,.81-.11,.87-.1-2.16-.36-4.38-1.15-6.49-.12-.39-.24-.87-.27-1.06-.27-.67-.25-.35-.47-.83l.09-.13c-.48-.62-.4-1.07-.86-1.65-.07,0-.22-.22-.36-.44,.11-.1-.48-.64-.35-.69h-.01c-.09-.13-.16-.22-.26-.38-.12-.09-.68-.64-1.29-1.12-.6-.49-1.25-.91-1.37-.99l-.09-.11c-.31-.26-.52-.29-.35-.12l-.38-.33,.05,.03c-.12-.11-.26-.21-.39-.32-.07-.07-.11-.18,.05-.15-.26-.13-.52-.31-.75-.49,.6,.53,1.28,1.24,1.77,1.91-.27-.19-.69-.64-.97-.86-.28-.34-.94-.95-1.5-1.38-.13-.08-.31,0-.58-.23-.09-.18-.34-.19-.56-.41,.32,.11,.59,.3,.88,.48,.02-.14-.67-.5-.89-.66-.14-.01-.7-.36-1.1-.49,.22-.05-.28-.21-.48-.37-.26-.12-.44-.14-.35-.06-.13,.1,1,.51,.58,.49-.07-.1-.58-.3-.86-.38-.03,.07,.17,.12-.04,.13-.3-.12-.66-.14-.81-.28,.06,0,.19,.05,.28,.09-.2-.07,.39-.02,.96,.07,.56,.1,1.13,.22,.86,.13,.05,.06-.56-.08-1.15-.19-.6-.09-1.16-.18-1.03-.13,.23,.12-.21,.08,.03,.19h.31c.34,.15,.43,.32,.29,.33-.28-.1,.17-.1,.62-.05,.45,.06,.92,.14,.66,.07l.18,.12c-.23-.04-.79-.23-.97-.39-.03,.07-.32,0-.56-.06l-.08-.04c-.25-.05-.59-.18-.46-.03,1.39,.46-1.13,.44,.18,.92-.5-.34,.24-.12,.82,.09,.03,.08,.25,.26,.63,.46,.34,.15,.22,.04,.31,.03,.17,.13,.51,.33,.43,.39,.31,.03,.38,.28,.7,.42,.29,.11,0-.05,.22,.02,.4,.24,.92,.62,1.21,.85,.07,.15,.32,.53,0,.44-.54-.43,.34-.01-.26-.42,.15,.33-.56-.31-.75-.26,.14,.2,.53,.44,.85,.66l-.05-.07c.28,.18,.85,.56,1.06,.89-.11,0-.02,.14-.22-.01l.34,.31c.06,.02,.12,.05,.03-.05,.2,.1,.34,.28,.43,.42,0,.05,.5,.4,.95,.81,.48,.38,.89,.81,.86,.79,.22,.26,.18,.39,.43,.61,.04,0-.49-.62-1.03-1.14-.55-.52-1.09-.96-.93-.81,.08,.12,.8,.73,1.45,1.42,.66,.68,1.23,1.43,1.22,1.56,.14,.21,.31,.46,.34,.37,.18,.39-.18-.04-.09,.26,.01,0,.02-.04,.06,.05l.06,.29c.43,.51,.7,1.44,1.09,2.01-.15-.15-.36-.31-.6-.68v-.08s-.23-.36-.29-.31c.15,.39,.29,.7,.52,1.07l.04,.24s.01-.01,.02-.02c.01,.15,0,.14-.04,.1,0,0-.02,0-.03-.02-.05,.16,.11,.52,.31,.94,.17,.43,.4,.91,.42,1.29,.08,.21,.04,.01,.14,.27,.09,.77,.12,1.3,.16,2.09,.12,.24,.16,.26,.21-.06,.02,.2,.03,.4,.03,.61-.28-.52-.14,1.14-.43,.55-.04,.18-.04,.53,0,.86,.06,.03,.17,.08,.16,.5-.1,.58-.06,.45-.15,.92-.09,.11-.1-.07-.17-.05,.04,.74-.2,.63-.27,1.32-.01,.43-.15,1.28-.02,1.33-.1,.58-.22,.56-.31,.48Z"/></g><g><path class="b" d="M205.19,98.5c-5.35,1.04-11.08-.95-14.97-4.76-3.89-3.81-5.99-9.27-6.13-14.71-.07-2.63,.31-5.34,1.61-7.63,1.58-2.8,3.23-5.83,6-7.46,10.86-8.44,22.99,.87,24.61,2.08,4.09,3.06,5.75,8.46,6.11,13.55,.76,10.71-7.54,17.06-17.23,18.94Z"/><path class="b" d="M186.23,84.16l-.11-.46c.38,1.47,.9,2.99,1.56,4.41-.58-1.63-.99-3.44-1.32-5.14-.35-1.71-.6-3.31-1.11-4.65,.26-.15,.47-1.04,.68-1.85,.2-.82,.41-1.57,.36-1.61,.06-.64,.18-1.28,.38-1.9-.15,.42-.25,.86-.33,1.29,.08-.44,.19-.87,.33-1.29,.12-.36,.24-.66,.43-1.05l.58-1.16c.39-.76,.81-1.51,1.28-2.21,.92-1.41,2.07-2.65,3.45-3.41l.15-.1c.58-.36,1.17-.73,1.76-1.1,.61-.33,1.26-.56,1.88-.85,.3-.15,.71-.21,1.14-.36,.44-.12,.92-.3,1.47-.35,1.07-.2,2.31-.28,3.56-.19,2.5,.15,4.94,1.02,6.21,1.61l1.11,.53-1.22-.63c1.65,.51,3.13,1.13,4.49,1.86-.19-.21-.19-.31-.7-.71,.22,.14,.45,.29,.66,.45,.75,.18,2.13,1.13,2.82,1.55-.2,0,.25,.37,.63,.72-.03-.07-.06-.13-.1-.19,1.47,1.31,2.81,3.25,3.48,4.96,.1,.23,.12,.43,.13,.55,.24,.53,.45,1.08,.64,1.64-.17-.09,.23,1.45-.06,.66,.5,1.23,.6,2.59,.91,3.84,.2,2.25,.11,4.56-.57,6.78-.66,2.22-1.86,4.29-3.43,6.05l.12-.04c-1.11,1.22-2.09,2.42-3.92,3.39-1.17,.9-3.06,1.88-3.53,2.34-.81,.32-1.36,.57-1.93,.78-.56,.23-1.13,.45-1.96,.67,.46,.07-1.59,.54-.74,.49,1.17-.04,1.19-.22,2.19-.29l-.04-.04c4.46-.94,8.92-3.01,12.24-6.65,2.07-2.5,3.73-5.84,4.08-9.23,.34-3.68-.35-7.41-1.42-10.27-.26-.67-.33-1.21-.51-1.81-.59-1.29-1.39-2.72-2.48-4.03-.56-.64-1.16-1.27-1.83-1.8-.34-.28-.67-.53-.98-.74-.33-.23-.65-.45-.98-.65l.12,.09c-1.37-.9-2.35-1.67-3.82-2.37-.01,.04-.24-.06-.36-.1-.07-.17-2.29-1.11-4.67-1.61-.59-.14-1.19-.25-1.77-.3-.58-.06-1.11-.17-1.6-.16-.96-.02-1.65-.07-1.79-.08l-.53,.05h-1.3c-.43,.03-.87,.11-1.3,.15-.43,.07-.88,.07-1.3,.19l-1.27,.32c-1.66,.46-3.21,1.19-4.42,2.08l-.74,.68,.14-.1c-.28,.23-.55,.45-.74,.68-.5,.26-.48,.46-.98,.88-1.52,.85-1.92,1.79-1.28,1.21-.82,1.07-1.55,2.15-2.12,3.13-.24,.47-.47,.93-.7,1.4-.19,.4-.36,.58-.56,.73-.52,1.14-.46,.75-.98,1.96-.12,.12-.33,.92-.42,1.73-.1,.81-.11,1.61-.15,1.78v-.21c-.18,1.43-.48,2.39-.41,3.81,.11,3.95,1.56,8.13,3.53,11.23,.15-.05-.46-.67-.3-.81,1.06,1.86,2.29,3.71,3.94,5.21,.27,.29,.61,.66,.72,.82,.53,.48,.38,.19,.79,.52l-.02,.16c.7,.33,.84,.77,1.51,1.07,.06-.03,.29,.09,.52,.22-.06,.15,.71,.35,.62,.45h.01c.14,.06,.24,.1,.4,.21,.15,.02,.89,.26,1.65,.39,.75,.17,1.52,.23,1.66,.25l.13,.06c.4,.09,.59,.02,.37-.06l.48,.12h-.06c.16,.04,.32,.07,.49,.1,.09,.03,.18,.11,.03,.15,.29,0,.6,.03,.88,.09-.77-.2-1.7-.51-2.43-.88,.33,.05,.9,.25,1.25,.32,.4,.18,1.26,.41,1.96,.53,.15,0,.27-.15,.61-.06,.16,.12,.39,.01,.68,.11-.33,.05-.66,0-1-.01,.05,.14,.82,.13,1.09,.17,.13-.05,.78,0,1.19-.07-.17,.15,.34,.05,.59,.1,.28,0,.45-.08,.34-.11,.07-.15-1.11,.01-.74-.17,.11,.05,.65,0,.93-.06,0-.08-.2-.03-.03-.13,.32-.03,.64-.18,.84-.13-.06,.03-.19,.04-.28,.05,.21-.03-.33,.2-.87,.38-.54,.17-1.09,.33-.81,.28-.07-.03,.53-.19,1.1-.36,.57-.2,1.1-.38,.96-.36-.26,0,.15-.17-.11-.15l-.27,.14c-.36,.03-.52-.08-.41-.15,.29-.05-.1,.17-.53,.33-.42,.16-.88,.31-.62,.25l-.21-.02c.22-.07,.8-.16,1.03-.1,0-.07,.28-.15,.52-.21h.09c.24-.08,.6-.12,.42-.19-1.43,.24,.79-.91-.58-.74,.59,.07-.16,.22-.76,.3-.06-.05-.34-.11-.77-.12-.37,.03-.22,.07-.29,.11-.21-.03-.6-.06-.55-.15-.29,.12-.46-.08-.8-.05-.31,.04,.02,.05-.2,.09-.46-.03-1.1-.12-1.45-.2-.13-.11-.52-.32-.2-.4,.67,.13-.29,.17,.42,.25-.28-.22,.63,.02,.78-.11-.22-.12-.67-.14-1.04-.19l.07,.04c-.33-.03-1.01-.1-1.33-.3,.1-.05-.04-.13,.2-.09l-.44-.12c-.06,0-.13,.01,0,.06-.22,0-.42-.1-.57-.18-.01-.04-.62-.13-1.21-.27-.59-.13-1.15-.31-1.11-.3-.31-.13-.33-.27-.66-.35-.03,.03,.72,.32,1.43,.54,.72,.2,1.4,.34,1.19,.29-.12-.07-1.04-.28-1.92-.59-.89-.3-1.73-.71-1.79-.82-.22-.11-.48-.27-.47-.17-.33-.26,.18-.05-.04-.27-.01,0,0,.04-.08-.01l-.19-.23c-.61-.26-1.27-.95-1.88-1.28,.2,.07,.46,.1,.84,.32l.03,.08c.06,.03,.36,.21,.4,.15-.31-.27-.57-.49-.95-.71-.05-.06-.11-.14-.14-.2,0,0,0,.02-.01,.03-.07-.13-.06-.12,0-.11,0,0,.02,0,.03,0-.05-.32-1.26-.98-1.65-1.64-.17-.15-.04,0-.25-.17-.42-.64-.68-1.09-1.08-1.77-.21-.16-.26-.16-.16,.15-.11-.17-.2-.35-.3-.52,.48,.33-.38-1.07,.13-.68-.04-.18-.2-.49-.39-.76-.07,0-.18,0-.37-.37-.18-.56-.16-.41-.28-.89,.03-.14,.12,.01,.17-.03-.39-.63-.1-.65-.36-1.28-.18-.39-.44-1.2-.58-1.18-.15-.56-.05-.59,.07-.57Z"/></g><g><path class="b" d="M116.3,109.8c-2.03,4.2-1.97,9.06-1.87,13.72l.91,40.82c.05,2.2,.12,4.47,1.06,6.46,1.41,2.98,4.73,4.84,8.04,4.86s6.49-1.63,8.7-4.08c.23,21.31,.46,42.62,.7,63.93,.04,3.77,.09,7.6,1.26,11.18s3.64,6.93,7.19,8.2c5.82,2.08,12.19-2.12,15.47-7.36,1.51,4.79,6.9,7.7,11.91,7.3s9.49-3.57,12.5-7.6c1.84,4.58,6.53,7.85,11.46,8s9.81-2.84,11.92-7.3c3.35,5.6,11.33,9.82,17.09,6.75,4.26-2.27,5.94-5.8,7.07-10.49s-.06-12.58-.27-17.4c-.78-18.12,.45-36.24-.33-54.37,1.91,3.75,8.07,6.02,11.96,4.42s6.51-5.43,7.69-9.46,.15-9.31,.1-13.52l-.38-31.52c-.07-6.25-.3-12.96-4.01-17.99-3.06-4.15-8.1-5.46-13.18-6.33s-10.27,.09-15.42-.09c-18.32-.65-30.47-.48-45.72-.59-12.42-.09-27.91-1.35-40.23,.79-6.6,1.14-10.53,5.32-13.59,11.65Z"/><path class="b" d="M132.3,219.87v2.39c-.08-7.73-.12-15.87-.15-23.88-.14,8.72-.26,18.23-.2,27.24,.04,4.52,.08,8.85,.27,13.02,.12,2.09,.35,4.17,.84,6.12,.48,1.94,1.24,3.78,2.24,5.3,.08,.4,.67,1.75,1.99,3.29,1.3,1.52,3.56,3.18,6.21,3.64,2.63,.56,5.23-.06,6.96-.76,1.74-.72,2.76-1.46,2.82-1.54,1.22-.84,2.32-1.82,3.31-2.9,.12-.14,.26-.26,.37-.41l.18-.21,.09-.11,.02-.02,.09-.14c.06-.08,.12-.26,.18-.3,.05,.11,.13,.24,.24,.37-.11-.14-.19-.27-.24-.39-.07,.06-.15,.25-.22,.35l-.06,.08v.02l-.11,.11-.21,.25-.89,.94,.89-.94,.21-.25,.09-.11v-.02l.07-.08c.07-.09,.15-.29,.22-.35,.05,.12,.13,.25,.24,.39l.51,.64c.2,.25,.43,.47,.65,.7,.45,.45,.93,.87,1.44,1.24,1.02,.75,2.13,1.35,3.31,1.8,2.34,.89,4.98,1.14,7.46,.68,2.48-.44,4.81-1.49,6.85-2.9,1.02-.71,1.98-1.5,2.86-2.37,.56-.55,.59-.6,.75-.77,.12-.13,.25-.33,.35-.41,.08,.18,.16,.35,.26,.52l.2,.3,.6,.79c.84,1.03,1.82,1.95,2.91,2.72,2.17,1.54,4.79,2.52,7.52,2.64,2.74,.13,5.48-.62,7.82-2.01,1.17-.7,2.26-1.56,3.21-2.56,.24-.25,.46-.52,.68-.78l.09-.11,.05-.06,.1-.13c.11-.15,.19-.29,.27-.44,.1,.12,.2,.31,.31,.45l.08,.11,.03,.04,.18,.2c.25,.27,.48,.55,.75,.8,1.03,1.04,2.19,1.92,3.43,2.71,1.24,.79,2.6,1.4,4.03,1.85,1.43,.44,2.97,.7,4.54,.61,.51,0,1.05-.12,1.61-.19,.55-.14,1.15-.27,1.73-.52,1.21-.48,2.25-1.11,3.36-1.97,1.09-.85,2.09-1.97,2.92-3.24,.83-1.28,1.45-2.71,1.95-4.18,.24-.74,.46-1.49,.65-2.25,.1-.36,.18-.81,.27-1.22,.07-.42,.13-.83,.18-1.25,.18-1.65,.2-3.3,.16-4.95-.08-3.29-.44-6.61-.63-9.84-.54-13.06-.05-26.35,.06-33.61,.03-2.11,.06-4.21,.09-6.35q-.07,3.53-.14,7.07c-.02-4.29-.07-8.39-.17-12.37-.03-.99-.06-1.98-.09-2.96-.02-.49-.04-.98-.05-1.46l-.03-.65v-.14l-.07-.62-.02-.17v-.09s-.01-.06,0-.02c.04,.08,.1,.15,.17,.23l.12,.12-.16-.23c-.09-.14-.18-.29-.3-.53-.04-.1-.04-.04-.05,0l-.02,.14c-.01,.11-.03,.25-.04,.46v-.82s.06,.1,.09,.15c.06,.11,.14,.2,.21,.3l.02,.02c.09,.07,.21,.17,.38,.28,.08,.06,.18,.11,.28,.18l.62,.35c1.31,.69,2.87,1.22,4.5,1.45,1.63,.23,3.37,.08,4.87-.53,1.39-.6,2.51-1.41,3.28-2.11-.32,.33,.2,0,.98-.77,.78-.76,1.75-2.01,2.47-3.28-.22,.32-.43,.64-.67,.94,.76-1.15,1.39-2.41,1.87-3.74,.5-1.3,.83-2.81,.92-4.23,.22-2.87-.11-5.67-.3-8.35-.19-2.63-.13-5.36-.2-7.93-.03-2.59-.06-5.07-.09-7.38-.02-1.29,.02-2.25,.05-2.84l-.2-8.86c.16,.68,.05-7.35,.2-3.12-.15-3.31-.12-6.65-.41-10.03-.29-3.35-.95-6.77-2.52-9.74-.67-1.34-1.48-2.62-2.53-3.76-1.05-1.13-2.3-2.07-3.64-2.79-2.7-1.44-5.64-2.14-8.52-2.65-2.94-.57-6-.55-8.92-.4-2.95,.16-5.79,.34-8.71,.19-11.76-.35-23.62-.33-35.3-.21l.57,.06c-4.08,.05-7.93,.1-12,.16-4.06,0-8.35-.1-13.32-.26-3.55,.02-7.85,.06-11.61,.27-3.76,.19-6.97,.59-8.35,.89-2.02,.24-3.75,.49-5.26,.82-1.51,.35-2.81,.85-4.02,1.5-2.4,1.33-4.46,3.25-6.54,6.57,.62-.8-.41,.8-1.13,2.31-.72,1.5-1.32,2.89-.41,1.13,1.25-2.28,2-3.4,2.72-4.42,.74-.99,1.42-1.94,3.08-3.24l-.13,.04c1.87-1.59,4.13-2.63,6.55-3.11,2.47-.45,5.11-.73,7.69-.92,5.2-.35,10.46-.33,15.73-.2,5.28,.13,10.57,.38,15.92,.48,5.32,.05,10.66,.1,16.01,.14,7.13-.05,14.56,0,22.05,.19,1.87,.05,3.75,.11,5.63,.16l2.82,.1c.93,.04,1.95,.05,2.9,.04,3.86-.07,7.55-.49,11.05-.18,1.83,.17,3.83,.56,5.7,1.01,1.87,.48,3.68,1.12,5.24,2.08,3.17,1.84,5.03,5.31,5.93,8.97,.92,3.69,.99,7.59,1.07,11.37,.08,3.8,.15,7.44,.22,10.87,.08,3.27-.02,5.63-.06,8.42,.05,3.15,.1,6.51,.15,10.01,0,1.72,.06,3.62,.22,5.42,.14,1.81,.29,3.6,.28,5.35,0,1.78-.19,3.41-.77,5.02-.56,1.63-1.38,3.16-2.41,4.48-1.03,1.33-2.32,2.4-3.75,3.1-.37,.19-.71,.3-1.05,.42-.36,.08-.72,.17-1.1,.19-.76,.06-1.55,.04-2.32-.11l.61,.1c-1.27-.15-2.47-.55-3.52-1.09-.13-.07-.27-.13-.39-.21l-.43-.26c-.47-.26-.89-.76-1.34-1.15l-.16-.16c-.05-.05-.11-.1-.18-.22l-.4-.62-.8-1.24-2.05-3.32-.12,1.12c-.04,.09-.08,.14-.12,.21l.07,2.46c.05,1.71,.1,3.42,.15,5.15,.03,2.14,.06,4.34,.09,6.71,.05-.04,.05,1.1,.08,1.66-.05,.32-.04,3.18-.04,7.35,0,4.17,0,9.64-.01,15.15,.02,5.52,.11,11.09,.28,15.43,.09,2.17,.16,4.04,.27,5.47,.11,1.41,.19,2.35,.2,2.68,.07,.76,.14,1.55,.21,2.35,.22,3.74,.5,7.6-.46,11.02-.49,1.78-1.1,3.5-2.01,4.97-.9,1.47-2.09,2.69-3.54,3.56-2.79,1.87-6.26,1.58-9.22,.23-1.48-.67-2.83-1.58-4.01-2.62l-.85-.81-.39-.43-.2-.21-.17-.19c-.06-.07-.12-.14-.17-.22-.44-.62-.88-1.24-1.32-1.86-.41-.62-.82-1.27-1.23-1.84l-.88,1.68c-.33,.61-.64,1.31-.98,1.8l-.51,.8c-.13,.18-.21,.27-.32,.42-.41,.53-.9,1.01-1.39,1.46-1.01,.88-2.13,1.56-3.15,2.02-1.02,.35-1.64,.51-2.32,.66-.68,.16-1.43,.28-2.72,.18-3.28-.5-5.44-2.14-6.46-2.98-.52-.43-.78-.68-.79-.65-.01,.03,.23,.35,.86,.92-.76-.61-1.45-1.31-2.03-2.07l-.22-.29c-.07-.09-.2-.33-.3-.49-.21-.37-.43-.66-.62-1.1-.4-.83-.76-1.63-1.11-2.42-.92,1.09-1.9,2.47-2.85,3.45-.69,.71-1.27,1.25-1.96,1.79-1.34,1.06-2.77,1.92-4.23,2.49-2.1,.86-4.37,1.24-6.6,.87-1.9-.33-2.87-.9-3.65-1.44-1.81-1.06-2.37-1.83-2.85-2.41l-.17-.23-.08-.11-.04-.06-.02-.03s-.06-.09-.06-.1l-.53-1.05c-.37-.77-.79-1.96-1.3-3.35-.1,.04-.24,.28-.37,.47-.14,.2-.28,.41-.43,.64-.3,.45-.65,.95-1.04,1.5-.18,.21-.52,.74-1.04,1.35l-.61,.69c-.2,.2-.41,.42-.64,.66-.94,.92-2.21,1.99-3.66,2.77-1.43,.79-3.01,1.26-4.29,1.36-1.28,.11-2.25-.09-2.58-.19,.26,.08,.54,.08,.8,.13-2.87-.43-4.81-2.25-6.13-4.27-1.33-2.07-2.08-4.44-2.48-7.44-.27-2.09-.31-4.27-.33-6.51-.02-2.25-.04-4.52-.06-6.8-.05-4.55-.1-9.14-.15-13.68-.1-9.09-.19-18.01-.28-26.21-.16-.16,.07,3.61-.13,3.81-.01-3.65-.02-7.32-.04-10.99,0-1.84,0-3.67,0-5.51v-4.11l-.03-2.44c-.01-.78,.02-1.76-.09-2.17-1.74,1.76-3.83,4.19-5.28,4.86-.9,.52-1.88,.9-2.87,1.12-.74,.15-1.57,.19-2.27,.12-.7-.07-1.29-.24-1.6-.34-1.21-.4-1.53-.62-1.8-.73-.26-.13-.47-.19-1.19-.78l-.09-.26c-1.01-.87-1.41-1.73-1.67-2.64-.26-.93-.36-1.92-.46-3.39-.07-.15-.11-1.24-.13-2.37,.15-.06-.09-3.43,.05-3.28v-.03c-.02-.67-.04-1.15-.04-1.97-.07-1.28-.77-13.23-.85-14.53v-.6c-.03-1.79-.16-2.55-.16-1.51l-.04-2.21,.02,.25-.04-2.2c0-.41,.06-.86,.14-.24-.08-1.24-.14-2.64-.14-3.88-.01,3.46-.05,7.76-.12,11.38-.08-1.49-.07-4.17-.12-5.79,.06-1.93,.05-5.89,.05-8.97-.02-.68-.2-1.14-.16-2.68,.1-.75-.04-1.73,.01-3.01,.09,1.47,.1,2.9,.13,4.39,.13-.26,.01-3.62,.02-4.79-.05-.56-.09-3.4-.05-5.14,.1,.76,.12-1.41,.32-2.4,.14-1.14,.24-1.85,.11-1.41-.04-.2-.25,.92-.36,1.92-.11,.99-.16,1.85-.2,1.03,.08-.43,.25-2.71,.53-3.87-.08-.03-.22,.8-.14,.01,.29-1.31,.68-2.67,1.07-3.32-.1,.24-.3,.73-.44,1.09,.31-.8-.47,1.4-.63,3.72-.2,2.3-.06,4.62-.07,3.46-.03,.3-.14-2.27,.23-4.64,.32-2.4,1.34-4.47,1.07-3.96-.46,.94,.19-.75-.29,.23-.15,.38-.26,.77-.37,1.16-.51,1.4-.74,2-.67,1.46,.36-1.22-.09,.54-.2,2.4-.13,1.86-.04,3.81-.05,2.7l-.07,.9c-.05-.95,.1-3.45,.38-4.36-.07-.02,.1-1.25,.38-2.23l.12-.34c.27-1.02,.92-2.31,.55-1.74-.62,1.4-.76,1.91-.84,1.88-.06-.02-.02-.55,.08-1.08,.08-.54,.23-1.07,.16-1.12-.05-.05-.37,.36-.87,1.85,1.07-2.41-.32,.83-.58,3.6-.08,.26-.34,1.47-.44,3.48-.02,1.74,.05,1.02,.09,1.36-.04,.96-.04,2.81-.13,2.57,.13,1.36-.02,2.18,.05,3.81,.08,1.44,.04-.1,.12,.92,.03,2.16,.08,5.18,.11,6.9-.07,.67-.17,2.69-.33,1.22-.06-3.27,.24,1.24,.13-2.16-.16,1.47-.12-3.01-.28-3.63-.06,1.09-.01,3.29,.05,5.13l.02-.37c.06,1.62,.17,4.86,.11,6.62-.08-.41-.11,.36-.15-.84l.04,2.23c.03,.28,.06,.57,.06-.07,.08,1.05,.07,2.11,.05,2.92-.07,.24,.56,11.87,.51,11.51,.04,1.61-.06,2,.05,3.57,0,.02,0-.2,0-.61-.01-.4-.03-.99-.06-1.69-.05-1.4-.13-3.26-.2-5.06-.14-3.6-.29-6.95-.25-5.89-.02,1.38,.71,18.21,.7,19.23,.07,1.2,.44,2.61,.45,2.32,.54,1.95-.32-.55,.04,.86,.02,.03-.01-.12,.15,.32,.14,.45,.32,.89,.54,1.31,.87,1.37,2.39,2.75,4.23,3.53,1.84,.8,3.94,.93,5.56,.54-.92,.2-2.06,.57-4.24,.13-.12-.04-.24-.09-.36-.14-.15-.03-.66-.18-1.12-.36-.45-.18-.85-.37-.85-.33,1.83,1.04,3.74,1.42,5.93,1.12,.41-.03,.88-.09,1.2-.15-.01,0-.05,0-.04-.02,.71-.13,.64-.11,.39-.01l-.14,.06c.43-.04,1.44-.29,2.61-.9,.28-.14,.62-.34,.88-.5,.19-.13,.39-.26,.58-.41,.39-.3,.8-.67,1.18-1.08l.15-.17s.06-.07,.07-.07v.1l.02,.42,.02,.83c0,.56,0,1.07,0,1.54,.04,1.08,.04,.1,.09,1.44-.03,3.74-.05,6.32-.08,10.22,.1,1.25,.14,1.34,.22-.16v2.95c-.27-2.68-.17,5.51-.44,2.56-.05,.86-.04,2.63,.02,4.28,.06,.17,.16,.42,.18,2.5-.05,2.89-.04,2.2-.08,4.6-.07,.57-.11-.31-.17-.21,.14,3.69-.14,3.23-.08,6.71,.05,2.18,.1,6.49,.24,6.6,.03,2.94-.08,2.94-.19,2.65Z"/></g><path class="d" d="M130.85,140.97l-.03,.17c0-.57,.09-1.16,.18-1.75-.61,1.26-1.16,2.75-.01,3.79-.64,.08-.99,1.31-.84,1.34,.1,.26,.18,.53,.25,.8-.04-.18-.08-.37-.13-.55,.05,.18,.09,.37,.13,.55,.41,1.7,.09,3.51-.27,5.38-.18,1.04-.49,3.87-.74,4.94l-.09,.46,.14-.52c.13,.67,.26,1.27,.34,1.85,.1-.1,.19-.11,.33-.34l-.08,.29c.25,.28,.2,.9,.3,1.19-.14-.07-.17,.16-.21,.36l.1-.07c-.1,.76-.03,1.66-.08,2.34,0,.1-.06,.16-.11,.21l.08,.66c-.18-.06-.19,.54-.29,.22,.2,.5,.04,.99,.25,1.47-.04,1.68,.05,3.47,.32,5.21l.07-.04c.11,.61,.47,1.15,.34,1.88,.24,.53,.37,1.27,.76,1.48,.05,.6,.25,.84,.35,1.43,.19-.15,.23,.57,.38,.28,.27-.39,.04-.41,.25-.75h-.06c.28-1.54,.46-3.08,.58-4.64-.13-1.05,.02-2.18,.02-3.27-.03-1.17-.1-2.45-.21-3.46-.04-.24,.12-.41,.22-.61-.04-.93,.09-2.11,.04-3.16v.05c0-.56,.21-.96,.21-1.51-.05,0-.05-.08-.08-.13,.26-.08-.34-3.23-.19-3.42,0-.06-.02-.12-.02-.18,.18-1.14,.75-2.3,.76-3.29-.11-.22-.2-.47-.32-.66,.12-.17-.09-.21-.05-.42,.54-.51,.34-.83,.15-.57-.04-.44,.03-.88,.03-1.28-.03-.18-.06-.36-.09-.55-.03-.16,.05-.24,.17-.31-.05-.4,.07-.28,.14-.69,.18-.09-.23-1.06-.17-1.18l.02,.07c.05-.48,.41-.79,.45-1.26,.19-1.31,.11-2.75,.21-3.97-.19-.02,.03,.27-.21,.28,.05-.72,.3-1.44,.35-2.16,.05-.13,.15-.29,.21-.35,.07-.23-.09-.14-.06-.31l.17-.02c-.13-.25,.19-.36,.12-.6-.07-.01-.08-.1-.07-.18,.18,0,0-.26,.15-.24h-.01c0-.05,0-.09,.02-.15-.06-.1-.54-1-.62-1.09l.03-.05c0-.13-.14-.19-.17-.11v-.16l.02,.02v-.16s.11-.06,.19-.02c-.06-.09-.1-.2-.06-.29-.11,.26-.26,.58-.44,.85-.06-.11,.03-.31,.01-.43,.12-.14,.22-.44,.3-.67-.01-.05-.21-.08-.12-.2,.14-.06,0-.13,.09-.23,.07,.11,.04,.22,.03,.33,.16-.02,.11-.27,.16-.36-.05-.04,0-.26-.04-.39,.16,.06,.1-.11,.18-.19,.02-.09-.04-.15-.1-.11-.17-.03-.1,.36-.28,.24,.08-.03,.05-.21,.05-.31-.09,0-.07,.07-.16,0,.02-.11-.09-.22,0-.28,.03,.02,0,.06,0,.09,0-.14,.61,.75,.55,.57-.08,.05-.55-.79-.56-.69-.05,.08-.17-.06-.2,.03l.11,.1c-.03,.12-.2,.17-.26,.13,.01-.2,.63,.56,.54,.39l-.04,.07c-.06-.07-.11-.27-.02-.34-.09,0-.12-.1-.16-.18l.02-.03c-.05-.08-.03-.2-.15-.14,.02,.49-.93-.31-.98,.16,.2-.2,.21,.06,.23,.27-.07,.02-.17,.11-.22,.26,.02,.13,.07,.08,.13,.1-.05,.07-.08,.21-.19,.19,.13,.1-.08,.16-.04,.28,.06,.11,.05,0,.12,.07-.01,.16-.03,.38-.05,.51-.1,.05-.28,.2-.43,.09,.02-.24,.25,.09,.22-.16-.23,.11-.06-.22-.24-.27-.1,.08-.1,.24-.07,.38l.03-.03c.03,.12,.08,.36-.04,.49-.08-.03-.14,.03-.16-.06v.16s.04,.04,.05,0c.06,.08,.03,.16-.02,.22-.08,.02,.34,.88,.29,.85,0,.12-.13,.15-.04,.26,.07,.01-.27-1.14-.25-.98-.09,.1,.41,1.35,.24,1.42,0,.09,.02,.19,.11,.18-.04,.15-.16-.05-.24,.06,.01,0,.04,0,.04,.03l-.11,.1c.13,.23-.05,.57,.12,.81-.09-.07-.25-.16-.33-.31l.05-.03s-.05-.15-.14-.15c-.06,.15-.04,.27,.04,.43-.02,.03-.05,.06-.07,.08h.03c-.05,.05-.06,.04-.1,.02,0,0-.01,0-.02-.01-.25,.09,.14,.58,0,.85,.03,.08,.04,0,.09,.11-.11,.27-.19,.46-.25,.75,.11,.1,.15,.1,.26,0l-.04,.22c-.28-.21-.29,.4-.57,.17-.07,.06-.08,.19-.04,.31,.07,.01,.19,.04,.18,.19-.1,.21-.07,.16-.17,.33-.1,.04-.13-.03-.21-.02,.11,.28-.21,.23-.21,.49,.02,.16,.02,.48,.19,.49-.02,.22-.14,.21-.27,.18Z"/><path class="d" d="M199.56,132.61l-.03,.75c.05-2.42,.07-4.95,.04-7.43-.17,2.7-.43,5.65-.54,8.48-.09,2.82,.05,5.48,.61,7.59-.64,.45-1.02,5.73-.87,5.84,.1,1.1,.18,2.22,.24,3.34l-.12-2.31,.12,2.31c.04,.9,.07,1.8,.11,2.7,.03,.89,.03,1.91,.08,2.84,.08,1.89,.17,3.77,.19,5.66,0,3.71-.06,7.79-2.1,10.16-.43,.53-1.12,1.16-2.14,1.74-.5,.29-1.08,.57-1.72,.83-.34,.15-.61,.22-.88,.31-.29,.06-.59,.15-.91,.18-1.26,.18-2.69,.02-3.94-.37-.31-.11-.61-.21-.9-.34l-.43-.21s-.22-.14-.37-.25l-.47-.34-.46-.33-.11-.08s-.08-.05-.12-.15l-.27-.48c-.36-.64-.71-1.27-1.06-1.89l-.28-.51-.47-.97c-.32-.65-.63-1.29-.94-1.93-.66-1.35-1.31-2.68-1.94-3.98-.02,.78-.03,1.54-.05,2.28v.56l-.02,.19-.02,.36-.02,.35v.17c-.01,.05-.01,.03-.02,.04l-.03,.08s0,.02-.01,.05v.41l-.02,.78c-.01,.51-.02,.98-.03,1.41-.02,1.29-.05,2.57-.07,3.86q.06-2.11,.12-4.21c.08,2.73,.15,5.33,.22,7.85,.06,1.4,.11,2.75,.17,4.06,.09-.43,.18-.5,.32-1.52l-.07,1.24c.26,1.13,.21,3.75,.31,4.97-.14-.27-.17,.7-.21,1.55l.1-.34c-.1,3.24-.06,7-.13,9.89,0,.4-.07,.71-.12,.89l.05,2.78c-.18-.22-.21,2.3-.3,.97,.17,2.08,0,4.19,.17,6.17-.14,7.08-.2,14.62-.07,21.95l.07-.18c.06,2.57,.37,4.83,.18,7.95,.2,2.23,.26,5.4,.63,6.29,0,2.57,.18,3.6,.24,6.11,.2-.65,.19,2.45,.36,1.21,.29-1.67,.07-1.76,.31-3.17l-.07,.04c.4-6.6,.72-13.22,.97-19.92-.05-4.48,.21-9.33,.27-13.98,.06-5.01,.06-10.43,0-14.74-.03-1.03,.14-1.76,.25-2.64-.01-3.96,.15-8.99,.09-13.45v.22c0-1.19,.04-2.22,.09-3.25,.02-.52,.04-1.03,.07-1.56,0-.27,.01-.53,.02-.81v-.26c-.05-.01-.06-.13-.09-.2,.06,0,.06-.23,.03-.64-.02-.23-.04-.5-.06-.79,.06,.09,.19,.34,.39,.49,.12,.09,.25,.19,.4,.27,.08,.04,.15,.09,.24,.12l.32,.13c.9,.4,1.81,.65,2.61,.81,1.61,.33,2.81,.23,3.04,.29l.82-.07c.68-.04,1.36-.15,2.05-.31,.33-.1,.7-.2,1.01-.32,.3-.12,.61-.22,.92-.36,1.22-.5,2.43-1.14,3.52-2.04,1.08-.9,1.97-2.07,2.54-3.28,.3-.6,.5-1.21,.69-1.8,.17-.62,.29-1.21,.37-1.78,.02-1,0-2.09-.1-2.88,.14-.76-.07-.92-.03-1.83,.52-2.32,.24-3.65,.1-2.46-.11-1.88-.14-3.75-.18-5.38-.05-.76-.07-1.47-.1-2.25-.03-.66,.05-1.03,.17-1.36-.05-1.69,.07-1.19,.15-2.96,.18-.42-.21-4.45-.15-4.94l.02,.29c.06-2.05,.43-3.4,.47-5.4,.11-2.78,.15-5.69,.19-8.55-.02-2.87-.1-5.71-.25-8.33-.18-.04,.11,1.15-.13,1.23-.14-3.07-.23-6.23-.82-9.35-.07-.57-.12-1.28-.13-1.55-.17-1.01-.22-.57-.42-1.34l.13-.15c-.48-1.08-.37-1.7-.88-2.67-.09-.02-.24-.39-.42-.73,.15-.1-.55-1.04-.38-1.07h-.02c-.11-.2-.2-.34-.32-.6-.13-.18-.83-1.08-1.58-1.92-.75-.84-1.56-1.61-1.73-1.75l-.1-.18c-.39-.46-.67-.55-.46-.27l-.48-.55,.07,.05c-.16-.18-.31-.37-.49-.54-.08-.11-.13-.27,.07-.18-.34-.25-.69-.57-.97-.88,.77,.89,1.64,2.03,2.23,3.08-.34-.35-.86-1.07-1.23-1.45-.34-.55-1.2-1.55-1.94-2.29-.17-.15-.43-.08-.78-.47-.12-.26-.45-.37-.76-.69,.46,.22,.81,.57,1.21,.88,.03-.17-.88-.87-1.21-1.11-.18-.07-.97-.67-1.57-.92,.31,0-.38-.36-.71-.58-.4-.2-.68-.25-.54-.13-.1,.05,.29,.25,.62,.43,.32,.18,.57,.37,.27,.3-.08-.17-.88-.47-1.29-.65-.04,.08,.26,.19-.04,.15-.46-.21-1.02-.25-1.27-.43,.1,0,.29,.08,.44,.13-.33-.09,.61-.02,1.46,.24,.88,.2,1.64,.56,1.27,.36,.08,.09-.8-.26-1.71-.49-.91-.22-1.81-.34-1.59-.28,.37,.16-.31,.08,.07,.23l.47,.03c.53,.21,.69,.43,.48,.43-.44-.15,.25-.11,.92,.06,.7,.13,1.35,.4,.98,.23l.26,.2c-.16-.05-.44-.19-.72-.32-.29-.12-.58-.26-.72-.38-.04,.09-.46-.09-.85-.16l-.13-.06c-.4-.08-.92-.27-.71-.07,1.11,.35,.66,.45,.23,.56-.43,.11-.83,.25,.14,.59-.78-.44,.37-.16,1.2,.23,.05,.1,.39,.34,.92,.72,.5,.26,.33,.1,.44,.11,.25,.19,.71,.57,.59,.61,.43,.14,.53,.45,.96,.74,.4,.24,0-.06,.3,.09,.54,.42,1.23,1.1,1.61,1.49,.08,.22,.4,.8-.03,.58-.71-.74,.45,.1-.32-.64,.18,.48-.75-.59-1-.58,.18,.31,.71,.74,1.12,1.14l-.06-.1c.19,.17,.47,.42,.74,.69,.26,.29,.5,.59,.64,.83-.15-.04-.03,.17-.29-.09l.44,.53c.07,.05,.15,.11,.04-.06,.25,.21,.43,.49,.55,.72,0,.05,.62,.73,1.21,1.41,.57,.7,1.12,1.4,1.06,1.37,.25,.44,.21,.6,.52,.99,.02,0-.12-.25-.37-.62-.23-.37-.56-.85-.91-1.29-.67-.9-1.38-1.66-1.17-1.41,.09,.2,1.02,1.26,1.81,2.42,.82,1.15,1.46,2.4,1.44,2.57,.16,.33,.35,.74,.39,.63,.18,.61-.22-.12-.14,.33,.02,0,.03-.05,.07,.08l.05,.44c.45,.86,.62,2.3,.98,3.26-.16-.27-.37-.57-.61-1.19l.02-.12c-.05-.08-.2-.6-.28-.56,.09,.61,.23,1.12,.44,1.75v.36s.02-.02,.04-.02c0,.22-.02,.2-.07,.13,0,0-.02-.02-.03-.04-.17,.42,.6,2.36,.6,3.51,.08,.33,.05,.03,.14,.43,.03,1.17,.05,1.98,.08,3.18,.14,.38,.18,.41,.26-.07l.03,.92c-.34-.81-.17,1.73-.51,.83-.05,.27-.04,.82,.03,1.33,.08,.05,.19,.12,.22,.77-.06,.9-.04,.69-.11,1.43-.09,.18-.13-.09-.21-.06,.15,1.15-.18,1-.15,2.09,.04,.68,.05,2.02,.21,2.06-.02,.92-.14,.92-.28,.83Z"/><path class="d" d="M156.38,199.89v.28c-.04-.92,0-1.88,.06-2.83-.53,2.08-.98,4.5,.19,6.1-.64,.17-.94,2.17-.79,2.21,.11,.42,.2,.84,.27,1.27-.04-.29-.08-.59-.14-.88,.05,.29,.1,.58,.14,.88,.45,2.71,.14,5.64-.22,8.68-.19,1.68-.52,6.27-.78,7.99l-.09,.75q.07-.42,.15-.84c.13,1.07,.25,2.03,.32,2.97,.1-.16,.19-.18,.33-.57l-.08,.47c.24,.44,.19,1.44,.29,1.91-.14-.11-.18,.26-.21,.59l.1-.13c-.1,1.24-.05,2.67-.09,3.78,0,.15-.06,.27-.11,.34l.08,1.06c-.18-.09-.19,.88-.29,.37,.2,.8,.04,1.6,.26,2.37-.02,2.71,.12,5.6,.48,8.39l.07-.07c.15,.98,.54,1.83,.46,3.02,.26,.84,.47,2.04,.88,2.35,.11,.97,.33,1.35,.48,2.29,.17-.26,.29,.91,.4,.43,.23-.65,0-.67,.19-1.22l-.06,.02c.12-2.51,.21-5.01,.24-7.53-.16-1.69-.08-3.52-.09-5.28-.05-1.89-.14-3.95-.25-5.58-.04-.39,.12-.67,.22-.99-.05-1.5,.1-3.41,.05-5.1v.08c0-.9,.22-1.57,.22-2.45-.05,0-.05-.13-.08-.2,.26-.14-.31-5.2-.15-5.51l-.02-.28c.19-1.86,.77-3.76,.77-5.36-.11-.35-.2-.75-.33-1.04,.12-.28-.09-.34-.05-.68,.54-.85,.34-1.36,.15-.92-.04-.71,.02-1.43,.01-2.06l-.1-.89c-.04-.25,.04-.39,.16-.52-.06-.65,.06-.45,.13-1.13,.19-.16-.26-1.7-.21-1.89l.03,.11c.04-.78,.38-1.3,.4-2.07,.13-2.13-.03-4.46-.04-6.43-.19-.01,.06,.43-.19,.47-.01-1.17,.17-2.35,.15-3.53,.04-.21,.12-.48,.17-.58,.04-.38-.1-.22-.1-.49l.17-.05c-.17-.39,.15-.6,.05-.98-.07-.02-.09-.15-.09-.29,.18-.02-.04-.42,.12-.41h-.01c0-.08-.02-.14,0-.24-.08-.15-.66-1.56-.76-1.71l.02-.08c-.03-.22-.17-.3-.19-.17l-.02-.27,.02,.03-.02-.27c.01-.05,.09-.11,.17-.05-.08-.14-.13-.31-.11-.46-.07,.43-.17,.96-.3,1.41-.08-.17-.02-.5-.06-.7,.09-.24,.14-.73,.19-1.11-.02-.08-.22-.12-.15-.31,.13-.1-.03-.21,.06-.37,.09,.17,.08,.35,.09,.52,.16-.05,.06-.45,.1-.59-.06-.06-.04-.41-.11-.62,.16,.08,.08-.19,.15-.33,0-.15-.07-.24-.12-.17-.17-.03-.04,.59-.24,.41,.08-.06,.02-.35,0-.5-.09,0-.06,.11-.16,.02,0-.17-.13-.34-.04-.45,.03,.03,.02,.1,.02,.15-.01-.23,.73,1.14,.64,.86-.07,.08-.68-1.21-.67-1.06-.03,.14-.18-.08-.19,.07l.13,.14c-.01,.2-.17,.29-.24,.23-.02-.32,.72,.84,.6,.58l-.03,.12c-.07-.11-.16-.42-.07-.55-.09,0-.14-.14-.19-.27v-.05c-.05-.13-.05-.32-.16-.22,.1,.79-.98-.4-.95,.36,.17-.34,.22,.08,.27,.41-.06,.04-.15,.2-.18,.45,.04,.21,.09,.11,.14,.15-.03,.12-.05,.35-.16,.33,.14,.15-.05,.27,0,.46,.08,.17,.05-.02,.13,.1,.01,.26,.03,.62,.03,.83-.09,.09-.24,.35-.41,.19-.02-.39,.27,.12,.19-.28-.21,.2-.1-.35-.28-.41-.09,.14-.06,.4-.01,.62l.03-.05c.05,.19,.14,.57,.04,.79-.08-.04-.14,.05-.17-.09v.27s.07,.06,.08-.01c.07,.12,.05,.25,.01,.35-.08,.03,.45,1.38,.4,1.35,.02,.19-.11,.25,0,.43,.07,.01-.42-1.81-.37-1.56-.08,.17,.57,2.14,.42,2.27,.02,.14,.05,.31,.13,.27-.02,.24-.17-.06-.24,.11,.01,0,.04-.02,.04,.04l-.1,.17c.16,.36,.03,.92,.22,1.3-.1-.11-.27-.23-.37-.47l.04-.05s-.07-.24-.16-.23c-.04,.24,0,.44,.09,.69-.02,.05-.04,.1-.06,.14,.01,0,.02,0,.03,0-.05,.08-.06,.08-.09,.05,0,0-.01,0-.02-.02-.24,.16,.2,.93,.08,1.37,.04,.13,.04,.01,.1,.17-.08,.45-.15,.76-.19,1.22,.11,.14,.16,.15,.26-.03l-.02,.35c-.3-.31-.25,.66-.55,.32-.06,.1-.07,.31-.01,.51,.07,.02,.19,.04,.2,.29-.09,.35-.06,.26-.15,.55-.09,.07-.13-.03-.21-.02,.13,.44-.2,.39-.17,.8,.03,.26,.05,.77,.22,.78,0,.35-.12,.35-.26,.32Z"/><path class="d" d="M203.47,200.42l-.02,.28c0-.91,.07-1.87,.16-2.82-.59,2.05-1.13,4.48,.05,6.08-.64,.17-.96,2.16-.8,2.2,.11,.42,.21,.84,.28,1.26-.04-.29-.09-.58-.15-.87,.06,.29,.11,.58,.15,.87,.47,2.69,.24,5.6,0,8.62-.13,1.67-.24,6.22-.41,7.94l-.06,.75,.11-.83c.18,1.05,.35,1.99,.47,2.91,.09-.16,.18-.19,.3-.58l-.06,.47c.27,.42,.27,1.41,.39,1.87-.14-.1-.16,.27-.18,.59l.09-.13c-.04,1.22,.09,2.64,.09,3.73,0,.15-.05,.27-.09,.34l.13,1.04c-.19-.08-.15,.87-.27,.37,.23,.78,.11,1.57,.36,2.32,.08,2.67,.29,5.5,.68,8.24l.07-.07c.15,.96,.54,1.8,.46,2.97,.27,.83,.44,2.01,.84,2.33,.09,.96,.29,1.34,.43,2.28,.18-.25,.26,.91,.4,.44,.25-.64,.02-.66,.21-1.2l-.06,.02c.2-2.49,.29-4.98,.3-7.5-.2-1.67-.13-3.5-.21-5.24-.11-1.88-.28-3.91-.47-5.52-.06-.38,.09-.66,.18-.99-.11-1.48-.07-3.37-.2-5.04v.08c-.05-.89,.14-1.56,.1-2.42-.05,0-.06-.13-.09-.19,.25-.15-.56-5.11-.42-5.42l-.03-.28c.11-1.83,.6-3.73,.56-5.3-.12-.34-.22-.73-.36-1.01,.11-.28-.1-.33-.07-.67,.51-.85,.3-1.35,.12-.91-.07-.7-.02-1.4-.03-2.03-.04-.29-.08-.57-.11-.87-.04-.25,.04-.38,.16-.51-.07-.63,.06-.45,.11-1.11,.18-.16-.27-1.67-.21-1.85l.03,.11c.04-.77,.39-1.27,.41-2.02,.16-2.08,.06-4.35,.16-6.28-.19-.02,.03,.43-.21,.44,.05-1.14,.31-2.28,.36-3.43,.05-.21,.15-.46,.22-.55,.08-.36-.08-.22-.05-.49l.17-.03c-.13-.4,.2-.57,.14-.94-.07-.02-.07-.16-.06-.29,.18,0,0-.4,.16-.38h-.01c0-.08,0-.14,.03-.24-.06-.15-.52-1.57-.59-1.73l.03-.07c0-.21-.13-.3-.17-.18l.02-.26v.03l.03-.26s.1-.1,.18-.02c-.06-.15-.09-.31-.05-.46-.12,.4-.29,.91-.48,1.33-.06-.18,.05-.49,.03-.68,.12-.22,.24-.69,.33-1.05,0-.08-.21-.14-.11-.32,.14-.08,0-.2,.1-.35,.07,.17,.03,.34,.02,.52,.16-.03,.12-.42,.17-.56-.05-.07,.01-.4-.03-.62,.15,.1,.1-.17,.19-.29,.02-.14-.04-.24-.09-.18-.17-.05-.12,.57-.29,.36,.08-.05,.06-.33,.06-.48-.09,0-.07,.1-.16,0,.03-.17-.08-.35,.02-.44,.02,.03,0,.1,0,.15,.02-.22,.57,1.2,.53,.92-.08,.07-.51-1.26-.52-1.11-.05,.13-.16-.1-.2,.04l.11,.16c-.04,.19-.2,.26-.27,.19,.02-.32,.61,.92,.52,.64l-.05,.11c-.06-.12-.1-.42,0-.54-.09,0-.12-.16-.15-.29l.02-.04c-.04-.13-.02-.32-.14-.24,0,.78-.92-.54-.99,.21,.21-.31,.2,.11,.22,.44-.07,.03-.17,.17-.23,.41,.01,.21,.07,.12,.12,.16-.05,.11-.09,.33-.2,.3,.12,.16-.09,.25-.05,.45,.05,.17,.06,0,.11,.11-.02,.25-.05,.61-.08,.81-.1,.08-.29,.31-.43,.13,.03-.39,.25,.15,.23-.25-.23,.17-.05-.36-.22-.43-.11,.13-.11,.38-.09,.6l.03-.04c.02,.19,.06,.58-.07,.78-.08-.05-.14,.04-.16-.1l-.02,.26s.05,.07,.07,0c.06,.13,.02,.25-.03,.34-.09,.03,.32,1.41,.27,1.37,0,.19-.13,.23-.05,.42,.07,.02-.25-1.82-.23-1.57-.1,.16,.37,2.16,.21,2.27,0,.14,.02,.31,.1,.28-.05,.24-.16-.07-.25,.09,.01,0,.04-.01,.04,.04l-.11,.16c.12,.37-.06,.91,.11,1.3-.09-.11-.25-.24-.33-.5l.05-.04s-.05-.24-.14-.24c-.06,.23-.05,.44,.03,.69-.02,.05-.05,.1-.07,.13,.01,0,.02,0,.03,0-.05,.08-.06,.07-.1,.04,0,0-.01,0-.02-.02-.25,.14,.14,.93,0,1.36,.03,.13,.04,.01,.09,.17-.11,.44-.19,.74-.26,1.2,.11,.15,.15,.16,.26-.01l-.04,.35c-.28-.32-.29,.65-.57,.29-.07,.1-.09,.31-.04,.5,.07,.02,.19,.05,.18,.3-.1,.34-.07,.26-.16,.54-.1,.07-.13-.04-.21-.03,.11,.44-.21,.38-.2,.79,.02,.26,.03,.77,.19,.78-.01,.35-.13,.35-.27,.31Z"/><path class="d" d="M227.71,142.17v.19c-.05-.62-.02-1.27,.01-1.92-.49,1.42-.91,3.09,.33,4.12-.63,.15-.87,1.51-.71,1.53,.13,.28,.24,.56,.33,.84-.05-.2-.11-.39-.18-.58,.07,.19,.13,.39,.18,.58,.56,1.8,.42,3.79,.23,5.84-.09,1.14-.14,4.23-.3,5.4l-.05,.51,.1-.57c.19,.71,.37,1.35,.49,1.97,.09-.11,.18-.13,.3-.4l-.05,.32c.27,.28,.27,.95,.39,1.27-.14-.06-.16,.18-.18,.4l.09-.09c-.04,.83,.09,1.79,.09,2.53,0,.1-.05,.18-.1,.23l.12,.71c-.19-.05-.15,.59-.27,.26,.23,.53,.1,1.07,.34,1.57,.06,1.81,.23,3.74,.57,5.61l.07-.05c.13,.66,.51,1.23,.4,2.03,.26,.57,.4,1.38,.79,1.6,.06,.66,.26,.92,.37,1.56,.19-.17,.24,.62,.38,.3,.26-.43,.03-.45,.24-.82h-.06c.26-1.69,.4-3.39,.46-5.11-.18-1.14-.07-2.39-.13-3.58-.09-1.28-.24-2.67-.42-3.77-.06-.26,.1-.45,.18-.68-.1-1.01-.06-2.3-.19-3.44v.06c-.05-.61,.14-1.07,.09-1.66-.05,0-.06-.09-.09-.13,.25-.11-.61-3.48-.47-3.69l-.03-.19c.08-1.26,.54-2.57,.46-3.64-.13-.23-.24-.49-.38-.68,.1-.19-.11-.22-.09-.45,.49-.6,.26-.93,.1-.63-.09-.48-.06-.96-.09-1.38-.05-.19-.09-.38-.14-.59-.05-.17,.02-.26,.14-.35-.09-.43,.04-.31,.08-.76,.17-.12-.33-1.13-.28-1.26l.03,.07c0-.53,.34-.89,.33-1.4,.06-1.43-.14-2.98-.15-4.3-.19,0,.06,.29-.19,.32,0-.78,.19-1.58,.17-2.36,.04-.14,.13-.32,.18-.39,.06-.25-.1-.14-.08-.33l.17-.03c-.15-.26,.16-.4,.08-.65-.07,0-.08-.1-.08-.19,.18-.01-.03-.28,.14-.27h-.01c0-.06-.01-.09,.01-.16-.07-.1-.61-1.03-.7-1.13l.03-.05c-.01-.14-.15-.2-.18-.11v-.34s.11-.08,.19-.03c-.07-.1-.11-.21-.08-.31-.09,.28-.23,.64-.39,.94-.07-.12,.01-.34-.01-.47,.11-.16,.19-.49,.26-.74-.01-.05-.21-.08-.13-.21,.13-.07-.01-.14,.08-.25,.08,.11,.05,.23,.05,.35,.16-.03,.09-.3,.13-.39-.05-.04-.01-.28-.07-.42,.16,.05,.09-.12,.17-.21,.01-.1-.05-.16-.11-.11-.17-.02-.08,.4-.26,.27,.08-.04,.04-.23,.03-.33-.09,0-.07,.07-.16,.01,.01-.12-.11-.23-.01-.3,.03,.02,.01,.07,.01,.1,0-.15,.65,.77,.59,.58-.08,.06-.6-.82-.6-.72-.04,.09-.17-.05-.2,.04l.12,.1c-.03,.13-.19,.19-.25,.15,0-.22,.67,.57,.56,.39l-.04,.08c-.06-.07-.13-.28-.04-.37-.09,0-.13-.1-.17-.18v-.03c-.04-.09-.02-.21-.14-.15,.05,.53-.95-.29-.97,.23,.19-.23,.21,.06,.25,.28-.07,.03-.16,.13-.2,.3,.02,.14,.08,.08,.13,.1-.04,.08-.07,.23-.18,.22,.13,.1-.07,.18-.02,.31,.07,.11,.05-.01,.12,.07,0,.17,0,.42-.02,.56-.1,.06-.26,.23-.42,.12,0-.26,.26,.08,.21-.19-.22,.13-.08-.24-.25-.28-.1,.09-.09,.27-.05,.42l.03-.03c.04,.13,.1,.39-.01,.53-.08-.03-.14,.04-.16-.06v.18s.05,.04,.07,0c.07,.08,.04,.17,0,.24-.08,.02,.41,.93,.36,.91,0,.13-.12,.17-.02,.29,.07,0-.36-1.22-.32-1.05-.08,.12,.51,1.44,.35,1.53,.01,.1,.04,.21,.12,.18-.03,.16-.17-.04-.24,.08,.01,0,.04-.01,.04,.03l-.1,.12c.15,.24,0,.62,.19,.87-.1-.07-.26-.15-.36-.31l.04-.03s-.07-.16-.15-.15c-.05,.16-.02,.3,.07,.46-.02,.03-.04,.07-.06,.1h.03c-.05,.05-.06,.05-.09,.03,0,0-.01,0-.02-.01-.24,.11,.19,.62,.08,.92,.04,.08,.04,0,.1,.11-.08,.3-.15,.52-.19,.83,.11,.09,.16,.1,.26-.03l-.02,.24c-.3-.2-.25,.46-.55,.23-.06,.07-.07,.21-.02,.34,.07,0,.19,.02,.2,.19-.08,.24-.05,.18-.13,.38-.09,.05-.13-.02-.21,0,.14,.29-.19,.27-.16,.55,.04,.17,.06,.52,.23,.52,0,.24-.12,.24-.25,.22Z"/><path class="d" d="M179.18,141.07l-.02,.18c0-.58,.06-1.19,.13-1.78-.57,1.29-1.09,2.84,.11,3.85-.64,.11-.93,1.38-.78,1.4,.12,.26,.22,.53,.3,.8-.05-.18-.1-.37-.16-.55,.06,.18,.11,.37,.16,.55,.5,1.7,.31,3.54,.11,5.46-.1,1.06-.15,3.95-.29,5.04l-.04,.48,.09-.53c.2,.66,.39,1.25,.52,1.82,.09-.11,.17-.13,.29-.38l-.05,.3c.27,.26,.29,.88,.42,1.17-.14-.06-.16,.18-.17,.38l.09-.08c-.02,.77,.13,1.66,.16,2.35,0,.1-.04,.17-.09,.22l.15,.65c-.19-.04-.13,.56-.27,.25,.25,.48,.14,.99,.4,1.45,.14,1.68,.41,3.46,.85,5.17l.07-.05c.17,.6,.58,1.1,.52,1.85,.29,.5,.49,1.24,.89,1.41,.11,.6,.32,.82,.48,1.41,.18-.17,.28,.55,.4,.25,.23-.42,0-.42,.19-.77l-.06,.02c.14-1.58,.17-3.15,.13-4.73-.24-1.04-.2-2.19-.32-3.28-.15-1.17-.36-2.44-.57-3.44-.07-.24,.08-.42,.16-.63-.14-.93-.13-2.11-.29-3.16v.05c-.06-.56,.12-.98,.06-1.53-.05,0-.06-.08-.09-.12,.24-.1-.65-3.19-.51-3.39-.01-.06-.03-.11-.04-.17,.08-1.16,.54-2.36,.48-3.34-.12-.21-.23-.45-.37-.63,.11-.18-.11-.21-.08-.42,.5-.54,.28-.85,.11-.57-.08-.44-.04-.88-.06-1.27-.04-.18-.08-.36-.12-.54-.04-.15,.03-.24,.15-.32-.08-.4,.05-.28,.1-.7,.17-.1-.29-1.04-.23-1.16l.03,.07c.03-.48,.38-.8,.39-1.27,.13-1.31,.01-2.74,.09-3.95-.19-.01,.04,.27-.21,.28,.04-.71,.29-1.43,.33-2.15,.05-.13,.15-.29,.21-.34,.08-.23-.09-.14-.06-.31l.17-.02c-.13-.25,.2-.36,.13-.59-.07-.01-.07-.1-.07-.18,.18,0,0-.25,.16-.24h-.01c0-.05,0-.09,.03-.15-.06-.1-.53-.99-.6-1.09l.03-.04c0-.13-.13-.19-.17-.12l.02-.16v.02l.03-.16s.1-.06,.18-.01c-.06-.09-.09-.2-.05-.29-.12,.25-.29,.57-.47,.83-.06-.11,.04-.31,.03-.43,.12-.14,.23-.43,.32-.65,0-.05-.21-.09-.12-.2,.14-.05,0-.13,.1-.22,.07,.11,.03,.22,.02,.33,.16-.01,.12-.26,.17-.35-.05-.04,.01-.25-.03-.39,.15,.06,.1-.1,.19-.18,.02-.09-.04-.15-.1-.11-.17-.04-.11,.35-.29,.22,.08-.03,.06-.21,.06-.3-.09,0-.07,.06-.16,0,.02-.1-.08-.22,.01-.28,.02,.02,0,.06,0,.09,.01-.14,.58,.77,.53,.59-.08,.04-.52-.8-.53-.71-.05,.08-.16-.07-.2,.02l.11,.1c-.04,.12-.2,.16-.26,.12,.02-.2,.61,.59,.52,.41l-.05,.07c-.06-.07-.1-.27,0-.34-.09,0-.12-.1-.15-.18l.02-.03c-.04-.08-.02-.2-.14-.15,0,.49-.92-.36-.99,.12,.21-.19,.2,.07,.22,.28-.07,.02-.17,.11-.23,.25,.01,.13,.07,.08,.12,.11-.05,.07-.09,.21-.2,.18,.12,.11-.09,.16-.05,.28,.05,.11,.06,0,.11,.07-.02,.16-.04,.38-.07,.51-.1,.05-.28,.19-.43,.08,.03-.24,.25,.1,.22-.15-.23,.1-.05-.23-.23-.28-.11,.08-.11,.24-.09,.38l.03-.03c.03,.12,.07,.36-.06,.49-.08-.03-.14,.02-.16-.07l-.02,.17s.05,.04,.07,0c.06,.08,.02,.16-.03,.22-.08,.02,.33,.89,.28,.86,0,.12-.13,.15-.05,.26,.07,.01-.26-1.15-.24-.99-.1,.1,.39,1.37,.23,1.44,0,.09,.02,.2,.11,.18-.05,.15-.16-.05-.25,.06,.01,0,.04,0,.04,.03l-.11,.1c.13,.24-.05,.57,.12,.82-.09-.07-.25-.16-.33-.31l.05-.03s-.05-.15-.14-.15c-.06,.15-.05,.28,.03,.43-.02,.03-.05,.06-.07,.08h.03c-.05,.05-.06,.04-.1,.02,0,0-.01,0-.02-.01-.25,.09,.15,.59,.01,.86,.03,.08,.04,0,.09,.11-.1,.28-.18,.47-.25,.76,.11,.09,.15,.1,.26,0l-.04,.22c-.29-.2-.28,.41-.57,.18-.07,.06-.08,.2-.04,.32,.07,.01,.19,.03,.19,.19-.1,.21-.06,.16-.16,.34-.09,.04-.13-.02-.21-.02,.12,.28-.21,.24-.19,.5,.03,.16,.04,.49,.2,.49,0,.22-.13,.22-.26,.2Z"/></svg>