<?xml version="1.0" encoding="UTF-8"?><svg id="a" xmlns="http://www.w3.org/2000/svg" viewBox="0 0 276.77 280.34"><defs><style>.b{fill:#005bea;}.c{fill:#65dff6;}.d{fill:#0b1f65;}</style></defs><g><path class="b" d="M87.36,48.88c18.82,.38,37.64,.47,56.46,.29,.45,10.23,.54,20.47,.28,30.7-7.95,1.86-16.16,2.29-24.31,2.72l-27.13,1.42c-10.51,.55-2.94-35.08-5.29-35.13Z"/><path class="b" d="M127.11,50.46l.73,.02c-2.38,0-4.87-.06-7.34-.13,5.35,.5,11.69,.94,15.82-.03,.23,.27,1.64,.47,3.01,.59,.68,.06,1.36,.1,1.87,.11,.25,0,.47,0,.62,0,.2,0,.1-.01,.13-.03,.03-.05,.12-.1,.25-.14,.04,.05,.08,.12,.11,.22-.03-.1-.06-.18-.09-.24l-.14,.05,.14-.05c.03,.06,.06,.14,.09,.24l.02,.07s.02,.19,.03,.27l.06,.66,.11,1.32c.06,.89,.12,1.78,.16,2.69,.09,1.81,.14,3.65,.16,5.52,.04,3.74-.04,7.58-.19,11.49-.04,1.09-.09,2.63-.15,4.42-.02,.59-.02,.53-.04,.73-.02,.14,0,.36-.1,.31h-.11l-.09,.03-.36,.07c-.48,.09-.97,.17-1.46,.26-3.91,.67-7.92,.99-10.12,1.1-.64,.03-1.28,.07-1.92,.1q1.07-.04,2.14-.08c-2.67,.37-5.1,.66-7.47,.88,.42,.05,.5,.12,1.5,.17l-1.21,.02c-1.09,.28-3.65,.41-4.84,.56,.25-.13-.7-.1-1.53-.08l.33,.06c-3.17,.12-6.84,.4-9.68,.54-.39,.02-.69,0-.87-.04l-2.71,.23c.2-.17-2.26-.02-.97-.18-2.02,.29-4.09,.28-6.02,.57-.87,.05-1.74,.1-2.62,.15-.85,.03-1.86,.16-2.44,.08-1.3-.14-2.29-1.45-2.88-3.01-.6-1.56-.92-3.31-1.14-5.06-.22-1.76-.32-3.54-.39-5.32l-.06,.17c-.1-2.49-.31-4.71-.03-7.75-.07-2.18,.06-5.28-.21-6.17,.07-1.25,.07-2.13,.06-3-.02-.86-.02-1.75-.15-2.88-.03,.15-.06,.08-.11-.07-.04-.13-.11-.41-.16-.44,.09,.02,.38-.24,.41-.25,.03-.02,.07-.1,.07-.1,0,0,0,0,0,0h0c.01-.58-.02,.78-.01,.64h-.14l-.1,.03c-.05,.01-.07,.02-.03,.04,.02,0,.05,.01,.09,.02h.08l.05,.02h.05c0-.33-.01,.76,.02-.75-.02,.04,.02-.04-.04,.07-.02,.03-.05,.06-.08,.07-.04,.03-.11,.09-.17,.13-.06,.04-.12,.07-.19,.09-.02,0-.23,.11-.19,.09,0,0,0,.02,0,.02v.27l.04,.57c.01,.36,.02,.71-.09,1.38l.05-.04c-.52,6.34-1.44,12.86-1.37,19.56,.12,2.24,.26,4.59,.75,7.01,.25,1.21,.58,2.44,1.19,3.67,.59,1.19,1.57,2.51,3.13,3.15,.8,.34,1.75,.41,2.48,.36,.62-.04,1.25-.08,1.87-.13,1.25-.09,2.5-.18,3.73-.26,2.45-.19,4.82-.37,6.93-.54,1-.1,1.73,0,2.59,.03,3.86-.27,8.78-.48,13.13-.79h-.21c2.32-.14,4.06-.07,6.34-.26-.01-.04,.34-.07,.51-.11,.2,.09,3.55-.24,6.93-.76,3.39-.5,6.78-1.28,7.18-1.31,.23-.05,.47-.11,.72-.17l1.24-.25,.67-.14,.34-.07,.17-.03c.05-.01,.14,0,.11-.08,.04-.85,.09-1.7,.13-2.56,.08-1.21,.15-2.42,.23-3.61,.14-2.35,.25-4.62,.23-6.68-.1-.89-.19-1.9-.31-2.65,.09-.73-.09-.87-.08-1.74,.4-2.23,.19-3.53,.06-2.38-.09-1.83-.09-3.67-.16-5.29-.06-.75-.11-1.5-.17-2.26-.06-.64,0-1.01,.08-1.34-.06-.85-.06-1.04-.06-1.6,0-.48,.02-.99-.02-2.42,0-.06,.01-.13,.01-.24-.31-.02-.93-.02-1.67,0-.37,0-.77,.02-1.19,.03l-.49,.02-.38,.02c-1.02,.06-1.99,.13-2.22,.11l.28-.02c-2-.04-3.33-.33-5.28-.35-5.43-.14-11.35-.06-16.38-.13-.05,.16,1.11-.03,1.17,.18-2.96-.04-5.95-.25-8.94-.29-.54-.04-1.2-.13-1.44-.18-.96-.06-.56,.07-1.26,.05l-.09-.14c-1.02,.11-1.49-.16-2.46-.11-.05,.06-.4,.06-.75,.06-.02-.15-1.05,0-1-.13h-.01c-.21,0-.35,.02-.6-.01-.4,.05-4.04,.45-4.47,.5l-.18-.03c-.55,0-.79,.11-.47,.14h-.68l.08-.02h-.67c-.12-.03-.26-.1-.07-.16-.38,.05-.81,.08-1.19,.05,1.06,.1,2.38,.23,3.48,.39-.46,.05-1.28-.03-1.78-.02-.59-.1-1.8-.19-2.75-.26-.21,0-.35,.17-.82,.1-.23-.12-.53,0-.92-.08,.45-.06,.89-.03,1.35-.02-.08-.14-1.11-.1-1.47-.14-.17,.04-1.05,0-1.6,.03,.24-.13-.44-.09-.77-.16-.37-.02-.61,.03-.46,.08-.12,.14,1.48,.09,.96,.24-.14-.07-.87-.05-1.26-.05,0,.08,.27,.06,.01,.13-.44-.02-.9,.07-1.15-.01,.08-.02,.26,0,.39,0-.57-.01,3.1-.49,2.36-.45,.19,.07-3.25,.44-2.87,.45,.35,.04-.25,.14,.11,.17l.4-.09c.49,.03,.69,.17,.52,.22-.82-.02,2.35-.51,1.64-.44l.29,.04c-.3,.05-1.1,.09-1.4,0,0,.08-.41,.1-.74,.13h-.12c-.34,.02-.83,0-.6,.1,2.02,0-1.34,.77,.61,.82-.82-.17,.28-.17,1.14-.19,.08,.06,.46,.14,1.08,.19,.54-.01,.32-.06,.42-.1,.3,.04,.86,.07,.79,.16,.42-.1,.67,.07,1.17,.04,.44-.05-.03-.05,.29-.1,.66,.02,1.59,.04,2.12,.06,.2,.08,.82,.23,.37,.36-1.01-.02,.39-.21-.66-.19,.45,.19-.93,.05-1.12,.19,.33,.09,1.01,.09,1.57,.07l-.11-.03c.5-.02,1.49-.06,2.03,.05-.13,.07,.11,.12-.26,.13l.69,.02c.09-.02,.18-.04-.02-.06,.32-.05,.65-.02,.9,.02,.07,.07,3.65-.28,3.54-.23,.49,0,.61,.11,1.09,.04,.01-.01-.28,0-.71,0-.43,.02-1,.05-1.55,.08-1.11,.06-2.14,.12-1.81,.11,.42,.08,5.6-.32,5.91-.19,.37,0,.81-.02,.72-.09,.62,.04-.19,.14,.25,.2,.01-.01-.04-.04,.1-.03l.42,.09c.96-.11,2.37,.05,3.37-.1-.29,.08-.62,.21-1.27,.28l-.11-.04c-.09,.02-.62,.04-.61,.12,.61,.05,1.14,.04,1.79-.03l.35,.06s-.01-.02,0-.03c.21,.05,.19,.05,.11,.08-.01,0-.02,.01-.04,.02,.38,.21,2.41-.12,3.54,0,.33-.03,.03-.04,.44-.07,1.15,.09,1.94,.16,3.14,.21,.38-.09,.41-.12-.05-.22l.91,.03c-.82,.24,1.69,.24,.78,.47,.26,.06,.81,.07,1.32,.03,.05-.06,.13-.16,.77-.15,.89,.09,.66,.06,1.41,.14,.17,.08-.1,.11-.07,.17,1.14-.09,.99,.18,2.06,.17,.67-.02,2-.02,2.03-.16,.9,.01,.9,.11,.81,.22Z"/></g><g><path class="c" d="M54.68,96.61c.02-4.39,.12-9.05,2.53-12.72,4.11-6.27,12.87-6.97,20.38-7.01,41.15-.22,82.3-.11,123.45,.33,4.48,.05,9.33,.22,12.85,2.99,4.49,3.54,5.24,9.96,5.49,15.67,1.02,22.58,.1,86.04-.53,98.88-.12,2.4-1.28,4.94-2.64,6.92-2.36,3.43-8.2,3.79-12.37,3.81l-46.69,.25c-28.17,.15-56.33,.3-84.5,.09-4.1-.03-8.51-.16-11.82-2.59-2.21-1.62-3.66-4.09-4.66-6.65-2.46-6.33-2.45-13.3-2.38-20.09,.2-20.63,.71-41.22,.81-61.86,.03-6,.08-12.01,.08-18.01Z"/><path class="c" d="M168.12,78.48l2.33,.02c-7.54,0-15.46-.08-23.27-.16,16.99,.51,37.05,.98,50.19,.02,.36,.13,1.65,.25,3.4,.35,1.74,.11,3.9,.21,5.89,.54,2,.31,3.78,.95,4.94,1.63,1.16,.69,1.78,1.35,1.86,1.37,1.04,.97,1.89,2.21,2.51,3.64,.62,1.43,1.04,3.01,1.33,4.65-.4-2.25-1.02-4.43-2.11-6.2,1.08,1.77,1.71,3.95,2.11,6.2,.46,2.6,.58,5.36,.71,8.18,.14,2.81,.21,5.66,.29,8.54,.13,5.75,.17,11.61,.18,17.56,0,11.89-.19,24.14-.45,36.58-.16,6.89-.34,19.76-.88,32.56l-.03,.6-.04,.5c-.04,.32-.1,.65-.18,.98-.15,.66-.39,1.33-.67,1.98-.28,.65-.63,1.28-1,1.89-.18,.28-.4,.65-.58,.85l-.26,.32-.31,.29c-.86,.75-2.07,1.28-3.37,1.6-1.3,.33-2.67,.49-4.03,.57-2.69,.14-5.45,.05-7.84,.07-2.41,0-4.54-.02-6.31-.02-2.05,0-4.1-.01-6.17-.02l6.87,.06c-8.64,.18-16.47,.34-24.04,.5,1.33,.07,1.57,.14,4.74,.23l-3.87-.03c-3.52,.23-11.65,.28-15.46,.37,.82-.12-2.19-.14-4.84-.15l1.05,.08c-10.07,.02-21.76,.05-30.77,.06-1.25,0-2.2-.04-2.76-.08l-8.63,.1c.66-.16-7.16-.13-3.04-.23-6.46,.19-13.01,.08-19.17,.28-2.75,0-5.53,.01-8.32,.02-2.78-.01-5.63,.07-8.38-.04-2.74-.13-5.49-.52-7.72-1.88-2.23-1.33-3.77-3.66-4.83-6.18-2.15-5.13-2.56-10.89-2.64-16.57-.04-5.72,.03-11.47,.02-17.15l-.06,.56c0-7.97-.21-14.99,.02-24.68-.12-6.92-.1-16.75-.38-19.51,.07-7.98-.13-11.16-.16-18.99-.16,2.02-.17-7.6-.3-3.75-.25,5.19-.06,5.48-.26,9.88l.05-.13c-.39,20.57-.79,41.15-1.19,61.98-.02,3.48-.04,7.03-.06,10.63,0,3.62,.08,7.35,.67,11.11,.29,1.87,.71,3.75,1.32,5.59,.6,1.83,1.37,3.65,2.48,5.34,1.1,1.68,2.62,3.25,4.47,4.24,1.83,1.01,3.81,1.52,5.72,1.77,2.06,.27,4.09,.29,6.07,.29,1.98-.01,3.96-.02,5.95-.03,3.98-.03,7.96-.05,11.87-.08,7.83-.07,15.38-.14,22.06-.2,3.19-.05,5.49,.08,8.2,.15,12.28-.1,27.92-.02,41.77-.17h-.68c7.36,0,12.87,0,20.06,0-.04-.05,1.08-.05,1.62-.08,.64,.09,11.16-.03,21.98-.27,2.74-.16,5.6-.48,8.16-1.74,1.26-.62,2.46-1.56,3.2-2.74,.69-1.05,1.26-2.11,1.68-3.15,.43-1.04,.72-2.07,.88-3.04,.08-.47,.12-.98,.13-1.37l.04-1.11c.06-1.37,.1-2.29,.11-2.61l.05-2.31c.51-15.18,1.09-30.86,1.16-43.89-.07-2.83-.15-6.01-.25-8.4,.1-2.3-.07-2.75-.05-5.52,.44-7.05,.23-11.18,.09-7.54-.06-5.81-.13-11.62-.18-16.78-.09-2.39-.15-4.77-.28-7.18-.11-2.05-.08-3.19-.04-4.24-.18-2.65-.32-3.6-.42-4.58-.16-.98-.17-2.01-1.06-4.8-.1-.34-.43-1.4-1.2-2.71-.74-1.31-1.99-2.84-3.59-3.94-1.59-1.12-3.42-1.75-4.87-2.08-1.46-.33-2.57-.43-2.96-.49,.31,.03,.62,.06,.93,.1-3.29-.47-5.96-.46-8.57-.56-2.62-.08-5.23-.17-8.33-.18-17.24-.15-36.07-.09-52.04-.19-.16,.15,3.52-.03,3.71,.18-9.42-.11-18.92-.21-28.43-.32-1.71-.05-3.81-.13-4.59-.18-3.04-.07-1.79,.07-4.02,.04l-.3-.14c-3.25,.11-4.75-.17-7.81-.12-.16,.06-1.28,.06-2.37,.05-.06-.15-3.35,0-3.19-.13h-.03c-.66,0-1.12,.02-1.92-.01-1.26,.07-12.88,.38-14.21,.53h-.6c-1.78,.07-2.54,.26-1.5,.21-.73,.05-1.47,.09-2.2,.18l.25-.04c-.73,.06-1.46,.16-2.2,.26-.41,.04-.88,.07-.26-.11-1.24,.27-2.64,.57-3.88,.94,3.47-1,7.81-1.19,11.37-1.1-1.46,.07-4.13,.11-5.73,.33-1.91,.08-5.93,.7-8.87,2.16-.62,.37-.99,.69-2.36,1.6-.35,.21-.7,.52-1.1,.87-.38,.38-.8,.83-1.27,1.33,.97-1.27,2.18-2.28,3.52-3.12-.08,0-.32,.14-.65,.36-.34,.21-.77,.5-1.18,.87l-.64,.55-.57,.6c-.38,.37-.67,.74-.86,1-.08,.13-.26,.38-.5,.71-.21,.35-.49,.78-.73,1.27-.51,.98-.94,2.17-1.16,3.09,.08-.84-.5,1.47-.67,2.56-.19,1.25-.17,2.04-.09,1.54,.05,.21,.17-1.02,.38-2.09,.2-1.07,.45-1.96,.33-1.08-.21,.44-.55,2.88-.58,4.16,.07,.02,.12-.88,.13-.04-.11,1.43-.02,2.92-.11,3.72-.02-.26,0-.84,0-1.25,0,.91-.17-1.55-.02-4.06,.1-2.51,.86-5.01,.49-3.76,.07-.16-.09,.46-.24,1.44-.16,.98-.28,2.32-.32,3.62-.06,2.6,.09,5.02,.08,4.42,.05-1.11,.13,.79,.17-.35l-.08-1.28c.06-1.58,.24-2.24,.27-1.67-.04,1.33-.17-.55-.07-2.54,.08-1.99,.58-4.06,.31-2.88,.1-.31,.18-.63,.29-.94-.31,1-.7,3.64-.83,4.64,.07,.01,0,1.34,0,2.41l-.02,.38c.01,1.12,0,2.65,.09,1.93,.08-6.46,.71,4.25,.85-1.99-.19,2.61-.26-.88,.05-3.65,.11-.26,.27-1.49,.87-3.4,.53-1.65,.28-.98,.34-1.31,.2-.44,.51-1.07,.8-1.55,.31-.46,.54-.79,.52-.66,.72-1.15,1.33-1.71,2.55-2.76,1.09-.91-.12,0,.67-.63,.86-.65,2.02-1.21,3.15-1.7,1.15-.44,2.27-.78,3.09-.96,.65-.1,2.62-.3,1.24,.09-3.1,.7,1.13-.52-2.08,.32,.71-.11,0,.1-.93,.4-.46,.18-.99,.35-1.41,.56-.42,.2-.76,.38-.88,.48,.97-.41,2.95-1.15,4.69-1.54l-.35,.06c1.51-.43,4.64-.88,6.35-.85-.4,.1,.35,.09-.8,.19,.72-.05,1.44-.09,2.16-.11,.27-.03,.56-.07-.07-.05,1.02-.09,2.04-.08,2.83-.05,.24,.06,11.57-.27,11.22-.23,1.57,0,1.95,.11,3.48,.04,.02,0-.2,0-.59,0-.39,0-.96,0-1.65,.01-1.36,.02-3.18,.05-4.93,.07-3.51,.06-6.78,.12-5.74,.11,1.34,.08,17.76-.31,18.74-.17,1.16,0,2.56-.01,2.29-.09,1.96,.04-.59,.13,.81,.21,.03-.01-.11-.04,.33-.03l1.34,.09c3.05-.1,7.52,.05,10.71-.09-.92,.08-1.98,.21-4.03,.27l-.36-.04c-.29,.02-1.98,.04-1.93,.11,1.95,.05,3.62,.04,5.67-.02,.38,.02,.82,.04,1.12,.06,0,0-.04-.02-.03-.03,.67,.05,.6,.05,.36,.08l-.14,.02c1.22,.21,7.66-.11,11.22,0,1.05-.03,.1-.04,1.41-.07,3.64,.08,6.16,.14,9.96,.22,1.22-.09,1.31-.12-.16-.22l2.87,.04c-2.61,.23,5.37,.24,2.49,.48,.84,.06,2.56,.07,4.17,.04,.16-.06,.42-.16,2.44-.15,2.82,.09,2.14,.07,4.48,.14,.55,.08-.3,.11-.21,.17,3.6-.09,3.14,.18,6.54,.17,2.13-.02,6.33-.02,6.43-.15,2.87,.01,2.87,.11,2.58,.23Z"/></g><g><path class="b" d="M200.32,117.87c5.09-2.31,11.02-2.78,16.36-1.12,3.21,1,7.15,2.74,9.9,4.68,2.65,1.88,4.18,4.01,6.07,6.65,3.61,5.03,4.64,11.69,3.2,17.71-1.43,6.02-5.19,11.37-10.06,15.19-2.11,1.66-4.45,3.06-7,3.87-8.34,2.66-18.55-.4-24.83-6.49-1.76-1.7-3.37-3.57-4.61-5.68-3.24-5.52-3.73-15.59-1.98-21.85,1.54-5.47,8-10.72,12.94-12.97Z"/><path class="b" d="M230.7,127.73l.37,.53c-1.24-1.7-2.46-3.41-3.97-4.77,1.52,1.61,2.77,3.71,4.16,5.74,1.26,1.84,2.21,3.72,3.18,5.25-.19,.26-.08,1.43,0,2.56,.08,1.12,.11,2.2,.17,2.24,.15,.88,.22,1.78,.22,2.7,0-.63-.03-1.26-.08-1.88,.05,.62,.09,1.24,.08,1.88,.01,2.9-.77,5.95-2.23,8.76-1.46,2.82-3.56,5.4-6.06,7.57-1.38,1.19-4.11,3.38-7.2,4.52-3.07,1.18-6.49,1.22-8.29,1.02-.53-.03-1.05-.14-1.58-.2,.88,.12,.88,.18,1.76,.25-2.24,.03-4.31-.26-6.25-.77,.32,.17,.35,.28,1.14,.6-.33-.09-.65-.23-.98-.34-.98-.01-3.01-.87-3.98-1.23,.25,0-.46-.4-1.09-.74l.21,.2c-2.41-1.27-4.9-3.18-6.58-4.97-.24-.25-.38-.46-.45-.6-.55-.55-1.07-1.13-1.56-1.72,.21,.05-1.01-1.63-.29-.79-1.17-1.3-1.81-2.85-2.52-4.35-.95-2.79-1.44-5.89-1.6-9.01-.15-3.12,.01-6.33,.73-9.33l-.1,.12c.52-2.04,1.3-3.92,3.14-5.89,1.1-1.59,3.15-3.46,3.59-4.17,1.79-1.38,2.47-2.01,4.41-3.15-.6,.1,1.89-1.12,.84-.76-1.47,.46-1.45,.67-2.65,1.16l.06,.03c-2.63,1.43-5.07,3.22-7.19,5.43-1.06,1.1-2.04,2.32-2.86,3.69-.41,.69-.77,1.41-1.08,2.18-.31,.8-.5,1.55-.69,2.31-.72,4.08-.89,8.47-.29,12.67,.35,2.25,.89,4.58,1.84,6.75,.95,2.21,2.31,4.04,3.61,5.48,.63,.68,.99,1.26,1.49,1.88,1.26,1.25,2.84,2.65,4.61,3.79,1.76,1.17,3.71,2.15,5.61,2.84l-.18-.07c2.01,.77,3.54,1.34,5.63,1.7,0-.05,.32,0,.48,.01,.15,.14,3.3,.56,6.45,.07,1.58-.18,3.12-.65,4.31-1.03,1.18-.42,1.99-.82,2.17-.87,.2-.1,.4-.21,.6-.31,4.02-1.89,7.73-4.73,10.1-7.77,.44-.72,.91-1.52,1.2-2.16,.43-.52,.38-.71,.8-1.4,1.41-1.57,1.71-2.81,1.13-1.89,.69-1.55,1.32-3.14,1.7-4.61,.16-.68,.27-1.37,.37-2.07,.06-.6,.18-.92,.32-1.21,.1-1.54,.17-1.07,.28-2.69,.08-.19,.03-1.22-.12-2.23-.15-1.02-.4-2.02-.41-2.25l.06,.26c-.29-1.84-.35-3.13-1-4.87-.46-1.21-1.04-2.41-1.74-3.54-.76-1.16-1.46-2.1-2.24-3.15-1.52-2.05-3.47-3.98-5.48-5.29-.12,.1,.89,.57,.81,.78-2.27-1.68-4.66-3.06-7.2-4.13-.45-.22-.99-.51-1.18-.64-.81-.36-.52-.11-1.12-.34l-.04-.16c-.93-.19-1.3-.58-2.22-.75-.06,.04-.39-.03-.72-.11,.02-.16-1-.18-.93-.3h-.01c-.2-.03-.34-.04-.58-.1-.19,0-1.18-.02-2.16,.04-.98,.06-1.94,.2-2.13,.24l-.18-.02c-.52,.03-.73,.15-.43,.16-.21,0-.43,.01-.64,.03l.07-.02-.63,.05c-.12,0-.26-.06-.08-.14-.36,.08-.75,.18-1.11,.2,1.01-.07,2.26-.04,3.29,.09-.42,.06-1.19,0-1.65,.08-.56-.05-1.7,0-2.58,.11-.19,.04-.29,.23-.73,.26-.24-.06-.49,.11-.86,.13,.39-.17,.81-.23,1.23-.32-.1-.11-1.04,.13-1.38,.2-.14,.08-.96,.26-1.44,.47,.18-.19-.43,.04-.74,.1-.34,.11-.53,.24-.38,.23-.06,.16,1.35-.4,.93-.09-.15-.03-.78,.24-1.12,.37,.02,.07,.26-.03,.06,.12-.39,.14-.75,.4-.99,.42,.06-.05,.22-.1,.33-.15-.24,.11,.36-.32,.99-.67,.62-.37,1.26-.67,.93-.55,.1,0-.6,.35-1.25,.72-.65,.38-1.26,.76-1.1,.69,.31-.09-.15,.22,.16,.11l.3-.23c.43-.15,.66-.1,.53,.01-.73,.26,1.85-1.26,1.27-.95l.27-.05c-.26,.13-.94,.42-1.24,.45,.03,.07-.32,.22-.59,.38l-.11,.03c-.28,.16-.7,.32-.47,.33,1.71-.74-.8,1.18,.86,.53-.74,.15,.15-.28,.88-.56,.09,.03,.44-.02,.99-.15,.45-.16,.25-.15,.33-.22,.27-.05,.77-.15,.73-.04,.33-.21,.59-.09,1.02-.23,.38-.14-.04-.04,.23-.15,.58-.12,1.41-.25,1.88-.28,.19,.06,.76,.13,.38,.31-.88,.1,.31-.26-.61-.1,.42,.12-.81,.17-.94,.36,.31,.03,.89-.07,1.38-.16h-.1c.43-.11,1.31-.22,1.79-.14-.11,.07,.1,.11-.22,.14l.6-.02c.08-.02,.15-.05-.02-.06,.28-.07,.57-.04,.79,0,.03,.03,.83-.04,1.62-.08,.79-.02,1.56,0,1.51,.02,.43,.06,.52,.17,.95,.18,.01,0-.24-.06-.62-.09-.38-.03-.88-.07-1.37-.07-.98-.02-1.88,.05-1.59,.04,.18,.04,1.41-.02,2.63,.07,1.22,.07,2.42,.3,2.54,.4,.31,.08,.69,.17,.64,.08,.52,.18-.2,.09,.16,.26,.01,0-.02-.04,.1,0l.33,.2c.85,.15,1.97,.71,2.85,.91-.27-.02-.59,0-1.15-.14l-.08-.07c-.08,0-.53-.14-.54-.07,.49,.23,.93,.37,1.48,.52l.27,.17s0-.02,0-.03c.16,.11,.13,.11,.06,.11,0,0-.02,0-.04,0,.23,.31,2,.7,2.84,1.25,.27,.1,.04-.02,.38,.11,.86,.53,1.43,.92,2.29,1.51,.33,.1,.37,.09,.08-.21l.64,.46c-.71-.21,1.06,1.02,.28,.77,.15,.17,.5,.46,.85,.7,.07-.02,.19-.06,.59,.3,.5,.57,.39,.42,.77,.92,.05,.16-.14,.02-.16,.08,.73,.62,.44,.72,1.04,1.39,.38,.42,1.08,1.32,1.21,1.27,.47,.64,.38,.7,.25,.7Z"/></g><g><path class="d" d="M102.65,231.74c21.89,.67,42.95,.48,63.92-.37-1.23-3.26-3.92-6.33-5.6-9.39-7.61-13.83-14.18-28.29-22.83-41.49-2.58-3.93-3.37-6.33-3.37-6.33,0,0-6.71,11.66-8.49,14.92-3.66,6.68-7.43,13.31-11.3,19.88-4.32,7.33-7.76,15.59-12.33,22.77Z"/><path class="d" d="M146.58,233.35h.81c-2.63,.06-5.39,.06-8.11,.03,5.93,.41,12.94,.66,17.49-.48,.26,.26,1.82,.41,3.34,.46,.76,.03,1.5,.04,2.07,.03,.45,0,1.25-.06,1.26-.1,.95-.11,1.9-.21,2.84-.32l1.38-.15,.68-.07,.34-.03s.15,.01,.14-.04l-.08-.19,.06,.13s.06,.1,0,.09l-.24,.02-.47,.04-.95,.09-1.93,.19,1.93-.19,.95-.09,.47-.04,.24-.02c.06,.01,.02-.05,0-.09l-.06-.13-1.02-2.28c-.32-.72-.77-1.55-1.16-2.17l-.29-.47-.21-.32-.43-.64-.87-1.25c-.58-.83-1.16-1.65-1.69-2.48-.54-.83-1-1.66-1.5-2.59-1.96-3.63-3.84-7.45-5.74-11.34-1.06-2.16-3.06-6.16-5.1-10.16-2.04-4.01-4.18-8-5.36-10.19l-1.04-1.9,1.13,2.13c-1.62-2.56-3.18-4.84-4.67-7.04,.19,.43,.17,.54,.66,1.54l-.67-1.18c-.43-.46-1.02-1.29-1.61-2.14-.58-.83-1.13-1.68-1.49-2.22,.12,.09,.06-.09-.09-.39-.21-.42-.5-1-.78-1.55l.21,.57c-.28-.55-.56-1.11-.83-1.77-.67-.32-1.07-.61-1.35-.9-.02-.01-.03-.05-.05-.04l-.09,.04-.18,.09-.37,.17-.73,.35c-1.14,2.02-2.25,4-3.22,5.72-.22,.38-.42,.64-.55,.8l-1.41,2.66c-.02-.28-1.35,2.1-.73,.81-.95,2.04-2.18,3.98-3.07,5.93-3.76,6.67-7.67,13.78-11.37,20.83l.15-.14c-1.26,2.49-2.1,4.8-3.72,7.77-.9,2.24-2.37,5.33-2.54,6.33-1.28,2.47-1.67,3.53-3.02,5.92,.51-.52-1.25,2.36-.43,1.29,1.16-1.44,1.04-1.62,1.99-2.87h-.07c3.84-6.14,6.87-12.68,10.5-18.83,2.27-4.25,4.97-8.79,7.43-13.19,2.63-4.75,5.44-9.9,7.62-13.99,.51-.98,1.02-1.61,1.55-2.4,.58-1.04,1.21-2.18,1.87-3.36l.15-.28,.08-.14,.04-.07s.03-.05,.03,0c.07,.19,.16,.38,.25,.56l.2,.38,.61,1.06c.47,.8,.99,1.57,1.47,2.3l-.12-.2c1.4,2.12,2.28,3.82,3.57,5.93,.03-.03,.23,.3,.35,.44,.03,.24,1.98,3.33,3.88,6.53,1.91,3.2,3.78,6.49,3.94,6.91,.13,.23,.26,.46,.4,.7,2.36,4.71,4.48,9.76,6.63,13.77,.55,.83,1.14,1.77,1.63,2.45,.3,.75,.53,.8,.96,1.67,.8,2.36,1.65,3.55,1.17,2.36,1.02,1.81,2.21,3.55,3.19,5,.47,.65,.97,1.36,1.38,1.96,.26,.37,.26,.51,.21,.64,.32,.65,.53,.65-.55,.6-.22-.07-.63,0-1.37,.11-1.2,.11-2.42,.24-2.69,.23l.31-.03c-2.21,.05-3.68-.2-5.84-.15-5.99,.06-12.53,.28-18.08,.27-.05,.16,1.22-.05,1.29,.16-3.27,0-6.57-.18-9.88-.21-.6-.04-1.32-.12-1.59-.17-1.05-.06-.62,.07-1.4,.05l-.1-.14c-1.13,.11-1.65-.16-2.71-.12-.06,.06-.44,.06-.82,.05-.02-.15-1.16,0-1.11-.14h-.01c-.23,0-.39,.01-.67-.01-.44,.04-4.46,.41-4.93,.45l-.2-.03c-.61,0-.87,.1-.51,.13l-.75-.02h.09l-.74-.03c-.14-.02-.29-.09-.08-.15-.42,.04-.9,.06-1.32,.03,1.17,.11,2.62,.27,3.85,.44-.5,.04-1.41-.05-1.96-.05-.65-.11-1.99-.22-3.03-.31-.23,0-.39,.17-.91,.08-.25-.12-.59,0-1.02-.1,.5-.05,.98-.01,1.49,0-.08-.14-1.22-.12-1.62-.17-.19,.04-1.16-.03-1.77-.01,.27-.12-.49-.1-.85-.18-.41-.03-.68,.02-.51,.07-.14,.14,1.64,.13,1.06,.26-.15-.07-.96-.07-1.39-.08,0,.08,.29,.07,.01,.13-.48-.03-1,.05-1.27-.04,.09-.02,.29,0,.43,0-.63-.03,3.42-.41,2.61-.39,.21,.07-3.59,.36-3.17,.37,.38,.05-.28,.13,.12,.17l.44-.08c.54,.04,.76,.19,.57,.23-.91-.04,2.59-.45,1.82-.4l.31,.05c-.33,.04-1.21,.06-1.55-.03,0,.08-.45,.09-.82,.11l-.13-.02c-.38,.03-.91,0-.67,.1,2.23,.05-1.49,.73,.67,.84-.9-.19,.31-.16,1.26-.16,.09,.06,.51,.16,1.19,.22,.59,0,.35-.05,.46-.09,.33,.05,.95,.09,.87,.18,.46-.09,.74,.08,1.29,.06,.49-.04-.03-.05,.32-.09l2.34,.1c.22,.09,.91,.25,.4,.37-1.11-.04,.43-.2-.73-.2,.49,.2-1.02,.03-1.24,.17,.37,.09,1.11,.11,1.74,.1l-.12-.03c.55-.01,1.65-.03,2.24,.08-.14,.06,.12,.12-.29,.13l.76,.03c.1-.02,.2-.04-.02-.06,.36-.04,.72,0,.99,.03,.08,.07,4.03-.24,3.91-.2,.55,0,.68,.11,1.21,.04,.01-.01-.3,0-.78,0-.47,.02-1.1,.04-1.72,.06-1.22,.05-2.36,.1-2,.09,.47,.09,6.19-.27,6.53-.14,.4,0,.89-.01,.8-.08,.68,.04-.21,.14,.28,.21,.01-.01-.04-.04,.12-.03l.47,.09c1.06-.11,2.62,.05,3.73-.1-.32,.08-.69,.21-1.4,.28l-.12-.04c-.1,.02-.69,.04-.67,.11,.68,.05,1.26,.04,1.98-.03l.39,.06s-.01-.02-.01-.03c.23,.04,.21,.05,.12,.08-.01,0-.02,.01-.05,.02,.43,.21,2.67-.13,3.91-.03,.37-.03,.03-.04,.49-.08,1.27,.08,2.14,.14,3.47,.18,.42-.09,.46-.13-.06-.22l1,.02c-.91,.25,1.87,.21,.87,.46,.29,.05,.89,.06,1.45,.01,.06-.06,.14-.16,.85-.17,.98,.07,.74,.05,1.56,.11,.19,.08-.1,.11-.07,.17,1.25-.12,1.1,.16,2.28,.12,.74-.04,2.21-.07,2.24-.21,1-.01,1,.09,.9,.2Z"/></g><path class="d" d="M91.21,97.03h.69c-2.24,.02-4.59-.02-6.91-.06,5.05,.38,11.01,.71,14.91-.09,.42,.42,5.32,.62,5.42,.52,1.02-.08,2.05-.14,3.09-.19l-2.14,.1,2.14-.1c6.58-.33,13.73-.18,21.13-.02,4.1,.07,15.25,.19,19.45,.35l1.83,.05q-1.02-.04-2.04-.09c2.57-.09,4.91-.17,7.14-.25-.4-.06-.47-.12-1.41-.21l1.15,.05c1.05-.17,3.46-.15,4.59-.21-.24,.09,.65,.11,1.44,.13l-.31-.06c2.99,.06,6.46,0,9.14,.03,.37,0,.65,.04,.82,.07l2.56-.06c-.2,.12,2.13,.12,.9,.19,1.92-.13,3.87-.03,5.7-.17,6.54,.02,13.49-.03,20.25-.19l-.17-.05c2.37-.07,4.45-.3,7.33-.2,2.06-.15,4.98-.22,5.8-.47,2.37-.02,3.32-.14,5.64-.2-.6-.13,2.26-.14,1.12-.25-1.54-.19-1.63-.04-2.93-.19l.04,.04c-6.11-.23-12.22-.38-18.41-.48-4.13,.08-8.61-.03-12.91-.03-4.62,.02-9.63,.07-13.59,.15-.95,.03-1.63-.08-2.44-.15-3.66,0-8.28,0-12.4,0h.2c-2.19,.01-3.82-.13-5.96-.12,.01,.04-.32,.04-.48,.05-.37-.17-12.57,.26-13.32,.18l-.69,.02c-4.51-.08-9.16-.41-13.03-.38-.84,.08-1.78,.15-2.49,.24-.68-.07-.82,.07-1.64,.05-2.09-.34-3.32-.2-2.24-.08-1.72,.05-3.45,.02-4.98,.03-.71,.03-1.41,.05-2.13,.08-.61,.03-.95-.02-1.25-.1-1.55,.05-1.1-.04-2.73-.07-.39-.12-4.09,.19-4.55,.15l.27-.02c-1.88-.02-3.14-.25-4.98-.26-5.12-.09-10.71,0-15.45-.04-.05,.12,1.05-.03,1.1,.14-2.8-.02-5.62-.18-8.44-.2-.51-.03-1.13-.1-1.36-.14-.9-.05-.53,.06-1.19,.04l-.09-.11c-.97,.09-1.41-.12-2.32-.08-.05,.05-.38,.05-.7,.05-.02-.12-.99,0-.95-.1h0c-.19,0-.33,.01-.57,0-.38,.04-3.81,.38-4.21,.42l-.17-.02c-.52,0-.74,.09-.44,.11h-.57l-.64-.02c-.12-.01-.25-.07-.07-.12-.36,.04-.76,.06-1.12,.04,1,.07,2.25,.18,3.29,.3-.43,.04-1.21-.02-1.67,0-.56-.08-1.7-.15-2.59-.2-.2,0-.33,.14-.78,.08-.22-.09-.5,0-.87-.06,.42-.05,.84-.03,1.27-.02-.07-.11-1.05-.07-1.39-.1-.16,.03-.99,0-1.51,.03,.23-.1-.42-.07-.73-.12-.35-.01-.58,.03-.43,.07-.11,.11,1.4,.07,.91,.19-.13-.05-.82-.04-1.19-.03,0,.06,.25,.05,.01,.11-.41-.01-.85,.06-1.09,0,.08-.02,.25,0,.37,0-.54,0,2.91-.4,2.22-.37,.18,.05-3.06,.37-2.7,.37,.33,.03-.23,.11,.1,.13l.38-.07c.46,.02,.65,.13,.49,.17-.78,0,2.2-.42,1.54-.36l.27,.03c-.28,.04-1.03,.07-1.32,0,0,.06-.38,.08-.7,.1h-.11c-.32,.02-.78,0-.57,.09,1.9,0-1.25,.62,.59,.66-.77-.13,.26-.14,1.07-.15,.08,.05,.44,.11,1.02,.15,.51-.01,.3-.05,.39-.08,.28,.03,.82,.06,.75,.13,.39-.08,.63,.05,1.1,.02,.42-.04-.03-.04,.27-.08,.62,.01,1.5,.03,2,.04,.19,.07,.78,.18,.35,.29-.95-.01,.36-.17-.63-.15,.42,.15-.87,.04-1.05,.16,.31,.07,.95,.07,1.48,.05l-.11-.02c.47-.02,1.41-.05,1.92,.03-.12,.05,.1,.09-.24,.11h.65c.08,0,.17-.02-.02-.04,.3-.04,.61-.02,.84,.01,.07,.06,3.44-.24,3.33-.2,.47,0,.58,.08,1.03,.03,.01-.01-.26,0-.67,.01-.4,.02-.94,.04-1.46,.07-1.04,.05-2.01,.11-1.7,.1,.4,.06,5.28-.28,5.57-.17,.34,0,.76-.02,.68-.07,.58,.03-.17,.11,.24,.16,0,0-.03-.03,.1-.03l.4,.07c.91-.09,2.23,.03,3.18-.09-.27,.06-.59,.17-1.2,.23l-.11-.03c-.09,.02-.59,.04-.57,.09,.58,.04,1.08,.03,1.69-.03l.33,.05s-.01-.01,0-.02c.2,.04,.18,.04,.11,.06,0,0-.02,0-.04,.01,.36,.17,2.28-.11,3.33-.02,.31-.02,.03-.03,.42-.06,1.08,.07,1.83,.12,2.96,.16,.36-.07,.39-.1-.05-.18l.85,.02c-.78,.19,1.59,.18,.74,.38,.25,.04,.76,.05,1.24,.02,.05-.05,.12-.13,.72-.13,.84,.06,.62,.05,1.33,.1,.16,.06-.09,.09-.06,.14,1.07-.08,.93,.14,1.94,.13,.63-.02,1.88-.03,1.91-.14,.85,0,.85,.09,.77,.18Z"/><path class="d" d="M86.3,121.48l-.14,.15c.39-.52,.86-1.01,1.34-1.49-1.42,.73-2.95,1.76-2.51,3.5-.67-.35-1.8,.58-1.67,.72-.07,.32-.16,.62-.26,.92,.08-.2,.15-.4,.22-.61-.07,.21-.14,.41-.22,.61-.66,1.88-2.06,3.41-3.5,5.03l-.34,.41-.23,.29-.38,.51c-.26,.36-.54,.75-.83,1.15-.15,.2-.3,.41-.45,.62l-.23,.32-.11,.16c-.02,.05,.05,.11,.07,.16,.53,.85,1.06,1.7,1.53,2.47l.17,.29,.09,.17,.15,.29,.24,.49,.24,.47-.22-.56c.58,.5,1.12,.94,1.6,1.4,.02-.15,.1-.23,.07-.53l.13,.31c.43,.08,.81,.65,1.1,.85-.17,.03-.06,.26,.05,.46l.04-.13c.43,.74,1.11,1.49,1.52,2.13,.06,.09,.06,.19,.04,.26l.52,.54c-.21,.08,.19,.61-.12,.4,.52,.31,.71,.86,1.23,1.14,1.09,1.53,2.36,3.08,3.75,4.46l.04-.09c.5,.48,1.19,.72,1.54,1.48,.57,.32,1.17,.92,1.66,.84,.43,.52,.77,.61,1.24,1.09,.08-.27,.59,.37,.54,0,0-.55-.23-.41-.23-.86l-.05,.05c-.72-1.63-1.55-3.17-2.46-4.68-.82-.86-1.42-2-2.16-2.97-.81-1.04-1.74-2.13-2.54-2.95-.21-.19-.16-.45-.21-.7-.67-.8-1.36-1.93-2.13-2.83l.03,.05c-.38-.49-.46-1-.83-1.48-.05,.04-.11-.04-.16-.06,.05-.06-.09-.26-.32-.52l-.4-.43-.23-.24c-.08-.07-.18-.19-.21-.19-.18-.12-.4-.27-.56-.4-.08-.07-.15-.13-.19-.18-.02-.05,.04-.08,.06-.09,0-.03,0-.05,.01-.08,.13-.13,.28-.25,.42-.34,.07-.05,.14-.08,.22-.12,.08-.05,.23-.2,.34-.3,.48-.43,.93-.85,1.21-1.32,.02-.27,.07-.56,.06-.82,.22-.09,.03-.26,.2-.43,.83-.14,.82-.57,.47-.44,.22-.44,.54-.81,.78-1.18l.24-.57c.06-.17,.19-.19,.35-.18,.19-.41,.23-.21,.55-.55,.23,.03,.42-1.13,.55-1.19l-.02,.08c.35-.41,.89-.45,1.21-.85,1-1.06,1.85-2.4,2.74-3.39-.16-.15-.15,.26-.38,.09,.52-.6,1.24-1.04,1.77-1.63,.14-.07,.33-.14,.43-.14,.23-.14,.02-.18,.16-.31l.17,.11c.05-.31,.42-.17,.52-.41-.05-.06,0-.14,.06-.21,.16,.13,.17-.22,.31-.09h-.01c.04-.05,.05-.09,.12-.12,.01-.13,.21-1.24,.21-1.38h.06c.09-.13,.01-.28-.07-.24l.13-.13v.03l.12-.13s.13,.02,.17,.12c.01-.12,.06-.24,.15-.29-.28,.13-.65,.28-1,.36,.03-.14,.25-.23,.32-.35,.21-.03,.51-.2,.74-.33,.03-.05-.12-.23,.04-.26,.16,.06,.09-.11,.25-.11-.01,.15-.12,.21-.21,.3,.16,.11,.29-.14,.4-.17-.02-.07,.19-.21,.24-.35,.09,.17,.17-.01,.3-.01,.08-.06,.07-.16,0-.17-.13-.16-.35,.22-.41-.02,.1,.04,.2-.13,.26-.22-.08-.07-.11,0-.14-.12,.1-.07,.08-.25,.21-.23,0,.04-.04,.06-.06,.08,.11-.11-.02,1.08,.07,.9-.11-.02,.09-1.07,.02-1-.1,.03-.1-.18-.19-.13l.03,.17c-.12,.07-.29-.01-.32-.1,.16-.15,.14,.96,.18,.74l-.09,.02c0-.11,.09-.31,.23-.29-.08-.07-.04-.18,0-.27h.03c.02-.12,.12-.2-.02-.25-.34,.42-.58-.99-.97-.64,.32,0,.13,.22,0,.41-.07-.04-.23-.04-.39,.05-.08,.12,0,.12,.04,.18-.09,.02-.23,.11-.31,.01,.04,.18-.19,.07-.24,.21-.03,.13,.05,.04,.05,.15-.13,.12-.31,.3-.42,.39-.12-.03-.39-.04-.45-.25,.2-.19,.15,.27,.31,.03-.28-.08,.11-.24,0-.41-.15-.01-.27,.13-.34,.26h.05c-.06,.12-.2,.36-.4,.38-.05-.09-.14-.08-.1-.17l-.13,.13s.01,.08,.07,.05c0,.11-.09,.15-.18,.17-.09-.05-.32,1.02-.35,.96-.08,.1-.22,.03-.23,.2,.05,.06,.57-1.19,.48-1.04-.16,.02-.6,1.47-.8,1.41-.06,.08-.12,.19-.03,.23-.14,.1-.11-.16-.26-.13,.01,.01,.04,.02,.02,.05h-.17c-.05,.31-.45,.47-.46,.81-.03-.13-.12-.32-.09-.52h.06s.06-.16-.02-.22c-.16,.09-.24,.21-.27,.4-.04,0-.09,.02-.12,.02l.03,.02c-.08,0-.09,0-.11-.05v-.02c-.3-.11-.28,.62-.59,.76-.02,.1,.03,.04,0,.16-.29,.17-.49,.28-.75,.49,.03,.16,.07,.2,.25,.18l-.19,.17c-.12-.39-.54,.16-.65-.25-.11,0-.21,.11-.25,.25,.06,.06,.15,.17,.04,.3-.24,.12-.17,.1-.38,.19-.12-.03-.1-.12-.18-.16-.08,.33-.35,.06-.52,.31-.09,.16-.3,.46-.15,.58-.16,.19-.27,.1-.38-.01Z"/><path class="d" d="M157.51,124.08l.12,.17c-.46-.51-.89-1.1-1.3-1.68,.53,1.6,1.3,3.36,3.14,3.34-.47,.59,.26,1.95,.42,1.85,.31,.15,.6,.31,.88,.49-.19-.13-.37-.26-.57-.37,.2,.12,.39,.24,.57,.37,.88,.57,1.64,1.31,2.33,2.14,.35,.42,.68,.86,1.01,1.31l.48,.69c.14,.21,.39,.54,.33,.54,.01,.07,.05,.15,.04,.24,0,.09-.09,.19-.18,.23l-.06,.03s-.01-.02-.13,.13c-.18,.22-.36,.43-.52,.63-.34,.39-.64,.73-.87,.96l-.38,.41,.47-.43c-.29,.75-.54,1.44-.84,2.07,.16-.04,.25,0,.54-.14l-.26,.24c.06,.44-.38,1.03-.48,1.38-.09-.16-.27,.05-.44,.23h.14c-.59,.68-1.12,1.61-1.62,2.26-.07,.09-.17,.12-.24,.13l-.37,.7c-.14-.18-.54,.4-.43,.02-.15,.62-.63,1-.76,1.6-1.19,1.61-2.37,3.38-3.38,5.22h.09c-.34,.66-.41,1.43-1.08,2.03-.17,.67-.63,1.46-.44,1.94-.42,.6-.43,.97-.8,1.59,.29,0-.24,.71,.12,.55,.54-.16,.36-.36,.81-.5l-.07-.04c1.47-1.23,2.81-2.58,4.09-4.01,.65-1.12,1.63-2.11,2.4-3.19,.81-1.18,1.64-2.5,2.22-3.59,.12-.27,.4-.33,.63-.47,.59-.96,1.51-2.07,2.15-3.18l-.04,.05c.37-.57,.85-.84,1.2-1.4-.05-.03,0-.12,0-.18,.15,.04,.59-.84,1.02-1.74,.11-.23,.21-.45,.31-.67l.15-.31,.22-.41c.29-.51,.44-.87,.52-.94l.08-.29c.21-.45,.33-.97,.28-1.49-.04-.52-.21-1.01-.47-1.48-.69-1.09-.92-1.5-1.34-1.96-.27-.1-.56-.24-.82-.3-.04-.24-.25-.11-.4-.32,.02-.87-.41-.99-.35-.61-.41-.34-.72-.78-1.04-1.12l-.54-.4c-.16-.11-.16-.24-.12-.41-.38-.3-.18-.29-.46-.71,.08-.23-1.08-.73-1.12-.87l.08,.04c-.35-.46-.31-1.01-.67-1.45-.92-1.28-2.17-2.47-3.08-3.61-.17,.13,.25,.21,.04,.41-.54-.67-.91-1.5-1.45-2.18-.06-.16-.1-.37-.1-.47-.12-.26-.19-.05-.3-.23l.13-.15c-.32-.12-.12-.47-.37-.63-.07,.04-.14-.03-.2-.11,.15-.14-.21-.22-.06-.33h-.01s-.08-.06-.1-.14c-.13-.04-1.26-.46-1.4-.49v-.06c-.12-.12-.28-.06-.25,.03l-.12-.16h.03l-.12-.15s.04-.13,.14-.15c-.13-.04-.24-.1-.28-.21,.11,.32,.22,.72,.28,1.1-.14-.05-.22-.3-.33-.4,0-.22-.15-.56-.26-.83-.05-.04-.25,.08-.26-.09,.08-.16-.11-.11-.09-.27,.15,.04,.21,.16,.29,.27,.13-.14-.12-.33-.14-.44-.08,0-.2-.23-.34-.32,.18-.07,0-.17,.01-.31-.05-.1-.16-.1-.17-.02-.17,.1,.19,.4-.06,.43,.05-.09-.12-.23-.2-.31-.08,.07-.01,.11-.14,.13-.07-.11-.25-.13-.22-.25,.04,0,.06,.05,.08,.08-.1-.13,1.12,.21,.93,.09-.04,.1-1.1-.28-1.03-.2,.03,.11-.19,.07-.15,.18h.17c.06,.13-.04,.3-.13,.31-.14-.19,1,.02,.78-.06l.02,.1c-.11-.02-.31-.15-.28-.29-.08,.07-.19,0-.28-.04v-.04c-.12-.04-.19-.16-.25-.02,.4,.43-1.07,.43-.74,.89,.02-.33,.23-.1,.42,.07-.04,.07-.06,.23,.01,.41,.12,.1,.13,.01,.19,0,.02,.1,.09,.25-.02,.32,.19,0,.06,.21,.19,.28,.14,.05,.04-.05,.16-.03,.11,.15,.28,.37,.36,.5-.05,.12-.08,.39-.31,.41-.17-.24,.29-.11,.07-.31-.11,.27-.23-.15-.42-.06-.03,.15,.1,.3,.23,.4v-.05c.13,.09,.36,.27,.35,.48-.09,.03-.1,.13-.19,.07l.12,.16s.08,0,.06-.06c.12,.02,.15,.12,.15,.21-.06,.08,1.01,.52,.94,.54,.1,.11,0,.23,.18,.27,.07-.04-1.16-.8-1.01-.68,0,.16,1.44,.89,1.36,1.08,.08,.07,.18,.16,.23,.07,.08,.17-.18,.09-.17,.24,.01,0,.03-.04,.05,0v.18c.29,.11,.4,.55,.75,.63-.14,0-.34,.06-.54-.01l.02-.06s-.17-.09-.24-.02c.07,.18,.18,.28,.38,.36,0,.04,0,.09,0,.13l.03-.03c0,.09-.02,.09-.06,.1,0,0-.02,0-.03,0-.15,.28,.6,.4,.7,.75,.09,.04,.04-.03,.16,.03,.13,.33,.22,.56,.39,.86,.17,0,.21-.03,.22-.21l.14,.22c-.41,.04,.08,.58-.34,.6,0,.11,.08,.24,.22,.31,.07-.04,.19-.12,.31,.02,.09,.27,.08,.19,.13,.43-.05,.11-.13,.08-.19,.15,.32,.15,0,.37,.23,.59,.15,.12,.41,.4,.57,.28,.17,.2,.06,.3-.08,.38Z"/><g><path class="b" d="M136.15,113.15l-25.64,40.72"/><path class="b" d="M129,121.43l-.12,.16c.33-.55,.75-1.1,1.16-1.63-1.25,.93-2.59,2.12-2.18,3.71-.6-.24-1.61,.8-1.49,.91-.06,.31-.14,.61-.23,.91,.07-.2,.14-.4,.2-.61-.06,.2-.12,.41-.2,.61-.59,1.87-1.88,3.5-3.22,5.18-.73,.94-2.57,3.59-3.37,4.51-.11,.14-.22,.27-.33,.41q.21-.22,.41-.44c-.25,.72-.47,1.37-.72,1.98,.14-.05,.22-.02,.48-.18l-.23,.25c.06,.4-.32,.98-.4,1.32-.08-.13-.24,.07-.38,.25l.13-.03c-.51,.7-.95,1.61-1.37,2.25-.06,.09-.14,.13-.21,.15l-.3,.68c-.13-.15-.47,.43-.38,.07-.11,.59-.52,.99-.61,1.56-.98,1.61-1.93,3.39-2.71,5.2h.08c-.26,.64-.27,1.34-.82,1.98-.11,.63-.45,1.42-.24,1.82-.32,.61-.3,.94-.57,1.56,.25-.04-.15,.67,.15,.47,.46-.23,.28-.38,.67-.58l-.06-.02c1.18-1.34,2.26-2.74,3.29-4.21,.5-1.1,1.3-2.12,1.92-3.19,.65-1.17,1.32-2.45,1.79-3.51,.1-.26,.34-.34,.54-.49,.49-.94,1.26-2.04,1.8-3.1-.01,.02-.03,.04-.04,.05,.31-.55,.73-.85,1.03-1.38-.05-.03,0-.11,0-.16,.27,.04,1.49-3.35,1.72-3.46,.02-.06,.05-.12,.08-.18,.79-1.04,1.92-1.91,2.48-2.88,.03-.27,.08-.56,.08-.8,.2-.11,.04-.25,.19-.44,.75-.24,.76-.65,.44-.48,.21-.46,.51-.85,.73-1.24,.08-.19,.15-.39,.23-.58,.06-.17,.17-.21,.32-.22,.18-.42,.21-.24,.51-.61,.21,0,.39-1.15,.51-1.23l-.02,.08c.32-.44,.8-.57,1.1-1.01,.9-1.18,1.65-2.62,2.43-3.74-.15-.11-.13,.28-.34,.16,.46-.67,1.09-1.23,1.55-1.9,.12-.1,.3-.2,.38-.22,.2-.18,0-.18,.13-.33l.16,.07c.03-.31,.38-.25,.46-.5-.05-.05,0-.13,.05-.21,.15,.09,.14-.25,.27-.15h0c.03-.06,.04-.1,.11-.14,0-.12,.12-1.23,.12-1.36l.05-.03c.08-.13,0-.25-.08-.2l.11-.15v.02l.11-.15s.12,0,.16,.08c0-.12,.04-.24,.12-.31-.25,.19-.57,.41-.88,.57,.01-.14,.21-.28,.27-.4,.19-.07,.45-.3,.65-.47,.02-.05-.13-.19,.02-.25,.15,.02,.07-.13,.21-.16,0,.14-.1,.23-.17,.33,.15,.07,.25-.2,.35-.26-.02-.07,.15-.24,.2-.39,.1,.14,.15-.05,.27-.08,.07-.08,.05-.16-.02-.16-.13-.12-.3,.29-.38,.07,.09,.01,.17-.17,.22-.27-.08-.05-.1,.02-.14-.08,.08-.09,.05-.26,.17-.26,0,.03-.03,.07-.05,.09,.09-.13,.06,1.03,.12,.83-.1,0,0-1.04-.05-.96-.09,.06-.11-.15-.18-.08l.04,.15c-.1,.09-.27,.05-.3-.02,.13-.18,.2,.88,.22,.66l-.08,.04c0-.1,.06-.31,.19-.33-.08-.05-.05-.16-.03-.25l.03-.02c.01-.1,.1-.2-.04-.22-.28,.47-.59-.8-.92-.38,.29-.08,.14,.17,.03,.38-.07-.02-.21,.02-.35,.13-.06,.13,.02,.11,.05,.16-.08,.04-.2,.15-.28,.08,.05,.16-.17,.11-.2,.25-.01,.13,.05,.02,.06,.13-.11,.15-.26,.35-.35,.46-.11,0-.35,.04-.42-.14,.16-.22,.16,.22,.28-.04-.26-.02,.08-.25-.04-.38-.14,.02-.23,.18-.29,.32h.04c-.05,.12-.15,.38-.33,.43-.05-.07-.13-.05-.1-.14l-.11,.15s.02,.07,.06,.03c0,.11-.07,.16-.15,.2-.08-.03-.23,1.03-.26,.98-.07,.12-.19,.07-.19,.23,.05,.05,.44-1.24,.37-1.08-.14,.05-.45,1.51-.63,1.5-.05,.09-.1,.2-.01,.22-.12,.12-.11-.13-.24-.07,0,0,.04,.01,.02,.05l-.15,.04c-.03,.29-.38,.52-.37,.85-.04-.12-.13-.28-.1-.47h.05s.04-.18-.03-.22c-.14,.11-.2,.24-.22,.43-.04,.02-.08,.03-.11,.04,0,0,.02,0,.03,.02-.08,.02-.08,.01-.1-.03,0,0,0-.01-.01-.02-.27-.05-.22,.64-.49,.83-.02,.1,.03,.03,.01,.15-.25,.21-.43,.35-.65,.6,.04,.15,.07,.18,.23,.13l-.16,.19c-.12-.34-.48,.24-.59-.12-.09,.03-.18,.14-.22,.29,.05,.05,.14,.13,.05,.28-.21,.15-.15,.12-.34,.24-.1-.01-.1-.09-.17-.13-.06,.33-.32,.12-.46,.37-.07,.17-.26,.48-.12,.58-.14,.2-.24,.14-.34,.05Z"/></g><path class="d" d="M200.71,85.51h-.16c.53-.02,1.08,.02,1.62,.06-1.18-.37-2.58-.71-3.5,.09-.1-.42-1.25-.62-1.27-.52-.24,.08-.48,.14-.72,.19,.17-.03,.34-.06,.5-.1-.17,.04-.33,.07-.5,.1-1.54,.33-3.22,.19-4.96,.02-.96-.08-3.58-.17-4.56-.29-.14-.02-.29-.03-.43-.04q.24,.04,.48,.08c-.6,.11-1.15,.22-1.67,.3,.09,.06,.11,.12,.33,.2l-.27-.04c-.25,.18-.81,.17-1.08,.24,.06-.09-.15-.11-.34-.12l.07,.06c-.7-.04-1.52,.04-2.14,.03-.09,0-.15-.03-.19-.07l-.6,.07c.05-.12-.5-.11-.21-.19-.45,.15-.91,.06-1.34,.21-1.53,.02-3.16,.11-4.75,.32l.04,.05c-.55,.08-1.04,.33-1.72,.25-.48,.17-1.17,.25-1.36,.51-.56,.04-.78,.17-1.32,.23,.14,.13-.53,.15-.26,.25,.36,.18,.38,.03,.69,.17v-.04c1.42,.19,2.86,.3,4.31,.36,.97-.11,2.02-.02,3.03-.05,1.08-.05,2.26-.13,3.19-.24,.22-.04,.38,.07,.57,.13,.86-.06,1.94-.01,2.91-.09-.02,0-.04,0-.05,0,.51-.02,.9,.11,1.4,.09,0-.04,.08-.04,.11-.06,.09,.17,2.95-.35,3.12-.26,.05,0,.11-.02,.16-.02,1.06,.08,2.15,.4,3.06,.37,.2-.08,.42-.15,.58-.24,.16,.07,.19-.07,.38-.05,.49,.34,.78,.2,.52,.08,.4-.05,.81-.02,1.17-.03,.17-.02,.33-.05,.5-.08,.14-.03,.22,.02,.29,.1,.36-.05,.26,.04,.64,.07,.09,.12,.96-.19,1.07-.15l-.06,.02c.44,.02,.74,.25,1.17,.26,1.2,.09,2.51,0,3.62,.04,.01-.12-.25,.03-.26-.14,.66,.02,1.32,.18,1.98,.2,.12,.03,.27,.1,.32,.14,.21,.05,.12-.06,.28-.04l.02,.11c.23-.09,.33,.12,.54,.08,.01-.05,.09-.05,.16-.05,0,.12,.23,0,.22,.1h0s.08-.01,.13,0c.09-.04,.9-.37,.99-.42l.04,.02c.12,0,.17-.09,.1-.11h.13l.15,.02s.06,.07,.02,.12c.08-.04,.18-.06,.26-.04-.23-.07-.53-.18-.77-.3,.1-.04,.28,.02,.39,0,.13,.08,.4,.15,.61,.2,.05,0,.08-.14,.18-.08,.05,.09,.12,0,.2,.06-.1,.05-.2,.03-.3,.02,.02,.11,.25,.07,.33,.1,.04-.03,.23,0,.35-.03-.05,.1,.1,.07,.17,.12,.08,.01,.14-.03,.1-.07,.03-.11-.33-.07-.21-.19,.03,.05,.19,.04,.28,.03,0-.06-.06-.05,0-.11,.1,.01,.2-.06,.25,0-.02,.02-.06,0-.09,0,.13,0-.68,.4-.52,.37-.04-.05,.72-.37,.63-.37-.08-.03,.05-.11-.02-.13l-.09,.07c-.11-.02-.15-.13-.12-.17,.18,0-.52,.42-.36,.36l-.06-.03c.07-.04,.24-.08,.31-.01,0-.06,.09-.08,.16-.1h.03c.08-.02,.18,0,.13-.09-.45,.01,.29-.62-.14-.66,.18,.13-.06,.14-.25,.15-.02-.05-.1-.11-.24-.15-.12,.01-.07,.05-.09,.08-.07-.03-.19-.06-.17-.13-.09,.08-.15-.05-.26-.02-.1,.04,0,.04-.06,.08-.15,0-.35-.02-.47-.04-.05-.07-.18-.18-.08-.29,.22,.01-.08,.17,.15,.15-.1-.15,.2-.04,.25-.16-.07-.07-.22-.07-.35-.05l.03,.02c-.11,.02-.33,.05-.45-.03,.03-.05-.02-.09,.06-.11h-.15s-.04,.02,0,.04c-.07,.04-.14,.02-.2-.01-.02-.06-.81,.24-.78,.2-.11,0-.14-.08-.24-.03-.01,.05,1.04-.19,.9-.18-.09-.06-1.24,.28-1.31,.18-.08,0-.18,.02-.16,.07-.14-.03,.04-.11-.06-.16,0,0,0,.03-.02,.03l-.09-.07c-.21,.09-.52-.03-.75,.09,.06-.06,.14-.17,.28-.23l.03,.03s.14-.04,.13-.09c-.14-.04-.25-.03-.4,.03-.03-.02-.06-.03-.08-.05,0,0,0,.01,0,.02-.05-.04-.04-.04-.02-.06,0,0,0,0,0-.01-.09-.17-.53,.11-.78,.02-.07,.02,0,.03-.1,.06-.25-.07-.43-.12-.69-.16-.08,.07-.09,.1,.01,.18l-.2-.02c.18-.19-.37-.18-.17-.38-.06-.04-.18-.05-.29-.02-.01,.05-.03,.13-.17,.13-.2-.06-.15-.04-.31-.1-.04-.06,.02-.09,.01-.14-.25,.08-.22-.14-.46-.12-.15,.02-.44,.03-.45,.14-.2,0-.2-.09-.18-.18Z"/><path class="d" d="M95.71,174.25l-.13-.02c.42,0,.85,.05,1.28,.1-.93-.4-2.02-.75-2.77,.03-.07-.43-.97-.65-.99-.54-.19,.07-.38,.13-.58,.18,.13-.03,.27-.06,.4-.09-.13,.04-.27,.07-.4,.09-1.23,.3-2.55,.11-3.93-.09-.76-.1-2.83-.25-3.61-.39l-.34-.05,.38,.08c-.48,.1-.92,.2-1.34,.27,.07,.06,.08,.12,.26,.21l-.21-.05c-.2,.17-.65,.15-.86,.23,.05-.09-.12-.11-.27-.13l.06,.06c-.56-.05-1.2,.01-1.7,0-.07,0-.12-.04-.15-.07l-.48,.07c.04-.12-.4-.11-.17-.19-.36,.14-.72,.05-1.06,.2-1.22,.01-2.52,.11-3.78,.34l.03,.05c-.44,.09-.82,.34-1.36,.27-.38,.17-.92,.28-1.06,.54-.44,.05-.61,.18-1.04,.27,.12,.12-.41,.17-.2,.26,.29,.17,.3,.02,.55,.15v-.04c1.12,.15,2.25,.24,3.4,.28,.76-.11,1.59-.04,2.38-.07,.85-.05,1.78-.12,2.52-.22,.18-.03,.3,.07,.45,.13,.68-.05,1.54,.01,2.3-.05h-.04c.41-.02,.71,.12,1.1,.11,0-.04,.06-.04,.09-.06,.06,.17,2.34-.3,2.48-.19l.13-.02c.83,.1,1.69,.45,2.41,.44,.16-.08,.34-.14,.47-.23,.12,.08,.15-.06,.31-.04,.38,.35,.61,.22,.41,.09,.32-.04,.64,0,.93,0l.4-.07c.11-.03,.18,.03,.23,.11,.29-.04,.2,.04,.51,.08,.07,.12,.77-.17,.85-.13l-.05,.02c.35,.03,.58,.27,.92,.28,.95,.11,2,.05,2.88,.1,.01-.12-.2,.02-.2-.14,.52,.03,1.04,.19,1.57,.22,.09,.04,.21,.1,.25,.14,.17,.05,.1-.06,.22-.04l.02,.11c.18-.09,.26,.13,.43,.08,0-.05,.07-.05,.13-.05,0,.12,.19,0,.18,.1h0s.06-.01,.11,0c.07-.04,.72-.36,.79-.41l.03,.02c.1,0,.14-.09,.08-.11h.12v.02h.1s.05,.07,.01,.13c.07-.04,.14-.06,.21-.04-.19-.07-.42-.18-.61-.3,.08-.04,.23,.02,.31,0,.1,.08,.32,.15,.48,.2,.04,0,.06-.14,.14-.08,.04,.09,.09,0,.16,.06-.08,.05-.16,.03-.24,.02,.01,.11,.2,.07,.26,.1,.03-.03,.18,0,.28-.03-.04,.1,.08,.07,.14,.12,.07,.01,.11-.03,.08-.07,.02-.11-.26-.07-.17-.19,.02,.05,.15,.04,.22,.03,0-.06-.05-.05,0-.11,.08,.01,.16-.06,.2,0-.01,.02-.05,0-.07,0,.1,0-.54,.4-.41,.37-.03-.05,.57-.37,.5-.37-.06-.03,.04-.11-.02-.13l-.07,.07c-.09-.02-.12-.13-.09-.17,.15,0-.41,.42-.29,.36l-.05-.03c.05-.04,.19-.07,.25,0,0-.06,.07-.08,.13-.1h.02c.06-.02,.15,0,.11-.09-.36,0,.23-.62-.11-.66,.14,.14-.05,.14-.2,.15-.01-.05-.08-.11-.19-.15-.09,.01-.06,.05-.07,.08-.05-.03-.15-.06-.14-.13-.07,.08-.12-.05-.21-.03-.08,.04,0,.04-.05,.08-.12,0-.28-.02-.37-.04-.04-.07-.14-.18-.06-.29,.18,.01-.07,.17,.12,.15-.08-.15,.16-.04,.2-.16-.06-.07-.18-.07-.28-.05l.02,.02c-.09,.02-.26,.05-.36-.03,.02-.05-.02-.09,.05-.11h-.12s-.03,.02,0,.04c-.06,.04-.11,.02-.16-.01-.01-.06-.64,.23-.62,.2-.09,0-.11-.08-.19-.03,0,.05,.83-.18,.71-.17-.07-.06-.98,.27-1.04,.16-.06,0-.14,.01-.13,.07-.11-.03,.03-.11-.04-.16,0,0,0,.03-.02,.03l-.07-.07c-.17,.09-.41-.03-.59,.08,.05-.06,.11-.17,.23-.22l.02,.03s.11-.04,.11-.09c-.11-.04-.2-.03-.31,.03-.02-.02-.04-.03-.06-.05v.02s-.03-.04-.02-.06h0c-.07-.18-.42,.09-.62,0-.06,.02,0,.03-.08,.06-.2-.07-.34-.12-.55-.17-.07,.07-.07,.1,0,.18l-.16-.03c.15-.19-.29-.19-.13-.38-.05-.04-.14-.06-.23-.03,0,.05-.03,.13-.14,.12-.15-.07-.12-.04-.24-.11-.03-.06,.02-.09,.01-.14-.2,.08-.17-.14-.36-.13-.12,.02-.35,.02-.36,.13-.16,0-.16-.09-.14-.18Z"/><path class="d" d="M99.95,187.6h-.16c.51-.03,1.05,0,1.59,.03-1.17-.35-2.54-.65-3.41,.17-.11-.42-1.23-.6-1.25-.49-.23,.08-.47,.15-.7,.21,.16-.03,.33-.07,.49-.11-.16,.04-.32,.08-.49,.11-1.5,.36-3.14,.24-4.84,.1-.94-.07-3.49-.14-4.45-.25l-.42-.04,.47,.07c-.59,.12-1.12,.23-1.63,.3,.09,.06,.11,.12,.32,.2l-.26-.04c-.24,.18-.79,.17-1.05,.25,.06-.09-.15-.11-.33-.13l.07,.06c-.68-.04-1.48,.04-2.09,.02-.09,0-.15-.04-.19-.07l-.59,.07c.05-.12-.49-.11-.21-.19-.44,.14-.88,.05-1.3,.2-1.5,0-3.09,.07-4.64,.25l.04,.05c-.54,.07-1.03,.3-1.68,.21-.47,.16-1.15,.22-1.34,.47-.54,.02-.77,.14-1.3,.19,.13,.13-.52,.14-.26,.25,.35,.19,.37,.04,.67,.19v-.04c1.39,.24,2.79,.38,4.22,.47,.95-.09,1.98,.02,2.97,0,1.06-.03,2.21-.11,3.13-.21,.22-.04,.37,.07,.56,.13,.84-.06,1.91,0,2.85-.08h-.05c.5-.03,.88,.1,1.37,.08,0-.04,.07-.04,.11-.06,.09,.17,2.88-.37,3.06-.28l.16-.02c1.04,.06,2.11,.38,3,.34,.19-.08,.41-.16,.57-.25,.16,.07,.19-.07,.38-.05,.49,.33,.76,.18,.51,.07,.39-.05,.79-.03,1.14-.05,.16-.03,.32-.06,.49-.09,.14-.03,.22,.02,.29,.1,.36-.05,.25,.03,.63,.06,.09,.12,.93-.21,1.04-.17l-.06,.02c.43,.01,.73,.24,1.15,.24,1.18,.06,2.46-.05,3.55-.04,0-.12-.24,.03-.26-.13,.64,0,1.29,.15,1.94,.15,.12,.03,.26,.09,.32,.13,.21,.04,.12-.06,.27-.05l.02,.11c.22-.1,.33,.12,.53,.06,0-.05,.09-.05,.16-.05,0,.12,.23-.01,.22,.1h0s.08-.02,.13,0c.08-.04,.87-.39,.96-.44l.04,.02c.12,0,.17-.1,.1-.12h.28s.06,.08,.02,.13c.08-.04,.17-.07,.26-.05-.23-.07-.52-.16-.76-.28,.1-.04,.28,.02,.38,0,.13,.08,.39,.14,.6,.18,.04,0,.07-.14,.18-.09,.05,.09,.11,0,.2,.06-.1,.05-.19,.03-.29,.03,.02,.11,.24,.07,.32,.1,.04-.04,.23,0,.35-.04-.05,.11,.1,.06,.17,.12,.08,.01,.13-.03,.1-.07,.02-.11-.32-.06-.21-.18,.03,.05,.19,.03,.27,.02,0-.06-.06-.05,0-.11,.1,.01,.19-.07,.25,0-.02,.02-.06,0-.08,0,.12,0-.66,.42-.5,.38-.04-.05,.69-.38,.61-.39-.08-.03,.05-.11-.03-.13l-.08,.08c-.11-.02-.15-.13-.12-.17,.18,0-.49,.43-.34,.37l-.06-.03c.06-.04,.23-.08,.3-.02,0-.06,.09-.08,.16-.11h.03c.07-.02,.18-.01,.13-.09-.44,.02,.27-.63-.15-.65,.18,.13-.06,.14-.24,.16-.02-.05-.1-.11-.24-.14-.12,.01-.07,.05-.09,.09-.07-.03-.19-.05-.17-.12-.09,.09-.15-.05-.25-.02-.09,.04,0,.04-.06,.08-.14,0-.34-.01-.46-.03-.05-.07-.18-.18-.09-.29,.22,0-.08,.17,.15,.14-.1-.15,.2-.05,.24-.16-.07-.07-.22-.06-.34-.04l.02,.02c-.11,.02-.32,.06-.44-.02,.03-.05-.03-.09,.05-.11h-.15s-.04,.03,0,.04c-.07,.04-.14,.02-.19,0-.02-.06-.78,.26-.76,.22-.11,0-.13-.08-.24-.02,0,.05,1.02-.22,.87-.2-.09-.06-1.2,.31-1.27,.21-.08,0-.17,.02-.15,.08-.13-.02,.04-.11-.06-.16,0,0,0,.03-.02,.03l-.09-.07c-.21,.09-.51-.01-.73,.11,.06-.06,.13-.17,.27-.23l.03,.03s.13-.04,.13-.1c-.13-.03-.25-.02-.39,.04-.03-.01-.06-.03-.08-.04v.02s-.04-.04-.02-.06c0,0,0,0,0-.01-.09-.17-.52,.12-.76,.04-.07,.03,0,.03-.09,.06-.25-.06-.42-.11-.68-.14-.08,.07-.09,.1,.01,.18l-.2-.02c.17-.2-.37-.17-.18-.37-.06-.04-.18-.05-.28-.02,0,.05-.03,.13-.16,.13-.19-.06-.15-.04-.31-.1-.04-.06,.02-.09,.01-.14-.24,.09-.22-.13-.45-.11-.14,.02-.43,.04-.43,.15-.2,0-.2-.08-.18-.17Z"/><path class="d" d="M186.15,174.02h-.11c.36-.03,.75-.01,1.13,.02-.84-.34-1.82-.62-2.43,.19-.08-.42-.89-.59-.9-.49-.16,.08-.33,.15-.5,.2,.12-.03,.23-.07,.35-.11-.11,.04-.23,.08-.35,.11-1.07,.35-2.24,.22-3.45,.06-.67-.08-2.5-.17-3.18-.3l-.3-.04,.33,.08c-.42,.11-.8,.22-1.17,.29,.06,.06,.08,.12,.23,.21l-.19-.04c-.17,.17-.57,.16-.76,.23,.04-.09-.11-.11-.23-.13l.05,.06c-.49-.04-1.06,.02-1.5,0-.06,0-.11-.04-.13-.07l-.42,.07c.03-.12-.35-.11-.15-.19-.32,.14-.64,.05-.94,.2-1.08,0-2.22,.09-3.34,.28l.03,.05c-.39,.08-.74,.32-1.21,.24-.34,.16-.82,.25-.95,.51-.39,.03-.54,.16-.93,.23,.1,.13-.37,.15-.18,.25,.25,.18,.27,.03,.48,.17v-.04c.99,.19,2,.31,3.01,.37,.68-.1,1.41,0,2.12-.03,.76-.04,1.58-.11,2.24-.21,.16-.03,.27,.07,.4,.14,.6-.05,1.37,0,2.04-.06h-.03c.36-.02,.63,.11,.98,.09,0-.04,.05-.04,.08-.06,.06,.17,2.08-.34,2.2-.24l.11-.02c.74,.07,1.51,.41,2.15,.37,.14-.08,.29-.15,.41-.24,.11,.07,.13-.07,.27-.05,.35,.34,.55,.19,.37,.07,.28-.05,.57-.02,.82-.04l.35-.09c.1-.03,.16,.02,.21,.1,.26-.05,.18,.03,.45,.06,.07,.12,.67-.21,.75-.17l-.04,.02c.31,.01,.53,.23,.83,.23,.85,.06,1.78-.07,2.57-.08,0-.12-.17,.04-.19-.13,.46,0,.94,.12,1.41,.11,.09,.03,.19,.08,.24,.12,.15,.03,.08-.07,.2-.06l.02,.11c.15-.1,.24,.11,.39,.05,0-.05,.06-.06,.11-.06,.01,.12,.16-.02,.17,.09h0s.06-.02,.1,0c.06-.05,.61-.41,.67-.47l.03,.02c.09-.01,.11-.1,.06-.12h.2s.05,.06,.02,.12c.06-.05,.12-.08,.18-.06-.17-.06-.39-.14-.57-.25,.07-.05,.2,0,.28-.02,.1,.07,.29,.12,.45,.16,.03,0,.04-.14,.12-.09,.04,.09,.08-.01,.15,.05-.07,.06-.14,.04-.21,.04,.02,.11,.18,.06,.24,.08,.02-.04,.16-.01,.25-.05-.03,.11,.08,.06,.13,.11,.06,0,.09-.04,.07-.07,0-.11-.24-.05-.17-.17,.03,.05,.14,.02,.2,.01,0-.06-.05-.04-.01-.11,.07,0,.13-.07,.18-.01-.01,.02-.04,.01-.06,.01,.09,0-.44,.45-.33,.4-.03-.05,.47-.41,.41-.41-.06-.03,.03-.11-.03-.13l-.05,.08c-.08-.02-.12-.12-.1-.16,.13,0-.32,.45-.22,.38l-.05-.02s.16-.09,.22-.03c0-.06,.05-.09,.1-.11h.02c.05-.03,.13-.02,.08-.1-.31,.04,.14-.64-.17-.64,.14,.12-.03,.14-.16,.17-.02-.04-.08-.11-.18-.13-.08,.02-.04,.05-.06,.09-.05-.03-.14-.04-.13-.11-.06,.09-.11-.04-.18,0-.06,.05,0,.04-.04,.08-.1,0-.25,0-.33,0-.04-.06-.14-.17-.08-.28,.16,0-.04,.17,.12,.14-.08-.14,.14-.05,.16-.17-.06-.06-.16-.05-.25-.03l.02,.02c-.07,.03-.23,.07-.32,0,.01-.05-.02-.09,.03-.11h-.11s-.02,.04,0,.05c-.05,.05-.1,.03-.14,0-.02-.06-.54,.28-.53,.24-.08,0-.1-.08-.17-.01,0,.05,.71-.25,.61-.22-.07-.06-.84,.35-.9,.24-.06,0-.12,.03-.11,.08-.1-.02,.02-.11-.05-.16,0,0,0,.03-.01,.03l-.07-.07c-.14,.1-.37,0-.51,.13,.04-.06,.08-.18,.18-.24l.02,.03s.09-.04,.09-.1c-.1-.03-.18-.01-.27,.05-.02-.01-.04-.03-.06-.04v.02s-.03-.04-.02-.06h0c-.07-.18-.36,.11-.54,.04-.05,.03,0,.03-.06,.06-.18-.06-.31-.1-.49-.13-.05,.08-.06,.1,.02,.18l-.14-.02c.12-.2-.27-.17-.14-.37-.04-.04-.13-.05-.2,0,0,.05-.01,.13-.11,.13-.14-.06-.11-.04-.22-.09-.03-.06,.01-.09,0-.14-.17,.09-.16-.13-.32-.11-.1,.02-.31,.04-.31,.15-.14,0-.14-.08-.13-.17Z"/><path class="d" d="M194.43,187.27h-.16c.5-.03,1.03,0,1.55,.03-1.14-.35-2.48-.64-3.33,.18-.11-.42-1.21-.59-1.23-.49-.23,.08-.45,.15-.69,.21,.16-.03,.32-.07,.48-.12-.16,.04-.32,.08-.48,.12-1.46,.37-3.07,.27-4.73,.14-.92-.06-3.42-.09-4.36-.18-.14-.01-.27-.02-.41-.03q.23,.03,.46,.06c-.57,.13-1.09,.25-1.59,.34,.09,.06,.11,.12,.32,.2l-.26-.03c-.23,.18-.77,.19-1.02,.27,.05-.09-.15-.11-.33-.12l.07,.06c-.67-.02-1.45,.07-2.04,.08-.08,0-.15-.03-.19-.06l-.57,.09c.04-.12-.48-.1-.21-.18-.43,.16-.86,.08-1.27,.24-1.46,.06-3.02,.19-4.52,.44l.04,.04c-.53,.1-.99,.35-1.63,.29-.46,.18-1.11,.28-1.28,.54-.53,.05-.74,.18-1.26,.26,.14,.12-.5,.17-.24,.26,.35,.17,.36,.02,.66,.15v-.04c1.36,.16,2.73,.23,4.12,.25,.92-.13,1.93-.07,2.89-.13,1.03-.07,2.15-.19,3.04-.31,.21-.04,.37,.06,.55,.12,.81-.08,1.85-.06,2.77-.16-.02,0-.03,0-.05,0,.49-.03,.86,.09,1.34,.05,0-.04,.07-.04,.11-.06,.09,.17,2.8-.43,2.97-.33,.05,0,.1-.02,.15-.02,1.01,.05,2.06,.35,2.93,.3,.19-.08,.4-.16,.55-.25,.15,.07,.18-.07,.37-.06,.48,.33,.75,.18,.5,.06,.38-.06,.77-.04,1.11-.06,.16-.03,.32-.06,.47-.09,.14-.03,.21,.02,.28,.1,.35-.06,.25,.03,.61,.05,.09,.12,.91-.21,1.01-.18l-.06,.02c.42,0,.71,.23,1.12,.23,1.15,.06,2.4-.06,3.46-.05,0-.12-.23,.03-.25-.13,.63,0,1.26,.14,1.89,.15,.11,.03,.26,.09,.31,.13,.2,.04,.12-.06,.27-.05l.02,.11c.21-.1,.32,.12,.52,.06,0-.05,.08-.05,.16-.05,0,.12,.22-.01,.21,.09h0s.07-.02,.13,0c.08-.04,.85-.39,.93-.44l.04,.02c.12,0,.16-.1,.09-.12h.27s.06,.08,.02,.13c.08-.04,.17-.07,.25-.05-.23-.07-.51-.16-.74-.28,.1-.04,.27,.02,.38,0,.13,.08,.38,.14,.59,.18,.04,0,.07-.14,.17-.09,.05,.09,.11,0,.2,.06-.09,.05-.19,.03-.28,.03,.02,.11,.24,.07,.31,.1,.03-.03,.22,0,.34-.04-.05,.11,.1,.06,.17,.12,.08,.01,.13-.03,.1-.07,.02-.11-.32-.06-.21-.18,.03,.05,.18,.03,.27,.02,0-.06-.06-.05,0-.11,.09,.01,.19-.07,.24,0-.02,.02-.06,0-.08,0,.12,0-.64,.42-.49,.38-.04-.05,.68-.38,.6-.39-.07-.03,.05-.11-.03-.13l-.08,.08c-.1-.02-.15-.13-.11-.17,.17,0-.48,.43-.34,.37l-.06-.03c.06-.04,.23-.08,.3-.02,0-.06,.08-.08,.15-.11h.03c.07-.02,.17-.01,.12-.09-.43,.02,.26-.63-.15-.65,.18,.13-.05,.14-.24,.16-.02-.05-.1-.11-.23-.14-.11,.01-.07,.05-.09,.09-.06-.03-.18-.05-.17-.12-.09,.09-.14-.05-.25-.02-.09,.04,0,.04-.06,.08-.14,0-.34-.01-.45-.03-.04-.07-.18-.18-.09-.29,.21,0-.08,.17,.14,.14-.1-.15,.19-.05,.23-.16-.07-.07-.21-.06-.33-.04l.02,.02c-.1,.02-.31,.06-.43-.02,.03-.05-.03-.09,.05-.11h-.14s-.04,.03,0,.04c-.07,.04-.14,.02-.19,0-.02-.06-.76,.26-.74,.22-.1,0-.13-.08-.23-.02,0,.05,.99-.22,.85-.2-.09-.06-1.17,.31-1.24,.21-.08,0-.17,.02-.15,.08-.13-.02,.04-.11-.06-.16,0,0,0,.03-.02,.03l-.09-.07c-.2,.09-.5-.01-.71,.11,.06-.06,.13-.17,.26-.23l.02,.03s.13-.04,.13-.1c-.13-.03-.24-.02-.38,.04-.03-.01-.06-.03-.08-.04,0,0,0,.01,0,.02-.05-.03-.04-.04-.03-.06,0,0,0,0,0-.01-.09-.17-.51,.12-.75,.04-.07,.03,0,.03-.09,.06-.24-.06-.41-.11-.67-.14-.08,.07-.08,.1,.02,.18l-.19-.02c.17-.2-.36-.17-.18-.37-.06-.04-.17-.05-.28-.01,0,.05-.02,.13-.16,.13-.19-.06-.14-.04-.3-.09-.04-.06,.02-.09,.01-.14-.24,.09-.21-.13-.44-.11-.14,.02-.42,.04-.42,.15-.19,0-.19-.08-.18-.17Z"/></svg>