<?xml version="1.0" encoding="UTF-8"?><svg id="a" xmlns="http://www.w3.org/2000/svg" viewBox="0 0 276.77 280.34"><defs><style>.b{fill:#005bea;}.c{fill:#65dff6;}.d{fill:#0b1f65;}</style></defs><g><path class="b" d="M63.03,80.59c.12-1.15,.34-2.4,1.21-3.15,.65-.56,1.54-.72,2.39-.85,6.48-.99,13.08-1.11,19.59-.36,1.6,.18,3.36,.52,4.32,1.81,.5,.67,.7,1.51,.85,2.33,.44,2.44,.54,4.94,.28,7.41-.07,.67-.18,1.37-.55,1.94-.71,1.1-2.15,1.41-3.44,1.62l-16.33,2.71c-9.83,1.63-9.11-6.22-8.33-13.46Z"/><path class="b" d="M79.15,77.14l.34,.02c-1.08-.03-2.23-.06-3.37-.1,2.48,.4,5.31,.92,7.28,.08,.17,.53,2.5,1.01,2.56,.89,.49-.04,.95-.06,1.39-.03-.3-.03-.62-.03-.94-.03,.32,0,.64,0,.94,.03,.69,.04,1.33,.2,1.75,.5,.42,.29,.67,.71,.84,1.45,.32,1.54,.42,3.33,.32,5.04-.02,.48-.06,1.16-.15,1.94-.04,.38-.1,.84-.17,1.17-.07,.34-.17,.58-.26,.67-.13,.2-.61,.44-1.28,.57-.64,.13-1.41,.19-1.93,.25l-.91,.1,1.02-.07c-1.23,.35-2.35,.67-3.44,.95,.21,.04,.25,.11,.73,.14l-.57,.04c-.48,.3-1.66,.49-2.2,.67,.1-.13-.34-.08-.73-.04l.17,.05c-1.47,.2-3.16,.57-4.47,.77-.18,.03-.33,.01-.42-.01l-1.24,.3c.07-.17-1.06,.04-.48-.16-.91,.34-1.88,.39-2.75,.72-1.51,.22-3.09,.36-4.47-.03l-.52-.15-.46-.25c-.33-.13-.56-.4-.84-.62-.25-.25-.47-.54-.68-.85-.16-.34-.39-.64-.5-1.02l-.03,.09c-.44-1-.84-2.01-.79-3.42-.25-1-.26-2.47-.55-2.9,.04-1.19-.07-1.67-.03-2.83-.19,.28-.07-1.14-.26-.59-.3,.74-.12,.8-.36,1.44h.06c-.27,1.5-.49,3.05-.55,4.66-.04,1.61,.03,3.33,.74,5.11,.25,.58,.66,1.13,1.07,1.69,.49,.5,1,1.02,1.63,1.35,.3,.2,.61,.37,.94,.47,.32,.12,.65,.24,.97,.34,.63,.09,1.3,.27,1.9,.23,.65-.01,1.33,0,1.95-.12,.63-.09,1.28-.18,1.83-.31,1.13-.24,2.22-.48,3.18-.71,.46-.12,.81-.05,1.22-.04,1.78-.37,4.06-.69,6.06-1.11h-.1c1.07-.19,1.9-.16,2.94-.37-.01-.04,.15-.07,.22-.11,.05,.04,.46-.02,1.05-.15,.59-.14,1.33-.29,2.2-.55,.85-.26,1.79-.69,2.4-1.32,.63-.62,.83-1.25,.9-1.34,.04-.14,.09-.28,.12-.43,.22-.68,.3-1.28,.41-1.85,.1-.58,.19-1.16,.26-1.73,.14-1.15,.18-2.27,.06-3.28-.14-.43-.29-.91-.45-1.25,.04-.36-.15-.41-.2-.83,.24-1.16-.23-1.91-.17-1.22-.16-.48-.36-.98-.67-1.46-.3-.48-.69-.89-1.1-1.18-.39-.25-.8-.44-1.2-.57-.35-.1-.51-.22-.65-.37-.87-.17-.6-.22-1.47-.42-.22-.2-2.12-.02-2.34-.08h.14c-.94-.12-1.55-.46-2.48-.53-2.58-.27-5.42-.19-7.82-.14-.02,.16,.53-.06,.56,.15-1.41,.02-2.85-.08-4.28,.02-.26-.02-.58-.07-.71-.1-.46-.01-.26,.1-.6,.12l-.06-.13c-.47,.17-.73-.08-1.18,.04-.02,.06-.18,.09-.35,.1-.03-.15-.5,.07-.5-.06h0c-.1,.02-.17,.04-.29,.03-.1,.04-.56,.22-1.03,.41-.48,.19-1.04,.43-1.14,.5h-.11c-.32,.11-.42,.27-.23,.23-.13,.04-.27,.09-.4,.15l.04-.03c-.13,.05-.27,.11-.41,.19-.08,.03-.2,.02-.12-.11-.21,.18-.45,.38-.68,.55,.67-.48,1.55-.67,2.17-.66-.23,.1-.71,.17-.99,.32-.37,.04-1.16,.44-1.61,.96-.08,.12,0,.29-.23,.52-.18,.08-.16,.31-.33,.5,.06-.29,.21-.54,.39-.79-.16-.03-.47,.61-.57,.81-.01,.12-.23,.62-.26,.94-.09-.17-.14,.23-.24,.4-.05,.2-.02,.34,.04,.26,.12,.09,.24-.79,.33-.48-.09,.06-.14,.46-.16,.66,.08,.01,.08-.13,.13,.01-.05,.22,.02,.46-.08,.58-.02-.04,0-.13,.02-.19-.02,.14-.11-.25-.15-.67-.05-.42-.05-.88-.08-.66,.04-.05,.04,.45,.09,.87,.04,.43,.11,.81,.12,.71,.06-.17,.12,.14,.17-.04l-.07-.21c.06-.24,.21-.33,.25-.23-.03,.2-.13-.1-.19-.43-.07-.33-.09-.7-.09-.5l.07-.15c0,.18-.04,.61-.14,.76,.07,.01,.07,.23,.07,.4l-.02,.06c.02,.18-.03,.41,.09,.31,.1-.98,.69,.73,.85-.21-.21,.37-.16-.15-.11-.57,.06-.03,.18-.2,.29-.48,.05-.26-.02-.17-.05-.23,.08-.13,.2-.39,.27-.32-.02-.23,.18-.28,.27-.51,.07-.22-.05,0-.01-.17,.18-.29,.52-.63,.75-.77,.14,0,.46-.03,.35,.19-.38,.25,.02-.28-.35,.03,.28,0-.29,.33-.21,.5,.16-.06,.35-.27,.54-.42h-.05c.15-.15,.54-.39,.81-.36-.03,.08,.08,.09-.06,.16,.09-.03,.19-.06,.28-.08,.03-.03,.06-.06-.03-.05,.12-.09,.27-.1,.39-.08,.02,.04,1.61-.56,1.57-.51,.23-.03,.3,.06,.51-.04,.01-.07-2.15,.55-1.84,.5,.18,.02,2.53-.73,2.69-.6,.17-.03,.37-.07,.32-.13,.29,0-.07,.15,.14,.19,0-.01-.02-.03,.04-.04l.21,.07c.43-.16,1.1-.09,1.56-.27-.13,.09-.27,.24-.56,.34l-.06-.03s-.28,.08-.27,.15c.29,.02,.53-.02,.82-.11,.06,.01,.12,.03,.17,.04,0,0,0-.02,0-.03,.1,.04,.09,.04,.06,.07,0,0,0,.01-.02,.02,.2,.19,1.11-.22,1.63-.15,.15-.04,.01-.04,.2-.09,.54,.05,.91,.09,1.47,.12,.17-.1,.19-.13-.03-.22h.42c-.37,.27,.79,.21,.38,.47,.12,.05,.37,.06,.61,.01,.02-.06,.06-.16,.35-.17,.41,.07,.31,.05,.65,.12,.08,.08-.04,.11-.03,.17,.52-.1,.46,.16,.95,.15,.31-.02,.92-.03,.93-.16,.42,.01,.41,.12,.37,.23Z"/></g><g><path class="b" d="M194.97,80.1c5.63-.1,11.27-.01,16.9,.26,.52,.03,1.11,.09,1.4,.52,.19,.28,.2,.63,.2,.97l.07,10.49c-2.85-.3-5.71-.41-8.57-.34-2.15,.05-5.94,1.22-7.93,.55-2.99-1.01-1.84-12.45-2.06-12.45Z"/><path class="b" d="M208.32,81.59l.25,.02c-.8-.02-1.63-.09-2.45-.17,1.78,.51,3.87,1.01,5.3,.08,.34,.54,.1,.79,.22,.69,.11-.05,.19-.03,.26,.04-.04-.04-.08-.07-.14-.08,.06,0,.1,.03,.14,.08,.03,.05,.05,0,.07,.14l.06,.45c.04,.3,.06,.6,.08,.91,.04,.61,.06,1.23,.05,1.87-.01,1.26-.1,2.56-.19,3.89,0,.16-.02,.34-.03,.55v.14l-.02,.03-.02,.06c-.02,.08-.04,.16-.07,.21l-.19-.07-.07-.03c-.06-.01,.06-.02-.21-.04-.73-.09-1.37-.17-1.83-.23-.23-.03-.45-.05-.67-.08q.37,.06,.75,.12c-.96,.11-1.84,.21-2.63,.31,.14,.08,.17,.15,.51,.26l-.42-.06c-.38,.22-1.26,.21-1.67,.31,.08-.12-.23-.14-.53-.14,.04,.02,.09,.05,.12,.07-1.23,0-2.44,.33-3.38,.46-.13,.02-.23,0-.3-.04l-.87,.22c.04-.16-.73-.05-.34-.19-.63,.26-1.27,.2-1.83,.36-.16-.01-.32-.01-.47-.04-.15-.01-.31-.05-.37-.06-.12-.03-.23-.09-.33-.17-.09-.09-.17-.16-.28-.34-.2-.32-.37-.74-.52-1.17-.29-.89-.49-1.87-.67-2.85l-.05,.06c-.16-.82-.5-1.55-.41-2.58-.21-.73-.31-1.78-.62-2.08-.03-.85-.17-1.21-.24-2.01-.08,.11-.13-.11-.17-.22h0v.02l.23-.03,.24-.05c.08-.02,.17-.05,.18-.01,.08,.04,.17,0,.16-.07h0v-.02h0l.02,.87h-.02l-.02,.02-.03,.02s-.02,.05,.08,.08c-.04-1.96,0-.54-.02-.98h0v.04s-.02,.03-.03,.04c-.02,.02-.06,.03-.09,.02-.04,0-.05-.03-.1-.03l-.19,.04c-.13,.03-.25,.05-.37,.06l-.18,.02s-.01,0-.02,0c-.01-.03-.02,0-.03,.02-.02,.04-.03,.07-.03,.11-.02,.08-.02,.14-.02,.2,0,.13,0,.25-.1,.48h.05c-.3,2.16-.49,4.4-.35,6.75,.14,.78,.26,1.59,.45,2.46,.1,.43,.23,.88,.4,1.34,.2,.47,.4,.92,.9,1.47,.35,.4,.82,.66,1.32,.84,.34,.09,.57,.15,.79,.16,.23,.03,.45,.05,.66,.05,.43,.01,.82-.02,1.19-.06,.74-.08,1.41-.22,2-.36,.34-.1,.6,0,.9,.02,.64-.14,1.37-.27,2.06-.36,.36-.04,.64-.07,1.02-.09l1.11-.06h-.07c.77-.04,1.34,.13,2.09,.13,0-.05,.11-.05,.17-.07,.06,.11,1.16,.03,2.29-.02,.42-.04,1.52-.01,2.14,0,.67,.02,1.13,.05,1.26,.1h.36c.04-.54,.07-1.13,.11-1.74,.03-.31,.05-.61,.08-.92,.03-.31,.05-.68,.08-.82,.11-.79,.19-1.55,.17-2.24-.1-.3-.19-.64-.31-.89,.09-.24-.09-.29-.06-.59,.42-.75,.24-1.19,.09-.8-.06-.62-.03-1.23-.05-1.78-.03-.25-.07-.5-.1-.76-.04-.22,.03-.34,.13-.45-.02-.11-.02-.3-.02-.41,0-.11,0-.19,.02-.28,.01-.16,.07-.35,0-.8,.05-.13-.15-.69-.62-1.04-.46-.36-1.04-.43-1.14-.48l.15,.02c-.47-.16-.89-.26-1.34-.36-.31-.09-.56-.18-.9-.2-1.83-.19-3.85-.15-5.55-.24-.02,.16,.38-.03,.39,.18-1-.05-2.01-.26-3.03-.3-.18-.04-.41-.12-.49-.17-.32-.06-.19,.07-.43,.05l-.03-.14c-.35,.11-.51-.16-.83-.1-.02,.06-.14,.06-.25,.06,0-.15-.36,0-.34-.13h0c-.07,0-.12,.02-.21,0-.13,.05-1.38,.46-1.51,.53l-.06-.02c-.19,0-.27,.12-.16,.14h-.23l.03-.02h-.23s-.09-.09-.03-.15c-.13,.05-.27,.08-.4,.06,.36,.09,.81,.22,1.19,.37-.15,.05-.43-.03-.6,0-.2-.1-.61-.18-.93-.24-.07,0-.12,.18-.28,.1-.08-.11-.18,0-.31-.08,.15-.06,.3-.04,.46-.03-.03-.13-.38-.09-.5-.12-.06,.04-.36,0-.54,.04,.08-.13-.15-.08-.27-.15-.13-.01-.21,.04-.15,.09-.04,.14,.5,.08,.33,.23-.05-.07-.29-.04-.43-.03,0,.08,.09,.06,0,.13-.15-.01-.3,.08-.39,0,.03-.02,.09,0,.13,0-.19,0,1.04-.52,.79-.47,.07,.07-1.09,.48-.96,.48,.12,.04-.08,.14,.04,.17l.13-.1c.17,.03,.24,.16,.18,.21-.28,0,.78-.54,.55-.46l.1,.04c-.1,.05-.37,.1-.48,.02,0,.08-.14,.11-.25,.13h-.04c-.12,.03-.28,.01-.2,.11,.68-.02-.43,.78,.23,.82-.28-.16,.09-.17,.38-.2,.03,.06,.16,.14,.37,.18,.18-.02,.11-.06,.14-.11,.1,.04,.29,.07,.27,.16,.14-.11,.23,.06,.39,.03,.15-.05-.01-.05,.09-.1,.22,0,.54,.02,.72,.04,.07,.08,.28,.23,.13,.36-.34-.02,.13-.21-.22-.18,.15,.19-.31,.05-.37,.2,.11,.08,.34,.08,.53,.06l-.04-.02c.17-.03,.5-.07,.68,.03-.04,.07,.04,.12-.09,.13h.23s.06-.03,0-.05c.11-.05,.22-.02,.3,.02,.02,.07,1.23-.3,1.19-.25,.17,0,.21,.1,.37,.03,.02-.06-1.59,.24-1.37,.22,.14,.07,1.88-.35,1.99-.22,.12,0,.27-.02,.24-.09,.21,.04-.06,.14,.08,.2,0-.01-.01-.04,.04-.03l.14,.09c.32-.11,.8,.04,1.14-.1-.1,.08-.21,.21-.43,.28l-.04-.04s-.21,.04-.21,.12c.21,.05,.38,.04,.6-.03,.04,.02,.09,.04,.12,.06,0,0,0-.02,0-.03,.07,.05,.06,.05,.04,.08,0,0,0,.01-.02,.02,.13,.21,.81-.12,1.19,0,.11-.03,.01-.04,.15-.07,.38,.09,.65,.16,1.05,.22,.13-.09,.14-.12-.01-.22l.3,.04c-.28,.23,.56,.24,.25,.47,.09,.06,.27,.07,.44,.04,.02-.06,.05-.16,.26-.15,.3,.09,.23,.06,.47,.14,.06,.08-.04,.11-.03,.17,.38-.09,.33,.18,.69,.18,.23-.02,.67-.01,.68-.15,.3,.02,.3,.12,.27,.23Z"/></g><g><path class="c" d="M114.42,72.77c.29-.56,.61-1.15,1.14-1.49,.48-.31,1.07-.39,1.64-.45,4.21-.46,8.46-.5,12.7-.54l29.04-.27c.43,0,.89,0,1.25,.24,.26,.17,.44,.45,.6,.72,4.47,7.29,8.56,14.81,12.23,22.52-13.28,2.11-26.82-.71-40.27-.69-6,.01-12.01,.59-17.98,.05-3.81-.34-10.29-.29-8.06-5.4s5.16-9.83,7.7-14.68Z"/><path class="c" d="M149.57,71.47h.66c-2.15,.04-4.41,.01-6.64-.02,4.85,.42,10.58,.78,14.32-.25,.1,.13,.47,.24,.97,.33l.18,.03c.05,.01,.04,.02,.06,.03,.03,.02,.05,.04,.07,.07,.04,.05,.06,.1,.06,.15,0,.02,0,.05,0,.07-.02-.02,.04,.09,.07,.14l.1,.19c.14,.25,.27,.49,.37,.68,.23,.4,.39,.66,.43,.66,.58,.78,1.15,1.58,1.71,2.41l-1.15-1.69,1.15,1.69c1.77,2.61,3.42,5.44,4.99,8.43,.79,1.49,1.55,3.03,2.3,4.59,.37,.78,.74,1.57,1.11,2.37l.14,.3,.03,.09,.05,.14,.08,.26,.02,.07s-.06,0-.09,.01h-.21c-.21,.02,0,0-1.06,.08-.79,.06-1.63,.13-2.5,.15-.87,.04-1.77,.07-2.67,.06-3.6,.03-7.24-.22-9.23-.4-.58-.05-1.15-.1-1.74-.16l1.93,.21c-2.44,0-4.67-.02-6.83-.09,.37,.1,.43,.18,1.33,.35l-1.09-.13c-1.02,.15-3.33-.04-4.43-.02,.24-.1-.61-.18-1.37-.25l.3,.1c-2.87-.25-6.24-.32-8.83-.36-.36,0-.63-.05-.8-.09-.83,.02-1.66,.06-2.49,.1,.19-.16-2.06-.09-.88-.21-1.85,.23-3.72,.19-5.47,.43-3.13,.1-6.33,.18-9.53-.03-1.65-.11-3.28-.14-4.81-.38-1.49-.24-3.08-.73-3.29-1.94-.02,.05-.03,.09-.03,.13-.24-.87,.07-1.88,.48-2.93,.4-1.05,.87-2.15,1.54-3.35,.71-1.85,1.98-4.36,2.08-5.2,1.06-2.01,1.37-2.88,2.35-4.88-.41,.43,.84-2,.22-1.09-.89,1.19-.76,1.35-1.51,2.37h.06c-1.51,2.5-3.05,5-4.49,7.62-.72,1.31-1.41,2.64-2.06,4.01l-.24,.52-.24,.65c-.18,.41-.27,.93-.35,1.44-.02,.55-.04,1.14,.2,1.74,.05,.15,.1,.3,.16,.44l.25,.4c.17,.27,.35,.52,.57,.7,1.18,1.04,2.4,1.32,3.52,1.58,1.13,.23,2.21,.34,3.28,.43,2.05,.17,4.24,.38,6.35,.38,4.54,.02,9.33-.41,13.09-.55,.9-.06,1.55,.1,2.31,.18,3.46-.04,7.88,.3,11.82,.52l-.19-.02c2.09,.13,3.65,.42,5.71,.53,0-.05,.31-.03,.47-.04,.17,.12,3.21,.22,6.3,.2,3.1,0,6.24-.23,6.61-.18l.67-.05c1.1-.05,2.2-.04,3.31-.11l.83-.04,.41-.02c.19,0,.41-.03,.63-.05,.88-.09,1.76-.18,2.63-.27l1.35-.14c-.14-.36-.33-.76-.5-1.15-.36-.79-.71-1.57-1.06-2.34-.26-.56-.51-1.1-.76-1.63-.21-.44-.42-.87-.64-1.29-.45-.68-.95-1.45-1.36-2.01-.22-.63-.44-.66-.78-1.38-.56-1.99-1.29-2.94-.92-1.95-.83-1.44-1.61-2.92-2.34-4.2-.37-.58-.73-1.15-1.1-1.74-.32-.49-.43-.81-.49-1.11-.81-1.27-.49-.94-1.26-2.32-.03-.2-.59-1.02-1.16-1.83-.29-.41-.58-.82-.82-1.14-.11-.16-.31-.46-.44-.6-.14-.16-.26-.27-.32-.33,.1,.08,.2,.17,.29,.26-.44-.55-1.06-.83-1.67-.92-.72-.09-.95-.08-1.36-.13-.75-.07-1.49-.14-2.38-.14-4.92-.06-10.29,.1-14.85,.09-.04,.16,1-.04,1.06,.16-2.69,0-5.4-.17-8.11-.17-.49-.04-1.09-.11-1.31-.16-.87-.05-.51,.08-1.15,.07l-.09-.14c-.93,.12-1.36-.14-2.23-.08-.05,.06-.36,.07-.68,.07-.02-.15-.96,.02-.92-.12h0c-.19,.01-.32,.02-.55,0-.35,.05-3.71,.53-4.07,.62l-.17-.02c-.5,.02-.71,.15-.42,.16l-.62,.02h-.55c-.11,0-.25-.06-.08-.13-.35,.07-.74,.12-1.09,.12,.98,.02,2.2,.09,3.22,.21-.41,.07-1.17,.02-1.62,.06-.54-.07-1.66-.09-2.54-.09-.19,.03-.31,.2-.75,.17-.22-.09-.49,.05-.86,0,.41-.11,.82-.11,1.24-.14-.08-.13-1.03,0-1.37,0-.08,.03-.31,.05-.62,.09-.31,.04-.74,.1-1.09,.24,.26-.2-.49,.02-1.01,.32l-.11,.06c-.51,.36-.66,.67-.49,.53,0,.1,.29-.21,.7-.45,.5-.29,.96-.39,.62-.19-.08,0-.31,.09-.58,.25-.36,.22-.69,.58-.86,.81,.05,.05,.26-.23,.11,.07-.36,.43-.49,.9-.67,1.07,.02-.08,.11-.23,.18-.34-.08,.14-.04-.03,.11-.39,.15-.35,.48-.93,1.02-1.36,.8-.6,1.41-.72,1-.62,.1,.01-.37,.14-1,.62-.62,.48-1,1.19-1.18,1.62-.18,.44-.25,.68-.2,.58,.18-.27,.02,.27,.2-.01l.11-.39c.28-.44,.56-.56,.48-.36-.26,.45-.05-.49,.75-1.2,.57-.47,1.04-.62,.67-.48,.13-.03,.25-.06,.37-.08-.2,.08-.65,.25-1.06,.52-.28,.18-.5,.38-.64,.48,.04,.05-.29,.47-.45,.8l-.08,.1c-.16,.35-.37,.73-.19,.59,.48-.89,.5-.5,.5-.1,.02,.38,.05,.75,.51-.03-.5,.6-.14-.35,.58-1,.04,0,.12-.04,.26-.1,.18-.07,.47-.18,.83-.24,.5-.13,.29-.12,.38-.19,.29-.01,.81-.03,.75,.06,.37-.14,.61,0,1.06-.07,.4-.09-.03-.04,.25-.12,.6-.04,1.44-.09,1.92-.1,.19,.07,.76,.18,.36,.34-.91,.04,.33-.23-.61-.14,.42,.16-.83,.11-.99,.27,.31,.06,.92,.02,1.42-.04l-.1-.02c.45-.05,1.35-.14,1.84-.06-.11,.07,.1,.11-.23,.14h.62c.08-.04,.16-.06-.02-.07,.29-.06,.58-.05,.81-.01,.07,.06,3.29-.38,3.19-.33,.45,0,.56,.1,.99,.02,.04-.07-4.27,.32-3.68,.29,.38,.05,5.06-.45,5.34-.31,.33,0,.73-.03,.65-.1,.56,.03-.17,.14,.23,.2,0-.01-.03-.04,.09-.03l.38,.09c.87-.12,2.15,.01,3.05-.14-.26,.08-.56,.22-1.15,.29l-.1-.04c-.08,.02-.57,.05-.55,.12,.56,.04,1.03,.02,1.62-.05l.32,.06s-.01-.02,0-.03c.19,.04,.17,.05,.1,.08,0,0-.02,.01-.04,.02,.35,.21,2.18-.15,3.2-.05,.3-.03,.03-.04,.4-.08,1.04,.07,1.76,.13,2.84,.17,.35-.09,.37-.13-.05-.22l.82,.02c-.74,.25,1.53,.21,.71,.46,.24,.05,.73,.06,1.19,.02,.05-.06,.12-.16,.69-.16,.8,.07,.6,.05,1.28,.12,.16,.08-.09,.11-.06,.17,1.03-.11,.9,.16,1.87,.14,.61-.03,1.81-.05,1.83-.19,.82,0,.82,.1,.74,.21Z"/></g><g><path class="b" d="M51.19,174.97c-.07,4.82,.16,10.32,3.86,13.4,2.4,1.99,5.7,2.43,8.8,2.78l31.39,3.57c12.84,1.46,25.75,2.93,38.66,2.33,13.43-.62,26.66-3.47,40.05-4.6,14.57-1.22,29.3-.4,43.78-2.42,2.96-.41,6.69-1.87,6.49-4.85-.74,4.08-1.41,8.54,.59,12.17,.92-25,.97-50.03,.14-75.04-.05-1.5-.12-3.06-.88-4.36-.72-1.23-1.96-2.05-3.22-2.71-3.03-1.58-6.37-2.44-9.7-3.25-24.88-6.03-50.4-9.38-75.98-10.2-9.79-.31-19.71-.24-29.21,2.13-5.95,1.49-11.68,3.86-17.74,4.84-4.75,.77-9.6,.65-14.41,.54-5.76-.14-12.07-1.04-17.79-.42-5.01,.54-3.95,5.9-4.01,9.76l-.55,36.45c-.1,6.63-.3,13.26-.3,19.88Z"/><path class="b" d="M156.39,195.97l2.13-.28c-6.89,.97-14.18,2-21.45,2.46,7.93-.31,16.48-1.42,24.5-2.48,4.01-.53,7.9-1.03,11.53-1.45,3.59-.4,6.95-.78,10.04-1.13,1.31,.44,16.55,.32,16.88,.15,3.17-.21,6.39-.44,9.65-.76-2.24,.2-4.47,.38-6.68,.53,2.21-.14,4.44-.33,6.68-.53,2.81-.28,5.62-.62,8.52-1.06,1.54-.27,3.07-.7,4.55-1.57,.73-.44,1.47-1.01,2.04-1.83,.58-.81,.92-1.92,.83-2.94l-.92-10.52-1.79,10.36c-.35,2.03-.7,4.13-.73,6.35-.03,2.2,.32,4.59,1.49,6.7l2.32,4.2,.18-4.79c.44-11.74,.79-23.87,.94-36.22,.08-6.39,.08-18.28-.16-30.2-.07-2.98-.14-5.96-.21-8.86-.05-1.46-.09-3.23-1.03-4.96-.98-1.73-2.47-2.68-3.73-3.38-2.53-1.37-5.03-2.17-7.23-2.8-2.21-.62-4.12-1.06-5.72-1.46-1.85-.47-3.7-.89-5.58-1.32,3.11,.74,3.11,.73,6.2,1.51-7.84-1.7-14.99-3-21.94-4.1,1.21,.29,1.41,.4,4.28,1.03l-3.52-.68c-3.25-.36-10.69-1.54-14.21-1.89,.77-.02-1.99-.41-4.43-.73l.96,.2c-9.26-1.24-20.07-2.05-28.4-2.46-1.16-.06-2.03-.15-2.55-.21-2.67-.07-5.33-.16-8-.18,.62-.17-6.65-.2-2.82-.27-6,.13-12.16,.31-17.83,1.43-2.54,.42-5.1,.99-7.61,1.71-2.51,.72-4.98,1.54-7.46,2.3-2.48,.76-4.97,1.46-7.5,1.91-2.53,.46-5.12,.66-7.73,.72-2.61,.06-5.27,.02-7.9-.04-2.62-.08-5.27-.27-7.93-.4-2.66-.12-5.35-.17-8.04,.06l-1.01,.1c-.36,.07-.73,.12-1.08,.22-.72,.23-1.43,.58-1.99,1.15-1.11,1.17-1.4,2.7-1.49,4.05,.04-.18,.06-.35,.11-.53-.2,1.93,.03,3.72,.05,5.47,.01,1.78,.03,3.57,.04,5.4,.02,3.66,.01,7.52-.1,12,.11,6.39,.08,15.48,.37,18.03-.07,7.37,.05,10.31,.03,17.54,.17-1.86,.11,7.02,.26,3.46,.3-4.79,.11-5.06,.35-9.12l-.06,.12c.24-9.5,.48-19,.72-28.53,.1-4.77,.21-9.55,.31-14.33l.07-3.59c.01-.58,.03-1.22,.02-1.85l-.03-1.8c-.07-2.31,.2-4.56,1.41-5.03,.09-.07,.21-.12,.34-.15,.13-.04,.23-.11,.39-.13,.29-.05,.57-.12,.99-.15,.77-.08,1.55-.13,2.34-.16,1.58-.06,3.19-.03,4.83,.04,3.27,.14,6.64,.46,10.09,.54,3.38,.08,6.83,.17,10.3-.07,3.48-.21,6.98-.9,10.23-1.84,3.52-1,6.99-2.22,10.46-3.19,3.46-.97,7.01-1.63,10.54-2.04,7.07-.84,14.01-.77,20.16-.64,2.94,.06,5.05,.28,7.54,.49,11.3,.49,25.63,1.95,38.24,3.87l-.62-.1c6.7,1.02,11.67,2.09,18.16,3.38-.02-.05,.98,.15,1.47,.23,.27,.1,2.79,.64,6.45,1.44,1.82,.42,3.95,.87,6.17,1.42,2.22,.55,4.53,1.22,6.66,2.22,1.08,.5,2.08,1.05,2.78,1.75,.71,.68,1.05,1.52,1.22,2.58,.16,1.03,.17,2.19,.22,3.28,.05,1.09,.09,2.14,.13,3.11,.15,3.9,.23,6.71,.21,7.29,.02,.69,.05,1.4,.07,2.13,.19,14.01-.24,28.49-.42,40.5,.05,2.61,.1,5.53,.14,7.75-.15,2.12,.03,2.54-.08,5.1-.37,3.88-.52,6.81-.51,7.79l2.52-.6c-.21-.37-.26-.39-.09,.05l-2.33,.55c.02-.2,.05-.48,.08-.85l-.02,.85,2.22-.53c-.93-1.63-1.23-3.59-1.19-5.55,.03-1.97,.37-3.93,.71-5.84l-2.3-.13c.03,.51-.11,.93-.39,1.33-.42,.63-1.24,1.17-2.13,1.56-.9,.4-1.9,.67-2.92,.83-1.85,.27-2.9,.35-3.85,.34-4.77,.53-3.37,.3-8.4,.58-.61-.03-3.77,.18-6.96,.35-3.19,.17-6.42,.33-7.14,.33l.83-.04c-5.86,.12-9.78-.07-15.55,.29-8.03,.47-16.32,1.75-24.41,2.87-8.09,1.14-16.01,2.01-23.31,2.01-.14,.16,3.22-.08,3.39,.1-8.62,.26-17.32-.53-26.02-1.44-1.57-.2-3.48-.48-4.19-.61-2.78-.36-1.65-.11-3.69-.35l-.26-.17c-2.99-.22-4.34-.65-7.16-.91-.15,.04-1.18-.07-2.18-.19-.03-.15-3.08-.34-2.92-.46h-.03c-.6-.06-1.03-.1-1.76-.21-1.15-.08-11.9-.87-13.08-.96l-.54-.09c-1.6-.18-2.3-.15-1.37-.01l-1.98-.23,.23,.02-1.96-.23c-.36-.05-.76-.17-.2-.17-1.12-.08-2.37-.18-3.42-.37,1.46,.27,3.21,.49,4.96,.76,1.74,.27,3.5,.54,5.12,.79-1.34-.1-3.73-.45-5.18-.6-1.7-.34-5.32-.64-7.68-1.46-.51-.17-.97-.1-2-.74-.45-.38-1.14-.72-1.75-1.49,.8,.78,1.67,1.41,2.77,1.87-.06-.11-.72-.39-1.35-.83-.64-.42-1.24-1.02-1.5-1.38-.16-.13-.55-.65-.92-1.33-.37-.69-.68-1.57-.89-2.27,.28,.59-.23-1.16-.25-2.07-.12-1.01-.21-1.67-.22-1.25-.08-.16-.02,.87,.1,1.74,.12,.87,.29,1.58,.05,.91-.03-.37-.36-2.35-.4-3.47-.08,0,0,.76-.13,.05-.06-1.24-.14-2.57-.05-3.3,.02,.24,0,.76,0,1.13,.02-.83,.08,1.43,.42,3.48,.31,2.08,1.06,3.8,.75,2.9,.03,.26-.68-1.76-.89-3.98-.25-2.2-.26-4.44-.28-3.89-.05,1.01-.13-.72-.17,.32l.09,1.15c-.02,1.41-.11,1.99-.19,1.5-.02-1.19,.11,.51,.41,2.16,.28,1.67,.87,3.2,.59,2.3,.05,.25,.1,.5,.17,.75-.15-.36-.35-1.08-.49-1.82-.13-.74-.2-1.51-.2-1.94-.08,0-.19-1.12-.23-2.08v-.34c-.05-.98,0-2.38-.11-1.74,0,2.92-.18,1.96-.39,.98-.19-.99-.41-2.01-.42,.85,.18-2.4,.08,.82,.39,3.28,0,.24-.04,1.37,.43,3.1,.5,1.46,.37,.83,.49,1.09,.25,.82,1.11,2.19,.94,2.05,.8,.88,1.16,1.54,2.4,2.32,1.13,.59-.06-.07,.76,.31,1.67,.92,4.37,1.38,5.89,1.58,.58,.16,2.38,.51,1.04,.49-2.93-.37,1.14-.06-1.91-.42,.64,.18-.03,.12-.94-.03-.91-.14-2.02-.43-2.31-.45,.92,.39,2.9,.76,4.55,.91l-.33-.07c1.46,.15,4.36,.43,5.92,.72-.38,.02,.3,.15-.77,.05l2,.24c.26,0,.52,.02-.06-.06,.95,.06,1.89,.19,2.61,.31,.21,.09,10.66,.91,10.33,.92,1.44,.16,1.78,.31,3.19,.4,.02,0-.18-.03-.54-.07-.36-.04-.89-.09-1.51-.15-1.26-.12-2.92-.28-4.54-.43-3.23-.3-6.24-.58-5.28-.48,1.22,.22,16.35,1.51,17.23,1.74,1.07,.12,2.36,.25,2.11,.15,1.8,.24-.56,.07,.72,.29,.03,0-.1-.05,.31,0l1.22,.23c2.81,.21,6.9,.81,9.85,.96-.86,0-1.84,.02-3.74-.11l-.33-.07c-.27,0-1.83-.15-1.79-.08,1.79,.25,3.32,.4,5.22,.53l1.02,.16s-.03-.02-.03-.03c.61,.11,.55,.11,.32,.11h-.13c1.11,.34,7.07,.55,10.36,.85,.97,.03,.09-.03,1.3,0,3.36,.27,5.69,.43,9.22,.5,1.13-.09,1.22-.13-.15-.22l2.67,.02c-2.43,.3,4.99,.11,2.32,.42,.78,.03,2.39-.02,3.88-.15,.15-.07,.38-.17,2.25-.31,2.62-.13,1.99-.11,4.16-.25,.52,.02-.27,.14-.17,.19,3.32-.45,2.92-.14,6.05-.54,1.96-.27,5.81-.81,5.88-.96,2.63-.36,2.64-.26,2.4-.11Z"/></g><path class="c" d="M61.45,133.8v.28c-.03-.91,0-1.87,.05-2.81-.36,2.05-.68,4.49,.14,6.07-.42,.18-.59,2.18-.49,2.22,.08,.41,.16,.83,.22,1.26-.04-.28-.08-.57-.12-.87,.04,.3,.08,.59,.12,.87,.19,1.34,.27,2.74,.34,4.22,.04,1.43,.02,2.9,0,4.39,0,.84,0,2.37,.01,3.91-.02,1.55-.06,3.11-.11,3.96-.01,.25-.02,.5-.04,.74l.07-.83c.12,1.04,.24,1.98,.32,2.89,.06-.16,.12-.19,.2-.57l-.04,.47c.18,.42,.18,1.4,.25,1.86-.09-.1-.11,.26-.12,.58l.06-.13c-.04,1.21,.03,2.62,.02,3.71,0,.15-.04,.26-.07,.33l.06,1.04c-.12-.08-.12,.86-.19,.36,.14,.78,.04,1.57,.18,2.31-.02,2.65,.02,5.48,.15,8.23l.05-.07c.05,.96,.27,1.82,.15,2.98,.14,.84,.18,2.03,.43,2.37,0,.96,.11,1.35,.14,2.3,.14-.24,.12,.92,.23,.46,.2-.62,.05-.66,.22-1.19h-.04c.29-2.46,.49-4.95,.62-7.47-.06-1.69,.07-3.51,.06-5.26-.01-1.88-.07-3.92-.17-5.54-.03-.39,.07-.66,.14-.99-.05-1.49,0-3.38-.08-5.05v.08c-.03-.89,.1-1.56,.07-2.43-.04,0-.04-.13-.06-.2,.18-.15-.41-5.11-.33-5.42l-.03-.28c0-1.84,.26-3.76,.16-5.34-.09-.34-.18-.72-.28-1.01,.06-.28-.08-.33-.08-.67,.3-.88,.14-1.37,.04-.92-.08-.69-.08-1.35-.11-1.98-.03-.28-.07-.57-.1-.86-.03-.25,.01-.38,.09-.51-.06-.63,.03-.45,.05-1.11,.11-.16-.21-1.66-.18-1.84l.02,.11c0-.77,.23-1.28,.24-2.02,.07-2.08-.04-4.35,0-6.28-.12-.02,.03,.42-.14,.45,.02-1.14,.17-2.28,.19-3.43,.03-.21,.1-.46,.14-.55,.05-.37-.06-.22-.04-.48l.11-.04c-.09-.39,.12-.57,.08-.94-.05-.02-.05-.15-.05-.29,.12,0,0-.4,.1-.38h0c0-.08,0-.14,.02-.24-.04-.16-.37-1.52-.41-1.71l.02-.07c0-.21-.09-.3-.11-.18v-.26l.02,.03v-.26s.07-.1,.13-.03c-.04-.15-.06-.31-.04-.46-.08,.4-.18,.91-.31,1.33-.04-.17,.03-.49,.01-.68,.08-.23,.15-.69,.21-1.05,0-.08-.14-.14-.08-.31,.09-.09,0-.2,.07-.35,.05,.17,.02,.34,.02,.51,.11-.03,.08-.42,.11-.56-.03-.06,0-.4-.02-.61,.1,.09,.07-.17,.13-.29,.02-.14-.02-.23-.06-.17-.11-.05-.08,.56-.19,.36,.05-.05,.04-.33,.04-.47-.06,0-.05,.1-.11,0,.02-.16-.05-.34,.02-.43,.02,.03,0,.1,0,.15,0-.21,.37,1.16,.34,.89-.06,.06-.33-1.22-.34-1.08-.03,.13-.11-.1-.13,.04l.07,.15c-.03,.18-.14,.25-.18,.19,.02-.31,.4,.89,.34,.62l-.03,.11c-.04-.11-.07-.42,0-.53-.06,0-.08-.15-.1-.28v-.04c-.02-.13,0-.31-.08-.23-.01,.76-.6-.53-.66,.21,.14-.31,.13,.11,.14,.44-.05,.03-.12,.18-.16,.41,0,.21,.05,.12,.08,.16-.03,.11-.06,.33-.13,.3,.08,.16-.06,.25-.03,.45,.04,.17,.04-.01,.08,.11-.01,.25-.03,.6-.04,.81-.07,.08-.19,.32-.29,.14,.02-.39,.17,.15,.15-.25-.15,.17-.04-.36-.15-.43-.07,.13-.07,.39-.06,.6l.02-.04c.02,.19,.05,.57-.04,.78-.05-.05-.09,.04-.11-.1v.26s.02,.07,.03,0c.04,.12,.02,.25-.02,.34-.06,.03,.23,1.4,.2,1.36,0,.19-.08,.23-.03,.42,.05,.02-.19-1.81-.17-1.56-.06,.16,.28,2.15,.17,2.26,0,.14,.02,.31,.07,.28-.03,.24-.11-.07-.16,.1,0,0,.03-.01,.03,.04l-.07,.16c.09,.37-.03,.91,.09,1.29-.06-.11-.17-.24-.23-.49l.03-.04s-.04-.24-.09-.23c-.04,.24-.03,.44,.03,.69l-.05,.14s.01,0,.02,0c-.04,.08-.04,.07-.06,.04,0,0,0,0-.01-.02-.17,.15,.11,.93,.02,1.36,.02,.13,.03,.01,.06,.17-.07,.44-.12,.74-.15,1.2,.07,.15,.1,.16,.18-.02l-.02,.35c-.19-.32-.18,.65-.37,.3-.04,.1-.05,.31-.02,.5,.05,.02,.13,.05,.13,.29-.06,.34-.04,.26-.1,.54-.06,.07-.09-.04-.14-.02,.08,.43-.13,.38-.12,.79,.02,.26,.03,.76,.14,.78,0,.35-.08,.35-.17,.31Z"/><path class="c" d="M86.49,133.48l-.02,.29c0-.94,.06-1.93,.12-2.91-.41,2.12-.77,4.63,.01,6.28-.43,.17-.65,2.24-.54,2.28,.07,.43,.13,.86,.18,1.3-.03-.29-.06-.59-.1-.9,.03,.31,.07,.61,.1,.9,.3,2.78,.14,5.79-.03,8.9-.09,1.73-.18,6.42-.3,8.2-.01,.26-.03,.51-.04,.77q.04-.43,.07-.86c.11,1.08,.23,2.06,.31,3.01,.06-.17,.12-.2,.2-.59l-.04,.48c.18,.44,.17,1.46,.25,1.93-.09-.1-.11,.27-.12,.61l.06-.13c-.03,1.26,.05,2.72,.05,3.85,0,.16-.03,.27-.06,.35l.08,1.08c-.12-.08-.1,.9-.18,.38,.15,.81,.07,1.63,.23,2.4,.05,2.75,.18,5.68,.43,8.52l.04-.07c.1,1,.36,1.87,.3,3.08,.18,.86,.29,2.09,.55,2.43,.03,1.01,.16,1.42,.09,2.45,.18-.24-.02,1.01,.16,.54,.3-.67,.15-.73,.35-1.3h-.04c.2-1.36,.2-2.66,.25-3.94,.02-1.3,.04-2.59,.07-3.89-.13-1.74-.07-3.62-.13-5.43-.07-1.94-.17-4.05-.29-5.71-.04-.4,.07-.69,.12-1.03-.07-1.53-.04-3.49-.11-5.22v.08c-.03-.92,.1-1.61,.07-2.51-.04,0-.04-.13-.06-.2,.17-.16-.36-5.29-.26-5.6l-.02-.29c.08-1.9,.41-3.85,.39-5.48-.08-.35-.15-.75-.24-1.05,.07-.29-.07-.34-.04-.69,.34-.88,.21-1.39,.08-.94-.04-.72,0-1.45-.01-2.09-.02-.3-.05-.59-.07-.9-.03-.26,.03-.4,.11-.53-.04-.65,.04-.46,.08-1.15,.12-.16-.17-1.72-.14-1.92l.02,.11c.03-.79,.27-1.32,.28-2.09,.11-2.15,.06-4.51,.13-6.5-.12-.02,.02,.44-.14,.46,.04-1.18,.21-2.36,.25-3.55,.04-.21,.1-.47,.14-.57,.05-.38-.06-.22-.03-.5l.11-.04c-.08-.41,.14-.59,.1-.97-.04-.02-.05-.16-.04-.3,.12,0,0-.42,.11-.4h0c0-.09,0-.14,.02-.24l-.39-1.78,.02-.07c0-.22-.09-.31-.11-.19v-.27l.02,.03v-.27s.08-.1,.13-.03c-.04-.15-.06-.32-.03-.47-.08,.42-.2,.94-.33,1.38-.04-.18,.03-.51,.02-.7,.08-.23,.16-.71,.22-1.09,0-.08-.14-.14-.07-.33,.09-.09,0-.21,.07-.37,.05,.18,.02,.35,.01,.53,.11-.03,.08-.44,.12-.58-.03-.07,.01-.42-.02-.64,.1,.1,.07-.18,.13-.3,.02-.15-.02-.24-.06-.18-.11-.05-.08,.59-.19,.38,.06-.05,.04-.34,.04-.5-.06,0-.05,.11-.11,0,.02-.17-.05-.36,.01-.46,.02,.03,0,.1,0,.15,.01-.23,.38,1.23,.35,.94-.06,.07-.34-1.29-.35-1.14-.03,.14-.11-.1-.13,.04l.07,.16c-.03,.19-.14,.27-.18,.2,.02-.33,.4,.94,.34,.66l-.03,.11c-.04-.12-.07-.44,0-.56-.06,0-.08-.16-.1-.29v-.05c-.02-.14,0-.33-.08-.24,0,.8-.61-.54-.66,.23,.14-.32,.14,.11,.14,.45-.05,.03-.12,.18-.16,.43,0,.21,.05,.13,.08,.17-.03,.12-.06,.34-.13,.31,.08,.17-.06,.26-.03,.46,.04,.18,.04-.01,.07,.11-.02,.26-.04,.62-.06,.84-.07,.08-.19,.32-.29,.14,.02-.4,.16,.16,.15-.26-.16,.18-.03-.37-.15-.45-.07,.13-.08,.4-.06,.62l.02-.04c.02,.2,.04,.59-.05,.81-.05-.05-.09,.04-.1-.1l-.02,.27s.03,.07,.05,0c.04,.13,.01,.26-.02,.36-.06,.03,.21,1.45,.18,1.41,0,.2-.09,.24-.03,.43,.05,.02-.16-1.88-.14-1.62-.07,.17,.24,2.23,.13,2.35,0,.15,.01,.32,.07,.29-.03,.24-.11-.08-.16,.1,0,0,.03-.01,.03,.04l-.08,.17c.08,.38-.04,.94,.07,1.34-.06-.12-.17-.25-.22-.51l.03-.04s-.03-.25-.09-.24c-.04,.24-.04,.45,.02,.71l-.05,.14s.01,0,.02,0c-.04,.08-.04,.07-.06,.04,0,0,0,0-.01-.02-.17,.15,.09,.96,0,1.4,.02,.13,.03,.01,.06,.18-.07,.45-.13,.77-.18,1.24,.07,.15,.1,.17,.18-.02l-.03,.36c-.19-.33-.19,.67-.38,.31-.05,.1-.06,.32-.03,.52,.05,.02,.13,.05,.12,.31-.07,.35-.04,.27-.11,.56-.06,.07-.09-.04-.14-.03,.07,.45-.14,.39-.14,.82,.01,.27,.02,.79,.13,.81,0,.36-.09,.36-.18,.32Z"/><g><path class="d" d="M51.53,95.2c-.03-1.86,.04-3.96,1.42-5.21,.99-.89,2.4-1.09,3.72-1.22,15.87-1.61,31.85-.8,47.8-.37,17.7,.48,35.4,.25,53.1-.17,20.46-.48,40.95,.13,61.35,1.83,2.09,.17,4.44,.5,5.67,2.19,.94,1.3,.94,3.03,.9,4.63-.23,7.57,.29,15.14-.44,22.67,0-.06-73.06-.4-79.64-.44l-78.91-.44c-3.55-.02-14.42,.46-14.42,.46,0,0-.3-10.03-.35-12.86l-.19-11.07Z"/><path class="d" d="M137.57,89.97h1.67c-5.41,.08-11.1,.06-16.71-.01,12.2,.52,26.63,.66,36.02-.56,.52,.25,3.72,.38,6.83,.46,3.11,.08,6.11,.11,6.23,.05,2.45-.1,4.93-.16,7.44-.19-1.73,.01-3.44,.04-5.15,.08,1.7-.04,3.42-.07,5.15-.08,7.93-.1,16.2,.13,24.7,.63,4.25,.25,8.56,.58,12.91,.96,2.17,.22,4.45,.26,5.84,1.07,.68,.4,1.06,.89,1.27,1.66,.21,.77,.2,1.77,.16,2.86-.1,2.35-.12,5.64-.12,9.4,0,1.88,0,3.88-.06,5.94-.02,1.03-.06,2.07-.12,3.12-.03,.52-.06,1.05-.1,1.58l-.05,.67v.11s-.02,.1-.04,.12l-.25-.02c-8.85-.13-17.59-.26-22.49-.33-1.47-.03-2.94-.05-4.42-.08q2.46,.06,4.93,.12c-6.2,.1-11.81,.19-17.24,.28,.96,.08,1.12,.16,3.39,.27l-2.77-.06c-2.53,.21-8.35,.17-11.09,.25,.59-.11-1.57-.15-3.47-.17l.75,.08c-7.22-.08-15.61-.03-22.07-.08-.9,0-1.57-.05-1.98-.09l-6.19,.06c.48-.15-5.13-.16-2.18-.24-4.63,.16-9.33,.02-13.75,.18-15.79-.07-32.58-.04-48.9,.13l.4,.06c-2.85,.06-5.55,.12-8.39,.18-2.84,.07-5.84,.29-9.31,.33l-4,.27c-.68,.04-1.36,.09-2.04,.13l-.26,.02c-.02-.07-.01-.16-.02-.24l-.03-.49c-.02-.33-.04-.66-.06-.99-.16-2.63-.33-4.88-.52-5.87-.21-5.72-.39-8-.58-13.61-.13,1.45-.29-5.45-.36-2.68-.16,3.73,.04,3.93-.09,7.09l.05-.09c-.01,3.69,.05,7.38,.1,11.07l.11,6.68v.59h.6l1.17-.04,2.06-.05,2.76-.06,5.53-.12c1.84-.04,3.69-.12,5.55-.06,3.72,.04,7.44,.09,11.18,.13,9.97-.08,20.79,.09,31.16,.11,11.16,0,23.24-.03,32.82-.11,2.29-.03,3.93,.11,5.88,.19,8.81,.01,20.01,.03,29.95,.04h-.49c5.28,0,9.23,.18,14.38,.18-.03-.05,.77-.04,1.16-.07,.36,.09,5.46,.06,11.49,0,3.02-.03,6.27-.06,9.28-.09,1.51-.01,2.95-.03,4.28-.04,.66,0,1.3,0,1.89-.01h.44c.14-.03,.29-.22,.43-.32,.28-.24,.55-.46,.81-.68,.04,.33,.08,.65,.13,.97,.06,.05,.13,.01,.2,.03h.39c.06,0,.14,.02,.18-.02l.07-.24c.05-.15,.09-.31,.13-.46l.06-.22c.02-.07,.07-.02,.11-.03h.23l.43,.02c.42-.09,.79-.3,1.07-.4,.05-.47,.08-.8,.1-.97,.03-.59,.06-1.2,.1-1.83,.35-5.49,.28-11.05,.43-16.35,.05-1.34,.1-2.66,.15-3.97,.02-1.36-.04-3.01-1.01-4.51-.47-.73-1.15-1.31-1.84-1.71-.7-.41-1.41-.65-2.09-.83-1.36-.34-2.64-.41-3.78-.5-2.03-.07-4.32-.15-6.04-.16-1.64-.21-1.97-.05-3.96-.21-5.03-.74-8-.7-5.4-.42-4.16-.18-8.34-.39-12.04-.5-1.72-.02-3.42-.03-5.15-.05-1.47,0-2.29-.08-3.03-.2-3.76-.01-2.65-.09-6.6-.18-.95-.18-9.89,.22-11.01,.2l.64-.03c-4.56,.02-7.6-.19-12.04-.1-12.35,.17-25.83,.43-37.26,.24-.12,.16,2.52,0,2.65,.2-6.75-.07-13.53-.42-20.34-.66-1.23-.08-2.73-.2-3.29-.27-2.18-.12-1.29,.04-2.88-.03l-.21-.15c-2.34,.05-3.41-.24-5.61-.23-.12,.05-.92,.05-1.7,.03-.04-.15-2.41-.03-2.3-.16h-.02c-.47,0-.81,0-1.39-.02-.9,.01-9.31,.47-10.22,.6h-.43c-1.26,.03-1.79,.16-1.06,.16l-1.55,.05,.18-.02-1.54,.06c-.29,0-.61-.06-.17-.14-.87,.08-1.85,.18-2.73,.2,2.44-.07,5.47-.04,8.01,.04-1.04,.09-2.93,.05-4.06,.12-1.35-.05-4.14,0-6.31,.11-.48,.05-.79,.23-1.87,.24-.54-.07-1.22,.12-2.12,.12,1.02-.15,2.03-.23,3.08-.3-.19-.13-2.55,.13-3.38,.17-.19,.04-.78,.08-1.57,.2-.78,.11-1.77,.37-2.52,.82,.3-.22-.02-.12-.52,.21-.51,.32-1.1,.96-1.39,1.4-.64,1.04-.67,1.74-.53,1.32,.02,.2,.33-.86,1.01-1.66,.67-.8,1.46-1.19,.82-.67-.19,.1-.73,.56-1.13,1.22-.4,.66-.63,1.44-.73,1.96,.07,.03,.22-.7,.14,0-.26,1.16-.15,2.28-.23,2.87-.02-.19-.01-.62,0-.94,0,.35-.05,.06-.05-.58,0-.63,.04-1.65,.44-2.72,.2-.53,.5-1.06,.85-1.49,.36-.43,.75-.75,1.06-.96,.62-.41,.88-.5,.36-.26,.15-.04-.38,.18-1.08,.86-.71,.67-1.33,1.87-1.5,2.95-.21,1.09-.17,2.05-.14,2.69,.04,.64,.07,.96,.07,.75,.03-.81,.15,.58,.16-.26-.03-.31-.06-.63-.09-.96,.08-1.21,.34-1.71,.32-1.27-.06,.51-.09,.4-.08-.03,.01-.43,.08-1.21,.39-2.03,.3-.82,.93-1.59,1.38-1.95,.45-.36,.63-.46,.17-.16,.26-.15,.52-.29,.78-.39-.38,.19-1.14,.64-1.68,1.31-.56,.66-.88,1.42-1.05,1.82,.06,.03-.22,1.12-.24,1.95l-.03,.29c-.02,.87,0,1.98,.09,1.46-.02-1.19,.09-1.63,.16-1.62,.07,0,.14,.42,.23,.82,.21,.8,.38,1.59,.46-.66-.13,.95-.16,.79-.16,.14,.01-.65,.11-1.84,.6-2.82,.15-.12,.63-1.11,2.04-1.71,1.19-.47,.7-.3,.91-.43,.7-.16,2.01-.25,1.85-.14,.94-.2,1.52-.07,2.66-.22,1-.14-.07-.04,.64-.15,1.51-.11,3.62-.24,4.82-.28,.47,.05,1.89,.13,.87,.31-2.28,.12,.86-.26-1.52-.09,1.03,.13-2.1,.17-2.52,.36,.76,.02,2.29-.07,3.58-.16h-.26c1.13-.1,3.39-.24,4.62-.17-.29,.08,.25,.11-.58,.15l1.56-.03c.2-.03,.4-.05-.05-.06,.73-.07,1.47-.07,2.04-.03,.17,.03,8.29-.37,8.04-.3,1.12,0,1.4,.12,2.49,.06,.03-.01-.63-.01-1.61,0-.98,.02-2.28,.04-3.54,.07-2.51,.07-4.85,.18-4.11,.16,.48,.02,3.66-.1,6.81-.16,3.15-.06,6.27-.07,6.62,0,.83,.01,1.84,.02,1.64-.05,1.41,.07-.42,.13,.58,.22,.02-.01-.08-.04,.24-.03l.96,.12c2.19-.06,5.39,.19,7.68,.11-.66,.06-1.42,.17-2.9,.2l-.26-.05c-.21,.02-1.42,0-1.39,.08,1.4,.09,2.59,.11,4.07,.08,.27,.03,.58,.06,.8,.08,0,0-.03-.02-.02-.03,.48,.06,.43,.06,.25,.09-.02,0-.05,0-.1,.01,.87,.23,5.5,.04,8.05,.2,.75-.01,.07-.03,1.01-.05,2.61,.14,4.41,.23,7.14,.32,.87-.08,.94-.12-.11-.22l2.06,.05c-1.88,.22,3.85,.26,1.78,.49,.6,.06,1.84,.08,3,.05,.12-.06,.3-.16,1.75-.15,2.02,.08,1.53,.06,3.22,.13,.4,.08-.22,.11-.15,.17,2.59-.1,2.26,.16,4.7,.14,1.53-.03,4.54-.07,4.62-.21,2.06-.01,2.06,.09,1.86,.2Z"/></g><g><path class="d" d="M51.53,206.26c-.03,1.86,.04,3.96,1.42,5.21,.99,.89,2.4,1.09,3.72,1.22,15.87,1.61,31.85-.2,47.8-.63,17.7-.48,35.4,.75,53.1,1.17,20.46,.48,40.95-.13,61.35-1.83,2.09-.17,4.44-.5,5.67-2.19,.94-1.3,.94-3.03,.9-4.63-.23-7.57,.29-15.14-.44-22.67,0,.06-73.06,.4-79.64,.44l-78.91,.44c-3.55,.02-14.42-.46-14.42-.46,0,0-.3,10.03-.35,12.86l-.19,11.07Z"/><path class="d" d="M137.49,213.91l1.67,.08c-5.39-.21-11.06-.42-16.66-.63,12.13,.74,26.51,1.89,35.98,1.06,1.01,.59,12.87,.95,13.12,.78,2.47-.1,4.96-.2,7.48-.3-1.73,.06-3.46,.12-5.17,.18,1.72-.06,3.44-.12,5.17-.18,7.97-.31,16.27-.66,24.81-1.12,4.27-.23,8.6-.5,12.98-.81,1.11-.09,2.16-.13,3.35-.26,1.17-.14,2.44-.35,3.7-1.03,.63-.34,1.24-.81,1.72-1.41,.5-.6,.83-1.31,1.03-1.99,.4-1.38,.36-2.65,.35-3.79-.05-2.29-.02-5.52,.03-9.29,.02-1.89,.05-3.91,.02-6.02-.01-1.05-.04-2.13-.08-3.22-.03-.55-.05-1.09-.08-1.65l-.06-.95-.12-1.51-.9-.03h-.45c-.15-.02-.32-.02-.38-.02l-.5,.02h-.25s-.03-.04-.03-.11v-.19l-.04-.38-.05-.77v-.19s-.09,0-.12,0h-.83s0,0-.01,0v.09l-.02,.18-.1,1.43-.83-1.19-.21-.3c-.07-.08-.14-.26-.21-.21h-2.05c-1.09,0-2.17,0-3.23,0-2.13,0-4.19,0-6.13-.01-3.88-.02-7.27-.04-9.7-.05-1.47,0-2.94-.02-4.42-.03l4.93,.07c-6.2,.17-11.81,.31-17.24,.46,.96,.07,1.12,.14,3.4,.24l-2.77-.04c-2.53,.23-8.35,.25-11.09,.36,.59-.12-1.57-.13-3.47-.14l.75,.07c-7.22-.01-15.61,.12-22.07,.14-.9,0-1.57-.04-1.98-.07l-6.19,.12c.48-.16-5.13-.11-2.18-.22-4.63,.21-9.33,.12-13.75,.34-15.79,.11-32.58,.32-48.9,.67l.4,.06c-2.85,.09-5.54,.18-8.39,.28-2.84,.08-5.83-.03-9.3-.17-1.24,0-2.61,0-4,.01-.71,0-1.42,0-2.13,0h-.26c-.02,.07,0,.18,0,.26v.53c0,.34,0,.68,0,1.01,.02,2.63,.07,4.89,.2,5.88-.13,5.72,.02,8.01,0,13.62,.18-1.44,.1,5.45,.27,2.7,.29-3.72,.1-3.93,.34-7.08l-.06,.09,.42-11.05,.11-2.76,.05-1.21,.03-.42v-.1h.12l.21,.02,.72,.04,2.79,.12,5.58,.23c1.86,.07,3.73,.18,5.59,.15,3.72,0,7.44,0,11.18,0,9.97-.19,20.79-.14,31.16-.24,11.16-.12,23.24-.29,32.82-.48,2.29-.06,3.93,.07,5.88,.13,8.81-.07,20.01-.17,29.95-.25h-.49c5.28-.06,9.23,.09,14.39,.03-.03-.05,.77-.05,1.16-.08,.36,.08,5.45,0,11.49-.12,6.06-.13,13.06-.28,17.2-.37,.36-.01,.68-.02,.94-.03,.1,.11,.06,.34,.08,.45,.01,.16,.02,.27,.01,.33,.02,.22,.04,.43,.06,.66l.06,.83c.25,5.38-.08,10.89-.14,16.27-.11,2.65,.32,5.61-.67,6.87-.45,.65-1.27,1.06-2.29,1.3-1.02,.24-2.14,.31-3.33,.41-2.01,.25-4.25,.54-5.96,.76-1.65,.03-1.95,.22-3.94,.33-5.06-.11-7.99,.21-5.39,.22-4.14,.29-8.3,.42-11.98,.56-1.71,.08-3.4,.17-5.13,.25-1.46,.08-2.28,.02-3.02-.06-3.75,.13-2.64,0-6.57,0-.95-.12-9.85,.25-10.96,.18l.64-.02c-4.54-.08-7.55-.42-11.99-.57-12.33-.48-25.83-1.07-37.33-1.2-.12,.15,2.54-.01,2.67,.2-6.77-.14-13.63-.26-20.46,.03-1.23,.02-2.74,0-3.31-.01-2.18,.05-1.28,.14-2.88,.2l-.22-.13c-2.32,.24-3.41,.02-5.6,.19-.11,.06-.91,.11-1.69,.14-.05-.14-2.39,.12-2.28-.02h-.02c-.47,.03-.8,.05-1.37,.05-.44,.04-2.74,.25-5.04,.42-2.3,.18-4.6,.3-5.05,.33l-.42-.03c-1.24,0-1.77,.11-1.05,.14l-1.53-.03h.18l-1.52-.05c-.28-.02-.6-.1-.16-.15-.86,.04-1.83,.02-2.69-.04,2.38,.22,5.37,.37,7.88,.53-1.03,.04-2.9-.02-4.02-.04-1.33-.12-4.08-.28-6.2-.5-.47-.02-.8,.13-1.86-.02-.51-.16-1.19-.1-2.07-.26,1.02,.02,2,.16,3.02,.22-.17-.13-2.48-.29-3.29-.4-.19,0-.8-.04-1.41-.14-.62-.09-1.22-.27-1.57-.45,.19,.02,.04-.06-.15-.21-.18-.14-.39-.37-.47-.58-.24-.42-.38-.83-.35-.57-.1-.07,.06,.53,.33,.87,.25,.35,.59,.56,.24,.41-.06-.08-.27-.29-.46-.6-.19-.31-.35-.77-.42-1.12-.08,0,.05,.49-.12,.05-.16-.8-.25-1.8-.17-2.35,.02,.18,0,.57,.01,.84,.01-.65,.05,1.18,.64,2.21,.29,.51,.65,.75,.93,.87,.28,.12,.43,.14,.18,.04,.08,.05-.94-.12-1.36-1.51-.43-1.35-.36-3.18-.4-2.73-.05,.77-.13-.55-.17,.24,.03,.29,.06,.58,.1,.86,.01,1.03-.02,1.42-.13,1.09-.07-.88,.09,.45,.62,1.32,.52,.86,1.41,1.04,.94,.85,.11,.08,.22,.17,.36,.24-.23-.08-.6-.25-.85-.56-.27-.29-.44-.71-.48-.98-.07,.03-.31-.65-.38-1.34v-.24c-.09-.7-.04-1.78-.15-1.28,0,1.11,0,1.44-.08,1.45-.07,0-.2-.34-.3-.71-.19-.75-.44-1.54-.4,.66,.04-.92,.1-.76,.14-.15,.05,.61,.18,1.69,.59,2.47,.04,.14,.26,1.02,1.46,1.64,1.08,.4,.67,.16,.88,.2,.6,.22,1.88,.37,1.71,.44,.96-.02,1.51,.2,2.64,.27,1,.04-.06-.05,.65-.04,1.5,.12,3.61,.25,4.81,.31,.46,.11,1.87,.29,.84,.39-2.29-.11,.88-.17-1.5-.24,1.02,.23-2.11-.03-2.55,.06,.75,.15,2.29,.21,3.58,.24l-.26-.04c1.13,.03,3.4,.03,4.63,.14-.29,.07,.25,.12-.59,.13l1.56,.02c.2-.02,.4-.04-.05-.06,.74-.05,1.47-.02,2.04,.01,.18,.11,8.3-.47,8.05-.44,1.12-.05,1.4,.05,2.49-.07-.25,.01-7.82,.42-9.26,.5,.48,.04,3.67-.11,6.82-.31,3.15-.21,6.26-.44,6.61-.39,.83-.05,1.83-.11,1.64-.17,1.41-.04-.41,.16,.59,.17,.02-.01-.08-.03,.24-.05l.97,.04c2.18-.23,5.39-.24,7.66-.49-.66,.11-1.41,.28-2.87,.42l-.26-.02c-.21,.03-1.42,.12-1.38,.19,1.4-.02,2.59-.09,4.06-.23,.27,0,.58,.02,.8,.02,0,0-.03-.02-.02-.03,.48,.02,.43,.03,.26,.07-.02,0-.05,.01-.1,.02,.88,.17,5.48-.36,8.03-.28,.75-.05,.07-.04,1-.1,2.61,.06,4.41,.1,7.13,.16,.87-.08,.94-.12-.11-.22l2.06,.05c-1.87,.22,3.84,.27,1.78,.49,.6,.07,1.83,.09,2.99,.08,.12-.06,.3-.15,1.75-.12,2.02,.13,1.53,.1,3.21,.21,.39,.09-.22,.1-.15,.17,2.58-.03,2.24,.24,4.68,.3,1.52,.03,4.53,.13,4.61,0,2.05,.08,2.05,.18,1.84,.29Z"/></g><path class="b" d="M65.86,104.35l.12-.04c-.39,.15-.77,.31-1.13,.52,.89-.29,1.92-.31,2.58-1.03,.14,.28,1.1,.31,1.11,.24,.2-.08,.4-.14,.61-.2-.14,.03-.28,.07-.42,.11,.14-.04,.28-.08,.42-.11,1.33-.33,2.86-.3,4.4-.24,.86,.02,3.17,.04,4.04,.14l.38,.03-.42-.06c.53-.08,1.01-.15,1.48-.2-.08-.05-.09-.09-.29-.16l.24,.04c.22-.12,.72-.1,.96-.15-.05,.07,.13,.09,.29,.11l-.06-.05c.62,.06,1.34,.05,1.89,.12,.08,0,.13,.04,.16,.07h.53c-.05,.09,.43,.13,.17,.16,.41-.07,.79,.05,1.18,0,.68,.09,1.32,.16,1.79,.44,.48,.26,.85,.79,1.1,1.39l.02-.04c.18,.42,.42,.83,.38,1.43,.14,.42,.18,1.04,.37,1.22,.02,.49,.11,.69,.19,1.15,.08-.13,.16,.44,.21,.2,.1-.3,0-.31,.09-.57h-.03c.05-.59,.15-1.22,.18-1.91,.04-.68,0-1.47-.26-2.22-.22-.49-.51-1-.95-1.45-.43-.46-1.05-.77-1.58-.89-.58-.14-1.09-.17-1.59-.22-.5-.05-.98-.06-1.41-.07-.2,0-.34-.09-.51-.15-.78-.03-1.77-.13-2.65-.1h.04c-.47,0-.81-.1-1.27-.1,0,.03-.07,.03-.1,.04-.08-.14-2.66,.27-2.82,.21l-.14,.02c-.95-.03-1.94-.24-2.76-.18-.17,.07-.37,.13-.52,.2-.15-.05-.17,.06-.34,.05-.45-.23-.7-.11-.47-.03-.36,.05-.72,.05-1.04,.08l-.45,.08c-.13,.03-.2,0-.27-.06-.33,.06-.24-.01-.59,0-.09-.08-.87,.23-.97,.22l.06-.02c-.41,.04-.71-.09-1.12,0-1.14,.17-2.42,.72-3.32,1.53,.05,.08,.19-.19,.28-.1-.54,.42-1.1,.92-1.44,1.57-.08,.1-.18,.23-.24,.28-.12,.2,0,.14-.08,.3h-.09c-.02,.25-.2,.31-.22,.55,.03,.02,.02,.1,0,.18-.09-.01-.04,.24-.12,.22h0c0,.05,0,.09-.03,.14,0,.11,.16,.95,.21,1.02l-.02,.04c0,.12,.06,.17,.08,.1v.14l-.02-.02v.14s-.06,.06-.1,.01c.03,.08,.05,.17,.03,.25,.05-.22,.14-.5,.24-.73,.03,.1-.03,.27-.02,.37-.06,.12-.11,.38-.15,.57,0,.04,.11,.07,.06,.17-.07,.05,0,.11-.04,.19-.04-.09-.03-.18-.02-.28-.08,.02-.05,.23-.07,.31,.03,.03,0,.22,.04,.33-.08-.05-.05,.09-.08,.16,0,.08,.03,.12,.05,.09,.09,.02,.03-.3,.13-.2-.04,.03-.02,.18,0,.26,.05,0,.03-.06,.08,0,0,.09,.06,.18,.01,.23-.01-.02,0-.05,0-.08,0,.12-.34-.6-.3-.46,.04-.04,.31,.64,.31,.56,.02-.07,.09,.04,.1-.03l-.06-.08c.01-.1,.09-.14,.12-.11,0,.17-.34-.45-.29-.31l.02-.06c.03,.06,.07,.22,.02,.28,.05,0,.07,.08,.09,.14v.02c.02,.07,.02,.16,.07,.12-.03-.4,.48,.24,.48-.15-.09,.17-.11-.05-.13-.22,.03-.02,.08-.1,.1-.22-.01-.11-.04-.06-.07-.08,.02-.06,.03-.17,.09-.16-.07-.08,.03-.13,.01-.23-.03-.09-.03,0-.06-.05,0-.13,.01-.32,.02-.42,.05-.04,.14-.16,.22-.07-.01,.2-.13-.08-.11,.13,.11-.09,.03,.18,.12,.22,.05-.07,.05-.2,.04-.31l-.02,.02c-.02-.1-.03-.29,.03-.4,.04,.03,.07-.02,.08,.05v-.13s-.01-.04-.02,0c-.03-.06,0-.13,.02-.17,.04,0-.11-.72-.08-.7,.02-.1,.08-.11,.05-.21-.05-.01,.02,.93,.03,.8,.03-.07-.07-1.11,.04-1.15,.02-.07,.03-.16-.01-.15,.05-.11,.07,.06,.13-.01,0,0-.02,0-.01-.03l.07-.06c0-.2,.17-.42,.17-.63,.01,.07,.07,.16,.06,.29h-.03s-.02,.13,.02,.14c.07-.1,.1-.18,.11-.31l.06-.04h-.02s.04-.02,.05,0h0c.14,0,.13-.42,.32-.54,.02-.06-.01-.02,.01-.09,.16-.14,.3-.21,.46-.35,.01-.08,0-.11-.1-.09l.14-.1c-.01,.2,.32-.09,.29,.12,.05,0,.13-.06,.19-.12-.01-.03-.04-.09,.05-.15,.15-.05,.12-.04,.25-.07,.05,.03,.02,.06,.04,.09,.14-.15,.19,0,.35-.09,.1-.06,.3-.17,.27-.24,.15-.06,.17,0,.18,.07Z"/><path class="b" d="M65.39,199.02l.16,.03c-.51-.05-1.08-.15-1.66-.43,.59,.41,1.27,.62,1.85,.69,.57,.07,1.09,.01,1.53-.26,.07,.32,1.11,.54,1.13,.46,.22-.05,.44-.08,.67-.11l-.46,.05,.46-.05c1.42-.17,2.94,0,4.52,.17,.88,.09,3.26,.19,4.16,.28l.39,.03-.44-.06c.55-.08,1.05-.17,1.53-.23-.09-.05-.1-.09-.3-.15l.25,.03c.22-.13,.74-.14,.98-.19-.05,.07,.14,.08,.31,.09l-.07-.04c.64,.02,1.38-.05,1.95-.06,.08,0,.14,.02,.18,.04l.55-.07c-.04,.09,.46,.07,.2,.13,.4-.12,.83-.07,1.24-.22,.72-.08,1.53-.2,2.29-.74,.37-.27,.68-.73,.77-1.17,.1-.44,.09-.8,.09-1.17l-.04,.03c-.01-.52-.18-.98-.14-1.6-.14-.44-.27-1.05-.49-1.19-.1-.49-.23-.66-.39-1.11-.06,.14-.23-.42-.24-.17-.05,.33,.06,.32,.01,.6h.03c.11,1.21,.09,2.43-.11,3.62,0,.44-.07,.71-.18,.81-.11,.14-.37,.28-.72,.39-.73,.25-1.8,.3-2.64,.42-.2,.03-.35-.04-.52-.08-.77,.07-1.75,.05-2.62,.11h.04c-.46,.03-.81-.07-1.26-.05,0,.03-.07,.03-.1,.04-.08-.12-2.66,.26-2.82,.17h-.15c-.95-.06-1.93-.33-2.75-.34-.18,.05-.38,.1-.53,.16-.14-.06-.17,.04-.35,.02-.43-.27-.7-.18-.47-.08-.37,.02-.73-.02-1.05-.03l-.45,.04c-.13,.01-.2-.03-.26-.09-.33,.02-.23-.04-.57-.08-.08-.09-.87,.09-.97,.06h.06c-.4-.05-.65-.24-1.04-.27-.55-.06-1.07-.11-1.6-.17-.48-.06-.9-.2-1.06-.36-.06,.07,.1,.05,.04,.15-.28-.21-.24-.42-.31-.99,.01-.1,.04-.24,.07-.29,.01-.18-.06-.1-.06-.24l.08-.03c-.09-.19,.06-.29,.01-.47-.03,0-.05-.07-.05-.14,.09,0-.02-.2,.06-.19h0s0-.07,0-.12c-.04-.07-.31-.76-.35-.84v-.04c0-.11-.06-.15-.07-.09v-.12l.02-.13s.05-.05,.09-.01c-.03-.07-.05-.16-.03-.23-.06,.2-.14,.46-.22,.67-.03-.09,.01-.25,0-.34,.06-.11,.11-.35,.16-.53,0-.04-.1-.07-.06-.16,.07-.04,0-.1,.05-.18,.03,.09,.01,.17,0,.26,.08-.01,.06-.21,.09-.28-.02-.03,.01-.2,0-.31,.07,.05,.06-.08,.1-.14,.01-.07-.01-.12-.04-.09-.08-.03-.07,.28-.15,.18,.04-.02,.04-.17,.04-.24-.05,0-.04,.05-.08,0,.02-.08-.03-.18,.02-.22,.01,.02,0,.05,0,.08,.01-.11,.26,.61,.24,.47-.05,.04-.23-.64-.24-.57-.03,.07-.08-.06-.1,.01l.05,.08c-.03,.09-.11,.13-.14,.09,.02-.16,.28,.48,.25,.33l-.03,.05c-.03-.06-.04-.21,.01-.27-.05,0-.06-.08-.07-.15v-.02c0-.07,.01-.16-.05-.12-.03,.39-.44-.3-.5,.08,.11-.15,.1,.06,.1,.23-.04,.01-.09,.09-.13,.21,0,.11,.03,.06,.06,.09-.03,.06-.05,.17-.1,.15,.06,.09-.05,.13-.03,.23,.03,.09,.03,0,.06,.06-.01,.13-.03,.3-.04,.42-.05,.04-.14,.16-.22,.07,.01-.2,.12,.08,.11-.13-.12,.09-.03-.19-.11-.23-.05,.07-.06,.2-.04,.32l.02-.02c.01,.1,.04,.3-.02,.41-.04-.03-.07,.02-.08-.05v.14s.02,.04,.03,0c.03,.07,.02,.13,0,.18-.04,.02,.2,.73,.18,.71,0,.1-.06,.13,0,.22,.03,.01-.19-.94-.17-.81-.05,.09,.27,1.12,.2,1.18,0,.07,.03,.16,.07,.14,0,.13-.09-.03-.12,.06,0,0,.02,0,.02,.02l-.05,.09c.08,.19,.03,.48,.15,.67-.05-.05-.14-.11-.2-.23l.02-.03s-.04-.12-.08-.11c-.01,.13,0,.23,.07,.36l-.03,.08h.02s-.03,.04-.04,.03h-.01c-.12,.09,.15,.49,.19,.75,.04,.07,.02,0,.08,.08,.06,.26,.14,.47,.34,.71,.11,.03,.12,.01,.08-.1,.05,.06,.1,.11,.15,.16-.26,0,.26,.36,0,.34,.04,.07,.16,.15,.29,.18,.03-.03,.07-.07,.21-.01,.18,.12,.14,.08,.29,.18,.03,.06-.04,.06-.04,.09,.27,.01,.2,.16,.45,.21,.16,.02,.45,.05,.46-.03,.19,.03,.19,.09,.16,.15Z"/><path class="b" d="M199.06,110.56l.23,.02c-.75-.03-1.58-.15-2.37-.46,1.7,.89,3.82,.91,4.97,.3,.15,.31,1.7,.41,1.73,.33,.32-.07,.65-.13,.97-.18-.22,.03-.44,.07-.67,.1,.24-.04,.46-.07,.67-.1,1.04-.16,2.13-.23,3.25-.26,.56-.01,1.13-.02,1.71-.01,.6,0,1.11,.03,1.81,0,.37-.05,1.03-.03,1.79-.64,.37-.3,.63-.79,.74-1.2,.12-.41,.14-.78,.17-1.09,.11-1.24,.14-2.5,.17-3.19,0-.2,0-.4,0-.6l-.03,.67c-.11-.84-.24-1.59-.36-2.31-.03,.13-.08,.16-.11,.47v-.37c-.15-.3-.23-1.18-.51-1.61,.1,.07-.02-.3-.26-.58,.02,.05,.04,.09,.05,.14-.4-.57-1.07-.86-1.62-.98-.57-.13-1.06-.15-1.46-.22-.12-.02-.2-.05-.25-.09l-.81-.06c.08-.08-.66-.17-.27-.18-.62,.02-1.23-.12-1.82-.08-2.07-.24-4.31-.38-6.48-.22l.05,.03c-.76,.06-1.42,.26-2.34,.3-.64,.18-1.54,.46-1.7,.75-.64,.27-.87,.55-1,1.01,.06-.04,.05,.07,.08,.17,0,.07,.04,.27,.08,.07,.09-.13,.09-.17,.12-.22,0-.05,.06-.09,.15-.14l-.03-.02c.43-.36,1.4-.53,2.28-.6,.9-.07,1.85-.06,2.8-.02,1.28-.06,2.67,.1,4.01,.21,1.41,.12,2.96,.24,4.27,.35,.3,.01,.5,.12,.75,.21,.61,.06,1.21,.12,1.63,.31,.4,.19,.53,.4,.65,.98v-.05c.09,.58,.03,1.16,.08,1.8,.03,0,.03,.1,.05,.15-.06,.06,.06,1.03,.12,2.02,.07,.99,.09,2.02,.04,2.11v.19c-.13,.65-.36,.74-.89,.81-.51,.04-1.25-.04-1.86,0-.26,.07-.56,.13-.78,.21-.22-.05-.26,.06-.52,.05-.67-.23-1.06-.11-.71-.03-.54,.05-1.09,.05-1.58,.07l-.67,.08c-.19,.03-.3,0-.4-.06-.49,.05-.35-.01-.87-.02-.13-.08-1.29,.19-1.44,.16l.08-.02c-.6,0-1-.15-1.59-.14-.83,0-1.61,.02-2.38-.05-.75-.07-1.46-.24-1.93-.55-.06,.08,.23,.11,.19,.22-.65-.33-.98-.88-1.12-1.51-.01-.12,0-.28,.03-.35,0-.23-.06-.13-.07-.3l.08-.03c-.09-.25,.07-.39,.03-.65-.03-.01-.04-.11-.04-.21,.09,0,0-.31,.07-.29h0c0-.06,0-.11,.01-.18-.03-.13-.28-1.19-.31-1.34v-.06c.01-.16-.05-.23-.07-.14v-.18l.02-.2s.05-.08,.09-.02c-.03-.11-.05-.24-.03-.36-.06,.32-.13,.71-.22,1.05-.03-.14,.02-.38,0-.53,.06-.18,.11-.54,.15-.82,0-.06-.1-.1-.06-.25,.07-.07,0-.16,.05-.28,.04,.13,.02,.27,.02,.4,.08-.02,.05-.33,.08-.44-.03-.05,0-.31-.02-.48,.08,.07,.05-.13,.09-.23,0-.11-.02-.18-.05-.14-.08-.04-.05,.44-.14,.29,.04-.04,.03-.26,.02-.38-.05,0-.04,.08-.08,0,.01-.13-.05-.27,0-.34,.01,.02,0,.08,0,.12,0-.17,.3,.92,.28,.7-.04,.06-.28-.97-.28-.86-.02,.1-.08-.07-.1,.03l.06,.12c-.02,.15-.1,.21-.13,.16,0-.25,.32,.7,.27,.49l-.02,.09c-.03-.09-.06-.33,0-.42-.05,0-.06-.12-.08-.22v-.04c-.02-.1,0-.25-.07-.18,0,.6-.47-.4-.49,.19,.1-.25,.1,.08,.12,.34-.03,.02-.08,.14-.11,.32,0,.16,.04,.09,.06,.13-.02,.09-.04,.26-.09,.24,.06,.12-.04,.2-.02,.35,.03,.13,.03,0,.06,.08,0,.2-.02,.46-.03,.63-.05,.06-.14,.25-.22,.11,.01-.3,.13,.11,.11-.2-.11,.13-.03-.28-.12-.33-.05,.1-.05,.3-.04,.47l.02-.03c.02,.15,.04,.45-.02,.61-.04-.04-.07,.03-.08-.08v.21s.02,.05,.03,0c.03,.1,.01,.19,0,.27-.04,.02,.18,1.09,.15,1.06,0,.15-.06,.18-.02,.33,.03,.02-.15-1.41-.13-1.22-.05,.13,.21,1.67,.14,1.77,0,.11,.02,.24,.06,.21-.01,.19-.08-.05-.12,.08,0,0,.02-.01,.02,.03l-.05,.13c.08,.28,.05,.73,.22,1.01-.07-.07-.17-.16-.25-.35l.02-.04s-.06-.19-.1-.18c0,.2,.03,.36,.12,.56v.12h.01c0,.07-.01,.06-.04,.04,0,0,0,0-.01-.01-.1,.17,.33,.74,.52,1.06,.08,.08,.02,0,.12,.09,.2,.33,.38,.54,.69,.8,.14,.03,.15,.01,.06-.12,.08,.07,.16,.11,.24,.17-.32,0,.43,.38,.1,.37,.07,.06,.24,.16,.41,.19,.03-.03,.07-.07,.27,0l.43,.2c.04,.06-.05,.06-.05,.1,.38,.02,.3,.18,.65,.22,.22,.02,.65,.06,.66-.02,.29,.03,.28,.09,.25,.15Z"/><g><path class="c" d="M157.32,111.98c10.38,3.3,19.41,10.69,24.7,20.22,4.28,7.71,6.11,16.95,4.03,25.52-.68,2.82-1.77,5.53-3.08,8.12-7.18,14.21-21.96,24.78-37.87,25.19-10.34,.26-20.72-3.74-28.21-10.88-6.84-6.52-11.2-15.55-12.18-24.95-.98-9.4,1.41-19.09,6.54-27.03,1.2-1.86,2.55-3.63,4.19-5.11,2.76-2.51,7.59-7.76,17.32-11.53,8.01-2.17,16.64-2.05,24.55,.47Z"/><path class="c" d="M185.05,155.85l-.23,.99c.72-3.19,.91-6.68,.58-10.09,.22,3.74-.28,7.76-1.3,11.37-1.02,3.64-2.56,6.95-3.57,9.72-.2,.07-.61,.49-1.1,1.09-.25,.3-.52,.64-.79,1.01-.3,.36-.6,.73-.91,1.09-1.17,1.51-2.44,2.84-2.42,2.96-.42,.62-.94,1.18-1.42,1.77-.49,.59-.99,1.17-1.54,1.71,.77-.73,1.43-1.56,2.12-2.35-.69,.79-1.35,1.62-2.12,2.35-6.68,7.09-17.08,12.14-28.01,12-1.51,0-3.67-.14-6.11-.56-2.44-.42-5.17-1.15-7.77-2.2-2.61-1.05-5.08-2.4-7.14-3.8-2.06-1.4-3.71-2.82-4.79-3.9-.63-.62-1.25-1.25-1.84-1.93,.47,.57,.75,.83,1,1.1,.26,.27,.5,.55,1.04,1.06-2.86-2.42-5.09-5.05-6.91-7.83,.26,.53,.21,.68,.92,1.88-.32-.47-.61-.96-.89-1.45-.51-.59-1.22-1.68-1.84-2.83-.64-1.14-1.19-2.35-1.55-3.12,.25,.29-.25-.94-.61-2.06l.09,.46c-.74-2.11-1.37-4.44-1.78-6.76-.41-2.31-.59-4.61-.58-6.61,0-.56,.04-.97,.1-1.22,.02-1.27,.08-2.55,.22-3.82,.06,.16,.19-.63,.31-1.22,.13-.59,.22-.99,.11-.08,.28-2.85,1.15-5.64,1.95-8.26,.87-2.29,1.95-4.53,3.24-6.69,1.28-2.16,2.75-4.23,4.56-5.93,1.91-1.83,3.73-3.62,5.76-5.21,2.01-1.59,4.16-3.02,6.39-4.26l-.25,.06c1.57-.87,3.06-1.67,4.7-2.4,1.62-.58,3.53-1.01,5.69-1.27,1.54-.32,3.43-.55,5.1-.68,1.67-.11,3.11-.16,3.75-.27,1.83,.09,3.11,.23,4.38,.37,1.27,.17,2.53,.34,4.29,.78-.84-.44,3.42,.83,1.76,.19-1.13-.46-1.74-.64-2.32-.78-.57-.16-1.11-.27-2.1-.58l.05,.07c-4.69-1.09-9.57-1.36-14.4-.87-1.21,.13-2.41,.3-3.61,.53-.6,.13-1.2,.23-1.79,.38l-.89,.21c-.13,.02-.5,.14-.58,.19l-.42,.17c-2.26,.88-4.48,1.93-6.61,3.17-2.8,1.7-5.54,3.79-8.06,6.09l-1.85,1.72c-.57,.53-1.28,1.15-1.88,1.81-1.22,1.31-2.26,2.73-3.18,4.17-.98,1.56-1.88,3.2-2.68,4.9-.78,1.7-1.46,3.46-2.02,5.21-.55,1.76-.97,3.52-1.29,5.22-.29,1.71-.51,3.37-.59,4.94-.07,1.49-.23,2.56-.3,3.84,.05,2.89,.43,6.18,1.23,9.46,.82,3.28,2.05,6.54,3.6,9.4-.05-.11-.11-.22-.14-.29,1.61,3.05,2.91,5.32,5.1,7.92,.02-.04,.36,.36,.54,.54,.07,.13,.92,1.15,2.31,2.46,1.4,1.31,3.36,2.89,5.48,4.25,4.23,2.79,9.1,4.4,9.64,4.61,.33,.11,.67,.22,1.03,.32,3.35,1.12,6.9,1.9,10.4,2.16,3.5,.3,6.91,0,9.92-.63,.64-.19,1.32-.39,1.97-.59,.64-.24,1.25-.48,1.77-.69,1.06-.21,1.2-.45,2.42-.9,1.63-.35,2.83-.89,3.45-1.18,.62-.3,.63-.39-.17-.1,1.24-.56,2.39-1.28,3.56-1.89,1.12-.7,2.22-1.35,3.19-2.05,.87-.7,1.79-1.32,2.61-2.09,.71-.63,1.16-.92,1.6-1.16,.89-.84,1.2-1.14,1.54-1.42,.33-.3,.73-.55,1.61-1.48,.25-.19,1.37-1.35,2.31-2.68,1.01-1.27,1.86-2.67,2.1-2.94l-.23,.35c1.77-2.36,2.99-3.94,4.37-6.51,1.87-3.56,3.32-7.69,3.81-11.9,.52-4.2,.12-8.37-.68-12.06-.15-.05,.37,1.63,.18,1.75-.75-4.37-2.11-8.7-4.27-12.65-.37-.72-.81-1.62-.96-1.96-.74-1.24-.53-.67-1.09-1.56l.04-.2c-.99-1.18-1.19-1.93-2.16-3.02-.09-.02-.42-.44-.77-.82,.1-.12-1.06-1.19-.91-1.22h-.02c-.21-.23-.38-.38-.62-.68-.11-.1-.46-.4-.92-.81l-1.67-1.35c-.62-.45-1.23-.9-1.73-1.27-.51-.33-.89-.58-1.02-.67l-.2-.19c-.65-.51-1.01-.6-.63-.31l-.82-.59,.1,.06-.81-.59c-.14-.12-.28-.29,0-.19-.51-.27-1.06-.59-1.53-.92,1.29,.92,2.85,2.13,4.03,3.29-.28-.19-.65-.49-1.02-.79-.38-.29-.77-.58-1.08-.79-.32-.3-.85-.72-1.46-1.14-.59-.44-1.26-.89-1.86-1.26-.28-.14-.53-.12-1.12-.51-.25-.26-.71-.36-1.19-.7,.62,.26,1.2,.57,1.79,.91-.02-.2-1.42-.85-1.88-1.14-.24-.09-1.42-.66-2.19-.97,.39,.02-.59-.33-1.02-.57-.51-.22-.87-.31-.67-.18-.22,.07,2.03,.9,1.25,.75-.16-.13-1.18-.53-1.73-.72-.03,.07,.36,.19-.03,.13-.61-.23-1.29-.37-1.62-.56,.12,.02,.37,.12,.55,.18-.4-.13,.73,.09,1.82,.39,1.09,.3,2.14,.63,1.63,.43,.12,.08-1.05-.27-2.19-.6-1.15-.29-2.25-.56-1.99-.47,.48,.2-.39,.01,.1,.21l.59,.1c.68,.27,.92,.49,.66,.46-.58-.19,.3-.07,1.16,.16,.87,.22,1.77,.46,1.26,.3,.13,.06,.25,.13,.38,.2-.43-.14-1.55-.53-1.94-.77-.03,.06-.6-.11-1.08-.24l-.16-.07c-.5-.13-1.17-.38-.88-.18,2.82,.96-2.08,.1,.61,1.08-1.08-.54,.45-.06,1.62,.39,.09,.1,.58,.38,1.4,.77,.71,.31,.44,.13,.6,.16,.38,.22,1.12,.59,.98,.62,.59,.17,.83,.5,1.5,.8,.59,.25-.02-.06,.41,.1,.83,.49,2,1.17,2.62,1.62,.21,.23,.88,.84,.26,.59-1.21-.8,.58,.12-.71-.67,.22,.26-.07,.09-.45-.15-.39-.22-.88-.5-1.04-.51,.38,.31,1.21,.8,1.9,1.23l-.12-.11c.63,.35,1.82,1.15,2.39,1.68-.19-.05,.06,.18-.38-.11,.27,.19,.53,.39,.78,.6,.11,.06,.23,.12,.01-.06,.4,.24,.75,.55,1,.8,.03,.05,1.07,.84,2.08,1.63,.49,.41,.98,.82,1.33,1.11,.34,.31,.55,.51,.52,.49,.49,.52,.55,.7,1.06,1.17,.03,0-.26-.3-.71-.73-.44-.43-1.03-1.01-1.65-1.52-1.18-1.06-2.4-1.92-2.02-1.64,.1,.11,.55,.48,1.16,.97,.58,.53,1.37,1.15,2.08,1.86,1.47,1.35,2.76,2.86,2.85,3.07,.33,.41,.74,.9,.72,.76,.5,.74-.26-.13,.06,.42,.02,0,0-.06,.11,.1l.28,.55c.93,1.04,1.87,2.84,2.72,4.02-.28-.32-.64-.67-1.17-1.43l-.06-.16c-.09-.1-.53-.72-.58-.66,.45,.75,.84,1.39,1.37,2.16l.2,.46s0-.02,.02-.03c.1,.29,.08,.26,0,.18-.01-.01-.02-.02-.04-.05,.09,.57,1.7,2.99,2.17,4.54,.19,.43,.05,.03,.29,.56,.5,1.56,.77,2.66,1.15,4.31,.21,.51,.26,.54,.2-.12l.27,1.26c-.47-1.09,.24,2.4-.25,1.18,.03,.37,.12,1.13,.26,1.83,.07,.06,.19,.16,.27,1.06,.05,1.25,.02,.95,0,1.99-.07,.25-.12-.13-.18-.08,.1,.79,.02,1.14-.02,1.47-.05,.33-.11,.65-.15,1.39,0,.93-.22,2.75-.1,2.82-.2,1.24-.31,1.22-.39,1.08Z"/></g><path class="d" d="M153.59,122.27l.17,.06c-.55-.16-1.12-.36-1.69-.55,1.17,.68,2.48,1.45,3.7,1.04-.03,.43,1.06,1.06,1.12,.97,.27,.02,.54,.06,.8,.12-.18-.04-.36-.08-.54-.11,.18,.03,.36,.07,.54,.11,1.68,.35,3.29,1.29,4.76,2.46,.42,.3,1.18,.89,1.91,1.52,.74,.62,1.4,1.32,1.76,1.71,.1,.12,.2,.24,.3,.35-.16-.21-.15-.21-.31-.41,.54,.36,1.04,.7,1.48,1.06-.02-.11,.01-.17-.1-.4,.06,.08,.12,.16,.17,.24,.31,.08,.72,.54,.97,.71-.11,.02,.03,.19,.15,.36v-.1c.45,.62,1.07,1.26,1.45,1.83,.06,.08,.07,.16,.07,.21,.15,.16,.3,.32,.43,.5-.13,.03,.21,.52-.03,.3,.38,.33,.6,.79,.95,1.12,.88,1.43,1.74,3,2.53,4.58l.03-.06c.31,.54,.68,.99,.84,1.74,.31,.47,.57,1.2,.88,1.35,.18,.61,.34,.83,.53,1.43,.1-.18,.27,.57,.31,.25,.09-.44-.06-.44,.01-.82l-.04,.02c-.13-1.67-.49-3.34-1.05-4.95-.5-1.03-.94-2.18-1.51-3.21-.3-.56-.69-1.1-1.03-1.64-.37-.52-.75-1.01-1.09-1.43-.18-.19-.2-.4-.29-.61-.31-.39-.65-.84-1.03-1.29-.36-.46-.76-.91-1.17-1.29l.03,.04c-.41-.43-.63-.85-1.06-1.24-.02,.03-.09-.03-.13-.05,.03-.1-.65-.64-1.37-1.14-.71-.51-1.49-.95-1.53-1.06l-.16-.1c-.47-.39-.92-.84-1.37-1.25-.47-.39-.92-.78-1.38-1.04-.24-.05-.5-.11-.71-.13-.13-.15-.23-.05-.42-.17-.35-.57-.71-.59-.5-.35-.44-.17-.85-.4-1.23-.56-.18-.05-.36-.11-.56-.16-.16-.04-.23-.12-.27-.23-.41-.12-.26-.15-.65-.35-.05-.15-1.1-.23-1.2-.31h.07c-.47-.19-.71-.52-1.18-.69-1.28-.54-2.77-.88-4.02-1.21-.04,.12,.28,.04,.26,.2-.73-.2-1.46-.51-2.22-.66-.13-.06-.29-.15-.35-.2-.24-.08-.15,.04-.33,0v-.11c-.29,.05-.38-.18-.64-.16-.02,.04-.11,.04-.2,.02,0-.12-.28-.02-.25-.13h0c-.05,0-.09,0-.16-.02-.11,.03-1.1,.27-1.2,.32l-.05-.02c-.14,0-.21,.08-.13,.11l-.18-.02h.02l-.17-.02s-.07-.07-.01-.12c-.1,.04-.21,.06-.31,.03,.28,.08,.61,.2,.89,.34-.12,.03-.33-.04-.46-.04-.15-.08-.46-.16-.71-.22-.05,0-.09,.14-.21,.08-.06-.09-.14,0-.24-.06,.12-.05,.23-.03,.35-.02-.02-.11-.29-.07-.38-.1-.04,.03-.27,0-.42,.03,.06-.11-.12-.06-.21-.12-.1,0-.16,.03-.12,.07-.03,.11,.39,.05,.26,.18-.04-.05-.23-.03-.33-.02,0,.06,.07,.04,0,.11-.11,0-.23,.07-.3,0,.02-.02,.07,0,.1,0-.15,0,.79-.43,.6-.39,.05,.05-.84,.39-.74,.39,.09,.03-.06,.11,.04,.13l.1-.08c.13,.02,.18,.13,.14,.17-.22,0,.59-.44,.41-.37l.08,.03c-.08,.04-.28,.08-.36,.02,0,.06-.1,.09-.19,.11h-.03c-.09,.02-.21,.01-.15,.09,.52-.03-.31,.63,.19,.65-.21-.13,.06-.14,.28-.16,.02,.05,.12,.11,.28,.14,.13-.01,.08-.05,.1-.08,.08,.03,.22,.06,.2,.13,.1-.08,.17,.05,.29,.02,.11-.04,0-.04,.07-.08,.17,0,.4,.03,.53,.05,.05,.07,.2,.19,.08,.29-.25-.02,.1-.17-.16-.15,.11,.16-.23,.03-.28,.15,.08,.07,.25,.08,.39,.06l-.03-.02c.12-.02,.37-.04,.5,.05-.03,.05,.02,.09-.07,.1l.17,.02s.05-.03,0-.05c.08-.04,.16,0,.22,.03,.01,.05,.92-.16,.89-.13,.12,0,.14,.1,.27,.05,.02-.05-1.18,.08-1.02,.08,.1,.06,1.4-.15,1.47-.03,.09,0,.2,.01,.19-.05,.15,.05-.06,.1,.04,.17,0,0,0-.03,.03-.02l.09,.09c.25-.06,.57,.11,.84,.04-.08,.05-.18,.14-.35,.17l-.02-.03s-.16,.01-.16,.07c.14,.06,.27,.07,.44,.04,.03,.02,.06,.04,.08,.06v-.02s.04,.05,.02,.07c0,0,0,0-.01,.01,.06,.18,.6,0,.86,.14,.08,0,.01-.03,.12-.04,.26,.12,.44,.22,.72,.32,.11-.05,.12-.08,.03-.17l.21,.07c-.24,.14,.36,.28,.1,.41,.05,.06,.18,.1,.31,.1,.02-.04,.06-.12,.21-.08,.19,.12,.15,.08,.31,.19,.02,.07-.05,.08-.05,.13,.29,0,.2,.19,.45,.25,.16,.03,.47,.11,.51,0,.21,.07,.19,.15,.14,.23Z"/><g><path class="d" d="M177.17,153.86c-.24,.31-.66,.41-1.05,.46-2.09,.3-3.45-2.2-1.4-3.31,1.72-.94,3.68,1.22,2.45,2.85Z"/><path class="d" d="M175.25,153.12v-.02c.06,.02,.11,.1,.18,.16-.1-.44,.14-.69-.52-.2,.28-.33,.39-.5,.31-.44-.07,.03-.13,.05-.19,.05,.04,0,.07,0,.11-.02-.04,.01-.08,.02-.11,.02-.38,.04-.23-.3-.03-.3,.05-.01,.11-.01,.21-.03,.09-.01,.26-.05,.29,.01l.04,.03-.05-.06c-.01-.13,0-.23,.04-.32-.02-.06-.03-.11-.07-.19l.04,.03c0-.19,.09-.17,.14-.25-.01,.09,.02,.1,.04,.13v-.06c.09,.05,.23,0,.33,.06,.01,0,0,.04,0,.08l.12-.02c-.07,.1,0,.14-.07,.18,.13-.07,.15,.03,.3-.02,.22,.18,.45,.38,.7,.69h.04c.08,.09,.35,.24,.22,.41,.15,.16,.15,.38,.36,.54-.03,.2,.02,.31-.03,.53,.13,.03,.02,.25,.15,.24,.23-.02,.11-.12,.3-.15l-.04-.02c.5-.42,.8-1.18,.73-1.92-.18-.46-.31-.95-.62-1.33-.33-.4-.82-.68-1.23-.77-.1-.01-.12-.14-.18-.23-.39-.09-.89-.27-1.36-.15h.02c-.24,.02-.44-.04-.67,.03,.01,.03-.02,.05-.04,.07-.04-.07-.37,.13-.58,.38-.21,.23-.38,.51-.44,.52l-.04,.06c-.37,.22-.96,.57-1.04,1.05,.05,.12,.1,.24,.18,.33-.08,.07,.06,.1,.04,.18-.35,.22-.2,.38-.08,.25,.06,.19,.07,.38,.11,.54,.05,.07,.1,.13,.15,.19,.05,.05,.02,.1-.05,.17,.11,.14,.02,.12,.07,.3-.08,.12,.39,.27,.4,.31h-.03c.1,.15,.02,.41,.17,.55,.37,.44,.97,.65,1.46,.77,.03-.12-.12,0-.08-.16,.27,.1,.55,.27,.85,.3,.05,.03,.12,.09,.15,.13,.1,.04,.05-.06,.13-.05l.02,.11c.09-.1,.18,.11,.26,.05,0-.05,.02-.06,.06-.06,.02,.12,.09-.02,.1,.08h0s.03-.02,.06,0c.03-.04,.32-.45,.34-.51h.02c.05,0,.05-.1,.01-.11l.07-.02h.07s.05,.04,.05,.1c.03-.06,.06-.09,.12-.1-.15-.01-.32-.06-.46-.15,.03-.05,.12-.02,.17-.05,.08,.05,.23,.06,.36,.06,.02-.02-.03-.14,.05-.12,.07,.06,.06-.04,.13-.01-.02,.07-.09,.09-.14,.11,.06,.09,.16-.01,.22-.01,0-.04,.12-.09,.17-.17,.04,.1,.1,0,.17,0,.05-.03,.05-.09,0-.1-.07-.09-.21,.11-.23-.03,.05,.03,.12-.06,.15-.11-.05-.04-.06,0-.08-.07,.05-.04,.04-.13,.11-.12,0,.02-.02,.03-.03,.05,.09-.06-.03,.61,0,.51-.03-.02,.1-.62,.04-.57-.05,.02-.07-.09-.12-.07l.02,.09c-.06,.04-.16-.02-.18-.06,.1-.08,.08,.52,.1,.41h-.05c0-.05,.06-.15,.14-.14-.04-.04-.02-.1,0-.15h.02c0-.06,.06-.11-.02-.13-.08,.11-.17-.03-.27-.16-.1-.13-.22-.25-.28-.2,.15,.03,.09,.11,.05,.18-.04-.03-.11-.05-.17-.05-.03,.04,.01,.06,.03,.09-.04,0-.09,0-.13-.06,.02,.09-.07-.02-.09,.03,0,.05,.02,.03,.02,.08-.05,.02-.12,.04-.16,.04-.04-.05-.12-.15-.14-.25,.06-.01,.04,.17,.1,.12-.09-.13,.04-.06,0-.17-.05-.05-.08-.04-.1,0v.02s-.05,.08-.11,.02c-.01-.05-.04-.09-.02-.11h-.04s0,.04,.02,.05c0,.04-.03,.03-.05,0-.01-.05-.16,.28-.17,.25-.03,0-.05-.07-.07-.01,.01,.05,.25-.25,.21-.22-.02-.05-.28,.35-.33,.24-.02,0-.05,.02-.04,.08-.04-.03,0-.11-.04-.16,0,0,0,.03,0,.03l-.03-.07c-.05,.09-.14-.02-.2,.1,.02-.06,.03-.17,.07-.23v.03s.04-.04,.04-.1c-.04-.04-.06-.02-.1,.03l-.02-.05v.02s0-.04,0-.06h0c-.02-.17-.13,.09-.18,0-.02,.02,0,.03-.03,.06-.05-.07-.09-.12-.14-.17-.03,.07-.04,.09-.03,.17l-.04-.04c.08-.18-.04-.2,.05-.38,0-.05-.02-.06-.05-.03-.02,.05-.04,.12-.07,.11-.02-.07-.02-.04-.03-.11,.02-.06,.03-.08,.05-.13-.07,.06,.02-.14-.02-.15-.03,0-.07,0-.12,.1-.03-.02,.01-.09,.06-.17Z"/></g></svg>