<?xml version="1.0" encoding="UTF-8"?><svg id="a" xmlns="http://www.w3.org/2000/svg" viewBox="0 0 276.77 280.34"><defs><style>.b{fill:#005bea;}.c{fill:#65dff6;}.d{fill:#0b1f65;}</style></defs><path class="b" d="M208.51,157.94l-.43,.37c1.3-1.3,2.74-2.58,4.18-3.83-3.61,2.22-7.68,5.04-8.58,8.7-.99-.52-4.21,1.93-4.09,2.17-.46,.72-.96,1.42-1.48,2.11,.37-.46,.73-.93,1.08-1.41-.35,.48-.71,.94-1.08,1.41-3.3,4.35-7.77,8.17-12.42,12.09-2.56,2.19-9.3,8.38-12,10.56l-1.15,.97q.67-.51,1.34-1.03c-1.32,1.67-2.5,3.19-3.7,4.61,.34-.12,.48-.05,1.18-.44l-.75,.58c-.31,.91-1.75,2.28-2.29,3.06-.02-.31-.58,.17-1.06,.6l.29-.07c-1.83,1.64-3.75,3.76-5.34,5.27-.22,.21-.44,.31-.6,.35l-1.38,1.6c-.1-.33-1.44,1.02-.86,.18-.87,1.36-2.18,2.31-2.99,3.64-3.81,3.78-7.72,7.95-11.3,12.22h.18c-1.24,1.5-2.02,3.14-3.84,4.66-.91,1.48-2.45,3.33-2.47,4.26-1.31,1.44-1.63,2.21-2.86,3.68,.57-.12-1.03,1.58-.2,1.09,1.21-.58,.99-.9,2-1.4l-.1-.05c3.87-3.21,7.62-6.54,11.33-10,2.22-2.56,4.99-4.99,7.45-7.51,2.63-2.73,5.41-5.75,7.56-8.2,.49-.61,1.08-.81,1.66-1.16,2.04-2.19,4.85-4.76,7.15-7.23l-.13,.11c1.25-1.28,2.44-1.98,3.67-3.24-.07-.06,.12-.25,.18-.38,.51,.09,6.8-7.8,7.41-8.05l.37-.43c2.79-2.43,6.11-4.49,8.34-6.75,.36-.62,.79-1.29,1.05-1.85,.53-.26,.36-.59,.88-1.02,1.82-.58,2.3-1.54,1.45-1.14,.94-1.06,2.01-2,2.89-2.89l1.12-1.36c.31-.4,.6-.5,.92-.53,.83-.97,.71-.56,1.73-1.43,.44-.01,2.08-2.68,2.41-2.88l-.13,.18c1.14-1.04,2.28-1.35,3.38-2.38,3.16-2.78,6.29-6.14,9.14-8.8-.19-.25-.56,.65-.88,.39,1.67-1.57,3.6-2.92,5.29-4.51,.36-.23,.83-.48,1.04-.55,.61-.44,.21-.41,.62-.77l.25,.15c.4-.72,1.04-.6,1.49-1.2-.05-.11,.13-.31,.33-.49,.22,.2,.57-.59,.73-.37v-.02c.11-.11,.17-.2,.35-.3,.14-.29,1.59-2.87,1.72-3.18l.14-.07c.29-.31,.27-.59,.05-.45l.38-.36-.03,.06,.38-.36c.09-.05,.26-.03,.25,.17,.14-.28,.33-.56,.58-.73-.71,.45-1.62,.99-2.44,1.39,.18-.32,.74-.66,.99-.96,.46-.18,1.25-.73,1.86-1.15,.1-.13-.05-.44,.31-.59,.29,.04,.29-.3,.62-.4-.16,.33-.44,.54-.7,.78,.23,.15,.74-.48,.99-.62,.03-.15,.58-.57,.83-.93,.05,.32,.36-.13,.64-.21,.23-.18,.28-.39,.14-.37-.13-.27-.93,.69-.86,.2,.17,.02,.54-.41,.75-.64-.11-.11-.23,.06-.2-.18,.26-.22,.39-.6,.64-.63-.02,.07-.13,.15-.21,.22,.32-.3-.98,2.4-.64,1.94-.2,0,1.13-2.42,.91-2.22-.24,.14-.06-.33-.3-.17l-.09,.35c-.31,.23-.61,.15-.59-.02,.47-.43-.53,2.02-.26,1.53l-.21,.11c.09-.23,.47-.73,.75-.79-.11-.11,.08-.37,.22-.59l.08-.05c.13-.24,.42-.48,.16-.5-1.09,1.12-.37-1.82-1.51-.81,.69-.21,.09,.39-.35,.89-.13-.04-.46,.06-.86,.33-.27,.31-.09,.26-.08,.38-.22,.11-.57,.38-.66,.21-.08,.38-.46,.27-.68,.6-.17,.31,.08,.05-.02,.29-.38,.35-.91,.83-1.23,1.09-.23,0-.78,.13-.71-.3,.57-.52,.09,.51,.62-.1-.51-.02,.43-.58,.33-.89-.3,.06-.67,.43-.95,.77l.1-.03c-.24,.31-.73,.91-1.16,1.06-.02-.16-.22-.11-.05-.33l-.39,.36c-.02,.08-.04,.16,.09,.07-.1,.25-.32,.39-.51,.47-.14-.06-1.58,2.41-1.59,2.28-.27,.27-.48,.19-.65,.55,.05,.11,2.25-2.91,1.93-2.53-.34,.12-2.58,3.55-2.93,3.53-.19,.21-.41,.47-.27,.52-.39,.29-.09-.29-.43-.15,.01,.02,.07,.03-.01,.1l-.36,.1c-.37,.68-1.35,1.24-1.69,2,.05-.27,.04-.64,.3-1.09h.11c.02-.09,.28-.41,.17-.51-.4,.27-.67,.57-.93,1.02-.09,.04-.2,.09-.28,.11,.01,.01,.03,.02,.04,.03-.18,.05-.18,.03-.17-.05,0-.01,0-.03,0-.05-.51-.09-1.14,1.5-1.91,1.95-.14,.22,.03,.07-.14,.35-.75,.5-1.27,.84-2,1.42-.08,.34-.05,.4,.34,.29l-.54,.45c.12-.79-1.25,.59-1.09-.24-.22,.07-.54,.34-.76,.67,.06,.11,.15,.3-.2,.64-.6,.37-.45,.29-.96,.58-.21-.02-.1-.21-.21-.28-.49,.76-.79,.29-1.36,.89-.34,.4-1.06,1.12-.88,1.34-.51,.48-.65,.33-.76,.13Z"/><path class="c" d="M164.02,95.36l.04,.07c-.2-.12-.34-.34-.48-.57-.1,1.07-.12,2.08,1.4,.73-.59,.88-.48,1.58-.32,1.38,.2-.09,.38-.15,.55-.19-.11,.01-.22,.04-.34,.07,.12-.03,.23-.06,.34-.07,1.05-.23,1.44,.54,1.79,1.35,.1,.22,.34,.56,.57,.91,.03,.06,0,.09,.01,.14l.09,.23c.05,.15,.11,.32,.12,.44,.01,.07,.03,.14,.05,.2v-.28c.38-.02,.75-.02,1.04,.02,.08-.13,.19-.24,.27-.46v.16c.41-.22,.57-.01,.79-.05-.19,.14-.16,.24-.13,.32l.09-.13c.15,.3,.54,.46,.71,.69,.03,.03-.02,.11-.06,.18l.32,.09c-.25,.19-.05,.35-.28,.38,.41-.09,.38,.22,.8,.12,.5,.5,1.17,.92,2.03,1.15l.08-.09c.32,.07,.94-.14,.98,.23,.46-.08,.83,.04,1.4-.27,.24,.19,.55,.03,.9,.29,.23-.24,.52,.13,.65-.14,.24-.47-.11-.32,.07-.7l-.09,.06c-.11-1-.35-1.7-.7-2.36-.52-.19-.68-.73-1.06-1.05-.43-.32-.97-.62-1.46-.77-.14-.02,0-.25,.06-.42-.38-.21-.66-.68-1.11-.91,0,0,0,.02,0,.02-.21-.15-.1-.51-.31-.66-.07,.06-.1,.04-.14,.06,.14-.16-.28-.28-.72-.39-.43-.1-1.04-.29-.95-.36-.03,0-.06,0-.09-.01-.27-.48-.16-1.45-.56-1.68-.2,.09-.39,.16-.6,.29,.05-.19-.18,.07-.22-.02,.34-.81,0-.62-.08-.31-.23-.03-.33-.21-.49-.3-.1,0-.21,0-.32,0-.1,.01-.05-.11,.04-.29-.21-.01-.04-.15-.14-.33,.14-.26-.66,.09-.65-.01l.05-.02c-.14-.17,.08-.72-.07-.87-.35-.53-1.02-.73-1.43-1.14-.18,.25,.14,.01-.08,.36-.25-.23-.31-.74-.58-.97,0-.1,.01-.28,.04-.38-.03-.16-.13,.09-.18,.01l.14-.24c-.23,.13,0-.36-.16-.32-.06,.09-.11,.08-.14,.05,.15-.26-.12-.05,.02-.28v.02s-.06-.01-.06-.07c-.1,.06-.92,.54-1.01,.63v-.05c-.06-.03-.19,.15-.18,.22l-.07-.06h.02l-.07-.07s.04-.16,.13-.27c-.09,.07-.17,.09-.19,.02,.05,.23,.08,.54,.04,.87-.1,.06-.11-.12-.18-.12,.03-.21-.04-.43-.09-.61-.03,0-.2,.29-.19,.13,.07-.22-.07-.02-.04-.2,.11-.08,.13,0,.18,.03,.11-.25-.05-.23-.06-.32-.06,.07-.14-.07-.25-.03,.14-.22,0-.18,.01-.33-.04-.05-.12,.03-.13,.12-.13,.25,.14,.24-.05,.49,.04-.13-.08-.13-.14-.14-.06,.14,0,.12-.1,.25-.05-.06-.17,.09-.15-.07,.03-.03,.04,0,.06,.01-.08-.05,.81-.75,.68-.71-.04,.13-.81,.65-.75,.68,.02,.09-.13,.25-.11,.32l.12-.15c.04,.08-.04,.34-.1,.43-.1-.07,.71-.84,.56-.74v.08c-.07,.07-.21,.11-.19-.06-.06,.14-.13,.17-.2,.2v-.03c-.08,.05-.13,0-.17,.19,.25,.08-.72,1.38-.53,1.55,.04-.35,.16-.31,.27-.3-.04,.11-.06,.28-.03,.39,.07,0,.08-.1,.13-.17,0,.08,.03,.17-.05,.32,.13-.17,0,.15,.09,.11,.09-.07,.04-.08,.11-.16,.06,.05,.13,.13,.17,.19-.06,.16-.13,.45-.3,.66-.08-.08,.23-.36,.11-.35-.13,.36-.13,.05-.28,.3-.05,.17,.01,.2,.08,.18v-.05c.08-.02,.21-.05,.16,.16-.07,.11-.1,.21-.15,.22l.05,.06s.06-.07,.05-.1c.08-.07,.08,0,.06,.07-.07,.12,.61-.34,.56-.26,.05,.02-.05,.21,.06,.11,.06-.1-.66,.18-.58,.17-.04,.15,.85-.33,.74-.08,.04,.01,.09,0,.16-.12,.02,.09-.16,.22-.19,.36,.01-.02,.03-.06,.04-.05l-.06,.18c.2-.14,.17,.18,.41,0-.11,.11-.28,.33-.41,.41l.03-.07s-.1,.05-.18,.17c0,.11,.06,.12,.19,.04l-.03,.12,.03-.05c-.03,.09-.04,.1-.08,.14l-.02,.02c-.19,.37,.35-.09,.32,.15,.06-.03,.04-.06,.12-.1,0,.2,0,.35,.05,.5,.13-.13,.18-.19,.24-.37l.04,.1c-.34,.35-.12,.47-.46,.82-.04,.11,0,.15,.08,.12,.07-.1,.19-.25,.24-.22-.02,.18,0,.12-.03,.29-.08,.14-.13,.17-.2,.28,.21-.1-.12,.34-.01,.37,.08,0,.2,.06,.36-.16,.07,.06-.05,.23-.19,.4Z"/><path class="c" d="M181.78,115.54v.08c-.11-.21-.11-.48-.11-.74-.65,.85-1.2,1.73,.81,1.38-.97,.43-1.25,1.09-1,1.01,.22,.03,.41,.08,.57,.13-.1-.04-.21-.09-.33-.12,.12,.03,.23,.08,.33,.12,1.02,.37,.95,1.23,.82,2.11-.04,.48,.11,1.7-.04,2.22-.02,.07-.03,.15-.04,.22l.12-.27c.35,.18,.69,.33,.94,.51,.13-.09,.27-.14,.44-.3l-.06,.15c.45-.02,.51,.23,.73,.3-.23,.04-.24,.15-.25,.24l.14-.08c0,.34,.29,.65,.34,.93,.01,.04-.06,.09-.13,.13l.25,.22c-.3,.07-.2,.3-.42,.22,.41,.1,.25,.36,.67,.45,.24,.67,.66,1.33,1.32,1.92l.11-.04c.26,.2,.91,.29,.77,.64,.45,.13,.73,.41,1.38,.38,.13,.26,.47,.31,.68,.57,.3-.12,.42,.21,.65,.05,.41-.26,.03-.21,.36-.43l-.11,.02c.35-.87,.45-1.64,.42-2.39-.37-.42-.3-.97-.5-1.44-.25-.49-.61-.99-.99-1.35-.12-.08,.12-.23,.23-.36-.26-.36-.3-.9-.61-1.3,0,0,0,.02,0,.03-.12-.22,.13-.5,0-.72-.09,.03-.1,0-.15,0,.39-.17-1.28-1.09-1.08-1.25-.03-.02-.05-.04-.07-.06,.02-.54,.62-1.32,.41-1.71-.22-.03-.42-.07-.66-.07,.14-.13-.19-.03-.18-.14,.72-.51,.34-.53,.1-.31-.17-.15-.17-.36-.26-.51-.09-.05-.17-.11-.27-.16-.09-.04,.01-.12,.19-.22-.18-.13,.04-.15,.05-.36,.26-.15-.61-.27-.54-.35h.05c-.03-.21,.46-.55,.4-.76-.02-.64-.47-1.16-.61-1.72-.29,.12,.11,.09-.26,.26-.08-.32,.14-.79,.03-1.13,.05-.09,.16-.23,.23-.3,.06-.15-.16,0-.16-.09l.25-.13c-.26,0,.2-.3,.05-.35-.1,.04-.14,.01-.14-.03,.27-.13-.08-.11,.17-.22h-.02s-.03-.02,0-.08c-.12,0-1.06-.04-1.19-.01l.03-.04c-.04-.06-.25,.02-.28,.08l-.02-.08h.02l-.02-.08s.13-.11,.25-.15c-.11,0-.19,0-.16-.08-.1,.21-.25,.47-.45,.73-.12,0-.02-.16-.08-.2,.14-.16,.22-.36,.27-.55-.03-.02-.33,.14-.23,0,.18-.14-.04-.06,.07-.19,.14-.01,.12,.07,.14,.13,.23-.15,.08-.22,.12-.31-.08,.02-.07-.13-.18-.15,.24-.11,.11-.14,.2-.26,0-.06-.11-.03-.17,.04-.25,.14-.03,.27-.32,.36,.11-.09,.01-.15-.02-.19-.13,.08-.08,.09-.22,.15,0-.07-.19-.02-.07-.13,.04-.01,.03,.02,.04,.04-.03-.08,1.07-.19,.94-.23-.11,.09-1,.12-.98,.17-.04,.08-.25,.13-.27,.2l.18-.06c-.01,.09-.23,.26-.33,.3-.04-.11,1.04-.32,.87-.31l-.04,.07c-.11,.02-.23-.02-.12-.15-.13,.08-.2,.07-.27,.06v-.03c-.08,0-.08-.07-.23,.07,.15,.2-1.37,.73-1.32,.98,.23-.27,.3-.17,.39-.1-.09,.07-.21,.2-.25,.3,.05,.04,.12-.04,.2-.07-.05,.07-.07,.16-.22,.24,.2-.07-.08,.13,.01,.14,.11,0,.08-.05,.18-.07,.02,.07,.05,.18,.04,.25-.13,.1-.36,.3-.61,.39-.02-.11,.39-.17,.29-.24-.31,.23-.14-.03-.4,.1-.13,.12-.1,.17-.03,.2l.04-.03c.07,.02,.18,.07,.03,.22-.12,.05-.2,.12-.25,.1v.07c.05-.01,.09-.02,.11-.06,.11-.02,.07,.04,.01,.1-.12,.07,.7,.05,.62,.09,.03,.04-.16,.15,0,.13,.1-.05-.66-.21-.58-.17-.12,.1,.9,.18,.67,.34,.03,.03,.07,.06,.2-.01-.03,.09-.25,.1-.35,.2,.02,0,.06-.03,.06-.02l-.14,.12c.24,0,.04,.25,.35,.22-.15,.04-.41,.12-.57,.12l.06-.04s-.11-.02-.24,.05c-.06,.1-.01,.13,.14,.13l-.09,.08,.05-.02c-.07,.06-.09,.06-.14,.08h-.03c-.36,.22,.34,.12,.2,.31,.07,0,.07-.03,.16-.02-.11,.18-.19,.3-.23,.45,.18-.04,.25-.06,.4-.18l-.02,.11c-.47,.12-.35,.34-.83,.45-.09,.07-.09,.13,0,.14,.11-.04,.29-.11,.32-.05-.11,.14-.07,.1-.18,.23-.14,.08-.21,.08-.32,.13,.23,.03-.28,.22-.21,.31,.07,.04,.14,.16,.39,.06,.02,.09-.16,.17-.37,.24Z"/><path class="c" d="M187.42,140.56l-.04,.07c.02-.25,.14-.49,.28-.73-.98,.45-1.91,.94,0,1.68-1.05-.12-1.63,.34-1.38,.39,.17,.14,.31,.29,.42,.42-.06-.09-.13-.19-.22-.28,.08,.1,.16,.19,.22,.28,.68,.88,.17,1.63-.41,2.37-.29,.42-.81,1.61-1.22,2.01-.05,.06-.11,.12-.15,.18l.24-.18c.2,.35,.41,.68,.52,.97,.16,0,.3,.02,.53-.03l-.13,.1c.4,.22,.31,.49,.46,.67-.22-.08-.29,0-.34,.09h.16c-.18,.32-.1,.75-.21,1.05-.01,.04-.1,.05-.18,.05l.09,.34c-.29-.1-.33,.17-.48-.02,.29,.31,.02,.47,.32,.78-.16,.75-.16,1.59,.09,2.5l.12,.02c.11,.33,.62,.75,.32,1.01,.32,.36,.42,.76,.99,1.06-.01,.3,.26,.52,.32,.84,.32,.04,.27,.39,.55,.35,.48-.03,.13-.17,.52-.2l-.1-.03c.72-.58,1.21-1.22,1.58-1.91-.1-.57,.26-1.03,.33-1.57,.05-.58,0-1.23-.12-1.76-.06-.14,.22-.15,.39-.2-.03-.47,.23-.99,.18-1.52,0,0-.01,.02-.02,.02,.01-.27,.38-.39,.39-.65-.09-.02-.08-.06-.13-.09,.43,.05-.5-1.7-.25-1.73-.01-.03-.02-.06-.03-.09,.3-.49,1.23-.88,1.26-1.36-.17-.14-.32-.29-.53-.42,.19-.05-.15-.13-.08-.22,.88-.09,.56-.31,.24-.23-.07-.23,.04-.42,.05-.61-.04-.1-.09-.19-.15-.29-.06-.09,.07-.11,.28-.11-.09-.21,.11-.12,.23-.3,.3,0-.38-.58-.28-.62l.04,.04c.09-.22,.68-.29,.74-.51,.31-.61,.19-1.35,.35-1.95-.31-.04,.05,.14-.36,.11,.1-.35,.52-.68,.59-1.06,.09-.06,.25-.14,.35-.16,.12-.12-.14-.08-.1-.17h.28c-.22-.14,.32-.17,.22-.31-.11-.01-.12-.06-.12-.11,.3,0-.02-.15,.25-.13h-.02s-.01-.05,.04-.09c-.1-.07-.91-.58-1.04-.63l.05-.03c0-.07-.23-.1-.28-.06l.02-.09h.02l.02-.08s.16-.04,.3-.02c-.1-.05-.16-.11-.11-.17-.17,.17-.44,.33-.74,.48-.1-.06,.06-.17,.03-.23,.2-.07,.36-.25,.49-.4-.02-.03-.35-.03-.21-.11,.23-.05-.01-.08,.15-.14,.13,.06,.08,.13,.07,.19,.27-.03,.17-.17,.24-.23-.09-.02,0-.16-.09-.23,.26,.01,.16-.08,.3-.15,.03-.06-.08-.09-.17-.05-.28,.01-.15,.24-.45,.19,.13-.03,.08-.14,.06-.19-.15,.02-.11,.05-.26,.03,.03-.07-.16-.11,0-.16,.04,0,.02,.04,.02,.05,0-.1,1.04,.35,.94,.25-.13,.03-.95-.39-.95-.32-.07,.06-.28,0-.33,.06l.19,.03c-.05,.08-.32,.13-.42,.12,.01-.12,1.07,.22,.91,.14l-.07,.05c-.1-.04-.2-.14-.04-.2-.15,.02-.21-.04-.27-.08l.02-.02c-.08-.04-.05-.11-.25-.06,.05,.27-1.55,.02-1.62,.28,.33-.14,.35,0,.39,.09-.11,.02-.28,.09-.36,.17,.03,.06,.13,.03,.21,.03-.07,.04-.13,.12-.31,.12,.21,.03-.13,.09-.05,.14,.1,.05,.09,0,.2,.02-.02,.08-.04,.19-.08,.25-.16,.03-.46,.11-.72,.06,.03-.11,.42,.03,.36-.08-.38,.06-.11-.1-.4-.11-.17,.04-.17,.11-.11,.17h.05c.05,.04,.13,.15-.08,.21-.13-.01-.23,.01-.27-.02l-.03,.07s.09,.02,.12,0c.1,.03,.04,.07-.03,.1-.14,0,.59,.4,.5,.39,0,.06-.21,.06-.07,.12,.11,0-.48-.53-.43-.45-.16,.04,.7,.62,.43,.65,0,.04,.03,.09,.18,.09-.07,.07-.27-.03-.41,0,.02,0,.07,0,.07,.01l-.18,.04c.21,.12-.08,.25,.2,.38-.15-.04-.42-.1-.56-.18h.08s-.09-.08-.23-.09c-.1,.06-.08,.12,.06,.2l-.12,.03h.06c-.09,.02-.1,.02-.16,0h-.03c-.42,0,.25,.27,.02,.37,.06,.04,.07,0,.15,.06-.17,.11-.31,.18-.42,.3,.17,.06,.25,.07,.44,.04l-.07,.09c-.47-.14-.48,.13-.94-.02-.11,.02-.14,.07-.07,.13,.12,.02,.31,.05,.3,.12-.17,.08-.11,.06-.27,.12-.16,0-.22-.04-.34-.05,.19,.14-.35,.06-.33,.17,.04,.07,.04,.21,.31,.25-.03,.09-.23,.07-.45,.03Z"/><path class="c" d="M180.13,164.85l-.07,.04c.12-.21,.34-.36,.57-.5-1.07-.08-2.11-.05-.71,1.44-.89-.57-1.6-.44-1.39-.27,.1,.2,.16,.38,.2,.55-.02-.11-.04-.22-.08-.34,.04,.12,.06,.23,.08,.34,.25,1.05-.5,1.49-1.24,1.74-.4,.17-1.34,.9-1.87,1.02-.07,.02-.14,.05-.21,.07l.28-.03c.03,.39,.07,.76,.04,1.06,.14,.07,.26,.17,.48,.23l-.16,.02c.25,.38,.06,.56,.11,.78-.15-.18-.25-.14-.33-.1l.14,.08c-.29,.17-.41,.58-.63,.77-.03,.03-.11,0-.18-.05l-.06,.33c-.21-.23-.36-.02-.41-.25,.12,.4-.18,.4-.05,.81-.46,.55-.81,1.25-.96,2.14l.09,.07c-.03,.33,.24,.92-.13,1,.13,.45,.06,.83,.44,1.35-.13,.25,.02,.55-.05,.86,.27,.18,.08,.46,.35,.55,.44,.2,.18-.08,.54,.07l-.08-.07c.84-.15,1.53-.45,2.12-.85,.13-.52,.64-.73,.92-1.14,.28-.46,.51-1.01,.62-1.51,0-.14,.25-.01,.42,.02,.18-.4,.61-.71,.8-1.17,0,0-.02,0-.02,0,.13-.22,.49-.14,.62-.35-.07-.06-.05-.09-.07-.14,.35,.25,.29-1.65,.53-1.56,0-.03,0-.06,.01-.09,.48-.26,1.47-.16,1.72-.61-.09-.21-.16-.41-.28-.61,.19,.05-.08-.18,.02-.22,.83,.31,.62-.01,.31-.09,.02-.23,.2-.34,.28-.5,0-.1,0-.2-.02-.31-.02-.1,.11-.05,.29,.04,0-.21,.14-.05,.32-.15,.27,.14-.12-.65-.01-.64l.02,.05c.17-.14,.72,.07,.86-.09,.51-.35,.69-1.01,1.09-1.41-.26-.18-.01,.14-.36-.08,.22-.24,.73-.3,.95-.56,.1,0,.28,.01,.37,.04,.16-.03-.09-.13-.01-.18l.24,.14c-.13-.22,.36,.01,.32-.15-.09-.06-.08-.11-.05-.14,.26,.15,.05-.12,.28,.02h-.02s0-.06,.07-.06c-.07-.09-.53-.92-.62-1.02h.05c.03-.06-.15-.19-.22-.18l.06-.07v.02l.07-.08s.16,.04,.27,.13c-.07-.1-.09-.18-.01-.21-.24,.06-.55,.1-.88,.06-.06-.1,.12-.11,.13-.18,.21,.02,.44-.05,.62-.12,0-.03-.29-.2-.13-.19,.22,.07,.03-.09,.21-.09,.07,.14,0,.19-.05,.23,.25,.12,.24-.08,.35-.13-.06-.07,.09-.2,.06-.34,.23,.12,.18,0,.35-.08,.09-.18,.01-.32-.1-.27-.13-.07-.22,.12-.3,.21-.06,.05-.13,.08-.25-.02,.07,0,.1,0,.13-.1,.04-.11,.05-.23,.06-.32-.15-.03-.14,.09-.26-.05,.07-.18-.08-.38,.08-.47,.04,.04,0,.11,0,.16,.02-.12,.24,.22,.38,.64,.06,.25,.15,.31,.2,.39,.06,.07,.09,.11,.09,.06-.07-.03-.23-.16-.33-.66-.12-.42-.31-.73-.31-.65-.09,.13-.27-.1-.34,.02l.17,.17c-.09,.19-.37,.2-.46,.13,.04-.14,.27,.09,.44,.4,.08,.18,.17,.25,.23,.31,.06,.06,.09,.08,.06,.04l-.09,.03s-.06-.11-.06-.17c0-.05,.07-.21,.16-.24-.15-.04-.16-.22-.19-.36l.03-.04c-.05-.15,0-.34-.21-.26-.04,.39-.41,.18-.79,.05-.39-.14-.79-.19-.87-.04,.36-.11,.34,.1,.33,.3-.12,0-.29,0-.4,.03,0,.07,.1,.08,.18,.12-.09,0-.17,.05-.33-.03,.17,.13-.15,.02-.11,.1,.07,.08,.08,.04,.16,.11-.05,.06-.13,.14-.19,.17-.16-.05-.45-.13-.66-.29,.08-.07,.36,.23,.36,.11-.36-.13-.05-.13-.3-.28-.17-.05-.2,.01-.18,.08h.05c.02,.08,.05,.21-.16,.16-.11-.07-.21-.1-.22-.15l-.06,.05s.07,.06,.1,.05c.07,.08,0,.08-.07,.06-.12-.07,.33,.61,.26,.56-.02,.05-.21-.05-.11,.06,.1,.06-.17-.66-.17-.58-.15-.05,.32,.85,.07,.74-.01,.04,0,.09,.12,.16-.09,.02-.22-.16-.36-.19,.02,.01,.06,.03,.05,.04l-.18-.06c.14,.2-.19,.17,0,.41-.11-.11-.33-.28-.41-.41l.07,.03s-.05-.1-.17-.18c-.11,0-.12,.06-.04,.19l-.12-.03,.05,.03c-.09-.03-.1-.04-.14-.08l-.02-.02c-.37-.19,.09,.35-.15,.33,.03,.06,.06,.04,.1,.12-.2,0-.35,0-.5,.05,.13,.13,.19,.17,.37,.24l-.1,.04c-.35-.34-.48-.11-.83-.45-.11-.04-.16,0-.12,.08,.1,.07,.25,.19,.22,.24-.18-.02-.12,0-.29-.03-.14-.07-.18-.13-.28-.2,.1,.21-.34-.11-.37,0,0,.08-.06,.2,.17,.36-.06,.07-.23-.05-.41-.18Z"/><path class="c" d="M160.36,182.01h-.08c.21-.12,.47-.16,.75-.18-.93-.55-1.87-1-1.32,.97-.53-.92-1.23-1.12-1.12-.88,0,.22-.04,.42-.08,.58,.03-.1,.06-.22,.09-.34-.02,.12-.05,.24-.09,.34-.27,1.06-1.14,1.09-2.05,1.07-.49,.01-1.7,.32-2.24,.23-.08,0-.15-.01-.22-.01l.28,.08c-.14,.37-.26,.73-.41,.99,.1,.12,.17,.25,.35,.4l-.16-.04c.07,.45-.18,.54-.22,.76-.07-.22-.18-.22-.27-.22l.09,.13c-.34,.04-.62,.37-.9,.46-.04,.02-.1-.05-.15-.12l-.19,.28c-.1-.29-.32-.16-.27-.39-.05,.42-.34,.29-.38,.72-.65,.32-1.26,.82-1.78,1.55l.06,.1c-.17,.28-.19,.94-.56,.85-.08,.46-.33,.78-.23,1.42-.24,.16-.26,.5-.49,.74,.15,.29-.17,.45,.02,.65,.3,.38,.22,0,.47,.31l-.03-.1c.91,.25,1.7,.25,2.46,.13,.38-.42,.94-.41,1.39-.68,.46-.31,.92-.73,1.24-1.15,.06-.13,.24,.09,.39,.19,.33-.3,.87-.41,1.23-.77,0,0-.02,0-.03,0,.21-.15,.52,.07,.72-.08-.04-.08,0-.1,0-.15,.22,.37,.95-1.41,1.13-1.22,.01-.03,.03-.06,.05-.08,.55-.05,1.39,.46,1.76,.2,0-.22,.02-.43,0-.67,.15,.13,0-.19,.12-.19,.59,.65,.56,.27,.32,.06,.13-.19,.34-.21,.48-.32,.05-.09,.09-.19,.13-.29,.03-.1,.12,0,.24,.16,.11-.19,.15,.02,.36,.01,.18,.24,.21-.64,.29-.58v.05c.21-.05,.6,.39,.81,.31,.63-.09,1.11-.59,1.65-.78-.15-.27-.07,.12-.28-.24,.31-.11,.8,.06,1.12-.07,.1,.04,.24,.14,.32,.21,.15,.04-.02-.16,.07-.17l.15,.24c-.02-.26,.31,.18,.35,.02-.05-.1-.03-.13,.01-.15,.16,.25,.1-.09,.23,.15v-.02s.02-.04,.07,0c-.01-.12-.07-1.04-.1-1.17l.05,.03c.05-.04-.05-.24-.11-.27l.08-.03v.02l.08-.03s.12,.12,.17,.24c-.02-.11,0-.18,.06-.17-.21-.08-.48-.22-.75-.4-.01-.11,.16-.03,.19-.09,.16,.13,.38,.19,.55,.23,.01-.03-.16-.31-.03-.23,.15,.17,.05-.04,.18,.06,.02,.13-.05,.12-.11,.14,.16,.22,.22,.07,.3,.11-.03-.08,.11-.07,.13-.18,.13,.23,.14,.1,.26,.19,.06,0,.02-.11-.05-.17-.15-.24-.26-.03-.37-.31,.09,.1,.14,0,.18-.03-.09-.12-.1-.08-.16-.21,.06,0,0-.19,.12-.08,.02,.04-.02,.03-.03,.04,.07-.03,.27,1.04,.29,.92-.09-.1-.2-.98-.24-.96-.08-.04-.14-.24-.21-.26l.07,.18c-.08-.01-.26-.22-.31-.31,.1-.04,.38,1.02,.36,.84l-.07-.04c-.03-.1,0-.23,.13-.12-.09-.12-.08-.2-.08-.26h.03c-.01-.07,.06-.08-.08-.23-.18,.16-.8-1.33-1.04-1.27,.28,.22,.18,.3,.12,.38-.07-.09-.21-.2-.32-.23-.03,.06,.04,.12,.08,.2-.07-.04-.16-.06-.25-.21,.08,.2-.14-.07-.14,.02,.02,.11,.05,.07,.08,.18-.07,.02-.17,.06-.24,.06-.11-.13-.33-.34-.43-.58,.11-.03,.2,.37,.26,.27-.25-.29,.02-.14-.12-.39-.12-.12-.18-.08-.2-.01l.04,.04c-.02,.07-.06,.19-.22,.05-.06-.12-.14-.19-.12-.24l-.07,.02s.03,.08,.06,.1c.03,.1-.03,.07-.1,.02-.08-.12,0,.7-.04,.62-.04,.03-.16-.14-.13,0,.06,.1,.16-.67,.13-.6-.12-.11-.12,.91-.29,.7-.03,.03-.05,.08,.03,.2-.09-.03-.12-.24-.23-.34,.01,.02,.04,.06,.02,.06l-.13-.13c.03,.24-.25,.07-.19,.37-.05-.15-.16-.4-.17-.56l.05,.06s0-.11-.07-.24c-.1-.05-.14,0-.12,.16l-.09-.08,.03,.05c-.06-.07-.07-.08-.09-.13v-.03c-.26-.34-.09,.36-.3,.23,0,.07,.03,.06,.04,.15-.19-.09-.32-.16-.48-.18,.05,.18,.09,.24,.22,.38h-.11c-.16-.47-.38-.32-.53-.78-.08-.08-.14-.08-.14,.02,.05,.11,.14,.28,.08,.31-.16-.1-.11-.06-.25-.15-.09-.13-.1-.2-.16-.31,0,.23-.25-.25-.33-.17-.04,.07-.15,.15-.02,.4-.09,.03-.18-.14-.28-.35Z"/><path class="c" d="M135.29,188.27l-.07-.03c.23-.03,.46,.05,.7,.15-.56-.9-1.15-1.72-1.51,.28-.06-1.06-.56-1.55-.57-1.29-.1,.19-.21,.35-.31,.48,.07-.08,.15-.16,.22-.26-.07,.1-.14,.19-.22,.26-.68,.83-1.43,.45-2.17,0-.41-.22-1.54-.53-1.94-.86-.06-.04-.12-.09-.18-.12l.19,.21c-.28,.26-.54,.51-.79,.67,.03,.16,.02,.3,.1,.52l-.11-.11c-.15,.43-.4,.39-.54,.56,.05-.23-.04-.28-.12-.33l.02,.16c-.3-.13-.68,.01-.95-.05-.04,0-.06-.09-.06-.17l-.29,.14c.06-.3-.18-.3-.03-.47-.25,.33-.41,.08-.65,.43-.67-.06-1.41,.05-2.2,.4v.12c-.29,.15-.66,.69-.9,.41-.32,.34-.69,.47-.97,1.05-.29,0-.5,.26-.83,.33-.05,.32-.4,.27-.36,.54,.03,.48,.17,.13,.21,.53l.03-.1c.3,.36,.64,.67,.96,.9,.34,.25,.69,.45,1.04,.6,.56-.15,1.03,.16,1.55,.17,.56-.01,1.17-.15,1.66-.34,.12-.08,.16,.2,.24,.36,.43-.1,.95,.09,1.44-.05,0,0-.02,0-.02-.01,.25-.03,.41,.31,.66,.28,0-.09,.04-.09,.07-.14,.01,.44,1.49-.77,1.55-.52,.03-.02,.05-.03,.08-.04,.49,.21,.99,1.06,1.43,1.01,.1-.2,.22-.37,.3-.59,.07,.18,.1-.17,.19-.12,.22,.85,.37,.5,.25,.2,.2-.11,.39-.03,.57-.06,.08-.06,.16-.13,.24-.2,.07-.07,.11,.05,.14,.26,.18-.12,.12,.09,.31,.18,.05,.3,.46-.47,.52-.38l-.03,.04c.21,.05,.37,.62,.58,.64,.6,.21,1.25-.04,1.81,.02-.01-.31-.12,.08-.15-.33,.33,.04,.69,.39,1.04,.41,.07,.08,.16,.23,.2,.32,.12,.11,.05-.15,.13-.12l.04,.28c.09-.24,.21,.3,.31,.16,0-.11,.03-.13,.08-.13,.04,.3,.13-.04,.15,.23v-.02s.04-.02,.08,.03c.04-.11,.37-.98,.39-1.11l.03,.05c.06-.02,.06-.24,.01-.29h.08v.03h.08s.06,.16,.06,.3c.03-.11,.07-.18,.13-.13-.17-.15-.36-.39-.53-.67,.04-.11,.15,.04,.21,0,.1,.19,.27,.32,.41,.43,.02-.02-.02-.35,.06-.22,.07,.22,.06-.02,.14,.13-.03,.13-.1,.09-.15,.09,.06,.26,.17,.15,.23,.22,0-.09,.13-.02,.19-.11,.02,.26,.09,.15,.16,.28,.05,.02,.06-.09,.02-.17-.05-.28-.22-.13-.22-.43,.05,.13,.13,.07,.17,.04-.03-.15-.06-.11-.06-.26,.06,.02,.07-.17,.14-.02,0,.04-.03,.02-.04,.02,.08,0-.16,1.06-.09,.95-.05-.13,.21-.98,.15-.97-.06-.07-.04-.28-.09-.32v.19c-.08-.04-.16-.3-.16-.41,.11,0-.05,1.08,0,.92l-.05-.06c.02-.11,.09-.21,.17-.06-.03-.15,0-.21,.03-.27l.02,.02c.02-.08,.09-.06,.02-.25-.22,.07-.21-1.54-.45-1.58,.16,.31,.05,.34-.04,.4-.03-.11-.11-.27-.19-.34-.05,.04,0,.13,0,.21-.05-.07-.12-.12-.15-.29,0,.22-.1-.12-.13-.04-.03,.11,.02,.09,0,.2-.07,0-.18-.02-.24-.05-.05-.16-.16-.44-.16-.7,.11,.02,.03,.42,.13,.35-.11-.37,.08-.12,.04-.41-.06-.16-.13-.15-.18-.09l.02,.05c-.04,.06-.13,.15-.21-.04,0-.13-.05-.23-.02-.27l-.07-.02s0,.09,.02,.11c-.02,.11-.06,.05-.09-.02-.02-.14-.28,.64-.28,.55-.05,.01-.09-.2-.12-.05,.01,.11,.41-.54,.35-.49-.06-.15-.46,.78-.53,.52-.04,.02-.08,.05-.05,.19-.07-.06-.01-.27-.07-.4,0,.02,.01,.07,0,.07l-.06-.18c-.07,.23-.24-.04-.32,.26,.01-.16,.02-.43,.07-.58l.02,.07s.05-.1,.04-.24c-.07-.09-.12-.06-.17,.09l-.05-.11v.06c-.02-.09-.02-.1-.02-.16v-.03c-.07-.41-.21,.29-.34,.08-.03,.06,0,.07-.03,.15-.13-.15-.21-.28-.34-.37-.03,.18-.02,.25,.03,.44l-.09-.05c.05-.48-.2-.45-.14-.93-.03-.11-.09-.13-.13-.05,0,.12,0,.32-.06,.32-.1-.16-.07-.1-.15-.25-.03-.16,0-.22-.01-.34-.1,.21-.11-.34-.21-.3-.06,.05-.19,.08-.18,.35-.09,0-.1-.21-.1-.44Z"/><path class="c" d="M119.73,85.55h-.08c.21-.11,.49-.11,.76-.09-.84-.69-1.75-1.22-1.4,.78-.43-.97-1.1-1.23-1.02-.98-.03,.22-.07,.41-.12,.57,.04-.1,.08-.21,.11-.33-.03,.12-.07,.23-.11,.33-.34,1.03-1.16,.98-2.05,.92-.48-.02-1.66,.26-2.19,.16-.08,0-.15-.01-.22-.01l.28,.08c-.13,.37-.24,.73-.38,.99,.1,.12,.17,.25,.35,.4l-.15-.04c.09,.45-.15,.54-.18,.75-.08-.22-.18-.22-.27-.22l.1,.12c-.33,.05-.58,.38-.84,.48-.04,.02-.1-.05-.15-.11l-.17,.28c-.12-.29-.32-.14-.29-.37-.02,.42-.31,.31-.31,.74-.6,.35-1.15,.91-1.53,1.72l.07,.09c-.12,.31,0,.93-.36,.92,.03,.47-.11,.81,.17,1.39-.14,.2-.02,.52-.09,.77,.24,.22,.07,.42,.31,.56,.37,.29,.15-.02,.44,.21l-.06-.09c.64,.13,1.27,.08,1.84-.07,.2-.43,.7-.43,1.02-.7,.35-.31,.69-.72,.93-1.13,.04-.12,.22,.09,.36,.19,.26-.29,.73-.39,1.03-.72,0,0-.02,0-.02,0,.18-.14,.46,.09,.63-.05-.04-.08-.01-.1-.02-.15,.2,.37,.79-1.32,.96-1.13,.01-.03,.03-.05,.04-.07,.5-.01,1.25,.56,1.58,.34,0-.22,.02-.41,0-.65,.13,.14,0-.19,.1-.18,.53,.7,.5,.33,.28,.09,.12-.17,.3-.17,.44-.26l.12-.27c.03-.09,.11,.01,.21,.19,.1-.17,.14,.04,.32,.06,.15,.26,.2-.59,.28-.53v.05c.19-.02,.52,.46,.69,.42,.55,.02,.99-.39,1.46-.45-.1-.29-.07,.1-.22-.28,.28-.04,.67,.22,.93,.19,.07,.06,.18,.19,.23,.28,.12,.08,0-.16,.07-.14l.1,.26c.01-.25,.22,.25,.27,.12-.03-.11,0-.13,.02-.13,.09,.28,.08-.05,.16,.21v-.02s.02-.02,.05,.02l.04-1.11,.03,.04s0-.24-.04-.28h.06v.02h.06s.07,.15,.09,.28c0-.11,.02-.17,.07-.13-.14-.15-.32-.37-.5-.63,0-.11,.12,.02,.16-.02,.1,.18,.26,.3,.36,.42,0-.02-.07-.34,0-.21,.08,.22,.04-.02,.11,.14,0,.13-.05,.08-.08,.08,.08,.26,.12,.16,.17,.23,0-.09,.07-.02,.09-.1,.05,.26,.07,.15,.12,.28,.03,.02,.02-.08,0-.17-.06-.28-.14-.14-.17-.44,.04,.13,.08,.07,.11,.05-.03-.15-.05-.11-.06-.26,.04,.02,.03-.17,.09-.01,0,.04-.02,.02-.03,.02,.04,0,.01,1.04,.05,.94-.05-.13,.01-.95-.01-.95-.04-.07-.04-.28-.08-.32v.19s-.11-.31-.12-.41c.06,0,.07,1.07,.08,.91l-.04-.07c0-.1,.04-.2,.09-.05-.03-.15-.02-.21,0-.27v.02c.02-.08,.07-.06,0-.25-.16,.07-.22-1.54-.41-1.59,.15,.31,.05,.34-.01,.4-.03-.11-.11-.26-.18-.34-.04,.04,0,.13,.01,.21-.04-.07-.11-.12-.15-.29,.02,.21-.09-.12-.12-.03-.01,.1,.03,.09,.02,.19-.07,0-.16-.01-.22-.04-.06-.15-.2-.42-.23-.68,.1,0,.08,.41,.16,.33-.15-.35,.06-.13,0-.41-.08-.16-.15-.14-.18-.08l.02,.05c-.03,.06-.1,.17-.21-.01-.03-.13-.08-.22-.05-.26h-.07s0,.08,.04,.11c0,.11-.05,.06-.1,0-.05-.13-.17,.67-.18,.58-.04,.02-.12-.18-.12-.03,.03,.11,.3-.6,.25-.54-.09-.14-.32,.84-.42,.59-.03,.02-.06,.06,0,.2-.08-.05-.07-.26-.15-.38,0,.02,.03,.07,.01,.07l-.1-.16c-.02,.24-.24,.01-.24,.32-.02-.16-.08-.42-.07-.58l.04,.07s.03-.11-.02-.24c-.09-.07-.13-.03-.15,.13l-.07-.1,.02,.05c-.05-.08-.05-.09-.06-.15v-.03c-.18-.38-.15,.33-.32,.16-.01,.07,.02,.07,0,.16-.16-.12-.28-.21-.43-.26,.03,.18,.05,.25,.16,.41l-.1-.02c-.09-.48-.32-.37-.4-.85-.06-.09-.12-.1-.14,0,.04,.12,.1,.3,.04,.32-.14-.12-.1-.07-.22-.19-.07-.14-.07-.21-.12-.33-.04,.23-.21-.29-.31-.22-.05,.07-.16,.13-.07,.39-.09,.02-.16-.17-.23-.38Z"/><path class="c" d="M137.25,88.69l.08,.03c-.25,.01-.51-.08-.77-.19,.56,.93,1.19,1.78,1.68-.21,.02,1.06,.55,1.57,.57,1.31,.12-.19,.24-.35,.36-.47-.08,.07-.17,.16-.25,.25,.08-.1,.17-.18,.25-.25,.77-.8,1.57-.4,2.37,.07,.45,.23,1.67,.56,2.11,.91l.19,.12-.21-.21c.31-.26,.59-.5,.86-.66-.03-.16-.02-.3-.11-.52l.12,.11c.16-.43,.43-.38,.58-.55-.05,.23,.04,.28,.13,.33l-.02-.16c.32,.13,.73,0,1.03,.06,.04,0,.06,.09,.07,.18l.31-.14c-.06,.3,.2,.3,.04,.48,.26-.33,.44-.08,.7-.42,.73,.06,1.51-.04,2.35-.38v-.12c.3-.14,.69-.69,.95-.4,.33-.33,.72-.45,1.03-1.02,.31,.03,.55-.23,.92-.26,.06-.32,.45-.23,.41-.51-.03-.49-.2-.15-.25-.56l-.04,.1c-.17-.19-.37-.4-.55-.55-.17-.15-.36-.29-.55-.42-.39-.28-.75-.45-1.14-.62-.6,.13-1.1-.16-1.66-.19-.59,.02-1.23,.13-1.75,.33-.13,.08-.17-.2-.25-.36-.46,.09-1.01-.09-1.52,.04,0,0,.02,0,.02,.01-.27,.03-.43-.32-.69-.29,0,.09-.05,.09-.07,.14-.01-.43-1.58,.75-1.64,.5-.03,.02-.06,.03-.09,.04-.52-.22-1.02-1.09-1.49-1.04-.11,.19-.23,.36-.33,.58-.07-.19-.11,.17-.2,.11-.21-.86-.37-.51-.26-.21-.21,.1-.41,.02-.6,.04-.09,.06-.17,.12-.26,.19-.08,.07-.11-.06-.14-.26-.19,.11-.13-.09-.32-.19-.04-.3-.5,.45-.56,.36l.03-.04c-.22-.06-.36-.64-.58-.67-.61-.23-1.29-.02-1.87-.12,0,.31,.13-.07,.14,.34-.34-.05-.69-.44-1.04-.48-.06-.08-.15-.24-.18-.33-.12-.11-.06,.15-.15,.11l-.02-.28c-.11,.23-.19-.31-.3-.19,0,.11-.04,.13-.08,.12-.01-.3-.13,.03-.13-.25v.02s-.04,.02-.08-.03c-.05,.11-.46,.95-.5,1.07l-.03-.05c-.07,.01-.08,.23-.04,.29h-.08v-.03h-.07s-.04-.18-.03-.31c-.04,.11-.09,.16-.14,.11,.14,.18,.32,.43,.46,.72-.05,.1-.15-.05-.21-.01-.08-.19-.23-.35-.37-.48-.03,.02-.02,.35-.09,.21-.05-.23-.07,.01-.13-.15,.05-.13,.11-.08,.17-.07-.03-.27-.16-.17-.21-.24-.01,.09-.14,0-.2,.09,0-.26-.08-.16-.13-.29-.05-.03-.07,.08-.04,.17,.02,.28,.21,.15,.17,.45-.03-.13-.12-.08-.17-.06,.02,.15,.05,.11,.03,.26-.06-.03-.1,.16-.15,0,0-.04,.03-.02,.05-.02-.08,0,.29-1.04,.2-.94,.03,.13-.32,.95-.27,.95,.05,.07,0,.28,.05,.33l.03-.19c.07,.05,.12,.32,.11,.42-.11-.01,.18-1.07,.11-.91l.04,.07c-.03,.1-.12,.2-.18,.04,.02,.15-.03,.21-.06,.27l-.02-.02c-.03,.08-.1,.05-.05,.25,.24-.05,.03,1.55,.27,1.62-.13-.33,0-.35,.09-.39,.02,.11,.08,.28,.16,.36,.06-.03,.02-.13,.03-.21,.04,.07,.11,.13,.12,.31,.03-.21,.09,.13,.14,.05,.04-.1-.01-.09,.02-.2,.08,.02,.18,.03,.25,.07,.03,.16,.12,.45,.09,.71-.11-.03,.01-.42-.1-.36,.08,.37-.09,.11-.09,.4,.05,.17,.12,.16,.18,.11l-.02-.05c.05-.05,.15-.14,.22,.06,0,.13,.03,.23-.01,.27l.07,.02s.01-.09,0-.12c.03-.1,.07-.05,.1,.03,.01,.14,.36-.61,.36-.52,.05,0,.08,.2,.12,.06,0-.11-.49,.51-.42,.46,.05,.15,.57-.74,.62-.47,.04-.01,.09-.04,.07-.19,.07,.07-.01,.27,.04,.41,0-.02,0-.07,0-.07l.05,.18c.1-.22,.26,.06,.36-.24-.03,.16-.06,.43-.12,.57v-.07s-.08,.1-.07,.24c.07,.09,.12,.07,.19-.08l.04,.12v-.06c.02,.09,.02,.1,.01,.16v.03c.04,.42,.25-.27,.37-.06,.03-.06,0-.07,.05-.15,.13,.17,.21,.29,.34,.39,.04-.18,.04-.25,0-.44l.1,.06c-.09,.48,.18,.46,.09,.94,.03,.11,.09,.13,.14,.05,0-.12,.01-.32,.08-.31,.09,.16,.07,.1,.15,.26,.02,.16-.01,.22,0,.34,.12-.2,.1,.34,.22,.31,.07-.05,.21-.06,.22-.34,.1,.01,.09,.22,.08,.44Z"/><path class="c" d="M95.28,100.66l-.07,.04c.13-.2,.37-.33,.62-.45-1.07-.19-2.12-.2-.83,1.37-.86-.63-1.57-.52-1.37-.35,.08,.21,.14,.39,.18,.56-.01-.11-.03-.22-.06-.34,.03,.12,.05,.23,.06,.34,.21,1.06-.53,1.43-1.32,1.81-.43,.22-1.31,1.04-1.83,1.22-.07,.03-.14,.06-.2,.1l.28-.06c.07,.39,.15,.75,.16,1.05,.15,.05,.27,.13,.5,.18l-.15,.04c.29,.35,.13,.54,.21,.74-.17-.15-.27-.1-.34-.06l.14,.06c-.26,.2-.31,.61-.5,.83-.02,.03-.11,0-.19-.02v.32c-.25-.19-.36,.03-.44-.18,.19,.37-.11,.42,.09,.79-.35,.6-.56,1.35-.5,2.23l.11,.05c.04,.32,.45,.82,.12,.98,.25,.39,.29,.76,.81,1.14-.03,.25,.22,.48,.27,.74,.31,.09,.25,.36,.52,.37,.46,.08,.13-.1,.5-.03l-.1-.05c.65-.22,1.19-.58,1.62-1-.03-.47,.41-.73,.56-1.12,.16-.44,.26-.97,.26-1.45-.02-.13,.24-.03,.41-.02,.09-.38,.44-.7,.54-1.14,0,0-.01,0-.02,.01,.08-.21,.45-.15,.53-.36-.07-.05-.06-.08-.09-.12,.36,.22,.03-1.54,.27-1.46,0-.03,0-.06,0-.09,.43-.25,1.37-.13,1.54-.49-.11-.19-.19-.37-.32-.56,.19,.06-.09-.17,0-.2,.8,.35,.59,.04,.29-.06,.01-.21,.18-.3,.25-.44l-.03-.29c-.02-.09,.1-.04,.28,.06,0-.2,.14-.03,.31-.11,.26,.15-.12-.61-.02-.6l.02,.05c.16-.12,.68,.14,.82,.02,.49-.26,.67-.82,1.04-1.11-.23-.2-.01,.12-.33-.14,.22-.18,.69-.14,.9-.3,.09,.02,.25,.08,.34,.13,.14,.01-.08-.14,0-.16l.22,.18c-.11-.22,.32,.11,.29-.03-.08-.08-.07-.11-.05-.13,.22,.2,.04-.08,.24,.11l-.02-.02s0-.03,.06-.01l-.51-.98,.05,.02s-.12-.21-.18-.22l.05-.03v.02l.06-.03s.13,.1,.22,.2c-.05-.1-.07-.16,0-.15-.19-.06-.46-.16-.74-.3-.05-.1,.12-.04,.12-.1,.18,.1,.37,.13,.52,.18,0-.02-.23-.27-.1-.19,.17,.15,.02-.03,.16,.06,.06,.11,0,.09-.03,.11,.2,.19,.19,.07,.26,.11-.05-.07,.06-.05,.03-.13,.17,.2,.14,.1,.25,.18,.04,0-.02-.08-.09-.14-.19-.21-.19-.05-.37-.29,.1,.09,.11,.02,.12-.01-.1-.11-.09-.07-.18-.19,.05,0-.05-.16,.07-.06,.02,.04,0,.03-.01,.03,.04-.01,.52,.9,.5,.79-.11-.08-.46-.84-.48-.83-.07-.04-.17-.22-.23-.24l.1,.16c-.07-.02-.26-.2-.32-.29,.06-.03,.59,.9,.52,.74l-.07-.04c-.05-.09-.07-.2,.06-.09-.1-.11-.12-.17-.14-.23h.02c-.03-.06,.02-.06-.13-.2-.1,.14-.96-1.23-1.15-1.17,.28,.2,.22,.27,.19,.35-.08-.08-.22-.18-.33-.2-.02,.05,.06,.11,.12,.18-.07-.04-.15-.04-.27-.18,.12,.18-.14-.05-.12,.03,.04,.1,.07,.06,.12,.16-.06,.03-.14,.06-.21,.07-.13-.1-.39-.26-.54-.47,.09-.05,.28,.32,.31,.21-.3-.23-.01-.14-.2-.35-.15-.1-.2-.05-.2,.02l.04,.03c0,.07,0,.2-.19,.09-.09-.1-.18-.15-.17-.2l-.07,.03s.05,.07,.09,.08c.05,.09-.01,.08-.09,.04-.11-.09,.19,.67,.13,.6-.03,.04-.19-.1-.12,.03,.08,.08-.04-.67-.05-.59-.14-.07,.14,.88-.07,.72-.02,.03-.02,.09,.09,.18-.09,0-.19-.2-.32-.25,.02,.02,.06,.05,.04,.05l-.16-.09c.1,.22-.2,.13-.05,.4-.1-.12-.28-.33-.34-.47l.06,.04s-.03-.11-.14-.2c-.11-.02-.13,.04-.06,.18l-.11-.05,.04,.04c-.08-.04-.09-.05-.13-.1l-.02-.02c-.34-.25,.04,.36-.2,.3,.02,.06,.05,.05,.09,.13-.2-.02-.35-.04-.5-.02,.11,.15,.17,.19,.34,.28l-.1,.03c-.31-.37-.46-.17-.77-.55-.1-.05-.15-.02-.13,.07,.09,.08,.23,.21,.19,.26-.18-.04-.12-.01-.29-.06-.13-.09-.16-.15-.26-.23,.08,.22-.33-.14-.37-.04,0,.08-.08,.2,.13,.37-.07,.06-.22-.07-.39-.22Z"/><path class="c" d="M82.62,126.15l-.04,.07c.02-.26,.16-.51,.31-.75-1.02,.42-1.95,.96-.05,1.72-1.06-.12-1.63,.36-1.38,.41,.17,.15,.31,.29,.42,.43-.06-.09-.13-.19-.22-.28,.09,.1,.16,.19,.22,.28,.69,.88,.21,1.63-.32,2.41-.28,.43-.69,1.67-1.07,2.11-.05,.06-.09,.13-.13,.2l.22-.21c.24,.34,.47,.64,.62,.93,.16-.02,.3-.01,.53-.09l-.12,.12c.42,.18,.36,.45,.53,.61-.23-.06-.28,.04-.33,.12h.16c-.14,.32,0,.74-.08,1.04,0,.04-.1,.06-.18,.07l.14,.32c-.3-.06-.3,.21-.47,.04,.33,.27,.08,.47,.43,.72-.05,.76,.09,1.6,.54,2.43h.12c.18,.29,.76,.57,.54,.89,.4,.27,.59,.61,1.23,.74,.08,.26,.4,.38,.56,.62,.32-.06,.38,.24,.63,.12,.45-.15,.07-.16,.44-.29h-.11c.49-.57,.82-1.2,1.03-1.85-.23-.46,.05-.94,.02-1.41-.05-.52-.19-1.1-.4-1.57-.08-.12,.2-.16,.36-.23-.09-.42,.09-.92-.02-1.41,0,0,0,.02-.01,.02-.02-.25,.33-.39,.31-.63-.09-.01-.09-.05-.13-.07,.42,.02-.66-1.53-.41-1.58-.02-.03-.03-.06-.04-.08,.26-.48,1.16-.87,1.15-1.32-.18-.12-.34-.26-.55-.37,.19-.05-.15-.12-.09-.2,.88-.1,.55-.3,.23-.22-.08-.21,.02-.39,.02-.57-.05-.09-.1-.18-.16-.27-.06-.08,.07-.1,.28-.1-.09-.19,.11-.11,.22-.28,.3,0-.39-.53-.3-.57l.04,.04c.09-.2,.67-.25,.73-.45,.31-.54,.19-1.2,.38-1.72-.31-.06,.05,.13-.36,.07,.1-.31,.54-.56,.64-.87,.09-.04,.26-.09,.36-.1,.13-.08-.14-.08-.08-.15l.28,.04c-.21-.15,.33-.11,.24-.23-.11-.02-.12-.06-.1-.1,.29,.05,0-.12,.27-.07h-.02s0-.04,.05-.06c-.1-.06-.84-.58-.96-.65h.05c0-.07-.21-.13-.27-.11l.03-.07h.02l.03-.06s.17,0,.29,.04c-.1-.06-.14-.11-.08-.14-.2,.08-.48,.18-.8,.25-.09-.07,.08-.13,.05-.19,.2-.03,.39-.13,.54-.21-.01-.03-.34-.09-.19-.12,.23,.01,0-.06,.17-.07,.11,.07,.05,.11,.03,.15,.27,.03,.2-.09,.28-.12-.08-.03,.02-.11-.04-.18,.25,.07,.17-.02,.32-.04,.04-.04-.06-.08-.15-.08-.28-.06-.19,.13-.48,.03,.14,0,.1-.08,.1-.12-.15-.02-.12,.01-.26-.04,.04-.04-.13-.12,.03-.12,.04,.02,.01,.03,0,.04,.03-.06,.94,.49,.87,.4-.14,0-.85-.49-.86-.45-.08,.03-.27-.07-.33-.04l.18,.07c-.07,.04-.34,.02-.44-.01,.04-.08,1,.42,.86,.32l-.08,.02c-.09-.05-.17-.15,0-.16-.15-.02-.2-.08-.25-.12h.03c-.07-.06-.03-.1-.23-.11-.01,.22-1.51-.38-1.63-.19,.35-.03,.34,.08,.36,.18-.11,0-.29,0-.38,.06,.02,.06,.12,.05,.2,.08-.08,.02-.15,.07-.33,.03,.2,.08-.14,.05-.08,.11,.09,.06,.09,.01,.19,.06-.03,.07-.08,.16-.13,.21-.17,0-.47,.01-.72-.08,.05-.1,.41,.11,.37-.01-.38-.01-.09-.11-.37-.18-.17,0-.19,.08-.15,.15h.05c.04,.06,.1,.18-.11,.2-.13-.03-.23-.03-.26-.07l-.04,.07s.08,.03,.11,.02c.1,.05,.03,.08-.05,.09-.14-.01,.52,.48,.44,.46,0,.05-.22,.03-.08,.11,.11,.02-.39-.58-.36-.5-.16,.02,.6,.71,.33,.7,0,.04,.03,.09,.17,.11-.08,.05-.27-.06-.41-.04,.02,0,.07,0,.06,.02l-.19,.02c.2,.14-.11,.24,.16,.39-.15-.06-.41-.14-.54-.23h.08s-.08-.08-.22-.1c-.1,.05-.09,.11,.04,.2l-.12,.02h.06c-.09,.02-.11,.01-.16,0h-.03c-.42-.04,.22,.29-.01,.37,.05,.04,.07,.01,.14,.07-.18,.09-.32,.16-.44,.27,.17,.07,.24,.08,.44,.07l-.07,.09c-.46-.17-.48,.11-.94-.07-.11,.01-.14,.06-.08,.13,.12,.03,.31,.06,.3,.13-.17,.07-.11,.06-.28,.11-.16,0-.21-.05-.34-.06,.18,.15-.35,.05-.34,.17,.03,.08,.03,.22,.3,.27-.03,.09-.23,.06-.45,.02Z"/><path class="c" d="M82.54,155v.09c-.1-.25-.1-.54-.07-.84-.73,.84-1.28,1.81,.75,1.6-.99,.39-1.26,1.11-1.01,1.04,.23,.05,.42,.12,.59,.2-.1-.06-.22-.12-.34-.16,.12,.05,.23,.1,.34,.16,1.09,.58,1.18,1.54,1.24,2.51,.05,.54,.5,1.79,.48,2.36,0,.08,0,.16,.02,.24l.05-.3c.39,.12,.77,.2,1.05,.33,.11-.12,.23-.2,.36-.4l-.02,.16c.44-.12,.56,.12,.79,.14-.21,.09-.2,.2-.18,.3l.11-.11c.09,.34,.45,.58,.58,.85,.02,.04-.04,.11-.09,.16l.3,.16c-.28,.14-.11,.34-.35,.33,.42,0,.34,.3,.77,.28,.41,.6,1.01,1.15,1.84,1.53l.09-.07c.31,.12,.95,.02,.94,.4,.47,0,.82,.17,1.43-.06,.21,.19,.54,.14,.82,.31,.25-.21,.47,.06,.63-.17,.31-.37-.03-.21,.21-.52l-.09,.05c.07-.9-.06-1.66-.29-2.34-.47-.27-.54-.82-.86-1.2-.37-.39-.83-.76-1.29-1.01-.13-.04,.06-.25,.14-.4-.33-.28-.5-.77-.88-1.08,0,0,0,.02,0,.02-.17-.18,.02-.5-.14-.68-.08,.05-.1,.02-.15,.03,.34-.25-1.45-.75-1.28-.94-.03-.01-.06-.02-.08-.04-.08-.52,.41-1.35,.17-1.66-.22,.02-.42,0-.65,.05,.13-.14-.19,0-.18-.09,.67-.56,.3-.5,.08-.28-.19-.11-.16-.26-.25-.38l-.26-.1c-.09-.03,.02-.1,.2-.2-.17-.1,.05-.13,.07-.32,.27-.14-.59-.24-.52-.32h.05c-.02-.19,.48-.51,.45-.7,.03-.58-.35-1.08-.39-1.58-.3,.08,.1,.08-.3,.21-.03-.3,.26-.68,.24-.97,.07-.07,.2-.17,.29-.22,.09-.11-.16-.01-.13-.08l.27-.08c-.25-.03,.27-.2,.14-.26-.11,.02-.13,0-.13-.04,.29-.07-.04-.08,.23-.14h-.02s-.02-.02,.03-.05l-1.1-.13,.05-.02s-.24-.02-.29,.02v-.06h.03v-.05s.17-.05,.3-.06c-.11,0-.16-.02-.11-.05-.18,.08-.41,.23-.69,.38-.11-.02,.04-.12,0-.15,.18-.09,.34-.18,.47-.26-.02,0-.35,.02-.21-.02,.22-.04-.01-.03,.15-.05,.12-.01,.07,.02,.06,.05,.27-.04,.17-.09,.25-.08-.04,0-.04,0-.04,0,0,0,.08,0-.27,0,.1,0,0,0-.15,0h-.35l.99-.02h.01s.03,.02,.04,.03c.03,.06-.07,.09-.16,.06-.14,0-.18-.05-.23-.08h-.34c.06,.01,.07,.01-.04,.01h.24s-.01,.07-.02,.09c-.15,0-.12-.03-.26-.02,.03,.04-.16,.06,0,.1,.04,0,.02-.02,.02-.03,0,.03,.27,0,.51-.1l.09-.04,.04-.02h-.43c.2,0,.27,0,.12,0h.29l-.04,.02-.16,.07c-.22,.09-.43,.11-.43,.09-.07-.04-.28-.03-.33-.06h.19s-.32-.07-.43-.07c0,.02,.28,.03,.52-.02l.09-.02h.04l.02-.02h0c.16,0,.21,0,.06,0h.12s-.02,0-.02,0h-.12s0,.02,.01,.02c.01,.01,.04,.02,.08,.03-.15,0-.21,.03-.27,.05h.02c-.08,.03-.06,.07-.25,.03,.03-.07-.36-.07-.76-.12-.4-.05-.81-.15-.85-.09,.33,0,.35,.05,.38,.08-.12,0-.29,.02-.37,.08,.03,.05,.13,.02,.21,.03-.07,.03-.13,.08-.31,.09,.21,.02-.13,.07-.05,.12,.1,.03,.09-.01,.2,0-.01,.07-.03,.16-.06,.22-.16,.04-.44,.16-.7,.15,.02-.11,.42-.03,.35-.13-.37,.1-.12-.08-.4-.06-.16,.06-.16,.14-.1,.19l.05-.02c.06,.05,.15,.14-.03,.23-.13,.01-.23,.05-.27,.02v.08s.08,0,.1-.02c.11,.02,.06,.06-.01,.1-.14,.04,.66,.27,.57,.27,.02,.05-.19,.11-.04,.13,.11-.02-.58-.39-.52-.34-.14,.09,.82,.44,.57,.53,.02,.04,.06,.07,.2,.03-.05,.08-.27,.05-.39,.12,.02,0,.07-.02,.07,0l-.16,.09c.24,.05,0,.27,.31,.29-.16,.01-.43,.05-.58,.01l.07-.03s-.11-.04-.25,0c-.08,.09-.04,.14,.12,.17l-.1,.07,.05-.02c-.08,.05-.09,.05-.15,.05h-.03c-.39,.15,.33,.19,.15,.37,.07,.02,.07-.02,.16,0-.13,.17-.22,.28-.28,.44,.18-.01,.25-.03,.42-.13l-.03,.11c-.49,.05-.39,.31-.87,.35-.1,.06-.1,.12-.01,.15,.12-.03,.31-.08,.33-.01-.13,.14-.08,.1-.2,.22-.14,.06-.21,.05-.33,.09,.23,.06-.29,.21-.23,.31,.07,.06,.13,.19,.39,.11,.02,.1-.17,.16-.39,.22Z"/><path class="c" d="M99.4,179.58l.04,.08c-.21-.15-.36-.41-.49-.67-.16,1.1-.16,2.18,1.47,.95-.65,.84-.52,1.59-.35,1.4,.22-.07,.41-.12,.59-.14-.11,0-.23,.02-.36,.04,.13-.02,.25-.04,.36-.04,1.12-.14,1.53,.67,1.94,1.54,.24,.46,1.11,1.47,1.31,2.02,.03,.08,.07,.15,.1,.22l-.07-.3c.41-.03,.8-.07,1.12-.05,.06-.15,.14-.27,.19-.5l.04,.16c.37-.27,.58-.08,.8-.14-.17,.16-.11,.26-.06,.35l.07-.14c.22,.29,.66,.4,.89,.61,.03,.03,0,.12-.03,.19l.35,.04c-.21,.23,.03,.37-.2,.43,.4-.15,.45,.17,.85,0,.64,.43,1.45,.74,2.41,.78l.05-.11c.35,0,.89-.36,1.06-.01,.43-.21,.83-.21,1.25-.71,.27,.05,.52-.18,.8-.2,.1-.31,.38-.22,.39-.5,.09-.47-.1-.14-.03-.51l-.05,.1c-.23-.68-.62-1.28-1.07-1.78-.52-.03-.79-.52-1.22-.72-.48-.22-1.05-.39-1.57-.46-.14,0-.04-.25-.02-.43-.41-.14-.76-.55-1.24-.71,0,0,0,.02,.01,.02-.23-.11-.17-.49-.39-.6-.06,.07-.09,.05-.13,.08,.23-.35-1.67-.22-1.59-.46-.03,0-.06,0-.09-.01-.28-.48-.17-1.45-.56-1.68-.2,.09-.4,.16-.6,.28,.06-.19-.18,.07-.22-.03,.36-.81,.02-.62-.07-.31-.23-.04-.33-.22-.48-.31h-.32c-.1,0-.05-.12,.05-.29-.21-.02-.04-.15-.13-.34,.16-.26-.66,.06-.65-.04h.05c-.13-.19,.13-.72-.02-.88-.31-.55-.94-.79-1.29-1.22-.21,.23,.14,.03-.13,.34-.21-.25-.21-.75-.42-1,0-.1,.06-.27,.1-.36,0-.16-.14,.07-.17,0l.18-.22c-.23,.1,.08-.34-.07-.32-.08,.08-.12,.07-.14,.04,.19-.23-.1-.06,.08-.26l-.02,.02s-.04-.01-.03-.07c-.1,.05-.93,.41-1.05,.48l.02-.05c-.05-.03-.21,.12-.22,.18l-.04-.06h.02l-.04-.07s.09-.14,.19-.23c-.1,.05-.17,.06-.17,0-.03,.21-.09,.5-.2,.81-.1,.05-.07-.13-.13-.14,.08-.19,.09-.4,.1-.57-.03,0-.26,.24-.2,.1,.13-.19-.05-.03,.03-.18,.12-.06,.12,.01,.15,.05,.17-.21,.03-.22,.05-.3-.07,.05-.08-.08-.18-.06,.19-.18,.07-.16,.14-.29,0-.05-.1,.01-.15,.09-.2,.2,.01,.23-.23,.42,.08-.11-.01-.13-.05-.15-.1,.12-.05,.11-.17,.2-.01-.06-.17,.05-.09-.09,.03-.03,.03,0,.04,.02-.04-.05,.91-.54,.79-.53-.07,.12-.87,.46-.84,.49-.02,.08-.2,.19-.21,.26l.16-.11c0,.08-.16,.3-.24,.36-.05-.08,.88-.63,.72-.56l-.02,.08c-.09,.05-.21,.06-.13-.08-.1,.11-.17,.13-.23,.14v-.03c-.07,.03-.09-.03-.2,.14,.18,.13-1.13,1.07-1.02,1.28,.15-.31,.25-.24,.35-.21-.07,.09-.15,.25-.15,.36,.06,.02,.11-.07,.17-.13-.03,.08-.02,.17-.14,.3,.17-.13-.03,.15,.06,.13,.1-.04,.06-.07,.15-.13,.04,.06,.1,.15,.11,.22-.09,.14-.23,.41-.44,.57-.06-.1,.31-.29,.18-.32-.21,.32-.14,.01-.35,.22-.08,.15-.03,.2,.05,.21l.02-.05c.07,0,.21,0,.12,.2-.1,.09-.14,.18-.2,.18l.04,.07s.07-.05,.07-.09c.09-.06,.08,.01,.05,.09-.09,.11,.69-.19,.62-.13,.04,.03-.08,.2,.05,.13,.08-.08-.71,.03-.62,.04-.07,.15,.92-.13,.78,.09,.04,.02,.09,.03,.18-.09,0,.1-.19,.19-.24,.33,.02-.02,.04-.06,.05-.04l-.08,.17c.22-.1,.15,.22,.43,.07-.13,.1-.33,.28-.47,.34l.04-.07s-.11,.03-.2,.14c-.01,.12,.05,.13,.2,.07l-.05,.11,.04-.04c-.04,.08-.05,.09-.09,.13l-.02,.02c-.24,.35,.37-.03,.33,.22,.07-.02,.05-.05,.14-.08-.01,.21-.03,.36,0,.52,.15-.11,.2-.16,.28-.34l.04,.11c-.38,.31-.16,.47-.54,.77-.05,.1-.02,.16,.07,.14,.08-.09,.22-.23,.27-.18-.03,.19,0,.13-.05,.3-.09,.13-.15,.16-.23,.26,.23-.07-.14,.33-.03,.38,.09,.01,.21,.09,.39-.12,.07,.07-.06,.23-.22,.39Z"/><path class="d" d="M212.56,141.43l3.18,.05c-10.28-.04-21.09-.17-31.74-.3,7.8,.33,16.07,.66,24.3,.88,4.11,.11,8.21,.2,12.24,.25,2.01,.02,4.01,.03,5.97,.05h1.83c.1,0,.05,0,.08,0h.08l.35-.05,.06,.3,.02,.09v.05s.01,0,.02,.04v.17l.05,1.34c.06,1.78,.14,3.52,.24,5.2,.19,3.38,.44,6.56,.77,9.49-1.06,1.95-1.55,24.44-1.29,24.9,.2,4.67,.36,9.4,.49,14.19-.09-3.29-.18-6.57-.26-9.82,.09,3.25,.18,6.53,.26,9.82,.21,7.56,.34,15.28,.42,23.15,.03,3.29,.05,6.61,.08,9.96,.15,.47-.36,.29-.65,.34l-1.77,.05c-2.01,.04-4.02,.08-6.05,.12-16.2,.24-32.89-.07-49.9-.26-4.72-.04-11.46-.08-19.24-.04-1.94,.02-3.95,.03-6.01,.05-1.92,.03-3.88,.06-5.87,.09h-.47c-.05,0-.06-.03-.05-.08v-.12l.02-.24c.03-1.84,.06-3.69,.09-5.54,.25-17.57,.52-35.2,.75-44.86,.06-2.8,.11-5.59,.17-8.41l-.26,9.37c-.18-11.79-.34-22.47-.49-32.81-.16,1.82-.31,2.14-.55,6.46l.14-5.28c-.41-4.81-.34-15.9-.51-21.11,.23,1.12,.28-2.99,.32-6.61l-.15,1.43c.12-13.75-.15-29.71-.25-42-.02-1.71,.05-3,.12-3.78l-.33-11.78c.32,.9,.11-9.78,.4-4.16-.25-4.41-.38-8.85-.5-13.24-.04-1.32-.08-2.63-.12-3.94l-.08-2.55-.04-1.26c.04-.15-.13-.09-.22-.11l-.32-.02-.64-.03-2.53-.12-1.25-.06-.61-.02h-.49c-1.08,0-2.16-.03-3.23,.01-7.62-.14-15.3,.43-22.94,.79-3.82,.17-7.65,.28-11.47,.19l-2.86-.11-2.86-.19c-1.98-.15-3.98-.26-5.96-.29-3.98-.06-7.94,.15-11.82,.3-1.94,.07-3.87,.12-5.79,.09-.96,0-1.91-.05-2.87-.1l-1.44-.09c-.52-.02-1.05-.07-1.55-.07-4.06-.05-7.96,.25-11.88,.58l-2.93,.29-3.6,.43-.94,.12-.47,.06-.23,.03c-.03,.05-.01,.15-.02,.22l-.07,1.89c-.02,.63,0,1.29,0,1.93l.03,1.64,.11-.76c.22,10.87,.71,20.46,.41,33.67,.19,9.44,.03,22.86,.25,26.61,.03,10.88,.39,15.22,.34,25.9,.1-2.75-.2,10.37-.1,5.12,.25-7.08,.17-7.48,.26-13.49l-.02,.18c.03-7.02,0-14.04,.29-21.03l1.04-21.08c.37-7.04,.69-14.09,1-21.16l.47-10.62,.12-2.66,.06-1.33c.02-.3,0-.23,0-.3l-.02-.14c-.02-.1-.02-.18,0-.26,.03-.07,0-.18,.07-.22l.57-.04,6.54-.6c2.37-.2,4.76-.35,7.1-.35,.59-.01,1.15,.01,1.72,.02l1.72,.11c1.29,.1,2.59,.18,3.88,.2,2.58,.07,5.14,0,7.64-.07,5.01-.17,9.85-.29,14.66,.12l3.79,.29c1.28,.06,2.57,.14,3.84,.16,2.55,.06,5.09,.04,7.59-.04,5.39-.17,10.81-.56,16.17-.8,2.69-.13,5.35-.2,8.01-.22,1.32,.01,2.65-.01,3.96,.04l2.19,.06h.29c.07,0,.06,.04,.06,.09v.14l.04,.57,.11,3.32c.08,2.61,.16,5.18,.23,7.7,.14,5.04,.28,9.89,.41,14.44,.15,4.34-.08,7.48-.19,11.18,.32,16.74,.25,38.05,.33,56.94l.02-.93c0,10.04-.37,17.55-.41,27.35,.09-.05,.08,1.47,.13,2.21-.44,1.7,.45,57.74,.18,61.2,0,1.37,.01,2.79,.02,4.24l-.02,1.46v.73l-.02,.37v.18s-.04,.16,.05,.13l2.91-.06c1.65-.03,3.31-.05,4.96-.08h7.79c5.18,.02,10.35,.11,15.42,.19,10.15,.19,19.94,.41,28.83,.37,3.86-.2,8.21-.38,11.46-.63,3.15,.17,3.75-.19,7.54-.18,9.64,.75,15.29,.23,10.3,.04,2.16-.07,4.32-.14,6.46-.21l4.65-.14c.05-1.5,.01-3.07,.02-4.58,0-4.05,0-7.98,0-11.67-.07-3.26-.13-6.5-.2-9.78-.07-2.79,.05-4.35,.25-5.75-.12-7.14,.09-5.04,.17-12.53,.3-1.81-.48-18.78-.39-20.9l.04,1.22c.05-8.66,.62-14.41,.65-22.88,.02-4.44,.04-8.94,.07-13.56-6.06-.05-12.2-.11-18.33-.16-5.17-.02-10.33-.04-15.44-.06-10.22-.03-20.21-.05-29.49-.07-.22,.31,4.81-.06,5.06,.35-12.85-.07-25.81-.43-38.78-.58-2.34-.06-5.2-.12-6.27-.18-4.14,.02-2.45,.22-5.48,.27l-.41-.25c-4.43,.34-6.48-.06-10.65,.19-.22,.1-1.75,.16-3.23,.21-.07-.23-4.57,.17-4.35-.04l-.04,.02c-.89,.03-1.53,.07-2.62,.07-1.7,.18-17.62,1.2-19.34,1.27h-.8c-2.38,.07-3.4,.2-2.01,.19l-2.94,.06,.34-.02-2.92,.06c-.54,0-1.15-.04-.32-.12-1.65,.09-3.51,.16-5.17,.18,4.6-.06,10.32-.07,15.13,0-1.98,.09-5.55,.08-7.69,.13-2.56-.05-7.82,0-11.92,.05-.9,.03-1.52,.14-3.56,.14-1-.04-2.31,.05-4,.05,1.95-.07,3.86-.11,5.84-.15-.34-.08-4.81,.06-6.38,.09-.74,.02-4.58,.23-6.97,.49,1.04-.14-1.93,.16-3.34,.29-1.61,.16-2.64,.24-1.98,.2-.52,.09,6.4-.58,4.16-.33-.59,.04-3.74,.35-5.44,.46-.02,.01,1.16-.07,.06,.01-1.89,.13-3.9,.19-4.99,.18,.36,0,1.14,0,1.69-.02-1.23,.03,2.11-.02,5.35-.36,3.23-.32,6.39-.69,4.79-.52,.41-.04-3.09,.39-6.48,.67-3.4,.3-6.71,.23-5.89,.24,1.5,0-1.08,0,.48,0,.58,0,1.15,0,1.73-.02,2.13-.06,3-.12,2.25-.06-1.78,.08,.75-.02,3.33-.26,2.58-.24,5.23-.54,3.72-.38l1.24-.1c-1.29,.13-4.73,.47-6.05,.55,0,0-.44,.05-1.05,.09-.61,.05-1.41,.09-2.13,.13l-.51,.02c-1.49,.07-3.58,.05-2.61,.05,1.09,0,1.82-.02,2.28-.03,.46-.01,.64-.02,.64-.02,0,0-.72,.04-1.46,.05-1.47,0-2.98,0,1.26,.01-3.56,0,1.2,.06,4.92-.24,.42-.02,2.05-.12,4.69-.27,2.32-.14,1.37-.1,1.81-.14,1.29-.07,3.75-.11,3.43-.06,1.81-.07,2.89,.03,5.07,.02,1.91-.02-.13-.03,1.23-.05l9.18,.05c.88,.06,3.58,.21,1.61,.3-4.35-.05,1.66-.16-2.87-.17,1.95,.16-4.01,.02-4.83,.1,1.44,.07,4.37,.11,6.82,.12l-.49-.03c2.16,0,6.47,0,8.8,.12-.55,.06,.47,.12-1.12,.12l2.97,.05c.38-.02,.76-.04-.09-.06,1.4-.04,2.8,0,3.88,.06,.32,.12,15.79-.24,15.31-.21,2.14,0,2.66,.16,4.74,.06,.03-.01-.27-.01-.81-.01l-2.25,.02c-1.86,.02-4.34,.05-6.73,.08-4.79,.06-9.25,.08-7.83,.09,.91,.06,6.97,.02,12.97-.06,6-.08,11.93-.19,12.6-.08,1.58,0,3.5-.02,3.13-.15,2.68,.07-.8,.23,1.1,.36,.04-.02-.16-.06,.45-.06l1.83,.17c4.16-.19,10.26,.13,14.61-.16-1.26,.16-2.7,.43-5.5,.54l-.49-.08c-.4,.04-2.7,.07-2.64,.2,2.66,.12,4.94,.13,7.74,0l1.52,.13s-.05-.04-.04-.06c.92,.09,.82,.11,.48,.16-.04,.01-.1,.02-.19,.03,1.67,.46,10.45-.31,15.31-.08,1.43-.06,.13-.07,1.92-.15,4.97,.17,8.39,.3,13.59,.4,1.66-.18,1.79-.25-.21-.44l3.92,.06c-3.57,.48,7.33,.47,3.39,.94,1.15,.11,3.5,.14,5.69,.06,.22-.12,.57-.31,3.33-.31,3.85,.17,2.93,.13,6.11,.27,.75,.16-.42,.22-.28,.34,4.91-.19,4.29,.35,8.92,.34,2.9-.03,8.63-.03,8.77-.3,3.91,.03,3.91,.24,3.52,.46Z"/><path class="d" d="M38.46,88.76l-.04,.78c.02-2.54,.14-5.2,.26-7.83-.83,5.71-1.59,12.45-.06,16.89-.86,.47-1.33,6.01-1.12,6.13,.14,1.15,.25,2.32,.34,3.5l-.17-2.42,.17,2.42c.55,7.47,.15,15.57-.3,23.94l-.13,3.01-.19,6.76c1.22,0,2.48-.01,3.76-.02h3.14c1.41,.02,2.83,.03,4.18,.05,2.7,.03,5.12,.08,6.69,.14,.69,.02,1.38,.04,2.08,.06q-1.16-.06-2.32-.12c2.9-.27,5.54-.52,8.09-.71-.45-.12-.53-.23-1.6-.38l1.3,.06c1.18-.37,3.92-.39,5.2-.56-.27,.19,.74,.21,1.63,.22l-.36-.12c3.39,.03,7.33-.2,10.36-.22,.42,0,.74,.06,.93,.11l2.9-.2c-.22,.25,2.41,.17,1.03,.35,2.17-.33,4.38-.2,6.45-.55,7.41-.19,15.29-.57,22.94-1.22l-.19-.09c2.68-.24,5.02-.81,8.29-.77,2.31-.4,5.62-.73,6.52-1.28,2.68-.18,3.73-.51,6.35-.78-.69-.22,2.53-.45,1.23-.57-1.76-.26-1.84,.04-3.33-.17l.05,.08c-6.91-.04-13.82,0-20.83,.08-4.67,.35-9.74,.31-14.6,.48-5.23,.21-10.89,.49-15.38,.79-1.07,.09-1.85-.1-2.76-.21-4.13,.19-9.39,.19-14.05,.4h.23c-2.48,.08-4.33-.15-6.75-.07,.01,.07-.36,.08-.54,.12-.21-.17-3.77,.06-7.38,.3l-5.05,.33c-1.38,.08-2.56,.13-2.47,.08l-.4,.04c-.34-.02-.67-.04-.97-.07,.06-.6,.15-1.09,.23-1.6l.28-3.26c.17-2.14,.31-4.2,.31-6.09-.15-.95-.27-2.03-.44-2.83,.16-.77-.12-.93-.07-1.86,.71-2.36,.45-3.75,.19-2.53-.06-1.95,.02-3.91,.03-5.64l-.13-2.42c-.05-.69,.06-1.07,.23-1.42-.07-1.76,.09-1.24,.18-3.09,.24-.44-.31-4.64-.23-5.16l.03,.3c.07-2.14,.55-3.55,.6-5.64,.26-5.8,.17-12.14,.33-17.51-.25-.06,.04,1.19-.29,1.24,.09-3.17,.44-6.36,.53-9.56,.08-.58,.21-1.28,.29-1.54,.11-1.02-.11-.61-.07-1.35l.23-.1c-.17-1.1,.27-1.6,.19-2.63-.09-.06-.1-.43-.08-.8,.24-.02,0-1.13,.22-1.07h-.02c0-.23,0-.39,.04-.66-.08-.42-.67-4.36-.77-4.78l.04-.2c0-.59-.17-.84-.22-.5l.02-.72,.02,.08,.02-.72c.02-.13,.14-.28,.24-.08-.08-.41-.12-.87-.07-1.28-.16,1.13-.39,2.54-.65,3.72-.07-.49,.06-1.37,.05-1.9,.17-.63,.32-1.93,.44-2.93-.01-.22-.27-.38-.15-.88,.19-.24,0-.57,.14-.99,.09,.48,.04,.95,.02,1.44,.22-.08,.16-1.18,.23-1.57-.07-.18,.02-1.12-.03-1.71,.2,.26,.14-.48,.26-.83,.03-.4-.05-.65-.12-.49-.22-.13-.16,1.59-.39,1.03,.11-.14,.08-.93,.08-1.35-.12,0-.1,.29-.21,.01,.03-.47-.11-.97,.02-1.23,.03,.09,0,.28,0,.42,.02-.61,.76,3.31,.7,2.52-.11,.2-.68-3.48-.7-3.07-.07,.37-.22-.27-.27,.12l.14,.43c-.05,.52-.27,.74-.35,.55,.03-.88,.81,2.51,.69,1.76l-.06,.3c-.08-.32-.13-1.17,0-1.5-.12,0-.16-.43-.2-.79l.02-.13c-.06-.37-.02-.88-.18-.65-.01,2.16-1.22-1.43-1.32,.66,.28-.87,.27,.3,.29,1.22-.09,.09-.23,.5-.31,1.16,.01,.57,.09,.34,.16,.45-.07,.32-.12,.92-.27,.84,.16,.45-.12,.71-.07,1.25,.07,.47,.07-.03,.15,.3-.03,.71-.07,1.7-.11,2.26-.14,.22-.38,.88-.58,.39,.04-1.07,.33,.41,.3-.7-.31,.48-.07-.99-.3-1.2-.14,.35-.15,1.08-.12,1.68l.04-.12c.03,.53,.08,1.6-.09,2.17-.1-.14-.19,.11-.21-.28l-.03,.73c.03,.09,.07,.19,.09-.02,.08,.35,.03,.69-.04,.96-.11,.08,.42,3.9,.35,3.78,0,.53-.18,.65-.07,1.17,.09,.06-.31-5.05-.29-4.35-.13,.45,.48,5.99,.26,6.31,0,.39,.02,.86,.14,.77-.06,.66-.22-.2-.33,.27,.02,.01,.06-.04,.05,.11l-.15,.45c.16,1.03-.09,2.53,.13,3.61-.12-.31-.33-.67-.43-1.36l.06-.12c-.03-.1-.07-.67-.18-.65-.09,.66-.07,1.22,.03,1.91-.03,.13-.07,.28-.1,.37,.02,0,.03-.01,.04-.01-.07,.22-.09,.2-.13,.12,0-.01-.02-.02-.03-.05-.34,.41,.18,2.58-.02,3.78,.04,.35,.06,.03,.11,.47-.15,1.22-.26,2.07-.36,3.35,.14,.41,.2,.44,.35-.05l-.06,.97c-.37-.89-.39,1.8-.76,.83-.09,.28-.12,.86-.06,1.4,.1,.06,.25,.14,.24,.82-.14,.95-.09,.72-.23,1.51-.13,.18-.17-.1-.27-.07,.14,1.21-.29,1.05-.28,2.2,.03,.72,.02,2.13,.24,2.17-.02,.96-.19,.96-.36,.86Z"/></svg>