<?xml version="1.0" encoding="UTF-8"?><svg id="a" xmlns="http://www.w3.org/2000/svg" viewBox="0 0 276.77 280.34"><defs><style>.b{fill:#005bea;}.c{fill:#65dff6;}.d{fill:#0b1f65;}</style></defs><g><path class="c" d="M91.35,43.5c-2.47,.48-5.02,1.22-6.79,3.01-2.01,2.03-2.66,5.01-3.12,7.83-1.72,10.67,.08,21.52-.08,32.33-.66,46.4-2.38,92.82-1.16,139.21,.05,1.96,.12,3.99,.95,5.77,1.79,3.85,6.34,8.18,10.59,8.17,24.33-.06,36.11,1.07,54.24,.52l27.9-.85c7.43-.23,17.27-.29,20.67-6.9,1.27-2.47,.71-6.31,.69-9.09-.36-47.26,.31-86.72,1.44-134.95,.38-16.33-.09-21.31-1.39-35.15-.2-2.17-2.57-4.13-4.05-5.73-2.62-2.83-6.67-3.79-10.5-4.3-15.84-2.12-31.73-1.13-47.57-.6-14.01,.47-27.86-1.98-41.8,.72Z"/><path class="c" d="M78.49,173.05l-.04,2.49c.06-8.06,.22-16.54,.42-24.89-.8,18.16-1.37,39.65-.22,53.7-.57,1.53-.5,19.19-.33,19.55,.12,1.82,.09,3.65,.46,5.75,.19,1.02,.54,2.15,1.07,3.09,.49,.93,1.06,1.79,1.7,2.59-.87-1.13-1.62-2.27-2.21-3.73-.55-1.45-.72-2.9-.81-4.24,.09,1.34,.27,2.79,.81,4.24,.59,1.45,1.34,2.6,2.21,3.73,1,1.27,2.16,2.41,3.47,3.4,1.31,.99,2.81,1.82,4.54,2.26,.43,.11,.88,.18,1.33,.23,.47,.03,.94,.05,1.29,.04l2.28-.02,4.59-.02c6.15,0,12.41,.13,18.77,.3,6.36,.17,12.83,.37,19.38,.38,6.57,.03,13.17-.21,19.82-.34,3.69-.09,8.97-.23,15.04-.38,3.03-.09,6.28-.09,9.73-.43,1.72-.17,3.48-.44,5.26-.91,1.77-.48,3.57-1.16,5.22-2.27,1.66-1.11,3.05-2.64,3.97-4.54,.89-2.08,.86-3.99,.87-5.74-.01-.88-.05-1.73-.08-2.53,0-.39-.02-.79-.03-1.18,0-.41,0-.81,0-1.21,0-1.61,0-3.19,0-4.72,.02-6.12,.04-11.46,.05-15.25,.02-2.19,.03-4.38,.05-6.59l-.09,7.34c-.16-9.23-.27-17.59-.31-25.69-.08,1.43-.16,1.67-.28,5.06l.07-4.13c-.2-3.77-.12-12.45-.17-16.53,.11,.88,.16-2.34,.21-5.17l-.09,1.12c.16-10.77,.34-23.26,.48-32.89,.02-1.34,.09-2.35,.14-2.95l.1-9.23c.14,.71,.3-7.65,.3-3.24-.04-6.91,.24-13.91,.2-20.5,.13-5.89,.22-11.89-.05-17.96-.13-3.03-.35-6.08-.62-9.12-.14-1.52-.28-3.04-.43-4.56l-.22-2.28-.11-1.14-.06-.57c-.03-.22-.06-.48-.13-.7-.24-.92-.71-1.68-1.2-2.34-.5-.67-1.05-1.25-1.6-1.81l-1.62-1.64c-.59-.6-1.24-1.12-1.94-1.55-2.81-1.77-6.03-2.36-9.09-2.74-6.13-.75-12.29-1.06-18.39-1.08l.6,.06c-8.55-.04-16.04,.57-26.39,.85-7.37,.67-17.9,.18-20.85,.4-4.26-.15-7.24-.16-10.19-.07-2.95,.11-5.88,.25-9.98,.81,1.07-.04-.93,.2-2.65,.57-1.72,.32-3.25,.7-1.21,.35,2.71-.38,4.14-.53,5.47-.68,1.33-.13,2.56-.25,4.89-.28l-.14-.05c10.85-.37,21.84,1.14,33.01,.69,11.04-.31,22.09-.82,33.12-.28,3.68,.13,7.43,.4,11.2,.85,1.91,.21,3.74,.47,5.49,.95,1.74,.48,3.38,1.18,4.67,2.24,.33,.27,.61,.54,.92,.86l1.05,1.08c.68,.69,1.31,1.35,1.79,2.02,.24,.33,.43,.66,.56,.97,.07,.15,.11,.3,.15,.44l.03,.2c.01,.05,.02,.22,.04,.33l.27,2.93c.36,3.9,.71,7.77,.94,11.6,.52,8.23,.3,16.85,.16,25.22-.12,8.37-.24,16.44-.34,23.58-.02,3.41-.21,5.86-.33,8.77-.18,13.13-.49,29.85-.51,44.66,0-.28,0-.55,.01-.73-.04,7.87-.23,13.77-.22,21.45,.05-.04,.05,1.15,.07,1.73-.11,.67-.02,11.98,.17,23.47,.07,2.89,.06,5.71,.18,8.52,.08,1.37,.16,2.66,.11,3.85-.04,1.19-.22,2.28-.61,3.11-.86,1.81-2.29,2.96-3.42,3.65-.59,.33-1.08,.6-1.5,.76-.41,.17-.69,.3-.85,.33l-1.09,.38-1.16,.31c-3.82,.86-7.88,.88-11.95,.96-4.07,.07-8.12,.14-12.1,.2-7.96,.15-15.62,.3-22.56,.43-3.01,.13-6.4,.19-8.94,.27-2.45-.13-2.93,.04-5.89-.05-7.51-.61-11.94-.55-8.05-.3-6.2-.1-12.43-.25-17.94-.27l-3.83,.04-1.92,.02c-.69,0-1.19,.03-1.73-.07-.92-.16-1.65-.45-2.21-.77-.57-.31-1-.64-1.38-.97-2.09-1.52-2.62-2.35-3.22-3.07-.28-.38-.56-.78-.92-1.37-.17-.3-.38-.65-.58-1.08-.22-.43-.39-.88-.55-1.51-.04-.31-.25-1.24-.33-2.65-.06-1.46-.14-3.29-.22-5.13-.16-3.7-.31-7.44-.3-8.27l.04,.96c-.08-6.78,.16-11.29,.15-17.91,.03-18.41,.23-38.53,.6-55.6-.15-.17-.04,3.76-.24,3.96,.28-10.06,.56-20.22,.84-30.37,.08-1.83,.2-4.07,.27-4.91,.12-3.25-.04-1.92,.03-4.3l.15-.32c-.05-3.48,.25-5.08,.25-8.35-.05-.17-.04-1.37-.02-2.53,.15-.06,.05-3.58,.18-3.41v-.03c0-.7,0-1.2,.04-2.06,0-.33-.03-1.37-.06-2.75-.04-1.41-.11-3.16-.22-4.9-.23-3.49-.55-6.93-.6-7.6v-.63c-.1-1.86-.24-2.64-.22-1.56l-.08-2.29,.02,.26-.06-2.27c0-.42,.06-.89,.14-.25-.08-1.28-.11-2.72-.05-3.99-.18,3.54-.11,7.99-.07,11.76-.13-1.55-.18-4.34-.25-6,.03-1.99,.05-6.08,.36-9.21,.04-.69-.1-1.18,.14-2.73,.2-.74,.22-1.75,.51-3.02-.19,1.48-.4,2.92-.55,4.42,.14-.25,.48-3.65,.78-4.8,.03-.27,.18-1.12,.45-2.05,.26-.93,.66-1.93,1.07-2.61-.12,.33,.05,.06,.35-.36,.3-.41,.76-.91,1.13-1.16,.79-.63,1.42-.95,1-.79,.12-.14-.85,.34-1.48,.96-.64,.61-1.06,1.28-.71,.62,.15-.13,.53-.61,1.08-1.05,.54-.45,1.26-.86,1.8-1.1-.02-.08-.76,.29-.09-.1,1.22-.54,2.66-.97,3.48-1.06l-1.23,.29c.93-.19-1.64,.37-3.35,1.67-1.72,1.24-2.32,3.33-1.9,2.36-.08,.11,.11-.37,.57-1.01,.44-.65,1.25-1.4,2.29-1.95,2.07-1.11,4.67-1.52,4.02-1.44-1.13,.19,.78-.3-.39-.09-.42,.12-.84,.24-1.24,.38-1.53,.38-2.13,.55-1.65,.29,1.27-.4-.59,.19-1.98,1.3-1.4,1.08-2.05,2.78-1.58,1.87-.16,.22-.32,.45-.46,.69,.18-.4,.58-1.1,1.12-1.66,.53-.57,1.21-1,1.63-1.18-.04-.07,1.01-.67,2.02-1l.36-.1c1.03-.35,2.61-.62,1.86-.58-1.62,.34-2.12,.49-2.15,.42-.02-.07,.46-.33,.98-.56,.52-.23,1.06-.44,1.07-.53,.01-.07-.53-.07-2.11,.36,1.35-.28,1.13-.17,.24,.09-.88,.27-2.42,.82-3.53,1.66-.22,.12-1.39,.73-2.41,2.54-.75,1.61-.37,.98-.47,1.3-.42,.89-.85,2.75-.88,2.49-.19,1.4-.47,2.21-.67,3.89-.11,1.49,.05-.09,0,.96-.27,2.23-.4,5.37-.42,7.15-.08,.69-.22,2.8-.35,1.27,.01-3.41,.2,1.3,.19-2.25-.11,.76-.11-.02-.1-1.08,.03-1.06,.09-2.39,.05-2.71-.18,1.13-.26,3.43-.23,5.35l.02-.38c0,1.69,.14,5.07,.13,6.91-.09-.43-.1,.37-.17-.87l.09,2.33c.04,.29,.07,.6,.05-.07,.1,1.09,.13,2.19,.13,3.04-.03,.13,.21,3.21,.37,6.22,.17,3.01,.17,5.94,.15,5.76-.02,1.68-.14,2.08-.09,3.71,0,.02,.01-.21,.02-.63,0-.42,0-1.03,0-1.76,0-1.46,.01-3.4-.05-5.27-.12-3.74-.39-7.23-.32-6.12-.02,.72,.35,5.45,.31,10.14,0,4.7,0,9.35-.07,9.87-.02,1.24-.03,2.74,.05,2.45-.07,2.1-.13-.63-.22,.86,.01,.03,.04-.12,.03,.36l-.12,1.43c.05,3.26-.19,8.04-.11,11.45-.06-.99-.17-2.12-.2-4.32l.04-.38c-.02-.31,0-2.12-.08-2.07-.09,2.08-.11,3.87-.08,6.07l-.08,1.19s.02-.04,.03-.03c-.06,.72-.06,.64-.09,.38v-.15c-.25,1.3-.04,8.19-.23,12,0,1.12,.03,.11,.05,1.5-.15,3.89-.25,6.58-.41,10.64,.07,1.3,.1,1.4,.22-.16l-.09,3.07c-.19-2.8-.34,5.74-.52,2.65-.07,.9-.12,2.74-.11,4.46,.06,.17,.15,.45,.11,2.61-.13,3.01-.1,2.29-.21,4.79-.09,.59-.11-.33-.17-.22,.05,3.85-.22,3.36-.26,6.99-.01,2.28-.04,6.77,.09,6.88-.04,3.07-.14,3.07-.25,2.76Z"/></g><g><path class="d" d="M98.15,108.86c-.64-4.4,1.33-9.09,4.91-11.67,4.02-2.9,9.31-3.04,14.24-3.07,14.35-.08,28.7-.16,43.05-.24,3.28-.02,6.61-.03,9.77,.85s6.19,2.77,7.72,5.71c1.17,2.25,1.36,4.9,1.05,7.42-.36,3-1.65,6.21-4.37,7.46-1.47,.68-3.15,.68-4.76,.68-15.68-.01-31.36,.47-47.04,.94-2.81,.09-5.62,.17-8.39,.68-3.75,.69-6.8,2.19-10.23,.01-3.1-1.96-5.4-5.07-5.94-8.79Z"/><path class="d" d="M131.76,95.41h.79c-2.54,.04-5.22,0-7.85-.04,5.73,.44,12.5,.82,16.93-.21,.48,.53,6.05,.74,6.16,.61,1.15-.1,2.32-.19,3.51-.26l-2.43,.14,2.43-.14c3.72-.22,7.66-.32,11.62-.29,3.9,.05,7.92,.63,10.87,2.93,.81,.61,1.88,1.61,2.59,3.02,.72,1.4,1.03,3.29,.91,5.24-.11,1.97-.6,3.87-1.42,5.19-.8,1.36-1.81,1.93-2.58,2.15-.46,.14-1,.2-1.59,.24,.96-.06,.96-.05,1.76-.25-.92,.43-2.16,.54-3.48,.6l-3.92,.17c.45,.07,.53,.15,1.6,.25l-1.31-.05c-1.19,.22-3.93,.23-5.22,.34,.28-.12-.74-.13-1.64-.14l.36,.07c-3.4-.01-7.35,.15-10.39,.2-.42,0-.74-.03-.93-.06l-2.91,.15c.22-.16-2.42-.08-1.03-.21-2.18,.23-4.39,.18-6.46,.42-3.71,.11-7.54,.26-11.4,.44-3.85,.23-7.76,.25-11.63,.96l.2,.03c-1.35,.24-2.58,.66-3.85,1.03-1.27,.36-2.65,.75-4.23,.55-.57,0-1.19-.11-1.81-.3-.61-.21-1.21-.49-1.74-.81-1.08-.62-1.93-1.29-2.37-1.52-.98-.98-1.57-1.76-2.11-2.57-.52-.82-1.01-1.68-1.41-3.02,.02,.37-.22-.27-.36-.86-.16-.6-.24-1.04-.22-.4,.04,.96,.17,1.46,.31,1.9,.13,.45,.28,.86,.53,1.64l.03-.07c.73,1.76,1.86,3.34,3.23,4.65,.69,.66,1.43,1.24,2.25,1.77,.85,.55,1.84,.97,2.87,1.18,2.11,.42,4.08-.03,5.78-.39,1.72-.4,3.28-.69,4.98-.83,2.23-.3,4.66-.34,7.13-.42,2.47-.07,4.95-.15,7.39-.22,5.23-.24,10.9-.49,15.41-.7,1.07-.07,1.85,.05,2.77,.1,4.14-.16,9.4-.18,14.06-.3h-.23c2.49-.05,4.32,.12,6.77,.09-.01-.04,.38-.05,.57-.08,.11,.03,1.11,.09,2.69-.3,.78-.2,1.71-.6,2.53-1.23,.82-.63,1.52-1.46,2.04-2.35,1.05-1.79,1.45-3.76,1.61-5.26,.16-1.5,.1-2.59,.13-2.82-.02-.27-.04-.55-.07-.83-.09-1.37-.35-2.77-.89-4.1-.55-1.33-1.38-2.55-2.37-3.54-1.98-2-4.48-3.18-6.79-3.72-1.02-.15-2.16-.24-3-.22-.8-.18-.97-.02-1.93-.1-2.43-.54-3.83-.31-2.59-.17-1.98,.05-3.93,.04-5.67,.06l-2.42,.11c-.69,.04-1.07-.02-1.42-.12-1.77,.07-1.25-.04-3.1-.07-.45-.15-4.64,.26-5.17,.22l.3-.02c-2.14-.01-3.56-.29-5.66-.29-5.81-.08-12.16,.07-17.55,.05-.05,.16,1.19-.04,1.25,.16-3.19,.01-6.34-.24-9.66-.12-.6-.01-1.34-.03-1.62-.05-1.08,.06-.62,.13-1.41,.22l-.13-.12c-1.14,.28-1.73,.13-2.82,.46-.04,.07-.44,.18-.83,.3-.07-.14-1.19,.41-1.18,.28h0c-.23,.11-.39,.18-.69,.28-.2,.13-1.3,.73-2.25,1.55-.97,.79-1.78,1.75-1.9,1.95l-.17,.14c-.45,.49-.52,.79-.26,.51-.17,.21-.36,.4-.51,.62l.05-.08-.48,.64c-.09,.11-.24,.22-.17,0-.2,.42-.45,.86-.68,1.25,.67-1.08,1.7-2.28,2.74-3.08-.34,.41-1.05,1.07-1.36,1.56-.51,.48-1.33,1.66-1.82,2.67-.09,.23,.01,.45-.26,.94-.19,.22-.19,.6-.39,1.02,.08-.53,.26-1.02,.47-1.52-.17,.03-.54,1.21-.65,1.63-.01,.2-.29,1.22-.3,1.89-.09-.3-.16,.52-.22,.92-.04,.45,.02,.74,.06,.56,.07,.07,.1-.37,.14-.76,.04-.38,.11-.7,.15-.39-.09,.15-.11,1.03-.08,1.49,.08,0,.05-.32,.13-.02-.01,.52,.15,1.05,.1,1.36-.03-.09-.04-.31-.06-.46,.03,.34-.21-.56-.31-1.46-.11-.9-.08-1.8-.12-1.35,.05-.11,.03,.88,.16,1.82,.11,.94,.37,1.82,.33,1.6,0-.41,.17,.27,.15-.15l-.14-.45c-.04-.58,.12-.82,.17-.62,.02,.47-.16-.19-.27-.9-.12-.71-.12-1.45-.13-1.03l.07-.33c0,.36-.01,1.3-.09,1.66,.08,0,.12,.48,.16,.87,0,.05,0,.09,0,.14,.08,.4,.13,.97,.2,.69-.13-1.18,.1-.8,.34-.43,.24,.36,.49,.7,.39-.36-.07,.91-.24-.29-.22-1.25,.06-.09,.15-.51,.27-1.18,.06-.58,0-.35-.04-.47,.08-.32,.24-.92,.32-.82,0-.47,.24-.69,.37-1.21,.11-.47-.06,.01,.01-.32,.24-.69,.71-1.59,1.01-2.08,.19-.15,.67-.63,.52-.16-.57,.91,.01-.47-.51,.52,.38-.34-.42,.9-.35,1.15,.22-.29,.52-.93,.81-1.45l-.09,.09c.25-.46,.8-1.37,1.27-1.72-.03,.14,.16-.01-.07,.29,.16-.18,.3-.37,.47-.53,.05-.08,.1-.16-.06-.02,.2-.28,.44-.51,.67-.65,.05,0,.69-.71,1.44-1.27,.73-.59,1.55-1.04,1.5-.99,.47-.24,.64-.16,1.08-.43,0-.02-.27,.1-.69,.29-.41,.21-.94,.5-1.42,.82-.97,.65-1.73,1.41-1.48,1.18,.19-.11,1.28-1.09,2.58-1.77,1.28-.71,2.71-1.12,2.87-1.11,.38-.09,.83-.21,.73-.26,.65-.09-.17,.17,.31,.15,0-.01-.04-.03,.1-.05h.46c.99-.28,2.49-.29,3.55-.49-.31,.1-.65,.25-1.32,.38l-.12-.03c-.1,.03-.65,.12-.63,.19,.65-.03,1.2-.09,1.88-.2l.38,.04s-.01-.02-.01-.03c.23,.03,.2,.04,.12,.07-.01,0-.02,.01-.05,.02,.41,.18,2.55-.22,3.76-.11,.35-.03,.03-.04,.47-.08,1.23,.08,2.08,.14,3.36,.18,.41-.09,.44-.13-.05-.22l.97,.02c-.88,.25,1.81,.22,.84,.46,.28,.05,.86,.06,1.41,.02,.05-.06,.14-.16,.82-.16l1.51,.12c.19,.08-.1,.11-.07,.17,1.21-.11,1.06,.17,2.21,.14,.72-.03,2.13-.04,2.17-.18,.97,0,.97,.1,.87,.21Z"/></g><path class="b" d="M115.79,97.06v.06c-.02-.18,0-.37,.04-.56-.27,.42-.51,.9,.09,1.2-.32,.04-.46,.44-.38,.44,.06,.08,.11,.16,.15,.25-.02-.06-.05-.11-.08-.17,.03,.06,.06,.11,.08,.17,.25,.53,.15,1.11,.02,1.71-.06,.33-.14,1.23-.24,1.57l-.03,.15,.06-.16c.08,.21,.16,.4,.21,.58,.05-.03,.09-.04,.16-.11l-.03,.09c.13,.09,.12,.28,.17,.38-.07-.02-.08,.05-.1,.11l.05-.02c-.03,.24,.01,.52,0,.74,0,.03-.03,.05-.05,.06l.05,.21c-.09-.02-.09,.17-.14,.07,.1,.16,.03,.31,.14,.47,0,.53,.04,1.1,.16,1.65h.04c.05,.18,.22,.36,.15,.59,.11,.17,.16,.42,.35,.49v.03h-.46c-.04-.18-.13-.25-.18-.43-.09,.05-.12-.18-.19-.08-.13,.13-.02,.13-.12,.24h.03l-.07,.28,1.52,.02c.12-.4,.21-.8,.26-1.21-.06-.34,.02-.71,.01-1.06-.02-.38-.07-.79-.13-1.12-.02-.08,.06-.13,.1-.2-.03-.3,.01-.68-.03-1.02v.02c-.02-.18,.09-.31,.07-.49-.03,0-.03-.03-.04-.04,.13-.03-.25-1.03-.18-1.09v-.06c.05-.37,.29-.75,.27-1.07-.06-.07-.11-.15-.18-.2,.05-.06-.05-.07-.04-.13,.25-.17,.15-.27,.06-.18-.03-.14-.01-.28-.02-.41l-.06-.17s.02-.08,.08-.1c-.04-.13,.03-.09,.05-.22,.09-.03-.14-.33-.12-.37v.02c.03-.15,.2-.26,.2-.41,.06-.42-.02-.88,0-1.27-.09,0,.02,.09-.1,.09,0-.23,.12-.46,.13-.7,.02-.04,.07-.1,.1-.12,.03-.08-.05-.04-.04-.1h.08c-.07-.09,.09-.13,.05-.2-.03,0-.04-.03-.04-.06,.09,0,0-.08,.07-.08h0s0-.03,0-.05c-.03-.03-.29-.3-.33-.33h.01c0-.06-.07-.07-.09-.05v-.05h0v-.05s.05-.02,.09,0c-.03-.03-.05-.06-.04-.09-.05,.08-.12,.19-.21,.28-.03-.03,.01-.1,0-.14,.06-.05,.1-.14,.14-.22,0-.02-.11-.02-.06-.06,.07-.02,0-.04,.04-.07,.04,.03,.02,.07,.02,.1,.08,0,.05-.09,.07-.12-.03-.01,0-.08-.03-.12,.08,.02,.05-.04,.09-.06,0-.03-.02-.05-.05-.03-.09,0-.05,.12-.14,.08,.04-.01,.02-.07,.02-.1-.05,0-.03,.02-.08,0,0-.03-.05-.07,0-.09,.01,0,0,.02,0,.03,0-.04,.31,.22,.28,.17-.04,.02-.29-.24-.29-.21-.02,.03-.08-.02-.1,.01l.06,.03s-.1,.06-.13,.05c0-.06,.32,.17,.27,.11l-.02,.02s-.06-.08-.01-.11c-.05,0-.06-.03-.08-.05h0s-.02-.07-.07-.05c.01,.16-.47-.08-.49,.07,.1-.07,.1,.02,.12,.08-.03,0-.08,.04-.11,.09,0,.04,.04,.02,.06,.03-.02,.02-.04,.07-.09,.06,.06,.03-.04,.05-.01,.09,.03,.03,.03,0,.06,.02,0,.05-.01,.12-.02,.16-.05,.02-.14,.07-.21,.04,0-.08,.13,.02,.11-.06-.11,.04-.03-.07-.12-.08-.05,.03-.05,.08-.03,.12h.01s.04,.1-.02,.15c-.04,0-.07,.01-.08-.02v.05s.02,.01,.03,0c.03,.02,.02,.05,0,.07-.04,0,.19,.27,.16,.26,0,.04-.06,.05-.02,.08,.03,0-.16-.36-.14-.31-.05,.03,.23,.42,.15,.45,0,.03,.01,.06,.06,.05-.02,.05-.08-.01-.12,.02,0,0,.02,0,.02,0l-.05,.03c.07,.07-.01,.18,.08,.26-.05-.02-.13-.04-.17-.09h.02s-.03-.06-.07-.05c-.03,.05-.02,.09,.03,.14l-.03,.03h.02s-.03,.01-.05,0h0c-.12,.03,.09,.18,.02,.27,.02,.02,.02,0,.05,.03-.05,.09-.08,.15-.11,.24,.05,.03,.08,.03,.13,0l-.02,.07c-.15-.06-.13,.13-.28,.07-.03,.02-.04,.06-.01,.1,.04,0,.09,0,.1,.06-.05,.07-.03,.05-.07,.11-.05,.01-.07,0-.1,0,.06,.09-.1,.08-.09,.16,.02,.05,.02,.15,.11,.15,0,.07-.06,.07-.13,.06Z"/><path class="b" d="M160.49,96.71v.06c-.02-.18,.01-.37,.04-.56-.28,.41-.52,.9,.08,1.21-.32,.04-.46,.44-.38,.44,.06,.08,.11,.16,.15,.25-.02-.06-.05-.12-.08-.17,.03,.06,.06,.11,.08,.17,.25,.53,.15,1.11,.04,1.71-.06,.33-.12,1.24-.2,1.58-.01,.05-.02,.1-.03,.15q.03-.08,.06-.17c.09,.21,.17,.39,.23,.58,.05-.03,.09-.04,.15-.12l-.03,.09c.13,.08,.13,.28,.19,.37-.07-.02-.08,.05-.09,.12l.05-.03c-.03,.24,.03,.52,.03,.74,0,.03-.03,.05-.05,.07l.06,.21c-.09-.01-.08,.17-.14,.07,.11,.15,.05,.31,.16,.46,.02,.53,.1,1.09,.26,1.64h.03c.06,.18,.25,.34,.19,.58,.13,.17,.19,.4,.39,.47,.03,.19,.13,.27,.18,.46,.1-.05,.12,.18,.19,.09,.13-.13,.02-.13,.13-.24h-.03c.14-.49,.21-.99,.25-1.49-.08-.33-.02-.7-.05-1.05-.04-.37-.11-.78-.19-1.1-.03-.08,.05-.13,.1-.2-.05-.3-.02-.67-.07-1.01v.02c-.02-.18,.08-.31,.06-.48-.03,0-.03-.03-.04-.04,.13-.03-.28-1.02-.2-1.08,0-.02-.01-.04-.02-.06,.05-.37,.3-.75,.27-1.06-.06-.07-.11-.14-.18-.2,.05-.06-.05-.07-.04-.13,.25-.17,.14-.27,.06-.18-.04-.14-.02-.28-.03-.4-.02-.06-.04-.11-.06-.17-.02-.05,.02-.08,.08-.1-.04-.13,.03-.09,.05-.22,.09-.03-.15-.33-.12-.37v.02c.03-.15,.2-.26,.2-.41,.06-.42-.01-.87,.02-1.25-.09,0,.02,.08-.1,.09,.01-.23,.13-.46,.14-.69,.02-.04,.07-.09,.1-.11,.03-.07-.04-.04-.03-.1h.08c-.07-.09,.09-.12,.06-.2-.03,0-.04-.03-.04-.06,.09,0,0-.08,.07-.08h0s0-.03,.01-.05c-.03-.03-.28-.31-.32-.34h.01c0-.06-.07-.07-.09-.05v-.05h.01v-.05s.05-.02,.09,0c-.03-.03-.05-.06-.03-.09-.05,.08-.13,.18-.22,.27-.03-.03,.02-.1,0-.14,.06-.05,.11-.14,.15-.21,0-.02-.11-.03-.06-.06,.07-.02,0-.04,.05-.07,.04,.03,.02,.07,.02,.1,.08,0,.05-.09,.08-.11-.03-.01,0-.08-.02-.12,.08,.02,.05-.03,.09-.06,0-.03-.02-.05-.05-.03-.08,0-.05,.11-.14,.08,.04-.01,.03-.07,.02-.1-.05,0-.03,.02-.08,0,0-.03-.05-.07,0-.09,.01,0,0,.02,0,.03,0-.04,.3,.23,.28,.18-.04,.02-.28-.25-.28-.22-.02,.03-.08-.02-.1,0l.06,.03s-.1,.05-.13,.04c0-.06,.32,.18,.27,.12l-.02,.02s-.06-.08,0-.11c-.05,0-.06-.03-.08-.06h0s-.01-.07-.07-.05c0,.15-.47-.1-.49,.05,.1-.06,.1,.02,.12,.09-.03,0-.08,.04-.11,.08,0,.04,.04,.02,.06,.03-.02,.02-.04,.07-.09,.06,.06,.03-.04,.05-.02,.09,.03,.03,.03,0,.06,.02,0,.05-.01,.12-.03,.16-.05,.02-.14,.06-.22,.03,0-.08,.13,.03,.11-.05-.11,.04-.03-.07-.12-.08-.05,.03-.05,.08-.04,.12h.01s.04,.1-.02,.15c-.04,0-.07,0-.08-.02v.05s.02,.01,.03,0c.03,.02,.01,.05,0,.07-.04,0,.18,.28,.15,.27,0,.04-.06,.05-.02,.08,.03,0-.15-.36-.13-.31-.05,.03,.22,.43,.14,.45,0,.03,.01,.06,.06,.05-.02,.05-.08-.01-.12,.02,0,0,.02,0,.02,0l-.05,.03c.07,.07-.02,.18,.07,.26-.05-.02-.13-.05-.17-.1h.02s-.03-.06-.07-.05c-.03,.05-.02,.09,.02,.14-.01,0-.02,.02-.03,.03,0,0,.01,0,.02,0-.03,.02-.03,.01-.05,0h0c-.13,.03,.08,.18,.02,.27,.02,.03,.02,0,.05,.03-.05,.09-.09,.15-.11,.24,.05,.03,.08,.03,.13,0l-.02,.07c-.14-.06-.14,.13-.28,.06-.03,.02-.04,.06-.02,.1,.04,0,.09,0,.1,.06-.05,.07-.03,.05-.08,.11-.05,.01-.07,0-.1,0,.06,.09-.1,.08-.09,.16,.01,.05,.02,.15,.1,.15,0,.07-.06,.07-.13,.06Z"/><path class="d" d="M88.01,160.07v1.77c-.04-5.72,0-11.73,.04-17.66-.49,12.9-.97,28.11,.17,38.08-.64,1.08-1.03,13.58-.88,13.84,.09,2.6,.16,5.23,.2,7.89-.03-1.83-.06-3.65-.09-5.46,.03,1.81,.06,3.63,.09,5.46l.06,6.37c0,1.08,.01,2.14-.02,3.2-.03,1.09-.06,2.18-.09,3.27-.03,2.22-.06,4.51,.27,6.87,.15,1.18,.43,2.39,.84,3.58,.4,1.2,1.08,2.39,1.97,3.43,.88,1.05,2.14,1.89,3.41,2.36,1.28,.48,2.58,.66,3.83,.74,2.5,.14,4.86-.15,7.12-.3,.57-.04,1.12-.07,1.67-.09,.53-.01,1.1-.01,1.69,0l3.5,.02c2.34,.02,4.7,.04,7.06,.05,10.49,.07,38.97,.06,49.72,.19,1.56,.01,3.11,.03,4.68,.04l-5.22-.09c3.28-.1,6.4-.2,9.42-.29l2.25-.07,1.11-.03c.65-.03,1.25-.17,1.68-.34,1.78-.69,3.05-1.63,4.29-2.77-.47,.36-.76,.54-1.21,.83-.46,.27-1.06,.67-2.34,1.23,1.04-.47,1.95-1.06,2.82-1.74,.54-.54,1.25-1.24,1.92-2.27,.32-.53,.66-1.19,.79-1.99,.08-.58,.14-1.18,.18-1.77,.14-2.35,.04-4.64-.06-6.1,.16,.62,.11-1.68,.07-3.67l-.07,.79c-.02-.95-.04-1.91-.03-2.87,0-.94,.07-1.92,.11-2.94,.08-2.02,.17-4.06,.25-6.07,.11-4.03,.21-7.97,.31-11.39,.02-.95,.08-1.67,.14-2.1v-6.56c.18,.51,.19-5.44,.29-2.31-.18-4.91-.05-9.89-.31-14.57-.13-16.72-.7-34.5-1.44-51.75l-.06,.42c-.26-6.04-.74-11.36-.66-18.71-.3-5.24-.33-12.71-.67-14.81,.09-6.06-.01-8.49,.2-14.44-.29,1.52,.12-5.79-.21-2.87-.5,3.93-.29,4.16-.66,7.5l.07-.1c-.98,15.64-.87,31.33-.57,47.15,.43,10.55,.57,21.99,.78,32.95,.25,11.8,.45,24.56,.46,34.68,.01,2.41-.17,4.15-.31,6.21-.06,4.65-.22,9.93-.47,15.35-.06,1.37-.14,2.68-.17,4.15-.02,1.43,.03,2.82,.08,4.19,.1,2.73,.23,5.42,.03,7.87l.05-.48c-.04,.64-.12,1.31-.22,1.83-.05,.24-.27,.67-.59,1.04-.64,.77-1.51,1.47-2.41,2.01-.45,.27-.91,.5-1.35,.67-.22,.07-.41,.13-.57,.16-.08,0-.05,0-.19,0h-.47c-1.25,0-2.53,0-3.89,0,.03,.05-.82,.06-1.23,.09-.95-.25-32.11,.7-34.03,.56l-1.75,.04c-5.76-.03-11.61-.15-17.26-.25-2.83-.04-5.6-.09-8.29-.13-1.34,0-2.66-.02-3.96-.03-1.3,0-2.53-.02-3.88,.05-2.25,.24-4.58,.65-6.3,.82-.83-.03-1.32-.01-1.84-.02-.26,0-.53,0-.85-.03-.32-.01-.69-.08-1.13-.18-1.11-.39-1.89-.92-2.42-1.46-.28-.25-.48-.56-.69-.78-.17-.27-.32-.49-.45-.67-.42-.8-.58-.83-.09,.23-1-1.54-1.45-3.58-1.62-5.59-.18-2.02-.13-4.06-.07-5.99,.03-1.78,.08-3.65,.05-5.47-.02-1.55,.07-2.42,.2-3.2-.02-3.98,.1-2.8,.2-6.97,.19-1.01-.17-10.46-.12-11.63l.02,.68c.07-4.82,.43-8.02,.46-12.73,.17-13.09-.01-27.38-.03-39.5-.19-.12,.06,2.67-.19,2.82,.06-7.14,.11-14.36,.17-21.57,.04-1.3,.13-2.89,.18-3.49,.06-2.3-.1-1.36-.08-3.05l.17-.23c-.15-2.46,.17-3.6,.09-5.93-.07-.12-.08-.97-.08-1.79,.18-.04-.02-2.54,.14-2.42v-.02c-.01-.5-.02-.85,0-1.46-.06-.95-.59-9.78-.64-10.75l.03-.45c0-1.32-.14-1.89-.17-1.12v-1.63l.02,.19v-1.62c.03-.3,.11-.64,.19-.18-.06-.92-.09-1.95-.06-2.87-.12,2.56-.27,5.74-.45,8.41-.06-1.1,.03-3.09,.01-4.28,.12-1.42,.22-4.35,.31-6.63,0-.5-.21-.85-.12-1.98,.14-.55,0-1.28,.1-2.23,.07,1.08,.03,2.14,.02,3.24,.16-.19,.12-2.67,.17-3.54-.05-.41,.02-2.53-.02-3.86,.15,.58,.11-1.07,.19-1.86,.02-.9-.04-1.47-.09-1.11-.17-.29-.12,3.58-.29,2.32,.08-.33,.07-2.09,.06-3.04-.09-.01-.07,.65-.16,.03,.03-1.05-.08-2.17,.02-2.78,.02,.2,0,.63,0,.94,.02-1.37,.56,7.44,.52,5.66-.08,.46-.5-7.82-.51-6.9-.05,.84-.16-.6-.2,.27l.11,.96c-.04,1.18-.21,1.67-.27,1.25,.03-1.98,.6,5.64,.51,3.94l-.05,.69c-.06-.72-.1-2.64,0-3.38-.09,0-.12-.97-.15-1.78l.02-.28c-.04-.83-.01-1.99-.14-1.45-.01,4.87-.91-3.21-.99,1.51,.21-1.98,.2,.67,.21,2.74-.07,.2-.18,1.12-.24,2.61,0,1.29,.07,.76,.12,1.01-.05,.72-.1,2.08-.2,1.9,.12,1.01-.09,1.61-.05,2.82,.06,1.06,.06-.07,.11,.68-.02,1.6-.05,3.83-.07,5.11-.1,.49-.28,1.99-.43,.9,.03-2.42,.25,.92,.22-1.6-.23,1.08-.06-2.23-.23-2.69-.11,.8-.11,2.43-.09,3.79l.03-.27c.02,1.2,.08,3.6-.05,4.9-.08-.31-.14,.26-.16-.62l-.02,1.65c.03,.21,.05,.43,.07-.05,.06,.78,.03,1.56-.02,2.16-.09,.18,.37,8.78,.32,8.52,0,1.19-.12,1.48-.03,2.64,.02,.03,0-.66-.02-1.7-.03-1.03-.07-2.41-.11-3.74-.09-2.66-.17-5.14-.15-4.36-.1,1.02,.45,13.48,.3,14.22,0,.88,.03,1.94,.12,1.74-.04,1.49-.17-.45-.24,.62,.01,.02,.04-.09,.04,.25l-.1,1.02c.14,2.31-.01,5.71,.18,8.13-.1-.7-.26-1.5-.36-3.06l.04-.27c-.03-.22-.06-1.5-.15-1.47-.05,1.48-.03,2.75,.07,4.31l-.07,.85s.02-.03,.03-.02c-.05,.51-.06,.46-.09,.27,0-.02-.01-.05-.02-.11-.25,.93,.19,5.81,.08,8.52,.04,.8,.04,.07,.1,1.07-.08,2.76-.15,4.67-.19,7.56,.11,.92,.16,.99,.26-.12l-.02,2.18c-.3-1.98-.25,4.08-.55,1.89-.06,.64-.07,1.95-.02,3.17,.07,.12,.19,.31,.2,1.85-.09,2.14-.07,1.62-.14,3.4-.09,.42-.13-.23-.21-.15,.13,2.73-.2,2.39-.17,4.96,.04,1.61,.05,4.8,.22,4.88,0,2.18-.12,2.18-.26,1.96Z"/><path class="d" d="M154.03,139.27l-.24-.02c.77,0,1.59,.06,2.39,.14-1.74-.58-3.8-1.11-5.16,.09-.14-.64-1.84-.94-1.87-.79-.35,.11-.71,.21-1.07,.29,.25-.05,.49-.1,.74-.16-.25,.06-.49,.11-.74,.16-2.28,.49-4.75,.28-7.31,.05-1.42-.11-5.28-.2-6.74-.36l-.64-.05,.71,.1c-.88,.19-1.69,.37-2.46,.49,.14,.09,.16,.18,.49,.3l-.4-.05c-.36,.27-1.19,.28-1.58,.4,.08-.14-.23-.16-.5-.17l.11,.09c-1.04-.03-2.23,.11-3.16,.12-.13,0-.23-.05-.29-.09l-.88,.13c.06-.19-.74-.14-.32-.27-.66,.24-1.33,.12-1.96,.37-2.26,.1-4.66,.33-6.98,.74l.06,.07c-.81,.16-1.51,.56-2.51,.48-.7,.28-1.7,.46-1.96,.86-.81,.09-1.13,.3-1.92,.44,.22,.18-.77,.27-.36,.4,.54,.24,.56,.01,1.02,.21l-.02-.06c2.12,.18,4.23,.25,6.36,.25,1.41-.22,2.96-.15,4.44-.25,1.59-.13,3.31-.31,4.67-.5,.32-.06,.56,.09,.84,.17,1.25-.12,2.85-.09,4.27-.23h-.07c.75-.05,1.32,.13,2.05,.09,0-.05,.11-.06,.16-.09,.13,.25,4.32-.6,4.58-.45l.24-.03c1.55,.1,3.16,.58,4.49,.53,.29-.12,.61-.23,.86-.36,.24,.11,.28-.1,.56-.08,.72,.51,1.14,.29,.77,.11,.59-.07,1.19-.03,1.71-.04l.73-.12c.21-.04,.33,.03,.43,.15,.54-.07,.38,.05,.94,.11,.14,.18,1.41-.28,1.57-.22l-.09,.03c.65,.04,1.08,.38,1.71,.4,1.76,.14,3.69,.03,5.32,.12,.02-.19-.36,.04-.38-.21,.96,.05,1.93,.3,2.9,.34,.17,.05,.39,.15,.47,.21,.31,.08,.18-.09,.41-.06l.03,.17c.33-.13,.48,.2,.8,.13,.02-.07,.13-.07,.24-.07,0,.18,.34,0,.32,.16h0c.07,0,.11-.02,.2,.01,.13-.06,1.33-.53,1.46-.6l.06,.03c.18,0,.26-.13,.15-.17l.22,.02h-.03l.22,.03s.08,.1,.02,.18c.13-.06,.27-.09,.39-.05-.34-.12-.77-.29-1.12-.48,.15-.06,.42,.04,.58,.03,.19,.12,.58,.23,.89,.32,.07,0,.12-.21,.27-.11,.07,.14,.17,0,.3,.1-.15,.07-.29,.03-.44,.02,.02,.16,.36,.12,.47,.17,.06-.05,.34,.01,.52-.03-.08,.15,.14,.1,.25,.19,.12,.02,.2-.04,.15-.1,.04-.17-.48-.11-.31-.29,.04,.08,.28,.06,.41,.06,0-.09-.09-.07,0-.16,.14,.02,.3-.08,.37,.01-.03,.02-.09,0-.13,0,.18,.01-1.02,.58-.78,.53-.06-.08,1.07-.52,.95-.53-.11-.05,.09-.16-.03-.2l-.13,.11c-.16-.04-.22-.2-.16-.26,.27,.02-.78,.61-.55,.52l-.09-.05c.1-.06,.36-.1,.46,0,0-.09,.13-.12,.24-.15l.04,.02c.11-.04,.27-.02,.2-.14-.66,0,.46-.92-.18-.99,.26,.21-.1,.2-.38,.22-.03-.07-.15-.17-.35-.23-.17,.01-.1,.07-.14,.12-.1-.05-.28-.09-.25-.2-.14,.12-.22-.09-.38-.05-.15,.05,0,.06-.1,.11-.22-.02-.52-.04-.69-.07-.06-.1-.26-.28-.11-.43,.33,.03-.13,.25,.21,.22-.14-.23,.3-.05,.37-.23-.11-.11-.33-.11-.51-.09l.04,.03c-.16,.03-.49,.06-.66-.06,.04-.08-.03-.14,.09-.16l-.22-.02s-.06,.05,0,.07c-.11,.06-.21,.02-.29-.03-.02-.09-1.19,.33-1.16,.28-.16,0-.2-.13-.36-.05-.02,.07,1.54-.26,1.33-.23-.14-.1-1.83,.38-1.93,.22-.12,0-.26,.02-.24,.1-.2-.05,.06-.16-.08-.25,0,.01,.01,.04-.03,.04l-.14-.11c-.32,.13-.77-.06-1.1,.11,.1-.09,.21-.25,.42-.33l.04,.05s.2-.05,.2-.14c-.2-.06-.37-.05-.58,.03-.04-.02-.08-.05-.11-.07,0,.01,0,.02,0,.03-.07-.05-.06-.06-.03-.1,0,0,0-.01,.01-.02-.12-.25-.79,.15-1.15,.01-.11,.03-.01,.04-.15,.09-.37-.11-.63-.19-1.02-.25-.13,.11-.14,.15,.01,.26l-.29-.04c.27-.28-.55-.28-.25-.57-.09-.07-.26-.08-.43-.04-.02,.07-.05,.19-.25,.19-.29-.1-.22-.06-.46-.16-.06-.09,.03-.13,.02-.21-.37,.12-.32-.21-.67-.19-.22,.03-.65,.03-.66,.2-.29-.01-.29-.13-.26-.27Z"/><path class="d" d="M149.79,166.89l.55,.04c-1.78-.06-3.65-.17-5.49-.27,4.02,.63,8.69,1.3,11.82,.4,.11,.35,1.17,.65,2.03,.94,.22,.07,.43,.13,.64,.19,.1,.06,.17,.1,.25,.11,.14,.02,.31,.16,.33,.1,.47,.13,.95,.46,1.4,.93-.3-.33-.62-.6-.95-.77,.33,.17,.64,.44,.95,.77,.72,.74,1.31,1.82,1.8,3.01,.24,.58,.49,1.27,.68,1.85,.17,.54,.27,1.12,.3,1.7,.06,1.16-.19,2.36-.72,3.38-.13,.26-.28,.5-.45,.73-.08,.12-.16,.23-.26,.33l-.31,.36c-.49,.55-.97,1.09-1.41,1.49-.52,.47-1.03,.87-2.08,1.15-.5,.14-1.19,.25-1.87,.38-.69,.11-1.41,.2-2.14,.28-2.91,.3-5.92,.3-7.57,.23l-1.44-.05,1.6,.1c-2.01,.2-3.85,.34-5.63,.4,.31,.1,.36,.19,1.11,.33l-.91-.08c-.84,.25-2.76,.16-3.67,.24,.2-.13-.5-.19-1.15-.23l.25,.1c-2.46-.14-5.23,0-7.38-.02-.3,0-.52-.05-.66-.1l-2.05,.12c.16-.19-1.7-.16-.72-.28-1.53,.22-3.09,.09-4.54,.29l-1.94-.04c-.32-.01-.65-.02-.94-.05-.14-.01-.32-.02-.39-.04l-.14-.02c-.06-.01-.14-.04-.21-.06-1.17-.35-2.28-.86-3.23-1.6-.96-.73-1.75-1.68-2.37-2.78-.32-.55-.59-1.13-.84-1.73-.23-.56-.38-1.13-.45-1.74l-.07,.12c-.2-1.69-.11-3.46,.96-5.47,.24-.78,.62-1.71,.99-2.5,.39-.8,.92-1.39,1.08-1.76,.81-.62,1.45-.95,2.08-1.25,.64-.29,1.29-.54,2.23-.76-.52-.12,1.8-.52,.85-.52-1.32-.06-1.35,.17-2.51,.24l.05,.05c-1.31,.28-2.74,.8-3.93,1.82-.59,.5-1.12,1.13-1.51,1.76-.35,.54-.68,1.11-.99,1.69-.62,1.17-1.17,2.42-1.53,3.81-.35,1.38-.49,2.94-.14,4.53,.07,.26,.17,.51,.25,.77l.26,.65c.18,.43,.37,.87,.6,1.3,.44,.87,.97,1.74,1.63,2.54,1.31,1.62,3.15,2.84,5.01,3.49l.76,.24c.2,.07,.77,.17,1.01,.19,.56,.05,1.05,.06,1.55,.08,.98,.01,1.94,0,2.88-.02,1.88-.04,3.68-.12,5.27-.21,.76-.06,1.31,.1,1.95,.19,1.46-.05,3.12-.06,4.8-.05,.85,0,1.68,.02,2.52,.04,.86,.03,1.71,.05,2.54,.05h-.16c1.76,.02,3.08,.25,4.81,.23,0-.05,.26-.06,.39-.08,.15,.12,2.7,.02,5.3-.26,2.6-.25,5.21-.76,5.53-.75l.55-.11c.93-.13,1.83-.24,2.82-.43,.98-.19,2.08-.56,3-1.21,.93-.64,1.59-1.36,2.18-1.99,.3-.34,.53-.57,.87-1,.31-.39,.57-.81,.79-1.23,.28-.78,.49-1.67,.51-2.34,.25-.6,.07-.76,.19-1.5,.35-.93,.36-1.74,.3-2.15-.06-.41-.16-.42-.19,.09-.11-.78-.29-1.58-.53-2.3-.21-.64-.42-1.29-.66-1.88-.25-.55-.51-1.09-.83-1.63-.27-.45-.35-.75-.38-1.05-.39-.59-.53-.8-.67-1.03-.14-.23-.25-.49-.8-1.08-.06-.2-.88-.88-1.88-1.28-.26-.09-.56-.15-.82-.21l-.39-.08c-.11-.02-.2-.02-.29-.03-.36-.03-.63-.05-.73-.08h.23c-1.59-.27-2.56-.68-4.06-.82-4.15-.44-8.66-.4-12.48-.51-.04,.18,.84-.03,.88,.22-2.25-.06-4.52-.29-6.8-.31-.41-.05-.91-.13-1.1-.19-.73-.06-.43,.1-.96,.08l-.07-.17c-.78,.15-1.14-.17-1.88-.08-.04,.07-.31,.09-.57,.09-.02-.18-.8,.04-.77-.13h0c-.16,.02-.27,.03-.46,0-.3,.06-3.08,.67-3.38,.76l-.14-.02c-.42,.02-.59,.16-.34,.19l-.52,.02,.06-.02-.52,.02c-.1,0-.21-.09-.07-.17-.29,.08-.61,.14-.91,.12,.82,.06,1.84,.14,2.69,.29-.34,.08-.97,0-1.35,.05-.46-.09-1.39-.13-2.12-.17-.16,.02-.25,.23-.62,.17-.19-.12-.41,.04-.72-.03,.34-.1,.68-.1,1.03-.12-.07-.16-.86-.04-1.14-.06-.13,.06-.81,.07-1.23,.15,.17-.18-.36-.06-.62-.11-.29,.02-.47,.1-.35,.14-.07,.18,1.16-.04,.78,.19-.11-.07-.68,.03-.98,.07,0,.09,.22,.04,.03,.16-.34,.02-.68,.18-.89,.11,.06-.03,.2-.03,.3-.04-.45,.05,2.32-.9,1.76-.77,.15,.06-2.46,.85-2.16,.82,.27,.01-.17,.19,.11,.19l.29-.15c.38-.01,.56,.13,.43,.21-.64,.06,1.73-.85,1.2-.69l.22,.02c-.22,.08-.83,.21-1.08,.14,0,.09-.3,.16-.55,.23h-.09c-.26,.07-.63,.1-.44,.2,1.54-.21-.88,1.05,.62,.91-.65-.12,.18-.23,.83-.33,.07,.06,.37,.12,.85,.12,.4-.05,.23-.09,.3-.15,.23,.03,.66,.03,.62,.14,.3-.15,.51,.04,.89-.04,.33-.09-.03-.05,.2-.13,.5-.03,1.21-.05,1.61-.05,.16,.09,.64,.24,.31,.41-.76,.03,.27-.27-.51-.19,.35,.21-.69,.11-.82,.29,.26,.09,.77,.06,1.19,0l-.09-.02c.37-.05,1.12-.15,1.53-.05-.09,.08,.09,.14-.19,.17h.52c.06-.04,.13-.07-.02-.08,.24-.07,.49-.05,.68-.01,.06,.08,2.73-.48,2.65-.41,.37-.01,.47,.11,.83,.01,.03-.08-3.55,.41-3.06,.37,.32,.06,4.2-.57,4.44-.42,.28-.01,.61-.04,.54-.12,.47,.03-.14,.17,.2,.24,0-.01-.03-.04,.08-.04l.32,.1c.72-.14,1.79,0,2.54-.18-.22,.09-.47,.26-.95,.35l-.09-.04c-.07,.03-.47,.06-.46,.15,.46,.05,.86,.02,1.35-.06,.09,.02,.2,.05,.27,.07,0-.01,0-.02,0-.03,.16,.05,.14,.06,.09,.1,0,0-.02,.01-.03,.02,.29,.25,1.82-.17,2.66-.04,.25-.04,.02-.04,.33-.09,.86,.1,1.46,.18,2.36,.25,.29-.11,.31-.15-.04-.26l.68,.04c-.62,.28,1.27,.29,.58,.57,.2,.07,.61,.09,.99,.05,.04-.07,.1-.19,.58-.18,.67,.11,.51,.07,1.06,.17,.13,.1-.07,.13-.05,.21,.85-.1,.74,.23,1.54,.23,.5-.01,1.5,0,1.53-.16,.68,.03,.67,.16,.6,.29Z"/><g><path class="d" d="M112.76,55.72c.06,.85,.16,1.78,.76,2.39,.49,.49,1.2,.66,1.89,.79,3.57,.66,7.23,.62,10.87,.59l27.98-.25c2.77-.03,5.58-.05,8.27-.72,.47-.12,.99-.29,1.22-.71,.14-.26,.15-.57,.16-.86,.08-4.9-.02-9.81-.31-14.71-3.31-.1-6.62-.77-9.93-.58-4.99,.29-9.99,.26-14.99,.23l-6.64-.04-13.04-.08c-1.65,0-3.29-.05-4.94-.05-1.93,0-1.59,1.88-1.6,3.63-.03,3.46,.07,6.93,.31,10.38Z"/><path class="d" d="M140.74,60.73h.55c-1.79,.04-3.68,0-5.53-.03,4.04,.43,8.82,.8,11.93-.22,.34,.53,4.27,.74,4.34,.61,.81-.1,1.64-.19,2.47-.26l-1.71,.15,1.71-.15c1.54-.14,3.15-.22,4.82-.41,.83-.09,1.68-.21,2.54-.38,.44-.1,.78-.13,1.53-.37,.64-.22,1.23-.62,1.55-1.23,.23-.43,.31-.91,.32-1.42l.03-1.04c.02-.61,.04-1.22,.06-1.83,.03-1.22,.06-2.46,.09-3.71,.01-.87,.01-2.14,0-3.6-.02-.73-.03-1.5-.05-2.3-.02-.57-.04-1.14-.07-1.72l-.1-2.25-2.04-.11c-.36-.02-.62-.04-.93-.07l-.42-.03-.25-.03-1.97-.23c-1.26-.16-2.4-.29-3.24-.37-.51-.05-1.03-.08-1.57-.09q.88,.05,1.74,.14c-1.07,0-2.15,.07-3.15,.2-.93,.12-1.83,.21-2.72,.29,.32,.07,.37,.14,1.12,.21h-.91c-.82,.24-2.74,.28-3.64,.38,.19-.12-.52-.13-1.15-.14l.25,.07-7.3,.03c-.3,0-.52-.05-.66-.09l-2.05,.08c.16-.15-1.7-.15-.72-.24-1.54,.17-3.09,.05-4.56,.23-2.62,0-5.32,.02-8.04,.06l-4.09,.1-4.18,.13,.14,.06c-.49,.04-.91,0-1.48,.17-.27,.07-.5,.23-.7,.41-.19,.2-.32,.45-.41,.71-.28,1.13-.02,2.1-.12,3.24,.19,1.65,.34,3.98,.69,4.63,.1,1.89,.3,2.64,.49,4.48,.13-.49,.31,1.78,.37,.86,.14-1.24-.05-1.29,.07-2.34l-.05,.03c0-2.43,.03-4.85,.11-7.28,.03-.57,.04-1.29,.04-1.86,.02-.72,.04-.64,.11-.81,.04-.06,.1-.1,.16-.12,.03,0,.07-.01,.1-.01h.26l1.75,.06c.77-.03,1.56-.04,2.37-.04h2.57l5.21,.04c3.7-.04,7.7-.12,10.88-.23,.76-.04,1.3,.1,1.95,.17,2.92-.05,6.65,.02,9.97-.16h-.16c1.76-.07,3.1,.04,4.8-.08-.01-.04,.24-.06,.36-.09,.12,.08,1.65-.01,3.59,.08l3.04,.15,.74,.03h.41l.6-.02c.06,.29,.06,.55,.05,.62l.04,.29c.09,3.55-.25,7.29-.23,10.35,.1,.67,.18,1.42,.28,1.98-.02,.14-.03,.25-.03,.26,0,.04,.01,.08,.03,.12,.02,.08,.07,.18,0,.32h0c-.18,.11-.37,.11-.49,.11-.14,0-.13-.02-.35,.04-.31,.08-.32,.17,.09,.15-1.25,.35-2.57,.46-3.75,.55l-1.66,.17c-.48,.05-.75-.01-.99-.11-1.23,.08-.87-.03-2.17-.06-.32-.15-3.27,.27-3.64,.22l.21-.02c-1.51-.01-2.51-.29-3.99-.29-4.1-.07-8.57,.08-12.37,.06-.04,.16,.84-.04,.88,.16-2.24,0-4.5-.18-6.76-.18-.41-.04-.91-.11-1.09-.16-.72-.05-.43,.08-.95,.06l-.07-.14c-.77,.12-1.12-.15-1.84-.09-.04,.06-.3,.06-.55,.06-.01-.15-.78,0-.74-.13h0c-.15,0-.26,.02-.45-.01-.29,.07-2.99,.35-3.28,.36l-.13-.04c-.4-.03-.58,.06-.35,.11l-.49-.06h.06l-.48-.07c-.09-.02-.18-.11-.03-.15-.28,.02-.59,0-.86-.07,.72,.19,1.64,.43,2.48,.66-.34,.03-.93-.11-1.3-.14-.42-.15-1.28-.34-1.94-.53-.15-.02-.28,.13-.55,0-.1-.14-.3-.08-.43-.22,.2,.02,.42,.11,.71,.17-.05-.14-.63-.24-.69-.34-.11,0-.22-.12-.3-.2,.14-.02,.02-.12,.04-.28-.03-.14-.1-.25-.13-.17-.08-.01-.06,.18-.03,.29,.02,.12,.04,.2-.06,.16,.04-.06-.09-.33-.13-.56-.08,.01-.03,.16-.13,.03-.03-.25-.15-.56-.08-.74,.03,.06,.02,.18,.03,.27-.01-.2,.15,.36,.36,.66,.22,.32,.36,.24,.32,.23,0,.04-.21,.02-.4-.41-.18-.39-.31-.98-.3-.84-.02,.25-.15-.17-.16,.09l.12,.27c0,.33-.11,.46-.18,.37-.03-.28,.14,.13,.34,.39,.2,.27,.39,.32,.3,.26v.08c-.07,0-.25-.31-.2-.5-.07,.02-.15-.19-.2-.4v-.08c-.06-.21-.06-.57-.15-.4,.07,.69-.14,.49-.37,.27-.22-.23-.45-.47-.41,.25,.12-.62,.16,.21,.33,.75-.04,.06-.06,.35,.13,.72,.22,.27,.18,.12,.25,.14,.09,.17,.39,.39,.31,.43,.3,.04,.4,.26,.77,.33,.33,.03-.01-.05,.22-.05,.47,.11,1.16,.24,1.55,.31,.14,.11,.59,.31,.23,.39-.75-.12,.31-.16-.47-.25,.31,.24-.7-.05-.86,.06,.23,.13,.74,.21,1.17,.25l-.08-.04c.38,.03,1.13,.08,1.53,.22-.1,.06,.07,.13-.21,.11l.52,.06c.07-.02,.14-.03-.01-.06,.25-.03,.49,.02,.68,.07,.06,.1,2.78-.15,2.69-.13,.37,0,.46,.11,.83,.05,.02-.03-.87,.02-1.71,.06-.84,.03-1.62,.05-1.38,.05,.32,.14,4.25-.21,4.47-.1,.28,0,.61-.02,.54-.09,.47,.03-.14,.14,.19,.2,0-.01-.03-.04,.08-.03l.32,.09c.72-.12,1.79,.02,2.55-.14-.22,.08-.47,.22-.96,.29l-.09-.04c-.07,.02-.47,.05-.46,.12,.46,.04,.86,.03,1.35-.05l.27,.06s0-.02,0-.03c.16,.04,.14,.05,.09,.08,0,0-.02,.01-.03,.02,.29,.21,1.82-.15,2.67-.05,.25-.03,.02-.04,.33-.08,.87,.08,1.46,.13,2.37,.17,.29-.09,.31-.13-.04-.22l.68,.02c-.62,.25,1.28,.22,.6,.46,.2,.05,.61,.06,.99,.02,.04-.06,.1-.16,.58-.16l1.07,.12c.13,.08-.07,.11-.05,.17,.86-.11,.75,.16,1.56,.14,.51-.03,1.5-.05,1.53-.18,.68,0,.68,.1,.62,.21Z"/></g><g><path class="c" d="M104.47,109.35c1.3-2.55,3.93-4.21,6.67-5s5.65-.82,8.51-.84l25.73-.2c4.18-.03,8.36-.06,12.53,.18,14.23-.7,16.45,8.24,16.43,10.32-.04,4.22-1.47,8.92-5.24,10.81-2.07,1.04-4.49,2.05-6.81,2.04l-45.37-.27c-3.98-.02-8.49-1.29-11.04-4.34-2.7-3.22-3.31-8.99-1.41-12.7Z"/><path class="b" d="M140.22,104.72h.7c-2.25,.04-4.62,0-6.96-.03,5.08,.43,11.09,.79,15-.22,.43,.51,5.31,.81,5.4,.7,1.01-.07,2.03-.11,3.07-.12-.71,0-1.42,.01-2.12,.04,.7-.03,1.41-.04,2.12-.04h.31c.08,0,.43-.01,.47-.02l.59-.04,1.2-.07c.81-.04,1.6,.05,2.42,.08,1.59,.21,3.23,.5,4.68,1.21,1.46,.67,2.79,1.63,3.78,2.87,1,1.21,1.69,2.77,1.87,4.24,.03,.23,.03,.32,.02,.61-.02,.28-.02,.59-.06,.91-.05,.65-.16,1.37-.32,2.11-.32,1.49-.96,3.11-1.93,4.33-.49,.61-1.05,1.11-1.67,1.48l-.47,.25-.59,.28c-.39,.18-.77,.34-1.14,.49-1.47,.59-2.74,.87-3.58,.91-.24,.01-.48,.02-.71,0l-.92-.03,1,.05c.2,0,.39,.02,.81,0-.26,.05-.51,.09-.75,.11-.24,.02-.61,.03-.9,.05l-1.82,.09-3.48,.15c.4,.08,.47,.15,1.41,.26l-1.16-.06c-1.05,.21-3.48,.19-4.62,.28,.25-.11-.65-.14-1.45-.16l.31,.08c-3.01-.07-6.51,0-9.2-.02-.38,0-.66-.05-.83-.09l-2.58,.07c.2-.15-2.14-.15-.91-.24-1.93,.17-3.89,.05-5.73,.23-3.29,0-6.69,0-10.11,.05l-5.12,.08c-1.64-.03-3.3-.24-4.87-.7l.13,.11c-1.11-.31-2.14-.66-3.16-1.21-1.01-.55-2-1.33-2.77-2.51-.66-.76-1.26-1.87-1.67-2.89-.42-1.02-.64-1.96-.86-2.36-.16-1.22-.18-2.08-.16-2.94,.03-.86,.11-1.73,.48-2.93-.17,.28-.05-.32,.16-.83,.19-.54,.35-.89,.03-.42-.92,1.49-.73,1.67-1.21,3.04l.06-.03c-.67,3.3-.27,6.78,1.48,9.86,.9,1.55,2.25,2.84,3.72,3.75,1.48,.93,3.1,1.55,4.75,1.95,1.11,.22,2.25,.36,3.41,.42,1.2,.05,2.23,.03,3.34,.05,2.19,.01,4.39,.03,6.56,.04,4.65-.03,9.69-.1,13.68-.21,.95-.04,1.64,.1,2.45,.18,3.67-.05,8.34,.03,12.48-.03h-.2c2.2-.02,3.85,.15,5.99,.14-.01-.05,.32-.05,.48-.07,.05,.03,.28,.04,.65,.05h.66c.23,0,.54,0,.91-.03,1.41-.09,3.11-.6,4.65-1.3,.77-.35,1.51-.73,2.21-1.12,.76-.43,1.41-.95,1.92-1.45,1.02-1,1.48-1.91,1.63-2.05l.35-.67c1.2-2.16,1.81-4.6,2.02-6.96,.25-2.7-.85-5.02-2.15-6.78-.35-.34-.71-.69-1.07-1.01-.39-.29-.76-.57-1.09-.79-.55-.52-.77-.49-1.51-.99-.44-.37-.86-.69-1.23-.92-.38-.2-.7-.35-.92-.43-.44-.17-.51-.11,0,.18-.87-.38-1.77-.55-2.64-.82-.88-.15-1.73-.35-2.53-.41-.75-.02-1.49-.08-2.24-.06-.63,.04-.98-.02-1.31-.12-.41,.02-.68,.03-.89,.03-.06,0-.22-.02-.37-.04-.29-.04-.58-.09-1.41-.15-.4-.18-4.16,.11-4.62,.08l.27-.02c-1.91-.04-3.17-.32-5.03-.33-5.16-.07-10.78,.08-15.55,.07-.05,.16,1.05-.04,1.11,.16-2.82,0-5.66-.18-8.5-.18-.51-.04-1.14-.11-1.37-.16-.91-.05-.54,.08-1.2,.06l-.09-.14c-.97,.12-1.42-.15-2.34-.08-.05,.06-.39,.07-.72,.07-.02-.15-1.03,.03-.98-.1h0c-.2,.01-.35,.03-.6,.01-.19,.03-1.2,.19-2.21,.41-1.01,.21-2.02,.52-2.21,.6h-.19c-.55,.14-.76,.31-.43,.26l-.68,.17,.07-.03c-.22,.05-.45,.13-.67,.19-.13,.02-.29,0-.12-.12-.37,.18-.78,.36-1.16,.49,1.07-.36,2.43-.61,3.54-.65-.44,.13-1.27,.24-1.75,.4-.61,.06-1.82,.41-2.74,.82-.19,.11-.24,.32-.7,.51-.27,.03-.47,.3-.86,.47,.36-.32,.77-.56,1.19-.78-.15-.09-1.06,.53-1.39,.73-.12,.14-.91,.69-1.31,1.15,.1-.28-.41,.29-.69,.53-.29,.31-.4,.56-.26,.45,0,.16,1.14-1.18,.87-.65-.16,.05-.67,.67-.91,1.03,.06,.05,.22-.2,.12,.07-.3,.38-.47,.86-.67,1.06,.02-.09,.13-.25,.2-.38-.16,.27,.14-.54,.57-1.26,.43-.73,.97-1.35,.68-1.06,.1-.05-.48,.66-.9,1.43-.44,.77-.71,1.57-.62,1.38,.21-.31,0,.3,.21-.03l.13-.42c.31-.44,.54-.53,.48-.35-.24,.36-.03-.24,.29-.81,.31-.58,.73-1.12,.48-.82,.08-.07,.16-.13,.25-.19-.21,.25-.75,.92-1.01,1.14,.06,.05-.19,.41-.36,.73l-.08,.1c-.17,.34-.42,.79-.22,.63,.53-.95,.53-.52,.51-.12,0,.41,.02,.78,.52-.03-.55,.62-.05-.35,.5-1.02,.1-.03,.4-.27,.86-.66,.37-.37,.18-.26,.23-.36,.24-.17,.7-.49,.7-.37,.26-.33,.56-.33,.95-.61,.34-.26-.05-.02,.18-.23,.56-.32,1.38-.69,1.87-.84,.21,0,.82-.05,.46,.21-.89,.32,.26-.34-.65,.05,.46,0-.79,.39-.88,.62,.32-.07,.89-.33,1.37-.54l-.11,.02c.42-.2,1.31-.51,1.83-.52-.1,.09,.12,.09-.2,.19l.62-.13c.07-.04,.15-.07-.03-.05,.28-.11,.59-.14,.82-.14,.04,.02,.87-.18,1.69-.34,.83-.16,1.64-.27,1.59-.25,.47-.02,.58,.08,1.04,0,.01-.01-.26,0-.67,.04-.41,.03-.94,.1-1.46,.17-1.03,.14-1.97,.36-1.67,.31,.2,0,1.48-.25,2.79-.38,1.3-.14,2.61-.22,2.75-.15,.35,0,.77-.03,.68-.1,.59,.03-.17,.14,.24,.2,0-.01-.03-.04,.1-.03l.4,.09c.91-.12,2.25,.02,3.2-.14-.28,.08-.59,.22-1.2,.29l-.11-.04c-.09,.02-.59,.05-.58,.12,.58,.04,1.08,.03,1.7-.05l.33,.06s-.01-.02,0-.03c.2,.04,.18,.05,.11,.08,0,0-.02,.01-.04,.02,.37,.21,2.29-.15,3.35-.05,.31-.03,.03-.04,.42-.08,1.09,.07,1.84,.13,2.98,.17,.36-.09,.39-.13-.05-.22l.86,.02c-.78,.25,1.61,.22,.75,.46,.25,.05,.77,.06,1.25,.02,.05-.06,.12-.16,.73-.16l1.34,.12c.17,.08-.09,.11-.06,.17,1.08-.11,.94,.16,1.96,.14,.64-.03,1.89-.05,1.92-.19,.86,0,.86,.1,.77,.21Z"/></g><g><path class="b" d="M131.66,126.83c4.74,.27,8.79,.12,14.23,.03,0-3.82-.25-7.35-.18-10.87,.13-7.33,.18-14.44,.11-21.95-4.7-.37-7.89-.35-11.89-.37-.4,0-1.85,.02-2.08,.21-.42,.35-.41,2.72-.38,3.26,.17,2.37-.11,5.86-.02,8.24,.19,4.79,.09,8.47-.02,13.26-.06,2.74,.38,5.46,.22,8.2Z"/><path class="b" d="M147.11,119.91v-.39c.05,1.25,.04,2.58,.02,3.9,.2-1.44,.36-3,.37-4.45,0-1.46-.11-2.78-.61-3.91,.53-.23,.79-3,.66-3.05-.09-.58-.17-1.16-.23-1.75l.12,1.21-.12-1.21c-.39-3.73-.19-7.76,.03-11.95,.02-.58,.05-1.41,.09-2.36,.02-.85,.03-1.76,.05-2.7v-.74c-.17-.08-.45-.06-.69-.09l-1.48-.13-3.74-.31-2.42-.18-1.05-.07,1.16,.11c-1.47,.12-2.81,.23-4.06,.33,.22,.08,.26,.15,.79,.26l-.65-.05c-.3,.11-.78,.16-1.28,.19l-.78,.06c-.35,.03-.66,.06-.88,.11,.19-.12-.65-.13-1.19,.18l.27-.05c-.11,.05-.21,.1-.33,.16-.44,.4-.62,.98-.7,1.64-.05,.3-.07,.7-.08,.93v.68c0,.23,0,.45,0,.67l.04,.63c.02,.38,.03,.75,.03,1.1,0,.21-.04,.36-.08,.45l.07,1.43c-.15-.11-.16,1.19-.24,.5,.16,1.08,0,2.19,.2,3.25,.15,3.64,.3,7.51,.46,11.41l.06-.09c.09,1.34,.33,2.51,.24,4.15,.23,1.16,.46,2.79,.8,3.24,.12,1.34,.31,1.87,.37,3.22,.18-.34,.13,1.32,.29,.67,.27-.91,.07-.96,.25-1.73l-.05,.02c.09-1.79,.01-3.53,.04-5.2,.04-1.6,.18-3.41,.24-5.14-.09-2.34,.04-4.9-.06-7.35-.04-.66-.08-1.33-.11-2-.05-.64-.07-1.27-.09-1.92-.03-1.29-.04-2.56-.1-3.69-.04-.54,.1-.94,.17-1.41l-.07-1.16-.03-.53v-1.1l.02-.24c.02-.12,.01-.28,.11-.37,.28-.07,.28-.08,1.18-.11h-.11c1.24-.03,2.16,.14,3.35,.12,0-.05,.18-.05,.27-.07,.1,.11,1.86,.01,3.64-.04,.89-.03,1.79-.04,2.49-.04,.45-.01,.65-.02,.7,.02h.32s0,.09,0,.13l-.03,.25-.07,.48s-.01,.05-.02,.13l-.02,.24-.04,.48c-.03,.32-.06,.63-.09,.94-.12,1.25-.22,2.45-.2,3.54,.1,.47,.18,1.01,.29,1.4-.09,.39,.08,.46,.06,.92-.43,1.18-.26,1.87-.1,1.26,.05,.97,0,1.94,.02,2.81,.03,.4,.06,.79,.09,1.2,.03,.34-.03,.53-.13,.7,.06,.88-.05,.62-.1,1.54-.15,.22,.22,2.31,.18,2.57l-.02-.15c-.03,1.06-.32,1.76-.34,2.81-.08,1.48-.04,3.01,0,4.5,.03,.74,.05,1.48,.08,2.19,0,.36,.02,.71,.03,1.05v.9c.08-.01,.08,0,.07-.18,0-.15,0-.31,.1-.33,0,.48-.01,.6-.03,.76-.02,.12-.05,.22-.08,.31,.01,.07-.1,.01-.15,.01l-.17-.03-.16-.03h-.32c-.29-.05-.64-.12-.77-.16-.51-.05-.3,.08-.67,.07l-.05-.14c-.54,.13-.8-.14-1.31-.07-.03,.06-.21,.07-.39,.07-.01-.15-.56,.02-.53-.12h0c-.11,.01-.19,.02-.32,0l-2.35,.54-.1-.02c-.29,0-.41,.11-.24,.14h-.36l.04-.02h-.35c-.07-.03-.14-.1-.04-.16-.2,.05-.43,.07-.63,.04,.56,.1,1.25,.24,1.84,.39-.24,.05-.68-.03-.94-.02-.31-.1-.95-.19-1.44-.27-.11,0-.19,.17-.43,.09-.12-.12-.28,0-.48-.09,.24-.05,.47-.02,.71,0-.04-.14-.58-.11-.77-.15-.09,.04-.55-.02-.84,0,.13-.12-.23-.09-.4-.17-.19-.02-.32,.02-.24,.07-.07,.14,.77,.12,.49,.25-.07-.07-.45-.06-.66-.07,0,.08,.14,.07,0,.13-.23-.03-.48,.05-.6-.04,.04-.02,.14,0,.21,0-.3-.02,1.64-.42,1.25-.4,.1,.08-1.72,.38-1.52,.39,.18,.05-.14,.13,.05,.17l.21-.08c.26,.04,.36,.18,.26,.23-.43-.03,1.25-.47,.88-.41l.15,.04c-.16,.04-.58,.07-.74-.02,0,.08-.22,.09-.39,.11l-.06-.02c-.18,.03-.43,0-.32,.1,1.06,.04-.74,.74,.29,.84-.43-.19,.16-.16,.61-.16,.04,.06,.24,.15,.57,.21,.28,0,.17-.05,.23-.1,.16,.04,.46,.08,.41,.17,.23-.1,.35,.08,.62,.05,.24-.04-.01-.05,.15-.09l1.12,.07c.11,.09,.44,.24,.19,.36-.53-.03,.21-.21-.35-.19,.24,.19-.49,.04-.6,.19,.18,.09,.54,.1,.84,.08l-.06-.03c.27-.02,.8-.06,1.08,.05-.07,.07,.06,.12-.14,.13h.37s.09-.03-.01-.04c.17-.05,.34-.02,.48,.02,.04,.07,1.94-.31,1.88-.26,.26,0,.33,.1,.58,.02,.03-.05-2.51,.27-2.16,.24,.23,.08,2.98-.38,3.14-.25,.19,0,.43-.03,.38-.1,.33,.03-.1,.14,.14,.2,0-.01-.02-.04,.05-.03l.23,.09c.51-.12,1.26,0,1.79-.15-.15,.08-.33,.22-.67,.3l-.06-.04s-.33,.05-.32,.12c.33,.04,.61,.02,.95-.05l.19,.05s0-.02,0-.03c.11,.04,.1,.05,.06,.08,0,0-.01,.01-.02,.02,.06,.1,.5,.06,.98,0,.48-.05,.96-.12,1.39-.08,.2-.03,0-.04,.23-.08h.08s0-.03,.01-.05v-.12l.04-.24c.02-.17,.03-.32,.05-.48,.03-.32,.06-.68,.07-1.08-.09-.28-.13-.29-.22,0l.02-.58c.12,.29,.18-.04,.23-.24,.05-.22,.1-.44,.23-.2,.05-.14,.06-.43,.01-.7-.06-.03-.16-.07-.17-.41,.07-.48,.04-.36,.11-.76,.08-.09,.11,.05,.17,.03-.12-.6,.16-.53,.12-1.1-.03-.36-.06-1.06-.2-1.07,0-.48,.09-.48,.21-.44Z"/></g><g><path class="d" d="M122.67,109.43c.51,.05,1.03,.11,1.49,.34s.85,.67,.88,1.18c.05,.78-.72,1.39-1.48,1.59-.95,.25-3.2,.11-3.52-1.11-.42-1.59,1.5-2.11,2.63-2Z"/><path class="d" d="M124.21,110.98v.02c-.02-.05,0-.11-.01-.19-.08,.15-.21,.2-.24,.22-.03,.02,.07,.02,.32,.21-.29-.12-.46-.14-.42-.08,.02,.06,.02,.12,.02,.18,0-.04,.01-.08,0-.12,0,.04,0,.08,0,.12-.03,.19-.19,.33-.38,.38-.18,.06-.38,.03-.63-.01-.27-.02-1-.16-1.18-.33l-.09-.06s.04,.04,.09,.08c-.16,.05-.31,.08-.43,.08,0,.05-.02,.09,0,.17l-.05-.05c-.12,.1-.22,.02-.31,.04,.05-.05,.02-.09,0-.12l-.02,.04c-.1-.11-.21-.16-.23-.27,0-.01,.01-.03,.03-.04h0l-.06-.1c.09,0,.06-.11,.13-.06-.11-.07-.05-.15-.14-.23,.03-.24,.23-.56,.64-.87l-.02-.03c.13-.12,.24-.34,.47-.32,.13-.15,.36-.24,.41-.44,.2-.04,.28-.14,.49-.17-.05-.1,.21-.1,.12-.18-.14-.14-.15-.03-.28-.14v.03c-.58-.15-1.19-.14-1.83,.07-.37,.24-.87,.47-1.19,.99-.35,.55-.33,1.31-.14,1.7,.02,.04,.02,.08,.01,.13l-.02,.2c.19,.46,.65,.94,1.06,1.09h-.02c.21,.09,.33,.25,.54,.3,0-.03,.04-.02,.06-.03,0,.07,.32,.1,.62,.08,.31-.01,.6-.07,.63-.04h.06c.39,.07,.83,.3,1.22,.22,.07-.07,.16-.15,.22-.23,.08,.04,.07-.07,.15-.08,.28,.18,.37,.02,.23-.02,.15-.1,.32-.15,.45-.24,.05-.05,.1-.11,.15-.17,.04-.05,.09-.04,.15-.01,.11-.13,.11-.05,.26-.15,.11,.04,.21-.43,.25-.46v.03c.12-.16,.36-.23,.45-.47,.33-.66,0-1.54-.36-1.98-.08,.05,.1,.09,0,.17-.18-.28-.36-.59-.64-.79-.04-.05-.08-.13-.09-.17-.08-.08-.08,0-.14-.04l.03-.08c-.13,.01-.11-.15-.23-.16-.02,.03-.05,.02-.09,0,.03-.08-.11-.03-.08-.11h0s-.04,0-.06-.02c-.06,0-.47,.16-.5,.2v-.02c-.06,0-.1,.05-.07,.08l-.06-.02h0l-.06-.02s-.01-.05,0-.09c-.04,.03-.08,.04-.11,.01,.08,.07,.18,.17,.26,.27-.05,.02-.11-.04-.15-.04-.04-.07-.13-.13-.21-.18-.02,0-.04,.1-.08,.05-.01-.07-.04,0-.07-.06,.04-.03,.08-.01,.11,0,0-.08-.09-.07-.11-.09-.02,.02-.09-.01-.13,0,.03-.08-.03-.05-.05-.1-.03-.01-.05,.02-.04,.05-.02,.08,.11,.06,.06,.15,0-.04-.07-.03-.1-.03,0,.05,.02,.04,0,.08-.03-.01-.07,.04-.09-.01,0-.01,.02,0,.03,0-.05,0,.27-.28,.21-.25,0,.04-.28,.25-.25,.25,.02,.03-.03,.08,0,.1l.04-.05s.04,.1,.03,.13c-.06-.01,.22-.3,.16-.25l.02,.02s-.09,.05-.11,0c0,.05-.04,.06-.07,.07h0s-.06,0-.05,.06c.16,0-.15,.45,0,.49-.05-.11,.03-.1,.1-.11,0,.03,.03,.09,.07,.12,.04,0,.03-.03,.04-.06,.02,.03,.06,.05,.05,.1,.04-.06,.05,.05,.09,.03,.04-.02,0-.03,.03-.05,.05,.01,.12,.03,.16,.05,0,.05,.04,.15,0,.22-.07-.02,.05-.12-.03-.12,.02,.12-.07,.02-.1,.1,.02,.05,.07,.06,.11,.05v-.02s.11-.02,.14,.05c-.02,.04,0,.07-.03,.07l.05,.02s.02-.02,0-.03c.03-.03,.05,0,.06,.02,0,.04,.3-.11,.29-.08,.04,0,.02,.07,.07,.04,.01-.04-.37,.05-.32,.05,.01,.04,.45-.09,.44,0,.03,0,.06,.01,.07-.03,.03,.04-.04,.07-.03,.12,0,0,0-.02,.01-.02v.06c.1-.03,.14,.09,.25,.05-.04,.03-.1,.09-.16,.1v-.02s-.04,0-.06,.04c.02,.04,.05,.05,.11,.04v.04h0s0,.02-.02,.03h0c-.05,.12,.17,.02,.18,.12,.03,0,.02-.02,.05-.02,.02,.08,.03,.14,.05,.21,.05-.02,.07-.03,.1-.09l.02,.05c-.14,.06-.05,.16-.2,.2-.02,.03-.01,.05,.02,.06,.03-.02,.08-.05,.1-.02-.02,.06-.01,.04-.04,.09-.04,.03-.06,.02-.09,.04,.07,0-.08,.07-.06,.09,.02,.01,.03,.04,.11,.03,0,.03-.06,.04-.13,.04Z"/></g><g><path class="d" d="M122.08,119.22c.05-.51,.12-1.03,.35-1.49s.67-.84,1.18-.87c.79-.05,1.39,.73,1.59,1.49,.25,.95,.09,3.2-1.13,3.51-1.59,.41-2.11-1.51-1.99-2.64Z"/><path class="d" d="M123.64,117.69h.02c-.05,.02-.11,0-.19,.01,.14,.08,.2,.21,.21,.24,.02,.03,.03-.07,.21-.32-.12,.29-.14,.46-.08,.42,.06-.02,.12-.02,.18-.02-.04,0-.08-.01-.12-.01,.04,0,.08,0,.12,.01,.19,.03,.33,.19,.38,.38,.06,.18,.03,.38-.02,.63-.03,.27-.17,1-.33,1.18l-.06,.09s.04-.04,.09-.09c.05,.16,.08,.31,.08,.43,.05,0,.09,.02,.17,0l-.05,.05c.1,.12,.02,.22,.04,.31-.05-.05-.09-.02-.12,0l.04,.02c-.11,.1-.16,.21-.27,.23-.01,0-.03-.01-.04-.04-.03,.02-.06,.05-.11,.07,0-.09-.11-.06-.06-.13-.07,.11-.15,.05-.23,.14-.24-.03-.56-.24-.87-.64l-.03,.02c-.12-.13-.34-.24-.32-.47-.15-.13-.24-.36-.43-.42-.04-.2-.14-.28-.17-.49-.1,.05-.1-.21-.18-.12-.14,.14-.03,.15-.15,.28h.03c-.15,.58-.15,1.19,.06,1.83,.24,.37,.47,.87,.98,1.19,.55,.36,1.31,.34,1.7,.15,.1-.04,.21,0,.33,0,.47-.19,.95-.65,1.1-1.06v.02c.09-.21,.25-.33,.3-.54-.03,0-.02-.04-.03-.06,.07,0,.11-.32,.09-.62-.01-.31-.07-.6-.03-.63v-.06c.07-.39,.31-.83,.22-1.22-.07-.07-.15-.16-.23-.22,.04-.08-.07-.07-.08-.15,.18-.28,.02-.37-.02-.23-.1-.15-.15-.32-.24-.45-.05-.05-.11-.1-.17-.15-.05-.04-.04-.09-.01-.15-.13-.11-.05-.11-.15-.26,.04-.1-.43-.22-.46-.25h.03c-.16-.12-.23-.36-.47-.46-.65-.33-1.54-.02-1.98,.35,.05,.08,.09-.1,.17,0-.28,.18-.59,.35-.79,.63-.05,.04-.13,.08-.17,.09-.08,.08,0,.08-.04,.14l-.08-.03c.01,.13-.16,.11-.16,.23,.03,.02,.02,.05,0,.09-.08-.03-.03,.11-.11,.08h0s0,.04-.03,.06c0,.06,.16,.47,.19,.5h-.02c0,.06,.05,.1,.08,.07l-.02,.06h0l-.02,.05s-.05,.01-.09,0c.02,.04,.03,.08,.01,.11,.07-.08,.17-.18,.28-.26,.02,.05-.04,.11-.04,.15-.07,.04-.13,.13-.19,.21,0,.02,.1,.04,.05,.08-.07,0,0,.04-.06,.07-.03-.04-.01-.08,0-.11-.08,0-.07,.09-.09,.11,.02,.02-.01,.09,0,.13-.08-.03-.05,.03-.1,.05-.01,.03,.02,.05,.05,.04,.08,.02,.06-.11,.15-.06-.04,0-.03,.07-.03,.1,.05,0,.04-.02,.08,0-.01,.03,.04,.07-.01,.09-.01,0,0-.02,0-.03-.01,.05-.27-.28-.25-.22,.04,0,.24,.29,.25,.26,.03-.02,.08,.03,.1,0l-.05-.04s.1-.04,.13-.03c-.01,.06-.29-.22-.25-.16l.02-.02s.05,.09,0,.11c.05,0,.06,.04,.07,.07h0s0,.07,.07,.06c0-.16,.45,.15,.49,0-.11,.05-.1-.03-.11-.1,.03,0,.09-.03,.12-.07,0-.04-.03-.03-.06-.04,.03-.02,.05-.06,.1-.05-.06-.04,.05-.05,.03-.09-.02-.04-.03,0-.05-.03,.01-.05,.03-.12,.05-.16,.05,0,.15-.04,.22,0-.02,.07-.12-.05-.12,.03,.12-.02,.02,.07,.1,.1,.05-.02,.06-.07,.06-.11h-.02s-.02-.11,.05-.14c.04,.02,.07,0,.07,.03l.02-.05s-.02-.02-.03,0c-.03-.03,0-.05,.02-.06,.04,0-.11-.3-.08-.29,0-.04,.07-.02,.04-.07-.04-.01,.04,.37,.05,.32,.04-.01-.09-.45,0-.44,0-.03,.01-.06-.03-.07,.04-.03,.07,.04,.12,.03,0,0-.02,0-.02-.01h.06c-.03-.1,.09-.14,.05-.25,.03,.04,.09,.1,.1,.16h-.02s0,.04,.04,.06c.04-.02,.05-.05,.04-.11h.03s.03,0,.04,.01h0c.11,.06,.02-.16,.11-.17,0-.03-.02-.02-.02-.05,.08-.02,.14-.02,.21-.05-.02-.05-.03-.07-.09-.1l.05-.02c.05,.14,.16,.06,.2,.2,.03,.02,.05,.01,.06-.02-.02-.03-.05-.08-.02-.1,.06,.02,.04,.01,.09,.04,.03,.04,.02,.06,.04,.09,0-.07,.07,.08,.09,.07,.01-.02,.04-.03,.03-.11,.03,0,.04,.06,.04,.13Z"/></g><g><path class="d" d="M110.73,116.39c.05-.51,.12-1.03,.35-1.49s.67-.84,1.18-.87c.79-.05,1.39,.73,1.59,1.49,.25,.95,.09,3.2-1.13,3.51-1.59,.41-2.11-1.51-1.99-2.64Z"/><path class="d" d="M112.29,114.86h.02c-.05,.02-.11,0-.19,.01,.14,.08,.2,.21,.21,.24,.02,.03,.03-.07,.21-.32-.12,.29-.14,.46-.08,.42,.06-.02,.12-.02,.18-.02-.04,0-.08-.01-.12-.01,.04,0,.08,0,.12,.01,.19,.03,.33,.19,.38,.38,.06,.18,.03,.38-.02,.63-.03,.27-.17,1-.33,1.18l-.06,.09s.04-.04,.09-.09c.05,.16,.08,.31,.08,.43,.05,0,.09,.02,.17,0l-.05,.05c.1,.12,.02,.22,.04,.31-.05-.05-.09-.02-.12,0l.04,.02c-.11,.1-.16,.21-.27,.23-.01,0-.03-.01-.04-.04-.03,.02-.06,.05-.11,.07,0-.09-.11-.06-.06-.13-.07,.11-.15,.05-.23,.14-.24-.03-.56-.24-.87-.64l-.03,.02c-.12-.13-.34-.24-.32-.47-.15-.13-.24-.36-.43-.42-.04-.2-.14-.28-.17-.49-.1,.05-.1-.21-.18-.12-.14,.14-.03,.15-.15,.28h.03c-.15,.58-.15,1.19,.06,1.83,.24,.37,.47,.87,.98,1.19,.55,.36,1.31,.34,1.7,.15,.1-.04,.21,0,.33,0,.47-.19,.95-.65,1.1-1.06v.02c.09-.21,.25-.33,.3-.54-.03,0-.02-.04-.03-.06,.07,0,.11-.32,.09-.62-.01-.31-.07-.6-.03-.63v-.06c.07-.39,.31-.83,.22-1.22-.07-.07-.15-.16-.23-.22,.04-.08-.07-.07-.08-.15,.18-.28,.02-.37-.02-.23-.1-.15-.15-.32-.24-.45-.05-.05-.11-.1-.17-.15-.05-.04-.04-.09-.01-.15-.13-.11-.05-.11-.15-.26,.04-.1-.43-.22-.46-.25h.03c-.16-.12-.23-.36-.47-.46-.65-.33-1.54-.02-1.98,.35,.05,.08,.09-.1,.17,0-.28,.18-.59,.35-.79,.63-.05,.04-.13,.08-.17,.09-.08,.08,0,.08-.04,.14l-.08-.03c.01,.13-.16,.11-.16,.23,.03,.02,.02,.05,0,.09-.08-.03-.03,.11-.11,.08h0s0,.04-.03,.06c0,.06,.16,.47,.19,.5h-.02c0,.06,.05,.1,.08,.07l-.02,.06h0l-.02,.05s-.05,.01-.09,0c.02,.04,.03,.08,.01,.11,.07-.08,.17-.18,.28-.26,.02,.05-.04,.11-.04,.15-.07,.04-.13,.13-.19,.21,0,.02,.1,.04,.05,.08-.07,0,0,.04-.06,.07-.03-.04-.01-.08,0-.11-.08,0-.07,.09-.09,.11,.02,.02-.01,.09,0,.13-.08-.03-.05,.03-.1,.05-.01,.03,.02,.05,.05,.04,.08,.02,.06-.11,.15-.06-.04,0-.03,.07-.03,.1,.05,0,.04-.02,.08,0-.01,.03,.04,.07-.01,.09-.01,0,0-.02,0-.03-.01,.05-.27-.28-.25-.22,.04,0,.24,.29,.25,.26,.03-.02,.08,.03,.1,0l-.05-.04s.1-.04,.13-.03c-.01,.06-.29-.22-.25-.16l.02-.02s.05,.09,0,.11c.05,0,.06,.04,.07,.07h0s0,.07,.07,.06c0-.16,.45,.15,.49,0-.11,.05-.1-.03-.11-.1,.03,0,.09-.03,.12-.07,0-.04-.03-.03-.06-.04,.03-.02,.05-.06,.1-.05-.06-.04,.05-.05,.03-.09-.02-.04-.03,0-.05-.03,.01-.05,.03-.12,.05-.16,.05,0,.15-.04,.22,0-.02,.07-.12-.05-.12,.03,.12-.02,.02,.07,.1,.1,.05-.02,.06-.07,.06-.11h-.02s-.02-.11,.05-.14c.04,.02,.07,0,.07,.03l.02-.05s-.02-.02-.03,0c-.03-.03,0-.05,.02-.06,.04,0-.11-.3-.08-.29,0-.04,.07-.02,.04-.07-.04-.01,.04,.37,.05,.32,.04-.01-.09-.45,0-.44,0-.03,.01-.06-.03-.07,.04-.03,.07,.04,.12,.03,0,0-.02,0-.02-.01h.06c-.03-.1,.09-.14,.05-.25,.03,.04,.09,.1,.1,.16h-.02s0,.04,.04,.06c.04-.02,.05-.05,.04-.11h.03s.03,0,.04,.01h0c.11,.06,.02-.16,.11-.17,0-.03-.02-.02-.02-.05,.08-.02,.14-.02,.21-.05-.02-.05-.03-.07-.09-.1l.05-.02c.05,.14,.16,.06,.2,.2,.03,.02,.05,.01,.06-.02-.02-.03-.05-.08-.02-.1,.06,.02,.04,.01,.09,.04,.03,.04,.02,.06,.04,.09,0-.07,.07,.08,.09,.07,.01-.02,.04-.03,.03-.11,.03,0,.04,.06,.04,.13Z"/></g><g><path class="d" d="M163.19,114.81c.05-.51,.12-1.03,.35-1.49s.67-.84,1.18-.87c.79-.05,1.39,.73,1.59,1.49,.25,.95,.09,3.2-1.13,3.51-1.59,.41-2.11-1.51-1.99-2.64Z"/><path class="d" d="M164.74,113.28h.02c-.05,.02-.11,0-.19,.01,.14,.08,.2,.21,.21,.24,.02,.03,.03-.07,.21-.32-.12,.29-.14,.46-.08,.42,.06-.02,.12-.02,.18-.02-.04,0-.08-.01-.12-.01,.04,0,.08,0,.12,.01,.19,.03,.33,.19,.38,.38,.06,.18,.03,.38-.02,.63-.03,.27-.17,1-.33,1.18l-.06,.09s.04-.04,.09-.09c.05,.16,.08,.31,.08,.43,.05,0,.09,.02,.17,0l-.05,.05c.1,.12,.02,.22,.04,.31-.05-.05-.09-.02-.12,0l.04,.02c-.11,.1-.16,.21-.27,.23-.01,0-.03-.01-.04-.04-.03,.02-.06,.05-.11,.07,0-.09-.11-.06-.06-.13-.07,.11-.15,.05-.23,.14-.24-.03-.56-.24-.87-.64l-.03,.02c-.12-.13-.34-.24-.32-.47-.15-.13-.24-.36-.43-.42-.04-.2-.14-.28-.17-.49-.1,.05-.1-.21-.18-.12-.14,.14-.03,.15-.15,.28h.03c-.15,.58-.15,1.19,.06,1.83,.24,.37,.47,.87,.98,1.19,.55,.36,1.31,.34,1.7,.15,.1-.04,.21,0,.33,0,.47-.19,.95-.65,1.1-1.06v.02c.09-.21,.25-.33,.3-.54-.03,0-.02-.04-.02-.06,.07,0,.11-.32,.09-.62-.01-.31-.07-.6-.03-.63v-.06c.07-.39,.31-.83,.22-1.22-.07-.07-.15-.16-.23-.22,.04-.08-.07-.07-.08-.15,.18-.28,.02-.37-.02-.23-.1-.15-.15-.32-.24-.45-.05-.05-.11-.1-.17-.15-.05-.04-.04-.09-.01-.15-.13-.11-.05-.11-.15-.26,.04-.1-.43-.22-.46-.25h.03c-.16-.12-.23-.36-.47-.46-.65-.33-1.54-.02-1.98,.35,.05,.08,.09-.1,.17,0-.28,.18-.59,.35-.79,.63-.05,.04-.13,.08-.17,.09-.08,.08,0,.08-.04,.14l-.08-.03c.01,.13-.16,.11-.16,.23,.03,.02,.02,.05,0,.09-.08-.03-.03,.11-.11,.08h0s0,.04-.03,.06c0,.06,.16,.47,.19,.5h-.02c0,.06,.05,.1,.08,.07l-.02,.06h0l-.02,.05s-.05,.01-.09,0c.02,.04,.03,.08,.01,.11,.07-.08,.17-.18,.28-.26,.02,.05-.04,.11-.04,.15-.07,.04-.13,.13-.19,.21,0,.02,.1,.04,.05,.08-.07,0,0,.04-.06,.07-.03-.04-.01-.08,0-.11-.08,0-.07,.09-.09,.11,.02,.02-.01,.09,0,.13-.08-.03-.05,.03-.1,.05-.01,.03,.02,.05,.05,.04,.08,.02,.06-.11,.15-.06-.04,0-.03,.07-.03,.1,.05,0,.04-.02,.08,0-.01,.03,.04,.07-.01,.09-.01,0,0-.02,0-.03-.01,.05-.27-.28-.25-.22,.04,0,.24,.29,.25,.26,.03-.02,.08,.03,.1,0l-.05-.04s.1-.04,.13-.03c-.01,.06-.29-.22-.25-.16l.02-.02s.05,.09,0,.11c.05,0,.06,.04,.07,.07h0s0,.07,.07,.06c0-.16,.45,.15,.49,0-.11,.05-.1-.03-.11-.1,.03,0,.09-.03,.12-.07,0-.04-.03-.03-.06-.04,.03-.02,.05-.06,.1-.05-.06-.04,.05-.05,.03-.09-.02-.04-.03,0-.05-.03,.01-.05,.03-.12,.05-.16,.05,0,.15-.04,.22,0-.02,.07-.12-.05-.12,.03,.12-.02,.02,.07,.1,.1,.05-.02,.06-.07,.06-.11h-.02s-.02-.11,.05-.14c.04,.02,.07,0,.07,.03l.02-.05s-.02-.02-.03,0c-.03-.03,0-.05,.02-.06,.04,0-.11-.3-.08-.29,0-.04,.07-.02,.04-.07-.04-.01,.04,.37,.05,.32,.04-.01-.09-.45,0-.44,0-.03,.01-.06-.03-.07,.04-.03,.07,.04,.12,.03,0,0-.02,0-.02-.01h.06c-.03-.1,.09-.14,.05-.25,.03,.04,.09,.1,.1,.16h-.02s0,.04,.04,.06c.04-.02,.05-.05,.04-.11h.03s.03,0,.04,.01h0c.11,.06,.02-.16,.11-.17,0-.03-.02-.02-.02-.05,.08-.02,.14-.02,.21-.05-.02-.05-.03-.07-.09-.1l.05-.02c.05,.14,.16,.06,.2,.2,.03,.02,.05,.01,.06-.02-.02-.03-.05-.08-.02-.1,.06,.02,.04,.01,.09,.04,.03,.04,.02,.06,.04,.09,0-.07,.07,.08,.09,.07,.01-.02,.04-.03,.03-.11,.03,0,.04,.06,.04,.13Z"/></g><g><path class="d" d="M155.59,118.9c.05-.51,.12-1.03,.35-1.49s.67-.84,1.18-.87c.79-.05,1.39,.73,1.59,1.49,.25,.95,.09,3.2-1.13,3.51-1.59,.41-2.11-1.51-1.99-2.64Z"/><path class="d" d="M157.14,117.37h.02c-.05,.02-.11,0-.19,.01,.14,.08,.2,.21,.21,.24,.02,.03,.03-.07,.21-.32-.12,.29-.14,.46-.08,.42,.06-.02,.12-.02,.18-.02-.04,0-.08-.01-.12-.01,.04,0,.08,0,.12,.01,.19,.03,.33,.19,.38,.38,.06,.18,.03,.38-.02,.63-.03,.27-.17,1-.33,1.18l-.06,.09s.04-.04,.09-.09c.05,.16,.08,.31,.08,.43,.05,0,.09,.02,.17,0l-.05,.05c.1,.12,.02,.22,.04,.31-.05-.05-.09-.02-.12,0l.04,.02c-.11,.1-.16,.21-.27,.23-.01,0-.03-.01-.04-.04-.03,.02-.06,.05-.11,.07,0-.09-.11-.06-.06-.13-.07,.11-.15,.05-.23,.14-.24-.03-.56-.24-.87-.64l-.03,.02c-.12-.13-.34-.24-.32-.47-.15-.13-.24-.36-.43-.42-.04-.2-.14-.28-.17-.49-.1,.05-.1-.21-.18-.12-.14,.14-.03,.15-.15,.28h.03c-.15,.58-.15,1.19,.06,1.83,.24,.37,.47,.87,.98,1.19,.55,.36,1.31,.34,1.7,.15,.1-.04,.21,0,.33,0,.47-.19,.95-.65,1.1-1.06v.02c.09-.21,.25-.33,.3-.54-.03,0-.02-.04-.02-.06,.07,0,.11-.32,.08-.62-.01-.31-.07-.6-.03-.63v-.06c.07-.39,.31-.83,.22-1.22-.07-.07-.15-.16-.23-.22,.04-.08-.07-.07-.08-.15,.18-.28,.02-.37-.02-.23-.1-.15-.15-.32-.24-.45-.05-.05-.11-.1-.17-.15-.05-.04-.04-.09-.01-.15-.13-.11-.05-.11-.15-.26,.04-.1-.43-.22-.46-.25h.03c-.16-.12-.23-.36-.47-.46-.65-.33-1.54-.02-1.98,.35,.05,.08,.09-.1,.17,0-.28,.18-.59,.35-.79,.63-.05,.04-.13,.08-.17,.09-.08,.08,0,.08-.04,.14l-.08-.03c.01,.13-.16,.11-.16,.23,.03,.02,.02,.05,0,.09-.08-.03-.03,.11-.11,.08h0s0,.04-.03,.06c0,.06,.16,.47,.19,.5h-.02c0,.06,.05,.1,.08,.07l-.02,.06h0l-.02,.05s-.05,.01-.09,0c.02,.04,.03,.08,.01,.11,.07-.08,.17-.18,.28-.26,.02,.05-.04,.11-.04,.15-.07,.04-.13,.13-.19,.21,0,.02,.1,.04,.05,.08-.07,0,0,.04-.06,.07-.03-.04-.01-.08,0-.11-.08,0-.07,.09-.09,.11,.02,.02-.01,.09,0,.13-.08-.03-.05,.03-.1,.05-.01,.03,.02,.05,.05,.04,.08,.02,.06-.11,.15-.06-.04,0-.03,.07-.03,.1,.05,0,.04-.02,.08,0-.01,.03,.04,.07-.01,.09-.01,0,0-.02,0-.03-.01,.05-.27-.28-.25-.22,.04,0,.24,.29,.25,.26,.03-.02,.08,.03,.1,0l-.05-.04s.1-.04,.13-.03c-.01,.06-.29-.22-.25-.16l.02-.02s.05,.09,0,.11c.05,0,.06,.04,.07,.07h0s0,.07,.07,.06c0-.16,.45,.15,.49,0-.11,.05-.1-.03-.11-.1,.03,0,.09-.03,.12-.07,0-.04-.03-.03-.06-.04,.03-.02,.05-.06,.1-.05-.06-.04,.05-.05,.03-.09-.02-.04-.03,0-.05-.03,.01-.05,.03-.12,.05-.16,.05,0,.15-.04,.22,0-.02,.07-.12-.05-.12,.03,.12-.02,.02,.07,.1,.1,.05-.02,.06-.07,.06-.11h-.02s-.02-.11,.05-.14c.04,.02,.07,0,.07,.03l.02-.05s-.02-.02-.03,0c-.03-.03,0-.05,.02-.06,.04,0-.11-.3-.08-.29,0-.04,.07-.02,.04-.07-.04-.01,.04,.37,.05,.32,.04-.01-.09-.45,0-.44,0-.03,.01-.06-.03-.07,.04-.03,.07,.04,.12,.03,0,0-.02,0-.02-.01h.06c-.03-.1,.09-.14,.05-.25,.03,.04,.09,.1,.1,.16h-.02s0,.04,.04,.06c.04-.02,.05-.05,.04-.11h.03s.03,0,.04,.01h0c.11,.06,.02-.16,.11-.17,0-.03-.02-.02-.02-.05,.08-.02,.14-.02,.21-.05-.02-.05-.03-.07-.09-.1l.05-.02c.05,.14,.16,.06,.2,.2,.03,.02,.05,.01,.06-.02-.02-.03-.05-.08-.02-.1,.06,.02,.04,.01,.09,.04,.03,.04,.02,.06,.04,.09,0-.07,.07,.08,.09,.07,.01-.02,.04-.03,.03-.11,.03,0,.04,.06,.04,.13Z"/></g><g><path class="d" d="M154.04,109.43c.51,.05,1.03,.11,1.49,.34s.85,.67,.88,1.18c.05,.78-.72,1.39-1.48,1.59-.95,.25-3.2,.11-3.52-1.11-.42-1.59,1.5-2.11,2.63-2Z"/><path class="d" d="M155.58,110.98v.02c-.02-.05,0-.11-.01-.19-.08,.15-.21,.2-.24,.22-.03,.02,.07,.02,.32,.21-.29-.12-.46-.14-.42-.08,.02,.06,.02,.12,.02,.18,0-.04,.01-.08,0-.12,0,.04,0,.08,0,.12-.03,.19-.19,.33-.38,.38-.18,.06-.38,.03-.63-.01-.27-.02-1-.16-1.18-.33l-.09-.06s.04,.04,.09,.08c-.16,.05-.31,.08-.43,.08,0,.05-.02,.09,0,.17l-.05-.05c-.12,.1-.22,.02-.31,.04,.05-.05,.02-.09,0-.12l-.02,.04c-.1-.11-.21-.16-.23-.27,0-.01,.01-.03,.03-.04h0l-.06-.1c.09,0,.06-.11,.13-.06-.11-.07-.05-.15-.14-.23,.03-.24,.23-.56,.64-.87l-.02-.03c.13-.12,.24-.34,.47-.32,.13-.15,.36-.24,.41-.44,.2-.04,.28-.14,.49-.17-.05-.1,.21-.1,.12-.18-.14-.14-.15-.03-.28-.14v.03c-.58-.15-1.19-.14-1.83,.07-.37,.24-.87,.47-1.19,.99-.35,.55-.33,1.31-.14,1.7,.02,.04,.02,.08,.01,.13l-.02,.2c.19,.46,.65,.94,1.06,1.09h-.02c.21,.09,.33,.25,.54,.3,0-.03,.04-.02,.06-.03,0,.07,.32,.1,.62,.08,.31-.01,.6-.07,.63-.04h.06c.39,.07,.83,.3,1.22,.22,.07-.07,.16-.15,.22-.23,.08,.04,.07-.07,.15-.08,.28,.18,.37,.02,.23-.02,.15-.1,.32-.15,.45-.24,.05-.05,.1-.11,.15-.17,.04-.05,.09-.04,.15-.01,.11-.13,.11-.05,.26-.15,.11,.04,.21-.43,.25-.46v.03c.12-.16,.36-.23,.46-.47,.33-.66,0-1.54-.36-1.98-.08,.05,.1,.09,0,.17-.18-.28-.36-.59-.64-.79-.04-.05-.08-.13-.09-.17-.08-.08-.08,0-.14-.04l.03-.08c-.13,.01-.11-.15-.23-.16-.02,.03-.05,.02-.09,0,.03-.08-.11-.03-.08-.11h0s-.04,0-.06-.02c-.06,0-.47,.16-.5,.2v-.02c-.06,0-.1,.05-.07,.08l-.06-.02h0l-.06-.02s-.01-.05,0-.09c-.04,.03-.08,.04-.11,.01,.08,.07,.18,.17,.26,.27-.05,.02-.11-.04-.15-.04-.04-.07-.13-.13-.21-.18-.02,0-.04,.1-.08,.05-.01-.07-.04,0-.07-.06,.04-.03,.08-.01,.11,0,0-.08-.09-.07-.11-.09-.02,.02-.09-.01-.13,0,.03-.08-.03-.05-.05-.1-.03-.01-.05,.02-.04,.05-.02,.08,.11,.06,.06,.15,0-.04-.07-.03-.1-.03,0,.05,.02,.04,0,.08-.03-.01-.07,.04-.09-.01,0-.01,.02,0,.03,0-.05,0,.27-.28,.21-.25,0,.04-.28,.25-.25,.25,.02,.03-.03,.08,0,.1l.04-.05s.04,.1,.03,.13c-.06-.01,.22-.3,.16-.25l.02,.02s-.09,.05-.11,0c0,.05-.04,.06-.07,.07h0s-.06,0-.05,.06c.16,0-.15,.45,0,.49-.05-.11,.03-.1,.1-.11,0,.03,.03,.09,.07,.12,.04,0,.03-.03,.04-.06,.02,.03,.06,.05,.05,.1,.04-.06,.05,.05,.09,.03,.04-.02,0-.03,.03-.05,.05,.01,.12,.03,.16,.05,0,.05,.04,.15,0,.22-.07-.02,.05-.12-.03-.12,.02,.12-.07,.02-.1,.1,.02,.05,.07,.06,.11,.05v-.02s.11-.02,.14,.05c-.02,.04,0,.07-.03,.07l.05,.02s.02-.02,0-.03c.03-.03,.05,0,.06,.02,0,.04,.3-.11,.29-.08,.04,0,.02,.07,.07,.04,.01-.04-.37,.05-.32,.05,.01,.04,.45-.09,.44,0,.03,0,.06,.01,.07-.03,.03,.04-.04,.07-.03,.12,0,0,0-.02,.01-.02v.06c.1-.03,.14,.09,.25,.05-.04,.03-.1,.09-.16,.1v-.02s-.04,0-.06,.04c.02,.04,.05,.05,.11,.04v.04h0s0,.02-.02,.03h0c-.05,.12,.17,.02,.18,.12,.03,0,.02-.02,.05-.02,.02,.08,.03,.14,.05,.21,.05-.02,.07-.03,.1-.09l.02,.05c-.14,.06-.05,.16-.2,.2-.02,.03-.01,.05,.02,.06,.03-.02,.08-.05,.1-.02-.02,.06-.01,.04-.04,.09-.04,.03-.06,.02-.09,.04,.07,0-.08,.07-.07,.09,.02,.01,.03,.04,.11,.03,0,.03-.06,.04-.13,.04Z"/></g></svg>