<?xml version="1.0" encoding="UTF-8"?><svg id="a" xmlns="http://www.w3.org/2000/svg" viewBox="0 0 276.77 280.34"><defs><style>.b{fill:#005bea;}.c{fill:#65dff6;}.d{fill:#0b1f65;}</style></defs><g><path class="c" d="M54.01,180.39c.02,3.88,.06,7.82,1.17,11.53,.4,1.33,.98,2.68,2.06,3.55,1.01,.82,2.33,1.11,3.6,1.38,21.29,4.55,42.84,9.13,64.61,8.44,29.28-.93,58.35-11.36,87.32-7,1.93,.29,3.93,.65,5.82,.15,5.11-1.34,6.67-7.71,7.31-12.95,1.02-8.31,2.04-16.66,1.75-25.02-.21-6.15-1.14-12.26-1.58-18.4-1.45-19.96,2.14-40.13-.49-59.97-.11-.87-.26-1.76-.76-2.48-.51-.72-1.33-1.15-2.15-1.46-2.19-.83-4.57-.95-6.91-1.05-35.44-1.59-70.92-2.29-106.4-2.1-9.01,.05-18.01,.15-27.02,.32-4.41,.08-8.82,.17-13.23,.28-3.84,.09-8.26-.38-12.02,.45-2.91,.64-3.59,2.22-3.68,5.06-.15,4.4,.06,8.84,.08,13.25l.16,26.47c.12,19.85,.25,39.71,.37,59.56Z"/><path class="c" d="M169.53,200.87l2.36-.32c-7.63,1.1-15.64,2.45-23.59,3.55,8.67-1.06,18.05-2.54,26.94-3.7,8.89-1.17,17.28-1.9,23.96-2.18,.36,.13,1.68,.18,3.45,.36,.89,.09,1.89,.18,2.93,.29l1.61,.14c.54,.08,1.09,.15,1.63,.23,2.21,.31,4.38,.62,6.02,.85,1.77,.22,3.14,0,3.23-.04,1.04-.17,2.04-.58,2.96-1.1,.89-.57,1.7-1.27,2.33-2.07,1.27-1.6,2.05-3.42,2.58-5.24-.38,1.25-.86,2.5-1.54,3.68-.68,1.18-1.58,2.31-2.76,3.17,1.18-.86,2.08-1.99,2.76-3.17,.68-1.19,1.16-2.43,1.54-3.68,.86-2.88,1.12-5.85,1.44-8.7,.32-2.89,.64-5.81,.88-8.77,.51-5.91,.71-12.03,.19-18.18-.48-6.14-1.35-12.24-1.5-18.44-.2-6.21,0-12.51,.29-18.87,.15-3.53,.42-8.59,.57-14.44,.13-5.85,.14-12.5-.52-19.16l-.27-2.49c-.1-.81-.15-1.69-.53-2.74-.19-.51-.52-1.07-.93-1.5-.41-.43-.87-.75-1.31-1-.91-.49-1.74-.75-2.6-.97-1.72-.44-3.39-.56-4.97-.65-1.55-.08-3.07-.15-4.53-.22-5.87-.27-10.99-.5-14.62-.67-2.1-.09-4.2-.17-6.32-.26q3.52,.16,7.04,.32c-8.86-.21-16.88-.34-24.65-.46,1.37,.1,1.6,.16,4.85,.33l-3.96-.15c-3.62,.08-11.94-.11-15.86-.1,.84-.07-2.24-.16-4.96-.21l1.08,.08c-10.33-.21-22.32-.23-31.55-.25-1.29,0-2.25-.03-2.83-.07l-8.85,.09c.68-.14-7.34-.05-3.12-.17-6.62,.22-13.35,.21-19.66,.44-5.64,.05-11.37,.19-17.16,.33-1.45,.03-2.89,.09-4.32,.07-1.46-.02-2.92-.03-4.38-.05-1.48,0-2.97,.07-4.47,.27-.75,.12-1.49,.24-2.27,.49-.76,.25-1.57,.65-2.17,1.34-.61,.68-.92,1.54-1.07,2.32-.15,.79-.18,1.58-.2,2.31-.04,1.48-.03,2.96-.01,4.44l.19,8.82c.08,5.88,.16,11.75,.24,17.59l.04-.57c.13,8.17,.42,15.36,.4,25.29,.21,7.09,.36,17.17,.63,19.99,.09,8.18,.24,11.44,.35,19.46,.11-2.07,.2,7.79,.28,3.84,.15-5.32,0-5.61,.11-10.13l-.04,.13c.06-21.08,.04-42.18-.03-63.54-.09-7.13-.18-14.55-.27-22.05,0-.93,0-1.86,.03-2.78,.02-.95,.05-1.81,.21-2.56,.18-.75,.46-1.23,.97-1.58,.52-.37,1.28-.57,2.16-.73,3.47-.61,7.2-.23,10.99-.31,3.99-.1,8.06-.2,12.13-.3,4.07-.07,8.15-.14,12.16-.21,8.02-.12,15.75-.3,22.59-.35,3.27-.04,5.62,.06,8.4,.13,12.58-.04,28.59,.17,42.78,.42l-.69-.02c7.54,.14,13.18,.42,20.54,.63-.04-.04,1.11,0,1.66,0,.64,.11,11.47,.36,22.47,.74,2.73,.12,5.55,.12,8.05,.37,2.41,.29,5.04,.94,5.45,2.52,.28,.83,.35,1.9,.47,2.78l.28,2.39c.11,1.39,.19,2.32,.2,2.64,.08,.76,.13,1.54,.17,2.35,.38,7.72-.02,15.61-.4,23.22-.39,7.62-.77,15-.55,21.72,.08,1.46,.17,3.01,.31,4.5,.12,1.49,.26,2.92,.42,4.14,.15,2.37,.34,2.81,.61,5.64,.45,7.2,.67,11.34,.61,7.66,.46,5.86,.1,11.78-.38,17.01-.2,2.43-.45,4.84-.71,7.29-.22,2.08-.41,3.25-.63,4.26-.37,2.6-.65,3.47-.93,4.37-.14,.45-.3,.89-.56,1.53-.27,.62-.62,1.46-1.35,2.5-.21,.22-.74,1.03-1.71,1.74-.97,.72-2.4,1.27-4.05,1.21-1.63-.02-3.42-.38-4.87-.48-1.45-.15-2.55-.27-2.94-.33l.92,.09c-1.63-.23-3.13-.34-4.55-.44-1.43-.1-2.79-.26-4.14-.28-1.36-.04-2.71-.09-4.12-.13-1.42,.03-2.89,.06-4.49,.1-17.84,.7-36.76,5.11-52.95,6.82-.15,.14,3.57-.43,3.77-.31-9.54,1.22-19.21,1.73-28.86,1.2-1.74-.11-3.86-.33-4.65-.41-3.07-.31-1.82-.1-4.08-.3l-.29-.14c-3.3-.25-4.79-.65-7.89-1-.17,.02-1.3-.13-2.39-.29-.04-.11-3.38-.49-3.2-.59h-.03c-.66-.1-1.13-.17-1.93-.32-.63-.09-3.89-.53-7.15-1.05-3.26-.53-6.52-1.07-7.16-1.17l-.59-.14c-1.75-.35-2.52-.42-1.5-.19l-2.16-.45,.25,.04-2.14-.45c-.39-.09-.83-.24-.21-.16-1.22-.22-2.59-.48-3.8-.76,3.35,.79,7.52,1.76,11.06,2.59-1.46-.25-4.08-.84-5.65-1.16-1.9-.45-5.73-1.35-8.71-2.05-.65-.15-1.2-.06-2.5-.53-.59-.31-1.36-.53-1.93-1.37,.71,.89,1.76,1.3,3.17,1.62-.1-.09-.96-.27-1.71-.61-.77-.32-1.3-.92-1.55-1.34-.14-.17-.5-.77-.79-1.65-.29-.88-.55-1.97-.72-2.81,.23,.72-.19-1.37-.21-2.41-.1-1.17-.16-1.93-.18-1.44-.07-.19-.02,.99,.08,2,.1,1.01,.23,1.84,.04,1.05-.03-.43-.29-2.72-.32-3.98-.06-.01,0,.86-.1,.05-.05-1.4-.13-2.9-.07-3.72,.02,.27,.01,.85,.02,1.27,0-.92,.08,1.59,.35,3.95,.25,2.37,.86,4.53,.61,3.43,.02,.3-.55-2.14-.72-4.66-.19-2.5-.25-5-.26-4.38-.02,1.13-.12-.81-.13,.36l.09,1.29c0,1.59-.08,2.23-.14,1.68-.02-1.33,.09,.57,.33,2.46,.23,1.9,.7,3.75,.47,2.68l.13,.88c-.26-.89-.58-3.39-.55-4.38-.06,0-.16-1.28-.19-2.36v-.38c-.05-1.11-.04-2.68-.12-1.95,.08,6.55-.67-4.3-.63,2.05,.12-2.67,.08,.9,.32,3.67-.01,.27-.02,1.52,.33,3.49,.39,1.69,.28,.98,.38,1.29,.11,.46,.29,1.14,.47,1.65,.18,.51,.34,.87,.26,.78,.34,.58,.63,1.01,1,1.43,.37,.41,.85,.78,1.6,1.07,1.34,.43-.08-.05,.88,.22,2.06,.52,5.05,1.12,6.72,1.5,.64,.2,2.59,.74,1.13,.53-3.2-.69,1.25,.09-2.08-.59,1.4,.45-2.95-.59-3.58-.6,1.05,.29,3.2,.75,5,1.11l-.36-.1c1.59,.32,4.77,.95,6.47,1.38-.41-.03,.33,.16-.84-.07l2.18,.46c.28,.04,.57,.08-.06-.06,1.04,.17,2.07,.4,2.86,.59,.12,.04,3.04,.57,5.89,1.03,2.85,.45,5.26,.82,5.46,.85,1.58,.27,1.96,.4,3.51,.59-.14-.02-3.71-.58-7.27-1.14-3.55-.59-6.85-1.18-5.8-.99,.67,.16,5.15,.97,9.61,1.64,4.46,.64,8.81,1.26,9.37,1.34,1.18,.14,2.61,.31,2.34,.22,1.99,.28-.61,.03,.8,.27,.03,0-.11-.04,.34,.01l1.36,.22c3.11,.29,7.68,.73,10.96,.8-.95,.02-2.03,.05-4.14-.03l-.37-.06c-.3,0-2.03-.14-1.99-.08,1.99,.23,3.71,.31,5.82,.39,.39,.03,.84,.07,1.14,.1,0,0-.04-.02-.03-.02,.69,.06,.61,.06,.36,.08h-.15c1.25,.26,7.88,.14,11.54,.08,1.08-.08,.1-.03,1.44-.13,3.74-.09,6.32-.27,10.22-.6,1.23-.21,1.33-.25-.18-.16l2.94-.31c-1.32,.25,.05,.14,1.39,.03,1.34-.11,2.64-.26,1.19,.04,.86-.07,2.62-.3,4.25-.55,.16-.07,.41-.18,2.46-.49,2.87-.37,2.18-.28,4.56-.58,.57-.03-.29,.14-.19,.17,3.64-.65,3.21-.36,6.64-.92,2.15-.37,6.4-1.03,6.49-1.16,2.9-.45,2.91-.36,2.64-.23Z"/></g><g><path class="d" d="M48.59,150.11c.09,7.71,.18,15.43-.21,23.13-.35,6.79,.93,13.57-.16,20.28,4.55,.5,7.05,1.47,11.41,2.89-.42-38.71-1.09-77.42-1.99-116.13,13.88-.16,27.76,.68,41.64,.6,40.01-.24,80.02-.86,120.02,.15,.68,37.53,.24,75.09-1.31,112.59l15.15,4.67c-3.94-9.34-2.97-19.91-2.74-30.05,.83-35.91-.81-63.36,.01-97.21-.13,1.17-46.61-.17-51.05-.13-17.35,.18-34.7,.24-52.06,.2-17.35-.05-34.7-.21-52.06-.48-4.25-.07-26.42,.55-26.42,.55,0,0-.97,16-.92,20.33l.69,58.6Z"/><path class="d" d="M77.18,81.89l3.52,.11c-5.71-.14-11.55-.31-17.43-.36-1.23,0-2.46-.01-3.7-.02h-.53c-.06-.01-.05,.02-.05,.05v.27l.02,1.54,.11,8.89c0-3.22,0-6.51,0-9.84v-.52l.02-.15s-.03-.11,.1-.09l1.13,.03,5.05,.09c6.77,.21,13.59,.42,20.22,.62,6.65,.19,13.18,.16,19.21,0,6.05-.14,11.67-.34,16.64-.63,1.08,.26,7.86,.4,14.43,.46,3.29,.02,6.52,.03,8.97,.05,2.44,0,4.1-.02,4.23-.05,5.18-.12,10.43-.22,15.73-.29-3.65,.05-7.28,.11-10.89,.16,3.6-.05,7.24-.11,10.89-.16,8.71-.12,17.62-.16,26.7-.12,4.54,.05,9.12,.09,13.74,.14,2.31,.04,4.63,.08,6.95,.13,1.9,.05,3.81,.09,5.72,.14l.14,11.79c.02,4.39,.03,8.8,.05,13.24,0,8.88-.07,17.85-.21,26.9-.09,6.15-.24,15.4-.53,25.9-.16,5.25-.34,10.81-.51,16.45-.24,6.09-.49,12.27-.73,18.28,7,2.18,13.8,4.29,19.98,6.21-.43-1.12-.86-2.23-1.28-3.33-.4-1.12-.79-2.22-1.17-3.32l-.07-.2-.03-.1-.05-.21-.11-.41-.21-.81c-.14-.54-.23-1.07-.34-1.59-.4-2.11-.62-4.16-.75-6.11-.23-3.91-.12-7.39-.02-10.26,.11-3.08,.24-6.21,.3-9.35-.14,5.2-.18,5.24-.37,10.4,.29-13.07,.22-24.96,.07-36.44-.07,2.02-.13,2.38-.24,7.17l.04-5.86c-.23-5.34-.37-17.64-.54-23.41,.13,1.24,.09-3.31,.07-7.33l-.06,1.59c-.04-6.35-.09-13.13-.13-19.85,.01-3.36,.02-6.7,.03-9.96,.02-1.63,.04-3.24,.05-4.83l.1-5.29-.59-.37c-.19-.09-.41-.33-.52-.21-.22,.03-.48,.03-.74,.04h-.2s-.07,.03-.09-.03l-.06-.19-.12-.38-.06-.19c-.02-.06-.09,0-.13-.02-.89,.07-1.18,.07-1.71,.1-.96,.02-1.9,.05-2.82,.07-1.89,.03-3.31-.02-4.17-.05-4.34,.03-8.7,.01-13.05-.02,1.01-.13-10.83-.32-4.59-.31-4.89,0-9.81-.07-14.68-.16-2.44-.03-4.86-.06-7.26-.09-2.44,0-4.77,.06-7.12,.11-8.33,.04-16.79,.09-25.34,.13-4.27,.03-8.57,.05-12.88,.08-4.31,.03-8.63,.07-12.97,.03-8.66-.04-17.36-.08-26.05-.12-4.34-.01-8.68-.03-13.01-.04-4.33-.01-8.65-.06-12.96,.12l.84,.04c-6.03,.2-11.71,.4-17.71,.6-1.58,.05-3.18,.1-4.82,.15h-.08v.25l-.03,.33-.03,.67-.07,1.28-.12,2.4-.52,10.32c-.03,1.31-.06,2.69-.06,4.11,0,1.42,.06,2.88,.1,4.34,.08,2.93,.16,5.9,.24,8.68,.16,5.55,.32,10.31,.51,12.39,.19,12.08,.41,16.89,.63,28.74,.12-3.06,.33,11.5,.38,5.67,.13-7.86-.06-8.29,.04-14.96l-.05,.2c-.04-7.78-.08-15.57-.11-23.36-.02-3.9-.05-7.79-.07-11.69l-.04-5.85-.02-2.93c0-.93,.03-1.9,.06-2.87,.14-3.88,.37-7.78,.59-11.68l.18-2.93,.07-1.06c.03-.1-.02-.27,.07-.31l4.62-.08c3.91-.07,7.83-.14,11.75-.21l5.89-.11,2.95-.05,2.96,.03c10.53,.08,21.51,.15,32.58,.23,5.54,.05,11.11,.11,16.66,.16,5.55-.02,11.08-.05,16.56-.07,11.78-.08,24.04-.17,35.88-.25,11.81,.15,23.26,.37,33.37,.4,4.83,0,8.31,.15,12.46,.14,.71-.03,1.42-.06,2.16-.08,.16-.01,.33-.02,.5-.03,.11-.01,.22-.02,.34-.05,.08-.08,.03,.06,.05,.11v.21c-.03,1.91-.06,3.88-.09,5.89-.02,2.29-.04,4.62-.06,6.99-.03,4.73-.01,9.61,.02,14.52,.07,9.84,.25,19.85,.39,29.32v-1.03c.14,11.14,.01,19.47-.09,30.33,.05-.05,.03,1.63,.04,2.45-.08,.51-.11,5.4-.31,12.35-.08,3.49-.16,7.53,.17,11.82,.17,2.15,.47,4.35,.95,6.55,.12,.55,.23,1.1,.39,1.64l.22,.81,.11,.4,.05,.16c.13,.42,.3,.83,.48,1.26-.18,0-.51-.13-.77-.19-.31-.09-.63-.18-.94-.27-1.33-.4-2.63-.79-3.92-1.18-2.3-.69-4.5-1.35-6.55-1.96,.12-3.62,.22-6.78,.29-9.16,.1-2.59,.16-4.33,.18-4.88l.09-3.5c.84-22.96,1.52-46.72,1.41-66.45-.12-4.28-.24-9.1-.39-12.71,.05-3.49-.13-4.16-.16-8.36,.02-1.28,.05-2.49,.07-3.63l.02-1.89c0-.88,0-1.72,0-2.52-2.05-.07-3.79-.13-5.17-.17-1.05-.03-1.83-.04-2.28-.03-.91,0-.51,.08,1.58,.18-8.78-.14-17.59-.29-25.39-.35-3.62,.01-7.21,.03-10.86,.04-3.1,.02-4.82-.04-6.39-.14-7.93,.06-5.59-.05-13.9-.07-2.01-.15-20.84,.34-23.19,.32l1.36-.03c-9.61,.04-15.99-.19-25.38-.13-6.53,0-13.19,.1-19.88-.01-6.71-.15-13.47-.31-20.17-.46-3.36-.07-6.71-.11-10.03-.1-1.18,0-2.36,.01-3.53,.02h-.97c-.07,.02-.18,0-.23,.03v.8l.05,2.15,.09,5.11c.11,6.48,.21,12.79,.31,18.83,.16,.24-.13-5.33,.08-5.61,.16,14.25,.33,28.63,.49,43.01,0,2.59-.02,5.77-.05,6.95,.02,4.6,.12,2.71,.16,6.08l-.13,.46c.2,4.92-.03,7.19,.11,11.82,.06,.24,.1,1.94,.12,3.58-.15,.09,.1,5.07-.04,4.83v.05c.03,.99,.05,1.7,.04,2.91,.04,.94,.24,5.82,.44,10.71l.07,1.83,.04,.9,.02,.42v.08l.06,.34s.05,.17-.01,.14l-.14-.03-.28-.06h-.07s-.03-.02-.15-.06l-.52-.15-1.37-.39-.87-.28c-2.65-.72-3.86-.75-2.28-.43-.55-.12-1.11-.23-1.66-.32l-.73-.11h.13l-.3-.03,.05-.35,.07-.6c.07-.62,.18-1.31,.18-.35,.11-1.91,.09-4.03,.06-5.89,.01,1.3,0,2.7-.09,4.14-.04,.72-.1,1.46-.19,2.2l-.03,.27v.09l-.05,.18-.08,.38,.89,.17c.73,.14,1.46,.29,2.17,.48,1.42,.36,2.78,.81,4.04,1.26-1.04-.31-2.52-.78-4.07-1.15-.77-.19-1.56-.34-2.31-.47-.44-.08-.65-.1-.95-.13v-.05l.12-.53,.05-.33c.03-.24,.07-.5,.09-.76,.1-1.04,.18-2.21,.2-3.43,.06-2.43-.05-5.05-.12-7.31-.05-.99-.26-1.67-.21-3.9,.1-1.1,.01-2.46,.2-4.37l-.08,3.18c-.02,1.05,0,2.11,.02,3.19,.07-.19,.04-1.5,.06-2.97,0-.74,.04-1.49,.08-2.2l.1-1.79c0-.82,.17-5.08,.15-7.75,.12,1.17,.1-2.16,.17-3.74,.01-1.8-.05-2.95-.09-2.22-.13-.58-.09,7.16-.23,4.65,.08-.66,.05-4.19,.03-6.08-.08-.02-.05,1.29-.13,.07,0-2.11-.12-4.34-.05-5.55,.03,.39,.02,1.26,.03,1.88-.01-1.37,.16,2.34,.3,5.96,.14,3.62,.19,7.15,.19,5.37-.04,.46-.11-3.46-.25-7.25-.13-3.79-.28-7.46-.27-6.55-.02,1.67-.15-1.19-.16,.53l.12,1.92c0,2.36-.13,3.33-.19,2.5-.01-1.98,.15,.83,.28,3.72,.13,2.89,.21,5.85,.18,4.16l-.05,1.38c-.03-1.44-.06-5.28,0-6.76-.08-.01-.11-1.94-.16-3.55v-.57c-.05-1.66-.06-3.97-.15-2.89,.12,9.71-.85-6.38-.79,3.03,.12-3.95,.2,1.32,.23,5.46-.06,.4-.13,2.24-.21,5.22-.02,2.58,.04,1.52,.07,2.01-.06,1.43-.18,4.16-.26,3.8,.05,2.01-.24,3.21-.23,5.61,.06,2.12,.04-.14,.11,1.36,.05,3.17,.34,7.64,.29,10.18-.07,.99-.35,3.96-.39,1.79,.08-4.82,.23,1.85,.2-3.18-.08,1.08-.1-.03-.16-1.52-.06-1.49-.16-3.37-.25-3.83-.02,1.61,.18,4.84,.15,7.55l.03-.54c0,.73,0,1.7-.07,2.75-.03,.54-.07,1.05-.14,1.65-.05,.6-.16,1.21-.24,1.8,.74,.09,1.47,.18,2.13,.3,.61,.11,1.17,.23,1.65,.35-.61-.05,.48,.2-1.23-.1,1.07,.19,2.13,.43,3.18,.73,.41,.09,.82,.19-.08-.08,.75,.18,1.49,.4,2.19,.62,.35,.12,.68,.23,1,.34,.37,.13,.72,.26,1.05,.37,.05,.03,.39,.14,.95,.32,.28,.09,.61,.19,.98,.31,.03,0,.12,.07,.11,0v-.48l-.03-.7c-.06-1.73-.13-3.99-.21-6.22-.15-4.27-.3-8.42-.28-8.16-.04-2.37,.05-2.95-.06-5.26,0-.03,0,.3,0,.9l.06,2.49c.06,2.06,.14,4.81,.21,7.46l.21,6.95c.06,1.96,.09,2.98,.07,2.06l-.03-2.03-.09-3.37-.27-9.31c-.2-6.65-.38-13.24-.33-13.97-.04-1.76-.09-3.88-.15-3.46-.02-2.97,.15,.89,.18-1.23-.01-.05-.03,.17-.04-.5l.06-2.03c-.19-4.61-.16-11.38-.39-16.21,.1,1.4,.26,2.99,.39,6.1l-.03,.54c.03,.44,.1,3,.17,2.93,0-2.95-.06-5.48-.18-8.59l.03-1.69s-.02,.06-.03,.05c.03-1.02,.04-.91,.07-.54l.02,.21c.18-1.86-.33-11.59-.32-16.99-.06-1.59-.04-.15-.11-2.13-.02-5.51-.04-9.32-.06-15.08-.12-1.84-.16-1.98-.22,.24l-.05-4.35c.31,3.95,.09-8.13,.4-3.78,.03-1.27,0-3.88-.08-6.32-.06-.24-.17-.62-.22-3.69,0-4.27,0-3.25,.01-6.79,.06-.84,.12,.46,.18,.31l-.05-1.78v-.98s.09,0,.13,0l.51,.03,.47,.04c.17,.01,.26,.02,.7,.04,.74,.02,1.66,.03,2.94,.04,3.21-.01,9.56,.11,9.72-.02,4.33,.11,4.33,.22,3.9,.32Z"/></g><g><path class="b" d="M98,190.51l89.06,.19,54.95,.12c0,8.49-1.89,16.32-9.15,18.66-2.15,.69-6.45,.69-8.71,.68-55.99-.31-111.97-.61-167.96-.92-3.67-.02-8.44-.06-11.84-1.45-3.83-1.57-5.71-4.97-7.04-8.84-.64-1.86-.74-8.25-.74-8.25,0,0,28.83-.26,40.98-.23l20.45,.04Z"/><path class="b" d="M196.09,192.09l1.81,.02c-5.86,0-12.02-.06-18.1-.13,13.21,.5,28.81,.95,39.03-.03,1.11,.53,13.93,.81,14.19,.68,1.33-.04,2.67-.08,4.02-.12l2.03-.05,.94-.02,.21-.02h-.14l-.07,.02h-.3l-1.4,.04c-.93,.02-1.86,.04-2.79,.06,.93-.02,1.86-.04,2.79-.06l1.4-.03h.37l.14-.03,.18-.02s.02,.09,.04,.14v.17c.02,.07,.02,.06,.01,.4-.02,1.05-.09,2.11-.21,3.15-.24,2.08-.67,4.17-1.51,6.04-1.55,3.83-5.13,6.44-9.53,6.42-2.23,.15-4.53,.1-6.89,.08-2.34-.03-4.71-.06-7.08-.09-4.75-.07-9.55-.15-14.39-.22-10.75-.14-39.91-.51-50.93-.65-1.6-.03-3.18-.05-4.8-.08l5.34,.12c-6.72,.1-12.81,.18-18.69,.27,1.04,.08,1.22,.16,3.68,.28l-3.01-.07c-2.74,.21-9.06,.16-12.02,.24,.64-.11-1.7-.15-3.76-.18l.82,.08c-7.83-.09-16.92-.05-23.92-.1-.98,0-1.71-.05-2.15-.09l-6.71,.05c.52-.15-5.57-.17-2.36-.25-5.02,.16-10.12,.02-14.91,.18-4.28-.01-8.62-.03-13.01-.04-2.17-.03-4.34-.11-6.44-.45-2.1-.35-4.1-.97-5.65-2.28-1.57-1.29-2.69-3.12-3.53-5.1-.21-.49-.41-1-.59-1.51-.18-.48-.26-.92-.35-1.47-.16-1.06-.25-2.16-.33-3.26l-.15-2.61s-.03-.12,.02-.1h.38l.52-.02,1.48-.03c2.22-.04,4.44-.09,6.65-.13l-.43-.05c6.19-.14,11.65-.47,19.18-.41,5.38-.23,13.02-.41,15.16-.7,6.2-.03,8.68-.19,14.76-.26-1.57-.16,5.91-.18,2.92-.31-4.04-.23-4.26-.04-7.68-.23l.1,.05c-4-.06-8-.12-12-.19-4-.02-8.01-.04-12.02-.07-8.03,0-16.09-.02-24.19-.03-1.48,.02-2.97,.04-4.47,.07l-1.83,.03-.91,.02,.02,.92,.05,1.84,.06,1.44c.08,1.42,.17,2.85,.37,4.34,.06,.38,.12,.77,.22,1.18,.13,.5,.26,.83,.38,1.17,.26,.7,.53,1.4,.85,2.09,.64,1.38,1.44,2.76,2.52,3.97,1.07,1.22,2.43,2.24,3.93,2.9,3,1.29,6.01,1.5,8.88,1.65,3.11,.1,6.16,.04,9.26,.05,3.09,0,6.19-.01,9.23-.02,6.08-.03,11.95-.06,17.15-.08,2.48-.03,4.26,.11,6.38,.2,9.55,.02,21.69,.05,32.47,.07h-.53c5.72,0,10.01,.18,15.6,.19-.03-.05,.84-.04,1.26-.07,.97,.22,32.9-.26,34.87-.13,.58,0,1.18,0,1.8-.01,11.79,.16,23.99,.64,34.11,.66,2.2-.09,4.67-.16,6.53-.26,1.79,.1,2.13-.07,4.3-.04,5.51,.52,9.03-.49,5.99-.15,.59-.07,1.18-.17,1.79-.31,.64-.14,1.22-.39,1.78-.61,.58-.2,1.1-.55,1.65-.82,.5-.35,1.03-.67,1.48-1.08,1.86-1.57,3.15-3.6,3.92-5.59,.71-1.85,1.12-3.75,1.36-5.67,.18-1.63,.3-2.53,.45-3.35l.02-.72c.01-.3,.02-.64,.02-.92l.02-1.48v-.58l.02-.27s0-.05,0-.06h-.18c-.32-.01-.61-.02-.9-.03-.91-.02-1.85-.04-4.44-.09-1.03-.15-10.7,.21-11.91,.17l.7-.02c-4.93-.04-8.21-.33-13.04-.35-13.4-.14-28.04-.06-40.46-.14-.12,.16,2.74-.03,2.88,.18-7.32-.1-14.71-.2-22.1-.29-1.33-.04-2.96-.13-3.57-.18-2.36-.06-1.39,.07-3.12,.05l-.23-.14c-2.53,.11-3.69-.16-6.07-.11-.13,.06-.99,.06-1.84,.06-.04-.15-2.6,0-2.48-.13h-.02c-.51,0-.87,.02-1.5-.01-.97,.04-10.03,.45-11.02,.5l-.46-.03c-1.36,0-1.94,.11-1.15,.14h-1.67l.19-.02h-1.66c-.31-.03-.65-.1-.18-.16-.94,.05-2,.08-2.94,.05,2.62,.1,5.88,.23,8.62,.39-1.13,.05-3.16-.03-4.38-.02-1.46-.1-4.46-.19-6.79-.26-.51,0-.87,.17-2.03,.1-.57-.12-1.31,0-2.28-.08,1.11-.06,2.2-.03,3.32-.02-.19-.14-2.74-.1-3.63-.14-.42,.04-2.59,0-3.96,.03,.6-.13-1.1-.09-1.91-.16-.92-.02-1.51,.03-1.14,.08-.3,.14,3.67,.09,2.38,.24-.34-.07-2.14-.05-3.11-.05-.01,.08,.66,.06,.03,.13-1.08-.02-2.23,.07-2.85-.01,.2-.02,.65,0,.96,0-1.41-.01,7.62-.49,5.8-.45,.47,.07-8.01,.44-7.07,.45,.86,.04-.61,.14,.27,.17l.99-.09c1.21,.03,1.71,.17,1.28,.22-2.03-.02,5.77-.51,4.04-.44l.71,.04c-.74,.05-2.7,.09-3.46,0,0,.08-1,.1-1.82,.13h-.29c-.85,.02-2.04,0-1.49,.1,4.99,0-3.28,.77,1.55,.82-2.03-.17,.68-.17,2.81-.19,.21,.06,1.15,.14,2.68,.19,1.32-.01,.78-.06,1.03-.1,.73,.04,2.14,.07,1.95,.16,1.03-.1,1.65,.07,2.89,.04,1.09-.05-.07-.05,.7-.1,1.64,.02,3.93,.04,5.23,.06,.5,.08,2.04,.23,.92,.36-2.48-.02,.95-.21-1.64-.19,1.11,.19-2.28,.05-2.75,.19,.82,.09,2.49,.09,3.88,.07l-.28-.03c1.23-.02,3.69-.06,5.02,.05-.31,.07,.27,.12-.64,.13l1.69,.02c.22-.02,.44-.04-.05-.06,.8-.05,1.6-.02,2.21,.02,.18,.07,9-.28,8.73-.23,1.22,0,1.51,.11,2.7,.04,.02,0-.15,0-.46,0l-1.28,.02c-1.06,.02-2.47,.05-3.83,.07-2.73,.06-5.27,.12-4.46,.11,1.04,.08,13.81-.32,14.57-.19,.9,0,1.99-.02,1.78-.09,1.53,.04-.46,.14,.63,.2,.02-.01-.09-.04,.26-.03l1.04,.09c2.37-.11,5.84,.05,8.33-.1-.72,.08-1.54,.21-3.14,.28l-.28-.04c-.23,.02-1.54,.04-1.5,.11,1.52,.05,2.81,.04,4.41-.03,.29,.02,.63,.04,.87,.06,0,0-.03-.02-.02-.03,.52,.05,.47,.05,.28,.08l-.11,.02c.95,.21,5.96-.12,8.73,0,.82-.03,.08-.04,1.09-.07,2.83,.09,4.78,.16,7.74,.21,.95-.09,1.02-.12-.12-.22l2.24,.03c-2.03,.24,4.17,.24,1.93,.47,.65,.06,1.99,.07,3.25,.03,.13-.06,.32-.16,1.9-.15,2.19,.09,1.66,.06,3.48,.14,.43,.08-.24,.11-.16,.17,2.8-.09,2.44,.18,5.08,.17,1.65-.02,4.92-.02,5-.16,2.23,.01,2.23,.11,2.01,.22Z"/></g><path class="d" d="M122.72,201.12h.25c-.81,.01-1.72,0-2.69-.18,1.05,.34,2.1,.47,3.04,.52,.96,.03,1.87-.08,2.58-.47,.15,.43,1.95,.63,1.99,.53,.37-.08,.75-.14,1.14-.19-.25,.03-.51,.07-.79,.1,.27-.04,.53-.07,.79-.1,2.42-.32,5.05-.16,7.77,.01,1.51,.09,5.61,.2,7.15,.33l.67,.04-.75-.08c.94-.11,1.82-.22,2.59-.27-.14-.06-.16-.12-.49-.21l.4,.05c.38-.17,1.24-.11,1.66-.15-.1,.08,.23,.13,.51,.17l-.11-.07c1.08,.13,2.35,.19,3.34,.29,.14,.01,.24,.05,.3,.09h.96c-.08,.12,.8,.15,.33,.2,.73-.1,1.47,0,2.17-.17,.88-.03,1.78-.14,2.68-.33,.89-.2,1.96-.52,2.69-1.49,.32-.47,.39-.92,.45-1.31,.06-.4,.09-.79,.1-1.17l-.05,.06c.01-.89-.15-1.67-.05-2.74-.15-.77-.3-1.83-.59-2.1-.12-.85-.3-1.17-.51-1.98-.08,.24-.31-.76-.33-.34-.07,.57,.09,.57,.02,1.05l.04-.02c.16,2.16,0,4.26-.37,6.4-.02,.45-.18,1.02-.21,1.01-.21,.32-1.05,.6-1.99,.74-1.53,.29-3.29,.33-4.72,.33-.34,.01-.58-.12-.87-.2-1.32-.06-3.02-.3-4.58-.32h.08c-.82-.01-1.47-.16-2.24-.13,0,.04-.12,.04-.18,.06-.14-.17-4.62,.33-4.9,.23l-.25,.02c-1.66-.08-3.37-.42-4.79-.4-.31,.08-.66,.15-.92,.24-.25-.07-.3,.07-.6,.05-.77-.34-1.22-.2-.82-.08-.63,.04-1.27,.01-1.83,.02l-.78,.08c-.22,.03-.35-.02-.46-.1-.57,.05-.4-.04-1-.07-.14-.12-1.5,.18-1.67,.15l.1-.02c-.69-.02-1.15-.26-1.83-.27-.94-.05-1.93-.05-2.89-.05-.94,0-1.79-.03-2.37-.27-.05,.12,.28,.06,.25,.22-.81-.23-1.2-.74-1.51-1.4-.03-.13-.04-.31-.02-.38-.04-.24-.1-.12-.14-.29l.1-.05c-.15-.24,.03-.41-.05-.65-.05,0-.06-.1-.07-.2,.11-.01-.03-.29,.08-.29h0c0-.06,0-.1,0-.17-.07-.07-.33-1.24-.35-1.4l.03-.06c.01-.18-.07-.27-.1-.17l.03-.23v.03l.04-.23s.08-.09,.12-.01c-.03-.14-.03-.29,0-.42-.11,.37-.26,.81-.42,1.16-.03-.16,.06-.43,.07-.6,.1-.19,.21-.61,.3-.94,0-.07-.13-.14-.06-.3,.1-.08,.01-.19,.09-.33,.04,.17,0,.33-.01,.49,.11-.02,.11-.4,.14-.53-.03-.06,.02-.4,0-.61,.1,.09,.07-.17,.12-.3,.01-.15-.04-.24-.07-.18-.11-.04-.06,.58-.18,.38,.05-.05,.03-.33,.02-.49-.06,0-.04,.11-.11,.01,0-.17-.08-.35-.03-.45,.02,.03,.02,.1,.02,.15,.01-.23,.45,1.19,.4,.91-.03,.07-.41-1.27-.42-1.11-.02,.14-.12-.08-.13,.06l.09,.15c0,.19-.11,.27-.16,.21,0-.32,.45,.88,.37,.61l-.03,.11c-.04-.11-.07-.42-.02-.54-.06,0-.09-.15-.12-.28v-.05c-.04-.13-.04-.32-.11-.22,.08,.76-.66-.43-.63,.29,.11-.3,.15,.09,.17,.4-.05,.03-.11,.17-.15,.39,0,.19,.05,.11,.08,.15-.03,.1-.07,.3-.14,.27,.08,.15-.07,.23-.05,.41,.03,.16,.04,0,.07,.1-.03,.23-.07,.55-.11,.73-.07,.06-.21,.27-.3,.1,.05-.34,.15,.15,.17-.21-.17,.14,0-.32-.12-.4-.08,.11-.1,.34-.1,.54l.02-.04c0,.17,0,.52-.1,.7-.05-.05-.1,.03-.1-.1l-.03,.24s.03,.06,.05,0c.03,.12,0,.23-.04,.31-.07,.02,.16,1.29,.15,1.25,0,.17-.08,.22-.01,.38l-.15-1.43c-.04,.07,0,.57,.07,1.06,.07,.49,.19,.95,.15,1.01,.02,.13,.06,.28,.11,.24,.01,.22-.12-.04-.14,.12,0,0,.03-.02,.03,.03l-.04,.16c.16,.31,.21,.83,.48,1.11-.1-.07-.25-.13-.39-.34v-.05s-.1-.2-.15-.18c.03,.23,.12,.42,.27,.61l.02,.14s.01-.01,.02-.01c0,.09,0,.08-.04,.07,0,0-.01,0-.02,0-.1,.23,.57,.76,.84,1.1,.11,.07,.03,0,.17,.07,.3,.34,.56,.55,.98,.77,.17,0,.18-.03,.05-.17,.1,.05,.21,.1,.32,.14-.37,.09,.58,.36,.19,.45,.09,.07,.3,.13,.51,.13,.03-.04,.07-.11,.31-.08l.52,.16c.06,.07-.04,.08-.03,.14,.43-.05,.37,.16,.76,.16,.25-.01,.71-.02,.72-.13,.31,0,.31,.09,.28,.18Z"/><path class="d" d="M117.98,97.88h.32c-1.04,.02-2.14-.02-3.22-.07,2.35,.38,5.13,.73,6.95-.07,.2,.43,2.48,.63,2.53,.53,.47-.08,.95-.14,1.44-.19l-1,.1,1-.1c3.07-.32,6.4-.16,9.85,.02,1.91,.09,7.11,.2,9.07,.33l.85,.05q-.48-.04-.95-.08c1.2-.11,2.28-.22,3.33-.28-.18-.06-.22-.12-.65-.21l.54,.04c.49-.17,1.61-.16,2.14-.23-.11,.09,.3,.11,.67,.13l-.15-.06c1.39,.04,3.01-.03,4.26,0,.17,0,.3,.04,.38,.07l1.2-.07c-.09,.12,.99,.11,.42,.19,.9-.14,1.8-.05,2.66-.2,3.05,0,6.29-.09,9.44-.28l-.08-.05c1.1-.08,2.08-.32,3.42-.23,.96-.16,2.32-.24,2.7-.5,1.11-.03,1.55-.16,2.63-.22-.28-.13,1.05-.15,.52-.25-.72-.18-.76-.03-1.37-.18l.02,.04c-2.85-.2-5.7-.32-8.58-.39-1.93,.1-4.01,0-6.02,.03-2.16,.04-4.49,.11-6.34,.21-.44,.03-.76-.07-1.14-.13-1.7,.05-3.86,0-5.78,.06h.09c-1.02,.02-1.78-.11-2.78-.09,0,.04-.15,.04-.22,.06-.17-.17-5.86,.33-6.21,.23l-.32,.02c-2.1-.08-4.27-.42-6.07-.4-.39,.08-.83,.15-1.16,.24-.32-.07-.38,.07-.76,.05-.97-.34-1.55-.2-1.04-.08-.8,.04-1.61,0-2.32,.02-.33,.03-.66,.05-.99,.08-.28,.03-.44-.02-.58-.1-.73,.05-.51-.04-1.27-.07-.18-.12-1.91,.18-2.12,.14l.12-.02c-.88-.02-1.46-.26-2.32-.27-2.39-.1-4.99-.02-7.21-.07-.02,.12,.49-.03,.51,.14-1.3-.03-2.62-.19-3.94-.21-.24-.03-.53-.1-.64-.14-.42-.05-.25,.06-.56,.04l-.04-.11c-.45,.09-.66-.13-1.08-.08-.02,.05-.18,.05-.33,.05,0-.12-.46,0-.44-.1h0c-.09,0-.16,.01-.27,0-.19,.04-1.75,.37-1.96,.41l-.08-.02c-.24,0-.35,.09-.2,.11h-.3l.03-.02h-.3c-.05-.02-.12-.07-.03-.13-.17,.04-.36,.06-.52,.04,.47,.08,1.05,.18,1.54,.3-.2,.04-.56-.02-.78-.01-.26-.08-.79-.15-1.21-.2-.09,0-.15,.14-.36,.08-.1-.09-.23,0-.41-.06,.2-.05,.39-.03,.59-.02-.03-.11-.49-.08-.65-.11-.07,.03-.46,0-.7,.03,.11-.1-.2-.07-.34-.12-.16-.01-.27,.03-.2,.07-.05,.11,.65,.07,.42,.19-.06-.05-.38-.04-.55-.03,0,.06,.12,.05,0,.11-.19-.01-.4,.06-.51,0,.04-.02,.12,0,.17,0-.25,0,1.36-.4,1.03-.36,.08,.06-1.43,.36-1.26,.37,.15,.03-.11,.11,.05,.13l.18-.07c.22,.02,.3,.13,.23,.17-.36-.01,1.03-.42,.72-.36l.13,.03c-.13,.04-.48,.07-.62,0,0,.06-.18,.08-.32,.1h-.05c-.15,.02-.36,0-.26,.09,.89,0-.58,.62,.28,.66-.36-.14,.12-.14,.5-.15,.04,.05,.21,.11,.48,.15,.24,0,.14-.05,.18-.08,.13,.03,.38,.06,.35,.13,.18-.08,.29,.05,.51,.03,.19-.04-.01-.04,.12-.08l.93,.04c.09,.07,.36,.19,.16,.29-.44-.02,.17-.17-.29-.15,.2,.15-.41,.04-.49,.15,.15,.07,.44,.07,.69,.05l-.05-.02c.22-.02,.66-.05,.89,.03-.06,.05,.05,.09-.11,.11h.3s.08-.02,0-.04c.14-.04,.28-.02,.39,.01,.03,.06,1.6-.23,1.55-.2,.22,0,.27,.08,.48,.03,.02-.05-2.08,.19-1.79,.17,.19,.06,2.46-.27,2.6-.17,.16,0,.35-.01,.32-.07,.27,.03-.08,.11,.11,.16,0,0-.02-.03,.05-.03l.19,.07c.42-.09,1.04,.03,1.48-.09-.13,.06-.27,.17-.56,.22l-.05-.03s-.27,.04-.27,.09c.27,.04,.5,.03,.79-.03l.15,.05s0-.01,0-.02c.09,.04,.08,.04,.05,.06,0,0,0,0-.02,.01,.17,.17,1.06-.1,1.55-.01,.15-.02,.01-.03,.19-.06,.5,.07,.85,.12,1.38,.16,.17-.07,.18-.1-.02-.18l.4,.03c-.36,.19,.74,.19,.34,.38,.12,.04,.35,.05,.58,.02,.02-.05,.06-.13,.34-.12,.39,.07,.28,.05,.62,.1,.08,.06-.04,.09-.03,.14,.5-.08,.43,.14,.91,.13,.29-.02,.88-.02,.89-.13,.4,0,.4,.09,.36,.18Z"/><path class="d" d="M177.66,148.95l-.38,.98c1.23-3.18,2.19-6.56,2.28-10.01-.26,3.76-1.63,7.59-3.2,11.24-1.57,3.68-3.1,7.09-4.25,9.85-.39,.14-1.63,1.73-2.91,3.15-.64,.71-1.29,1.38-1.78,1.9-.5,.5-.83,.85-.83,.89-1,1.12-2.11,2.19-3.32,3.16,.43-.32,.82-.68,1.22-1.03,.4-.35,.79-.7,1.15-1.09-.36,.38-.75,.74-1.15,1.09-.39,.35-.79,.71-1.22,1.03-3.81,3.1-8.61,5.4-13.81,6.57-5.2,1.2-10.8,1.15-16.27,.06-1.52-.3-3.68-.8-6.09-1.62-2.41-.81-5.08-1.95-7.62-3.31-2.54-1.36-4.99-2.95-6.95-4.53-1.97-1.58-3.42-3.17-4.31-4.38-.53-.7-1.01-1.43-1.48-2.21q.77,1.27,1.63,2.47c-2.41-2.78-4.08-6.01-5.53-9.07,.17,.57,.11,.69,.64,2.05-.24-.54-.47-1.09-.67-1.62-.43-.67-.93-1.87-1.37-3.12-.43-1.25-.76-2.56-.98-3.39,.19,.34-.08-.99-.23-2.18v.48c-.35-2.25-.56-4.71-.62-7.13-.06-2.41-.04-4.82,.19-6.79,.06-.56,.18-.97,.25-1.21,.18-1.27,.43-2.54,.75-3.8,.03,.16,.29-.6,.5-1.17,.22-.57,.37-.96,.12-.07,.71-2.82,2.07-5.48,3.25-8.03,2.42-4.38,5.37-8.71,9.23-12.15,1.94-1.72,4.07-3.11,6.44-4.28,2.33-1.2,4.76-2.17,7.25-2.93l-.26,.02c3.48-1.07,6.66-1.92,11.11-2.32,1.57-.24,3.52-.3,5.22-.22,1.7,.06,3.16,.27,3.83,.23,1.83,.37,3.1,.72,4.35,1.08,1.25,.36,2.48,.78,4.17,1.52-.77-.58,3.28,1.43,1.73,.5-2.1-1.31-2.32-1.18-4.19-2.13l.04,.07c-4.52-1.89-9.46-2.98-14.49-2.78-1.26,.03-2.52,.2-3.7,.35-1.2,.15-2.41,.33-3.62,.54-2.42,.42-4.85,.99-7.23,1.77-1.57,.57-3.15,1.23-4.7,1.97-.78,.37-1.55,.77-2.31,1.17-.78,.42-1.55,.89-2.3,1.38-2.99,1.99-5.57,4.55-7.71,7.27-2.3,2.95-4.29,6.25-5.93,9.59-1.63,3.35-2.83,6.79-3.46,9.93-.28,1.5-.59,2.57-.8,3.88-.13,1.5-.16,3.05-.17,4.65,0,1.61,.04,3.28,.16,4.98,.24,3.4,.84,6.9,1.89,10.07l-.09-.31c.53,1.68,1.08,3.14,1.69,4.55,.6,1.37,1.22,2.75,2.07,4.25,.03-.04,.29,.43,.45,.64,.04,.15,.68,1.34,1.88,2.92,1.19,1.59,3.04,3.47,5.09,5.02,4.09,3.15,8.79,5.25,9.3,5.58l1,.44c3.23,1.56,6.66,2.86,10.09,3.75,3.43,.88,6.86,1.36,9.99,1.33,.68-.05,1.4-.1,2.08-.19,.69-.07,1.35-.17,1.91-.29,1.1,0,1.29-.22,2.6-.38,1.69-.05,3.02-.3,3.69-.49,.68-.17,.71-.27-.15-.14,2.67-.72,5.3-1.64,7.51-2.7,.52-.24,1.01-.53,1.51-.8,.5-.27,.99-.56,1.47-.87,.83-.51,1.31-.76,1.78-.95,1.04-.7,1.38-.98,1.77-1.23,.39-.25,.79-.5,1.82-1.32,.15-.07,.53-.38,1.01-.85,.49-.45,1.07-1.04,1.61-1.68,1.12-1.24,2.1-2.6,2.34-2.88l-.25,.35c1.89-2.36,3.2-3.93,4.63-6.52,1-1.79,1.89-3.67,2.74-5.58,.84-1.91,1.63-3.89,2.26-5.93,.63-2.04,1.08-4.15,1.25-6.25,.17-2.09,.1-4.11-.05-6.01-.15-.07,.16,1.68-.05,1.78-.09-2.25-.32-4.47-.57-6.67-.25-2.2-.55-4.46-1.17-6.7-.18-.82-.46-1.83-.56-2.21-.52-1.43-.41-.81-.86-1.82l.06-.19c-.82-1.36-.94-2.1-1.73-3.34-.09-.04-.37-.49-.64-.93,.12-.1-.86-1.34-.71-1.35h-.02c-.17-.27-.3-.45-.49-.79-.2-.24-1.12-1.45-2.27-2.64-1.1-1.11-2.23-2.14-2.47-2.34l-.18-.22c-.58-.6-.92-.76-.59-.4-.24-.24-.48-.49-.73-.73l.09,.07-.74-.71c-.13-.14-.24-.33,.02-.18-.47-.35-.97-.77-1.4-1.16,1.18,1.11,2.54,2.59,3.57,3.91-.51-.46-1.32-1.41-1.88-1.91-.57-.69-1.89-1.98-2.99-2.91-.26-.18-.53-.19-1.06-.67-.22-.29-.65-.48-1.1-.87,.6,.33,1.13,.75,1.68,1.17,0-.19-1.3-1.08-1.74-1.41-.23-.11-1.33-.89-2.07-1.28,.38,.08-.53-.43-.93-.73-.48-.3-.82-.42-.64-.27-.22,.02,1.89,1.2,1.14,.93-.14-.16-1.1-.7-1.62-.98-.04,.06,.32,.25-.05,.13-.56-.34-1.22-.58-1.51-.83,.12,.04,.35,.18,.52,.27-.37-.2,.7,.22,1.75,.68,1.04,.46,2.04,.95,1.55,.68,.11,.1-1-.45-2.09-.93-1.08-.49-2.14-.92-1.89-.79,.44,.28-.39-.05,.07,.23l.57,.2c.64,.37,.83,.64,.58,.56-.53-.3,.29,0,1.13,.34,.84,.34,1.69,.74,1.21,.49l.35,.26c-.41-.2-1.46-.77-1.83-1.06-.04,.07-.58-.21-1.03-.42l-.15-.09c-.47-.21-1.1-.56-.85-.32,2.66,1.4-2.1-.24,.44,1.16-.99-.72,.45,.03,1.56,.65,.08,.12,.53,.46,1.29,.98,.68,.4,.43,.19,.58,.24,.35,.27,1.04,.75,.9,.77,.57,.26,.78,.61,1.4,1.01,.56,.34,0-.06,.4,.17,.78,.59,1.84,1.47,2.42,2,.18,.26,.75,.98,.17,.63-1.1-.99,.57,.2-.62-.78,.39,.57-1.08-.84-1.39-.89,.33,.37,1.1,.99,1.73,1.52l-.11-.13c.56,.46,1.67,1.42,2.14,2.06-.18-.08,.03,.19-.36-.17l.7,.72c.1,.08,.21,.16,.02-.06,.36,.31,.67,.67,.89,.96,0,.06,.98,.99,1.86,1.94,.87,.96,1.65,1.98,1.58,1.92,.41,.6,.42,.8,.86,1.36,.02,0-.21-.35-.58-.86-.37-.51-.87-1.19-1.38-1.81-1.02-1.24-2.13-2.28-1.79-1.94,.18,.26,1.62,1.7,2.81,3.35,1.22,1.63,2.3,3.33,2.36,3.56,.28,.46,.61,1.02,.61,.87,.41,.81-.25-.17,0,.43,.02,0,0-.06,.1,.12l.22,.59c.79,1.18,1.47,3.11,1.99,4.49-.2-.39-.46-.81-.85-1.66l-.02-.17c-.06-.12-.39-.81-.44-.76l.92,2.39,.09,.5s.01-.02,.02-.02c.04,.31,.02,.28-.03,.18,0-.01-.02-.03-.03-.06-.02,.57,.94,3.36,1.04,5.01,.1,.47,.04,.04,.17,.63l.38,4.58c.14,.55,.18,.59,.21-.09l.09,1.32c-.32-1.17-.07,2.46-.4,1.16-.03,.38-.02,1.16,.02,1.88,.06,.07,.17,.19,.14,1.1-.15,1.26-.1,.96-.28,1.99-.11,.23-.09-.15-.16-.11-.12,1.59-.36,1.35-.66,2.81-.18,.92-.73,2.72-.62,2.81-.42,1.22-.53,1.18-.59,1.03Z"/><path class="d" d="M96.4,99.84h-.1c.31-.03,.62-.06,.92-.11-.75-.15-1.41-.48-2.07,.24-.02-.42-.6-.75-.63-.66-.15,.04-.3,.05-.44,.05,.1,0,.2,0,.3,0-.1,.01-.2,0-.3,0-.27-.02-.35,0-.51-.09-.15-.09-.31-.24-.43-.43-.06-.09-.11-.19-.16-.3l-.16-.41c-.12-.3-.22-.58-.24-.76,0,.03,0-.62,.09-1.12,.08-.51,.28-.94,.43-1.12,.04-.06,.08-.11,.12-.16-.09,.07-.08,.08-.16,.17,0-.31,.05-.6,.17-.84-.08,0-.13-.04-.27,0,.04-.03,.08-.06,.12-.09-.06-.22,.18-.44,.26-.59,.03,.09,.14,.04,.23-.01l-.07-.03c.34-.2,.75-.46,1.14-.55,.05-.02,.1,0,.13,.03l.35-.14c0,.12,.31,.07,.15,.17,.24-.18,.51-.09,.77-.23,.91,.07,1.89,.41,2.77,1.02v-.05c.32,.21,.74,.33,.91,.79,.33,.2,.58,.65,.86,.72,.15,.41,.32,.56,.42,1.01,.12-.12,.18,.43,.27,.22,.16-.33,0-.34,.12-.63h-.04c0-1.29-.57-2.59-1.51-3.52-.71-.52-1.49-1.1-2.4-1.35-.97-.27-2.12-.18-2.87,.11-.18,.07-.33,0-.51-.01-.7,.24-1.66,.67-2.26,1.36l.04-.03c-.33,.34-.65,.55-.88,.97,.03,.02,0,.08,0,.12-.09-.01-.36,.65-.43,1.31-.08,.66,0,1.29-.05,1.36v.13l-.08,.65c-.02,.22-.08,.41-.05,.76,.08,.63,.22,.99,.38,1.29,.15,.11,.24,.14,.4,.26,0,.16,.14,.12,.21,.28-.06,.56,.25,.7,.2,.44,.25,.27,.48,.56,.77,.78,.14,.08,.3,.16,.46,.22,.15,.05,.2,.13,.22,.22,.31,.08,.19,.12,.49,.27,.04,.15,.84,.06,.91,.09h-.05c.35,.1,.57,.36,.94,.41,1.03,.17,2.2-.04,3.2-.48-.04-.12-.21,.13-.28-.02,.59-.22,1.17-.45,1.64-.85,.11-.05,.24-.1,.31-.11,.17-.11,.04-.12,.15-.22l.1,.06c.07-.22,.3-.16,.39-.35-.03-.04,.01-.1,.06-.15,.1,.07,.12-.19,.2-.12h0s.04-.07,.08-.11c.03-.1,.1-.92,.07-1.01l.03-.03c.04-.1-.02-.18-.07-.13l.06-.12v.02l.06-.12s.08-.03,.12,.03c-.01-.09,0-.18,.04-.25-.14,.19-.33,.4-.53,.54,0-.1,.12-.22,.14-.31,.11-.08,.26-.28,.36-.46,0-.04-.12-.1-.04-.18,.1-.02,.02-.11,.1-.17,.03,.1,0,.19-.04,.27,.11,.01,.12-.21,.17-.28-.03-.04,.04-.22,.02-.34,.1,.06,.08-.09,.14-.15,.02-.08-.02-.14-.06-.11-.11-.03-.1,.31-.2,.19,.06-.02,.06-.18,.05-.26-.06,0-.05,.05-.11,0,.02-.09-.05-.19,.01-.24,.02,.02,0,.05,0,.08,.02-.13,.36,.68,.33,.53-.04,.02-.32-.72-.33-.63-.03,.07-.11-.05-.13,.02l.07,.08c-.03,.1-.14,.13-.18,.1,.03-.17,.39,.5,.33,.36l-.04,.06c-.03-.07-.05-.23,.02-.29-.06,0-.08-.09-.1-.16v-.02c-.02-.07,0-.17-.08-.12,0,.39-.61-.25-.66,.11,.14-.14,.14,.05,.15,.21-.05,.01-.12,.07-.17,.17,0,.09,.04,.06,.07,.08-.03,.05-.08,.14-.15,.11,.07,.09-.07,.1-.06,.19,.02,.08,.04,0,.06,.06-.04,.11-.09,.26-.14,.33-.07,.01-.22,.07-.29-.03,.07-.15,.14,.11,.17-.05-.17,.02,0-.16-.1-.22-.08,.03-.11,.13-.12,.22h.02c0,.07-.03,.23-.14,.28-.04-.04-.09-.02-.08-.08l-.05,.09s.02,.04,.04,.02c.02,.06-.02,.1-.07,.12-.04-.02-.06,.61-.09,.58-.04,.07-.12,.04-.12,.13,.05,.03,.21-.74,.17-.64-.05,.03-.2,.9-.34,.87-.03,.05-.07,.11-.01,.14-.08,.06-.07-.09-.15-.07,0,0,.03,.01,0,.03h-.1c-.03,.18-.26,.26-.29,.45,0-.07-.05-.19-.02-.3h.03s.04-.08,0-.12c-.09,.04-.14,.1-.17,.21-.02,0-.05,0-.07,0l.02,.02s-.05-.01-.06-.04h0c-.15-.1-.19,.3-.38,.33-.03,.05,.01,.03-.02,.09l-.46,.1c-.01,.09,0,.12,.09,.15l-.13,.04c.02-.22-.28-.07-.25-.3-.05-.03-.11-.01-.16,.04,0,.05,.03,.13-.05,.15-.13-.03-.1-.01-.21-.04-.04-.06-.01-.09-.03-.14-.12,.11-.16-.1-.28-.06-.08,.03-.25,.07-.24,.18-.12,0-.13-.07-.13-.16Z"/><path class="d" d="M186.23,98.71l-.05,.04c.14-.17,.22-.24,.33-.51-.27,.28-.43,.19-.62,.35-.2,.15-.48,.49-.49,.98-.3-.3-.97-.14-.93-.06-.09,.13-.19,.24-.3,.34,.08-.06,.15-.13,.22-.2-.07,.08-.14,.14-.22,.2-.35,.3-.79,.43-1.18,.36-.17-.03-.41-.11-.64-.23-.22-.12-.44-.26-.63-.42-.22-.17-.62-.5-.92-.89-.3-.39-.48-.83-.51-1.08,0-.06-.04-.16-.03-.18-.02,.07,0,.11,0,.22-.12-.14-.19-.18-.27-.3-.08-.12-.15-.27-.2-.42-.06,.06-.11,.07-.18,.22l.02-.17c-.19-.13-.2-.5-.26-.66,.09,.04,.11-.09,.14-.19l-.06,.04c.04-.22,.05-.31,.14-.59,.08-.23,.12-.48,.22-.65,.02-.05,.07-.07,.11-.08l.1-.38c.09,.08,.26-.19,.23-.01,.02-.31,.25-.48,.31-.76,.59-.69,1.45-1.07,2.53-1.15l-.02-.05c.37-.03,.78-.19,1.22,.06,.38-.04,.88,.11,1.13-.05,.39,.18,.61,.15,.99,.34-.02-.17,.43,.11,.32-.09-.14-.31-.24-.2-.37-.46l-.02,.04c-.89-.78-1.99-1.42-3.37-1.58-.9,.03-2,.13-2.87,.7-.94,.6-1.52,1.58-1.79,2.33-.05,.19-.21,.26-.33,.39-.13,.35-.24,.72-.38,1.14-.14,.58-.13,1-.09,1.43v-.04c.04,.44-.06,.78,.07,1.25,.03-.01,.05,.06,.08,.1-.07,.09,.23,.75,.66,1.26,.43,.53,.95,.91,.97,1l.11,.08c.57,.67,1.24,1.46,2.02,1.73,.19-.02,.4-.01,.56-.06,.12,.11,.17-.02,.34,.04,.41,.44,.74,.29,.49,.16,.39,0,.77,0,1.1-.07,.15-.05,.29-.1,.42-.17,.12-.06,.19-.03,.28,.03,.29-.14,.23-.04,.55-.13,.14,.08,.66-.52,.74-.54l-.04,.04c.32-.16,.65-.1,.96-.3,.4-.25,.89-.57,1.31-1.19,.43-.64,.52-1.32,.58-1.82-.12-.02,0,.23-.16,.23,.08-.63,.21-1.1,.21-1.66,.03-.1,.08-.22,.12-.27,.03-.18-.07-.1-.06-.23l.11-.03c-.11-.18,.09-.3,.02-.48-.05,0-.06-.07-.07-.14,.12-.02-.04-.2,.07-.21h0s-.02-.07-.01-.12c-.04-.07-.56-.72-.64-.77v-.04c-.04-.11-.14-.12-.13-.05l-.04-.13h.01l-.05-.12s.04-.08,.1-.06c-.07-.06-.13-.13-.15-.22,.04,.24,.05,.53,0,.78-.06-.07-.06-.24-.11-.33,.03-.14-.01-.4-.07-.6-.03-.04-.16,0-.16-.11,.05-.09-.06-.1-.06-.21,.11,.06,.13,.15,.18,.24,.08-.07-.06-.25-.1-.34-.05-.01-.14-.2-.26-.28,.12-.02-.03-.13-.04-.23-.06-.08-.13-.09-.13-.04-.09,.06,.2,.31,.03,.3,.02-.06-.11-.18-.19-.23-.04,.05,.02,.08-.07,.08-.07-.08-.2-.09-.21-.18,.03,0,.05,.03,.07,.06-.05-.04,.16-.01,.36,.05,.19,.06,.39,.15,.31,.09,0,.04-.84-.3-.77-.21,.04,.07-.11,.05-.06,.12h.12c.07,.09,.04,.2-.02,.21-.13-.15,.68,.06,.52,0l.02,.07c-.08-.03-.23-.14-.24-.24-.04,.04-.13,0-.2-.04l-.02-.03c-.08-.03-.16-.11-.17-.01,.18,.14,.02,.21-.13,.29-.15,.08-.29,.18-.17,.3-.03-.2,.13-.08,.26,.02-.02,.04-.02,.14,.03,.25,.07,.06,.08,0,.11,0,0,.06,.05,.16-.02,.19,.11,.01,.03,.12,.09,.18,.07,.04,.03-.02,.09,0,.06,.1,.12,.25,.14,.34-.04,.06-.11,.2-.23,.18-.06-.15,.18-.01,.08-.16-.11,.13-.1-.12-.22-.09-.03,.08,.01,.17,.07,.24v-.02c.07,.06,.15,.2,.11,.3-.06,0-.08,.05-.11,0l.03,.1s.04,.01,.04-.02c.05,.03,.05,.09,.03,.14-.04,.02,.38,.49,.34,.49,.02,.08-.06,.11,.01,.18,.05,0-.35-.69-.32-.59-.03,.06,.48,.8,.37,.88,.01,.06,.03,.13,.09,.11-.02,.1-.11-.02-.16,.06,0,0,.03,0,.03,.01l-.06,.08c.11,.14,.01,.38,.14,.53-.07-.04-.18-.09-.24-.19l.03-.02s-.05-.1-.1-.09c-.03,.1-.01,.18,.05,.28-.01,.02-.03,.04-.04,.06h.02s-.04,.03-.06,.02h-.01c-.16,.06,.12,.37,.04,.55,.02,.05,.03,0,.06,.07-.07,.18-.12,.31-.16,.48,.07,.06,.1,.07,.18,0l-.03,.13c-.18-.13-.21,.22-.38,.07-.05,.03-.06,.09-.04,.16,.05,.01,.12,.04,.11,.12-.09,.09-.06,.07-.14,.13-.07,0-.08-.04-.13-.05,.04,.13-.16,.04-.18,.12,0,.05-.05,.14,.03,.21-.06,.06-.12,.01-.18-.05Z"/><g><path class="c" d="M134.63,100.85s6.67,.06,10.12-.11c.1-3.26,.1-5.94,.1-9.12-3.09-.24-5.55-.02-8.32-.22-.38-.03-2.01-.02-2.01-.02,0,0,.17,3.9,.11,5.15-.01,.34,0,4.32,0,4.32Z"/><path class="b" d="M143.58,101.84h-.78c-.27-.01-.54-.03-.82-.05,.3,.09,.61,.18,.93,.25,.19,.03,.24,.06,.58,.08,.29,.02,.58,.03,.86,.04,.56,0,1.15-.02,1.59-.1,.16,.03,.09-.17,.07-.31l-.08-.42c-.06-.28-.14-.54-.24-.77,.21,.05,.37-.42,.47-.98l.09-.58c.01-.11,0-.19-.02-.2-.07-.24-.14-.48-.19-.73,.03,.17,.06,.34,.1,.51-.04-.17-.07-.34-.1-.51-.31-1.56-.15-3.21,.03-4.99l.08-1.78,.02-.56v-.37s-.03,0-.05-.01h-.14c-.39-.05-.79-.09-1.2-.13-.67-.06-1.35-.12-1.96-.17-.39-.04-.74-.08-1.01-.1l-.44-.04,.49,.08c-.61,.11-1.16,.22-1.69,.29,.09,.06,.11,.12,.33,.2l-.27-.04c-.25,.18-.81,.17-1.07,.24,.06-.09-.15-.11-.33-.13l.07,.06c-.69-.05-1.49,0-2.09-.05-.08,0-.15-.04-.18-.08l-.87,.06c.05-.12-.78-.12-.37-.19-.32,.07-.65,.08-.98,.09l-.47,.03c-.14,.03-.35-.03-.24,.24l.07,1.77,.04,.76,.05,.59c.07,.79,.16,1.58,.28,2.37l.04-.04c.1,.55,.33,1.06,.25,1.73,.16,.49,.25,1.17,.51,1.37,.04,.55,.16,.78,.23,1.32,.13-.14,.15,.53,.25,.26,.18-.36,.03-.38,.17-.68h-.04c.19-1.42,.32-2.79,.35-4.27-.06-.5-.08-1.01-.09-1.53v-.78l-.02-.39v-.25l-.06-.22-.03-.13-.02-.07s.04-.01,.06-.02l.58-.14c.05-.02,.09,0,.14,.03l.28,.12c.89,0,2,.06,2.97,0h-.05c.52-.02,.9,.11,1.4,.08,0-.04,.07-.04,.11-.06,.04,.09,.77,0,1.51-.08,.18-.02,.37-.04,.54-.06,.14-.02,.17-.04,.26-.05,.15-.02,.27-.03,.28,0h.09c.06,0,.11,.02,.16,.04l-.06,.23c-.04,.15-.09,.27-.14,.38-.02,.07-.04,.06-.06,.18l-.05,.37c-.03,.24-.05,.48-.04,.71,.08,.2,.14,.42,.23,.58-.07,.16,.07,.19,.04,.38-.35,.48-.21,.77-.08,.52,.04,.4,0,.81,.01,1.16l.07,.5c.03,.14-.02,.22-.11,.29,.04,.36-.04,.26-.08,.63-.12,.06,.18,1.04,.14,.94l-.02-.03c-.02,.22-.25,.21-.26,.3,0,.01,0,.04-.02,.04h-.07l-.13-.02h-.33c-.61,.02-1.21,.03-1.76,.02,0,.12,.24-.03,.26,.13-.65-.01-1.31-.16-1.97-.18-.12-.03-.26-.09-.32-.13-.21-.04-.12,.06-.28,.05l-.02-.11c-.22,.09-.33-.12-.54-.07-.01,.05-.09,.05-.16,.05,0-.12-.23,.01-.22-.1h0s-.08,.02-.13,0c-.08,.04-.89,.38-.97,.43l-.04-.02c-.12,0-.17,.09-.1,.11h-.13l-.15-.02s-.06-.07-.02-.12c-.08,.04-.18,.07-.26,.05,.23,.07,.52,.17,.77,.29-.1,.04-.28-.02-.39,0-.13-.08-.4-.14-.6-.19-.05,0-.08,.14-.18,.08-.05-.09-.12,0-.2-.06,.1-.05,.2-.03,.3-.03-.02-.11-.24-.07-.32-.1-.04,.03-.23,0-.35,.03,.05-.1-.1-.07-.17-.12-.08-.01-.13,.03-.1,.07-.03,.11,.33,.06,.21,.18-.03-.05-.19-.03-.28-.03,0,.06,.06,.05,0,.11-.1-.01-.2,.06-.25,0,.02-.02,.06,0,.09,0-.12,0,.68-.41,.52-.37,.04,.05-.71,.37-.63,.38,.08,.03-.06,.11,.02,.13l.09-.08c.11,.02,.15,.13,.11,.17-.18,0,.52-.43,.36-.36l.06,.03c-.07,.04-.24,.08-.31,.01,0,.06-.09,.08-.16,.11h-.03c-.08,.02-.18,0-.13,.09,.44-.01-.3,.62,.13,.65-.18-.13,.06-.14,.25-.16,.02,.05,.1,.11,.24,.15,.12-.01,.07-.05,.09-.08,.07,.03,.19,.05,.17,.12,.09-.09,.15,.05,.26,.02,.1-.04,0-.04,.06-.08,.15,0,.35,.02,.47,.03,.05,.07,.18,.18,.08,.29-.22-.01,.08-.17-.15-.14,.1,.15-.2,.04-.25,.16,.07,.07,.22,.07,.35,.05l-.03-.02c.11-.02,.33-.06,.45,.02-.03,.05,.02,.09-.06,.11h.15s.04-.03,0-.04c.07-.04,.14-.02,.2,.01,.02,.06,.8-.25,.78-.21,.11,0,.14,.08,.24,.02,.01-.05-1.04,.2-.9,.18,.09,.06,1.23-.3,1.3-.19,.08,0,.18-.02,.16-.08,.14,.03-.04,.11,.06,.16,0,0,0-.03,.02-.03l.09,.07c.21-.09,.52,.02,.74-.1-.06,.06-.13,.17-.28,.23l-.03-.03s-.14,.04-.13,.1c.14,.04,.25,.02,.39-.03,.03,.02,.06,.03,.08,.05v-.02s.04,.04,.02,.06c0,0,0,0,0,.01,.09,.17,.53-.11,.78-.03,.07-.02,0-.03,.1-.06,.26,.06,.43,.11,.7,.15,.08-.07,.09-.1-.02-.18l.2,.02c-.18,.19,.38,.18,.19,.37,.06,.04,.18,.05,.29,.02,0-.05,.02-.13,.17-.13,.2,.06,.15,.04,.32,.1,.04,.06-.02,.09,0,.14,.25-.08,.22,.13,.46,.12,.15-.02,.43-.03,.46-.14,.31,0,.32,.08,.31,.17Z"/></g><path class="b" d="M124.08,143.91l-.27-.57c.94,1.82,1.87,3.76,2.78,5.67-.84-2.16-1.78-4.5-2.82-6.65-.26-.54-.53-1.06-.8-1.56l-.42-.74s-.09-.15-.09-.15l-.02-.02-.05-.05s-.07-.08-.08-.14c0-.03-.01-.06-.01-.09,0-.04-.02-.03,.05-.19,.19-.47,.35-.93,.48-1.37,.65-.05,3.22-3.73,3.16-3.87,.41-.84,.83-1.68,1.28-2.53-.3,.58-.61,1.15-.92,1.73,.31-.58,.61-1.15,.92-1.73,2.81-5.33,6.4-10.79,10.13-16.43,.33-.51,.74-1.15,1.33-2.06l.1-.21,.02-.04,.05-.08,.1-.16,.19-.31,.23,.46c.51,.84,1.03,1.67,1.51,2.46,1.07,1.76,2.02,3.33,2.66,4.38l.86,1.44-.93-1.62c1.39,1.89,2.65,3.61,3.84,5.29-.13-.35-.1-.44-.48-1.22l.53,.91c.7,.68,1.89,2.54,2.53,3.36-.22-.12,.2,.57,.58,1.19l-.09-.28c1.44,2.32,3.23,4.94,4.54,7,.18,.29,.29,.52,.34,.68l1.34,1.92c-.23-.07,.94,1.71,.25,.82l.39,.51c.1,.13,.12,.15,.17,.25,.07,.18,.06,.31-.03,.57-.28,.77-.6,1.58-.84,2.37-1.17,2.69-2.56,5.4-4.13,8.03-.79,1.32-1.62,2.61-2.49,3.88l-.66,.95c-.21,.32-.46,.6-.72,1.11-.24,.47-.32,1.01-.19,1.51,.06,.25,.17,.5,.27,.71l.26,.52v-.16c.94,1.89,1.87,3.6,2.37,6.17,.63,1.77,1.05,4.41,1.39,5.15,.17,2.18,.32,3.06,.25,5.23,.22-.54-.02,2.11,.21,1.07,.37-1.42,.18-1.52,.41-2.75l-.05,.03c.23-2.88,.06-5.8-.48-8.67-.27-1.43-.63-2.86-1.09-4.25-.23-.7-.48-1.39-.75-2.08l-.43-1.02-.08-.2-.02-.05s-.02-.07-.01-.1c-.01-.05,0-.09,0-.14,.03-.07,0-.03,.13-.23l.86-1.17c.58-.81,1.17-1.63,1.74-2.48,1.14-1.68,2.22-3.44,3.16-5.21,1.01-1.91,1.95-3.96,2.74-5.98l.29-.76c.1-.27,.18-.45,.3-.84,.29-.84,.2-1.75-.24-2.48-.24-.41-.34-.52-.49-.75l-.41-.6c-.27-.39-.54-.78-.8-1.15-.51-.7-.73-1.3-1.07-1.96-1.86-2.76-4.11-6.36-6.22-9.47l.1,.16c-1.1-1.67-1.77-3.01-2.85-4.64-.03,.03-.2-.22-.3-.33,0-.2-1.65-2.55-3.33-4.94-.84-1.19-1.68-2.4-2.34-3.33-.45-.67-.83-1.24-1.12-1.67-.3-.46-.51-.78-.57-.91l-.52-.76-.91-1.48c-.85,1.67-1.7,3.36-2.55,5.04-.69,.99-1.36,1.96-2,2.89-.65,.96-1.26,1.9-1.81,2.8-.32,.7-.7,1.49-.94,2.09-.41,.48-.32,.68-.74,1.31-1.37,1.4-1.8,2.45-1.16,1.69-.78,1.37-1.64,2.69-2.36,3.89-.31,.57-.62,1.13-.94,1.71-.26,.49-.48,.72-.71,.91-.7,1.24-.56,.83-1.39,2.07-.32,.23-1.76,3.3-2.02,3.64l.11-.22c-.46,.73-.91,1.29-1.35,1.86l-.66,.86-.33,.47-.18,.27c-.09,.15-.19,.3-.27,.46-.24,.44-.37,.94-.33,1.44,.03,.49,.24,1,.46,1.43,.27,.53,.53,1.07,.8,1.61,.55,1.07,1.09,2.15,1.64,3.23,1.1,2.14,2.18,4.24,3.14,6.18,.16-.03-.46-.84-.3-.97,1.13,2.29,2.13,4.68,3.27,6.99,.11,.25,.05,.19,.05,.26,0,.04-.03,.07-.05,.08-.01,.01-.03,.02-.04,.02-.05,.05-.04,.06-.02,.08,.03,0,.02,.08-.1,.36l-.16,.02c-.23,.86-.63,1.14-.89,1.93,.04,.06-.07,.35-.19,.62-.14-.04-.33,.85-.44,.76h0c-.07,.18-.11,.3-.21,.49-.04,.17-.26,1.03-.49,1.88-.26,.87-.43,2.03-.41,2.24l-.05,.19c-.07,.58,.04,.8,.09,.49-.02,.22-.03,.44-.04,.66v-.07l-.03,.62c-.01,.11-.08,.23-.15,.07,.05,.34,.08,.7,.06,1.03,.1-.88,.15-2.1,.54-3.23-.06,.47-.2,1.27-.18,1.73-.11,.55-.18,1.57-.25,2.39,0,.18,.18,.3,.1,.71-.11,.2,0,.46-.08,.8-.06-.39-.04-.77-.03-1.16-.14,.07-.09,.96-.13,1.27,.04,.15,0,.9,.04,1.38-.13-.21-.08,.39-.15,.67-.01,.32,.04,.53,.08,.4,.14,.1,.08-1.28,.23-.83-.07,.12-.04,.75-.03,1.09,.08,0,.06-.23,.13-.01-.02,.38,.08,.78,0,.99-.02-.07,0-.23,0-.34,0,.49-.51-2.66-.47-2.02,.07-.17,.47,2.79,.47,2.47,.04-.3,.14,.21,.17-.1l-.09-.34c.03-.42,.16-.6,.22-.45,0,.71-.53-2.01-.45-1.41l.04-.25c.05,.26,.1,.94,.02,1.21,.08,0,.1,.35,.13,.63v.1c.03,.3,.01,.71,.11,.52-.02-1.74,.78,1.14,.82-.54-.17,.71-.17-.24-.2-.98,.06-.07,.14-.4,.18-.94-.01-.46-.06-.27-.11-.36,.04-.26,.07-.75,.16-.68-.11-.36,.07-.58,.03-1.01-.05-.38-.05,.03-.1-.24l.04-1.83c.08-.18,.23-.71,.36-.32-.01,.87-.21-.33-.18,.57,.19-.39,.05,.8,.2,.96,.08-.29,.08-.87,.06-1.36l-.02,.1c-.03-.43-.08-1.29,.07-1.73,.06,.11,.12-.08,.12,.22,.01-.19,.03-.38,.06-.56-.01-.07-.02-.15-.06,0-.02-.27,.06-.53,.15-.71,.03-.02,.18-.76,.41-1.49,.22-.74,.42-1.46,.42-1.41,.16-.4,.29-.45,.38-.86-.04-.06-1.31,3.86-1.08,3.32,.15-.29,1.47-4.59,1.68-4.78,.11-.29,.24-.65,.15-.61,.23-.48,.07,.2,.27-.13,0-.01-.04,.02,0-.1l.22-.3c.07-.27,.18-.57,.31-.88l.43-1.04c-.18-.34-.36-.67-.55-.92,.17,.18,.42,.4,.76,.91l-.04,.15-.08,.11c-.01,.09-.2,.61-.13,.62,.15-.3,.28-.6,.39-.89-.15-.28-.32-.57-.51-.87-.05-.13-.08-.24-.1-.32,0,0-.01,.02-.02,.02-.04-.18-.03-.17,.03-.12,0,0,.02,.01,.03,.03,.04-.39-1.06-1.79-1.4-2.7-.16-.24-.04,0-.24-.31-.37-.92-.63-1.55-1.05-2.5-.23-.25-.27-.26-.18,.14l-.33-.71c.54,.52-.46-1.4,.11-.81-.05-.23-.26-.65-.49-1.02-.07-.01-.19-.03-.44-.52l-.44-1.14c0-.17,.14,.02,.18-.03-.53-.83-.23-.84-.66-1.65-.28-.5-.81-1.52-.94-1.48-.35-.7-.26-.74-.12-.72Z"/><path class="d" d="M134.26,160.01l.08,.02c-.26,0-.53-.06-.79-.11,.55,.4,1.25,.77,1.71-.02,.04,.43,.6,.64,.61,.53,.12-.08,.24-.14,.36-.19-.08,.03-.16,.06-.25,.1,.08-.04,.16-.07,.25-.1,.76-.32,1.57-.19,2.42-.05,.47,.07,1.74,.11,2.22,.21l.21,.03-.23-.06c.29-.13,.54-.25,.79-.34-.05-.06-.06-.12-.17-.2l.13,.03c.11-.18,.38-.19,.5-.27-.02,.09,.08,.11,.17,.12l-.04-.06c.34,.02,.73-.08,1.03-.08,.04,0,.08,.03,.1,.06l.28-.09c-.01,.12,.24,.09,.11,.18,.21-.16,.43-.08,.63-.24,.73-.06,1.5-.2,2.25-.44l-.02-.04c.26-.09,.48-.35,.81-.28,.22-.18,.55-.27,.63-.53,.27-.04,.37-.18,.63-.25-.07-.13,.25-.16,.12-.26-.18-.17-.18-.02-.34-.16v.04c-.69-.17-1.39-.25-2.1-.27-.46,.13-.97,.07-1.45,.13-.52,.08-1.07,.19-1.51,.32-.1,.04-.19-.06-.28-.11-.41,.08-.93,.07-1.38,.16h.02c-.24,.04-.43-.08-.67-.05,0,.04-.03,.04-.05,.06-.05-.16-1.38,.42-1.47,.32-.02,0-.05,.02-.08,.02-.51-.06-1.03-.37-1.46-.33-.09,.08-.19,.15-.27,.24-.08-.07-.09,.07-.18,.05-.24-.34-.37-.19-.25-.07-.19,.05-.38,.02-.55,.03l-.24,.08c-.07,.03-.1-.02-.14-.1-.17,.05-.12-.04-.3-.07-.04-.12-.45,.18-.5,.14l.03-.02c-.21-.03-.34-.26-.54-.27-.56-.1-1.17-.04-1.69-.12-.01,.12,.12-.02,.11,.15-.3-.04-.6-.22-.9-.26-.05-.04-.11-.11-.14-.15-.09-.06-.06,.05-.13,.03v-.11c-.11,.08-.14-.14-.24-.1,0,.04-.05,.05-.08,.04,.01-.12-.11,0-.09-.11h0s-.04,.01-.06-.01l-.5,.37-.02-.02c-.06,0-.09,.08-.06,.11l-.07-.02h0l-.07-.02s-.02-.07,0-.12c-.04,.04-.09,.05-.13,.03,.1,.09,.22,.21,.32,.34-.05,.03-.13-.04-.18-.03-.05-.09-.17-.17-.25-.24-.02,0-.05,.13-.09,.07-.01-.09-.05,0-.09-.08,.05-.04,.09-.01,.14,0,0-.11-.1-.09-.13-.12-.02,.03-.11-.02-.17,0,.04-.1-.04-.07-.06-.13-.04-.02-.07,.02-.06,.06-.03,.11,.14,.09,.07,.2,0-.06-.08-.05-.12-.05,0,.06,.02,.05-.01,.1-.04-.02-.1,.05-.12-.02,.01-.02,.03,0,.04,0-.06-.01,.37-.36,.29-.33,.01,.06-.38,.32-.35,.33,.03,.03-.04,.11,0,.13l.05-.07s.05,.14,.03,.18c-.08-.02,.3-.38,.22-.33l.02,.03s-.12,.06-.14,0c0,.06-.05,.08-.09,.09h-.01s-.09,0-.08,.08c.21,.02-.23,.59-.04,.66-.06-.14,.05-.13,.14-.14,0,.05,.03,.12,.09,.16,.06,0,.04-.04,.06-.08,.03,.03,.08,.07,.06,.14,.06-.08,.06,.06,.12,.04,.05-.03,0-.04,.04-.07,.07,.02,.16,.04,.22,.07,.01,.07,.06,.19,0,.29-.1-.03,.06-.16-.05-.15,.03,.16-.1,.03-.14,.14,.03,.07,.1,.08,.16,.07v-.02s.15-.03,.2,.06c-.02,.05,0,.09-.04,.1l.07,.02s.02-.03,0-.05c.04-.04,.07,0,.09,.03,0,.06,.41-.2,.4-.16,.05,0,.06,.09,.11,.04,.01-.04-.52,.14-.45,.13,.04,.07,.62-.22,.64-.11,.04,0,.09,0,.08-.07,.06,.03-.03,.11,.01,.16,0,0,0-.03,.01-.03l.04,.08c.11-.08,.25,.05,.37-.05-.04,.06-.08,.16-.16,.21v-.03s-.08,.03-.08,.09c.06,.04,.12,.04,.19,0l.03,.05v-.02s.02,.04,0,.06h0c.03,.18,.27-.07,.38,.02,.04-.02,0-.03,.05-.06,.12,.08,.2,.13,.32,.18,.05-.07,.05-.1,0-.18l.1,.03c-.1,.19,.17,.2,.06,.38,.03,.05,.08,.06,.14,.03,0-.05,.02-.12,.09-.12,.09,.07,.07,.04,.15,.11,.02,.06-.02,.09-.01,.14,.13-.07,.1,.14,.22,.14,.07-.02,.22-.02,.23-.13,.1,0,.09,.09,.08,.18Z"/><path class="d" d="M146.22,166.32h-.1c.33-.02,.68,.02,1.03,.06-.75-.37-1.64-.7-2.22,.1-.06-.42-.79-.62-.81-.51-.15,.08-.3,.14-.46,.2,.11-.03,.21-.07,.32-.11-.11,.04-.21,.07-.32,.11-.98,.33-2.04,.19-3.14,.03-.61-.08-2.27-.17-2.9-.29-.09-.02-.18-.03-.27-.04q.15,.04,.3,.08c-.38,.11-.73,.23-1.06,.3,.06,.06,.07,.12,.21,.2l-.17-.04c-.16,.18-.51,.17-.68,.25,.04-.09-.1-.11-.21-.12l.05,.06c-.45-.04-.96,.04-1.36,.03-.06,0-.1-.03-.12-.07l-.38,.07c.03-.12-.32-.11-.14-.19-.28,.15-.57,.06-.85,.21-.97,.02-2.01,.12-3.01,.33l.02,.05c-.35,.08-.66,.33-1.09,.25-.3,.17-.74,.25-.86,.51-.35,.04-.49,.17-.84,.23,.09,.13-.34,.16-.16,.25,.23,.18,.24,.03,.44,.17v-.04c.9,.19,1.81,.29,2.73,.35,.61-.11,1.28-.02,1.92-.06,.69-.05,1.43-.13,2.02-.24,.14-.04,.24,.07,.36,.13,.54-.06,1.23-.02,1.85-.09-.01,0-.02,0-.03,0,.33-.02,.57,.11,.89,.08,0-.04,.05-.04,.07-.06,.06,.17,1.87-.36,1.98-.26,.03,0,.07-.02,.1-.02,.67,.07,1.37,.4,1.94,.37,.12-.08,.27-.15,.37-.24,.1,.07,.12-.07,.24-.05,.31,.34,.49,.2,.33,.08,.26-.05,.51-.02,.74-.03,.11-.03,.21-.05,.32-.08,.09-.03,.14,.02,.19,.1,.23-.05,.16,.04,.41,.07,.06,.12,.61-.19,.68-.16l-.04,.02c.28,.02,.47,.25,.74,.26,.76,.08,1.59,0,2.3,.03,0-.12-.16,.03-.16-.14,.42,.02,.84,.17,1.26,.19,.08,.03,.17,.1,.2,.13,.13,.05,.08-.06,.18-.04v.11c.16-.09,.22,.12,.36,.08,0-.05,.06-.05,.1-.05,0,.12,.15,0,.14,.1h0s.05-.01,.09,0c.05-.04,.57-.37,.62-.42l.03,.02c.08,0,.11-.09,.06-.11h.08l.09,.02s.04,.07,.01,.12c.05-.04,.11-.06,.17-.04-.15-.07-.33-.18-.49-.3,.06-.04,.18,.02,.25,0,.08,.08,.25,.14,.39,.2,.03,0,.05-.14,.12-.08,.03,.09,.07,0,.13,.06-.06,.05-.12,.03-.19,.02,.01,.11,.16,.07,.21,.1,.02-.03,.15,0,.22-.03-.03,.1,.06,.07,.11,.12,.05,.01,.09-.03,.06-.07,.02-.11-.21-.07-.14-.19,.02,.05,.12,.04,.18,.03,0-.06-.04-.05,0-.11,.06,.01,.13-.06,.16,0-.01,.02-.04,0-.05,0,.08,0-.43,.4-.33,.37-.03-.05,.45-.37,.4-.37-.05-.03,.03-.11-.02-.13l-.06,.07c-.07-.02-.1-.13-.07-.17,.12,0-.33,.42-.23,.36l-.04-.03s.15-.08,.2-.01c0-.06,.06-.08,.1-.1h.02s.12,0,.08-.09c-.28,.01,.18-.62-.09-.66,.12,.13-.04,.14-.16,.15-.01-.05-.07-.11-.15-.15-.08,.01-.04,.05-.06,.08-.04-.03-.12-.06-.11-.13-.06,.08-.09-.05-.16-.02-.06,.04,0,.04-.04,.08-.09,0-.22-.02-.3-.04-.03-.07-.12-.18-.05-.29,.14,.01-.05,.17,.09,.15-.06-.15,.13-.04,.16-.16-.05-.07-.14-.07-.22-.05l.02,.02c-.07,.02-.21,.05-.29-.03,.02-.05-.02-.09,.04-.11h-.1s-.02,.02,0,.04c-.05,.04-.09,.02-.13-.01-.01-.06-.51,.24-.5,.2-.07,0-.09-.08-.15-.03,0,.05,.66-.2,.57-.18-.06-.06-.78,.28-.83,.18-.05,0-.11,.02-.1,.07-.09-.03,.03-.11-.04-.16,0,0,0,.03-.01,.03l-.06-.07c-.13,.09-.33-.03-.47,.09,.04-.06,.09-.17,.18-.23l.02,.03s.09-.04,.09-.09c-.09-.04-.16-.03-.25,.03-.02-.02-.04-.03-.05-.05,0,0,0,.01,0,.02-.03-.04-.03-.04-.02-.06h0c-.05-.18-.34,.09-.5,0-.05,.02,0,.03-.06,.06-.16-.07-.27-.12-.44-.15-.05,.07-.06,.1,0,.18l-.13-.02c.11-.19-.24-.18-.11-.38-.04-.04-.11-.05-.18-.02,0,.05-.02,.13-.11,.13-.12-.06-.1-.04-.2-.1-.02-.06,.01-.09,0-.14-.16,.08-.14-.14-.29-.12-.09,.02-.28,.03-.28,.14-.13,0-.13-.09-.11-.17Z"/><path class="d" d="M137.47,116.46v.15c-.02-.49,.03-1.01,.07-1.53-.18,.56-.36,1.17-.41,1.74-.02,.3-.01,.52,.06,.85,.06,.39,.24,.69,.47,.92-.42,.21-.28,1.49-.17,1.44,.14,.2,.26,.4,.37,.59-.07-.13-.14-.27-.23-.41,.08,.14,.16,.27,.23,.41,.17,.3,.28,.59,.33,.87,.05,.21,.03,.65,0,1.05-.05,.81-.14,1.63-.23,2.48-.1,.94-.16,3.47-.26,4.43l-.03,.42,.06-.46c.13,.58,.25,1.1,.34,1.61,.06-.09,.12-.11,.19-.32l-.03,.26c.18,.23,.19,.78,.28,1.03-.09-.05-.11,.15-.11,.33l.06-.07c-.01,.68,.09,1.46,.1,2.06,0,.08-.03,.15-.06,.19l.09,.57c-.13-.04-.09,.48-.18,.21,.16,.43,.09,.87,.25,1.27,.07,1.47,.21,3.02,.44,4.54l.05-.04c.09,.53,.34,1,.26,1.64,.16,.46,.25,1.12,.5,1.31,.03,.54,.15,.75,.21,1.28,.13-.13,.14,.52,.25,.26,.19-.35,.03-.37,.18-.66h-.04c.23-1.38,.33-2.77,.37-4.18-.12-.94-.06-1.95-.12-2.92-.08-1.04-.2-2.17-.34-3.06-.04-.21,.06-.37,.11-.55-.09-.82-.09-1.86-.18-2.78v.05c-.04-.49,.08-.86,.04-1.34-.04,0-.04-.07-.06-.11,.16-.09-.42-2.81-.31-2.98l-.02-.15c.07-1.01,.4-2.05,.39-2.9-.08-.19-.14-.4-.23-.56,.08-.15-.06-.18-.04-.37,.36-.45,.22-.73,.1-.49-.02-.19-.01-.38,0-.57,0-.2,.01-.47-.01-.67-.04-.19-.1-.38-.16-.55-.06-.15-.03-.24,.03-.33-.14-.36-.03-.28-.1-.66,.09-.13-.44-.83-.42-.92l.03,.05c-.08-.38,.1-.66,.09-.94l.05-.78c.01-.3,.02-.61,.02-.91,0-.6-.01-1.19,0-1.74-.12,0,.03,.24-.13,.25,.01-.64,.16-1.28,.16-1.92,.03-.12,.09-.26,.13-.31,.04-.21-.06-.12-.05-.27l.11-.02c-.1-.22,.11-.33,.06-.53-.05,0-.05-.08-.05-.16,.12,0-.02-.23,.09-.22h0s0-.08,0-.13c-.04-.08-.41-.86-.46-.94l.02-.04c0-.12-.1-.16-.12-.09v-.27s.07-.06,.13-.02c-.05-.08-.07-.17-.06-.25-.06,.23-.15,.52-.26,.76-.05-.1,0-.27,0-.38,.07-.13,.13-.39,.17-.6,0-.04-.14-.07-.09-.17,.09-.05,0-.11,.05-.2,.05,.09,.04,.19,.04,.29,.11-.02,.06-.24,.09-.32-.04-.03-.01-.23-.05-.34,.11,.05,.06-.1,.11-.17,0-.08-.04-.13-.07-.09-.11-.02-.05,.32-.17,.22,.05-.03,.02-.19,.01-.27-.06,0-.04,.06-.11,0,0-.09-.07-.19-.01-.25,.02,.02,0,.06,.01,.08,0-.12,.45,.64,.4,.48-.05,.04-.41-.67-.41-.59-.03,.08-.11-.05-.13,.03l.08,.08c-.02,.11-.12,.16-.17,.12,0-.18,.45,.47,.38,.33l-.03,.06c-.04-.06-.09-.23-.03-.3-.06,0-.09-.08-.11-.15v-.03c-.03-.07-.02-.18-.1-.12,.04,.43-.64-.24-.65,.18,.12-.18,.14,.05,.17,.23-.04,.02-.11,.11-.13,.24,.02,.11,.05,.06,.09,.08-.03,.07-.04,.19-.12,.18,.09,.08-.04,.14-.01,.25,.04,.09,.04,0,.08,.06,0,.14,0,.34-.01,.45-.06,.05-.18,.18-.28,.09,0-.21,.17,.07,.14-.15-.15,.1-.05-.19-.17-.23-.06,.07-.06,.22-.03,.34l.02-.02c.03,.1,.07,.31,0,.43-.05-.02-.09,.03-.11-.05v.15s.03,.04,.04,0c.04,.07,.02,.14,0,.19-.06,.02,.27,.76,.23,.74,0,.1-.08,.13-.02,.23,.05,0-.23-.99-.21-.85-.06,.09,.33,1.17,.23,1.24,0,.08,.02,.17,.08,.15-.02,.13-.11-.04-.16,.06,0,0,.03,0,.03,.02l-.07,.09c.1,.2-.01,.5,.11,.71-.06-.06-.17-.13-.23-.26l.03-.02s-.04-.13-.1-.13c-.03,.13-.02,.24,.04,.38-.01,.03-.03,.06-.04,.08h.02s-.04,.04-.06,.02c0,0,0,0-.01,0-.17,.09,.12,.51,.04,.75,.03,.07,.03,0,.06,.09-.06,.24-.11,.41-.14,.67,.07,.08,.1,.09,.18-.01l-.02,.19c-.19-.17-.18,.36-.37,.17-.04,.06-.05,.17-.02,.28,.05,.01,.13,.03,.13,.16-.06,.19-.04,.14-.1,.3-.06,.04-.09-.02-.14-.01,.08,.24-.14,.21-.13,.43,.02,.14,.02,.42,.13,.42,0,.19-.09,.19-.18,.17Z"/><g><path class="d" d="M141.58,141.47c.36,.38,.78,1.18,.89,1.69,.23,1.13-.23,2.45-1.08,3.22-.46,.41-1.07,.63-1.68,.73-.56,.09-1.15,.1-1.66-.14-.32-.15-.58-.39-.83-.63-.32-.3-.66-.62-.82-1.03-.44-1.11-.33-3.45,.83-4.15,1.08-.65,3.01-1.1,4.36,.31Z"/><path class="d" d="M141,145.14l-.04,.04,.35-.5c-.54,.33-.96,.31-.67,1.08-.28-.31-.61-.36-.59-.26-.04,.1-.09,.19-.16,.26,.05-.05,.09-.1,.13-.15-.04,.06-.08,.11-.13,.15-.22,.24-.6,.35-.88,.33-.14,0-.27-.05-.35-.11-.09-.06-.12-.12-.2-.23l-.49-.58c-.21-.25-.26-.42-.21-.43,0-.07,0-.13,.01-.2v-.14l-.03,.16c-.15-.15-.3-.35-.37-.56-.06,.04-.12,.05-.2,.15l.03-.12c-.19-.09-.18-.35-.24-.47,.09,.03,.11-.06,.13-.14l-.06,.03c.06-.3,.06-.66,.15-.9,.01-.03,.05-.05,.09-.05l.03-.23c.1,.07,.18-.09,.2,.03-.06-.21,.09-.24,.07-.42,.03-.02,.05-.04,.08-.07,.49-.32,1.1-.62,1.75-.81l-.02-.05c.25-.09,.53-.29,.84-.13,.28-.1,.64-.01,.87-.17,.29,.14,.48,.11,.77,.3,.03-.15,.34,.11,.3-.07-.05-.29-.16-.19-.22-.44l-.02,.04c-.63-.79-1.73-1.26-2.76-1.25-.68,.14-1.38,.23-1.99,.54-.19,.1-.36,.21-.55,.34-.62,.44-.91,1.07-1.02,1.51-.03,.16-.17,.22-.26,.33-.14,.58-.28,1.26-.2,1.87v-.03c.02,.32-.09,.57-.02,.9,.03,0,.05,.04,.07,.07-.07,.04,.04,.43,.31,.88,.37,.63,.9,.88,.88,.97l.08,.05c.2,.24,.31,.49,.54,.79,.21,.28,.57,.59,.94,.69,.18-.02,.37-.05,.5-.12,.11,.09,.15-.05,.28-.01,.33,.37,.54,.2,.36,.09,.27-.05,.53-.05,.75-.1,.1-.04,.19-.09,.29-.14,.08-.05,.14,0,.2,.06,.21-.11,.17,0,.42-.05,.11,.1,.53-.42,.6-.43l-.03,.04c.27-.13,.59-.06,.85-.29,.72-.54,1.1-1.41,1.34-2.12-.12-.04-.02,.17-.18,.13,.16-.41,.4-.83,.44-1.31,.04-.08,.1-.19,.14-.24,.04-.16-.06-.09-.05-.21l.11-.02c-.11-.17,.1-.27,.03-.44-.05,0-.06-.06-.07-.12,.12-.02-.06-.22,.05-.23h0s-.02-.06-.02-.12c-.06-.09-.58-.51-.65-.52v-.03c-.03-.07-.13-.06-.12-.01l-.04-.09h.01l-.04-.08s.04-.06,.1-.06c-.06-.03-.11-.07-.12-.13,.01,.17,0,.38-.05,.57-.06-.04-.05-.17-.1-.22,.03-.11,.01-.29,0-.43-.02-.02-.15,.03-.13-.06,.06-.08-.04-.06-.02-.15,.08,.03,.09,.1,.12,.15,.09-.07-.02-.18-.03-.24-.04,0-.09-.13-.16-.19,.11-.03,.01-.1,.02-.17-.03-.06-.09-.07-.1-.02-.1,.06,.09,.23-.05,.24,.03-.05-.05-.13-.1-.18-.05,.04,0,.06-.08,.07-.03-.06-.15-.08-.13-.15,.02,0,.04,.03,.05,.05-.05-.08,.64,.15,.53,.08-.02,.05-.63-.2-.6-.14,.02,.06-.11,.05-.08,.11h.1c.04,.08-.03,.17-.07,.18-.07-.11,.56,.02,.44-.02v.05c-.06-.01-.16-.09-.14-.17-.05,.04-.11,0-.16-.03v-.02c-.07-.02-.12-.1-.15-.01,.22,.23-.58,.28-.42,.51,.03-.17,.13-.06,.21,.02-.03,.04-.05,.12-.04,.2,.05,.05,.06,0,.1,0,0,.05,.01,.12-.05,.15,.1,0,0,.1,.06,.13,.06,.02,.03-.02,.08-.01,.03,.07,.08,.18,.1,.24-.05,.05-.12,.17-.23,.17-.04-.11,.17-.04,.09-.14-.11,.12-.09-.07-.2-.03-.04,.07,0,.13,.04,.18v-.02c.06,.04,.14,.13,.09,.22-.05,.01-.08,.05-.11,.02l.02,.07s.04,0,.04-.02c.05,.01,.05,.06,.03,.1-.04,.02,.37,.29,.33,.3,.02,.05-.06,.09,0,.13,.06-.02-.35-.43-.31-.37-.03,.05,.47,.49,.35,.57,.01,.04,.03,.09,.09,.07-.02,.07-.11,0-.16,.05,0,0,.03,0,.03,0l-.07,.05c.1,.1-.01,.26,.1,.37-.06-.03-.17-.07-.23-.14h.03s-.04-.08-.1-.07c-.04,.06-.02,.11,.03,.18l-.05,.03h.02s-.04,.02-.06,0h-.01c-.17,.02,.09,.24-.01,.35,.02,.04,.03,0,.05,.05-.08,.11-.15,.17-.22,.28,.06,.06,.08,.07,.17,.04l-.05,.08c-.16-.13-.22,.11-.38-.04-.05,.01-.08,.05-.06,.11,.04,.02,.11,.06,.09,.11-.09,.05-.06,.04-.15,.08-.06-.01-.08-.04-.12-.06,.03,.13-.16,.02-.19,.1,0,.06-.06,.16,.03,.22-.04,.07-.11,.02-.18-.04Z"/></g></svg>