<svg id="Layer_1" data-name="Layer 1" xmlns="http://www.w3.org/2000/svg" width="1.46in" height="1.46in" viewBox="0 0 105.45 105.45"><path d="M73.24,69.89V43.76a27.26,27.26,0,0,1,5.77.86l.64-2.39a29.45,29.45,0,0,0-6.41-.95V18.41h-54v54H70.76V98.5a27.28,27.28,0,0,1-5.83-.87L64.3,100a29.83,29.83,0,0,0,6.46,1v22.88h54v-54Zm-28.61,0a27,27,0,0,1,.87-5.8l-2.4-.63a30.16,30.16,0,0,0-1,6.43H21.75v-49h49v49Zm54.74,2.48a27.39,27.39,0,0,1-.88,5.85l2.39.64a29.5,29.5,0,0,0,1-6.49h18.64L73.24,119.62V72.37ZM75,121.38l47.26-47.26v47.26Z" transform="translate(-19.28 -18.41)"/><path d="M43.13,78.92a29.88,29.88,0,0,0,3,7.2l2.15-1.24a26.87,26.87,0,0,1-2.75-6.6Z" transform="translate(-19.28 -18.41)"/><path d="M93.06,49.92a30,30,0,0,0-6.2-4.73l-1.23,2.15a27.56,27.56,0,0,1,5.69,4.34Z" transform="translate(-19.28 -18.41)"/><path d="M100.85,63.28a29.68,29.68,0,0,0-3-7.19l-2.15,1.24a27.32,27.32,0,0,1,2.77,6.6Z" transform="translate(-19.28 -18.41)"/><path d="M50.9,92.3A29.75,29.75,0,0,0,57.09,97l1.23-2.15a26.89,26.89,0,0,1-5.67-4.35Z" transform="translate(-19.28 -18.41)"/><path d="M46.07,56.24l2.15,1.24a27.61,27.61,0,0,1,4.35-5.69l-1.76-1.74A30,30,0,0,0,46.07,56.24Z" transform="translate(-19.28 -18.41)"/><path d="M87,97l-1.25-2.14a27.24,27.24,0,0,1-6.6,2.74l.64,2.4A30.12,30.12,0,0,0,87,97Z" transform="translate(-19.28 -18.41)"/><path d="M97.9,86.07l-2.15-1.24a27.6,27.6,0,0,1-4.36,5.68l1.76,1.75A30.41,30.41,0,0,0,97.9,86.07Z" transform="translate(-19.28 -18.41)"/><path d="M57,45.28l1.25,2.14a27.7,27.7,0,0,1,6.6-2.76l-.65-2.39A29.52,29.52,0,0,0,57,45.28Z" transform="translate(-19.28 -18.41)"/></svg>