<svg id="Layer_1" data-name="Layer 1" xmlns="http://www.w3.org/2000/svg" width="1.92in" height="1.17in" viewBox="0 0 138.16 84.41"><path d="M140.11,101.93,121.68,83.5a27.69,27.69,0,0,0-9.48-39.56V28.2a1.46,1.46,0,0,0-1.46-1.46H85.32a1.46,1.46,0,0,0-1.46,1.46V44.67a27.84,27.84,0,0,0-8.53,8.45,1.48,1.48,0,0,0-1-.42H48.88a1.46,1.46,0,0,0-1.46,1.46v54.07H39.33V68.9a1.46,1.46,0,0,0-1.46-1.46H12.45A1.46,1.46,0,0,0,11,68.9v39.33H5a1.46,1.46,0,1,0,0,2.92H118.2a1.46,1.46,0,0,0,0-2.92h-6v-16c.62-.35,1.23-.72,1.82-1.12l18.43,18.43h0a5.33,5.33,0,0,0,3.78,1.56,5.43,5.43,0,0,0,3.88-1.62,5.36,5.36,0,0,0,0-7.6ZM86.78,29.66h22.49V42.51a27.64,27.64,0,0,0-22.49.54ZM98.63,43.31a24.81,24.81,0,1,1-24.8,24.8A24.83,24.83,0,0,1,98.63,43.31ZM83.86,91.56v16.67h-8.1V83.77A28.1,28.1,0,0,0,83.86,91.56ZM13.91,108.23V70.36H36.4v37.87Zm36.44,0V55.62H73.89a27.7,27.7,0,0,0-1,22.76,1.43,1.43,0,0,0,0,.22v29.63Zm58.92,0H86.78V93.17a27.64,27.64,0,0,0,22.49.54Zm28.72-.71a2.45,2.45,0,0,1-3.47,0h0L116.75,89.75l3.53-3.52L138,104A2.47,2.47,0,0,1,138,107.52Z" transform="translate(-3.52 -26.74)"/><path d="M102.2,76.71l-.12.06c-.23.12-5.53,2.77-9.21-2a1.46,1.46,0,1,0-2.32,1.78,9.7,9.7,0,0,0,6.82,4V84a1.46,1.46,0,0,0,2.92,0V80.36a10.75,10.75,0,0,0,3.08-1A6.31,6.31,0,0,0,107,72.93a7.18,7.18,0,0,0-5-6.09L96.1,65.1c-2.47-.73-2.79-2.1-2.78-3.35,0-2.31,1.81-3.48,5.49-3.43a5.4,5.4,0,0,1,5.35,3.52A1.46,1.46,0,0,0,107,61a8.21,8.21,0,0,0-6.67-5.5V52.23a1.46,1.46,0,0,0-2.92,0v3.22c-6.36.5-7,4.87-7,6.27,0,3.09,1.65,5.23,4.87,6.18l5.86,1.75A4.24,4.24,0,0,1,104,73.2,3.32,3.32,0,0,1,102.2,76.71Z" transform="translate(-3.52 -26.74)"/></svg>