<svg id="Layer_1" data-name="Layer 1" xmlns="http://www.w3.org/2000/svg" width="1.33in" height="1.09in" viewBox="0 0 95.49 78.21"><path d="M116.06,40h-2.44V35.46H101.27V40H89.9l-4.81-9.5H58.91L54.1,40H47.8V36.63a3.42,3.42,0,0,0-3.42-3.42H33.8a3.42,3.42,0,0,0-3.42,3.42V40H27.94a3.68,3.68,0,0,0-3.68,3.68V105a3.69,3.69,0,0,0,3.68,3.69h88.12a3.69,3.69,0,0,0,3.68-3.69V43.63A3.68,3.68,0,0,0,116.06,40Zm-12.54-2.24h7.86V40h-7.86Zm-43.23-5H83.71L87.39,40H56.61ZM32.62,36.63a1.18,1.18,0,0,1,1.18-1.17H44.38a1.17,1.17,0,0,1,1.17,1.17V40H32.62Zm-4.68,5.56h88.12a1.45,1.45,0,0,1,1.44,1.44V56.14H89.65a22.78,22.78,0,0,0-27.9,0H26.5V43.63A1.45,1.45,0,0,1,27.94,42.19Zm-1.44,48V58.38h3.88V90.22Zm6.12-31.84H43.48V90.22H32.62Zm13.1,0H59.23a22.85,22.85,0,0,0,0,31.84H45.72ZM55,74.3A20.69,20.69,0,1,1,75.7,95,20.71,20.71,0,0,1,55,74.3Zm43.63,0a22.85,22.85,0,0,0-6.46-15.92H117.5V90.22H92.17A22.82,22.82,0,0,0,98.64,74.3Zm17.42,32.11H27.94A1.44,1.44,0,0,1,26.5,105V92.47H61.76a22.77,22.77,0,0,0,27.89,0H117.5V105A1.44,1.44,0,0,1,116.06,106.41Z" transform="translate(-24.26 -30.45)"/><path d="M90.79,71.2a1.12,1.12,0,0,0,1.1.89.93.93,0,0,0,.23,0A1.13,1.13,0,0,0,93,70.75,17.69,17.69,0,0,0,75.7,56.66a1.12,1.12,0,0,0,0,2.24A15.44,15.44,0,0,1,90.79,71.2Z" transform="translate(-24.26 -30.45)"/><path d="M91.1,74.78c0,.23,0,.46,0,.69a1.11,1.11,0,0,0,1,1.2h.09a1.13,1.13,0,0,0,1.12-1c0-.26,0-.52,0-.79a1.12,1.12,0,0,0-1.09-1.15A1.15,1.15,0,0,0,91.1,74.78Z" transform="translate(-24.26 -30.45)"/><path d="M104.39,53.35h6.11a3.13,3.13,0,0,0,3.13-3.13v-1.8a3.13,3.13,0,0,0-3.13-3.12h-6.11a3.12,3.12,0,0,0-3.12,3.12v1.8A3.13,3.13,0,0,0,104.39,53.35Zm-.87-4.93a.88.88,0,0,1,.87-.88h6.11a.88.88,0,0,1,.88.88v1.8a.87.87,0,0,1-.88.88h-6.11a.87.87,0,0,1-.87-.88Z" transform="translate(-24.26 -30.45)"/><path d="M32.62,50.8a1.12,1.12,0,0,1,1.12-1.12h8.62a1.14,1.14,0,0,1,1.12,1.12v1.68h2.24V50.8a3.37,3.37,0,0,0-3.36-3.36H33.74a3.37,3.37,0,0,0-3.36,3.36v1.68h2.24Z" transform="translate(-24.26 -30.45)"/><path d="M43.48,97.79a1.13,1.13,0,0,1-1.12,1.13H33.74a1.11,1.11,0,0,1-1.12-1.13V96.12H30.38v1.67a3.38,3.38,0,0,0,3.36,3.38h8.62a3.38,3.38,0,0,0,3.36-3.38V96.12H43.48Z" transform="translate(-24.26 -30.45)"/></svg>