<svg id="Layer_1" data-name="Layer 1" xmlns="http://www.w3.org/2000/svg" width="1.57in" height="1.07in" viewBox="0 0 112.73 76.94"><path d="M122.81,97.83V33.53H22.42v64.3H16.25v4.29a8.35,8.35,0,0,0,8.35,8.35h96a8.35,8.35,0,0,0,8.35-8.35V97.83ZM25.07,36.18h95.09V97.83h-2.61v-59H27.67V97.83h-2.6Zm37.24,64.3H82.92v2.06a.29.29,0,0,1-.29.29h-20a.29.29,0,0,1-.29-.29Zm-32-2.65V41.44H114.9V97.83Zm96,4.29a5.7,5.7,0,0,1-5.7,5.7h-96a5.7,5.7,0,0,1-5.7-5.7v-1.64H59.66v2.06a2.94,2.94,0,0,0,2.94,2.94h20a3,3,0,0,0,2.94-2.94v-2.06h40.76Z" transform="translate(-16.25 -33.53)"/><path d="M96.07,52.05a3.4,3.4,0,1,0-3.13-4.72H76.36V44.91H68.87v2.42H52.29a3.4,3.4,0,1,0,0,2.65h9.43a23.52,23.52,0,1,0,21.77,0h9.45A3.4,3.4,0,0,0,96.07,52.05Zm0-4.76a1.37,1.37,0,1,1-1.36,1.36A1.36,1.36,0,0,1,96.07,47.29Zm-24.55.27h2.19v2.19H71.52ZM49.16,50a1.37,1.37,0,1,1,0-2.73,1.37,1.37,0,0,1,0,2.73ZM71.29,72a2.35,2.35,0,0,0-1,2.62A2.41,2.41,0,1,0,73.94,72V60.28l7.37,11.64-4.41,8.8H68.33l-4.41-8.8,7.37-11.64ZM68.44,83.38h8.35l.69,1.91H67.75ZM66.93,90.9l.18-3h11l.19,3a20.6,20.6,0,0,1-11.37,0ZM93.47,70.84A20.88,20.88,0,0,1,80.89,90l-.21-3.45-1.53-4.39,5.2-10.38L72.61,53.24,60.88,71.76l5.19,10.38-1.45,4L64.35,90a20.85,20.85,0,0,1,4.52-39.66V52.4h7.49V50.33A20.82,20.82,0,0,1,93.47,70.84Z" transform="translate(-16.25 -33.53)"/></svg>