<svg id="Layer_1" data-name="Layer 1" xmlns="http://www.w3.org/2000/svg" width="1.68in" height="1in" viewBox="0 0 121.01 72.23"><path d="M86.86,96.41l0-.27h.27a5.63,5.63,0,0,0,4.4-8.72A5.57,5.57,0,0,0,85,85.19,1.38,1.38,0,0,1,83.6,85l-.11-.12a6.77,6.77,0,0,1-2-5.66,17.08,17.08,0,0,0-4.14-13.73,12.71,12.71,0,0,0-9.76-4.29h-.2a15.81,15.81,0,0,0-15.5,15.51,12.76,12.76,0,0,0,4.28,10,17,17,0,0,0,13.74,4.13,7.52,7.52,0,0,1,.82,0,6.86,6.86,0,0,1,4.83,2l.12.12a1.36,1.36,0,0,1,.24,1.4,5.59,5.59,0,0,0,2.23,6.55,5.74,5.74,0,0,0,6,.09A5.67,5.67,0,0,0,86.86,96.41Zm-11.3-6.77-.2-.12a9.24,9.24,0,0,0-5.78-1.21A14.34,14.34,0,0,1,57.83,84.8a10.39,10.39,0,0,1-3.48-8.11A13.48,13.48,0,0,1,67.43,63.62a10.3,10.3,0,0,1,8.11,3.48A14.34,14.34,0,0,1,79,78.84a9.08,9.08,0,0,0,1.22,5.78l.11.2Zm7.33,9.18a3.13,3.13,0,0,1-3.38,0,3.16,3.16,0,0,1-1.26-3.69,3.8,3.8,0,0,0-.59-3.68l-.17-.21,4.43-4.44.21.17a3.83,3.83,0,0,0,3.68.6,3.13,3.13,0,0,1,3.69,1.26,3.17,3.17,0,0,1-3.71,4.72,1.22,1.22,0,0,0-1.27.29,1.24,1.24,0,0,0-.29,1.27A3.16,3.16,0,0,1,82.89,98.82Z" transform="translate(-11.68 -39.93)"/><path d="M74.53,69.37A9.69,9.69,0,0,0,67,66.08h-.11c-2.81,0-5.42,1.3-8,3.85a1.23,1.23,0,0,0,0,1.74,1.25,1.25,0,0,0,1.74,0c2.08-2.07,4.13-3.1,6.27-3.12A7.52,7.52,0,0,1,72.71,71a1.27,1.27,0,0,0,.86.4,1.23,1.23,0,0,0,.88-.32,1.29,1.29,0,0,0,.4-.86A1.23,1.23,0,0,0,74.53,69.37Z" transform="translate(-11.68 -39.93)"/><path d="M99.05,53.56a3.62,3.62,0,1,0,3.62,3.62A3.62,3.62,0,0,0,99.05,53.56Zm0,4.77a1.16,1.16,0,1,1,1.15-1.15A1.16,1.16,0,0,1,99.05,58.33Z" transform="translate(-11.68 -39.93)"/><path d="M105.36,65A3.62,3.62,0,1,0,109,68.62,3.62,3.62,0,0,0,105.36,65Zm0,4.77a1.16,1.16,0,1,1,1.15-1.15A1.16,1.16,0,0,1,105.36,69.77Z" transform="translate(-11.68 -39.93)"/><path d="M118.2,63.57a3.14,3.14,0,1,0,3.13,3.14A3.15,3.15,0,0,0,118.2,63.57Zm0,3.75a.74.74,0,0,1-.44-.14.58.58,0,0,1-.24-.47.68.68,0,1,1,1.35,0A.63.63,0,0,1,118.2,67.32Z" transform="translate(-11.68 -39.93)"/><path d="M111.52,52.77a3.38,3.38,0,1,0,3.38,3.37A3.37,3.37,0,0,0,111.52,52.77Zm0,4.29a.92.92,0,1,1,.92-.92A.92.92,0,0,1,111.52,57.06Z" transform="translate(-11.68 -39.93)"/><path d="M108.74,75.38A3.23,3.23,0,1,0,112,78.61,3.23,3.23,0,0,0,108.74,75.38Zm0,4a.77.77,0,0,1,0-1.54.77.77,0,0,1,0,1.54Z" transform="translate(-11.68 -39.93)"/><path d="M111.52,67.94a1.23,1.23,0,0,0,1.23-1.23v-1a4,4,0,0,0-4-4,1.23,1.23,0,1,0,0,2.46,1.54,1.54,0,0,1,1.55,1.55v1A1.23,1.23,0,0,0,111.52,67.94Z" transform="translate(-11.68 -39.93)"/><path d="M116.59,71.12a1.23,1.23,0,0,0-1.23,1.23v1a1.55,1.55,0,0,1-1.55,1.55,1.23,1.23,0,1,0,0,2.46,4,4,0,0,0,4-4v-1A1.23,1.23,0,0,0,116.59,71.12Z" transform="translate(-11.68 -39.93)"/><path d="M105.36,57.14a1.24,1.24,0,0,0,1.23-1.24v-1a4,4,0,0,0-4-4,1.23,1.23,0,1,0,0,2.46,1.55,1.55,0,0,1,1.55,1.55v1A1.25,1.25,0,0,0,105.36,57.14Z" transform="translate(-11.68 -39.93)"/><path d="M49.12,49a2.58,2.58,0,0,0-1.8-.76h-.23A26.79,26.79,0,0,0,39.69,50a1,1,0,0,0-.28.1l-.07,0a21.76,21.76,0,0,0-7.82,5.39,26,26,0,0,0-5.4,8.07A4.09,4.09,0,0,1,24,65.83L18,68.56a1.23,1.23,0,0,0-.73,1.09,1.26,1.26,0,0,0,.68,1.13l6.23,3.15,3.15,6.23a1.23,1.23,0,0,0,1.1.67,1.25,1.25,0,0,0,1.12-.72l2.73-6A4,4,0,0,1,34.51,72a26.37,26.37,0,0,0,8.07-5.4A21.86,21.86,0,0,0,48,58.72l.05-.09s0-.12.07-.2A26.92,26.92,0,0,0,49.86,51,2.6,2.6,0,0,0,49.12,49ZM45.2,58.91a19,19,0,0,1-4.28,5.83,24.1,24.1,0,0,1-7.29,4.92A6.47,6.47,0,0,0,30,73l-1.68,3.71-2.17-4.29a1.23,1.23,0,0,0-.54-.54l-4.3-2.18L25,68.07a6.46,6.46,0,0,0,3.38-3.62,23.93,23.93,0,0,1,4.92-7.29,19.07,19.07,0,0,1,5.83-4.28l.25-.12.14.23a16.62,16.62,0,0,0,5.53,5.53l.24.15ZM47.39,51a24.32,24.32,0,0,1-1,4.95l-.12.38-.34-.22a14.12,14.12,0,0,1-4-4l-.22-.33.38-.12a24.19,24.19,0,0,1,5-1l.36,0Z" transform="translate(-11.68 -39.93)"/><path d="M32.68,46.85a1.21,1.21,0,0,0-.93-.1,19.9,19.9,0,0,0-13.9,14.87,1.25,1.25,0,0,0,.94,1.47,1.28,1.28,0,0,0,1.47-1,17.43,17.43,0,0,1,12.17-13,1.23,1.23,0,0,0,.25-2.26Z" transform="translate(-11.68 -39.93)"/><polygon points="88.35 39.37 88.35 39.37 88.35 39.37 88.35 39.37"/><path d="M106.74,91.82a25.95,25.95,0,1,0,0-51.89A25.62,25.62,0,0,0,84.21,53.08l-.13.23-.25-.1a30.56,30.56,0,0,0-23.26.06l-.25.11-.13-.24A25.6,25.6,0,0,0,37.62,39.93,25.95,25.95,0,1,0,43,91.24l.27-.06.08.25a30.6,30.6,0,0,0,57.91,0l.08-.25.26,0A25.27,25.27,0,0,0,106.74,91.82ZM86.46,54.08a23.22,23.22,0,0,1,20.28-11.69,23.49,23.49,0,1,1,0,47,22.65,22.65,0,0,1-4.43-.45l-.31-.06.11-.49c.1-.44.19-.88.27-1.33l.07-.37c.07-.43.14-.87.19-1.31l0-.31.33,0a20,20,0,0,0,3.44.33A19.46,19.46,0,1,0,89.71,56l-.16.27-.26-.17L89,55.93l-.35-.22-.43-.28c-.48-.29-1-.58-1.47-.84l-.44-.24ZM42,77.32v.09c-.08.64-.14,1.21-.19,1.78l0,.43c0,.73-.07,1.34-.07,1.93s0,1.13,0,1.69l0,.37c0,.45.07.89.12,1.33l0,.37c.06.45.12.9.2,1.35l0,.25c.1.54.2,1,.3,1.46l.09.38-.29.13a23,23,0,0,1-4.63.48,23.49,23.49,0,0,1,0-47A23.23,23.23,0,0,1,58,54.15l.15.27-.27.15-.22.13-.2.11c-.37.21-.74.42-1.1.64l-.75.48c-.27.18-.54.36-.8.55l-.14.09-.53.38c-.45.33-.88.67-1.31,1l-.23.19-.15.14c-.37.31-.72.63-1.07,1l-.33.31A30.72,30.72,0,0,0,42,77.32Zm58.39,6,0,.43c0,.53-.1,1.06-.17,1.59l0,.2c-.09.64-.2,1.28-.34,1.89v.08c-.12.55-.27,1.12-.44,1.73a28.14,28.14,0,0,1-54.13,0c-.18-.64-.32-1.22-.45-1.79s-.24-1.25-.33-1.9l0-.21c-.07-.52-.13-1-.17-1.57l0-.42c0-.67-.06-1.26-.06-1.8s0-1.17.06-1.85l0-.39a28.47,28.47,0,0,1,6.64-16c.39-.46.8-.91,1.26-1.38l.11-.12c.39-.4.81-.8,1.28-1.22l.37-.32c.31-.27.63-.53,1-.79l.13-.1.38-.3c.41-.31.83-.61,1.25-.89l.48-.31.16-.1c.27-.18.55-.35.83-.51l.69-.4c.45-.24.9-.48,1.37-.7a28,28,0,0,1,24.16-.07c.5.24,1,.49,1.48.75l.35.21.17.09c.34.2.68.4,1,.62l.07,0,.49.31c.44.3.88.61,1.31.93l.27.21.16.13c.33.26.66.53,1,.81l.07.06c.12.09.23.19.34.29.48.43.9.82,1.27,1.2l.06.06c.46.47.86.91,1.24,1.35l.11.13a28.28,28.28,0,0,1,6.45,14.16l0,.12c.07.52.13,1.07.18,1.7l0,.43c0,.68.06,1.29.06,1.85S100.4,82.68,100.36,83.35ZM91.74,57.92l-.2-.16.13-.21a17,17,0,1,1,14.78,25.31,16.58,16.58,0,0,1-3.33-.34l-.25,0v-.25c0-.22,0-.45,0-.67,0-.55,0-1.1,0-1.64l-.08-1c0-.19,0-.38,0-.56s-.07-.56-.11-.84v-.08l.28-.16h0l-.29,0-.07-.5c-.07-.44-.15-.88-.24-1.31l0-.15A30.12,30.12,0,0,0,91.74,57.92Z" transform="translate(-11.68 -39.93)"/></svg>