<svg id="Layer_1" data-name="Layer 1" xmlns="http://www.w3.org/2000/svg" width="0.89in" height="1.5in" viewBox="0 0 64.39 107.79"><path d="M95.79,18.1H48.21a8.41,8.41,0,0,0-8.4,8.4v91a8.41,8.41,0,0,0,8.4,8.4H95.79a8.41,8.41,0,0,0,8.4-8.4v-91A8.41,8.41,0,0,0,95.79,18.1ZM84.33,20.9V26H59.67V20.9Zm17.06,96.6a5.6,5.6,0,0,1-5.6,5.6H48.21a5.6,5.6,0,0,1-5.6-5.6v-91a5.6,5.6,0,0,1,5.6-5.6h8.66V26a2.81,2.81,0,0,0,2.8,2.8H84.33a2.81,2.81,0,0,0,2.8-2.8V20.9h8.66a5.6,5.6,0,0,1,5.6,5.6Z" transform="translate(-39.81 -18.1)"/><path d="M98.34,29.77a1.4,1.4,0,0,0-1.4,1.4v85.35a2.68,2.68,0,0,1-2.68,2.68H49.74a2.68,2.68,0,0,1-2.68-2.68V31.17a1.4,1.4,0,0,0-2.8,0v85.35A5.49,5.49,0,0,0,49.74,122H94.26a5.49,5.49,0,0,0,5.48-5.48V31.17A1.4,1.4,0,0,0,98.34,29.77Z" transform="translate(-39.81 -18.1)"/><path d="M51.68,59.5a7.33,7.33,0,0,0,7.14,5.75H85.18a7.33,7.33,0,0,0,7.14-5.75A8.13,8.13,0,0,0,87,45.18H57A8.13,8.13,0,0,0,51.68,59.5Zm2.63-1.57a4.51,4.51,0,0,1,4.51-4.51h8.4v9h-8.4A4.52,4.52,0,0,1,54.31,57.93ZM77,48h5.91v2.64H77Zm8.15,14.47H77v-9h8.15a4.52,4.52,0,0,1,0,9Zm7.2-9.12a5.23,5.23,0,0,1-.38,2l0-.08a8.32,8.32,0,0,0-.41-.85c0-.06-.07-.11-.1-.16a8.27,8.27,0,0,0-.46-.69l-.12-.15a7,7,0,0,0-.63-.7l-.15-.13a5.56,5.56,0,0,0-.66-.54l-.12-.09a7.4,7.4,0,0,0-.82-.49l-.19-.09a7.76,7.76,0,0,0-.84-.34l-.09,0a7.73,7.73,0,0,0-.95-.23l-.24,0-.45,0V48H87A5.36,5.36,0,0,1,92.38,53.33ZM74.23,52V62.45H70V48h4.21Zm-7-1.4H61.53V48h5.69ZM57,48h1.76v2.64a6.86,6.86,0,0,0-.92.07l-.24,0a7.73,7.73,0,0,0-1,.23l-.09,0a7.76,7.76,0,0,0-.84.34l-.19.09a7.4,7.4,0,0,0-.82.49l-.12.09a5.56,5.56,0,0,0-.66.54l-.15.13a7,7,0,0,0-.63.7l-.12.15a8.27,8.27,0,0,0-.46.69s-.07.1-.1.16a8.32,8.32,0,0,0-.41.85l0,.08a5.23,5.23,0,0,1-.38-2A5.36,5.36,0,0,1,57,48Z" transform="translate(-39.81 -18.1)"/><path d="M58.07,56.76a1.46,1.46,0,0,0-1.43,1.38l0,1.18A1.42,1.42,0,0,0,58,60.75a1.4,1.4,0,0,0,1.4-1.38l0-1.18A1.4,1.4,0,0,0,58.07,56.76Z" transform="translate(-39.81 -18.1)"/><path d="M82.32,55.76a1.39,1.39,0,0,0-1.4-1.4H79.77a1.4,1.4,0,1,0,0,2.8h1.15A1.4,1.4,0,0,0,82.32,55.76Z" transform="translate(-39.81 -18.1)"/><path d="M86.22,56a1.39,1.39,0,0,0-1.4,1.4v1.15a1.4,1.4,0,1,0,2.8,0V57.36A1.4,1.4,0,0,0,86.22,56Z" transform="translate(-39.81 -18.1)"/><path d="M82.07,58.08a1.4,1.4,0,0,0-1.4,1.4v1.15a1.4,1.4,0,0,0,2.8,0V59.48A1.4,1.4,0,0,0,82.07,58.08Z" transform="translate(-39.81 -18.1)"/><path d="M64.13,58.27a1.4,1.4,0,0,0-1.4,1.4v1.16a1.4,1.4,0,1,0,2.8,0V59.67A1.4,1.4,0,0,0,64.13,58.27Z" transform="translate(-39.81 -18.1)"/><path d="M64.13,54.36H63a1.4,1.4,0,0,0,0,2.8h1.15a1.4,1.4,0,1,0,0-2.8Z" transform="translate(-39.81 -18.1)"/><path d="M81.42,83.73H62.83a6.82,6.82,0,0,0,0,13.64H81.42a6.82,6.82,0,0,0,0-13.64Zm0,10.84H62.83a4,4,0,0,1,0-8H81.42a4,4,0,0,1,0,8Z" transform="translate(-39.81 -18.1)"/><path d="M87.08,70.6H57.17a1.4,1.4,0,1,0,0,2.8H87.08a1.4,1.4,0,0,0,0-2.8Z" transform="translate(-39.81 -18.1)"/></svg>