<svg id="Layer_1" data-name="Layer 1" xmlns="http://www.w3.org/2000/svg" width="1.31in" height="1.43in" viewBox="0 0 94.34 102.82"><path d="M117.5,69.86l-9.33-16.2a1.57,1.57,0,1,0-2.72,1.57l9.33,16.2c2.87,5,3.36,9.58,1.4,13s-6.2,5.26-11.94,5.25l-14.44,0L96,84.93a1.57,1.57,0,1,0-1.91-2.49l-11.4,8.68,11.39,8.7a1.52,1.52,0,0,0,1,.33A1.57,1.57,0,0,0,96,97.33l-6-4.56,14.24,0c6.9,0,12.11-2.42,14.66-6.82S121,75.85,117.5,69.86Z" transform="translate(-26.17 -21.19)"/><path d="M93,32l7.21,12.52-7.16-3a1.57,1.57,0,1,0-1.21,2.89L105,50l1.85-14.21A1.57,1.57,0,0,0,105.53,34a1.56,1.56,0,0,0-1.75,1.35l-1,7.45L95.7,30.48c-3.45-6-8.15-9.29-13.23-9.29s-9.8,3.28-13.26,9.26L59.85,46.63a1.57,1.57,0,0,0,.57,2.14,1.51,1.51,0,0,0,.78.22,1.58,1.58,0,0,0,1.37-.79L71.93,32c2.87-5,6.62-7.7,10.53-7.69S90.12,27.07,93,32Z" transform="translate(-26.17 -21.19)"/><path d="M74.68,84.59c-.62-1-1.3-2.16-2.06-3.45a43.65,43.65,0,0,1-4.92-13.8c-.69-3.13-1.28-5.82-2.6-8.15-1.7-3-4.87-4.75-9.34-5.29l-.44-.06a32.32,32.32,0,0,0-10-24.37,1.57,1.57,0,1,0-2.17,2.27,29.22,29.22,0,0,1,9,22.05.62.62,0,0,0,0,.13c-4.45.56-7.56,2.33-9.24,5.25-1.33,2.32-1.93,5-2.62,8.14-.91,4.09-1.94,8.72-5,13.79-.76,1.28-1.44,2.41-2.06,3.44-3.22,5.32-4.83,8-6.41,14.25-2.62,10.42,1.69,19.63,11,23.44A21.17,21.17,0,0,0,54,122.11,19.23,19.23,0,0,0,62.34,124a17.06,17.06,0,0,0,7.8-1.79c9.43-4.81,13.41-13.32,10.91-23.36C79.5,92.59,77.89,89.92,74.68,84.59Zm-6,34.82A15.46,15.46,0,0,1,54.8,119l-.84-.52-.83.52c-2.47,1.55-8.72,2.53-14,.35-7.88-3.24-11.38-10.82-9.13-19.78,1.46-5.8,2.9-8.18,6-13.39.63-1,1.32-2.17,2.08-3.46A46.84,46.84,0,0,0,43.4,68a26.54,26.54,0,0,1,2.29-7.26q1.76-3.09,7.15-3.74A7.57,7.57,0,0,1,54,56.88h.14a7.26,7.26,0,0,1,1.2.13c3.52.42,5.89,1.68,7.07,3.74A26.56,26.56,0,0,1,64.64,68a46.77,46.77,0,0,0,5.28,14.73c.76,1.29,1.45,2.44,2.07,3.47,3.14,5.22,4.57,7.6,6,13.39h0C80.15,108.23,76.85,115.27,68.71,119.41Z" transform="translate(-26.17 -21.19)"/><path d="M39.7,54.59a9.12,9.12,0,0,0,2.18.28A11.46,11.46,0,0,0,48,52.74,10.1,10.1,0,0,1,49.37,52a1.59,1.59,0,0,0,1-1.56c-.38-5.26-3-8.69-7.27-9.64a11.85,11.85,0,0,0-6.85.87c-2.46.87-3.3,1.08-4.45-.51,0,0,0,0,0,0l-.06,0a1.55,1.55,0,0,0-2.76,1.08A14,14,0,0,0,39.7,54.59Zm.75-3a11,11,0,0,1-5.36-3,12.51,12.51,0,0,0,4.65.58,11,11,0,0,1,6.13,1.23A6.68,6.68,0,0,1,40.45,51.55Zm-3.2-7a9.09,9.09,0,0,1,5.12-.76,5.45,5.45,0,0,1,4,3.3A14.42,14.42,0,0,0,39.57,46a8.48,8.48,0,0,1-4.33-.78A18.93,18.93,0,0,0,37.25,44.59Z" transform="translate(-26.17 -21.19)"/><path d="M74.78,100.61a1.57,1.57,0,0,0-1.57,1.56,12.71,12.71,0,0,1-12.7,12.68,1.57,1.57,0,1,0,0,3.13,15.84,15.84,0,0,0,15.84-15.8A1.57,1.57,0,0,0,74.78,100.61Z" transform="translate(-26.17 -21.19)"/></svg>