<svg id="Layer_1" data-name="Layer 1" xmlns="http://www.w3.org/2000/svg" width="1.72in" height="1.75in" viewBox="0 0 124.19 126.03"><path d="M120.29,46.19h-25c-.33,0-.66,0-1,0h-26a12,12,0,0,0-3,.4V10.41A1.42,1.42,0,0,0,63.81,9H14.09a1.42,1.42,0,0,0-1.43,1.42v2.84H9.49a1.43,1.43,0,1,0,0,2.85h3.17v6.65H9.49a1.43,1.43,0,1,0,0,2.85h3.17v6.65H9.49a1.43,1.43,0,1,0,0,2.85h3.17v6.65H9.49a1.43,1.43,0,1,0,0,2.85h3.17v6.65H9.49a1.43,1.43,0,1,0,0,2.85h3.17v6.65H9.49a1.43,1.43,0,1,0,0,2.85h3.17v6.65H9.49a1.43,1.43,0,1,0,0,2.85h3.17v2.84a1.42,1.42,0,0,0,1.43,1.42H56.3v8a6.79,6.79,0,0,0,7.45,6.76,6.5,6.5,0,0,0,2.89-1v35.71a8.12,8.12,0,0,0,14.63,4.86,8.11,8.11,0,0,0,13,0,8.11,8.11,0,0,0,13,0,8.12,8.12,0,0,0,14.62-4.86V91.18a6.5,6.5,0,0,0,2.89,1,6.78,6.78,0,0,0,7.45-6.76V58.15A12,12,0,0,0,120.29,46.19ZM15.51,74.52V11.83H62.39V47.69A12,12,0,0,0,56.3,58.1V74.52Zm78.77-9.71a1.62,1.62,0,0,0-1.62,1.62V85.14s0,0,0,0v41.66a4.88,4.88,0,0,1-9.76,0V95a1.62,1.62,0,0,0-3.24,0v31.88a4.89,4.89,0,0,1-9.77,0V66.48a1.62,1.62,0,1,0-3.24,0V85.16a3.7,3.7,0,0,1-3.2,3.76,3.55,3.55,0,0,1-3.9-3.54V58.1a8.73,8.73,0,0,1,8.72-8.72h26c.29,0,.57,0,.85,0A8.67,8.67,0,0,1,103,58.1V85.38a3.55,3.55,0,0,1-3.9,3.54,3.3,3.3,0,0,1-.64-.13,3.78,3.78,0,0,1-2.55-3.58V66.43A1.62,1.62,0,0,0,94.28,64.81ZM129,85.43a3.55,3.55,0,0,1-3.9,3.54,3.71,3.71,0,0,1-3.2-3.75V66.48a1.62,1.62,0,1,0-3.24,0v60.41a4.88,4.88,0,0,1-9.76,0V95.44a1.62,1.62,0,1,0-3.24,0v31.45a4.89,4.89,0,0,1-9.77,0V91.16l.17.09a6.48,6.48,0,0,0,2.71.89,6.78,6.78,0,0,0,7.45-6.76V58.1a12.1,12.1,0,0,0-.06-1.21c0-.13,0-.26,0-.39S106,56,106,55.72s-.07-.3-.1-.44-.12-.47-.19-.7a4,4,0,0,0-.15-.45c-.07-.21-.15-.43-.24-.64s-.13-.29-.19-.43l-.3-.62-.23-.4c-.12-.2-.24-.39-.37-.58l-.25-.38c-.14-.19-.29-.37-.44-.55l-.27-.34c-.16-.18-.34-.36-.51-.53l-.21-.23h17.75A8.73,8.73,0,0,1,129,58.15Z" transform="translate(-8.06 -8.99)"/><path d="M107.29,42.39A10.36,10.36,0,1,0,96.93,32,10.37,10.37,0,0,0,107.29,42.39Zm0-17.47A7.12,7.12,0,1,1,100.17,32,7.12,7.12,0,0,1,107.29,24.92Z" transform="translate(-8.06 -8.99)"/><path d="M81.27,42.34A10.36,10.36,0,1,0,70.91,32,10.36,10.36,0,0,0,81.27,42.34Zm0-17.47A7.12,7.12,0,1,1,74.15,32,7.12,7.12,0,0,1,81.27,24.87Z" transform="translate(-8.06 -8.99)"/><path d="M48.15,49.23H29.75a1.43,1.43,0,1,0,0,2.85h18.4a1.43,1.43,0,0,0,0-2.85Z" transform="translate(-8.06 -8.99)"/><path d="M48.15,59H29.75a1.43,1.43,0,1,0,0,2.85h18.4a1.43,1.43,0,0,0,0-2.85Z" transform="translate(-8.06 -8.99)"/></svg>