<?xml version="1.0" encoding="utf-8"?>
<!-- Generator: Adobe Illustrator 26.0.1, SVG Export Plug-In . SVG Version: 6.00 Build 0)  -->
<svg version="1.1" id="Layer_1" xmlns="http://www.w3.org/2000/svg" xmlns:xlink="http://www.w3.org/1999/xlink" x="0px" y="0px"
	 viewBox="0 0 144 144" style="enable-background:new 0 0 144 144;" xml:space="preserve">
<g>
	<path d="M64.06,73.22c-0.13,0-0.26-0.01-0.39-0.02c-2.23-0.2-3.92-2.17-3.86-4.48l0.57-20.76c0.02-0.76-0.35-1.46-0.97-1.82
		c-1.56-0.91-2.53-2.6-2.53-4.42V31.61c0-0.83,0.68-1.51,1.51-1.51s1.51,0.68,1.51,1.51v10.12c0,0.74,0.4,1.44,1.03,1.81
		c1.58,0.92,2.52,2.65,2.47,4.51L62.83,68.8c-0.02,0.71,0.48,1.34,1.12,1.39c0.36,0.03,0.71-0.08,0.97-0.33
		c0.26-0.25,0.4-0.58,0.39-0.94l-0.57-20.88c-0.05-1.86,0.9-3.59,2.47-4.51c0.64-0.37,1.03-1.06,1.03-1.81V31.61
		c0-0.83,0.68-1.51,1.51-1.51c0.83,0,1.51,0.68,1.51,1.51v10.12c0,1.81-0.97,3.51-2.53,4.42c-0.62,0.36-0.99,1.06-0.97,1.82
		l0.57,20.88c0.03,1.22-0.46,2.39-1.34,3.22C66.19,72.81,65.14,73.22,64.06,73.22z"/>
	<path d="M79.84,73.22c-0.13,0-0.26-0.01-0.4-0.02c-2.26-0.21-3.99-2.21-3.92-4.56l0.61-22.38c0.01-0.43-0.17-0.84-0.5-1.12
		c-1.92-1.66-3.07-4.38-3.07-7.27c0-4.91,3.27-8.91,7.28-8.91s7.28,4,7.28,8.91c0,2.89-1.15,5.61-3.07,7.27
		c-0.33,0.28-0.51,0.69-0.5,1.12l0.61,22.5c0.03,1.24-0.46,2.43-1.37,3.28C82.01,72.8,80.94,73.22,79.84,73.22z M79.85,31.98
		c-2.31,0-4.27,2.7-4.27,5.89c0,2.03,0.76,3.9,2.03,4.99c1.01,0.88,1.57,2.15,1.54,3.48l-0.61,22.38c-0.02,0.75,0.51,1.41,1.18,1.47
		c0.38,0.03,0.75-0.09,1.03-0.35c0.28-0.26,0.43-0.61,0.42-1l-0.61-22.5c-0.04-1.34,0.52-2.61,1.54-3.48
		c1.27-1.1,2.03-2.96,2.03-4.99C84.11,34.68,82.16,31.98,79.85,31.98z"/>
	<path d="M64.07,41.77c-0.83,0-1.51-0.68-1.51-1.51v-8.65c0-0.83,0.68-1.51,1.51-1.51c0.83,0,1.51,0.68,1.51,1.51v8.65
		C65.58,41.09,64.9,41.77,64.07,41.77z"/>
	<path d="M88.68,67.9c-0.38,0-0.75-0.14-1.05-0.42c-0.6-0.58-0.62-1.53-0.04-2.13c3.71-3.85,5.76-8.91,5.76-14.26
		c0-4.27-1.3-8.36-3.75-11.83c-0.48-0.68-0.32-1.62,0.36-2.1c0.68-0.48,1.62-0.32,2.1,0.36c2.81,3.98,4.3,8.68,4.3,13.57
		c0,6.13-2.35,11.94-6.6,16.35C89.47,67.75,89.08,67.9,88.68,67.9z"/>
	<path d="M72,80.82c-16.64,0-30.17-13.53-30.17-30.17c0-16.64,13.53-30.17,30.17-30.17s30.17,13.53,30.17,30.17
		C102.17,67.29,88.64,80.82,72,80.82z M72,23.5c-14.97,0-27.15,12.18-27.15,27.16c0,14.97,12.18,27.15,27.15,27.15
		s27.15-12.18,27.15-27.15C99.15,35.68,86.97,23.5,72,23.5z"/>
	<path d="M72,131.49c-0.57,0-1.08-0.32-1.34-0.82L38.93,68.8c-5.96-11.62-5.57-25.32,1.04-36.64c6.42-11.01,17.78-17.89,30.37-18.4
		c1.1-0.04,2.22-0.04,3.33,0c12.59,0.51,23.94,7.39,30.37,18.4c6.61,11.32,7,25.02,1.04,36.64l-31.73,61.86
		C73.08,131.17,72.57,131.49,72,131.49z M72,16.75c-0.52,0-1.03,0.01-1.54,0.03c-11.56,0.47-21.98,6.79-27.88,16.9
		c-6.09,10.43-6.44,23.05-0.96,33.74L72,126.67l30.38-59.25c5.49-10.7,5.13-23.31-0.96-33.74c-5.9-10.12-16.33-16.44-27.88-16.9
		C73.03,16.76,72.52,16.75,72,16.75z"/>
	<path d="M104.42,131.49H39.58c-0.83,0-1.51-0.68-1.51-1.51c0-0.83,0.68-1.51,1.51-1.51h64.85c0.83,0,1.51,0.68,1.51,1.51
		C105.93,130.81,105.26,131.49,104.42,131.49z"/>
</g>
</svg>
