<svg id="Layer_1" data-name="Layer 1" xmlns="http://www.w3.org/2000/svg" width="1.69in" height="1.32in" viewBox="0 0 121.88 95.16"><path d="M126.91,104.35h-.61a45.57,45.57,0,0,0-.69-6.55v0a1.27,1.27,0,0,0-.06-.28A45.66,45.66,0,0,0,87.32,60.81a8.21,8.21,0,0,0,.77-3.45c0-4.39-3.28-8-7.32-8s-7.31,3.56-7.31,8a8.44,8.44,0,0,0,.74,3.42,45.39,45.39,0,0,0-16.74,5.91A1.54,1.54,0,0,0,59,69.33a42.47,42.47,0,0,1,18.33-5.82l1-.07c.8,0,1.59-.08,2.39-.08a42.6,42.6,0,0,1,41.41,32.86H72.36a1.54,1.54,0,0,0,0,3.08h50.39a42.14,42.14,0,0,1,.52,5h-85A42.56,42.56,0,0,1,48.46,78.24a1.54,1.54,0,1,0-2.33-2,45.5,45.5,0,0,0-10.89,28.11h-.61a7,7,0,1,0,0,13.92h92.28a7,7,0,0,0,0-13.92Zm-50.38-47c0-2.69,1.9-4.88,4.24-4.88S85,54.67,85,57.36a5.18,5.18,0,0,1-1,3c-1.26-.09-2.44-.12-3.63-.11-1,0-2,0-2.94.11A5.19,5.19,0,0,1,76.53,57.36Zm50.38,57.84H34.63a3.89,3.89,0,0,1,0-7.77h92.28a3.89,3.89,0,1,1,0,7.77Z" transform="translate(-11.99 -23.11)"/><path d="M24,101.84q-.3,0-.6,0a6.71,6.71,0,0,1-6-7l1-38.08A4.94,4.94,0,0,0,16,52.34a8.15,8.15,0,0,1-4-7V26.75A3.64,3.64,0,0,1,13.27,24a3.6,3.6,0,0,1,3-.82,3.73,3.73,0,0,1,3,3.7V42.28a.61.61,0,0,0,.21.47.65.65,0,0,0,.5.13.7.7,0,0,0,.5-.71V26.6a3.49,3.49,0,1,1,7,0V42.28a.61.61,0,0,0,.22.47.59.59,0,0,0,.5.13.69.69,0,0,0,.49-.71V26.86a3.73,3.73,0,0,1,3-3.7,3.64,3.64,0,0,1,4.24,3.59V45.31a8.16,8.16,0,0,1-4,7,5,5,0,0,0-2.39,4.43l1,38.3a6.59,6.59,0,0,1-6.6,6.77ZM15.63,26.19a.55.55,0,0,0-.37.13.56.56,0,0,0-.2.43V45.31a5,5,0,0,0,2.51,4.37,8,8,0,0,1,3.92,7.18l-1,38.08a3.68,3.68,0,0,0,3.17,3.81,3.52,3.52,0,0,0,3.85-3.6L26.43,56.86a8,8,0,0,1,3.93-7.18,5.08,5.08,0,0,0,2.51-4.37V26.75a.56.56,0,0,0-.2-.43.58.58,0,0,0-.47-.13.66.66,0,0,0-.46.67V42.17a3.78,3.78,0,0,1-3.08,3.75,3.68,3.68,0,0,1-4.28-3.64V26.6c0-.46-.83-.46-.83,0V42.17a3.76,3.76,0,0,1-3.07,3.74,3.68,3.68,0,0,1-4.29-3.63V26.86a.67.67,0,0,0-.46-.67Z" transform="translate(-11.99 -23.11)"/><path d="M52.9,101.84c-.21,0-.41,0-.62,0a6.85,6.85,0,0,1-6.08-7.1l1.12-41a3.85,3.85,0,0,0-1.34-3,16.49,16.49,0,0,1-5.2-12.41c0-8.34,5.44-15.12,12.13-15.12S65,29.89,65,38.23a16.45,16.45,0,0,1-5.2,12.41,3.85,3.85,0,0,0-1.34,3l1.13,41.28a6.72,6.72,0,0,1-6.73,6.9Zm0-75.66c-5,0-9,5.41-9,12A13.32,13.32,0,0,0,48,48.31a6.9,6.9,0,0,1,2.39,5.43L49.27,94.8a3.82,3.82,0,0,0,3.29,4,3.6,3.6,0,0,0,2.84-1A3.64,3.64,0,0,0,56.55,95L55.43,53.74a6.9,6.9,0,0,1,2.39-5.42A13.37,13.37,0,0,0,62,38.23C62,31.59,57.9,26.18,52.91,26.18Z" transform="translate(-11.99 -23.11)"/></svg>