<svg id="Layer_1" data-name="Layer 1" xmlns="http://www.w3.org/2000/svg" width="1.38in" height="1.39in" viewBox="0 0 99.65 100.24"><path d="M125.56,68.91a14.45,14.45,0,0,0-8.89-13.33V42.47a8.78,8.78,0,0,0-8.77-8.76H76.37V18.88H43.53V33.71H34.67a8.76,8.76,0,0,0-8.75,8.76V96.74a8.76,8.76,0,0,0,8.75,8.77h23.7l-7.53,13.61H89.29l-7.53-13.61H107.9a8.78,8.78,0,0,0,8.77-8.77V82.25A14.47,14.47,0,0,0,125.56,68.91ZM45.89,21.24H74V33.71H45.89ZM34.67,36.07H107.9a6.41,6.41,0,0,1,6.41,6.4v1.46h-86V42.47A6.41,6.41,0,0,1,34.67,36.07Zm20.17,80.69,15.23-27.5,15.22,27.5Zm59.47-20a6.43,6.43,0,0,1-6.41,6.42H80.45L70.07,84.39,59.68,103.16h-25a6.42,6.42,0,0,1-6.4-6.42V46.28h86v8.55a14.67,14.67,0,0,0-3.2-.37,14.46,14.46,0,0,0,0,28.91,14.67,14.67,0,0,0,3.2-.37ZM111.11,81a12.1,12.1,0,1,1,12.1-12.1A12.11,12.11,0,0,1,111.11,81Z" transform="translate(-25.92 -18.88)"/><rect x="78.5" y="19.94" width="3.63" height="2.36"/><rect x="70.89" y="19.94" width="3.83" height="2.36"/><rect x="63.47" y="19.94" width="3.62" height="2.36"/><path d="M56.17,59.34a1.18,1.18,0,0,0-1.65.22L48.73,67.2l5.79,7.65a1.19,1.19,0,0,0,.94.46,1.11,1.11,0,0,0,.71-.24,1.18,1.18,0,0,0,.23-1.65L51.69,67.2,56.4,61A1.18,1.18,0,0,0,56.17,59.34Z" transform="translate(-25.92 -18.88)"/><path d="M76,59.34A1.18,1.18,0,0,0,75.75,61l4.71,6.21-4.71,6.22A1.18,1.18,0,0,0,76,75.07a1.15,1.15,0,0,0,.71.24,1.18,1.18,0,0,0,.94-.46l5.8-7.65-5.8-7.64A1.17,1.17,0,0,0,76,59.34Z" transform="translate(-25.92 -18.88)"/><path d="M71,59.28a1.18,1.18,0,0,0-1.63.37L60.74,73.51a1.18,1.18,0,0,0,1,1.8,1.15,1.15,0,0,0,1-.55L71.41,60.9A1.17,1.17,0,0,0,71,59.28Z" transform="translate(-25.92 -18.88)"/><rect x="16.37" y="31.97" width="11.52" height="2.36"/><rect x="9.36" y="31.97" width="2.72" height="2.36"/><rect x="21.9" y="67.26" width="2.72" height="2.36"/><rect x="9.36" y="67.26" width="8.25" height="2.36"/><rect x="9.36" y="74.79" width="21.15" height="2.36"/><rect x="60.24" y="67.26" width="15.37" height="2.36"/><rect x="60.24" y="74.79" width="21.15" height="2.36"/><rect x="62.58" y="31.97" width="8.8" height="2.36"/></svg>