<svg id="Layer_1" data-name="Layer 1" xmlns="http://www.w3.org/2000/svg" width="724.69" height="723.38" viewBox="0 0 724.69 723.38"><defs><style>.cls-1{fill:none;stroke:#000;stroke-linecap:round;stroke-miterlimit:10;stroke-width:15px;}</style></defs><path class="cls-1" d="M408.86,456l-.09,132c0,31,54.66,30.61,54.36-.47l-1-82.08-1.29-151.74m1.47,86.93c7.62,21.91,19.06,24.67,27.12,19.65,13.28-8.26,8.65-25.56,8.1-39.21l-4.13-103.34c-1.37-34.41-163.52-31.85-168.76-.35-4.3,19.51-4.9,64.05-5.38,97.66-.24,16.39-5.82,50,17.07,47.36,6.6-.47,13.81-6.43,19.14-21.77m1.47-86.93-1.29,151.74-1,82.08c-.3,31.08,54.18,31.54,54.16.47m-1.13-411.36c22,0,39.77,19.46,39.77,43.47,0,16.22-8.13,30.37-20.18,37.84a37.08,37.08,0,0,1-20.15,6c-22,0-39.77-19.47-39.77-43.48,0-16.22,8.13-30.36,20.17-37.83a37,37,0,0,1,20.16-6ZM273.34,482.86l-.08,107.54c0,27.84,50.41,27.44,50.13-.42l-.91-72.46-.19-12.64m-43-176.82c-38.07-.17-77.67,7.5-80.09,22-3.85,17.48-4.37,42-4.82,72.1-.21,14.7-5.21,44.79,15.3,42.45,5.92-.42,12.38-5.76,17.16-19.51m1.32-63.61-1.15,136L226.12,590c-.27,27.86,47.15,28.27,47.14.42m.39-368.74c19.69,0,35.65,17.45,35.65,39,0,14.54-7.28,27.22-18.08,33.92a33.22,33.22,0,0,1-18.06,5.37c-19.69,0-35.65-17.45-35.65-39,0-14.53,7.28-27.21,18.07-33.91a33.25,33.25,0,0,1,18.07-5.37ZM541.5,482.86l-.08,107.54c0,27.84,50.41,27.44,50.14-.42l-.91-72.46-1.16-136m1.32,60.4c6.83,19.64,17.08,22.11,24.31,17.61,11.91-7.41,7.87-22.91,7.26-35.15l-3.7-74c-.86-17.16-46.09-24.07-86.92-21.94m-36.12,179-.44,10.07L494.29,590c-.28,27.86,47.15,28.27,47.13.42m.4-368.74c19.68,0,35.65,17.45,35.65,39,0,14.54-7.29,27.22-18.09,33.92a33.17,33.17,0,0,1-18.06,5.37c-19.69,0-35.65-17.45-35.65-39,0-14.53,7.28-27.21,18.08-33.91a33.2,33.2,0,0,1,18.07-5.37Z" transform="translate(-47.39 -49.29)"/><path class="cls-1" d="M286.12,116.26S114,175.46,91.32,383.49" transform="translate(-47.39 -49.29)"/><path class="cls-1" d="M112,527.39s48.21,149.19,219.87,193.67" transform="translate(-47.39 -49.29)"/><path class="cls-1" d="M576.39,723.55c77.52-39.26,124.08-110.78,124.08-110.78s111.28-143.93,40.62-324.94" transform="translate(-47.39 -49.29)"/><path class="cls-1" d="M409.7,56.94s-151-9.27-263.93,118c0,0-157.16,162-58.14,383.46" transform="translate(-47.39 -49.29)"/><path class="cls-1" d="M143.82,644.94s92,119.67,265.88,120.23" transform="translate(-47.39 -49.29)"/><path class="cls-1" d="M674.38,231.93S759.05,343.55,719,491.63" transform="translate(-47.39 -49.29)"/><path class="cls-1" d="M704.92,533.58s-21.84,57.67-68,102.22" transform="translate(-47.39 -49.29)"/><path class="cls-1" d="M495.1,67.31S567.59,81.4,632,135.4" transform="translate(-47.39 -49.29)"/><path class="cls-1" d="M385,92.43a336.15,336.15,0,0,1,59.93,1" transform="translate(-47.39 -49.29)"/></svg>