<svg id="Layer_1" data-name="Layer 1" xmlns="http://www.w3.org/2000/svg" width="1.31in" height="1.7in" viewBox="0 0 94.43 122.26"><path d="M109.41,10.87H36a10.51,10.51,0,0,0-10.5,10.49V122.63A10.51,10.51,0,0,0,36,133.13h73.44a10.51,10.51,0,0,0,10.49-10.5V21.36A10.51,10.51,0,0,0,109.41,10.87Zm-5.87,3.49v8.4H41.83v-8.4Zm12.87,108.27a7,7,0,0,1-7,7H36a7,7,0,0,1-7-7V21.36a7,7,0,0,1,7-7h2.37V24.5a1.75,1.75,0,0,0,1.75,1.74h65.19A1.74,1.74,0,0,0,107,24.5V14.36h2.38a7,7,0,0,1,7,7Z" transform="translate(-25.47 -10.87)"/><path d="M59.1,45.68l-8.77,8.77-3.77-3.77a1.74,1.74,0,1,0-2.47,2.46l5,5a1.75,1.75,0,0,0,2.47,0l10-10a1.74,1.74,0,1,0-2.47-2.46Z" transform="translate(-25.47 -10.87)"/><path d="M59.1,70.69l-8.77,8.78L46.56,75.7a1.74,1.74,0,0,0-2.47,2.46l5,5a1.75,1.75,0,0,0,2.47,0l10-10a1.75,1.75,0,0,0-2.47-2.47Z" transform="translate(-25.47 -10.87)"/><path d="M59.1,95.71l-8.77,8.78-3.77-3.77a1.74,1.74,0,0,0-2.47,2.46l5,5a1.75,1.75,0,0,0,2.47,0l10-10a1.75,1.75,0,1,0-2.47-2.47Z" transform="translate(-25.47 -10.87)"/><path d="M100.05,55.17H71.59a1.75,1.75,0,0,0,0,3.49h28.46a1.75,1.75,0,0,0,0-3.49Z" transform="translate(-25.47 -10.87)"/><path d="M100.05,80.19H71.59a1.75,1.75,0,0,0,0,3.49h28.46a1.75,1.75,0,0,0,0-3.49Z" transform="translate(-25.47 -10.87)"/><path d="M100.05,105.21H71.59a1.74,1.74,0,0,0,0,3.48h28.46a1.74,1.74,0,1,0,0-3.48Z" transform="translate(-25.47 -10.87)"/></svg>