<svg id="Layer_1" data-name="Layer 1" xmlns="http://www.w3.org/2000/svg" width="1.06in" height="1.72in" viewBox="0 0 76.14 124.04"><defs><style>.cls-1{stroke:#000;stroke-miterlimit:10;stroke-width:0.5px;}</style></defs><path class="cls-1" d="M70.8,25.34A6.8,6.8,0,1,0,64,18.55,6.8,6.8,0,0,0,70.8,25.34Zm0-11.46a4.67,4.67,0,1,1-4.67,4.67A4.67,4.67,0,0,1,70.8,13.88Z" transform="translate(-32.73 -11.5)"/><path class="cls-1" d="M48.15,30.22a6.35,6.35,0,1,0-6.34-6.34A6.35,6.35,0,0,0,48.15,30.22Zm0-10.56a4.22,4.22,0,1,1-4.21,4.22A4.22,4.22,0,0,1,48.15,19.66Z" transform="translate(-32.73 -11.5)"/><path class="cls-1" d="M101.31,32.35H86.41a7.85,7.85,0,0,0-7.07-4.51H62.26a7.85,7.85,0,0,0-7.07,4.51H40.29A7.32,7.32,0,0,0,33,39.66V56.15a4.19,4.19,0,0,0,4.59,4.17,4.11,4.11,0,0,0,1.66-.54V81.21a5,5,0,0,0,8.92,3.08,5,5,0,0,0,8.93-3.08V57.67A4.39,4.39,0,0,0,59.3,58a4.32,4.32,0,0,0,1.9-.66V80.82A5.33,5.33,0,0,0,70.8,84a5.33,5.33,0,0,0,9.6-3.19V57.38a4.36,4.36,0,0,0,1.9.66,4.5,4.5,0,0,0,2.22-.37V81.21a5,5,0,0,0,8.93,3.08,5,5,0,0,0,8.92-3.08V59.78a4.11,4.11,0,0,0,1.66.54,4.19,4.19,0,0,0,4.59-4.17V39.66A7.32,7.32,0,0,0,101.31,32.35ZM55,56V81.21a2.87,2.87,0,1,1-5.73,0v-19a1.07,1.07,0,1,0-2.13,0v19a2.87,2.87,0,0,1-5.74,0V44.7a1.06,1.06,0,1,0-2.12,0V56a2.16,2.16,0,0,1-1.86,2.18,2,2,0,0,1-2.26-2.05V39.66a5.18,5.18,0,0,1,5.18-5.18H54.51a.17.17,0,0,1,0,.07,8.75,8.75,0,0,0-.09,1.14V53.6a5.85,5.85,0,0,0,0,.59c0,.06,0,.12,0,.18s0,.26.08.39,0,.14.08.22a2.79,2.79,0,0,0,.12.34c0,.07.07.14.11.22l.07.16V56Zm27.55-.11a2.43,2.43,0,0,1-2.1-2.45v-14a1.06,1.06,0,0,0-2.12,0V80.82a3.21,3.21,0,1,1-6.41,0V60.29a1.07,1.07,0,0,0-2.13,0V80.82a3.21,3.21,0,1,1-6.41,0V39.49a1.07,1.07,0,0,0-2.13,0v14a2.42,2.42,0,0,1-2.1,2.46,2.32,2.32,0,0,1-2.19-1.08,2.27,2.27,0,0,1-.37-1.24V35.69a5.55,5.55,0,0,1,.34-1.92h0A5.74,5.74,0,0,1,62.26,30H79.34a5.74,5.74,0,0,1,5.39,3.8,5.83,5.83,0,0,1,.33,1.92V53.6a2.15,2.15,0,0,1-.07.5s0,.11,0,.18a2.18,2.18,0,0,1-.26.56A2.32,2.32,0,0,1,82.5,55.92Zm24,.23a2,2,0,0,1-2.26,2.05A2.16,2.16,0,0,1,102.37,56V44.7a1.07,1.07,0,1,0-2.13,0V56a.28.28,0,0,0,0,.09v25.1a2.87,2.87,0,0,1-5.74,0v-19a1.07,1.07,0,1,0-2.13,0v19a2.87,2.87,0,1,1-5.73,0v-25c.09-.31.24-.81.35-1.33a3.69,3.69,0,0,0,.16-.88,2.51,2.51,0,0,0,0-.37V35.69a7.08,7.08,0,0,0-.09-1.13.19.19,0,0,0,0-.08h14.22a5.18,5.18,0,0,1,5.18,5.18Z" transform="translate(-32.73 -11.5)"/><path class="cls-1" d="M93.45,30.22a6.35,6.35,0,1,0-6.34-6.34A6.35,6.35,0,0,0,93.45,30.22Zm0-10.56a4.22,4.22,0,1,1-4.22,4.22A4.22,4.22,0,0,1,93.45,19.66Z" transform="translate(-32.73 -11.5)"/><path class="cls-1" d="M71,95.32a5.91,5.91,0,0,1,5.85,3.87,1.34,1.34,0,1,0,2.58-.75,8.52,8.52,0,0,0-7.08-5.7V89.08a1.34,1.34,0,1,0-2.68,0v3.6a8.84,8.84,0,0,0-5.39,1.91,5.93,5.93,0,0,0-2,4.54c0,3.18,1.7,5.37,5,6.36l6.22,1.84a4.71,4.71,0,0,1,3.22,3.94,3.74,3.74,0,0,1-2.07,3.94l-.12.05c-.24.13-6,3-10-2.22a1.34,1.34,0,1,0-2.13,1.64,10.07,10.07,0,0,0,7.27,4.13v3.92a1.34,1.34,0,1,0,2.68,0v-4a11.24,11.24,0,0,0,3.38-1A6.47,6.47,0,0,0,79.41,111a7.43,7.43,0,0,0-5.14-6.28l-6.21-1.84c-2.19-.65-3.12-1.77-3.09-3.75a3.27,3.27,0,0,1,1.08-2.55C67,95.74,68.77,95.3,71,95.32Z" transform="translate(-32.73 -11.5)"/><path class="cls-1" d="M85.67,83.41a4.31,4.31,0,0,1-.39-3l0-.07a29.14,29.14,0,0,0-5.59-2.47A2.7,2.7,0,0,1,79.25,79a4.67,4.67,0,0,0-.5,1.08,3,3,0,0,1-.15.31,26.62,26.62,0,0,1,7.68,3.8A4.88,4.88,0,0,1,85.67,83.41Z" transform="translate(-32.73 -11.5)"/><path class="cls-1" d="M91.11,84.69l-.16.1a3.83,3.83,0,0,1-2,.53l-1-.14a2.85,2.85,0,0,1-.69-.25,26.68,26.68,0,1,1-24-4.64,4,4,0,0,1-.49-1.71c0-.31,0-.61-.07-.92a29.43,29.43,0,0,0-6.37,2.69,3.72,3.72,0,0,1-3.67,4.52,3.67,3.67,0,0,1-1.85-.46,29.39,29.39,0,1,0,40.32.28Z" transform="translate(-32.73 -11.5)"/></svg>