<svg id="Layer_1" data-name="Layer 1" xmlns="http://www.w3.org/2000/svg" width="1.53in" height="0.93in" viewBox="0 0 110.03 66.73"><path d="M59.25,90.64a5.24,5.24,0,1,0,5.24,5.23A5.24,5.24,0,0,0,59.25,90.64Zm0,8A2.77,2.77,0,1,1,62,95.87,2.77,2.77,0,0,1,59.25,98.64Z" transform="translate(-16.98 -40.56)"/><path d="M109,90.64a5.24,5.24,0,1,0,5.25,5.23A5.24,5.24,0,0,0,109,90.64Zm0,8a2.77,2.77,0,1,1,2.77-2.77A2.77,2.77,0,0,1,109,98.64Z" transform="translate(-16.98 -40.56)"/><polygon points="88.62 47.31 88.62 47.31 88.62 47.31 88.62 47.31"/><polygon points="84.95 50.27 84.95 50.27 84.95 50.27 84.95 50.27"/><polygon points="110.03 32.13 110.03 32.13 110.03 32.13 110.03 32.13 110.03 32.13"/><path d="M126.79,93.59V72.9a.37.37,0,0,0,0-.11l0-.14a1.11,1.11,0,0,0-.12-.34l-10.1-18.57a1.22,1.22,0,0,0-1.08-.65H94.37v-11a1.24,1.24,0,0,0-1.23-1.24H67.33a1.24,1.24,0,1,0,0,2.48H91.9V84.46H37.67V71.84a1.24,1.24,0,1,0-2.47,0V93.59a1.24,1.24,0,0,0,1.24,1.24H47.89l0,.4c0,.21,0,.43,0,.64a11.47,11.47,0,0,0,3.83,8.52l.49.43H24.21a1.24,1.24,0,0,0,0,2.47h96.21a1.24,1.24,0,0,0,0-2.47H116.1l.49-.43a11.43,11.43,0,0,0,3.83-8.52q0-.32,0-.63l0-.41h5.19A1.23,1.23,0,0,0,126.79,93.59Zm-9.41-33.14,6.1,11.22h-20.3V60.49ZM91.9,86.93v5.43H70.1L70,92.19a11.33,11.33,0,0,0-1-2.1c-.1-.16-.19-.32-.29-.47l-.18-.27-.51-.68.12-.24-.19.16a11.34,11.34,0,0,0-1.17-1.23l-.49-.43Zm-42.2,2.7c-.09.14-.18.3-.27.45a11.21,11.21,0,0,0-1,2.11l-.06.17H37.67V86.93H52.13l-.49.43a12.24,12.24,0,0,0-1.17,1.22l0,0a8.67,8.67,0,0,0-.53.71Zm9.55,15.19a9,9,0,0,1-9-8.95A8.44,8.44,0,0,1,50.52,94l0-.1a9.09,9.09,0,0,1,1.12-2.7l.07-.12a3.62,3.62,0,0,1,.22-.32l0-.06a3.35,3.35,0,0,1,.26-.34l.18-.23c.14-.16.28-.32.43-.47l.09-.09a8.91,8.91,0,0,1,2.79-1.88c.29-.12.52-.2.76-.28l.18,0a4.34,4.34,0,0,1,.62-.16l.23-.05.62-.1h.08l.15,0a9.88,9.88,0,0,1,1.72,0l.14,0h.09l.62.1.18,0a4.66,4.66,0,0,1,.67.17l.17,0c.24.08.48.16.71.26a8.89,8.89,0,0,1,2.85,1.9l0,.06c.18.18.33.34.47.51l.17.21c.1.11.18.23.27.35l0,.06a3.37,3.37,0,0,1,.21.31l.09.14A9.12,9.12,0,0,1,68,93.87a.08.08,0,0,1,0,.06,8.75,8.75,0,0,1,.22,1.94A9,9,0,0,1,59.25,104.82Zm7.09,0,.49-.43a11.44,11.44,0,0,0,3.84-8.52c0-.21,0-.43,0-.64l0-.4h27l0,.41q0,.32,0,.63a11.43,11.43,0,0,0,3.83,8.52l.49.43Zm42.66,0a9,9,0,0,1-8.94-8.95,9.1,9.1,0,0,1,.21-1.92l0-.1a9.14,9.14,0,0,1,1.12-2.71l.07-.11a4,4,0,0,1,.23-.34h0l.06-.08.22-.3.19-.23c.14-.16.27-.31.42-.46l.1-.11a8.88,8.88,0,0,1,2.79-1.87l.06,0c.23-.1.46-.18.7-.26l.18-.06a6,6,0,0,1,.61-.15l.24-.05.61-.1H108l.16,0a9.16,9.16,0,0,1,1.71,0l.23,0,.63.1.22,0a6.48,6.48,0,0,1,.63.17l.17,0c.24.08.48.16.71.26a8.8,8.8,0,0,1,2.84,1.9l.07.07c.17.17.31.33.45.49l.19.23.23.31.29.41,0,.08a9.32,9.32,0,0,1,1.14,2.76s0,0,0,.06a8.75,8.75,0,0,1,.22,1.94A9,9,0,0,1,109,104.82Zm15.32-12.46h-4.46l-.06-.17a11.17,11.17,0,0,0-1-2.11c-.09-.15-.18-.31-.28-.46l-.19-.27c-.16-.24-.33-.46-.5-.67l-.08-.1A11.25,11.25,0,0,0,112.4,85a9.54,9.54,0,0,0-1-.25l-.24,0-.81-.13-.28,0a10.93,10.93,0,0,0-2.14,0l-.19,0h-.1l-.81.13-.24,0a8.05,8.05,0,0,0-1,.25,11.29,11.29,0,0,0-5.4,3.61l0,.06c-.2.25-.37.47-.52.7s-.14.19-.2.29l-.27.44a11.6,11.6,0,0,0-1,2.12l-.06.17H94.37V55.57h20.35L116,58l-14.1,0a1.24,1.24,0,0,0-1.23,1.24V72.9a1.24,1.24,0,0,0,1.23,1.24h22.38Z" transform="translate(-16.98 -40.56)"/><path d="M56.75,45.72a16,16,0,1,0,16,16A16,16,0,0,0,56.75,45.72Zm0,29.5A13.52,13.52,0,1,1,70.27,61.71,13.52,13.52,0,0,1,56.75,75.22Z" transform="translate(-16.98 -40.56)"/><path d="M57.62,67.86l7.48-12A1.24,1.24,0,0,0,63.78,54a1.21,1.21,0,0,0-.77.55L56.32,65.28l-6.41-6A1.25,1.25,0,0,0,49,59a1.23,1.23,0,0,0-.86.39,1.26,1.26,0,0,0-.33.89,1.23,1.23,0,0,0,.39.86l7.51,7a1.26,1.26,0,0,0,1,.33A1.22,1.22,0,0,0,57.62,67.86Z" transform="translate(-16.98 -40.56)"/><path d="M36.44,62.7h-3a1.24,1.24,0,1,0,0,2.47h3a1.24,1.24,0,0,0,0-2.47Z" transform="translate(-16.98 -40.56)"/><path d="M29.38,62.7h-4.1a1.24,1.24,0,0,0,0,2.47h4.1a1.24,1.24,0,0,0,0-2.47Z" transform="translate(-16.98 -40.56)"/><path d="M21.19,62.7h-3a1.24,1.24,0,1,0,0,2.47h3a1.24,1.24,0,1,0,0-2.47Z" transform="translate(-16.98 -40.56)"/><path d="M35.05,54.1h3a1.24,1.24,0,1,0,0-2.47h-3a1.24,1.24,0,1,0,0,2.47Z" transform="translate(-16.98 -40.56)"/><path d="M30.43,51.63H25.81a1.24,1.24,0,1,0,0,2.47h4.62a1.24,1.24,0,1,0,0-2.47Z" transform="translate(-16.98 -40.56)"/><path d="M21.19,51.63h-3a1.24,1.24,0,1,0,0,2.47h3a1.24,1.24,0,1,0,0-2.47Z" transform="translate(-16.98 -40.56)"/><path d="M48.15,40.56h-3a1.24,1.24,0,0,0,0,2.47h3a1.24,1.24,0,1,0,0-2.47Z" transform="translate(-16.98 -40.56)"/><path d="M30.79,40.56H26A1.24,1.24,0,1,0,26,43h4.8a1.24,1.24,0,0,0,0-2.47Z" transform="translate(-16.98 -40.56)"/><path d="M40.38,40.56h-4.8a1.24,1.24,0,0,0,0,2.47h4.8a1.24,1.24,0,1,0,0-2.47Z" transform="translate(-16.98 -40.56)"/><path d="M21.19,40.56h-3a1.24,1.24,0,1,0,0,2.47h3a1.24,1.24,0,1,0,0-2.47Z" transform="translate(-16.98 -40.56)"/><path d="M85.83,46.9a1.25,1.25,0,0,0-1.24,1.24V76.46a1.24,1.24,0,0,0,2.48,0V48.14A1.25,1.25,0,0,0,85.83,46.9Z" transform="translate(-16.98 -40.56)"/></svg>