<?xml version="1.0" encoding="UTF-8"?><svg id="Layer_1" xmlns="http://www.w3.org/2000/svg" viewBox="0 0 141.93 145.24"><defs><style>.cls-1{fill:#65dff6;}</style></defs><path class="cls-1" d="M141.23,123.39c0,.29,0,.54,.01,.76,0-.23,0-.49,0-.77v.02Z"/><path class="cls-1" d="M141.24,123.37c.16-.41,.33-.86,.52-1.17,.33-1.11,.14-1.88-.17-1.46-.13-.1-.27,.07-.42,.35-.02-.34-.05-.68-.09-1.02-.22-2.39-.87-4.53-.86-3.99-.07,.33-.18,.35-.3,.29-.05-.14-.12-.21-.22-.18-.16-.14-.31-.24-.38,.21,.06,.14,.12,.28,.18,.42-.15,2.19-1.12,1.21-2.07,.38-1.08-.9-2.14-1.6-2.34,.58,.97-1.84,1,.7,.68,2.73-.35,.14-.93,.93-1.59,2.18-.34,1.16,.07,.79,.2,1.09-.43,.58-1.14,1.67-1.5,1.31,.08,1.1-1,1.15-1.44,2.15-.33,.96,.25,.08,.07,.82-.89,1.21-2.44,2.63-3.4,3.32-.43-.01-1.21,.03-1.62-.24,.23-.17,.46-.33,.68-.51,.04,.19,.17,.23,.78-.39-.13,0-.21-.03-.28-.07,.32-.29,.64-.57,.94-.88,3.54-3.65,5.26-8.39,5.19-13.1-.07-4.71-1.94-9.4-5.59-12.94l-4.64-4.5c2.25,1.45,4.31,2.63,5.65,2.64,2.11,1.84,3.59,3.46,4.84,5.15,1.23,1.72,2.37,3.62,3.08,6.64,.3-.86,.82,.59,1.13,1.96,.15,.72,.27,1.29,.4,1.47,.13,.22,.26,.13,.42-.51,.53-2.23,.35-3.47,.16-4.55-.23-1.09-.45-2.07-.7-4.07l-.23,.21c-.66-2.18-1.64-4.28-2.91-6.21-.64-.96-1.33-1.9-2.11-2.76l-1.78-2.02-6.87-7.6c-4.62-5.03-9.34-10-14.15-14.94-1.11-.92-2.21-1.89-3.31-2.87,1.04-.93,2.07-1.88,3.07-2.86,.95-.66,2.21-1.36,2.76-1.55,1.62-1.22,.54-1.13,1.64-2.11l.68,.38c1.05-1.97,2.78-1.67,3.97-3.34-.14-.29,.34-.85,.86-1.34,.6,.53,1.5-1.63,1.95-1.05l-.03-.06c.31-.3,.49-.56,.96-.84,.37-.79,4.17-7.84,4.51-8.68l.37-.19c.79-.84,.7-1.61,.13-1.23l1.02-.99-.07,.16,1.02-.98c.23-.14,.7-.09,.68,.44,.36-.77,.88-1.52,1.54-2-1.91,1.26-4.33,2.76-6.53,3.87,.47-.88,1.98-1.83,2.64-2.63,.62-.26,1.45-.77,2.34-1.36,.44-.3,.9-.62,1.34-.93,.45-.33,1.12-.89,1.6-1.33,.36-.5-.08-1.35,1.01-2.21,.89-.2,.83-1.28,1.76-2.05-.35,1.31-1.18,2.34-2.02,3.37,.75,.29,2.31-2.4,2.94-3.3,.06-.53,1.4-2.84,1.67-4.5,.3,.59,.56-.08,.87-.88,0-.18,0-.37,0-.57,0,.19,.01,.38,.01,.56,.16-.41,.33-.86,.52-1.17,.33-1.11,.14-1.88-.17-1.46-.13-.1-.27,.07-.42,.35-.02-.34-.05-.68-.09-1.02-.22-2.39-.87-4.53-.86-3.99-.07,.33-.18,.35-.3,.29-.05-.14-.12-.21-.22-.18-.16-.14-.31-.24-.38,.21,.06,.14,.12,.28,.18,.42-.15,2.19-1.12,1.21-2.07,.38-1.08-.9-2.14-1.6-2.34,.58,.97-1.84,1,.7,.68,2.73-.35,.14-.93,.93-1.59,2.18-.34,1.16,.07,.79,.2,1.09-.43,.58-1.14,1.67-1.5,1.31,.08,1.1-1,1.15-1.44,2.15-.33,.96,.25,.08,.07,.82-.92,1.22-2.44,2.63-3.26,3.31-.4,0-1.16,.16-1.6-.05l.59-.61c.06,.19,.2,.22,.75-.44-.13,0-.22-.02-.28-.05l.9-.93c3.54-3.65,5.26-8.39,5.19-13.1-.07-4.71-1.94-9.4-5.59-12.94-1.6-1.55-3.42-2.73-5.34-3.59,.16,.04,.33,.07,.49,.11,2.42,.6,4.48,1.55,5.8,1.6,2.24,1.88,3.63,3.47,4.91,5.17,1.23,1.72,2.37,3.62,3.08,6.64,.3-.86,.82,.59,1.13,1.96,.15,.72,.27,1.29,.4,1.47,.13,.22,.26,.13,.42-.51,.53-2.23,.35-3.47,.16-4.55-.23-1.09-.45-2.07-.7-4.07l-.23,.21c-2.54-8.77-10.73-15.97-20.42-17.19-4.78-.65-9.82,.04-14.32,2.14-2.26,1.02-4.38,2.39-6.24,4.04l-1.33,1.21-.93,.9-1.85,1.8c-5.88,7.1-13.25,13.85-19.74,20.86-1.32,1.44-2.65,2.91-3.98,4.39-.43-.36-.87-.73-1.29-1.08-1.68-1.29-2.28-2.86-3.29-4.4-6.09-5.37-13.31-12.77-20.21-18.81,.11,.13,.23,.25,.3,.33-.93-.85-1.61-1.57-2.53-2.5-1.06-1.08-2.15-2.05-3.33-2.94-2.36-1.75-5.05-3.17-8.33-3.84-.02,.25-1.02,.01-1.54,.08-.22-.29-2.83-.85-6.55-.35-3.7,.43-8.43,2.25-12.12,5.35-3.74,3.05-6.28,7.19-7.48,10.64-1.24,3.44-1.4,6.04-1.63,6.55-.04,.64-.06,1.3-.03,1.97-.58,6.38,1.28,13.39,5.63,18.61,.82,1.01,1.64,2.01,2.44,2.99,.79,.92,1.56,1.83,2.32,2.72,1.55,1.76,3.1,3.41,4.68,4.87,1.71,.92,3.55,2.05,5.1,2.71,.75,1.41,1.62,.94,2.85,2.31,1.76,4.87,4.38,6.09,3.21,3.84,2.83,2.34,5.34,5,7.74,7.26-1.76,1.87-3.48,3.75-5.11,5.61l.33-.3c-3.28,3.59-6.45,5.6-9.65,9.11,.19,.15-.31,.69-.47,1.04-.69-.1-5.14,5.33-9.61,10.88-.56,.69-1.12,1.39-1.67,2.08-.32,.41-.64,.81-.95,1.21-.34,.46-.68,.91-1.01,1.36-1.21,1.88-2.2,3.74-2.77,5.48-1.24,3.44-1.4,6.04-1.63,6.55-.04,.64-.06,1.3-.03,1.97-.58,6.38,1.28,13.39,5.63,18.61,4.22,5.27,10.89,8.49,17.01,8.55,2.67-.4,5.52-1.25,7.38-2.43,1.06,0,1.6-.35,2.16-.72,.57-.36,1.14-.8,2.25-1.29,3.27-.37,5.62-1.82,6.51-2.78,.95-.96,.69-1.32-.76-.52l1.29-1.35,.96-1.07c.66-.69,1.31-1.38,1.95-2.05,1.3-1.34,2.58-2.62,3.74-3.87,.97-1.25,1.93-2.5,2.91-3.78,.8-1.1,1.57-1.41,2.43-1.52,2.18-2.71,1.87-1.59,4.56-4.03,1.18-.08,5.43-7.41,6.31-7.98l-.33,.51c1.23-1.18,2.45-2.04,3.68-2.83,4.63,4.44,9.24,8.77,13.28,12.89,.65-.52-1.8-1.49-1.12-2.36,4.37,4.44,8.16,9.55,12.57,14.02,.66,.95,1.36,2.21,1.55,2.76,.32,.42,.5,.62,.74,.81,.27,.21,.45,.3,.62,.37,.34,.13,.62,.18,1.4,.93l-.24,.78c1.51,.72,2.33,1.59,3.25,2.37,.89,.82,1.83,1.6,3.35,2.07,.26-.19,1.34,.15,2.39,.51-.19,.86,3.32,.8,3.01,1.46l.04-.05c.66,.15,1.15,.14,1.96,.39,.65,0,4.07-.36,7.15-1.43,3.12-.99,5.76-2.76,6.24-3.13,.19-.02,.38-.05,.56-.1,1.5-.73,1.82-1.57,.92-1.28,.61-.26,1.19-.58,1.75-.92l-.17,.17c.57-.34,1.15-.65,1.69-1.02,.33-.16,.89-.11,.63,.52,.77-.91,1.67-1.8,2.58-2.5-2.62,1.85-6.34,3.33-9.5,3.6,1.09-.63,3.31-1.28,4.43-2.11,1.7-.36,4.73-2.18,6.75-4.1,.36-.5-.08-1.35,1.01-2.21,.89-.2,.83-1.28,1.76-2.05-.35,1.31-1.18,2.34-2.02,3.37,.75,.29,2.31-2.4,2.94-3.3,.06-.53,1.4-2.84,1.67-4.5,.3,.59,.56-.08,.87-.88,0-.18,0-.37,0-.57,0,.19,.01,.38,.01,.56Zm-2.42-97.21c.11,.23,.05,.74,0,1.1,.04-.8,.7,1.33,.91,3.63-.43,.89-.9,2.75-1.22,2.41,.01,.13,.02,.24,.03,.32l-.35,.59c.02-.42,.1-1.14,.24-1.86,.02,.18,.03,.36,.05,.52,.42-.5,.74-2.37,.82-3.42-.29-.04-.38,.32-.51,.28-.07-.36-.09-.84-.12-1.32,0-.13,0-.26,0-.38l.07-.28c-.04-.32-.06-.67-.09-.98,.02-.23,.07-.44,.17-.61Zm-1.18,2.52c-.21,.11-.39,.07-.48-.13,.06-.56,.26-.4,.48,.13Zm.9,90.15c.06-.56,.26-.4,.48,.13-.21,.11-.39,.07-.48-.13Zm1.35,4.75c.01,.13,.02,.24,.03,.32l-.35,.59c.02-.42,.1-1.14,.24-1.86,.02,.18,.03,.36,.05,.52,.42-.5,.74-2.37,.82-3.42-.29-.04-.38,.32-.51,.28-.07-.36-.09-.84-.12-1.32,0-.13,0-.25,0-.38l.07-.28c-.04-.32-.06-.67-.09-.98,.02-.23,.07-.44,.17-.61,.11,.23,.05,.74,0,1.1,.04-.8,.7,1.33,.91,3.63-.43,.89-.91,2.75-1.22,2.41Z"/><path class="cls-1" d="M139.76,123.26c.04,.17,.09,.27,.14,.32-.01-.12-.02-.27-.04-.43-.03,.04-.07,.09-.1,.11Z"/><path class="cls-1" d="M141.39,124.81c-.09,.08-.12-.19-.14-.67,0,.87,0,1.28,.14,.67Z"/><path class="cls-1" d="M140,34.54c-.09,.08-.12-.19-.14-.67,0,.87,0,1.28,.14,.67Z"/><path class="cls-1" d="M139.86,33.87c0-.23,0-.49,0-.77v.02c0,.29,0,.54,0,.76Z"/><path class="cls-1" d="M138.37,32.98c.04,.17,.09,.27,.14,.32-.01-.12-.02-.27-.04-.43-.03,.04-.07,.09-.1,.11Z"/></svg>